<?xml version="1.0" encoding="utf-8"?>
<!-- Generator: Adobe Illustrator 23.0.2, SVG Export Plug-In . SVG Version: 6.00 Build 0)  -->
<svg version="1.1" id="Laag_1" xmlns="http://www.w3.org/2000/svg" xmlns:xlink="http://www.w3.org/1999/xlink" x="0px" y="0px"
	 viewBox="0 0 337 273" style="enable-background:new 0 0 337 273;" xml:space="preserve">
<style type="text/css">
	.st0{clip-path:url(#SVGID_2_);fill:#F39B1E;}
	.st1{clip-path:url(#SVGID_4_);fill:#EF4742;}
	.st2{clip-path:url(#SVGID_6_);fill:#93D7F4;}
	.st3{clip-path:url(#SVGID_8_);fill:#FBEA0C;}
	.st4{fill:#4AB8A9;}
</style>
<g>
	<defs>
		
			<rect id="SVGID_1_" x="-1523.5" y="163.78" transform="matrix(0.5801 -0.8146 0.8146 0.5801 -828.0944 -1059.7815)" width="163.12" height="219.03"/>
	</defs>
	<clipPath id="SVGID_2_">
		<use xlink:href="#SVGID_1_"  style="overflow:visible;"/>
	</clipPath>
	<path class="st0" d="M-1422.26,385.95c-5.33-7.74-4.58-18.41,2.27-25.33c2.05-2.11,51.09-53.43,16.03-105.57
		c-0.16-0.24-0.33-0.5-0.5-0.73c-34.39-49.96-96.89-19.08-99.55-17.74c-9.8,4.96-21.81,1.11-26.82-8.71
		c-5-9.79-1.18-21.76,8.59-26.8c33.21-17.12,107.15-32.58,150.61,30.55c0.27,0.39,0.52,0.77,0.79,1.16
		c42.72,63.54,5.08,129.77-20.78,155.91c-7.75,7.83-20.39,7.9-28.22,0.15C-1420.75,387.93-1421.56,386.96-1422.26,385.95"/>
</g>
<g>
	<defs>
		
			<rect id="SVGID_3_" x="-1390.09" y="-120.87" transform="matrix(0.1404 -0.9901 0.9901 0.1404 -1063.0635 -1317.9474)" width="199.07" height="148.25"/>
	</defs>
	<clipPath id="SVGID_4_">
		<use xlink:href="#SVGID_3_"  style="overflow:visible;"/>
	</clipPath>
	<path class="st1" d="M-1373.24,16.24c4.02-7.53,12.94-11.39,21.39-8.76c2.56,0.77,64.48,18.89,91.9-31.19
		c0.13-0.23,0.26-0.48,0.38-0.71c25.94-48.64-25.11-86.17-27.3-87.76c-8.1-5.83-10.01-17.14-4.18-25.28
		c5.81-8.13,17.07-10.05,25.22-4.27c27.7,19.64,71.09,72.85,38.31,134.31c-0.2,0.38-0.4,0.74-0.6,1.12
		c-33.42,61.04-102.6,58.35-134.51,48.41c-9.56-2.98-14.9-13.15-11.92-22.71C-1374.22,18.29-1373.77,17.23-1373.24,16.24"/>
</g>
<g>
	<defs>
		
			<rect id="SVGID_5_" x="99.39" y="-609.64" transform="matrix(0.2042 -0.9789 0.9789 0.2042 683.4646 -209.0956)" width="227.47" height="169.4"/>
	</defs>
	<clipPath id="SVGID_6_">
		<use xlink:href="#SVGID_5_"  style="overflow:visible;"/>
	</clipPath>
	<path class="st2" d="M312.07-590.64c-5.14,8.29-15.6,12.04-25.04,8.4c-2.86-1.07-72.12-26.31-107.1,28.77
		c-0.16,0.26-0.33,0.52-0.49,0.78c-33.18,53.54,22.25,100.12,24.64,102.09c8.81,7.25,10.15,20.29,2.9,29.14
		c-7.22,8.84-20.21,10.19-29.07,3c-30.13-24.44-75.67-88.33-33.74-155.99c0.26-0.41,0.51-0.82,0.77-1.23
		c42.63-67.13,121.31-58.95,156.96-45.24c10.68,4.11,16.02,16.09,11.91,26.78C313.33-592.9,312.74-591.73,312.07-590.64"/>
</g>
<g>
	<defs>
		
			<rect id="SVGID_7_" x="507.64" y="-512.6" transform="matrix(0.2591 -0.9658 0.9658 0.2591 834.3427 240.4605)" width="132.54" height="177.97"/>
	</defs>
	<clipPath id="SVGID_8_">
		<use xlink:href="#SVGID_7_"  style="overflow:visible;"/>
	</clipPath>
	<path class="st3" d="M620.86-343.42c-6.25-4.38-8.71-12.72-5.46-19.93c0.96-2.19,23.74-55.18-17.75-84.93
		c-0.19-0.14-0.39-0.28-0.59-0.42c-40.36-28.28-79.19,12.97-80.83,14.74c-6.05,6.56-16.29,7.03-22.89,0.98
		c-6.58-6.03-7.07-16.23-1.06-22.84c20.42-22.46,72.34-55.21,123.34-19.48c0.31,0.22,0.62,0.44,0.93,0.66
		c50.56,36.26,40.69,97.36,28.42,124.61c-3.68,8.16-13.28,11.8-21.44,8.12C622.57-342.34,621.69-342.84,620.86-343.42"/>
</g>
<path class="st4" d="M214.05,218.4c-6.38-5.47-8.19-14.88-3.85-22.44c1.29-2.3,31.93-57.95-10.36-95.01c-0.2-0.17-0.4-0.35-0.6-0.52
	c-41.22-35.33-88.21,5.73-90.2,7.5c-7.34,6.54-18.62,5.97-25.2-1.38C77.27,99.24,77.83,88,85.12,81.4
	c24.8-22.44,85.22-52.78,137.31-8.14c0.32,0.27,0.63,0.54,0.95,0.82c51.54,45.17,34.19,111.1,17.81,139.66
	c-4.91,8.56-15.82,11.52-24.38,6.61C215.81,219.77,214.89,219.12,214.05,218.4"/>
</svg>
