<?xml version="1.0" encoding="utf-8"?>
<!-- Generator: Adobe Illustrator 23.0.2, SVG Export Plug-In . SVG Version: 6.00 Build 0)  -->
<svg version="1.1" id="Laag_1" xmlns="http://www.w3.org/2000/svg" xmlns:xlink="http://www.w3.org/1999/xlink" x="0px" y="0px"
	 viewBox="0 0 1499.2 1826.56" style="enable-background:new 0 0 1499.2 1826.56;" xml:space="preserve">
<style type="text/css">
	.st0{fill:#FFFFFF;}
	.st1{fill:#222221;}
	.st2{fill:#222221;stroke:#222221;stroke-width:0.75;stroke-miterlimit:10;}
	.st3{fill:#B7B7B7;}
	.st4{fill:none;stroke:#000000;stroke-miterlimit:10;}
	.st5{fill:#E9F91D;}
</style>
<g>
	<path d="M223.59,1605.59c-0.54-0.45-1.08-0.88-1.62-1.32c-62.99-50.85-131.09-38.86-179.76-13.83c0.14,25.73,0.22,49.5,0.27,70.6
		c21.5-16.99,83.86-57.45,142.19-10.37c0.34,0.27,0.69,0.55,1.03,0.84c42.47,35.06,43.29,82.04,36.34,115.63
		c20.34,0.73,40.38,1.42,60.11,2.1C290.16,1717.18,281.3,1653.23,223.59,1605.59z"/>
	<path d="M1055.48,921.69c0.23-0.37,0.47-0.75,0.71-1.12c51.04-78.6,150.15-41.34,154.24-39.75c13.51,5.35,28.59,0.13,36.09-11.71
		c0.99-1.56,1.84-3.23,2.54-5.01c6.06-15.28-1.43-32.58-16.71-38.63c-51.01-20.2-163.9-33.1-226.1,62.68
		c-0.38,0.59-0.75,1.17-1.13,1.76c-18.63,29.39-25.6,58.4-25.1,85.54c19.81,0.33,39.76,0.72,59.84,1.19
		C1039.2,959.46,1043.33,940.85,1055.48,921.69z"/>
	<path d="M490.9,396.84c0.51-0.9,1.01-1.78,1.51-2.67c68.87-123.06,7.96-234.7-52.29-296.13l-90.34,36.66
		c1.47,1.48,3.05,2.87,4.77,4.15c5.22,3.92,126.37,96.86,61.49,212.77c-0.31,0.56-0.63,1.13-0.96,1.69
		c-47.63,82.95-133.8,85.69-183.98,78.98c2.41,31.35,4.1,60.87,5.12,88.64C319.19,527.59,428.35,505.78,490.9,396.84z"/>
	<path d="M1241.7,303.16c0.41,0.57,0.82,1.13,1.23,1.69c30.4,41.14,69.11,58.51,106.97,62.72c2.59-21.05,5.37-40.89,8.16-59.1
		c-23.43-2.4-47.85-12.76-67.32-39.09c-0.26-0.35-0.52-0.71-0.78-1.07c-29.69-41.12-22.66-83.11-9.48-113.5l-55.29-22.01
		C1205.18,180.79,1198.71,243.64,1241.7,303.16z"/>
	<path d="M1252.48,1586.82c-0.25,0.46-0.5,0.94-0.76,1.41c-54.46,99.19-177.12,63.15-182.18,61.6
		c-16.75-5.24-34.44,2.39-42.42,17.31c-1.05,1.96-1.93,4.05-2.62,6.26c-5.94,18.94,4.62,39.1,23.56,45.03
		c63.22,19.79,200.3,25.26,266.67-95.62c0.41-0.74,0.8-1.48,1.2-2.22c21.44-40.1,26.5-78.44,21.69-113.22
		c-24.24-1.23-48.95-2.31-74.03-3.26C1269.78,1528.51,1268.64,1556.59,1252.48,1586.82z"/>
	<path d="M404.42,1218.55c-0.44,0.02-0.89,0.04-1.32,0.06c-56.51,2.44-85.14-33.88-98.86-62.45c-21.1,1.19-41.97,2.52-62.55,3.97
		c18.71,51.72,67.71,118.13,163.7,113.97c0.7-0.03,1.39-0.06,2.09-0.1c95.61-5.12,142.95-74.45,160.51-126.59
		c-21.37,0.28-42.71,0.65-63.97,1.12C490.08,1178.21,461.35,1215.5,404.42,1218.55z"/>
</g>
<g>
	<path d="M832.47,479.55c-6.66,0.76-13.33,2.56-19.82,5.35c25.4,26.24,32.8,61.89,33.26,64.21c1.76,9.23,9.83,15.66,18.9,15.66
		c1.19,0,2.4-0.11,3.62-0.34c10.45-1.99,17.31-12.06,15.32-22.51c-3.05-16.07-10.62-37.62-23.66-58.22l-0.96-0.37
		C850.45,480.01,841.48,478.74,832.47,479.55z"/>
	<path d="M818.01,439.68c-18.78-12.51-41.97-20.82-70.28-21.14c-0.55-0.01-1.08-0.01-1.62-0.01c-89.11,0-123.09,81.29-128.6,124.54
		c-1.34,10.55,6.12,20.19,16.67,21.54c10.55,1.36,20.19-6.12,21.54-16.67c0.03-0.23,3.35-24.01,16.65-47.07
		c16.96-29.43,42.09-44.11,74.95-43.82c9.07,0.1,17.29,1.37,24.82,3.46l0.52-0.39C786.41,449.9,801.67,443.03,818.01,439.68z"/>
	<path d="M729.25,543.14c-0.63,4.02,0.34,8.05,2.74,11.34c2.4,3.29,5.93,5.45,9.95,6.09c8.46,1.31,16.13-4.45,17.43-12.69
		c4.79-30.45,23.75-55.47,48.98-67.19c-8.12-7.43-17.87-13.81-29.55-18.07C753.08,480.56,734.56,509.39,729.25,543.14z"/>
	<path d="M916.97,483.4c-19.63-25.56-48.79-40.19-79.29-40.19c-2.87,0-5.75,0.13-8.64,0.39l-0.32,0.03
		c-1.44,0.16-2.87,0.36-4.29,0.57c12.2,9.24,22.34,20.26,30.6,31.87c14.54,4,27.83,12.94,37.77,25.89
		c5.11,6.66,14.71,7.92,21.37,2.8c3.23-2.48,5.3-6.07,5.83-10.11C920.52,490.63,919.45,486.63,916.97,483.4z"/>
	<path d="M824.42,444.22c-16.62,2.54-32.11,8.97-45.62,18.4c11.68,4.26,21.43,10.64,29.55,18.07c7.39-3.43,15.3-5.78,23.57-6.72
		c7.85-0.71,15.64,0.07,23.1,2.12C846.75,464.48,836.62,453.46,824.42,444.22z"/>
</g>
<g>
	<g>
		<path d="M546.97,586.55v52.99h23.41c2.38,0,4.21,0.58,5.49,1.74c1.28,1.16,1.91,2.62,1.91,4.37c0,1.79-0.63,3.24-1.89,4.35
			c-1.26,1.11-3.1,1.66-5.51,1.66h-29.12c-3.21,0-5.52-0.71-6.93-2.14c-1.41-1.42-2.11-3.72-2.11-6.9v-56.07
			c0-2.98,0.67-5.21,2.01-6.7c1.34-1.49,3.1-2.24,5.29-2.24c2.22,0,4.01,0.74,5.39,2.21C546.28,581.29,546.97,583.53,546.97,586.55z
			"/>
		<path d="M570.37,652.86h-29.12c-3.53,0-6.15-0.84-7.79-2.5c-1.63-1.65-2.46-4.25-2.46-7.75v-56.07c0-3.27,0.78-5.8,2.32-7.51
			c1.57-1.75,3.65-2.63,6.18-2.63c2.55,0,4.66,0.87,6.27,2.59c1.58,1.7,2.38,4.24,2.38,7.55v51.79h22.2c2.68,0,4.8,0.69,6.3,2.05
			c1.53,1.39,2.31,3.16,2.31,5.26c0,2.14-0.77,3.9-2.29,5.25C575.2,652.2,573.08,652.86,570.37,652.86z M539.52,578.81
			c-1.84,0-3.28,0.6-4.39,1.84c-1.13,1.25-1.7,3.24-1.7,5.9v56.07c0,2.83,0.59,4.87,1.76,6.06c1.17,1.18,3.21,1.78,6.07,1.78h29.12
			c2.1,0,3.69-0.46,4.72-1.36c1-0.88,1.48-2.01,1.48-3.44c0-1.41-0.5-2.55-1.52-3.48c-1.04-0.94-2.61-1.42-4.68-1.42h-24.61v-54.19
			c0-2.68-0.58-4.67-1.74-5.91C542.88,579.41,541.41,578.81,539.52,578.81z"/>
	</g>
	<g>
		<path d="M641.44,625.33c0,4.04-0.63,7.76-1.89,11.17c-1.26,3.41-3.08,6.34-5.46,8.79s-5.23,4.33-8.54,5.64
			c-3.31,1.31-7.04,1.96-11.17,1.96c-4.11,0-7.8-0.66-11.07-1.99s-6.12-3.22-8.52-5.68c-2.4-2.47-4.22-5.38-5.46-8.74
			c-1.24-3.36-1.86-7.08-1.86-11.15c0-4.1,0.63-7.86,1.89-11.27c1.26-3.41,3.06-6.32,5.41-8.74c2.35-2.42,5.2-4.28,8.54-5.58
			c3.34-1.31,7.03-1.96,11.07-1.96c4.1,0,7.83,0.66,11.17,1.99c3.34,1.33,6.21,3.21,8.59,5.66c2.38,2.45,4.2,5.36,5.44,8.74
			C640.82,617.53,641.44,621.26,641.44,625.33z M627.83,625.33c0-5.53-1.22-9.83-3.65-12.91c-2.43-3.08-5.7-4.62-9.81-4.62
			c-2.65,0-4.98,0.69-7,2.06c-2.02,1.37-3.58,3.4-4.67,6.08c-1.09,2.68-1.64,5.81-1.64,9.39c0,3.54,0.54,6.64,1.61,9.29
			c1.07,2.65,2.61,4.68,4.62,6.08c2,1.41,4.36,2.11,7.08,2.11c4.1,0,7.38-1.55,9.81-4.64C626.62,635.07,627.83,630.8,627.83,625.33z
			"/>
		<path d="M614.38,654.1c-4.24,0-8.12-0.7-11.53-2.07c-3.41-1.38-6.41-3.38-8.93-5.96c-2.51-2.57-4.43-5.66-5.73-9.16
			c-1.28-3.49-1.94-7.38-1.94-11.57c0-4.23,0.66-8.16,1.96-11.69c1.31-3.55,3.22-6.63,5.68-9.16c2.46-2.53,5.48-4.5,8.97-5.87
			c3.46-1.36,7.34-2.05,11.51-2.05c4.24,0,8.14,0.7,11.62,2.07c3.49,1.38,6.52,3.38,9.01,5.94c2.49,2.57,4.41,5.65,5.71,9.17
			c1.28,3.49,1.94,7.39,1.94,11.59c0,4.16-0.66,8.06-1.96,11.59c-1.31,3.55-3.24,6.65-5.73,9.21c-2.49,2.56-5.51,4.55-8.96,5.92
			C622.56,653.41,618.65,654.1,614.38,654.1z M614.38,598.97c-3.87,0-7.45,0.63-10.64,1.88c-3.17,1.24-5.9,3.02-8.12,5.3
			c-2.22,2.28-3.96,5.08-5.15,8.32c-1.2,3.26-1.81,6.91-1.81,10.86c0,3.91,0.6,7.52,1.79,10.73c1.18,3.19,2.93,5.99,5.2,8.32
			c2.28,2.34,5.01,4.16,8.1,5.41c3.12,1.26,6.69,1.9,10.62,1.9c3.97,0,7.58-0.63,10.73-1.88c3.14-1.24,5.87-3.04,8.12-5.36
			c2.25-2.32,4-5.13,5.2-8.37c1.2-3.26,1.81-6.88,1.81-10.76c0-3.91-0.6-7.53-1.79-10.76c-1.17-3.2-2.91-6-5.17-8.32
			c-2.25-2.31-5-4.12-8.17-5.38C621.92,599.61,618.31,598.97,614.38,598.97z M614.38,644.02c-2.95,0-5.57-0.78-7.77-2.33
			c-2.19-1.54-3.88-3.77-5.04-6.62c-1.13-2.78-1.7-6.05-1.7-9.74c0-3.72,0.58-7.03,1.73-9.84c1.18-2.89,2.9-5.12,5.11-6.62
			c2.21-1.51,4.8-2.27,7.68-2.27c4.47,0,8.09,1.71,10.75,5.08c2.59,3.28,3.91,7.88,3.91,13.66c0,5.71-1.31,10.28-3.91,13.58
			C622.47,642.3,618.85,644.02,614.38,644.02z M614.38,609c-2.39,0-4.52,0.62-6.32,1.85c-1.81,1.23-3.23,3.09-4.23,5.54
			c-1.03,2.52-1.55,5.53-1.55,8.93c0,3.37,0.51,6.34,1.52,8.83c0.98,2.42,2.39,4.29,4.19,5.55c1.81,1.27,3.9,1.89,6.39,1.89
			c3.75,0,6.65-1.37,8.86-4.18c2.25-2.86,3.39-6.93,3.39-12.09c0-5.23-1.14-9.32-3.39-12.17C621.03,610.37,618.13,609,614.38,609z"
			/>
	</g>
	<g>
		<path d="M705.11,625.27c0,4.04-0.63,7.76-1.89,11.17c-1.26,3.41-3.08,6.34-5.46,8.79c-2.38,2.45-5.23,4.33-8.54,5.64
			c-3.31,1.31-7.04,1.96-11.17,1.96c-4.11,0-7.8-0.66-11.07-1.99c-3.28-1.32-6.12-3.22-8.52-5.68c-2.4-2.47-4.22-5.38-5.46-8.74
			c-1.24-3.36-1.86-7.08-1.86-11.15c0-4.1,0.63-7.86,1.89-11.27c1.26-3.41,3.06-6.32,5.41-8.74c2.35-2.42,5.2-4.28,8.54-5.58
			c3.34-1.31,7.03-1.96,11.07-1.96c4.1,0,7.83,0.66,11.17,1.99c3.34,1.33,6.21,3.21,8.59,5.66c2.38,2.45,4.2,5.36,5.44,8.74
			C704.49,617.47,705.11,621.2,705.11,625.27z M691.5,625.27c0-5.53-1.22-9.83-3.65-12.91c-2.43-3.08-5.7-4.62-9.81-4.62
			c-2.65,0-4.98,0.69-7,2.06c-2.02,1.37-3.58,3.4-4.67,6.08s-1.64,5.81-1.64,9.39c0,3.54,0.54,6.64,1.61,9.29
			c1.07,2.65,2.61,4.68,4.62,6.08c2,1.41,4.36,2.11,7.08,2.11c4.1,0,7.38-1.55,9.81-4.64C690.28,635.01,691.5,630.73,691.5,625.27z"
			/>
		<path d="M678.04,654.03c-4.24,0-8.12-0.7-11.52-2.07c-3.42-1.38-6.42-3.39-8.93-5.96c-2.5-2.57-4.43-5.65-5.73-9.16
			c-1.28-3.48-1.94-7.37-1.94-11.57c0-4.23,0.66-8.17,1.96-11.69c1.31-3.55,3.22-6.63,5.68-9.16c2.46-2.53,5.48-4.5,8.97-5.87
			c3.46-1.36,7.34-2.05,11.51-2.05c4.23,0,8.14,0.7,11.62,2.07c3.49,1.39,6.52,3.38,9.01,5.94c2.49,2.56,4.41,5.65,5.7,9.17
			c1.28,3.49,1.94,7.39,1.94,11.59c0,4.16-0.66,8.06-1.96,11.59c-1.31,3.55-3.24,6.65-5.73,9.21c-2.49,2.56-5.51,4.55-8.96,5.92
			C686.22,653.34,682.31,654.03,678.04,654.03z M678.04,598.91c-3.87,0-7.45,0.63-10.64,1.88c-3.17,1.24-5.9,3.02-8.12,5.3
			c-2.22,2.28-3.95,5.08-5.15,8.32c-1.2,3.26-1.81,6.91-1.81,10.86c0,3.91,0.6,7.52,1.79,10.73c1.18,3.19,2.93,5.99,5.2,8.32
			c2.27,2.33,5,4.15,8.11,5.41c3.12,1.26,6.69,1.9,10.62,1.9c3.97,0,7.58-0.63,10.73-1.88c3.14-1.24,5.87-3.04,8.12-5.36
			c2.26-2.32,4-5.14,5.2-8.37c1.2-3.26,1.81-6.88,1.81-10.76c0-3.92-0.6-7.54-1.79-10.76c-1.17-3.2-2.91-6-5.17-8.32
			c-2.25-2.31-5-4.12-8.17-5.38C685.58,599.55,681.97,598.91,678.04,598.91z M678.04,643.95c-2.95,0-5.57-0.78-7.77-2.33
			c-2.19-1.54-3.88-3.76-5.04-6.62c-1.13-2.78-1.7-6.06-1.7-9.74c0-3.72,0.58-7.03,1.73-9.84c1.18-2.89,2.9-5.12,5.11-6.62
			c2.21-1.51,4.8-2.27,7.68-2.27c4.47,0,8.09,1.71,10.75,5.08c2.59,3.28,3.91,7.88,3.91,13.66c0,5.71-1.31,10.28-3.91,13.58
			C686.14,642.24,682.52,643.95,678.04,643.95z M678.04,608.94c-2.39,0-4.52,0.62-6.32,1.86c-1.81,1.23-3.23,3.09-4.23,5.54
			c-1.03,2.52-1.55,5.53-1.55,8.93c0,3.37,0.51,6.34,1.53,8.83c0.98,2.42,2.39,4.29,4.19,5.55c1.79,1.26,3.94,1.89,6.39,1.89
			c3.75,0,6.65-1.37,8.86-4.18c2.25-2.86,3.39-6.93,3.39-12.09c0-5.23-1.14-9.32-3.39-12.17
			C684.69,610.3,681.79,608.94,678.04,608.94z"/>
	</g>
	<g>
		<path d="M727.51,605.37v1.64c2.53-3.14,5.16-5.45,7.89-6.93c2.73-1.47,5.82-2.21,9.27-2.21c4.14,0,7.96,1.08,11.44,3.23
			c3.48,2.15,6.24,5.3,8.26,9.44c2.02,4.14,3.03,9.04,3.03,14.7c0,4.17-0.58,8-1.75,11.5c-1.17,3.49-2.77,6.42-4.81,8.79
			c-2.04,2.36-4.45,4.19-7.22,5.46c-2.78,1.27-5.76,1.91-8.95,1.91c-3.85,0-7.08-0.78-9.69-2.33c-2.62-1.56-5.1-3.84-7.47-6.85
			v20.36c0,5.96-2.15,8.94-6.46,8.94c-2.53,0-4.21-0.77-5.03-2.31c-0.82-1.54-1.23-3.78-1.23-6.73v-58.5c0-2.58,0.56-4.51,1.68-5.79
			c1.12-1.28,2.65-1.91,4.59-1.91c1.91,0,3.46,0.65,4.66,1.96C726.91,601.04,727.51,602.92,727.51,605.37z M753.9,625.08
			c0-3.58-0.54-6.65-1.63-9.21c-1.08-2.57-2.59-4.54-4.51-5.91c-1.92-1.37-4.05-2.06-6.39-2.06c-3.72,0-6.85,1.47-9.4,4.42
			c-2.55,2.95-3.82,7.28-3.82,13.01c0,5.4,1.26,9.59,3.8,12.59c2.53,3,5.67,4.5,9.42,4.5c2.24,0,4.31-0.65,6.21-1.96
			c1.91-1.31,3.43-3.27,4.59-5.89C753.32,631.96,753.9,628.79,753.9,625.08z"/>
		<path d="M721.05,674.21c-3,0-5.05-0.99-6.09-2.95c-0.92-1.73-1.37-4.11-1.37-7.29v-58.5c0-2.87,0.66-5.09,1.98-6.58
			c1.35-1.54,3.2-2.32,5.49-2.32c2.25,0,4.12,0.79,5.55,2.35c1.14,1.25,1.83,2.91,2.04,4.97c2-2.09,4.07-3.73,6.19-4.87
			c2.9-1.56,6.21-2.36,9.84-2.36c4.35,0,8.41,1.15,12.08,3.41c3.67,2.26,6.59,5.61,8.71,9.93c2.09,4.28,3.15,9.41,3.15,15.23
			c0,4.28-0.61,8.28-1.81,11.88c-1.21,3.63-2.91,6.72-5.04,9.2c-2.15,2.49-4.72,4.43-7.63,5.77c-2.93,1.34-6.11,2.02-9.46,2.02
			c-4.05,0-7.51-0.84-10.3-2.5c-1.95-1.16-3.84-2.71-5.65-4.64v17.11C728.72,672.45,724.55,674.21,721.05,674.21z M721.05,598.97
			c-1.59,0-2.8,0.49-3.68,1.5c-0.92,1.04-1.38,2.72-1.38,4.99v58.5c0,2.74,0.37,4.81,1.09,6.16c0.22,0.42,0.89,1.67,3.97,1.67
			c2.26,0,5.26-0.8,5.26-7.74v-23.84l2.15,2.74c2.26,2.88,4.67,5.09,7.14,6.56c2.41,1.44,5.47,2.16,9.07,2.16
			c3,0,5.84-0.61,8.45-1.8c2.6-1.2,4.89-2.93,6.82-5.16c1.92-2.23,3.46-5.06,4.58-8.39c1.12-3.35,1.69-7.09,1.69-11.11
			c0-5.45-0.98-10.22-2.91-14.17c-1.91-3.91-4.54-6.92-7.81-8.94c-3.28-2.02-6.91-3.05-10.81-3.05c-3.23,0-6.16,0.7-8.7,2.07
			c-2.57,1.39-5.11,3.62-7.52,6.62l-2.14,2.66v-5.05c0-2.13-0.5-3.75-1.48-4.82C723.86,599.49,722.62,598.97,721.05,598.97z
			 M741.37,643.62c-4.1,0-7.58-1.66-10.34-4.92c-2.71-3.2-4.08-7.7-4.08-13.37c0-6,1.38-10.64,4.11-13.8
			c2.78-3.21,6.24-4.84,10.31-4.84c2.58,0,4.96,0.77,7.09,2.29c2.1,1.49,3.75,3.65,4.92,6.42c1.14,2.7,1.72,5.96,1.72,9.68
			c0,3.86-0.61,7.22-1.83,9.97c-1.24,2.81-2.92,4.96-5.01,6.39C746.16,642.89,743.84,643.62,741.37,643.62z M741.37,609.1
			c-3.38,0-6.15,1.31-8.49,4.01c-2.34,2.71-3.53,6.82-3.53,12.22c0,5.08,1.18,9.05,3.51,11.81c2.31,2.74,5.09,4.07,8.5,4.07
			c2.01,0,3.82-0.57,5.53-1.75c1.71-1.18,3.11-2.99,4.17-5.38c1.08-2.45,1.62-5.48,1.62-9c0-3.4-0.52-6.34-1.53-8.74
			c-0.99-2.35-2.37-4.16-4.1-5.4C745.35,609.72,743.44,609.1,741.37,609.1z"/>
	</g>
	<g>
		<path d="M789.91,585.35v20.71c2.55-2.65,5.15-4.68,7.8-6.08c2.65-1.41,5.93-2.11,9.83-2.11c4.5,0,8.45,1.07,11.85,3.2
			c3.39,2.14,6.03,5.23,7.89,9.29c1.87,4.05,2.81,8.86,2.81,14.42c0,4.11-0.52,7.87-1.56,11.3c-1.04,3.43-2.56,6.4-4.54,8.91
			c-1.99,2.52-4.39,4.46-7.23,5.83c-2.83,1.37-5.95,2.06-9.36,2.06c-2.09,0-4.05-0.25-5.88-0.74c-1.84-0.5-3.4-1.15-4.69-1.96
			c-1.29-0.81-2.39-1.65-3.3-2.51c-0.91-0.86-2.11-2.15-3.6-3.87v1.34c0,2.55-0.61,4.48-1.84,5.79c-1.23,1.31-2.78,1.96-4.67,1.96
			c-1.92,0-3.45-0.65-4.59-1.96c-1.14-1.31-1.71-3.24-1.71-5.79v-59.2c0-2.75,0.55-4.83,1.66-6.23c1.11-1.41,2.66-2.11,4.64-2.11
			c2.09,0,3.69,0.67,4.82,2.01C789.34,580.96,789.91,582.87,789.91,585.35z M790.55,625.63c0,5.4,1.23,9.54,3.7,12.44
			c2.47,2.9,5.7,4.34,9.71,4.34c3.41,0,6.35-1.48,8.81-4.44c2.47-2.96,3.7-7.21,3.7-12.74c0-3.58-0.51-6.65-1.54-9.24
			c-1.03-2.58-2.48-4.58-4.37-5.99c-1.89-1.41-4.09-2.11-6.61-2.11c-2.58,0-4.88,0.7-6.9,2.11c-2.02,1.41-3.61,3.44-4.77,6.11
			C791.13,618.78,790.55,621.96,790.55,625.63z"/>
		<path d="M807.39,654.1c-2.18,0-4.27-0.26-6.2-0.79c-1.94-0.52-3.63-1.23-5.02-2.1c-1.36-0.86-2.54-1.75-3.49-2.65
			c-0.48-0.45-1.03-1.02-1.66-1.7c-0.24,2.04-0.93,3.69-2.07,4.9c-1.46,1.55-3.32,2.34-5.55,2.34c-2.27,0-4.12-0.8-5.5-2.37
			c-1.34-1.53-2.01-3.74-2.01-6.58v-59.2c0-3.01,0.65-5.36,1.92-6.98c1.34-1.7,3.22-2.57,5.59-2.57c2.45,0,4.38,0.82,5.74,2.44
			c1.31,1.56,1.97,3.75,1.97,6.51v17.87c1.98-1.78,4-3.23,6.03-4.3c2.81-1.49,6.31-2.25,10.4-2.25c4.71,0,8.91,1.14,12.49,3.39
			c3.58,2.26,6.39,5.55,8.35,9.8c1.94,4.19,2.92,9.22,2.92,14.93c0,4.2-0.54,8.12-1.62,11.65c-1.09,3.56-2.68,6.69-4.75,9.31
			c-2.09,2.65-4.66,4.72-7.65,6.17C814.29,653.36,810.97,654.1,807.39,654.1z M788.71,640.58l2.11,2.44
			c1.45,1.68,2.64,2.96,3.52,3.79c0.84,0.8,1.89,1.59,3.12,2.36c1.19,0.74,2.66,1.36,4.37,1.82c1.72,0.47,3.6,0.7,5.57,0.7
			c3.21,0,6.19-0.65,8.84-1.94c2.65-1.29,4.94-3.14,6.81-5.5c1.88-2.38,3.34-5.25,4.34-8.52c1-3.3,1.51-6.98,1.51-10.95
			c0-5.36-0.91-10.04-2.7-13.92c-1.76-3.82-4.27-6.77-7.44-8.77c-3.19-2-6.96-3.02-11.2-3.02c-3.69,0-6.81,0.66-9.27,1.97
			c-2.52,1.34-5.04,3.31-7.49,5.86l-2.07,2.15v-23.7c0-2.18-0.47-3.85-1.41-4.96c-0.89-1.06-2.17-1.58-3.89-1.58
			c-1.61,0-2.82,0.54-3.7,1.65c-0.93,1.18-1.41,3.03-1.41,5.48v59.2c0,2.24,0.48,3.92,1.42,4.99c0.91,1.04,2.12,1.55,3.69,1.55
			c1.55,0,2.79-0.52,3.79-1.58c1-1.07,1.51-2.74,1.51-4.96V640.58z M803.96,643.62c-4.36,0-7.93-1.6-10.62-4.77
			c-2.65-3.11-3.99-7.56-3.99-13.22c0-3.83,0.62-7.19,1.84-9.99c1.24-2.86,2.99-5.09,5.18-6.62c4.39-3.06,10.69-3.13,14.92,0.02
			c2.06,1.53,3.66,3.72,4.77,6.51c1.08,2.71,1.63,5.97,1.63,9.68c0,5.79-1.34,10.34-3.98,13.51
			C811.01,641.98,807.73,643.62,803.96,643.62z M803.96,609.1c-2.32,0-4.41,0.64-6.21,1.89c-1.82,1.27-3.29,3.16-4.35,5.6
			c-1.09,2.5-1.64,5.53-1.64,9.03c0,5.08,1.15,9,3.41,11.66c2.25,2.64,5.12,3.92,8.79,3.92c3.06,0,5.64-1.31,7.89-4.01
			c2.27-2.73,3.42-6.75,3.42-11.97c0-3.41-0.49-6.36-1.46-8.79c-0.94-2.36-2.28-4.2-3.97-5.47
			C808.16,609.72,806.23,609.1,803.96,609.1z"/>
	</g>
	<g>
		<path d="M853.33,633.33v11.32c0,2.75-0.65,4.81-1.94,6.18s-2.93,2.06-4.92,2.06c-1.95,0-3.56-0.7-4.82-2.09
			c-1.26-1.39-1.89-3.44-1.89-6.16v-37.74c0-6.09,2.2-9.14,6.61-9.14c2.25,0,3.87,0.71,4.87,2.14s1.54,3.52,1.64,6.31
			c1.62-2.78,3.29-4.88,4.99-6.31c1.71-1.42,3.98-2.14,6.83-2.14c2.85,0,5.61,0.71,8.29,2.14s4.02,3.31,4.02,5.66
			c0,1.66-0.57,3.02-1.71,4.1c-1.14,1.07-2.38,1.61-3.7,1.61c-0.5,0-1.7-0.3-3.6-0.92c-1.9-0.62-3.58-0.92-5.04-0.92
			c-1.99,0-3.61,0.52-4.87,1.56c-1.26,1.04-2.23,2.59-2.93,4.64c-0.7,2.05-1.18,4.5-1.44,7.33
			C853.46,625.8,853.33,629.25,853.33,633.33z"/>
		<path d="M846.47,654.1c-2.3,0-4.22-0.84-5.71-2.48c-1.46-1.61-2.2-3.96-2.2-6.97v-37.74c0-8.55,4.25-10.34,7.81-10.34
			c2.66,0,4.63,0.89,5.85,2.65c0.66,0.95,1.15,2.12,1.46,3.54c1.11-1.54,2.26-2.8,3.41-3.77c1.92-1.6,4.48-2.42,7.6-2.42
			c3.03,0,6.01,0.77,8.86,2.28c3.09,1.64,4.66,3.9,4.66,6.72c0,1.99-0.7,3.66-2.09,4.97c-1.37,1.29-2.89,1.94-4.53,1.94
			c-0.44,0-1.28-0.11-3.97-0.97c-4.05-1.31-6.91-1.11-8.77,0.43c-1.08,0.89-1.94,2.28-2.56,4.1c-0.66,1.96-1.13,4.33-1.38,7.05
			c-0.26,2.77-0.39,6.21-0.39,10.24v11.32c0,3.05-0.76,5.41-2.26,7.01C850.75,653.28,848.8,654.1,846.47,654.1z M846.37,598.97
			c-2.32,0-5.4,0.82-5.4,7.93v37.74c0,2.39,0.53,4.19,1.58,5.35c1.03,1.14,2.31,1.69,3.93,1.69c1.65,0,2.98-0.55,4.04-1.68
			c1.07-1.14,1.61-2.94,1.61-5.36v-11.32c0-4.1,0.14-7.62,0.4-10.46c0.27-2.91,0.77-5.46,1.5-7.6c0.76-2.25,1.87-4,3.3-5.18
			c2.51-2.07,6.17-2.44,11.05-0.86c2.54,0.82,3.14,0.86,3.23,0.86c1.01,0,1.95-0.42,2.88-1.28c0.9-0.85,1.33-1.9,1.33-3.22
			c0-1.89-1.11-3.39-3.38-4.6c-4.91-2.6-10.78-2.65-13.79-0.14c-1.59,1.33-3.18,3.34-4.72,5.99l-2.09,3.59l-0.15-4.15
			c-0.09-2.54-0.57-4.44-1.42-5.66C849.49,599.5,848.22,598.97,846.37,598.97z"/>
	</g>
	<g>
		<path d="M922.31,645.07v-1.74c-1.62,2.05-3.33,3.77-5.12,5.16c-1.79,1.39-3.74,2.43-5.86,3.1c-2.12,0.68-4.54,1.02-7.25,1.02
			c-3.28,0-6.22-0.68-8.82-2.03c-2.6-1.36-4.61-3.23-6.03-5.61c-1.69-2.88-2.53-7.02-2.53-12.42v-26.87c0-2.71,0.61-4.74,1.84-6.08
			c1.22-1.34,2.85-2.01,4.87-2.01c2.05,0,3.71,0.68,4.97,2.04c1.26,1.36,1.89,3.38,1.89,6.06v21.7c0,3.15,0.26,5.79,0.79,7.92
			c0.53,2.13,1.48,3.81,2.85,5.01c1.37,1.21,3.24,1.81,5.59,1.81c2.28,0,4.44-0.68,6.46-2.04c2.02-1.36,3.49-3.13,4.42-5.31
			c0.76-1.92,1.14-6.13,1.14-12.61v-16.49c0-2.68,0.63-4.7,1.89-6.06c1.26-1.36,2.9-2.04,4.92-2.04c2.02,0,3.64,0.67,4.87,2.01
			c1.22,1.34,1.84,3.37,1.84,6.08v39.28c0,2.58-0.59,4.52-1.76,5.81c-1.18,1.29-2.69,1.94-4.54,1.94c-1.86,0-3.39-0.67-4.59-2.01
			C922.91,649.37,922.31,647.49,922.31,645.07z"/>
		<path d="M928.71,653.92c-2.2,0-4.05-0.81-5.49-2.41c-1.15-1.28-1.84-2.97-2.05-5.03c-1.05,1.11-2.13,2.1-3.24,2.96
			c-1.89,1.47-3.99,2.58-6.23,3.3c-2.24,0.71-4.8,1.07-7.62,1.07c-3.46,0-6.61-0.73-9.37-2.17c-2.79-1.46-4.98-3.5-6.51-6.07
			c-1.79-3.06-2.7-7.44-2.7-13.03v-26.87c0-3.01,0.72-5.33,2.15-6.9c1.46-1.6,3.39-2.4,5.76-2.4c2.39,0,4.36,0.81,5.85,2.42
			c1.47,1.58,2.21,3.9,2.21,6.88v21.7c0,3.04,0.26,5.61,0.76,7.63c0.47,1.88,1.3,3.36,2.48,4.4c1.16,1.02,2.73,1.51,4.79,1.51
			c2.06,0,3.95-0.6,5.78-1.83c1.81-1.22,3.15-2.83,3.98-4.78c0.47-1.19,1.05-4.29,1.05-12.14v-16.49c0-2.98,0.74-5.3,2.21-6.88
			c1.49-1.61,3.44-2.42,5.8-2.42c2.36,0,4.3,0.81,5.75,2.4c1.43,1.57,2.15,3.89,2.15,6.9v39.28c0,2.88-0.7,5.11-2.08,6.62
			C932.74,653.14,930.91,653.92,928.71,653.92z M923.51,639.88v5.2c0,2.1,0.51,3.73,1.5,4.83c0.98,1.08,2.19,1.61,3.7,1.61
			c1.52,0,2.71-0.5,3.65-1.54c0.96-1.06,1.45-2.74,1.45-5v-39.28c0-2.39-0.51-4.16-1.52-5.27c-1-1.09-2.3-1.62-3.98-1.62
			c-1.69,0-3.01,0.54-4.04,1.65c-1.04,1.12-1.57,2.88-1.57,5.24v16.49c0,6.7-0.4,10.97-1.23,13.06c-1.03,2.42-2.66,4.39-4.87,5.87
			c-2.21,1.49-4.61,2.24-7.13,2.24c-2.64,0-4.79-0.71-6.38-2.11c-1.56-1.37-2.64-3.26-3.23-5.63c-0.55-2.21-0.83-4.98-0.83-8.21
			v-21.7c0-2.35-0.53-4.12-1.57-5.24c-1.03-1.11-2.37-1.65-4.08-1.65c-1.68,0-2.98,0.53-3.98,1.62c-1.01,1.1-1.52,2.88-1.52,5.27
			v26.87c0,5.15,0.8,9.12,2.37,11.81c1.29,2.17,3.16,3.91,5.55,5.16c2.41,1.26,5.19,1.9,8.26,1.9c2.57,0,4.89-0.32,6.89-0.96
			c1.97-0.63,3.82-1.61,5.49-2.91c1.7-1.33,3.36-3,4.91-4.96L923.51,639.88z"/>
	</g>
	<g>
		<path d="M997.6,607.7v39.38c0,4.5-0.48,8.38-1.44,11.62c-0.96,3.24-2.5,5.92-4.62,8.05c-2.12,2.12-4.89,3.69-8.32,4.72
			c-3.43,1.03-7.69,1.54-12.79,1.54c-4.67,0-8.84-0.65-12.51-1.96c-3.68-1.31-6.51-3-8.49-5.07c-1.99-2.07-2.98-4.2-2.98-6.38
			c0-1.66,0.56-3.01,1.69-4.05c1.12-1.04,2.48-1.57,4.07-1.57c1.99,0,3.72,0.88,5.21,2.63c0.73,0.89,1.48,1.79,2.26,2.71
			c0.78,0.91,1.64,1.69,2.58,2.33c0.95,0.65,2.08,1.12,3.4,1.44c1.32,0.31,2.85,0.47,4.57,0.47c3.51,0,6.23-0.49,8.17-1.46
			c1.94-0.98,3.29-2.35,4.07-4.1c0.78-1.76,1.23-3.63,1.36-5.64c0.13-2.01,0.23-5.22,0.3-9.66c-2.09,2.91-4.5,5.13-7.23,6.65
			c-2.73,1.52-5.99,2.28-9.76,2.28c-4.54,0-8.5-1.16-11.89-3.48c-3.39-2.32-6-5.56-7.82-9.73c-1.82-4.17-2.73-8.99-2.73-14.45
			c0-4.07,0.55-7.75,1.66-11.03c1.11-3.28,2.69-6.04,4.74-8.29c2.05-2.25,4.42-3.95,7.1-5.09c2.68-1.14,5.63-1.71,8.84-1.71
			c3.84,0,7.17,0.74,9.98,2.21c2.81,1.47,5.43,3.78,7.85,6.93v-1.84c0-2.35,0.58-4.17,1.74-5.46c1.16-1.29,2.65-1.94,4.47-1.94
			c2.61,0,4.35,0.85,5.21,2.56C997.17,602.03,997.6,604.49,997.6,607.7z M958.31,624.88c0,5.5,1.2,9.65,3.6,12.47
			c2.4,2.81,5.5,4.22,9.31,4.22c2.25,0,4.38-0.6,6.38-1.81c2-1.21,3.63-3.03,4.89-5.46c1.26-2.44,1.89-5.39,1.89-8.87
			c0-5.53-1.22-9.83-3.65-12.91c-2.43-3.08-5.64-4.62-9.61-4.62c-3.87,0-6.98,1.47-9.31,4.42
			C959.48,615.27,958.31,619.46,958.31,624.88z"/>
		<path d="M970.43,674.21c-4.78,0-9.13-0.68-12.92-2.03c-3.84-1.37-6.85-3.18-8.96-5.37c-2.2-2.29-3.31-4.72-3.31-7.22
			c0-2,0.7-3.66,2.07-4.93c1.35-1.25,2.99-1.89,4.89-1.89c2.35,0,4.41,1.03,6.13,3.06c0.74,0.91,1.48,1.8,2.26,2.7
			c0.71,0.82,1.49,1.54,2.35,2.12c0.81,0.56,1.82,0.98,3,1.26c1.23,0.29,2.67,0.44,4.29,0.44c3.3,0,5.87-0.45,7.63-1.34
			c1.69-0.85,2.84-2,3.51-3.51c0.72-1.61,1.14-3.37,1.26-5.23c0.09-1.41,0.17-3.46,0.23-6.13c-1.63,1.75-3.43,3.17-5.37,4.25
			c-2.91,1.62-6.39,2.44-10.35,2.44c-4.76,0-8.99-1.24-12.57-3.69c-3.57-2.43-6.34-5.88-8.25-10.25c-1.88-4.3-2.83-9.33-2.83-14.94
			c0-4.19,0.58-8.03,1.73-11.41c1.16-3.42,2.84-6.35,4.99-8.72c2.16-2.37,4.69-4.18,7.52-5.39c2.82-1.2,5.96-1.81,9.31-1.81
			c4.02,0,7.56,0.79,10.54,2.35c2.16,1.13,4.22,2.74,6.15,4.79c0.2-2.02,0.87-3.66,1.98-4.9c1.39-1.55,3.2-2.34,5.36-2.34
			c3.09,0,5.21,1.08,6.29,3.22c0.95,1.89,1.42,4.48,1.42,7.91v39.38c0,4.6-0.5,8.62-1.49,11.96c-1.01,3.42-2.67,6.3-4.92,8.55
			c-2.25,2.25-5.22,3.94-8.83,5.02C980.03,673.68,975.62,674.21,970.43,674.21z M952.21,655.19c-1.29,0-2.35,0.41-3.25,1.25
			c-0.88,0.81-1.3,1.85-1.3,3.16c0,1.88,0.86,3.7,2.64,5.55c1.84,1.92,4.55,3.52,8.03,4.77c3.53,1.25,7.6,1.89,12.11,1.89
			c4.95,0,9.14-0.5,12.44-1.49c3.22-0.96,5.85-2.45,7.81-4.41c1.97-1.97,3.42-4.5,4.32-7.54c0.92-3.12,1.39-6.91,1.39-11.28V607.7
			c0-3-0.39-5.3-1.16-6.83c-0.64-1.28-2-1.9-4.14-1.9c-1.48,0-2.65,0.5-3.57,1.54c-0.95,1.06-1.43,2.62-1.43,4.66v5.38l-2.16-2.81
			c-2.3-2.99-4.8-5.21-7.45-6.6c-2.63-1.38-5.8-2.07-9.42-2.07c-3.03,0-5.85,0.54-8.37,1.62c-2.51,1.07-4.76,2.68-6.68,4.79
			c-1.93,2.12-3.44,4.77-4.49,7.87c-1.06,3.13-1.6,6.71-1.6,10.64c0,5.27,0.89,9.98,2.63,13.97c1.72,3.94,4.21,7.04,7.4,9.22
			c3.18,2.17,6.95,3.27,11.21,3.27c3.55,0,6.63-0.72,9.17-2.13c2.56-1.43,4.86-3.55,6.83-6.3l2.24-3.13l-0.06,3.85
			c-0.07,4.51-0.17,7.68-0.3,9.72c-0.14,2.14-0.63,4.17-1.47,6.04c-0.89,2.01-2.45,3.59-4.63,4.69c-2.1,1.06-5.03,1.59-8.71,1.59
			c-1.8,0-3.43-0.17-4.85-0.5c-1.47-0.35-2.75-0.89-3.81-1.62c-1.02-0.7-1.97-1.56-2.82-2.54c-0.78-0.92-1.54-1.83-2.28-2.73
			C955.24,655.91,953.84,655.19,952.21,655.19z M971.23,642.77c-4.16,0-7.6-1.56-10.23-4.64c-2.58-3.02-3.89-7.48-3.89-13.25
			c0-5.68,1.27-10.16,3.76-13.31c2.56-3.24,6.01-4.88,10.25-4.88c4.34,0,7.89,1.71,10.55,5.08c2.59,3.28,3.91,7.88,3.91,13.66
			c0,3.65-0.68,6.82-2.02,9.42c-1.36,2.62-3.15,4.62-5.34,5.94C976.05,642.11,973.69,642.77,971.23,642.77z M971.13,609.1
			c-3.52,0-6.26,1.3-8.37,3.97c-2.15,2.71-3.24,6.69-3.24,11.82c0,5.18,1.11,9.11,3.31,11.68c2.18,2.56,4.93,3.8,8.4,3.8
			c2.02,0,3.96-0.55,5.76-1.64c1.8-1.09,3.29-2.77,4.44-4.98c1.16-2.25,1.75-5.05,1.75-8.31c0-5.23-1.14-9.32-3.39-12.17
			C977.58,610.47,974.74,609.1,971.13,609.1z"/>
	</g>
</g>
<g>
	<path d="M570.45,702.37c0.83,0,1.57,0.28,2.24,0.84c0.66,0.56,0.99,1.23,0.99,2.02c0,0.29-0.1,0.68-0.31,1.18l-17.52,38.4
		c-0.29,0.66-0.74,1.18-1.37,1.55c-0.62,0.37-1.28,0.56-1.99,0.56s-1.38-0.19-2.02-0.56c-0.64-0.37-1.11-0.89-1.4-1.55l-17.46-38.4
		c-0.21-0.5-0.31-0.89-0.31-1.18c0-0.83,0.34-1.51,1.02-2.05c0.68-0.54,1.44-0.81,2.27-0.81c1.28,0,2.2,0.58,2.73,1.74l15.22,34.11
		l15.22-34.11C568.32,702.95,569.21,702.37,570.45,702.37z"/>
	<path d="M593.93,718.16c0,0.91-0.23,1.59-0.68,2.05c-0.46,0.46-1.24,0.72-2.36,0.81l-1.86,0.19c-2.61,0.25-4.55,1.16-5.81,2.73
		c-1.26,1.57-1.89,3.48-1.89,5.71v14.23c0,0.99-0.29,1.74-0.87,2.24c-0.58,0.5-1.33,0.74-2.24,0.74c-0.91,0-1.67-0.25-2.27-0.74
		c-0.6-0.5-0.9-1.24-0.9-2.24v-25.28c0-0.95,0.3-1.69,0.9-2.21c0.6-0.52,1.36-0.78,2.27-0.78c0.83,0,1.52,0.26,2.08,0.78
		c0.56,0.52,0.84,1.23,0.84,2.14v2.98c0.83-1.82,2.03-3.21,3.6-4.16c1.57-0.95,3.36-1.51,5.34-1.68l0.87-0.06
		C592.94,715.48,593.93,716.33,593.93,718.16z"/>
	<path d="M598.1,708.53c-0.7-0.66-1.06-1.53-1.06-2.61c0-1.08,0.35-1.93,1.06-2.58c0.7-0.64,1.66-0.96,2.86-0.96
		c1.16,0,2.1,0.32,2.83,0.96c0.72,0.64,1.09,1.5,1.09,2.58c0,1.08-0.35,1.95-1.06,2.61c-0.7,0.66-1.66,0.99-2.86,0.99
		C599.75,709.52,598.8,709.19,598.1,708.53z M598.69,746.11c-0.6-0.5-0.9-1.24-0.9-2.24v-25.22c0-0.99,0.3-1.75,0.9-2.27
		c0.6-0.52,1.36-0.78,2.27-0.78c0.91,0,1.66,0.26,2.24,0.78c0.58,0.52,0.87,1.27,0.87,2.27v25.22c0,0.99-0.29,1.74-0.87,2.24
		c-0.58,0.5-1.33,0.74-2.24,0.74C600.04,746.86,599.29,746.61,598.69,746.11z M604.62,757.36c-0.66-0.41-0.99-1.06-0.99-1.92
		c0-0.66,0.21-1.19,0.62-1.58c0.41-0.39,1.08-0.63,1.99-0.71l1.74-0.12c1.62-0.08,2.83-0.58,3.64-1.49
		c0.81-0.91,1.21-2.36,1.21-4.35v-28.52c0-0.99,0.3-1.75,0.9-2.27c0.6-0.52,1.36-0.78,2.27-0.78c0.91,0,1.66,0.26,2.24,0.78
		c0.58,0.52,0.87,1.27,0.87,2.27v28.15c0,3.48-0.81,6.11-2.42,7.89c-1.61,1.78-4.12,2.79-7.52,3.04l-1.68,0.12
		C606.24,757.94,605.28,757.77,604.62,757.36z M613.13,708.53c-0.7-0.66-1.06-1.53-1.06-2.61c0-1.08,0.35-1.93,1.06-2.58
		c0.7-0.64,1.66-0.96,2.86-0.96c1.16,0,2.1,0.32,2.83,0.96c0.72,0.64,1.09,1.5,1.09,2.58c0,1.08-0.35,1.95-1.06,2.61
		c-0.7,0.66-1.66,0.99-2.86,0.99C614.79,709.52,613.84,709.19,613.13,708.53z"/>
	<path d="M653.02,739.59c0.37,0.46,0.56,1.03,0.56,1.74c0,1.2-0.74,2.21-2.24,3.04c-1.45,0.83-3.04,1.47-4.75,1.92
		c-1.72,0.46-3.37,0.68-4.94,0.68c-4.81,0-8.6-1.4-11.37-4.19c-2.78-2.8-4.16-6.62-4.16-11.46c0-3.1,0.61-5.86,1.83-8.26
		c1.22-2.4,2.94-4.27,5.16-5.59c2.22-1.32,4.73-1.99,7.55-1.99c4.06,0,7.27,1.3,9.63,3.91c2.36,2.61,3.54,6.13,3.54,10.56
		c0,1.66-0.75,2.48-2.24,2.48h-19.2c0.41,6.42,3.5,9.63,9.26,9.63c1.53,0,2.86-0.21,3.98-0.62c1.12-0.41,2.3-0.95,3.54-1.62
		c0.12-0.08,0.47-0.26,1.02-0.53c0.56-0.27,1.02-0.4,1.4-0.4C652.17,738.91,652.65,739.14,653.02,739.59z M635,722.38
		c-1.45,1.53-2.32,3.69-2.61,6.46h16.03c-0.12-2.82-0.84-4.98-2.14-6.49c-1.3-1.51-3.14-2.27-5.5-2.27
		C638.38,720.08,636.45,720.85,635,722.38z"/>
	<path d="M709.53,727.79c1.39,1.82,2.08,4.1,2.08,6.83c0,3.77-1.29,6.7-3.88,8.79c-2.59,2.09-6.2,3.14-10.84,3.14h-15.84
		c-0.99,0-1.77-0.28-2.33-0.84c-0.56-0.56-0.84-1.31-0.84-2.27v-37.59c0-0.95,0.28-1.71,0.84-2.27c0.56-0.56,1.33-0.84,2.33-0.84
		h15.16c4.51,0,8.05,1.01,10.59,3.01c2.55,2.01,3.82,4.82,3.82,8.42c0,2.32-0.61,4.33-1.83,6.03c-1.22,1.7-2.93,2.96-5.13,3.79
		C706.18,724.7,708.14,725.96,709.53,727.79z M684.15,721.7h11.06c6.13,0,9.2-2.32,9.2-6.96c0-2.32-0.76-4.04-2.27-5.16
		s-3.82-1.68-6.93-1.68h-11.06V721.7z M703.22,739.65c1.49-1.16,2.24-2.96,2.24-5.41c0-2.48-0.76-4.34-2.27-5.56
		c-1.51-1.22-3.84-1.83-6.99-1.83h-12.05v14.54h12.05C699.39,741.39,701.73,740.81,703.22,739.65z"/>
	<path d="M740.97,718.53c1.97,2.03,2.95,5.12,2.95,9.26v16.09c0,0.95-0.27,1.69-0.81,2.21c-0.54,0.52-1.28,0.78-2.24,0.78
		c-0.91,0-1.64-0.27-2.17-0.81c-0.54-0.54-0.81-1.26-0.81-2.18v-2.3c-0.79,1.74-1.96,3.08-3.51,4.01c-1.55,0.93-3.37,1.4-5.44,1.4
		c-1.99,0-3.81-0.4-5.47-1.21c-1.66-0.81-2.95-1.94-3.88-3.39s-1.4-3.06-1.4-4.85c0-2.19,0.57-3.92,1.71-5.19
		c1.14-1.26,3.02-2.16,5.65-2.7c2.63-0.54,6.24-0.81,10.84-0.81h1.43v-1.8c0-2.32-0.48-3.99-1.43-5.03
		c-0.95-1.03-2.49-1.55-4.6-1.55c-1.45,0-2.82,0.19-4.1,0.56c-1.28,0.37-2.69,0.91-4.23,1.62c-1.12,0.62-1.9,0.93-2.36,0.93
		c-0.62,0-1.13-0.23-1.52-0.68c-0.39-0.46-0.59-1.03-0.59-1.74c0-0.62,0.18-1.17,0.53-1.65c0.35-0.48,0.92-0.94,1.71-1.4
		c1.45-0.79,3.15-1.42,5.1-1.89c1.95-0.48,3.83-0.71,5.65-0.71C736.01,715.48,739,716.5,740.97,718.53z M735.66,739.99
		c1.45-1.55,2.17-3.55,2.17-5.99v-1.61h-1.12c-3.23,0-5.72,0.14-7.45,0.43c-1.74,0.29-2.98,0.78-3.73,1.46
		c-0.75,0.68-1.12,1.67-1.12,2.95c0,1.49,0.54,2.71,1.62,3.67c1.08,0.95,2.42,1.43,4.04,1.43
		C732.34,742.32,734.21,741.55,735.66,739.99z"/>
	<path d="M752.68,744.37c-0.74-0.46-1.27-0.93-1.58-1.43c-0.31-0.5-0.47-1.06-0.47-1.68c0-0.66,0.19-1.22,0.56-1.68
		c0.37-0.46,0.85-0.68,1.43-0.68c0.54,0,1.39,0.33,2.55,0.99c1.24,0.66,2.45,1.2,3.63,1.61c1.18,0.41,2.66,0.62,4.44,0.62
		c1.99,0,3.54-0.35,4.66-1.06c1.12-0.7,1.68-1.7,1.68-2.98c0-0.83-0.22-1.49-0.65-1.99c-0.43-0.5-1.19-0.94-2.27-1.33
		c-1.08-0.39-2.67-0.82-4.78-1.27c-3.65-0.79-6.27-1.85-7.86-3.2c-1.6-1.34-2.39-3.18-2.39-5.5c0-1.78,0.52-3.39,1.55-4.82
		c1.03-1.43,2.46-2.53,4.29-3.32c1.82-0.79,3.89-1.18,6.21-1.18c1.66,0,3.27,0.22,4.85,0.65c1.57,0.43,2.96,1.07,4.16,1.89
		c1.37,0.91,2.05,1.97,2.05,3.17c0,0.66-0.2,1.22-0.59,1.68c-0.39,0.46-0.86,0.68-1.4,0.68c-0.37,0-0.74-0.08-1.12-0.25
		c-0.37-0.17-0.87-0.43-1.49-0.81c-1.12-0.66-2.17-1.18-3.14-1.55c-0.97-0.37-2.18-0.56-3.63-0.56c-1.74,0-3.14,0.37-4.2,1.12
		c-1.06,0.74-1.58,1.76-1.58,3.04c0,1.16,0.49,2.06,1.46,2.7c0.97,0.64,2.8,1.25,5.5,1.83c2.77,0.58,4.95,1.24,6.52,1.99
		c1.57,0.75,2.7,1.67,3.39,2.77c0.68,1.1,1.02,2.49,1.02,4.19c0,2.69-1.13,4.86-3.39,6.49c-2.26,1.64-5.27,2.45-9.04,2.45
		C758.83,746.98,755.37,746.11,752.68,744.37z"/>
	<path d="M782.75,708.53c-0.7-0.66-1.06-1.53-1.06-2.61c0-1.08,0.35-1.93,1.06-2.58c0.7-0.64,1.66-0.96,2.86-0.96
		c1.16,0,2.1,0.32,2.83,0.96c0.72,0.64,1.09,1.5,1.09,2.58c0,1.08-0.35,1.95-1.06,2.61c-0.7,0.66-1.66,0.99-2.86,0.99
		C784.41,709.52,783.46,709.19,782.75,708.53z M783.34,746.11c-0.6-0.5-0.9-1.24-0.9-2.24v-25.22c0-0.99,0.3-1.75,0.9-2.27
		c0.6-0.52,1.36-0.78,2.27-0.78c0.91,0,1.66,0.26,2.24,0.78c0.58,0.52,0.87,1.27,0.87,2.27v25.22c0,0.99-0.29,1.74-0.87,2.24
		c-0.58,0.5-1.33,0.74-2.24,0.74C784.7,746.86,783.94,746.61,783.34,746.11z"/>
	<path d="M797.66,744.37c-0.74-0.46-1.27-0.93-1.58-1.43c-0.31-0.5-0.47-1.06-0.47-1.68c0-0.66,0.19-1.22,0.56-1.68
		c0.37-0.46,0.85-0.68,1.43-0.68c0.54,0,1.39,0.33,2.55,0.99c1.24,0.66,2.45,1.2,3.63,1.61c1.18,0.41,2.66,0.62,4.44,0.62
		c1.99,0,3.54-0.35,4.66-1.06c1.12-0.7,1.68-1.7,1.68-2.98c0-0.83-0.22-1.49-0.65-1.99c-0.43-0.5-1.19-0.94-2.27-1.33
		c-1.08-0.39-2.67-0.82-4.78-1.27c-3.65-0.79-6.27-1.85-7.86-3.2c-1.6-1.34-2.39-3.18-2.39-5.5c0-1.78,0.52-3.39,1.55-4.82
		c1.03-1.43,2.46-2.53,4.29-3.32c1.82-0.79,3.89-1.18,6.21-1.18c1.66,0,3.27,0.22,4.85,0.65c1.57,0.43,2.96,1.07,4.16,1.89
		c1.37,0.91,2.05,1.97,2.05,3.17c0,0.66-0.2,1.22-0.59,1.68c-0.39,0.46-0.86,0.68-1.4,0.68c-0.37,0-0.74-0.08-1.12-0.25
		c-0.37-0.17-0.87-0.43-1.49-0.81c-1.12-0.66-2.17-1.18-3.14-1.55c-0.97-0.37-2.18-0.56-3.63-0.56c-1.74,0-3.14,0.37-4.2,1.12
		c-1.06,0.74-1.58,1.76-1.58,3.04c0,1.16,0.49,2.06,1.46,2.7c0.97,0.64,2.8,1.25,5.5,1.83c2.77,0.58,4.95,1.24,6.52,1.99
		c1.57,0.75,2.7,1.67,3.39,2.77c0.68,1.1,1.02,2.49,1.02,4.19c0,2.69-1.13,4.86-3.39,6.49c-2.26,1.64-5.27,2.45-9.04,2.45
		C803.82,746.98,800.35,746.11,797.66,744.37z"/>
	<path d="M827.61,744.37c-0.74-0.46-1.27-0.93-1.58-1.43c-0.31-0.5-0.47-1.06-0.47-1.68c0-0.66,0.19-1.22,0.56-1.68
		c0.37-0.46,0.85-0.68,1.43-0.68c0.54,0,1.39,0.33,2.55,0.99c1.24,0.66,2.45,1.2,3.63,1.61c1.18,0.41,2.66,0.62,4.44,0.62
		c1.99,0,3.54-0.35,4.66-1.06c1.12-0.7,1.68-1.7,1.68-2.98c0-0.83-0.22-1.49-0.65-1.99c-0.43-0.5-1.19-0.94-2.27-1.33
		c-1.08-0.39-2.67-0.82-4.78-1.27c-3.65-0.79-6.27-1.85-7.86-3.2c-1.6-1.34-2.39-3.18-2.39-5.5c0-1.78,0.52-3.39,1.55-4.82
		c1.03-1.43,2.46-2.53,4.29-3.32c1.82-0.79,3.89-1.18,6.21-1.18c1.66,0,3.27,0.22,4.85,0.65c1.57,0.43,2.96,1.07,4.16,1.89
		c1.37,0.91,2.05,1.97,2.05,3.17c0,0.66-0.2,1.22-0.59,1.68c-0.39,0.46-0.86,0.68-1.4,0.68c-0.37,0-0.74-0.08-1.12-0.25
		c-0.37-0.17-0.87-0.43-1.49-0.81c-1.12-0.66-2.17-1.18-3.14-1.55c-0.97-0.37-2.18-0.56-3.63-0.56c-1.74,0-3.14,0.37-4.2,1.12
		c-1.06,0.74-1.58,1.76-1.58,3.04c0,1.16,0.49,2.06,1.46,2.7c0.97,0.64,2.8,1.25,5.5,1.83c2.77,0.58,4.95,1.24,6.52,1.99
		c1.57,0.75,2.7,1.67,3.39,2.77c0.68,1.1,1.02,2.49,1.02,4.19c0,2.69-1.13,4.86-3.39,6.49c-2.26,1.64-5.27,2.45-9.04,2.45
		C833.76,746.98,830.3,746.11,827.61,744.37z"/>
	<path d="M862.62,745.06c-2.22-1.28-3.94-3.11-5.16-5.47c-1.22-2.36-1.83-5.1-1.83-8.2c0-3.15,0.63-5.92,1.9-8.33
		c1.26-2.4,3.03-4.27,5.31-5.59c2.28-1.32,4.89-1.99,7.83-1.99c1.57,0,3.16,0.23,4.75,0.68s3.01,1.08,4.26,1.86
		c1.32,0.91,1.99,1.97,1.99,3.17c0,0.7-0.19,1.29-0.56,1.77c-0.37,0.48-0.85,0.71-1.43,0.71c-0.37,0-0.75-0.09-1.12-0.28
		c-0.37-0.19-0.85-0.47-1.43-0.84c-1.03-0.66-2-1.17-2.89-1.52c-0.89-0.35-1.96-0.53-3.2-0.53c-2.82,0-5,0.95-6.56,2.86
		c-1.55,1.9-2.33,4.56-2.33,7.95c0,3.4,0.77,6.02,2.3,7.86c1.53,1.84,3.71,2.76,6.52,2.76c1.24,0,2.34-0.19,3.29-0.56
		c0.95-0.37,1.93-0.87,2.92-1.49c0.46-0.29,0.91-0.54,1.37-0.74c0.46-0.21,0.87-0.31,1.24-0.31c0.58,0,1.06,0.24,1.43,0.71
		c0.37,0.48,0.56,1.07,0.56,1.77c0,0.58-0.16,1.11-0.47,1.58c-0.31,0.48-0.84,0.96-1.58,1.46c-1.24,0.83-2.69,1.47-4.35,1.92
		c-1.66,0.46-3.34,0.68-5.03,0.68C867.41,746.98,864.84,746.34,862.62,745.06z"/>
	<path d="M914.59,727.72v16.15c0,0.91-0.29,1.64-0.87,2.18c-0.58,0.54-1.35,0.81-2.3,0.81c-0.95,0-1.71-0.27-2.27-0.81
		c-0.56-0.54-0.84-1.26-0.84-2.18v-16.09c0-2.49-0.51-4.31-1.52-5.47c-1.01-1.16-2.6-1.74-4.75-1.74c-2.53,0-4.56,0.79-6.09,2.36
		c-1.53,1.57-2.3,3.69-2.3,6.34v14.6c0,0.91-0.28,1.64-0.84,2.18c-0.56,0.54-1.31,0.81-2.27,0.81c-0.95,0-1.72-0.27-2.3-0.81
		c-0.58-0.54-0.87-1.26-0.87-2.18v-38.46c0-0.91,0.3-1.63,0.9-2.17c0.6-0.54,1.38-0.81,2.33-0.81c0.91,0,1.65,0.26,2.21,0.78
		c0.56,0.52,0.84,1.21,0.84,2.08v15.53c1.03-1.74,2.42-3.06,4.16-3.97c1.74-0.91,3.73-1.37,5.96-1.37
		C910.99,715.48,914.59,719.56,914.59,727.72z"/>
	<path d="M928.48,745.06c-2.26-1.28-4-3.12-5.22-5.5c-1.22-2.38-1.83-5.14-1.83-8.29c0-3.19,0.61-5.98,1.83-8.36
		c1.22-2.38,2.96-4.22,5.22-5.5c2.26-1.28,4.88-1.92,7.86-1.92c2.98,0,5.6,0.64,7.86,1.92c2.26,1.28,4,3.12,5.22,5.5
		c1.22,2.38,1.83,5.17,1.83,8.36c0,3.15-0.61,5.91-1.83,8.29c-1.22,2.38-2.96,4.22-5.22,5.5c-2.26,1.28-4.88,1.92-7.86,1.92
		C933.36,746.98,930.74,746.34,928.48,745.06z M942.71,739.28c1.47-1.82,2.21-4.49,2.21-8.01c0-3.48-0.74-6.14-2.24-7.99
		c-1.49-1.84-3.6-2.76-6.34-2.76s-4.85,0.92-6.34,2.76c-1.49,1.84-2.24,4.51-2.24,7.99c0,3.52,0.73,6.19,2.21,8.01
		c1.47,1.82,3.59,2.73,6.37,2.73C939.11,742.01,941.24,741.1,942.71,739.28z"/>
	<path d="M963.52,745.06c-2.26-1.28-4-3.12-5.22-5.5c-1.22-2.38-1.83-5.14-1.83-8.29c0-3.19,0.61-5.98,1.83-8.36
		c1.22-2.38,2.96-4.22,5.22-5.5c2.26-1.28,4.88-1.92,7.86-1.92c2.98,0,5.6,0.64,7.86,1.92c2.26,1.28,4,3.12,5.22,5.5
		c1.22,2.38,1.83,5.17,1.83,8.36c0,3.15-0.61,5.91-1.83,8.29c-1.22,2.38-2.96,4.22-5.22,5.5c-2.26,1.28-4.88,1.92-7.86,1.92
		C968.4,746.98,965.78,746.34,963.52,745.06z M977.75,739.28c1.47-1.82,2.21-4.49,2.21-8.01c0-3.48-0.74-6.14-2.24-7.99
		c-1.49-1.84-3.6-2.76-6.34-2.76s-4.85,0.92-6.34,2.76c-1.49,1.84-2.24,4.51-2.24,7.99c0,3.52,0.73,6.19,2.21,8.01
		c1.47,1.82,3.59,2.73,6.37,2.73C974.16,742.01,976.28,741.1,977.75,739.28z"/>
	<path d="M994.16,746.11c-0.6-0.5-0.9-1.24-0.9-2.24v-38.4c0-0.99,0.3-1.75,0.9-2.27c0.6-0.52,1.36-0.78,2.27-0.78
		c0.91,0,1.66,0.26,2.24,0.78c0.58,0.52,0.87,1.27,0.87,2.27v38.4c0,0.99-0.29,1.74-0.87,2.24c-0.58,0.5-1.33,0.74-2.24,0.74
		C995.51,746.86,994.75,746.61,994.16,746.11z"/>
</g>
</svg>
