<?xml version="1.0" encoding="utf-8"?>
<!-- Generator: Adobe Illustrator 23.0.2, SVG Export Plug-In . SVG Version: 6.00 Build 0)  -->
<svg version="1.1" id="Laag_1" xmlns="http://www.w3.org/2000/svg" xmlns:xlink="http://www.w3.org/1999/xlink" x="0px" y="0px"
	 viewBox="0 0 1330.28 1694.31" style="enable-background:new 0 0 1330.28 1694.31;" xml:space="preserve">
<style type="text/css">
	.st0{fill:#FFFFFF;}
	.st1{fill:#222221;}
	.st2{fill:#222221;stroke:#222221;stroke-width:0.75;stroke-miterlimit:10;}
	.st3{fill:#B7B7B7;}
	.st4{fill:none;stroke:#000000;stroke-miterlimit:10;}
	.st5{fill:#E9F91D;}
</style>
<path d="M226.45,1663.11c-9.12-7.36-12.02-20.39-6.29-31.1c1.71-3.25,42.12-82.04-18.33-131.94c-0.28-0.24-0.58-0.47-0.86-0.7
	c-58.87-47.52-122.65,11.6-125.35,14.15c-9.96,9.42-25.69,9.08-35.16-0.89c-9.45-9.93-9.14-25.6,0.75-35.1
	c33.63-32.28,116.57-77.03,190.97-16.97c0.45,0.37,0.9,0.73,1.35,1.1c73.65,60.81,52.18,153.38,30.53,193.83
	c-6.49,12.12-21.57,16.69-33.69,10.2C228.96,1664.95,227.65,1664.08,226.45,1663.11"/>
<path d="M1089.02,845.75c-6.27,9.9-18.88,14.26-30.18,9.79c-3.42-1.33-86.31-32.49-128.99,33.25c-0.2,0.31-0.4,0.63-0.6,0.93
	c-40.5,63.9,25.5,120.53,28.35,122.92c10.49,8.82,11.94,24.49,3.12,35.03c-8.78,10.52-24.39,12-34.95,3.25
	c-35.9-29.73-89.81-107.03-38.62-187.79c0.31-0.49,0.62-0.98,0.94-1.47c52.02-80.11,146.43-69.32,189.09-52.42
	c12.78,5.06,19.04,19.53,13.98,32.31C1090.56,843.05,1089.85,844.45,1089.02,845.75"/>
<path d="M163.78,490.26c8.4-15.01,26.54-22.43,43.47-16.78c5.12,1.67,129.14,40.71,186.45-59.1c0.27-0.47,0.54-0.95,0.8-1.42
	c54.25-96.94-47.07-174.66-51.43-177.94c-16.09-12.09-19.48-34.94-7.39-51.11c12.03-16.14,34.8-19.55,50.98-7.58
	c55.02,40.71,140.26,149.7,71.7,272.21c-0.42,0.75-0.84,1.48-1.26,2.23c-69.83,121.62-209.12,113.38-273.01,92.03
	c-19.15-6.4-29.49-27.1-23.08-46.25C161.74,494.35,162.67,492.24,163.78,490.26"/>
<path d="M1142.69,179.31c6.96,9.42,6.48,22.76-1.77,31.68c-2.47,2.71-61.46,68.75-15.57,132.3c0.22,0.3,0.44,0.6,0.65,0.89
	c44.97,60.84,121.61,19.74,124.87,17.95c12.01-6.6,27.15-2.3,33.8,9.74c6.64,11.99,2.38,27.08-9.59,33.77
	c-40.69,22.74-132.23,45.11-189.06-31.79c-0.35-0.47-0.69-0.94-1.03-1.41c-55.92-77.43-11.77-161.58,19.39-195.26
	c9.34-10.09,25.09-10.71,35.18-1.37C1140.73,176.9,1141.77,178.07,1142.69,179.31"/>
<path d="M905.53,1513.15c6.67-12.48,21.47-18.86,35.47-14.48c4.24,1.29,106.82,31.44,152.36-51.52c0.22-0.39,0.43-0.79,0.64-1.18
	c43.08-80.55-41.44-142.86-45.08-145.49c-13.42-9.68-16.56-28.42-6.88-41.91c9.64-13.46,28.3-16.62,41.8-7.03
	c45.88,32.6,117.68,120.87,63.23,222.67c-0.33,0.62-0.67,1.23-1,1.85c-55.5,101.09-170.15,96.51-223.01,79.96
	c-15.84-4.96-24.67-21.82-19.71-37.66C903.92,1516.54,904.66,1514.79,905.53,1513.15"/>
<g>
	<path d="M744.08,519.96c-5.57,0.63-11.15,2.14-16.57,4.47c21.24,21.95,27.43,51.76,27.81,53.7c1.47,7.72,8.22,13.1,15.8,13.1
		c1,0,2.01-0.09,3.02-0.29c8.74-1.66,14.47-10.09,12.81-18.83c-2.55-13.44-8.88-31.47-19.78-48.69l-0.81-0.31
		C759.12,520.34,751.61,519.28,744.08,519.96z"/>
	<path d="M731.99,486.61c-15.7-10.46-35.1-17.42-58.77-17.68c-0.46-0.01-0.9-0.01-1.35-0.01c-74.52,0-102.94,67.99-107.55,104.15
		c-1.12,8.82,5.12,16.89,13.94,18.01c8.83,1.13,16.88-5.12,18.01-13.94c0.02-0.2,2.8-20.08,13.92-39.37
		c14.19-24.61,35.2-36.89,62.68-36.64c7.58,0.08,14.46,1.15,20.76,2.89l0.44-0.33C705.56,495.16,718.32,489.42,731.99,486.61z"/>
	<path d="M657.75,573.14c-0.53,3.36,0.28,6.73,2.29,9.48c2.01,2.75,4.96,4.56,8.32,5.09c7.07,1.1,13.49-3.72,14.58-10.61
		c4.01-25.47,19.86-46.39,40.96-56.19c-6.79-6.21-14.95-11.55-24.71-15.11C677.68,520.8,662.19,544.91,657.75,573.14z"/>
	<path d="M814.74,523.18c-16.42-21.37-40.8-33.61-66.31-33.61c-2.4,0-4.81,0.11-7.23,0.33l-0.27,0.03c-1.2,0.13-2.4,0.3-3.59,0.48
		c10.2,7.73,18.68,16.94,25.59,26.65c12.16,3.35,23.27,10.83,31.59,21.65c4.28,5.57,12.3,6.62,17.88,2.34
		c2.7-2.07,4.43-5.08,4.88-8.45C817.72,529.23,816.82,525.88,814.74,523.18z"/>
	<path d="M737.34,490.41c-13.9,2.12-26.85,7.5-38.15,15.39c9.77,3.56,17.92,8.9,24.71,15.11c6.18-2.87,12.79-4.84,19.71-5.62
		c6.56-0.59,13.08,0.06,19.32,1.78C756.02,507.35,747.55,498.14,737.34,490.41z"/>
</g>
<g>
	<g>
		<path d="M505.31,609.44v44.32h19.57c1.99,0,3.52,0.48,4.59,1.45c1.07,0.97,1.6,2.19,1.6,3.65c0,1.5-0.53,2.71-1.58,3.64
			c-1.05,0.93-2.59,1.39-4.61,1.39h-24.35c-2.69,0-4.62-0.59-5.79-1.79c-1.18-1.19-1.77-3.11-1.77-5.77v-46.89
			c0-2.49,0.56-4.36,1.68-5.61c1.12-1.25,2.6-1.87,4.42-1.87c1.85,0,3.36,0.62,4.51,1.85C504.74,605.04,505.31,606.92,505.31,609.44
			z"/>
		<path d="M524.88,664.9h-24.35c-2.95,0-5.14-0.7-6.51-2.09c-1.36-1.38-2.05-3.56-2.05-6.48v-46.89c0-2.74,0.65-4.85,1.94-6.28
			c1.32-1.46,3.06-2.2,5.17-2.2c2.14,0,3.9,0.73,5.24,2.17c1.32,1.42,1.99,3.54,1.99,6.31v43.31h18.57c2.24,0,4.01,0.58,5.27,1.71
			c1.28,1.16,1.93,2.64,1.93,4.4c0,1.79-0.64,3.26-1.92,4.39C528.92,664.34,527.15,664.9,524.88,664.9z M499.08,602.97
			c-1.54,0-2.74,0.5-3.67,1.54c-0.94,1.05-1.42,2.71-1.42,4.93v46.89c0,2.37,0.5,4.07,1.47,5.06c0.98,0.99,2.68,1.49,5.08,1.49
			h24.35c1.76,0,3.09-0.38,3.94-1.14c0.83-0.74,1.24-1.68,1.24-2.88c0-1.18-0.42-2.13-1.27-2.91c-0.87-0.79-2.18-1.19-3.91-1.19
			H504.3v-45.32c0-2.24-0.49-3.91-1.45-4.94C501.89,603.47,500.66,602.97,499.08,602.97z"/>
	</g>
	<g>
		<path d="M584.32,641.88c0,3.38-0.53,6.49-1.58,9.34c-1.05,2.85-2.58,5.3-4.57,7.35s-4.38,3.62-7.14,4.71
			c-2.77,1.09-5.88,1.64-9.34,1.64c-3.43,0-6.52-0.55-9.26-1.66c-2.74-1.11-5.12-2.69-7.12-4.75c-2.01-2.06-3.53-4.5-4.57-7.31
			c-1.04-2.81-1.56-5.92-1.56-9.32c0-3.43,0.53-6.58,1.58-9.43c1.05-2.85,2.56-5.29,4.53-7.31c1.97-2.02,4.35-3.58,7.14-4.67
			c2.8-1.1,5.88-1.64,9.26-1.64c3.43,0,6.55,0.55,9.34,1.66c2.8,1.11,5.19,2.69,7.19,4.73c1.99,2.05,3.51,4.49,4.55,7.31
			C583.8,635.35,584.32,638.47,584.32,641.88z M572.94,641.88c0-4.62-1.02-8.22-3.05-10.8c-2.03-2.58-4.77-3.86-8.2-3.86
			c-2.22,0-4.17,0.58-5.86,1.73c-1.69,1.15-2.99,2.84-3.9,5.09c-0.91,2.24-1.37,4.86-1.37,7.85c0,2.96,0.45,5.55,1.35,7.77
			c0.9,2.22,2.19,3.91,3.86,5.09c1.68,1.18,3.65,1.77,5.92,1.77c3.43,0,6.17-1.29,8.2-3.88
			C571.92,650.02,572.94,646.44,572.94,641.88z"/>
		<path d="M561.68,665.93c-3.55,0-6.79-0.58-9.64-1.74c-2.85-1.15-5.36-2.83-7.47-4.98c-2.1-2.15-3.71-4.73-4.79-7.66
			c-1.07-2.91-1.62-6.17-1.62-9.67c0-3.54,0.55-6.83,1.64-9.78c1.1-2.97,2.69-5.55,4.75-7.66c2.06-2.11,4.58-3.77,7.5-4.91
			c2.9-1.14,6.14-1.71,9.63-1.71c3.54,0,6.81,0.58,9.72,1.73c2.92,1.16,5.45,2.83,7.53,4.97c2.09,2.15,3.69,4.72,4.77,7.67
			c1.07,2.92,1.62,6.18,1.62,9.69c0,3.48-0.55,6.74-1.64,9.69c-1.1,2.97-2.71,5.56-4.79,7.7c-2.09,2.14-4.61,3.81-7.5,4.95
			C568.53,665.36,565.26,665.93,561.68,665.93z M561.68,619.83c-3.24,0-6.23,0.53-8.89,1.57c-2.65,1.04-4.93,2.53-6.79,4.44
			c-1.86,1.91-3.31,4.25-4.31,6.96c-1.01,2.73-1.51,5.78-1.51,9.08c0,3.27,0.5,6.29,1.5,8.98c0.99,2.67,2.45,5.01,4.35,6.96
			c1.91,1.95,4.19,3.48,6.78,4.52c2.61,1.05,5.6,1.59,8.89,1.59c3.32,0,6.34-0.53,8.98-1.57c2.62-1.04,4.91-2.54,6.79-4.48
			c1.88-1.94,3.35-4.29,4.35-7c1.01-2.73,1.51-5.75,1.51-9c0-3.27-0.5-6.3-1.5-9c-0.98-2.67-2.44-5.01-4.32-6.96
			c-1.88-1.93-4.18-3.45-6.83-4.5C567.99,620.36,564.97,619.83,561.68,619.83z M561.68,657.5c-2.47,0-4.66-0.66-6.5-1.95
			c-1.83-1.29-3.25-3.15-4.22-5.53c-0.94-2.32-1.42-5.06-1.42-8.14c0-3.11,0.49-5.88,1.45-8.23c0.99-2.42,2.42-4.28,4.27-5.54
			c1.85-1.26,4.01-1.9,6.42-1.9c3.74,0,6.77,1.43,8.99,4.25c2.17,2.74,3.27,6.59,3.27,11.42c0,4.78-1.1,8.6-3.27,11.36
			C568.45,656.07,565.43,657.5,561.68,657.5z M561.68,628.22c-2,0-3.78,0.52-5.29,1.55c-1.51,1.03-2.7,2.59-3.54,4.63
			c-0.86,2.11-1.3,4.62-1.3,7.47c0,2.82,0.43,5.31,1.28,7.39c0.82,2.02,2,3.58,3.51,4.64c1.52,1.06,3.26,1.58,5.34,1.58
			c3.14,0,5.56-1.14,7.41-3.5c1.88-2.4,2.84-5.8,2.84-10.11c0-4.37-0.95-7.79-2.84-10.17C567.25,629.36,564.82,628.22,561.68,628.22
			z"/>
	</g>
	<g>
		<path d="M637.56,641.82c0,3.38-0.53,6.49-1.58,9.34c-1.05,2.85-2.58,5.3-4.57,7.35c-1.99,2.05-4.38,3.62-7.14,4.71
			c-2.77,1.09-5.88,1.64-9.34,1.64c-3.43,0-6.52-0.55-9.26-1.66c-2.74-1.11-5.12-2.69-7.12-4.75c-2.01-2.06-3.53-4.5-4.57-7.31
			c-1.04-2.81-1.56-5.92-1.56-9.32c0-3.43,0.53-6.58,1.58-9.43c1.05-2.85,2.56-5.29,4.53-7.31c1.97-2.02,4.35-3.58,7.14-4.67
			c2.8-1.1,5.88-1.64,9.26-1.64c3.43,0,6.55,0.55,9.34,1.66c2.8,1.11,5.19,2.69,7.19,4.73c1.99,2.05,3.51,4.49,4.55,7.31
			C637.05,635.3,637.56,638.42,637.56,641.82z M626.18,641.82c0-4.62-1.02-8.22-3.05-10.8c-2.03-2.58-4.77-3.86-8.2-3.86
			c-2.22,0-4.17,0.58-5.86,1.73c-1.69,1.15-2.99,2.84-3.9,5.09c-0.91,2.24-1.37,4.86-1.37,7.85c0,2.96,0.45,5.55,1.35,7.77
			c0.9,2.22,2.19,3.91,3.86,5.09c1.68,1.18,3.65,1.77,5.92,1.77c3.43,0,6.17-1.29,8.2-3.88
			C625.17,649.97,626.18,646.39,626.18,641.82z"/>
		<path d="M614.93,665.88c-3.54,0-6.79-0.58-9.64-1.73c-2.86-1.15-5.37-2.83-7.47-4.99c-2.09-2.15-3.7-4.73-4.79-7.66
			c-1.07-2.91-1.62-6.17-1.62-9.68c0-3.54,0.55-6.83,1.64-9.78c1.09-2.97,2.69-5.55,4.75-7.66c2.06-2.11,4.58-3.77,7.5-4.91
			c2.9-1.14,6.14-1.71,9.63-1.71c3.54,0,6.81,0.58,9.71,1.73c2.92,1.16,5.45,2.83,7.54,4.97c2.09,2.14,3.69,4.72,4.77,7.67
			c1.07,2.92,1.62,6.18,1.62,9.69c0,3.48-0.55,6.74-1.64,9.69c-1.1,2.97-2.71,5.56-4.79,7.7c-2.08,2.14-4.6,3.81-7.5,4.95
			C621.77,665.3,618.5,665.88,614.93,665.88z M614.93,619.78c-3.24,0-6.23,0.53-8.89,1.57c-2.65,1.04-4.93,2.53-6.79,4.44
			c-1.86,1.91-3.31,4.25-4.3,6.95c-1.01,2.72-1.52,5.78-1.52,9.08c0,3.27,0.5,6.29,1.49,8.98c0.99,2.67,2.45,5.01,4.35,6.95
			c1.9,1.95,4.18,3.47,6.78,4.52c2.61,1.05,5.6,1.59,8.88,1.59c3.32,0,6.34-0.53,8.98-1.57c2.62-1.04,4.91-2.54,6.79-4.48
			c1.89-1.94,3.35-4.29,4.35-7c1.01-2.72,1.52-5.75,1.52-9c0-3.28-0.5-6.3-1.5-9c-0.98-2.68-2.44-5.02-4.32-6.96
			c-1.88-1.93-4.18-3.45-6.83-4.5C621.23,620.31,618.21,619.78,614.93,619.78z M614.93,657.45c-2.47,0-4.65-0.66-6.5-1.95
			c-1.83-1.28-3.25-3.15-4.22-5.53c-0.94-2.32-1.42-5.07-1.42-8.14c0-3.11,0.49-5.88,1.45-8.23c0.99-2.42,2.42-4.28,4.27-5.54
			c1.85-1.26,4.01-1.9,6.42-1.9c3.74,0,6.77,1.43,8.99,4.25c2.17,2.74,3.27,6.59,3.27,11.42c0,4.78-1.1,8.6-3.27,11.36
			C621.7,656.01,618.67,657.45,614.93,657.45z M614.93,628.17c-2,0-3.78,0.52-5.29,1.55c-1.52,1.03-2.7,2.59-3.54,4.63
			c-0.86,2.11-1.3,4.62-1.3,7.47c0,2.82,0.43,5.3,1.28,7.39c0.82,2.02,2,3.59,3.51,4.64c1.5,1.05,3.29,1.58,5.34,1.58
			c3.14,0,5.56-1.14,7.41-3.5c1.88-2.4,2.84-5.8,2.84-10.11c0-4.37-0.95-7.8-2.84-10.17C620.49,629.3,618.07,628.17,614.93,628.17z"
			/>
	</g>
	<g>
		<path d="M656.3,625.18v1.37c2.12-2.63,4.32-4.56,6.6-5.79c2.28-1.23,4.87-1.85,7.75-1.85c3.46,0,6.65,0.9,9.57,2.7
			c2.91,1.8,5.22,4.43,6.91,7.89c1.69,3.46,2.54,7.56,2.54,12.29c0,3.49-0.49,6.69-1.46,9.61c-0.98,2.92-2.32,5.37-4.02,7.35
			c-1.71,1.98-3.72,3.5-6.04,4.57c-2.32,1.06-4.82,1.6-7.49,1.6c-3.22,0-5.92-0.65-8.1-1.95c-2.19-1.3-4.27-3.21-6.25-5.73v17.03
			c0,4.98-1.8,7.48-5.4,7.48c-2.12,0-3.52-0.64-4.21-1.93c-0.69-1.29-1.03-3.16-1.03-5.63v-48.93c0-2.16,0.47-3.77,1.4-4.84
			c0.93-1.07,2.21-1.6,3.84-1.6c1.59,0,2.89,0.55,3.9,1.64C655.8,621.56,656.3,623.13,656.3,625.18z M678.37,641.67
			c0-2.99-0.45-5.56-1.36-7.7s-2.16-3.79-3.77-4.94c-1.61-1.15-3.39-1.73-5.34-1.73c-3.11,0-5.73,1.23-7.86,3.7
			c-2.13,2.47-3.2,6.09-3.2,10.88c0,4.51,1.06,8.02,3.18,10.53c2.12,2.51,4.74,3.76,7.88,3.76c1.87,0,3.6-0.55,5.2-1.64
			c1.59-1.1,2.87-2.74,3.84-4.92C677.89,647.41,678.37,644.77,678.37,641.67z"/>
		<path d="M650.9,682.75c-2.51,0-4.22-0.83-5.1-2.47c-0.77-1.44-1.15-3.44-1.15-6.1v-48.93c0-2.4,0.56-4.25,1.65-5.5
			c1.13-1.29,2.67-1.94,4.59-1.94c1.88,0,3.44,0.66,4.64,1.97c0.95,1.04,1.53,2.44,1.71,4.16c1.67-1.75,3.41-3.12,5.18-4.07
			c2.42-1.31,5.19-1.97,8.23-1.97c3.64,0,7.03,0.96,10.1,2.85c3.07,1.89,5.51,4.69,7.28,8.31c1.75,3.58,2.64,7.87,2.64,12.74
			c0,3.58-0.51,6.92-1.51,9.93c-1.02,3.03-2.43,5.62-4.21,7.69c-1.8,2.08-3.94,3.71-6.38,4.83c-2.45,1.12-5.11,1.69-7.91,1.69
			c-3.39,0-6.28-0.7-8.62-2.09c-1.63-0.97-3.21-2.27-4.73-3.88v14.31C657.31,681.28,653.82,682.75,650.9,682.75z M650.9,619.83
			c-1.33,0-2.34,0.41-3.08,1.26c-0.77,0.87-1.15,2.28-1.15,4.18v48.93c0,2.29,0.31,4.02,0.91,5.15c0.18,0.35,0.75,1.4,3.32,1.4
			c1.89,0,4.4-0.67,4.4-6.47v-19.94l1.8,2.29c1.89,2.41,3.9,4.26,5.97,5.49c2.02,1.2,4.57,1.81,7.59,1.81
			c2.51,0,4.88-0.51,7.07-1.51c2.18-1,4.09-2.45,5.7-4.31c1.61-1.87,2.9-4.23,3.83-7.01c0.94-2.8,1.41-5.93,1.41-9.29
			c0-4.56-0.82-8.55-2.43-11.85c-1.6-3.27-3.8-5.79-6.53-7.48c-2.74-1.69-5.78-2.55-9.04-2.55c-2.7,0-5.15,0.58-7.27,1.73
			c-2.15,1.16-4.27,3.03-6.29,5.54l-1.79,2.22v-4.23c0-1.78-0.42-3.14-1.24-4.03C653.24,620.26,652.21,619.83,650.9,619.83z
			 M667.89,657.17c-3.43,0-6.34-1.39-8.65-4.12c-2.26-2.68-3.41-6.44-3.41-11.18c0-5.02,1.16-8.9,3.44-11.54
			c2.32-2.69,5.22-4.05,8.62-4.05c2.16,0,4.15,0.64,5.93,1.91c1.75,1.25,3.14,3.06,4.12,5.37c0.96,2.26,1.44,4.99,1.44,8.1
			c0,3.23-0.51,6.03-1.53,8.34c-1.03,2.35-2.44,4.15-4.19,5.35C671.9,656.56,669.96,657.17,667.89,657.17z M667.89,628.3
			c-2.83,0-5.15,1.1-7.1,3.35c-1.96,2.27-2.95,5.71-2.95,10.22c0,4.25,0.99,7.57,2.94,9.88c1.94,2.29,4.26,3.4,7.11,3.4
			c1.68,0,3.19-0.48,4.63-1.46c1.43-0.98,2.6-2.5,3.48-4.5c0.9-2.05,1.36-4.58,1.36-7.53c0-2.84-0.43-5.3-1.28-7.31
			c-0.83-1.96-1.98-3.48-3.43-4.51C671.22,628.82,669.62,628.3,667.89,628.3z"/>
	</g>
	<g>
		<path d="M708.48,608.44v17.32c2.13-2.22,4.3-3.91,6.52-5.09c2.21-1.18,4.96-1.77,8.22-1.77c3.76,0,7.07,0.89,9.91,2.68
			c2.84,1.79,5.04,4.38,6.6,7.77c1.56,3.39,2.35,7.41,2.35,12.06c0,3.44-0.44,6.58-1.31,9.45c-0.87,2.86-2.14,5.35-3.8,7.45
			c-1.66,2.1-3.67,3.73-6.04,4.88c-2.37,1.15-4.98,1.72-7.83,1.72c-1.74,0-3.39-0.21-4.92-0.62c-1.54-0.42-2.85-0.96-3.93-1.64
			c-1.08-0.68-2-1.38-2.76-2.1c-0.76-0.72-1.76-1.8-3.01-3.24v1.12c0,2.13-0.51,3.75-1.54,4.84c-1.02,1.09-2.33,1.64-3.9,1.64
			c-1.61,0-2.89-0.55-3.84-1.64c-0.95-1.09-1.43-2.71-1.43-4.84v-49.51c0-2.3,0.46-4.04,1.39-5.21c0.93-1.18,2.22-1.77,3.88-1.77
			c1.74,0,3.09,0.56,4.03,1.68C708.01,604.77,708.48,606.36,708.48,608.44z M709.02,642.12c0,4.51,1.03,7.98,3.09,10.4
			c2.06,2.42,4.77,3.63,8.12,3.63c2.85,0,5.31-1.24,7.37-3.72c2.06-2.48,3.09-6.03,3.09-10.65c0-2.99-0.43-5.57-1.29-7.73
			c-0.86-2.16-2.08-3.83-3.65-5.01s-3.42-1.77-5.52-1.77c-2.16,0-4.08,0.59-5.77,1.77c-1.69,1.18-3.02,2.88-3.99,5.11
			C709.51,636.4,709.02,639.05,709.02,642.12z"/>
		<path d="M723.1,665.93c-1.83,0-3.57-0.22-5.18-0.66c-1.62-0.44-3.03-1.03-4.2-1.76c-1.14-0.72-2.12-1.47-2.92-2.22
			c-0.4-0.38-0.86-0.85-1.39-1.42c-0.2,1.71-0.78,3.09-1.73,4.1c-1.22,1.3-2.78,1.96-4.64,1.96c-1.9,0-3.45-0.67-4.6-1.99
			c-1.12-1.28-1.68-3.13-1.68-5.5v-49.51c0-2.52,0.54-4.48,1.61-5.83c1.12-1.43,2.7-2.15,4.67-2.15c2.05,0,3.66,0.69,4.8,2.04
			c1.09,1.31,1.65,3.14,1.65,5.44v14.94c1.65-1.49,3.34-2.7,5.04-3.6c2.35-1.25,5.28-1.88,8.7-1.88c3.94,0,7.45,0.95,10.44,2.83
			c2.99,1.89,5.34,4.64,6.98,8.2c1.62,3.51,2.44,7.71,2.44,12.49c0,3.51-0.45,6.79-1.35,9.74c-0.91,2.98-2.24,5.6-3.97,7.79
			c-1.75,2.21-3.9,3.95-6.39,5.16C728.88,665.32,726.1,665.93,723.1,665.93z M707.48,654.62l1.77,2.04c1.21,1.4,2.2,2.47,2.94,3.17
			c0.7,0.67,1.58,1.33,2.61,1.98c0.99,0.62,2.22,1.13,3.65,1.52c1.44,0.39,3.01,0.59,4.66,0.59c2.69,0,5.17-0.55,7.39-1.62
			c2.22-1.08,4.13-2.62,5.69-4.6c1.57-1.99,2.79-4.39,3.63-7.12c0.84-2.76,1.26-5.84,1.26-9.16c0-4.48-0.76-8.4-2.25-11.64
			c-1.47-3.2-3.57-5.66-6.23-7.34c-2.66-1.68-5.82-2.53-9.37-2.53c-3.08,0-5.69,0.55-7.75,1.65c-2.11,1.12-4.22,2.77-6.27,4.9
			l-1.73,1.8v-19.82c0-1.82-0.4-3.22-1.18-4.15c-0.75-0.89-1.81-1.32-3.26-1.32c-1.35,0-2.36,0.45-3.09,1.38
			c-0.78,0.99-1.18,2.53-1.18,4.59v49.51c0,1.87,0.4,3.28,1.18,4.18c0.76,0.87,1.77,1.3,3.08,1.3c1.3,0,2.34-0.43,3.17-1.32
			c0.84-0.9,1.27-2.29,1.27-4.15V654.62z M720.24,657.17c-3.64,0-6.63-1.34-8.89-3.99c-2.21-2.6-3.33-6.32-3.33-11.06
			c0-3.2,0.52-6.01,1.54-8.35c1.04-2.39,2.5-4.26,4.33-5.53c3.67-2.56,8.94-2.62,12.47,0.02c1.72,1.28,3.06,3.11,3.99,5.44
			c0.9,2.27,1.36,4.99,1.36,8.1c0,4.84-1.12,8.65-3.33,11.3C726.13,655.8,723.39,657.17,720.24,657.17z M720.24,628.3
			c-1.94,0-3.69,0.53-5.2,1.58c-1.53,1.06-2.75,2.64-3.64,4.69c-0.91,2.09-1.37,4.63-1.37,7.55c0,4.24,0.96,7.53,2.85,9.75
			c1.88,2.21,4.28,3.28,7.35,3.28c2.56,0,4.72-1.1,6.6-3.35c1.9-2.28,2.86-5.65,2.86-10.01c0-2.85-0.41-5.32-1.22-7.35
			c-0.79-1.98-1.9-3.51-3.32-4.57C723.74,628.82,722.13,628.3,720.24,628.3z"/>
	</g>
	<g>
		<path d="M761.52,648.56v9.47c0,2.3-0.54,4.02-1.62,5.17c-1.08,1.15-2.45,1.72-4.11,1.72c-1.63,0-2.98-0.58-4.03-1.74
			c-1.05-1.16-1.58-2.88-1.58-5.15v-31.57c0-5.09,1.84-7.64,5.52-7.64c1.88,0,3.24,0.6,4.07,1.79c0.83,1.19,1.29,2.95,1.37,5.27
			c1.36-2.33,2.75-4.08,4.17-5.27c1.43-1.19,3.33-1.79,5.71-1.79c2.38,0,4.69,0.6,6.94,1.79c2.24,1.19,3.36,2.77,3.36,4.73
			c0,1.39-0.48,2.53-1.43,3.43c-0.96,0.9-1.99,1.35-3.09,1.35c-0.42,0-1.42-0.25-3.01-0.77c-1.59-0.51-3-0.77-4.21-0.77
			c-1.66,0-3.02,0.44-4.07,1.31c-1.05,0.87-1.87,2.17-2.45,3.88c-0.58,1.72-0.98,3.76-1.2,6.13
			C761.63,642.27,761.52,645.16,761.52,648.56z"/>
		<path d="M755.79,665.93c-1.92,0-3.53-0.7-4.78-2.08c-1.22-1.35-1.84-3.31-1.84-5.83v-31.57c0-7.15,3.55-8.65,6.53-8.65
			c2.22,0,3.87,0.75,4.9,2.22c0.55,0.8,0.96,1.77,1.22,2.96c0.93-1.29,1.89-2.34,2.86-3.15c1.61-1.34,3.75-2.02,6.36-2.02
			c2.53,0,5.03,0.64,7.41,1.91c2.59,1.37,3.9,3.26,3.9,5.62c0,1.67-0.59,3.06-1.75,4.16c-1.15,1.08-2.42,1.62-3.78,1.62
			c-0.37,0-1.07-0.09-3.32-0.82c-3.38-1.09-5.78-0.93-7.34,0.36c-0.9,0.75-1.62,1.9-2.14,3.43c-0.55,1.64-0.94,3.62-1.15,5.9
			c-0.22,2.32-0.33,5.2-0.33,8.56v9.47c0,2.55-0.64,4.52-1.89,5.86C759.36,665.25,757.73,665.93,755.79,665.93z M755.71,619.83
			c-1.94,0-4.52,0.69-4.52,6.64v31.57c0,2,0.44,3.51,1.32,4.48c0.86,0.95,1.93,1.41,3.28,1.41c1.38,0,2.49-0.46,3.38-1.41
			c0.89-0.95,1.35-2.46,1.35-4.48v-9.47c0-3.43,0.11-6.38,0.34-8.75c0.23-2.43,0.65-4.57,1.25-6.36c0.64-1.89,1.57-3.34,2.76-4.34
			c2.1-1.74,5.16-2.04,9.24-0.72c2.13,0.68,2.62,0.72,2.7,0.72c0.85,0,1.63-0.35,2.4-1.07c0.75-0.71,1.12-1.59,1.12-2.69
			c0-1.58-0.93-2.84-2.83-3.85c-4.1-2.18-9.01-2.21-11.53-0.12c-1.33,1.11-2.66,2.8-3.95,5.01l-1.75,3l-0.12-3.47
			c-0.08-2.12-0.48-3.71-1.19-4.73C758.31,620.27,757.25,619.83,755.71,619.83z"/>
	</g>
	<g>
		<path d="M819.21,658.38v-1.45c-1.36,1.72-2.78,3.16-4.28,4.32c-1.5,1.16-3.13,2.03-4.9,2.6c-1.77,0.57-3.79,0.85-6.06,0.85
			c-2.74,0-5.2-0.57-7.37-1.7c-2.17-1.14-3.86-2.7-5.05-4.69c-1.41-2.41-2.12-5.87-2.12-10.38v-22.47c0-2.27,0.51-3.97,1.54-5.09
			c1.02-1.12,2.38-1.68,4.07-1.68c1.72,0,3.1,0.57,4.15,1.7c1.05,1.14,1.58,2.82,1.58,5.07v18.15c0,2.63,0.22,4.84,0.66,6.63
			c0.44,1.78,1.24,3.18,2.39,4.19c1.15,1.01,2.71,1.52,4.67,1.52c1.91,0,3.71-0.57,5.4-1.7c1.69-1.13,2.92-2.62,3.7-4.44
			c0.64-1.61,0.96-5.12,0.96-10.55v-13.79c0-2.24,0.53-3.93,1.58-5.07c1.05-1.14,2.42-1.7,4.11-1.7c1.69,0,3.05,0.56,4.07,1.68
			c1.02,1.12,1.54,2.82,1.54,5.09v32.85c0,2.16-0.49,3.78-1.47,4.86c-0.98,1.08-2.25,1.62-3.8,1.62c-1.55,0-2.83-0.56-3.84-1.68
			C819.72,661.98,819.21,660.41,819.21,658.38z"/>
		<path d="M824.57,665.79c-1.84,0-3.38-0.68-4.59-2.01c-0.97-1.07-1.54-2.48-1.72-4.21c-0.88,0.93-1.78,1.76-2.71,2.48
			c-1.58,1.23-3.33,2.16-5.21,2.76c-1.87,0.6-4.01,0.9-6.37,0.9c-2.89,0-5.53-0.61-7.84-1.82c-2.33-1.22-4.16-2.93-5.45-5.07
			c-1.5-2.56-2.26-6.22-2.26-10.9v-22.47c0-2.52,0.61-4.46,1.8-5.77c1.22-1.33,2.84-2.01,4.81-2.01c2,0,3.65,0.68,4.89,2.03
			c1.23,1.32,1.85,3.26,1.85,5.75v18.15c0,2.54,0.21,4.69,0.63,6.38c0.39,1.57,1.09,2.81,2.08,3.68c0.97,0.85,2.28,1.27,4.01,1.27
			c1.72,0,3.31-0.5,4.84-1.53c1.52-1.02,2.64-2.36,3.33-4c0.39-1,0.88-3.59,0.88-10.16v-13.79c0-2.5,0.62-4.43,1.85-5.75
			c1.24-1.34,2.88-2.03,4.85-2.03c1.97,0,3.59,0.68,4.81,2.01c1.2,1.31,1.8,3.25,1.8,5.77v32.85c0,2.41-0.58,4.27-1.74,5.54
			C827.94,665.13,826.41,665.79,824.57,665.79z M820.22,654.04v4.35c0,1.76,0.42,3.12,1.26,4.04c0.82,0.91,1.83,1.35,3.09,1.35
			c1.27,0,2.27-0.42,3.06-1.29c0.8-0.88,1.21-2.29,1.21-4.18v-32.85c0-2-0.43-3.48-1.27-4.41c-0.83-0.91-1.92-1.36-3.33-1.36
			c-1.41,0-2.51,0.45-3.37,1.38c-0.87,0.94-1.31,2.41-1.31,4.38v13.79c0,5.6-0.34,9.18-1.03,10.92c-0.86,2.02-2.23,3.67-4.07,4.91
			c-1.85,1.24-3.85,1.87-5.96,1.87c-2.21,0-4-0.59-5.34-1.77c-1.3-1.15-2.21-2.73-2.7-4.71c-0.46-1.85-0.69-4.16-0.69-6.87v-18.15
			c0-1.97-0.44-3.44-1.31-4.38c-0.86-0.93-1.98-1.38-3.42-1.38c-1.41,0-2.49,0.44-3.33,1.36c-0.84,0.92-1.27,2.41-1.27,4.41v22.47
			c0,4.31,0.67,7.63,1.98,9.87c1.08,1.82,2.65,3.27,4.64,4.31c2.02,1.05,4.34,1.59,6.91,1.59c2.15,0,4.09-0.27,5.76-0.8
			c1.65-0.53,3.2-1.35,4.59-2.43c1.42-1.11,2.81-2.51,4.11-4.15L820.22,654.04z"/>
	</g>
	<g>
		<path d="M882.17,627.13v32.94c0,3.76-0.4,7-1.2,9.72c-0.8,2.71-2.09,4.95-3.86,6.73c-1.77,1.77-4.09,3.09-6.96,3.94
			c-2.86,0.86-6.43,1.29-10.69,1.29c-3.9,0-7.39-0.55-10.47-1.64c-3.07-1.1-5.44-2.51-7.1-4.24c-1.66-1.73-2.49-3.51-2.49-5.34
			c0-1.39,0.47-2.51,1.41-3.38c0.94-0.87,2.08-1.31,3.41-1.31c1.66,0,3.11,0.73,4.36,2.2c0.61,0.75,1.24,1.5,1.89,2.26
			c0.65,0.76,1.37,1.41,2.16,1.95c0.79,0.54,1.74,0.94,2.85,1.21c1.11,0.26,2.38,0.39,3.82,0.39c2.93,0,5.21-0.41,6.83-1.22
			c1.62-0.82,2.75-1.96,3.41-3.43c0.65-1.47,1.03-3.04,1.14-4.71c0.11-1.68,0.19-4.37,0.25-8.08c-1.74,2.44-3.76,4.29-6.04,5.57
			c-2.29,1.27-5.01,1.91-8.16,1.91c-3.79,0-7.11-0.97-9.95-2.91c-2.84-1.94-5.02-4.65-6.54-8.14c-1.52-3.49-2.28-7.52-2.28-12.09
			c0-3.41,0.46-6.48,1.39-9.22c0.93-2.74,2.25-5.05,3.97-6.93c1.72-1.88,3.7-3.3,5.94-4.26c2.24-0.95,4.71-1.43,7.39-1.43
			c3.21,0,5.99,0.62,8.35,1.85c2.35,1.23,4.54,3.16,6.56,5.79v-1.54c0-1.97,0.48-3.49,1.45-4.57c0.97-1.08,2.21-1.62,3.74-1.62
			c2.19,0,3.64,0.71,4.36,2.14C881.81,622.39,882.17,624.45,882.17,627.13z M849.32,641.5c0,4.6,1,8.07,3.01,10.43
			c2.01,2.35,4.6,3.53,7.79,3.53c1.88,0,3.66-0.5,5.34-1.51c1.67-1.01,3.04-2.53,4.09-4.57c1.05-2.04,1.58-4.51,1.58-7.41
			c0-4.62-1.02-8.22-3.05-10.8c-2.03-2.58-4.71-3.86-8.04-3.86c-3.24,0-5.84,1.23-7.79,3.7C850.3,633.46,849.32,636.96,849.32,641.5
			z"/>
		<path d="M859.46,682.75c-4,0-7.64-0.57-10.8-1.7c-3.21-1.15-5.73-2.66-7.49-4.49c-1.84-1.92-2.77-3.95-2.77-6.03
			c0-1.67,0.58-3.06,1.74-4.12c1.13-1.05,2.5-1.58,4.09-1.58c1.96,0,3.69,0.86,5.13,2.56c0.62,0.76,1.24,1.5,1.89,2.26
			c0.59,0.69,1.25,1.29,1.96,1.77c0.68,0.47,1.53,0.82,2.51,1.06c1.03,0.24,2.23,0.37,3.59,0.37c2.76,0,4.91-0.38,6.38-1.12
			c1.42-0.71,2.38-1.67,2.94-2.94c0.6-1.35,0.95-2.82,1.06-4.37c0.08-1.18,0.14-2.89,0.19-5.13c-1.37,1.46-2.87,2.65-4.49,3.56
			c-2.43,1.35-5.34,2.04-8.65,2.04c-3.98,0-7.52-1.04-10.51-3.08c-2.98-2.04-5.31-4.92-6.9-8.57c-1.57-3.6-2.37-7.8-2.37-12.49
			c0-3.5,0.49-6.71,1.44-9.54c0.97-2.86,2.37-5.31,4.18-7.29c1.8-1.98,3.92-3.5,6.29-4.51c2.36-1.01,4.98-1.51,7.79-1.51
			c3.36,0,6.32,0.66,8.81,1.96c1.8,0.95,3.53,2.29,5.14,4.01c0.17-1.69,0.72-3.06,1.66-4.1c1.16-1.3,2.67-1.95,4.49-1.95
			c2.59,0,4.36,0.91,5.26,2.69c0.8,1.58,1.19,3.75,1.19,6.62v32.94c0,3.85-0.42,7.21-1.25,10c-0.85,2.86-2.23,5.27-4.12,7.15
			c-1.88,1.88-4.37,3.29-7.38,4.2C867.49,682.31,863.79,682.75,859.46,682.75z M844.21,666.85c-1.08,0-1.97,0.34-2.72,1.04
			c-0.73,0.68-1.09,1.54-1.09,2.65c0,1.57,0.72,3.09,2.21,4.64c1.54,1.61,3.8,2.95,6.72,3.99c2.95,1.05,6.36,1.58,10.13,1.58
			c4.14,0,7.64-0.42,10.41-1.25c2.69-0.8,4.89-2.05,6.53-3.69c1.64-1.65,2.86-3.77,3.61-6.3c0.77-2.61,1.16-5.78,1.16-9.43v-32.94
			c0-2.51-0.33-4.43-0.97-5.71c-0.54-1.07-1.67-1.59-3.46-1.59c-1.23,0-2.21,0.42-2.99,1.29c-0.8,0.88-1.2,2.19-1.2,3.9v4.5
			l-1.8-2.35c-1.92-2.5-4.02-4.36-6.23-5.52c-2.2-1.15-4.85-1.73-7.88-1.73c-2.53,0-4.89,0.45-7,1.35c-2.1,0.9-3.98,2.24-5.59,4.01
			c-1.62,1.77-2.88,3.99-3.76,6.58c-0.89,2.62-1.34,5.61-1.34,8.9c0,4.41,0.74,8.34,2.2,11.69c1.44,3.3,3.52,5.89,6.19,7.71
			c2.66,1.81,5.81,2.73,9.38,2.73c2.97,0,5.55-0.6,7.67-1.78c2.14-1.19,4.06-2.97,5.72-5.27l1.87-2.62l-0.05,3.22
			c-0.06,3.77-0.14,6.43-0.25,8.13c-0.12,1.79-0.53,3.49-1.23,5.05c-0.75,1.68-2.05,3-3.87,3.92c-1.76,0.88-4.21,1.33-7.29,1.33
			c-1.51,0-2.87-0.14-4.05-0.42c-1.23-0.29-2.3-0.75-3.18-1.35c-0.86-0.59-1.65-1.3-2.36-2.13c-0.66-0.77-1.29-1.53-1.9-2.28
			C846.75,667.45,845.58,666.85,844.21,666.85z M860.12,656.46c-3.48,0-6.35-1.31-8.55-3.88c-2.16-2.53-3.25-6.26-3.25-11.08
			c0-4.75,1.06-8.5,3.15-11.13c2.14-2.71,5.03-4.08,8.58-4.08c3.63,0,6.6,1.43,8.83,4.25c2.17,2.74,3.27,6.59,3.27,11.42
			c0,3.06-0.57,5.71-1.69,7.88c-1.13,2.19-2.63,3.86-4.46,4.97C864.15,655.9,862.18,656.46,860.12,656.46z M860.04,628.3
			c-2.94,0-5.23,1.09-7,3.32c-1.8,2.27-2.71,5.59-2.71,9.88c0,4.33,0.93,7.62,2.77,9.77c1.82,2.14,4.12,3.18,7.02,3.18
			c1.69,0,3.31-0.46,4.82-1.37c1.5-0.91,2.75-2.31,3.72-4.17c0.97-1.88,1.47-4.22,1.47-6.95c0-4.37-0.95-7.79-2.84-10.17
			C865.43,629.44,863.06,628.3,860.04,628.3z"/>
	</g>
</g>
<g>
	<path d="M524.95,706.31c0.69,0,1.32,0.23,1.87,0.7s0.83,1.03,0.83,1.69c0,0.24-0.09,0.57-0.26,0.99l-14.65,32.11
		c-0.24,0.56-0.62,0.99-1.14,1.3c-0.52,0.31-1.07,0.47-1.66,0.47c-0.59,0-1.15-0.16-1.69-0.47c-0.54-0.31-0.93-0.74-1.17-1.3
		l-14.6-32.11c-0.17-0.42-0.26-0.74-0.26-0.99c0-0.69,0.28-1.27,0.86-1.72c0.57-0.45,1.2-0.67,1.9-0.67c1.07,0,1.84,0.48,2.29,1.45
		l12.73,28.53l12.73-28.53C523.16,706.79,523.91,706.31,524.95,706.31z"/>
	<path d="M544.59,719.5c0,0.76-0.19,1.33-0.57,1.71c-0.38,0.38-1.04,0.61-1.97,0.67l-1.56,0.16c-2.18,0.21-3.8,0.97-4.86,2.29
		c-1.06,1.32-1.58,2.91-1.58,4.78v11.9c0,0.83-0.24,1.46-0.73,1.87c-0.49,0.41-1.11,0.62-1.87,0.62c-0.76,0-1.4-0.21-1.9-0.62
		c-0.5-0.41-0.75-1.04-0.75-1.87v-21.15c0-0.8,0.25-1.41,0.75-1.85c0.5-0.43,1.13-0.65,1.9-0.65c0.69,0,1.27,0.22,1.74,0.65
		c0.47,0.43,0.7,1.03,0.7,1.79v2.49c0.69-1.53,1.7-2.68,3.01-3.48c1.32-0.8,2.81-1.26,4.47-1.4l0.73-0.05
		C543.76,717.27,544.59,717.98,544.59,719.5z"/>
	<path d="M548.07,711.45c-0.59-0.56-0.88-1.28-0.88-2.18c0-0.9,0.29-1.62,0.88-2.15c0.59-0.54,1.38-0.81,2.39-0.81
		c0.97,0,1.76,0.27,2.36,0.81c0.61,0.54,0.91,1.25,0.91,2.15c0,0.9-0.29,1.63-0.88,2.18c-0.59,0.55-1.39,0.83-2.39,0.83
		C549.45,712.28,548.66,712,548.07,711.45z M548.56,742.89c-0.5-0.41-0.75-1.04-0.75-1.87v-21.1c0-0.83,0.25-1.46,0.75-1.9
		c0.5-0.43,1.13-0.65,1.9-0.65c0.76,0,1.38,0.22,1.87,0.65c0.48,0.43,0.73,1.07,0.73,1.9v21.1c0,0.83-0.24,1.46-0.73,1.87
		c-0.49,0.41-1.11,0.62-1.87,0.62C549.7,743.51,549.07,743.3,548.56,742.89z M553.53,752.29c-0.56-0.35-0.83-0.88-0.83-1.61
		c0-0.56,0.17-1,0.52-1.32c0.35-0.33,0.9-0.53,1.66-0.6l1.45-0.1c1.35-0.07,2.36-0.48,3.04-1.25c0.68-0.76,1.01-1.98,1.01-3.64
		v-23.85c0-0.83,0.25-1.46,0.75-1.9c0.5-0.43,1.13-0.65,1.9-0.65c0.76,0,1.38,0.22,1.87,0.65c0.48,0.43,0.73,1.07,0.73,1.9v23.54
		c0,2.91-0.68,5.11-2.03,6.6c-1.35,1.49-3.45,2.34-6.29,2.55l-1.4,0.1C554.88,752.77,554.08,752.64,553.53,752.29z M560.65,711.45
		c-0.59-0.56-0.88-1.28-0.88-2.18c0-0.9,0.29-1.62,0.88-2.15c0.59-0.54,1.39-0.81,2.39-0.81c0.97,0,1.76,0.27,2.36,0.81
		c0.61,0.54,0.91,1.25,0.91,2.15c0,0.9-0.29,1.63-0.88,2.18c-0.59,0.55-1.39,0.83-2.39,0.83C562.03,712.28,561.23,712,560.65,711.45
		z"/>
	<path d="M594,737.43c0.31,0.38,0.47,0.87,0.47,1.45c0,1-0.62,1.85-1.87,2.55c-1.21,0.69-2.54,1.23-3.97,1.61
		c-1.44,0.38-2.81,0.57-4.13,0.57c-4.02,0-7.19-1.17-9.51-3.51c-2.32-2.34-3.48-5.53-3.48-9.59c0-2.6,0.51-4.9,1.53-6.91
		c1.02-2.01,2.46-3.57,4.31-4.68c1.85-1.11,3.96-1.66,6.31-1.66c3.4,0,6.08,1.09,8.05,3.27c1.97,2.18,2.96,5.13,2.96,8.84
		c0,1.38-0.62,2.08-1.87,2.08h-16.06c0.35,5.37,2.93,8.05,7.74,8.05c1.28,0,2.39-0.17,3.33-0.52c0.93-0.35,1.92-0.8,2.96-1.35
		c0.1-0.07,0.39-0.21,0.86-0.44s0.86-0.34,1.17-0.34C593.29,736.86,593.69,737.05,594,737.43z M578.94,723.04
		c-1.21,1.28-1.94,3.08-2.18,5.4h13.4c-0.1-2.36-0.7-4.17-1.79-5.43c-1.09-1.27-2.62-1.9-4.6-1.9
		C581.76,721.11,580.15,721.75,578.94,723.04z"/>
	<path d="M641.26,727.56c1.16,1.52,1.74,3.43,1.74,5.71c0,3.15-1.08,5.6-3.25,7.35c-2.17,1.75-5.19,2.62-9.07,2.62h-13.25
		c-0.83,0-1.48-0.23-1.95-0.7c-0.47-0.47-0.7-1.1-0.7-1.9v-31.44c0-0.79,0.23-1.43,0.7-1.9c0.47-0.47,1.12-0.7,1.95-0.7h12.68
		c3.77,0,6.73,0.84,8.86,2.52c2.13,1.68,3.2,4.03,3.2,7.04c0,1.94-0.51,3.62-1.53,5.04c-1.02,1.42-2.45,2.48-4.29,3.17
		C638.46,724.98,640.1,726.03,641.26,727.56z M620.04,722.46h9.25c5.13,0,7.69-1.94,7.69-5.82c0-1.94-0.63-3.38-1.9-4.31
		c-1.26-0.94-3.2-1.4-5.79-1.4h-9.25V722.46z M635.99,737.48c1.25-0.97,1.87-2.48,1.87-4.52c0-2.08-0.63-3.63-1.9-4.65
		c-1.26-1.02-3.21-1.53-5.85-1.53h-10.08v12.16h10.08C632.78,738.94,634.74,738.45,635.99,737.48z"/>
	<path d="M667.55,719.81c1.64,1.7,2.47,4.28,2.47,7.74v13.46c0,0.8-0.23,1.41-0.68,1.85c-0.45,0.43-1.07,0.65-1.87,0.65
		c-0.76,0-1.37-0.23-1.82-0.67c-0.45-0.45-0.68-1.06-0.68-1.82v-1.92c-0.66,1.46-1.64,2.57-2.94,3.35c-1.3,0.78-2.81,1.17-4.55,1.17
		c-1.66,0-3.19-0.34-4.57-1.01c-1.39-0.68-2.47-1.62-3.25-2.83c-0.78-1.21-1.17-2.56-1.17-4.05c0-1.84,0.47-3.28,1.43-4.34
		c0.95-1.05,2.53-1.81,4.73-2.26c2.2-0.45,5.22-0.67,9.07-0.67h1.2v-1.51c0-1.94-0.4-3.34-1.2-4.21c-0.8-0.87-2.08-1.3-3.85-1.3
		c-1.21,0-2.36,0.16-3.43,0.47c-1.07,0.31-2.25,0.76-3.53,1.35c-0.93,0.52-1.59,0.78-1.97,0.78c-0.52,0-0.94-0.19-1.27-0.57
		c-0.33-0.38-0.49-0.87-0.49-1.45c0-0.52,0.15-0.98,0.44-1.38c0.29-0.4,0.77-0.79,1.43-1.17c1.21-0.66,2.63-1.19,4.26-1.58
		c1.63-0.4,3.2-0.6,4.73-0.6C663.41,717.27,665.91,718.12,667.55,719.81z M663.11,737.77c1.21-1.3,1.82-2.97,1.82-5.01v-1.35H664
		c-2.7,0-4.78,0.12-6.23,0.36c-1.46,0.24-2.49,0.65-3.12,1.22c-0.62,0.57-0.94,1.39-0.94,2.47c0,1.25,0.45,2.27,1.35,3.07
		c0.9,0.8,2.03,1.2,3.38,1.2C660.34,739.72,661.9,739.07,663.11,737.77z"/>
	<path d="M677.35,741.43c-0.62-0.38-1.07-0.78-1.32-1.2c-0.26-0.42-0.39-0.88-0.39-1.4c0-0.55,0.16-1.02,0.47-1.4
		c0.31-0.38,0.71-0.57,1.2-0.57c0.45,0,1.16,0.28,2.13,0.83c1.04,0.55,2.05,1,3.04,1.35c0.99,0.35,2.23,0.52,3.72,0.52
		c1.66,0,2.96-0.29,3.9-0.88c0.93-0.59,1.4-1.42,1.4-2.49c0-0.69-0.18-1.25-0.55-1.66c-0.36-0.41-1-0.79-1.9-1.12s-2.23-0.68-4-1.07
		c-3.05-0.66-5.24-1.55-6.57-2.68c-1.33-1.12-2-2.66-2-4.6c0-1.49,0.43-2.83,1.3-4.03c0.87-1.2,2.06-2.12,3.59-2.78
		c1.52-0.66,3.25-0.99,5.2-0.99c1.39,0,2.74,0.18,4.05,0.55s2.48,0.89,3.48,1.58c1.14,0.76,1.72,1.64,1.72,2.65
		c0,0.55-0.16,1.02-0.49,1.4c-0.33,0.38-0.72,0.57-1.17,0.57c-0.31,0-0.62-0.07-0.93-0.21c-0.31-0.14-0.73-0.36-1.25-0.67
		c-0.94-0.56-1.81-0.99-2.62-1.3c-0.81-0.31-1.83-0.47-3.04-0.47c-1.46,0-2.62,0.31-3.51,0.94c-0.88,0.62-1.32,1.47-1.32,2.55
		c0,0.97,0.41,1.72,1.22,2.26c0.81,0.54,2.35,1.05,4.6,1.53c2.32,0.48,4.14,1.04,5.46,1.66c1.32,0.63,2.26,1.4,2.83,2.31
		c0.57,0.92,0.86,2.09,0.86,3.51c0,2.25-0.94,4.06-2.83,5.43c-1.89,1.37-4.41,2.05-7.56,2.05
		C682.49,743.61,679.6,742.89,677.35,741.43z"/>
	<path d="M702.5,711.45c-0.59-0.56-0.88-1.28-0.88-2.18c0-0.9,0.29-1.62,0.88-2.15c0.59-0.54,1.38-0.81,2.39-0.81
		c0.97,0,1.76,0.27,2.36,0.81c0.61,0.54,0.91,1.25,0.91,2.15c0,0.9-0.29,1.63-0.88,2.18c-0.59,0.55-1.39,0.83-2.39,0.83
		C703.88,712.28,703.09,712,702.5,711.45z M702.99,742.89c-0.5-0.41-0.75-1.04-0.75-1.87v-21.1c0-0.83,0.25-1.46,0.75-1.9
		c0.5-0.43,1.13-0.65,1.9-0.65c0.76,0,1.38,0.22,1.87,0.65c0.48,0.43,0.73,1.07,0.73,1.9v21.1c0,0.83-0.24,1.46-0.73,1.87
		c-0.49,0.41-1.11,0.62-1.87,0.62C704.13,743.51,703.49,743.3,702.99,742.89z"/>
	<path d="M714.97,741.43c-0.62-0.38-1.07-0.78-1.33-1.2c-0.26-0.42-0.39-0.88-0.39-1.4c0-0.55,0.16-1.02,0.47-1.4
		c0.31-0.38,0.71-0.57,1.2-0.57c0.45,0,1.16,0.28,2.13,0.83c1.04,0.55,2.05,1,3.04,1.35c0.99,0.35,2.23,0.52,3.72,0.52
		c1.66,0,2.96-0.29,3.9-0.88c0.93-0.59,1.4-1.42,1.4-2.49c0-0.69-0.18-1.25-0.55-1.66c-0.36-0.41-1-0.79-1.9-1.12s-2.23-0.68-4-1.07
		c-3.05-0.66-5.24-1.55-6.57-2.68c-1.33-1.12-2-2.66-2-4.6c0-1.49,0.43-2.83,1.3-4.03c0.87-1.2,2.06-2.12,3.59-2.78
		c1.52-0.66,3.25-0.99,5.2-0.99c1.39,0,2.74,0.18,4.05,0.55c1.32,0.36,2.48,0.89,3.48,1.58c1.14,0.76,1.72,1.64,1.72,2.65
		c0,0.55-0.16,1.02-0.49,1.4c-0.33,0.38-0.72,0.57-1.17,0.57c-0.31,0-0.62-0.07-0.93-0.21c-0.31-0.14-0.73-0.36-1.25-0.67
		c-0.94-0.56-1.81-0.99-2.62-1.3c-0.81-0.31-1.83-0.47-3.04-0.47c-1.46,0-2.62,0.31-3.51,0.94c-0.88,0.62-1.32,1.47-1.32,2.55
		c0,0.97,0.41,1.72,1.22,2.26c0.81,0.54,2.35,1.05,4.6,1.53c2.32,0.48,4.14,1.04,5.46,1.66c1.32,0.63,2.26,1.4,2.83,2.31
		c0.57,0.92,0.86,2.09,0.86,3.51c0,2.25-0.94,4.06-2.83,5.43c-1.89,1.37-4.41,2.05-7.56,2.05
		C720.11,743.61,717.22,742.89,714.97,741.43z"/>
	<path d="M740.01,741.43c-0.62-0.38-1.07-0.78-1.32-1.2c-0.26-0.42-0.39-0.88-0.39-1.4c0-0.55,0.16-1.02,0.47-1.4
		c0.31-0.38,0.71-0.57,1.2-0.57c0.45,0,1.16,0.28,2.13,0.83c1.04,0.55,2.05,1,3.04,1.35c0.99,0.35,2.23,0.52,3.72,0.52
		c1.66,0,2.96-0.29,3.9-0.88c0.93-0.59,1.4-1.42,1.4-2.49c0-0.69-0.18-1.25-0.55-1.66c-0.36-0.41-1-0.79-1.9-1.12s-2.23-0.68-4-1.07
		c-3.05-0.66-5.24-1.55-6.57-2.68c-1.33-1.12-2-2.66-2-4.6c0-1.49,0.43-2.83,1.3-4.03c0.87-1.2,2.06-2.12,3.59-2.78
		c1.52-0.66,3.25-0.99,5.2-0.99c1.39,0,2.74,0.18,4.05,0.55c1.32,0.36,2.48,0.89,3.48,1.58c1.14,0.76,1.72,1.64,1.72,2.65
		c0,0.55-0.16,1.02-0.49,1.4c-0.33,0.38-0.72,0.57-1.17,0.57c-0.31,0-0.62-0.07-0.93-0.21c-0.31-0.14-0.73-0.36-1.25-0.67
		c-0.94-0.56-1.81-0.99-2.62-1.3c-0.81-0.31-1.83-0.47-3.04-0.47c-1.46,0-2.62,0.31-3.51,0.94c-0.88,0.62-1.32,1.47-1.32,2.55
		c0,0.97,0.41,1.72,1.22,2.26c0.81,0.54,2.35,1.05,4.6,1.53c2.32,0.48,4.14,1.04,5.46,1.66c1.32,0.63,2.26,1.4,2.83,2.31
		c0.57,0.92,0.86,2.09,0.86,3.51c0,2.25-0.94,4.06-2.83,5.43c-1.89,1.37-4.41,2.05-7.56,2.05
		C745.16,743.61,742.26,742.89,740.01,741.43z"/>
	<path d="M769.29,742c-1.85-1.07-3.29-2.6-4.31-4.57c-1.02-1.98-1.53-4.26-1.53-6.86c0-2.63,0.53-4.95,1.59-6.96
		c1.06-2.01,2.54-3.57,4.44-4.68c1.9-1.11,4.09-1.66,6.55-1.66c1.32,0,2.64,0.19,3.97,0.57c1.33,0.38,2.52,0.9,3.56,1.56
		c1.11,0.76,1.66,1.64,1.66,2.65c0,0.59-0.16,1.08-0.47,1.48c-0.31,0.4-0.71,0.6-1.2,0.6c-0.31,0-0.62-0.08-0.94-0.23
		c-0.31-0.16-0.71-0.39-1.2-0.7c-0.87-0.55-1.67-0.98-2.42-1.27c-0.75-0.3-1.64-0.44-2.68-0.44c-2.36,0-4.18,0.8-5.48,2.39
		c-1.3,1.59-1.95,3.81-1.95,6.65c0,2.84,0.64,5.03,1.92,6.57c1.28,1.54,3.1,2.31,5.46,2.31c1.04,0,1.96-0.16,2.75-0.47
		c0.8-0.31,1.61-0.73,2.44-1.25c0.38-0.24,0.76-0.45,1.14-0.62c0.38-0.17,0.73-0.26,1.04-0.26c0.48,0,0.88,0.2,1.2,0.6
		c0.31,0.4,0.47,0.89,0.47,1.48c0,0.48-0.13,0.93-0.39,1.32c-0.26,0.4-0.7,0.8-1.33,1.22c-1.04,0.69-2.25,1.23-3.64,1.61
		s-2.79,0.57-4.21,0.57C773.3,743.61,771.15,743.08,769.29,742z"/>
	<path d="M812.76,727.5v13.51c0,0.76-0.24,1.37-0.73,1.82c-0.49,0.45-1.13,0.67-1.92,0.67c-0.8,0-1.43-0.23-1.9-0.67
		c-0.47-0.45-0.7-1.06-0.7-1.82v-13.46c0-2.08-0.43-3.6-1.27-4.57c-0.85-0.97-2.17-1.46-3.97-1.46c-2.11,0-3.81,0.66-5.09,1.98
		c-1.28,1.32-1.92,3.08-1.92,5.3v12.21c0,0.76-0.23,1.37-0.7,1.82c-0.47,0.45-1.1,0.67-1.9,0.67c-0.8,0-1.44-0.23-1.92-0.67
		c-0.49-0.45-0.73-1.06-0.73-1.82v-32.16c0-0.76,0.25-1.37,0.75-1.82c0.5-0.45,1.15-0.68,1.95-0.68c0.76,0,1.38,0.22,1.85,0.65
		c0.47,0.43,0.7,1.01,0.7,1.74v12.99c0.87-1.45,2.03-2.56,3.48-3.32c1.45-0.76,3.12-1.14,4.99-1.14
		C809.74,717.27,812.76,720.68,812.76,727.5z"/>
	<path d="M824.37,742c-1.89-1.07-3.34-2.61-4.36-4.6c-1.02-1.99-1.53-4.3-1.53-6.93c0-2.67,0.51-5,1.53-6.99
		c1.02-1.99,2.48-3.53,4.36-4.6c1.89-1.07,4.08-1.61,6.57-1.61c2.49,0,4.68,0.54,6.57,1.61c1.89,1.07,3.34,2.61,4.37,4.6
		c1.02,1.99,1.53,4.32,1.53,6.99c0,2.63-0.51,4.94-1.53,6.93c-1.02,1.99-2.48,3.53-4.37,4.6c-1.89,1.07-4.08,1.61-6.57,1.61
		C828.45,743.61,826.26,743.08,824.37,742z M836.27,737.17c1.23-1.52,1.85-3.76,1.85-6.7c0-2.91-0.62-5.14-1.87-6.68
		c-1.25-1.54-3.01-2.31-5.3-2.31c-2.29,0-4.05,0.77-5.3,2.31c-1.25,1.54-1.87,3.77-1.87,6.68c0,2.94,0.61,5.18,1.85,6.7
		c1.23,1.53,3.01,2.29,5.33,2.29C833.26,739.45,835.04,738.69,836.27,737.17z"/>
	<path d="M853.68,742c-1.89-1.07-3.34-2.61-4.36-4.6c-1.02-1.99-1.53-4.3-1.53-6.93c0-2.67,0.51-5,1.53-6.99
		c1.02-1.99,2.48-3.53,4.36-4.6c1.89-1.07,4.08-1.61,6.57-1.61c2.49,0,4.68,0.54,6.57,1.61c1.89,1.07,3.34,2.61,4.37,4.6
		c1.02,1.99,1.53,4.32,1.53,6.99c0,2.63-0.51,4.94-1.53,6.93c-1.02,1.99-2.48,3.53-4.37,4.6c-1.89,1.07-4.08,1.61-6.57,1.61
		C857.76,743.61,855.56,743.08,853.68,742z M865.58,737.17c1.23-1.52,1.85-3.76,1.85-6.7c0-2.91-0.62-5.14-1.87-6.68
		c-1.25-1.54-3.01-2.31-5.3-2.31s-4.05,0.77-5.3,2.31c-1.25,1.54-1.87,3.77-1.87,6.68c0,2.94,0.61,5.18,1.85,6.7
		c1.23,1.53,3.01,2.29,5.33,2.29C862.57,739.45,864.35,738.69,865.58,737.17z"/>
	<path d="M879.3,742.89c-0.5-0.41-0.76-1.04-0.76-1.87V708.9c0-0.83,0.25-1.46,0.76-1.89c0.5-0.43,1.13-0.65,1.89-0.65
		c0.76,0,1.39,0.22,1.87,0.65c0.48,0.43,0.73,1.07,0.73,1.89v32.11c0,0.83-0.24,1.46-0.73,1.87c-0.48,0.41-1.11,0.62-1.87,0.62
		C880.43,743.51,879.8,743.3,879.3,742.89z"/>
</g>
<path d="M501.72,1028.89c-11.71,0.51-21.8,8.71-23.59,19.93c-0.56,3.38-15.1,84.97-93.37,89.16c-0.37,0.02-0.74,0.04-1.11,0.05
	c-75.59,3.27-91.54-76.41-92.19-79.83c-2.38-12.58-15.21-21.01-28.75-18.73c-13.51,2.25-22.6,14.22-20.32,26.82
	c7.75,42.84,47.65,122.28,143.17,118.15c0.58-0.03,1.16-0.05,1.74-0.08c95.38-5.11,133.32-86.61,140.06-129
	c2.02-12.7-7.37-24.47-20.96-26.27C504.83,1028.89,503.27,1028.83,501.72,1028.89"/>
</svg>
