<?xml version="1.0" encoding="utf-8"?>
<!-- Generator: Adobe Illustrator 23.0.2, SVG Export Plug-In . SVG Version: 6.00 Build 0)  -->
<svg version="1.1" id="Laag_1" xmlns="http://www.w3.org/2000/svg" xmlns:xlink="http://www.w3.org/1999/xlink" x="0px" y="0px"
	 viewBox="0 0 1263.75 1561.3" style="enable-background:new 0 0 1263.75 1561.3;" xml:space="preserve">
<style type="text/css">
	.st0{fill:#FFFFFF;}
	.st1{fill:#222221;}
	.st2{fill:#222221;stroke:#222221;stroke-width:0.75;stroke-miterlimit:10;}
	.st3{fill:#B7B7B7;}
	.st4{fill:none;stroke:#000000;stroke-miterlimit:10;}
	.st5{fill:#E9F91D;}
</style>
<g>
	<path d="M214.25,1355.18c-0.45-0.37-0.9-0.74-1.35-1.1c-52.68-42.53-109.63-32.5-150.34-11.57c0.12,21.52,0.19,41.4,0.22,59.04
		c17.98-14.21,70.13-48.05,118.91-8.67c0.28,0.23,0.57,0.46,0.86,0.7c35.52,29.32,36.21,68.61,30.39,96.7
		c17.01,0.61,33.77,1.19,50.27,1.75C269.93,1448.51,262.51,1395.03,214.25,1355.18z"/>
	<path d="M909.97,783.24c0.2-0.31,0.4-0.62,0.6-0.93c42.69-65.74,125.57-34.57,128.99-33.25c11.3,4.47,23.91,0.11,30.18-9.79
		c0.83-1.3,1.54-2.7,2.13-4.19c5.07-12.78-1.19-27.25-13.98-32.31c-42.66-16.9-137.07-27.68-189.09,52.42
		c-0.32,0.49-0.63,0.98-0.94,1.47c-15.58,24.58-21.41,48.84-20.99,71.54c16.56,0.27,33.25,0.6,50.04,0.99
		C896.35,814.82,899.81,799.26,909.97,783.24z"/>
	<path d="M437.81,344.3c0.43-0.75,0.85-1.49,1.26-2.23c57.6-102.92,6.65-196.28-43.73-247.65l-75.54,30.65
		c1.23,1.23,2.55,2.4,3.99,3.47c4.36,3.28,105.68,81,51.43,177.94c-0.26,0.47-0.53,0.95-0.8,1.42
		c-39.84,69.38-111.9,71.66-153.86,66.04c2.02,26.22,3.43,50.91,4.29,74.13C294.2,453.64,385.49,435.41,437.81,344.3z"/>
	<path d="M1065.7,265.96c0.34,0.48,0.68,0.94,1.03,1.41c25.43,34.4,57.8,48.93,89.46,52.45c2.16-17.6,4.49-34.19,6.82-49.42
		c-19.59-2.01-40.02-10.67-56.3-32.69c-0.22-0.29-0.44-0.59-0.65-0.89c-24.83-34.39-18.95-69.5-7.93-94.92l-46.24-18.41
		C1035.17,163.62,1029.75,216.17,1065.7,265.96z"/>
	<path d="M1074.72,1339.49c-0.21,0.39-0.42,0.79-0.64,1.18c-45.54,82.96-148.13,52.81-152.36,51.52c-14.01-4.38-28.8,2-35.47,14.48
		c-0.88,1.64-1.61,3.39-2.19,5.23c-4.96,15.84,3.86,32.7,19.71,37.66c52.87,16.55,167.51,21.13,223.01-79.96
		c0.34-0.62,0.67-1.23,1-1.85c17.93-33.53,22.17-65.6,18.14-94.69c-20.27-1.03-40.94-1.93-61.91-2.73
		C1089.19,1290.72,1088.24,1314.21,1074.72,1339.49z"/>
	<path d="M365.48,1031.5c-0.37,0.02-0.74,0.04-1.11,0.05c-47.26,2.04-71.2-28.33-82.67-52.23c-17.65,1-35.1,2.1-52.31,3.32
		c15.64,43.25,56.63,98.79,136.9,95.32c0.58-0.03,1.16-0.05,1.74-0.08c79.96-4.28,119.55-62.26,134.23-105.87
		c-17.87,0.24-35.72,0.55-53.5,0.94C437.12,997.76,413.09,1028.95,365.48,1031.5z"/>
</g>
<g>
	<path d="M726.59,412.32c-5.57,0.63-11.15,2.14-16.57,4.47c21.24,21.95,27.43,51.76,27.81,53.7c1.47,7.72,8.22,13.1,15.8,13.1
		c1,0,2.01-0.09,3.02-0.29c8.74-1.66,14.47-10.09,12.81-18.83c-2.55-13.44-8.88-31.47-19.78-48.69l-0.81-0.31
		C741.62,412.71,734.11,411.64,726.59,412.32z"/>
	<path d="M714.49,378.98c-15.7-10.46-35.1-17.42-58.77-17.68c-0.46-0.01-0.9-0.01-1.35-0.01c-74.52,0-102.94,67.99-107.55,104.15
		c-1.12,8.82,5.12,16.89,13.94,18.01c8.83,1.13,16.88-5.12,18.01-13.94c0.02-0.2,2.8-20.08,13.92-39.37
		c14.19-24.61,35.2-36.89,62.68-36.64c7.58,0.08,14.46,1.15,20.76,2.89l0.44-0.33C688.06,387.52,700.82,381.78,714.49,378.98z"/>
	<path d="M640.26,465.5c-0.53,3.36,0.28,6.73,2.29,9.48c2.01,2.75,4.96,4.56,8.32,5.09c7.07,1.1,13.49-3.72,14.58-10.61
		c4.01-25.47,19.86-46.39,40.96-56.19c-6.79-6.21-14.95-11.55-24.71-15.11C660.19,413.17,644.7,437.28,640.26,465.5z"/>
	<path d="M797.25,415.54c-16.42-21.37-40.8-33.61-66.31-33.61c-2.4,0-4.81,0.11-7.23,0.33l-0.27,0.03c-1.2,0.13-2.4,0.3-3.59,0.48
		c10.2,7.73,18.68,16.94,25.59,26.65c12.16,3.35,23.27,10.83,31.59,21.65c4.28,5.57,12.3,6.62,17.88,2.34
		c2.7-2.07,4.43-5.08,4.88-8.45C800.22,421.59,799.32,418.24,797.25,415.54z"/>
	<path d="M719.85,382.77c-13.9,2.12-26.85,7.5-38.15,15.39c9.77,3.56,17.92,8.9,24.71,15.11c6.18-2.87,12.79-4.84,19.71-5.62
		c6.56-0.59,13.08,0.06,19.32,1.78C738.53,399.71,730.05,390.5,719.85,382.77z"/>
</g>
<g>
	<g>
		<path d="M487.82,501.8v44.32h19.57c1.99,0,3.52,0.48,4.59,1.45c1.07,0.97,1.6,2.19,1.6,3.65c0,1.5-0.53,2.71-1.58,3.64
			c-1.05,0.93-2.59,1.39-4.61,1.39h-24.35c-2.69,0-4.62-0.59-5.79-1.79c-1.18-1.19-1.77-3.11-1.77-5.77V501.8
			c0-2.49,0.56-4.36,1.68-5.61c1.12-1.25,2.6-1.87,4.42-1.87c1.85,0,3.36,0.62,4.51,1.85C487.24,497.4,487.82,499.28,487.82,501.8z"
			/>
		<path d="M507.39,557.26h-24.35c-2.95,0-5.14-0.7-6.51-2.09c-1.36-1.38-2.05-3.56-2.05-6.48V501.8c0-2.74,0.65-4.85,1.94-6.28
			c1.32-1.46,3.06-2.2,5.17-2.2c2.14,0,3.9,0.73,5.24,2.17c1.32,1.42,1.99,3.54,1.99,6.31v43.31h18.57c2.24,0,4.01,0.58,5.27,1.71
			c1.28,1.16,1.93,2.64,1.93,4.4c0,1.79-0.64,3.26-1.92,4.39C511.43,556.7,509.65,557.26,507.39,557.26z M481.59,495.33
			c-1.54,0-2.74,0.5-3.67,1.54c-0.94,1.05-1.42,2.71-1.42,4.93v46.89c0,2.37,0.5,4.07,1.47,5.06c0.98,0.99,2.68,1.49,5.08,1.49
			h24.35c1.76,0,3.09-0.38,3.94-1.14c0.83-0.74,1.24-1.68,1.24-2.88c0-1.18-0.42-2.13-1.27-2.91c-0.87-0.79-2.18-1.19-3.91-1.19
			h-20.58V501.8c0-2.24-0.49-3.91-1.45-4.94C484.4,495.83,483.16,495.33,481.59,495.33z"/>
	</g>
	<g>
		<path d="M566.82,534.24c0,3.38-0.53,6.49-1.58,9.34c-1.05,2.85-2.58,5.3-4.57,7.35s-4.38,3.62-7.14,4.71
			c-2.77,1.09-5.88,1.64-9.34,1.64c-3.43,0-6.52-0.55-9.26-1.66c-2.74-1.11-5.12-2.69-7.12-4.75c-2.01-2.06-3.53-4.5-4.57-7.31
			c-1.04-2.81-1.56-5.92-1.56-9.32c0-3.43,0.53-6.58,1.58-9.43c1.05-2.85,2.56-5.29,4.53-7.31c1.97-2.02,4.35-3.58,7.14-4.67
			c2.8-1.1,5.88-1.64,9.26-1.64c3.43,0,6.55,0.55,9.34,1.66c2.8,1.11,5.19,2.69,7.19,4.73c1.99,2.05,3.51,4.49,4.55,7.31
			C566.31,527.71,566.82,530.83,566.82,534.24z M555.44,534.24c0-4.62-1.02-8.22-3.05-10.8c-2.03-2.58-4.77-3.86-8.2-3.86
			c-2.22,0-4.17,0.58-5.86,1.73c-1.69,1.15-2.99,2.84-3.9,5.09c-0.91,2.24-1.37,4.86-1.37,7.85c0,2.96,0.45,5.55,1.35,7.77
			c0.9,2.22,2.19,3.91,3.86,5.09c1.68,1.18,3.65,1.77,5.92,1.77c3.43,0,6.17-1.29,8.2-3.88
			C554.43,542.38,555.44,538.81,555.44,534.24z"/>
		<path d="M544.19,558.29c-3.55,0-6.79-0.58-9.64-1.74c-2.85-1.15-5.36-2.83-7.47-4.98c-2.1-2.15-3.71-4.73-4.79-7.66
			c-1.07-2.91-1.62-6.17-1.62-9.67c0-3.54,0.55-6.83,1.64-9.78c1.1-2.97,2.69-5.55,4.75-7.66c2.06-2.11,4.58-3.77,7.5-4.91
			c2.9-1.14,6.14-1.71,9.63-1.71c3.54,0,6.81,0.58,9.72,1.73c2.92,1.16,5.45,2.83,7.53,4.97c2.09,2.15,3.69,4.72,4.77,7.67
			c1.07,2.92,1.62,6.18,1.62,9.69c0,3.48-0.55,6.74-1.64,9.69c-1.1,2.97-2.71,5.56-4.79,7.7c-2.09,2.14-4.61,3.81-7.5,4.95
			C551.03,557.72,547.76,558.29,544.19,558.29z M544.19,512.19c-3.24,0-6.23,0.53-8.89,1.57c-2.65,1.04-4.93,2.53-6.79,4.44
			c-1.86,1.91-3.31,4.25-4.31,6.96c-1.01,2.73-1.51,5.78-1.51,9.08c0,3.27,0.5,6.29,1.5,8.98c0.99,2.67,2.45,5.01,4.35,6.96
			c1.91,1.95,4.19,3.48,6.78,4.52c2.61,1.05,5.6,1.59,8.89,1.59c3.32,0,6.34-0.53,8.98-1.57c2.62-1.04,4.91-2.54,6.79-4.48
			c1.88-1.94,3.35-4.29,4.35-7c1.01-2.73,1.51-5.75,1.51-9c0-3.27-0.5-6.3-1.5-9c-0.98-2.67-2.44-5.01-4.32-6.96
			c-1.88-1.93-4.18-3.45-6.83-4.5C550.5,512.73,547.48,512.19,544.19,512.19z M544.19,549.86c-2.47,0-4.66-0.66-6.5-1.95
			c-1.83-1.29-3.25-3.15-4.22-5.53c-0.94-2.32-1.42-5.06-1.42-8.14c0-3.11,0.49-5.88,1.45-8.23c0.99-2.42,2.42-4.28,4.27-5.54
			c1.85-1.26,4.01-1.9,6.42-1.9c3.74,0,6.77,1.43,8.99,4.25c2.17,2.74,3.27,6.59,3.27,11.42c0,4.78-1.1,8.6-3.27,11.36
			C550.96,548.43,547.93,549.86,544.19,549.86z M544.19,520.58c-2,0-3.78,0.52-5.29,1.55c-1.51,1.03-2.7,2.59-3.54,4.63
			c-0.86,2.11-1.3,4.62-1.3,7.47c0,2.82,0.43,5.31,1.28,7.39c0.82,2.02,2,3.58,3.51,4.64c1.52,1.06,3.26,1.58,5.34,1.58
			c3.14,0,5.56-1.14,7.41-3.5c1.88-2.4,2.84-5.8,2.84-10.11c0-4.37-0.95-7.79-2.84-10.17C549.75,521.72,547.33,520.58,544.19,520.58
			z"/>
	</g>
	<g>
		<path d="M620.07,534.18c0,3.38-0.53,6.49-1.58,9.34c-1.05,2.85-2.58,5.3-4.57,7.35c-1.99,2.05-4.38,3.62-7.14,4.71
			c-2.77,1.09-5.88,1.64-9.34,1.64c-3.43,0-6.52-0.55-9.26-1.66c-2.74-1.11-5.12-2.69-7.12-4.75c-2.01-2.06-3.53-4.5-4.57-7.31
			c-1.04-2.81-1.56-5.92-1.56-9.32c0-3.43,0.53-6.58,1.58-9.43c1.05-2.85,2.56-5.29,4.53-7.31c1.97-2.02,4.35-3.58,7.14-4.67
			c2.8-1.1,5.88-1.64,9.26-1.64c3.43,0,6.55,0.55,9.34,1.66c2.8,1.11,5.19,2.69,7.19,4.73c1.99,2.05,3.51,4.49,4.55,7.31
			C619.55,527.66,620.07,530.78,620.07,534.18z M608.69,534.18c0-4.62-1.02-8.22-3.05-10.8c-2.03-2.58-4.77-3.86-8.2-3.86
			c-2.22,0-4.17,0.58-5.86,1.73c-1.69,1.15-2.99,2.84-3.9,5.09c-0.91,2.24-1.37,4.86-1.37,7.85c0,2.96,0.45,5.55,1.35,7.77
			c0.9,2.22,2.19,3.91,3.86,5.09c1.68,1.18,3.65,1.77,5.92,1.77c3.43,0,6.17-1.29,8.2-3.88
			C607.67,542.33,608.69,538.75,608.69,534.18z"/>
		<path d="M597.43,558.24c-3.54,0-6.79-0.58-9.64-1.73c-2.86-1.15-5.37-2.83-7.47-4.99c-2.09-2.15-3.7-4.73-4.79-7.66
			c-1.07-2.91-1.62-6.17-1.62-9.68c0-3.54,0.55-6.83,1.64-9.78c1.09-2.97,2.69-5.55,4.75-7.66s4.58-3.77,7.5-4.91
			c2.9-1.14,6.14-1.71,9.63-1.71c3.54,0,6.81,0.58,9.71,1.73c2.92,1.16,5.45,2.83,7.54,4.97c2.09,2.14,3.69,4.72,4.77,7.67
			c1.07,2.92,1.62,6.18,1.62,9.69c0,3.48-0.55,6.74-1.64,9.69c-1.1,2.97-2.71,5.56-4.79,7.7c-2.08,2.14-4.6,3.81-7.5,4.95
			C604.27,557.66,601.01,558.24,597.43,558.24z M597.43,512.14c-3.24,0-6.23,0.53-8.89,1.57c-2.65,1.04-4.93,2.53-6.79,4.44
			c-1.86,1.91-3.31,4.25-4.3,6.95c-1.01,2.72-1.52,5.78-1.52,9.08c0,3.27,0.5,6.29,1.49,8.98c0.99,2.67,2.45,5.01,4.35,6.96
			c1.9,1.95,4.18,3.47,6.78,4.52c2.61,1.05,5.6,1.59,8.88,1.59c3.32,0,6.34-0.53,8.98-1.57c2.62-1.04,4.91-2.54,6.79-4.48
			c1.89-1.94,3.35-4.29,4.35-7c1.01-2.72,1.52-5.75,1.52-9c0-3.28-0.5-6.3-1.5-9c-0.98-2.68-2.44-5.02-4.32-6.96
			c-1.88-1.93-4.18-3.45-6.83-4.5C603.74,512.67,600.72,512.14,597.43,512.14z M597.43,549.81c-2.47,0-4.65-0.66-6.5-1.95
			c-1.83-1.28-3.25-3.15-4.22-5.53c-0.94-2.32-1.42-5.07-1.42-8.14c0-3.11,0.49-5.88,1.45-8.23c0.99-2.42,2.42-4.28,4.27-5.54
			c1.85-1.26,4.01-1.9,6.42-1.9c3.74,0,6.77,1.43,8.99,4.25c2.17,2.74,3.27,6.59,3.27,11.42c0,4.78-1.1,8.6-3.27,11.36
			C604.2,548.37,601.18,549.81,597.43,549.81z M597.43,520.53c-2,0-3.78,0.52-5.29,1.55c-1.52,1.03-2.7,2.59-3.54,4.63
			c-0.86,2.11-1.3,4.62-1.3,7.47c0,2.82,0.43,5.3,1.28,7.39c0.82,2.02,2,3.59,3.51,4.64c1.5,1.05,3.29,1.58,5.34,1.58
			c3.14,0,5.56-1.14,7.41-3.5c1.88-2.4,2.84-5.8,2.84-10.11c0-4.37-0.95-7.79-2.84-10.17C603,521.67,600.57,520.53,597.43,520.53z"
			/>
	</g>
	<g>
		<path d="M638.81,517.54v1.37c2.12-2.63,4.32-4.56,6.6-5.79c2.28-1.23,4.87-1.85,7.75-1.85c3.46,0,6.65,0.9,9.57,2.7
			c2.91,1.8,5.22,4.43,6.91,7.89c1.69,3.46,2.54,7.56,2.54,12.29c0,3.49-0.49,6.69-1.46,9.61c-0.98,2.92-2.32,5.37-4.02,7.35
			c-1.71,1.98-3.72,3.5-6.04,4.57c-2.32,1.06-4.82,1.6-7.49,1.6c-3.22,0-5.92-0.65-8.1-1.95c-2.19-1.3-4.27-3.21-6.25-5.73v17.03
			c0,4.98-1.8,7.48-5.4,7.48c-2.12,0-3.52-0.64-4.21-1.93c-0.69-1.29-1.03-3.16-1.03-5.63v-48.93c0-2.16,0.47-3.77,1.4-4.84
			c0.93-1.07,2.21-1.6,3.84-1.6c1.59,0,2.89,0.55,3.9,1.64C638.31,513.92,638.81,515.49,638.81,517.54z M660.87,534.03
			c0-2.99-0.45-5.56-1.36-7.7s-2.16-3.79-3.77-4.94c-1.61-1.15-3.39-1.73-5.34-1.73c-3.11,0-5.73,1.23-7.86,3.7
			c-2.13,2.47-3.2,6.09-3.2,10.88c0,4.51,1.06,8.02,3.18,10.53c2.12,2.51,4.74,3.76,7.88,3.76c1.87,0,3.6-0.55,5.2-1.64
			c1.59-1.1,2.87-2.74,3.84-4.92C660.39,539.78,660.87,537.13,660.87,534.03z"/>
		<path d="M633.41,575.11c-2.51,0-4.22-0.83-5.1-2.47c-0.77-1.44-1.15-3.44-1.15-6.1v-48.93c0-2.4,0.56-4.25,1.65-5.5
			c1.13-1.29,2.67-1.94,4.59-1.94c1.88,0,3.44,0.66,4.64,1.97c0.95,1.04,1.53,2.44,1.71,4.16c1.67-1.75,3.41-3.12,5.18-4.07
			c2.42-1.31,5.19-1.97,8.23-1.97c3.64,0,7.03,0.96,10.1,2.85c3.07,1.89,5.51,4.69,7.28,8.31c1.75,3.58,2.64,7.87,2.64,12.74
			c0,3.58-0.51,6.92-1.51,9.93c-1.02,3.03-2.43,5.62-4.21,7.69c-1.8,2.08-3.94,3.71-6.38,4.83c-2.45,1.12-5.11,1.69-7.91,1.69
			c-3.39,0-6.28-0.7-8.62-2.09c-1.63-0.97-3.21-2.27-4.73-3.88v14.31C639.81,573.64,636.33,575.11,633.41,575.11z M633.41,512.19
			c-1.33,0-2.34,0.41-3.08,1.26c-0.77,0.87-1.15,2.28-1.15,4.18v48.93c0,2.29,0.31,4.02,0.91,5.15c0.18,0.35,0.75,1.4,3.32,1.4
			c1.89,0,4.4-0.67,4.4-6.47v-19.94l1.8,2.29c1.89,2.41,3.9,4.26,5.97,5.49c2.02,1.2,4.57,1.81,7.59,1.81
			c2.51,0,4.88-0.51,7.07-1.51c2.18-1,4.09-2.45,5.7-4.31c1.61-1.87,2.9-4.23,3.83-7.01c0.94-2.8,1.41-5.93,1.41-9.29
			c0-4.56-0.82-8.55-2.43-11.85c-1.6-3.27-3.8-5.79-6.53-7.48c-2.74-1.69-5.78-2.55-9.04-2.55c-2.7,0-5.15,0.58-7.27,1.73
			c-2.15,1.16-4.27,3.03-6.29,5.54l-1.79,2.22v-4.23c0-1.78-0.42-3.14-1.24-4.03C635.75,512.62,634.72,512.19,633.41,512.19z
			 M650.4,549.53c-3.43,0-6.34-1.39-8.65-4.12c-2.26-2.68-3.41-6.44-3.41-11.18c0-5.02,1.16-8.9,3.44-11.54
			c2.32-2.69,5.22-4.05,8.62-4.05c2.16,0,4.15,0.64,5.93,1.91c1.75,1.25,3.14,3.06,4.12,5.37c0.96,2.26,1.44,4.99,1.44,8.1
			c0,3.23-0.51,6.03-1.53,8.34c-1.03,2.35-2.44,4.15-4.19,5.35C654.41,548.92,652.47,549.53,650.4,549.53z M650.4,520.66
			c-2.83,0-5.15,1.1-7.1,3.35c-1.96,2.27-2.95,5.71-2.95,10.22c0,4.25,0.99,7.57,2.94,9.88c1.94,2.29,4.26,3.4,7.11,3.4
			c1.68,0,3.19-0.48,4.63-1.46c1.43-0.98,2.6-2.5,3.48-4.5c0.9-2.05,1.36-4.58,1.36-7.53c0-2.84-0.43-5.3-1.28-7.31
			c-0.83-1.96-1.98-3.48-3.43-4.51C653.72,521.18,652.13,520.66,650.4,520.66z"/>
	</g>
	<g>
		<path d="M690.99,500.8v17.32c2.13-2.22,4.3-3.91,6.52-5.09c2.21-1.18,4.96-1.77,8.22-1.77c3.76,0,7.07,0.89,9.91,2.68
			c2.84,1.79,5.04,4.38,6.6,7.77c1.56,3.39,2.35,7.41,2.35,12.06c0,3.44-0.44,6.58-1.31,9.45c-0.87,2.86-2.14,5.35-3.8,7.45
			s-3.67,3.73-6.04,4.88c-2.37,1.15-4.98,1.72-7.83,1.72c-1.74,0-3.39-0.21-4.92-0.62c-1.54-0.42-2.85-0.96-3.93-1.64
			c-1.08-0.68-2-1.38-2.76-2.1c-0.76-0.72-1.76-1.8-3.01-3.24v1.12c0,2.13-0.51,3.75-1.54,4.84c-1.02,1.09-2.33,1.64-3.9,1.64
			c-1.61,0-2.89-0.55-3.84-1.64c-0.95-1.09-1.43-2.71-1.43-4.84V501.3c0-2.3,0.46-4.04,1.39-5.21c0.93-1.18,2.22-1.77,3.88-1.77
			c1.74,0,3.09,0.56,4.03,1.68C690.52,497.13,690.99,498.72,690.99,500.8z M691.53,534.49c0,4.51,1.03,7.98,3.09,10.4
			c2.06,2.42,4.77,3.63,8.12,3.63c2.85,0,5.31-1.24,7.37-3.72c2.06-2.48,3.09-6.03,3.09-10.65c0-2.99-0.43-5.57-1.29-7.73
			c-0.86-2.16-2.08-3.83-3.65-5.01c-1.58-1.18-3.42-1.77-5.52-1.77c-2.16,0-4.08,0.59-5.77,1.77c-1.69,1.18-3.02,2.88-3.99,5.11
			C692.01,528.76,691.53,531.41,691.53,534.49z"/>
		<path d="M705.61,558.29c-1.83,0-3.57-0.22-5.18-0.66c-1.62-0.44-3.03-1.03-4.2-1.76c-1.14-0.72-2.12-1.47-2.92-2.22
			c-0.4-0.38-0.86-0.85-1.39-1.42c-0.2,1.71-0.78,3.09-1.73,4.1c-1.22,1.3-2.78,1.96-4.64,1.96c-1.9,0-3.45-0.67-4.6-1.99
			c-1.12-1.28-1.68-3.13-1.68-5.5V501.3c0-2.52,0.54-4.48,1.61-5.83c1.12-1.43,2.7-2.15,4.67-2.15c2.05,0,3.66,0.69,4.8,2.04
			c1.09,1.31,1.65,3.14,1.65,5.44v14.94c1.65-1.49,3.34-2.7,5.04-3.6c2.35-1.25,5.28-1.88,8.7-1.88c3.94,0,7.45,0.95,10.44,2.83
			c2.99,1.89,5.34,4.64,6.98,8.2c1.62,3.51,2.44,7.71,2.44,12.49c0,3.51-0.45,6.79-1.35,9.74c-0.91,2.98-2.24,5.6-3.97,7.79
			c-1.75,2.21-3.9,3.95-6.39,5.16C711.38,557.68,708.6,558.29,705.61,558.29z M689.98,546.99l1.77,2.04c1.21,1.4,2.2,2.47,2.94,3.17
			c0.7,0.67,1.58,1.33,2.61,1.98c0.99,0.62,2.22,1.13,3.65,1.52c1.44,0.39,3.01,0.59,4.66,0.59c2.69,0,5.17-0.55,7.39-1.62
			c2.22-1.08,4.13-2.62,5.69-4.6c1.57-1.99,2.79-4.39,3.63-7.12c0.84-2.76,1.26-5.84,1.26-9.16c0-4.48-0.76-8.4-2.25-11.64
			c-1.47-3.2-3.57-5.66-6.23-7.34c-2.66-1.68-5.82-2.53-9.37-2.53c-3.08,0-5.69,0.55-7.75,1.65c-2.11,1.12-4.22,2.77-6.27,4.9
			l-1.73,1.8V500.8c0-1.82-0.4-3.22-1.18-4.15c-0.75-0.89-1.81-1.32-3.26-1.32c-1.35,0-2.36,0.45-3.09,1.38
			c-0.78,0.99-1.18,2.53-1.18,4.59v49.51c0,1.87,0.4,3.28,1.18,4.18c0.76,0.87,1.77,1.3,3.08,1.3c1.3,0,2.34-0.43,3.17-1.32
			c0.84-0.9,1.27-2.29,1.27-4.15V546.99z M702.74,549.53c-3.64,0-6.63-1.34-8.89-3.99c-2.21-2.6-3.33-6.32-3.33-11.06
			c0-3.2,0.52-6.01,1.54-8.35c1.04-2.39,2.5-4.26,4.33-5.53c3.67-2.56,8.94-2.62,12.47,0.02c1.72,1.28,3.06,3.11,3.99,5.44
			c0.9,2.27,1.36,4.99,1.36,8.1c0,4.84-1.12,8.65-3.33,11.3C708.63,548.16,705.89,549.53,702.74,549.53z M702.74,520.66
			c-1.94,0-3.69,0.53-5.2,1.58c-1.53,1.06-2.75,2.64-3.64,4.69c-0.91,2.09-1.37,4.63-1.37,7.55c0,4.24,0.96,7.53,2.85,9.75
			c1.88,2.21,4.28,3.28,7.35,3.28c2.56,0,4.72-1.1,6.6-3.35c1.9-2.28,2.86-5.65,2.86-10.01c0-2.85-0.41-5.32-1.22-7.35
			c-0.78-1.98-1.9-3.51-3.32-4.57C706.25,521.18,704.64,520.66,702.74,520.66z"/>
	</g>
	<g>
		<path d="M744.03,540.92v9.47c0,2.3-0.54,4.02-1.62,5.17s-2.45,1.72-4.11,1.72c-1.63,0-2.98-0.58-4.03-1.74
			c-1.05-1.16-1.58-2.88-1.58-5.15v-31.57c0-5.09,1.84-7.64,5.52-7.64c1.88,0,3.24,0.6,4.07,1.79c0.83,1.19,1.29,2.95,1.37,5.27
			c1.36-2.33,2.75-4.08,4.17-5.27c1.43-1.19,3.33-1.79,5.71-1.79c2.38,0,4.69,0.6,6.94,1.79c2.24,1.19,3.36,2.77,3.36,4.73
			c0,1.39-0.48,2.53-1.43,3.43c-0.96,0.9-1.99,1.35-3.09,1.35c-0.42,0-1.42-0.25-3.01-0.77c-1.59-0.51-3-0.77-4.21-0.77
			c-1.66,0-3.02,0.44-4.07,1.31c-1.05,0.87-1.87,2.17-2.45,3.88c-0.58,1.72-0.98,3.76-1.2,6.13
			C744.14,534.63,744.03,537.52,744.03,540.92z"/>
		<path d="M738.3,558.29c-1.92,0-3.53-0.7-4.78-2.08c-1.22-1.35-1.84-3.31-1.84-5.83v-31.57c0-7.15,3.55-8.65,6.53-8.65
			c2.22,0,3.87,0.75,4.9,2.22c0.55,0.8,0.96,1.77,1.22,2.96c0.93-1.29,1.89-2.34,2.86-3.15c1.61-1.34,3.75-2.02,6.36-2.02
			c2.53,0,5.03,0.64,7.41,1.91c2.59,1.37,3.9,3.26,3.9,5.62c0,1.67-0.59,3.06-1.75,4.16c-1.15,1.08-2.42,1.62-3.78,1.62
			c-0.37,0-1.07-0.09-3.32-0.82c-3.38-1.09-5.78-0.93-7.34,0.36c-0.9,0.75-1.62,1.9-2.14,3.43c-0.55,1.64-0.94,3.62-1.15,5.9
			c-0.22,2.32-0.33,5.2-0.33,8.56v9.47c0,2.55-0.64,4.52-1.89,5.86C741.87,557.61,740.24,558.29,738.3,558.29z M738.21,512.19
			c-1.94,0-4.52,0.69-4.52,6.64v31.57c0,2,0.44,3.51,1.32,4.48c0.86,0.95,1.93,1.41,3.28,1.41c1.38,0,2.49-0.46,3.38-1.41
			c0.89-0.95,1.35-2.46,1.35-4.48v-9.47c0-3.43,0.11-6.38,0.34-8.75c0.23-2.43,0.65-4.57,1.25-6.36c0.64-1.89,1.57-3.34,2.76-4.34
			c2.1-1.74,5.16-2.04,9.24-0.72c2.13,0.68,2.62,0.72,2.7,0.72c0.85,0,1.63-0.35,2.4-1.07c0.75-0.71,1.12-1.59,1.12-2.69
			c0-1.58-0.93-2.84-2.83-3.85c-4.1-2.18-9.01-2.21-11.53-0.12c-1.33,1.11-2.66,2.8-3.95,5.01l-1.75,3l-0.12-3.47
			c-0.08-2.12-0.48-3.71-1.19-4.73C740.82,512.64,739.76,512.19,738.21,512.19z"/>
	</g>
	<g>
		<path d="M801.72,550.75v-1.45c-1.36,1.72-2.78,3.16-4.28,4.32c-1.5,1.16-3.13,2.03-4.9,2.6c-1.77,0.57-3.79,0.85-6.06,0.85
			c-2.74,0-5.2-0.57-7.37-1.7c-2.17-1.14-3.86-2.7-5.05-4.69c-1.41-2.41-2.12-5.87-2.12-10.38v-22.47c0-2.27,0.51-3.97,1.54-5.09
			c1.02-1.12,2.38-1.68,4.07-1.68c1.72,0,3.1,0.57,4.15,1.7c1.05,1.14,1.58,2.82,1.58,5.07v18.15c0,2.63,0.22,4.84,0.66,6.63
			c0.44,1.78,1.24,3.18,2.39,4.19c1.15,1.01,2.71,1.52,4.67,1.52c1.91,0,3.71-0.57,5.4-1.7c1.69-1.13,2.92-2.62,3.7-4.44
			c0.64-1.61,0.96-5.12,0.96-10.55v-13.79c0-2.24,0.53-3.93,1.58-5.07c1.05-1.14,2.42-1.7,4.11-1.7c1.69,0,3.05,0.56,4.07,1.68
			c1.02,1.12,1.54,2.82,1.54,5.09v32.85c0,2.16-0.49,3.78-1.47,4.86c-0.98,1.08-2.25,1.62-3.8,1.62c-1.55,0-2.83-0.56-3.84-1.68
			C802.22,554.34,801.72,552.77,801.72,550.75z"/>
		<path d="M807.07,558.15c-1.84,0-3.38-0.68-4.59-2.01c-0.97-1.07-1.54-2.48-1.72-4.21c-0.88,0.93-1.78,1.76-2.71,2.48
			c-1.58,1.23-3.33,2.16-5.21,2.76c-1.87,0.6-4.01,0.9-6.37,0.9c-2.89,0-5.53-0.61-7.84-1.82c-2.33-1.22-4.16-2.93-5.45-5.07
			c-1.5-2.56-2.26-6.22-2.26-10.9v-22.47c0-2.52,0.61-4.46,1.8-5.77c1.22-1.33,2.84-2.01,4.81-2.01c2,0,3.65,0.68,4.89,2.03
			c1.23,1.32,1.85,3.26,1.85,5.75v18.15c0,2.54,0.21,4.69,0.63,6.38c0.39,1.57,1.09,2.81,2.08,3.68c0.97,0.85,2.28,1.27,4.01,1.27
			c1.72,0,3.31-0.5,4.84-1.53c1.52-1.02,2.64-2.36,3.33-4c0.39-1,0.88-3.59,0.88-10.16v-13.79c0-2.5,0.62-4.43,1.85-5.75
			c1.24-1.34,2.88-2.03,4.85-2.03c1.97,0,3.59,0.68,4.81,2.01c1.2,1.31,1.8,3.25,1.8,5.77v32.85c0,2.41-0.58,4.27-1.74,5.54
			C810.44,557.49,808.91,558.15,807.07,558.15z M802.72,546.4v4.35c0,1.76,0.42,3.12,1.26,4.04c0.82,0.91,1.83,1.35,3.09,1.35
			c1.27,0,2.27-0.42,3.06-1.29c0.8-0.88,1.21-2.29,1.21-4.18v-32.85c0-2-0.43-3.48-1.27-4.41c-0.83-0.91-1.92-1.36-3.33-1.36
			c-1.41,0-2.51,0.45-3.37,1.38c-0.87,0.94-1.31,2.41-1.31,4.38v13.79c0,5.6-0.34,9.18-1.03,10.92c-0.86,2.02-2.23,3.67-4.07,4.91
			c-1.85,1.24-3.85,1.87-5.96,1.87c-2.21,0-4-0.6-5.34-1.77c-1.3-1.15-2.21-2.73-2.7-4.71c-0.46-1.85-0.69-4.16-0.69-6.87v-18.15
			c0-1.97-0.44-3.44-1.31-4.38c-0.86-0.93-1.98-1.38-3.42-1.38c-1.41,0-2.49,0.44-3.33,1.36c-0.84,0.92-1.27,2.41-1.27,4.41v22.47
			c0,4.31,0.67,7.63,1.98,9.87c1.08,1.82,2.65,3.27,4.64,4.31c2.02,1.05,4.34,1.59,6.91,1.59c2.15,0,4.09-0.27,5.76-0.8
			c1.65-0.53,3.2-1.35,4.59-2.43c1.42-1.11,2.81-2.51,4.11-4.15L802.72,546.4z"/>
	</g>
	<g>
		<path d="M864.68,519.49v32.94c0,3.76-0.4,7-1.2,9.72c-0.8,2.71-2.09,4.95-3.86,6.73c-1.77,1.77-4.09,3.09-6.96,3.94
			c-2.86,0.86-6.43,1.29-10.69,1.29c-3.9,0-7.39-0.55-10.47-1.64c-3.07-1.1-5.44-2.51-7.1-4.24c-1.66-1.73-2.49-3.51-2.49-5.34
			c0-1.39,0.47-2.51,1.41-3.38c0.94-0.87,2.08-1.31,3.41-1.31c1.66,0,3.11,0.73,4.36,2.2c0.61,0.75,1.24,1.5,1.89,2.26
			c0.65,0.76,1.37,1.41,2.16,1.95c0.79,0.54,1.74,0.94,2.85,1.21c1.11,0.26,2.38,0.39,3.82,0.39c2.93,0,5.21-0.41,6.83-1.22
			c1.62-0.82,2.75-1.96,3.41-3.43c0.65-1.47,1.03-3.04,1.14-4.71c0.11-1.68,0.19-4.37,0.25-8.08c-1.74,2.44-3.76,4.29-6.04,5.57
			c-2.29,1.27-5.01,1.91-8.16,1.91c-3.79,0-7.11-0.97-9.95-2.91c-2.84-1.94-5.02-4.65-6.54-8.14c-1.52-3.49-2.28-7.52-2.28-12.09
			c0-3.41,0.46-6.48,1.39-9.22c0.93-2.74,2.25-5.05,3.97-6.93c1.72-1.88,3.7-3.3,5.94-4.26c2.24-0.95,4.71-1.43,7.39-1.43
			c3.21,0,5.99,0.62,8.35,1.85c2.35,1.23,4.54,3.16,6.56,5.79v-1.54c0-1.97,0.48-3.49,1.45-4.57c0.97-1.08,2.21-1.62,3.74-1.62
			c2.19,0,3.64,0.71,4.36,2.14C864.32,514.75,864.68,516.81,864.68,519.49z M831.83,533.86c0,4.6,1,8.07,3.01,10.43
			c2.01,2.35,4.6,3.53,7.79,3.53c1.88,0,3.66-0.5,5.34-1.51c1.67-1.01,3.04-2.53,4.09-4.57c1.05-2.04,1.58-4.51,1.58-7.41
			c0-4.62-1.02-8.22-3.05-10.8c-2.03-2.58-4.71-3.86-8.04-3.86c-3.24,0-5.84,1.23-7.79,3.7
			C832.8,525.82,831.83,529.32,831.83,533.86z"/>
		<path d="M841.96,575.11c-4,0-7.64-0.57-10.8-1.7c-3.21-1.15-5.73-2.66-7.49-4.49c-1.84-1.92-2.77-3.95-2.77-6.03
			c0-1.67,0.58-3.06,1.74-4.12c1.13-1.05,2.5-1.58,4.09-1.58c1.96,0,3.69,0.86,5.13,2.56c0.62,0.76,1.24,1.5,1.89,2.26
			c0.59,0.69,1.25,1.29,1.96,1.77c0.68,0.47,1.53,0.82,2.51,1.06c1.03,0.24,2.23,0.37,3.59,0.37c2.76,0,4.91-0.38,6.38-1.12
			c1.42-0.71,2.38-1.67,2.94-2.94c0.6-1.35,0.95-2.82,1.06-4.37c0.08-1.18,0.14-2.89,0.19-5.13c-1.37,1.46-2.87,2.65-4.49,3.56
			c-2.43,1.35-5.34,2.04-8.65,2.04c-3.98,0-7.52-1.04-10.51-3.08c-2.98-2.04-5.31-4.92-6.9-8.57c-1.57-3.6-2.37-7.8-2.37-12.49
			c0-3.5,0.49-6.71,1.44-9.54c0.97-2.86,2.37-5.31,4.18-7.29c1.8-1.98,3.92-3.5,6.29-4.51c2.36-1.01,4.98-1.51,7.79-1.51
			c3.36,0,6.32,0.66,8.81,1.96c1.8,0.95,3.53,2.29,5.14,4.01c0.17-1.69,0.72-3.06,1.66-4.1c1.16-1.3,2.67-1.95,4.49-1.95
			c2.59,0,4.36,0.91,5.26,2.69c0.8,1.58,1.19,3.75,1.19,6.62v32.94c0,3.85-0.42,7.21-1.25,10c-0.85,2.86-2.23,5.27-4.12,7.15
			c-1.88,1.88-4.37,3.29-7.38,4.2C849.99,574.67,846.3,575.11,841.96,575.11z M826.72,559.21c-1.08,0-1.97,0.34-2.72,1.04
			c-0.73,0.68-1.09,1.54-1.09,2.65c0,1.57,0.72,3.09,2.21,4.64c1.54,1.61,3.8,2.95,6.72,3.99c2.95,1.05,6.36,1.58,10.13,1.58
			c4.14,0,7.64-0.42,10.41-1.25c2.69-0.8,4.89-2.05,6.53-3.69c1.64-1.65,2.86-3.77,3.61-6.3c0.77-2.61,1.16-5.78,1.16-9.43v-32.94
			c0-2.51-0.33-4.43-0.97-5.71c-0.54-1.07-1.67-1.59-3.46-1.59c-1.23,0-2.21,0.42-2.99,1.29c-0.8,0.88-1.2,2.19-1.2,3.9v4.5
			l-1.8-2.35c-1.92-2.5-4.02-4.36-6.23-5.52c-2.2-1.15-4.85-1.73-7.88-1.73c-2.53,0-4.89,0.45-7,1.35c-2.1,0.9-3.98,2.24-5.59,4.01
			c-1.62,1.77-2.88,3.99-3.76,6.58c-0.89,2.62-1.34,5.61-1.34,8.9c0,4.41,0.74,8.34,2.2,11.69c1.44,3.3,3.52,5.89,6.19,7.71
			c2.66,1.81,5.81,2.73,9.38,2.73c2.97,0,5.55-0.6,7.67-1.78c2.14-1.19,4.06-2.97,5.72-5.27l1.87-2.62l-0.05,3.22
			c-0.06,3.77-0.14,6.43-0.25,8.13c-0.12,1.79-0.53,3.49-1.23,5.05c-0.75,1.68-2.05,3-3.87,3.92c-1.76,0.88-4.21,1.33-7.29,1.33
			c-1.51,0-2.87-0.14-4.05-0.42c-1.23-0.29-2.3-0.75-3.18-1.35c-0.86-0.59-1.65-1.3-2.36-2.13c-0.66-0.77-1.29-1.53-1.9-2.28
			C829.26,559.81,828.08,559.21,826.72,559.21z M842.63,548.82c-3.48,0-6.35-1.31-8.55-3.88c-2.16-2.53-3.25-6.26-3.25-11.08
			c0-4.75,1.06-8.5,3.15-11.13c2.14-2.71,5.03-4.08,8.58-4.08c3.63,0,6.6,1.43,8.83,4.25c2.17,2.74,3.27,6.59,3.27,11.42
			c0,3.06-0.57,5.71-1.69,7.88c-1.13,2.19-2.63,3.86-4.46,4.97C846.66,548.26,844.69,548.82,842.63,548.82z M842.54,520.66
			c-2.94,0-5.23,1.09-7,3.32c-1.8,2.27-2.71,5.59-2.71,9.88c0,4.33,0.93,7.62,2.77,9.77c1.82,2.14,4.12,3.18,7.02,3.18
			c1.69,0,3.31-0.46,4.82-1.37c1.5-0.91,2.75-2.31,3.72-4.17c0.97-1.88,1.47-4.22,1.47-6.95c0-4.37-0.95-7.79-2.84-10.17
			C847.94,521.8,845.57,520.66,842.54,520.66z"/>
	</g>
</g>
<g>
	<path d="M507.45,598.67c0.69,0,1.32,0.23,1.87,0.7s0.83,1.03,0.83,1.69c0,0.24-0.09,0.57-0.26,0.99l-14.65,32.11
		c-0.24,0.56-0.62,0.99-1.14,1.3c-0.52,0.31-1.07,0.47-1.66,0.47c-0.59,0-1.15-0.16-1.69-0.47c-0.54-0.31-0.93-0.74-1.17-1.3
		l-14.6-32.11c-0.17-0.42-0.26-0.74-0.26-0.99c0-0.69,0.28-1.27,0.86-1.72c0.57-0.45,1.2-0.67,1.9-0.67c1.07,0,1.84,0.48,2.29,1.45
		l12.73,28.53l12.73-28.53C505.67,599.15,506.42,598.67,507.45,598.67z"/>
	<path d="M527.09,611.87c0,0.76-0.19,1.33-0.57,1.71c-0.38,0.38-1.04,0.61-1.97,0.67l-1.56,0.16c-2.18,0.21-3.8,0.97-4.86,2.29
		c-1.06,1.32-1.58,2.91-1.58,4.78v11.9c0,0.83-0.24,1.46-0.73,1.87c-0.49,0.41-1.11,0.62-1.87,0.62c-0.76,0-1.4-0.21-1.9-0.62
		c-0.5-0.41-0.75-1.04-0.75-1.87v-21.15c0-0.8,0.25-1.41,0.75-1.85c0.5-0.43,1.13-0.65,1.9-0.65c0.69,0,1.27,0.22,1.74,0.65
		c0.47,0.43,0.7,1.03,0.7,1.79v2.49c0.69-1.53,1.7-2.68,3.01-3.48c1.32-0.8,2.81-1.26,4.47-1.4l0.73-0.05
		C526.26,609.63,527.09,610.34,527.09,611.87z"/>
	<path d="M530.58,603.81c-0.59-0.56-0.88-1.28-0.88-2.18c0-0.9,0.29-1.62,0.88-2.15c0.59-0.54,1.38-0.81,2.39-0.81
		c0.97,0,1.76,0.27,2.36,0.81c0.61,0.54,0.91,1.25,0.91,2.15c0,0.9-0.29,1.63-0.88,2.18c-0.59,0.55-1.39,0.83-2.39,0.83
		C531.96,604.64,531.16,604.36,530.58,603.81z M531.07,635.25c-0.5-0.41-0.75-1.04-0.75-1.87v-21.1c0-0.83,0.25-1.46,0.75-1.9
		c0.5-0.43,1.13-0.65,1.9-0.65c0.76,0,1.38,0.22,1.87,0.65c0.48,0.43,0.73,1.07,0.73,1.9v21.1c0,0.83-0.24,1.46-0.73,1.87
		c-0.49,0.41-1.11,0.62-1.87,0.62C532.2,635.87,531.57,635.66,531.07,635.25z M536.03,644.65c-0.56-0.35-0.83-0.88-0.83-1.61
		c0-0.56,0.17-1,0.52-1.32c0.35-0.33,0.9-0.53,1.66-0.6l1.45-0.1c1.35-0.07,2.36-0.48,3.04-1.25c0.68-0.76,1.01-1.98,1.01-3.64
		v-23.85c0-0.83,0.25-1.46,0.75-1.9c0.5-0.43,1.13-0.65,1.9-0.65c0.76,0,1.38,0.22,1.87,0.65c0.48,0.43,0.73,1.07,0.73,1.9v23.54
		c0,2.91-0.68,5.11-2.03,6.6c-1.35,1.49-3.45,2.34-6.29,2.55l-1.4,0.1C537.38,645.14,536.58,645,536.03,644.65z M543.15,603.81
		c-0.59-0.56-0.88-1.28-0.88-2.18c0-0.9,0.29-1.62,0.88-2.15c0.59-0.54,1.39-0.81,2.39-0.81c0.97,0,1.76,0.27,2.36,0.81
		c0.61,0.54,0.91,1.25,0.91,2.15c0,0.9-0.29,1.63-0.88,2.18c-0.59,0.55-1.39,0.83-2.39,0.83
		C544.54,604.64,543.74,604.36,543.15,603.81z"/>
	<path d="M576.51,629.79c0.31,0.38,0.47,0.87,0.47,1.45c0,1-0.62,1.85-1.87,2.55c-1.21,0.69-2.54,1.23-3.97,1.61
		c-1.44,0.38-2.81,0.57-4.13,0.57c-4.02,0-7.19-1.17-9.51-3.51c-2.32-2.34-3.48-5.53-3.48-9.59c0-2.6,0.51-4.9,1.53-6.91
		c1.02-2.01,2.46-3.57,4.31-4.68c1.85-1.11,3.96-1.66,6.31-1.66c3.4,0,6.08,1.09,8.05,3.27c1.97,2.18,2.96,5.13,2.96,8.83
		c0,1.38-0.62,2.08-1.87,2.08h-16.06c0.35,5.37,2.93,8.05,7.74,8.05c1.28,0,2.39-0.17,3.33-0.52c0.93-0.35,1.92-0.8,2.96-1.35
		c0.1-0.07,0.39-0.21,0.86-0.44s0.86-0.34,1.17-0.34C575.8,629.22,576.2,629.41,576.51,629.79z M561.44,615.4
		c-1.21,1.28-1.94,3.08-2.18,5.4h13.4c-0.1-2.36-0.7-4.17-1.79-5.43c-1.09-1.27-2.62-1.9-4.6-1.9
		C564.26,613.47,562.65,614.11,561.44,615.4z"/>
	<path d="M623.77,619.92c1.16,1.52,1.74,3.43,1.74,5.71c0,3.15-1.08,5.6-3.25,7.35c-2.17,1.75-5.19,2.62-9.07,2.62h-13.25
		c-0.83,0-1.48-0.23-1.95-0.7c-0.47-0.47-0.7-1.1-0.7-1.9v-31.44c0-0.79,0.23-1.43,0.7-1.9c0.47-0.47,1.12-0.7,1.95-0.7h12.68
		c3.77,0,6.73,0.84,8.86,2.52c2.13,1.68,3.2,4.03,3.2,7.04c0,1.94-0.51,3.62-1.53,5.04c-1.02,1.42-2.45,2.48-4.29,3.17
		C620.97,617.34,622.61,618.39,623.77,619.92z M602.54,614.83h9.25c5.13,0,7.69-1.94,7.69-5.82c0-1.94-0.63-3.38-1.9-4.31
		c-1.26-0.94-3.2-1.4-5.79-1.4h-9.25V614.83z M618.49,629.84c1.25-0.97,1.87-2.48,1.87-4.52c0-2.08-0.63-3.63-1.9-4.65
		c-1.26-1.02-3.21-1.53-5.85-1.53h-10.08v12.16h10.08C615.29,631.3,617.25,630.81,618.49,629.84z"/>
	<path d="M650.06,612.18c1.64,1.7,2.47,4.28,2.47,7.74v13.46c0,0.8-0.23,1.41-0.68,1.85c-0.45,0.43-1.07,0.65-1.87,0.65
		c-0.76,0-1.37-0.23-1.82-0.67c-0.45-0.45-0.68-1.06-0.68-1.82v-1.92c-0.66,1.46-1.64,2.57-2.94,3.35c-1.3,0.78-2.81,1.17-4.55,1.17
		c-1.66,0-3.19-0.34-4.57-1.01c-1.39-0.68-2.47-1.62-3.25-2.83c-0.78-1.21-1.17-2.56-1.17-4.05c0-1.84,0.47-3.28,1.43-4.34
		c0.95-1.05,2.53-1.81,4.73-2.26c2.2-0.45,5.22-0.67,9.07-0.67h1.2v-1.51c0-1.94-0.4-3.34-1.2-4.21c-0.8-0.87-2.08-1.3-3.85-1.3
		c-1.21,0-2.36,0.16-3.43,0.47c-1.07,0.31-2.25,0.76-3.53,1.35c-0.93,0.52-1.59,0.78-1.97,0.78c-0.52,0-0.94-0.19-1.27-0.57
		c-0.33-0.38-0.49-0.87-0.49-1.45c0-0.52,0.15-0.98,0.44-1.38c0.29-0.4,0.77-0.79,1.43-1.17c1.21-0.66,2.63-1.19,4.26-1.58
		c1.63-0.4,3.2-0.6,4.73-0.6C645.91,609.63,648.42,610.48,650.06,612.18z M645.62,630.13c1.21-1.3,1.82-2.97,1.82-5.01v-1.35h-0.94
		c-2.7,0-4.78,0.12-6.23,0.36c-1.46,0.24-2.49,0.65-3.12,1.22c-0.62,0.57-0.94,1.39-0.94,2.47c0,1.25,0.45,2.27,1.35,3.07
		c0.9,0.8,2.03,1.2,3.38,1.2C642.85,632.08,644.4,631.43,645.62,630.13z"/>
	<path d="M659.85,633.79c-0.62-0.38-1.07-0.78-1.32-1.2c-0.26-0.42-0.39-0.88-0.39-1.4c0-0.55,0.16-1.02,0.47-1.4
		c0.31-0.38,0.71-0.57,1.2-0.57c0.45,0,1.16,0.28,2.13,0.83c1.04,0.55,2.05,1,3.04,1.35c0.99,0.35,2.23,0.52,3.72,0.52
		c1.66,0,2.96-0.29,3.9-0.88c0.93-0.59,1.4-1.42,1.4-2.49c0-0.69-0.18-1.25-0.55-1.66c-0.36-0.41-1-0.79-1.9-1.12s-2.23-0.68-4-1.07
		c-3.05-0.66-5.24-1.55-6.57-2.68c-1.33-1.12-2-2.66-2-4.6c0-1.49,0.43-2.83,1.3-4.03c0.87-1.2,2.06-2.12,3.59-2.78
		c1.52-0.66,3.25-0.99,5.2-0.99c1.39,0,2.74,0.18,4.05,0.55s2.48,0.89,3.48,1.58c1.14,0.76,1.72,1.64,1.72,2.65
		c0,0.55-0.16,1.02-0.49,1.4c-0.33,0.38-0.72,0.57-1.17,0.57c-0.31,0-0.62-0.07-0.93-0.21c-0.31-0.14-0.73-0.36-1.25-0.67
		c-0.94-0.56-1.81-0.99-2.62-1.3c-0.81-0.31-1.83-0.47-3.04-0.47c-1.46,0-2.62,0.31-3.51,0.94c-0.88,0.62-1.32,1.47-1.32,2.55
		c0,0.97,0.41,1.72,1.22,2.26c0.81,0.54,2.35,1.05,4.6,1.53c2.32,0.48,4.14,1.04,5.46,1.66c1.32,0.63,2.26,1.4,2.83,2.31
		c0.57,0.92,0.86,2.09,0.86,3.51c0,2.25-0.94,4.06-2.83,5.43c-1.89,1.37-4.41,2.05-7.56,2.05
		C665,635.97,662.11,635.25,659.85,633.79z"/>
	<path d="M685,603.81c-0.59-0.56-0.88-1.28-0.88-2.18c0-0.9,0.29-1.62,0.88-2.15c0.59-0.54,1.38-0.81,2.39-0.81
		c0.97,0,1.76,0.27,2.36,0.81c0.61,0.54,0.91,1.25,0.91,2.15c0,0.9-0.29,1.63-0.88,2.18c-0.59,0.55-1.39,0.83-2.39,0.83
		C686.39,604.64,685.59,604.36,685,603.81z M685.5,635.25c-0.5-0.41-0.75-1.04-0.75-1.87v-21.1c0-0.83,0.25-1.46,0.75-1.9
		c0.5-0.43,1.13-0.65,1.9-0.65c0.76,0,1.38,0.22,1.87,0.65c0.48,0.43,0.73,1.07,0.73,1.9v21.1c0,0.83-0.24,1.46-0.73,1.87
		c-0.49,0.41-1.11,0.62-1.87,0.62C686.63,635.87,686,635.66,685.5,635.25z"/>
	<path d="M697.47,633.79c-0.62-0.38-1.07-0.78-1.33-1.2c-0.26-0.42-0.39-0.88-0.39-1.4c0-0.55,0.16-1.02,0.47-1.4
		c0.31-0.38,0.71-0.57,1.2-0.57c0.45,0,1.16,0.28,2.13,0.83c1.04,0.55,2.05,1,3.04,1.35c0.99,0.35,2.23,0.52,3.72,0.52
		c1.66,0,2.96-0.29,3.9-0.88c0.93-0.59,1.4-1.42,1.4-2.49c0-0.69-0.18-1.25-0.55-1.66c-0.36-0.41-1-0.79-1.9-1.12s-2.23-0.68-4-1.07
		c-3.05-0.66-5.24-1.55-6.57-2.68c-1.33-1.12-2-2.66-2-4.6c0-1.49,0.43-2.83,1.3-4.03c0.87-1.2,2.06-2.12,3.59-2.78
		c1.52-0.66,3.25-0.99,5.2-0.99c1.39,0,2.74,0.18,4.05,0.55c1.32,0.36,2.48,0.89,3.48,1.58c1.14,0.76,1.72,1.64,1.72,2.65
		c0,0.55-0.16,1.02-0.49,1.4c-0.33,0.38-0.72,0.57-1.17,0.57c-0.31,0-0.62-0.07-0.93-0.21c-0.31-0.14-0.73-0.36-1.25-0.67
		c-0.94-0.56-1.81-0.99-2.62-1.3c-0.81-0.31-1.83-0.47-3.04-0.47c-1.46,0-2.62,0.31-3.51,0.94c-0.88,0.62-1.33,1.47-1.33,2.55
		c0,0.97,0.41,1.72,1.22,2.26c0.81,0.54,2.35,1.05,4.6,1.53c2.32,0.48,4.14,1.04,5.46,1.66c1.32,0.63,2.26,1.4,2.83,2.31
		c0.57,0.92,0.86,2.09,0.86,3.51c0,2.25-0.94,4.06-2.83,5.43c-1.89,1.37-4.41,2.05-7.56,2.05
		C702.62,635.97,699.73,635.25,697.47,633.79z"/>
	<path d="M722.52,633.79c-0.62-0.38-1.07-0.78-1.32-1.2c-0.26-0.42-0.39-0.88-0.39-1.4c0-0.55,0.16-1.02,0.47-1.4
		c0.31-0.38,0.71-0.57,1.2-0.57c0.45,0,1.16,0.28,2.13,0.83c1.04,0.55,2.05,1,3.04,1.35c0.99,0.35,2.23,0.52,3.72,0.52
		c1.66,0,2.96-0.29,3.9-0.88c0.93-0.59,1.4-1.42,1.4-2.49c0-0.69-0.18-1.25-0.55-1.66c-0.36-0.41-1-0.79-1.9-1.12s-2.23-0.68-4-1.07
		c-3.05-0.66-5.24-1.55-6.57-2.68c-1.33-1.12-2-2.66-2-4.6c0-1.49,0.43-2.83,1.3-4.03c0.87-1.2,2.06-2.12,3.59-2.78
		c1.52-0.66,3.25-0.99,5.2-0.99c1.39,0,2.74,0.18,4.05,0.55c1.32,0.36,2.48,0.89,3.48,1.58c1.14,0.76,1.72,1.64,1.72,2.65
		c0,0.55-0.16,1.02-0.49,1.4c-0.33,0.38-0.72,0.57-1.17,0.57c-0.31,0-0.62-0.07-0.93-0.21c-0.31-0.14-0.73-0.36-1.25-0.67
		c-0.94-0.56-1.81-0.99-2.62-1.3c-0.81-0.31-1.83-0.47-3.04-0.47c-1.46,0-2.62,0.31-3.51,0.94c-0.88,0.62-1.32,1.47-1.32,2.55
		c0,0.97,0.41,1.72,1.22,2.26c0.81,0.54,2.35,1.05,4.6,1.53c2.32,0.48,4.14,1.04,5.46,1.66c1.32,0.63,2.26,1.4,2.83,2.31
		c0.57,0.92,0.86,2.09,0.86,3.51c0,2.25-0.94,4.06-2.83,5.43c-1.89,1.37-4.41,2.05-7.56,2.05
		C727.66,635.97,724.77,635.25,722.52,633.79z"/>
	<path d="M751.8,634.36c-1.85-1.07-3.29-2.6-4.31-4.57c-1.02-1.98-1.53-4.26-1.53-6.86c0-2.63,0.53-4.95,1.59-6.96
		c1.06-2.01,2.54-3.57,4.44-4.68c1.9-1.11,4.09-1.66,6.55-1.66c1.32,0,2.64,0.19,3.97,0.57c1.33,0.38,2.52,0.9,3.56,1.56
		c1.11,0.76,1.66,1.64,1.66,2.65c0,0.59-0.16,1.08-0.47,1.48c-0.31,0.4-0.71,0.6-1.2,0.6c-0.31,0-0.62-0.08-0.94-0.23
		c-0.31-0.16-0.71-0.39-1.2-0.7c-0.87-0.55-1.67-0.98-2.42-1.27c-0.75-0.3-1.64-0.44-2.68-0.44c-2.36,0-4.18,0.8-5.48,2.39
		c-1.3,1.59-1.95,3.81-1.95,6.65c0,2.84,0.64,5.03,1.92,6.57c1.28,1.54,3.1,2.31,5.46,2.31c1.04,0,1.96-0.16,2.75-0.47
		c0.8-0.31,1.61-0.73,2.44-1.25c0.38-0.24,0.76-0.45,1.14-0.62c0.38-0.17,0.73-0.26,1.04-0.26c0.48,0,0.88,0.2,1.2,0.6
		c0.31,0.4,0.47,0.89,0.47,1.48c0,0.48-0.13,0.93-0.39,1.32c-0.26,0.4-0.7,0.8-1.33,1.22c-1.04,0.69-2.25,1.23-3.64,1.61
		c-1.39,0.38-2.79,0.57-4.21,0.57C755.81,635.97,753.65,635.44,751.8,634.36z"/>
	<path d="M795.26,619.87v13.51c0,0.76-0.24,1.37-0.73,1.82c-0.49,0.45-1.13,0.67-1.92,0.67c-0.8,0-1.43-0.23-1.9-0.67
		c-0.47-0.45-0.7-1.06-0.7-1.82v-13.46c0-2.08-0.43-3.6-1.27-4.57c-0.85-0.97-2.17-1.46-3.97-1.46c-2.11,0-3.81,0.66-5.09,1.98
		c-1.28,1.32-1.92,3.08-1.92,5.3v12.21c0,0.76-0.23,1.37-0.7,1.82c-0.47,0.45-1.1,0.67-1.9,0.67c-0.8,0-1.44-0.23-1.92-0.67
		c-0.49-0.45-0.73-1.06-0.73-1.82v-32.16c0-0.76,0.25-1.37,0.75-1.82c0.5-0.45,1.15-0.68,1.95-0.68c0.76,0,1.38,0.22,1.85,0.65
		c0.47,0.43,0.7,1.01,0.7,1.74v12.99c0.87-1.45,2.03-2.56,3.48-3.32c1.45-0.76,3.12-1.14,4.99-1.14
		C792.25,609.63,795.26,613.04,795.26,619.87z"/>
	<path d="M806.88,634.36c-1.89-1.07-3.34-2.61-4.36-4.6c-1.02-1.99-1.53-4.3-1.53-6.93c0-2.67,0.51-5,1.53-6.99
		c1.02-1.99,2.48-3.53,4.36-4.6c1.89-1.07,4.08-1.61,6.57-1.61c2.49,0,4.68,0.54,6.57,1.61c1.89,1.07,3.34,2.61,4.37,4.6
		c1.02,1.99,1.53,4.32,1.53,6.99c0,2.63-0.51,4.94-1.53,6.93c-1.02,1.99-2.48,3.53-4.37,4.6c-1.89,1.07-4.08,1.61-6.57,1.61
		C810.95,635.97,808.76,635.44,806.88,634.36z M818.77,629.53c1.23-1.52,1.85-3.76,1.85-6.7c0-2.91-0.62-5.14-1.87-6.68
		c-1.25-1.54-3.01-2.31-5.3-2.31c-2.29,0-4.05,0.77-5.3,2.31c-1.25,1.54-1.87,3.77-1.87,6.68c0,2.94,0.61,5.18,1.85,6.7
		c1.23,1.53,3.01,2.29,5.33,2.29C815.77,631.82,817.55,631.05,818.77,629.53z"/>
	<path d="M836.18,634.36c-1.89-1.07-3.34-2.61-4.36-4.6c-1.02-1.99-1.53-4.3-1.53-6.93c0-2.67,0.51-5,1.53-6.99
		c1.02-1.99,2.48-3.53,4.36-4.6c1.89-1.07,4.08-1.61,6.57-1.61c2.49,0,4.68,0.54,6.57,1.61c1.89,1.07,3.34,2.61,4.37,4.6
		c1.02,1.99,1.53,4.32,1.53,6.99c0,2.63-0.51,4.94-1.53,6.93c-1.02,1.99-2.48,3.53-4.37,4.6c-1.89,1.07-4.08,1.61-6.57,1.61
		C840.26,635.97,838.07,635.44,836.18,634.36z M848.08,629.53c1.23-1.52,1.85-3.76,1.85-6.7c0-2.91-0.62-5.14-1.87-6.68
		c-1.25-1.54-3.01-2.31-5.3-2.31s-4.05,0.77-5.3,2.31c-1.25,1.54-1.87,3.77-1.87,6.68c0,2.94,0.61,5.18,1.85,6.7
		c1.23,1.53,3.01,2.29,5.33,2.29C845.08,631.82,846.85,631.05,848.08,629.53z"/>
	<path d="M861.8,635.25c-0.5-0.41-0.76-1.04-0.76-1.87v-32.11c0-0.83,0.25-1.46,0.76-1.89c0.5-0.43,1.13-0.65,1.89-0.65
		c0.76,0,1.39,0.22,1.87,0.65c0.48,0.43,0.73,1.07,0.73,1.89v32.11c0,0.83-0.24,1.46-0.73,1.87c-0.48,0.41-1.11,0.62-1.87,0.62
		C862.94,635.87,862.3,635.66,861.8,635.25z"/>
</g>
</svg>
