<?xml version="1.0" encoding="utf-8"?>
<!-- Generator: Adobe Illustrator 23.0.2, SVG Export Plug-In . SVG Version: 6.00 Build 0)  -->
<svg version="1.1" id="Laag_1" xmlns="http://www.w3.org/2000/svg" xmlns:xlink="http://www.w3.org/1999/xlink" x="0px" y="0px"
	 viewBox="0 0 292 306" style="enable-background:new 0 0 292 306;" xml:space="preserve">
<style type="text/css">
	.st0{clip-path:url(#SVGID_2_);fill:#EBC79E;}
	.st1{clip-path:url(#SVGID_2_);fill:#212121;}
	.st2{clip-path:url(#SVGID_2_);fill:#A3BF38;}
	.st3{clip-path:url(#SVGID_2_);fill:none;stroke:#212121;stroke-width:2.019;stroke-linejoin:round;stroke-miterlimit:10;}
	.st4{clip-path:url(#SVGID_2_);fill:#00B7A8;}
	.st5{clip-path:url(#SVGID_2_);fill:#FFA433;}
	.st6{clip-path:url(#SVGID_2_);fill:none;stroke:#212121;stroke-width:2.5;stroke-miterlimit:10;}
	.st7{clip-path:url(#SVGID_2_);fill:none;stroke:#212121;stroke-width:3.365;stroke-linecap:round;stroke-miterlimit:10;}
	.st8{clip-path:url(#SVGID_2_);fill:#734F2B;}
</style>
<g>
	<defs>
		
			<rect id="SVGID_1_" x="16.52" y="71.29" transform="matrix(0.1775 -0.9841 0.9841 0.1775 -35.4531 268.7177)" width="253.03" height="168.55"/>
	</defs>
	<clipPath id="SVGID_2_">
		<use xlink:href="#SVGID_1_"  style="overflow:visible;"/>
	</clipPath>
	<path class="st0" d="M225.31,107.64c7.87-2.6,10.38,2.78,8.77,7.04c-1.62,4.27-6.72,5.38-8.96,2.04"/>
	<path class="st1" d="M224.98,106.63c1.1-0.4,2.23-0.75,3.47-0.85c1.22-0.15,2.56-0.02,3.83,0.53c1.27,0.53,2.4,1.59,2.99,2.86
		c0.61,1.26,0.77,2.65,0.63,3.96c-0.14,1.31-0.58,2.57-1.32,3.69c-0.73,1.12-1.79,2.04-3.03,2.6c-1.25,0.54-2.69,0.76-4.07,0.39
		c-1.38-0.36-2.59-1.31-3.25-2.47c-0.3-0.53-0.12-1.19,0.41-1.5c0.47-0.27,1.05-0.15,1.39,0.25l0.02,0.03c0.55,0.66,1.24,1.06,2,1.2
		c0.76,0.15,1.59-0.03,2.32-0.4c1.51-0.72,2.49-2.37,2.73-4.11c0.11-0.86,0.01-1.74-0.32-2.46c-0.34-0.72-0.87-1.28-1.59-1.65
		c-0.72-0.37-1.63-0.52-2.58-0.49c-0.47-0.03-0.97,0.08-1.46,0.13c-0.49,0.08-0.99,0.22-1.49,0.31l-0.1,0.02
		c-0.58,0.11-1.14-0.27-1.25-0.84C224.19,107.31,224.49,106.81,224.98,106.63"/>
	<path class="st0" d="M77.99,99.31c-7.57-3.38-10.61,1.72-9.43,6.12c1.18,4.41,6.14,6.03,8.7,2.93"/>
	<path class="st1" d="M77.55,100.29c-0.49-0.15-0.97-0.33-1.45-0.46c-0.48-0.1-0.96-0.25-1.44-0.27c-0.95-0.13-1.87-0.08-2.62,0.22
		c-0.76,0.29-1.34,0.8-1.75,1.48c-0.4,0.68-0.59,1.54-0.57,2.41c0.06,1.75,0.88,3.49,2.3,4.36c0.69,0.44,1.5,0.71,2.27,0.63
		c0.77-0.06,1.5-0.39,2.12-0.99l0.03-0.03c0.43-0.42,1.13-0.42,1.55,0.01c0.38,0.39,0.41,0.98,0.11,1.41
		c-0.78,1.09-2.08,1.91-3.49,2.13c-1.41,0.22-2.83-0.13-4.01-0.8c-1.19-0.68-2.14-1.71-2.76-2.9c-0.63-1.18-0.94-2.48-0.94-3.8
		c-0.01-1.31,0.29-2.68,1.03-3.87c0.71-1.21,1.94-2.14,3.26-2.55c1.32-0.42,2.67-0.41,3.86-0.14c1.22,0.23,2.32,0.69,3.37,1.2
		c0.53,0.26,0.75,0.89,0.5,1.42c-0.23,0.48-0.77,0.7-1.27,0.56L77.55,100.29z"/>
	<path class="st2" d="M162.5,169c-0.4-0.05-0.77-0.12-1.12-0.19c-3.56,0.6-7.15,0.94-10.76,0.98c-2.09,0.02-4.19-0.05-6.29-0.22
		c-5.53-0.46-10.87-1.29-16-2.46l-23.85,6.79c2.43,5.92,7.44,12.13,8.37,13.26c1.08-0.18,5.85-1.05,11.1-3.11
		c0.75-0.29,1.22-0.05,1.48,0.2c1.09,1.03,1.66,6.54-6.45,31.6c2.67-0.04,14.15-0.23,25.52-0.36c18.05-0.2,23.8-0.18,25.67,0.02
		c-1.79-8.27-5.44-25.31-5.79-27.9c-0.09-0.66,0.2-1.06,0.47-1.27c1.89-1.53,9.67,1.02,11.55,1.67c0.38-0.61,2.5-4.09,2.5-4.09
		l2.83-5c0,0,1.74-3.4,2.24-4.71C182.91,173.08,170.53,170.07,162.5,169"/>
	<path class="st3" d="M162.5,169c-0.4-0.05-0.77-0.12-1.12-0.19c-3.56,0.6-7.15,0.94-10.76,0.98c-2.09,0.02-4.19-0.05-6.29-0.22
		c-5.53-0.46-10.87-1.29-16-2.46l-23.85,6.79c2.43,5.92,7.44,12.13,8.37,13.26c1.08-0.18,5.85-1.05,11.1-3.11
		c0.75-0.29,1.22-0.05,1.48,0.2c1.09,1.03,1.66,6.54-6.45,31.6c2.67-0.04,14.15-0.23,25.52-0.36c18.05-0.2,23.8-0.18,25.67,0.02
		c-1.79-8.27-5.44-25.31-5.79-27.9c-0.09-0.66,0.2-1.06,0.47-1.27c1.89-1.53,9.67,1.02,11.55,1.67c0.38-0.61,2.5-4.09,2.5-4.09
		l2.83-5c0,0,1.74-3.4,2.24-4.71C182.91,173.08,170.53,170.07,162.5,169z"/>
	<path class="st0" d="M83.54,184.07c-1.71-10.61-5.36-10.87-6.26,0.14c-8.09-7.63-13.26-0.59-4.11,3.39
		c-9.41,5.12-4.22,6.74,3.46,3.39c-9.81,8.92-3.08,11.98,3.73,1.56c-0.31,12.16,3.24,10.52,4.57-2.16l23.91-7.18
		c-1.01-1.45-2.11-3.14-3.11-4.92C99.1,179.4,83.54,184.07,83.54,184.07"/>
	<path class="st3" d="M83.54,184.07c-1.71-10.61-5.36-10.87-6.26,0.14c-8.09-7.63-13.26-0.59-4.11,3.39
		c-9.41,5.12-4.22,6.74,3.46,3.39c-9.81,8.92-3.08,11.98,3.73,1.56c-0.31,12.16,3.24,10.52,4.57-2.16l23.91-7.18
		c-1.01-1.45-2.11-3.14-3.11-4.92C99.1,179.4,83.54,184.07,83.54,184.07z"/>
	<path class="st0" d="M214.89,189.01c8.59-7.3,4.56-9.15-3.68-3.75c1.26-11.3-5.87-10.71-6.48,0.07c0,0-17.11-6.67-21.93-6.63
		c-1.06,2.03-2.3,4.17-3.36,5.96l24.42,7.09c-1.01,14.72,5.23,12.62,4.26,3.38c7.68,10.4,12.72,4.74,4.05-2.88
		C223.12,196.57,222.57,192.93,214.89,189.01"/>
	<path class="st3" d="M214.89,189.01c8.59-7.3,4.56-9.15-3.68-3.75c1.26-11.3-5.87-10.71-6.48,0.07c0,0-17.11-6.67-21.93-6.63
		c-1.06,2.03-2.3,4.17-3.36,5.96l24.42,7.09c-1.01,14.72,5.23,12.62,4.26,3.38c7.68,10.4,12.72,4.74,4.05-2.88
		C223.12,196.57,222.57,192.93,214.89,189.01z"/>
	<path class="st1" d="M116.82,240.21c0,0-0.09,0.37-0.24,1c2.86,0.28,6.19,0.56,8.88,0.79c0.22,0.02,0.44,0.04,0.66,0.06
		c0.13-0.8,0.2-1.25,0.2-1.25L116.82,240.21z"/>
	<path class="st0" d="M116.38,242.04c-1.49,6.24-6.35,26.47-6.92,27.81c-0.68,1.58-12.5-2.92-12.62,1.88
		c-0.12,4.8,19.31,5.75,20.88,4.57c2.84-2.13,7.04-26.14,8.26-33.41c-0.2-0.02-0.39-0.03-0.59-0.05
		C121.5,242.5,118.58,242.25,116.38,242.04"/>
	<path class="st3" d="M116.38,242.04c-1.49,6.24-6.35,26.47-6.92,27.81c-0.68,1.58-12.5-2.92-12.62,1.88
		c-0.12,4.8,19.31,5.75,20.88,4.57c2.84-2.13,7.04-26.14,8.26-33.41c-0.2-0.02-0.39-0.03-0.59-0.05
		C121.5,242.5,118.58,242.25,116.38,242.04z"/>
	<path class="st1" d="M125.46,242c-2.69-0.23-6.02-0.51-8.88-0.79c-0.06,0.24-0.12,0.5-0.2,0.82c2.2,0.21,5.12,0.47,9.01,0.8
		c0.2,0.02,0.4,0.03,0.59,0.05c0.05-0.31,0.1-0.58,0.14-0.83C125.9,242.04,125.69,242.02,125.46,242"/>
	<path class="st1" d="M165.49,241.88c0,0,0.13,0.74,0.38,2.01c3.15-0.26,6.76-0.58,9.63-0.86c-0.32-1.22-0.51-1.95-0.51-1.95
		L165.49,241.88z"/>
	<path class="st0" d="M174.85,277.17c1.59,1.14,21.01-0.22,20.78-5.02c-0.23-4.79-11.94-0.05-12.66-1.61
		c-0.58-1.26-5.41-19.61-7.26-26.7c-2.87,0.28-6.51,0.6-9.68,0.86C167.56,252.74,172.06,275.17,174.85,277.17"/>
	<path class="st3" d="M174.85,277.17c1.59,1.14,21.01-0.22,20.78-5.02c-0.23-4.79-11.94-0.05-12.66-1.61
		c-0.58-1.26-5.41-19.61-7.26-26.7c-2.87,0.28-6.51,0.6-9.68,0.86C167.56,252.74,172.06,275.17,174.85,277.17z"/>
	<path class="st1" d="M165.87,243.89c0.05,0.25,0.1,0.53,0.16,0.82c3.18-0.26,6.81-0.59,9.69-0.86c-0.08-0.29-0.15-0.57-0.21-0.82
		C172.63,243.31,169.02,243.63,165.87,243.89"/>
	<path class="st4" d="M103.97,172.72l27.23-7.75l28.77-1.67c0,0-4.86,3.39,2.62,4.39c7.48,0.99,22.34,4.35,21.86,5.65
		c-1.77,4.75-7.83,14.27-7.83,14.27s-12.23-4.35-11.78-0.96c0.46,3.39,6.75,32.32,6.75,32.32l-54.52,0.58c0,0,0.42-1.24,1.09-3.26
		c3.02-9.22,10.97-34.69,5.99-32.74c-6.07,2.38-11.42,3.17-11.42,3.17S106.61,179.5,103.97,172.72"/>
	<path class="st3" d="M103.97,172.72l27.23-7.75l28.77-1.67c0,0-4.86,3.39,2.62,4.39c7.48,0.99,22.34,4.35,21.86,5.65
		c-1.77,4.75-7.83,14.27-7.83,14.27s-12.23-4.35-11.78-0.96c0.46,3.39,6.75,32.32,6.75,32.32l-54.52,0.58c0,0,0.42-1.24,1.09-3.26
		c3.02-9.22,10.97-34.69,5.99-32.74c-6.07,2.38-11.42,3.17-11.42,3.17S106.61,179.5,103.97,172.72z"/>
	<path class="st5" d="M117.33,218.95c0,0-7.22,21.84-7.86,22.51c-0.64,0.67,22.1,2.14,24.89,2.63c2.8,0.5,3.06-11.69,3.06-11.69
		s15.95,0.23,17.4-0.65c1.45-0.87,1.81,13.88,3.8,13.86c1.99-0.02,20.25-1.6,22.04-1.95s4.86,0.54-0.09-8.04
		c-4.94-8.58-9.77-18.32-9.9-18.89c-0.12-0.57-52.73,0.32-52.73,0.32L117.33,218.95z"/>
	<path class="st3" d="M117.33,218.95c0,0-7.22,21.84-7.86,22.51c-0.64,0.67,22.1,2.14,24.89,2.63c2.8,0.5,3.06-11.69,3.06-11.69
		s15.95,0.23,17.4-0.65c1.45-0.87,1.81,13.88,3.8,13.86c1.99-0.02,20.25-1.6,22.04-1.95s4.86,0.54-0.09-8.04
		c-4.94-8.58-9.77-18.32-9.9-18.89c-0.12-0.57-52.73,0.32-52.73,0.32L117.33,218.95z"/>
	<path class="st0" d="M145.47,165.46c4.35,0.3,8.71,0.16,13.01-0.42c0.09-0.13,0.19-0.25,0.29-0.36L145.47,165.46z"/>
	<path class="st0" d="M160.17,164.55c0.15-0.11,0.22-0.3,0.15-0.48c-0.06-0.18-0.23-0.3-0.42-0.28l-19.75,1.15
		c1.49,0.18,3,0.35,4.52,0.47c0.26,0.02,0.53,0.04,0.79,0.05l13.29-0.77c-0.1,0.11-0.2,0.23-0.29,0.36
		c0.44-0.06,0.88-0.13,1.32-0.19C159.94,164.72,160.07,164.61,160.17,164.55"/>
	<path class="st1" d="M150.62,169.8c3.61-0.04,7.21-0.38,10.76-0.98c-1.73-0.34-2.8-0.88-3.22-1.63c-4.45,0.56-9.02,0.69-13.67,0.3
		c-3.59-0.3-7.1-0.75-10.52-1.36l-2.75,0.16l-2.9,0.82c5.13,1.16,10.47,2,16,2.46C146.43,169.75,148.52,169.82,150.62,169.8"/>
	<path class="st1" d="M131.23,166.29l2.75-0.16c-1.05-0.19-2.09-0.39-3.12-0.6l-4.22,1.2c0.56,0.14,1.13,0.26,1.69,0.39
		L131.23,166.29z"/>
	<path class="st1" d="M159.13,167.06c-0.32,0.04-0.64,0.09-0.96,0.13c0.42,0.75,1.49,1.29,3.22,1.63c0.84-0.14,1.67-0.29,2.5-0.46
		c-0.46-0.07-0.89-0.13-1.28-0.18C160.51,167.9,159.55,167.45,159.13,167.06"/>
	<path class="st1" d="M158.17,167.19c-0.07-0.13-0.13-0.27-0.16-0.41c-0.15-0.63,0.11-1.24,0.47-1.73
		c-4.3,0.58-8.66,0.72-13.01,0.42l-11.48,0.67c3.42,0.6,6.92,1.06,10.52,1.36C149.14,167.87,153.72,167.75,158.17,167.19"/>
	<path class="st1" d="M144.67,165.41c-1.52-0.13-3.03-0.29-4.52-0.47l-9.01,0.52c-0.03,0-0.06,0.01-0.09,0.02l-0.18,0.05
		c1.03,0.21,2.07,0.42,3.12,0.6l11.48-0.67C145.2,165.45,144.94,165.43,144.67,165.41"/>
	<path class="st1" d="M158.82,166.58c-0.14-0.58,0.49-1.3,0.97-1.73c-0.44,0.07-0.88,0.13-1.32,0.19c-0.36,0.5-0.62,1.1-0.47,1.73
		c0.03,0.14,0.09,0.28,0.16,0.41c0.32-0.04,0.64-0.08,0.96-0.13C158.93,166.88,158.85,166.72,158.82,166.58"/>
	<path class="st0" d="M79.38,121.42c7.32,28.35,38.24,48.71,77.87,49.18c38.23,0.46,69.34-32.63,66.97-61.81
		c-2.37-29.18-26.61-75.86-95-61.64c-23.41,4.87-41.74,22.59-48.11,43.3C78.16,100.07,77.43,113.85,79.38,121.42"/>
	<path class="st6" d="M79.38,121.42c7.32,28.35,38.24,48.71,77.87,49.18c38.23,0.46,69.34-32.63,66.97-61.81
		c-2.37-29.18-26.61-75.86-95-61.64c-23.41,4.87-41.74,22.59-48.11,43.3C78.16,100.07,77.43,113.85,79.38,121.42z"/>
	<path class="st1" d="M123.91,96.78c-0.7,2.57-3.02,4.19-5.19,3.6c-2.17-0.59-3.36-3.15-2.66-5.72c0.7-2.57,3.02-4.19,5.19-3.6
		C123.42,91.64,124.61,94.21,123.91,96.78"/>
	<path class="st1" d="M188,98.96c-0.62,2.29-3.33,3.56-6.05,2.82c-2.72-0.74-4.42-3.19-3.8-5.49c0.62-2.29,3.33-3.56,6.05-2.82
		C186.91,94.21,188.62,96.67,188,98.96"/>
	<path class="st1" d="M147.34,122.23c0.1,1.25-0.83,2.34-2.07,2.44c-1.25,0.1-2.34-0.83-2.44-2.07c-0.1-1.25,0.83-2.34,2.07-2.44
		C146.15,120.06,147.24,120.99,147.34,122.23"/>
	<path class="st1" d="M157.51,122.72c0.1,1.25-0.83,2.34-2.07,2.44c-1.25,0.1-2.34-0.83-2.44-2.07c-0.1-1.25,0.83-2.34,2.07-2.44
		C156.32,120.54,157.41,121.47,157.51,122.72"/>
	<path class="st7" d="M112.3,136.48c10,13.42,23.34,18.22,37.71,18.63c13.97,0.4,27.48-3.93,39.73-13.98"/>
	<path class="st8" d="M147.52,42.4c0.08,0.56,0.18,1.08,0.3,1.59c0.31-0.5,0.6-1.01,0.87-1.53c0.52-1.02,0.97-2.11,1.3-3.19
		c-0.25,0-0.5,0.02-0.74,0.08c-0.83,0.22-1.38,0.82-1.79,1.41c-0.03,0.04-0.05,0.09-0.08,0.13C147.41,41.39,147.45,41.9,147.52,42.4
		"/>
	<path class="st8" d="M159.8,44.63c0.84-0.7,1.62-1.47,2.23-2.24c-1.04,0.24-1.79,0.83-2.34,1.55c0.01,0.11,0.02,0.23,0.03,0.34
		C159.74,44.4,159.77,44.51,159.8,44.63"/>
	<path class="st8" d="M124.73,58.21c0.54,0.17,1.1,0.19,1.72,0.08c0.65-0.13,1.35-0.41,2.04-0.86c0.15-0.11,0.31-0.2,0.46-0.3
		l-3.56,0.16C125.17,57.6,124.95,57.91,124.73,58.21"/>
	<path class="st8" d="M172.35,50.35c0.02,0.07,0.03,0.15,0.04,0.22c0.07,0.25,0.15,0.49,0.25,0.72c0.56-0.55,0.99-1.21,1.23-2.02
		c0.1-0.32,0.14-0.59,0.15-0.81c-0.13,0.2-0.25,0.4-0.4,0.59C173.25,49.55,172.82,49.98,172.35,50.35"/>
	<path class="st8" d="M162.26,47.54c-0.1,0.08-0.21,0.17-0.31,0.25c0.08,0.06,0.17,0.12,0.26,0.18c0.37,0.24,0.77,0.44,1.19,0.6
		c1.5-1.29,2.53-2.78,1.97-4.37c-0.24,0.35-0.49,0.69-0.76,1C163.87,46.08,163.07,46.84,162.26,47.54"/>
	<path class="st8" d="M105.93,55.62c-0.14,0.3-0.51,0.43-0.81,0.29c-0.29-0.14-0.42-0.47-0.31-0.76l0-0.01l1.02-2.83l0.96-2.84
		l0.91-2.85c0.26-0.96,0.56-1.91,0.8-2.86c0.3-1.14,0.55-2.29,0.75-3.44c-3.11-0.24-8.43,3.28-10.73,6.57
		c-0.13,0.18-0.24,0.37-0.36,0.56c-0.01,0.26-0.02,0.52-0.03,0.78c0.02,3.69,0.81,7.49,2.56,10.59c0.87,1.54,1.98,2.89,3.31,3.79
		c1.31,0.93,2.81,1.41,4.41,1.41c3.25,0.07,6.44-1.82,9.08-4.38c0.33-0.31,0.64-0.64,0.96-0.97c-0.24-0.34-0.47-0.69-0.68-1.04
		l-12.18,0.55c5.44-9.3,6.65-14.23,5.74-16.42c-0.24,0.88-0.5,1.75-0.79,2.61C109.29,48.26,107.66,51.97,105.93,55.62"/>
	<path class="st8" d="M135.71,56.82l0.27-0.01c-0.07-0.02-0.13-0.05-0.2-0.07C135.76,56.76,135.73,56.79,135.71,56.82"/>
	<path class="st8" d="M137.35,57.01c-0.4-0.04-0.79-0.12-1.16-0.21l-0.21,0.01c1.79,0.56,3.46,0.36,5.01-0.22l-0.33,0.01
		C139.64,56.95,138.5,57.13,137.35,57.01"/>
	<path class="st8" d="M119.35,47.47c0.15,1.81,0.51,3.63,1.11,5.31c0.28,0.77,0.61,1.52,0.99,2.21c1-1.41,1.9-2.89,2.69-4.43
		c1.63-3.22,2.88-6.76,3.38-10.23c0-0.05,0-0.09,0-0.14c0.03-0.56,0.09-1.12,0.16-1.68c-0.66-0.48-1.47-0.9-2.41-0.93
		c-0.96-0.03-1.9,0.36-2.6,0.88c-1.38,1.03-2.41,2.4-3.18,3.91c-0.08,0.79-0.15,1.59-0.19,2.38
		C119.27,45.68,119.28,46.56,119.35,47.47"/>
	<path class="st8" d="M131.97,41.15c-0.01,0.04-0.01,0.08-0.02,0.12c-0.06,1.56,0.04,3.14,0.35,4.62c0.35,1.73,0.99,3.34,1.96,4.57
		c0.06,0.08,0.12,0.15,0.19,0.22c0.73-1.3,1.39-2.65,1.92-4.06c0.66-1.75,1.22-3.56,1.54-5.39c0.21-0.91,0.27-1.83,0.38-2.74
		c0.01-0.38,0.03-0.75,0.04-1.13C136.26,36.47,133.67,38.19,131.97,41.15"/>
	<path class="st8" d="M182.92,55.18c0.05,0.05,0.06,0.05,0.05,0.05c-0.01,0,0.01,0.01,0.09,0c0.08-0.01,0.21-0.07,0.34-0.13
		c0.19-0.11,0.39-0.26,0.59-0.44l-1.31,0.06c0.02,0.05,0.04,0.12,0.06,0.16C182.8,55.02,182.87,55.12,182.92,55.18"/>
	<path class="st1" d="M170.76,51.33c-0.04,0.02-0.07,0.04-0.1,0.05c-0.34,0.16-0.69,0.29-1.04,0.4c0.11,0.34,0.25,0.68,0.41,1.02
		c0.3-0.1,0.58-0.21,0.86-0.34C170.81,52.09,170.78,51.71,170.76,51.33"/>
	<path class="st1" d="M132.08,40.43c0.07-0.62,0.12-1.25,0.14-1.89c-0.1,0.65-0.19,1.3-0.24,1.96c-0.02,0.23-0.02,0.45-0.03,0.68
		c0-0.01,0.01-0.02,0.01-0.02C132,40.91,132.05,40.68,132.08,40.43"/>
	<path class="st1" d="M162.48,37.54c-0.05-0.03-0.04-0.03-0.01,0.01C162.54,37.56,162.56,37.57,162.48,37.54"/>
	<path class="st1" d="M135.24,56.54c0.18,0.08,0.36,0.14,0.54,0.2c0.01-0.02,0.03-0.03,0.04-0.05c-0.19-0.06-0.37-0.11-0.56-0.18
		C135.26,56.51,135.25,56.52,135.24,56.54"/>
	<path class="st1" d="M149.23,33.37c0.01-0.01,0.02-0.01,0.02-0.01C149.22,33.37,149.22,33.37,149.23,33.37"/>
	<path class="st1" d="M130.16,48.4c0-0.11,0-0.21,0-0.31c-0.3,0.81-0.62,1.61-0.97,2.4c0.43,0.94,0.97,1.84,1.65,2.69
		c0.33,0.41,0.7,0.8,1.09,1.17c0.05-0.06,0.11-0.12,0.16-0.19C130.74,52.48,130.22,50.37,130.16,48.4"/>
	<path class="st1" d="M132.08,54.16c-0.05,0.06-0.11,0.12-0.16,0.19c0.52,0.49,1.08,0.94,1.68,1.32c0.17,0.11,0.36,0.21,0.55,0.31
		C133.31,55.46,132.62,54.85,132.08,54.16"/>
	<path class="st1" d="M134.15,55.97c-0.18-0.1-0.37-0.2-0.55-0.31c-0.61-0.38-1.17-0.83-1.68-1.32c-0.45,0.54-0.92,1.06-1.41,1.54
		l-0.99,0.83c-0.18,0.15-0.38,0.28-0.57,0.4l5.99-0.27c0.1-0.11,0.2-0.21,0.3-0.32c-0.01,0-0.02-0.01-0.03-0.01
		C134.83,56.36,134.48,56.17,134.15,55.97"/>
	<path class="st1" d="M171.99,45.02c0.07-0.37,0.13-0.81,0.09-0.94c0-0.09-0.03,0.02,0.17,0.2c0.24,0.25,0.58,0.28,0.64,0.24
		c0.07-0.03-0.23,0.1-0.4,0.28c-0.1,0.09-0.17,0.19-0.22,0.27c-0.04,0.09-0.05,0.07-0.09,0.25c-0.15,0.71-0.19,1.68-0.16,2.56
		c0.9-0.55,2.05-0.68,2,0.58c0.55-0.88,0.92-1.85,1.1-2.81c0.09-0.62,0.22-1.18,0.1-2.06c-0.06-0.41-0.22-1-0.74-1.56
		c-0.61-0.61-1.48-0.73-2.04-0.63c-1.07,0.21-1.63,0.69-2.17,1.2c-0.26,0.26-0.49,0.57-0.7,0.92c-0.2,0.35-0.38,0.84-0.43,1.16
		c-0.23,1.25-0.22,2.29-0.18,3.4c0.01,0.15,0.02,0.29,0.03,0.44c0.85-0.32,1.57-0.79,2.06-1.44
		C171.51,46.51,171.82,45.82,171.99,45.02"/>
	<path class="st1" d="M172.06,55.19c0.12,0.07,0.24,0.14,0.37,0.2c-0.09-0.07-0.18-0.13-0.26-0.21L172.06,55.19z"/>
	<path class="st1" d="M128.8,33.72c-0.53,1.55-0.89,3.12-1.1,4.72c0,0.03,0,0.06,0,0.09c0.01,0.01,0.02,0.01,0.03,0.02
		c2.27,1.69,2.93,4,2.77,6.38c0.31-1.37,0.82-2.64,1.45-3.74c0.01-0.23,0.01-0.45,0.03-0.68c0.05-0.66,0.13-1.31,0.24-1.96
		c0.06-1.61-0.07-3.28-0.51-4.94c-0.31-1.11-0.77-2.21-1.38-3.23c-0.05,0.08-0.1,0.16-0.14,0.24
		C129.62,31.62,129.17,32.66,128.8,33.72"/>
	<path class="st1" d="M120.43,61.32c-2.76,2.23-6.3,4.31-10.35,4.8C97.86,67.6,94.02,54.36,98.16,47.45
		c0.06-1.59,0.26-3.16,0.7-4.63c0.26-0.86,0.56-1.65,1-2.43c0.44-0.78,0.93-1.55,1.51-2.27c1.14-1.44,2.48-2.79,3.95-3.8
		c0.73-0.49,1.51-0.91,2.21-1.09c0.35-0.11,0.65-0.11,0.88-0.1c0.21,0.05,0.36,0.08,0.5,0.25c0.32,0.28,0.57,1.07,0.67,1.91
		c0.03,0.44,0.08,0.87,0.05,1.34l-0.01,0.69l-0.06,0.71c-0.08,0.76-0.19,1.53-0.32,2.3c0.96,0.07,1.71,0.51,2.09,1.43
		c0.3-1.11,0.56-2.24,0.75-3.41l0.12-0.79l0.07-0.81c0.06-0.54,0.05-1.1,0.04-1.67c0.01-0.28-0.06-0.59-0.09-0.88l-0.06-0.45
		l-0.13-0.47c-0.09-0.31-0.18-0.62-0.37-0.95l-0.26-0.48c-0.11-0.15-0.24-0.31-0.37-0.46c-0.24-0.31-0.6-0.54-0.94-0.77
		c-0.35-0.2-0.76-0.33-1.13-0.42c-0.76-0.13-1.49-0.1-2.1,0.05c-1.26,0.27-2.3,0.8-3.26,1.38c-1.9,1.18-3.51,2.64-4.91,4.3
		c-0.71,0.82-1.34,1.72-1.93,2.68c-0.59,0.95-1.05,2.03-1.41,3.08c-0.72,2.12-1.03,4.3-1.12,6.47c-0.05,2.17,0.12,4.33,0.58,6.46
		c0.45,2.13,1.15,4.23,2.21,6.21c1.06,1.97,2.5,3.87,4.47,5.3c1.94,1.43,4.45,2.26,6.87,2.27c2.4,0.06,4.79-0.59,6.83-1.62
		c2.06-1.03,3.83-2.39,5.42-3.88c0.39-0.37,0.77-0.75,1.14-1.14c-0.36-0.21-0.71-0.44-1.03-0.69
		C120.62,61.15,120.53,61.24,120.43,61.32"/>
	<path class="st1" d="M117.47,50.11c0.19-2.29,0.73-5.2,2.03-7.74c0.02-0.16,0.03-0.31,0.05-0.47c0.22-1.89,0.58-3.74,1.11-5.49
		c0.55-1.73,1.29-3.37,2.29-4.62c0.11-0.17,0.26-0.29,0.39-0.44l0.19-0.22c0.05-0.05,0.09-0.09,0.14-0.13
		c0.19-0.16,0.39-0.26,0.52-0.3c0.15-0.04,0.16-0.03,0.26-0.02c0.1,0.02,0.3,0.11,0.53,0.29c0.23,0.17,0.5,0.44,0.75,0.74
		c0.27,0.27,0.46,0.61,0.69,0.91c0.39,0.66,0.7,1.38,0.92,2.15c0.3,1.14,0.4,2.38,0.35,3.66c0.21-1.59,0.58-3.17,1.1-4.72
		c0.36-1.06,0.81-2.1,1.38-3.12c0.04-0.08,0.1-0.16,0.14-0.24c-0.03-0.05-0.05-0.09-0.08-0.14c-0.36-0.51-0.69-1.04-1.13-1.49
		c-0.41-0.47-0.84-0.92-1.41-1.36c-0.56-0.43-1.26-0.84-2.14-1.07c-0.88-0.24-1.9-0.19-2.71,0.08c-0.83,0.26-1.51,0.68-2.09,1.16
		c-0.14,0.12-0.29,0.25-0.41,0.38l-0.31,0.34c-0.2,0.23-0.43,0.45-0.61,0.69c-1.52,1.91-2.41,4.02-3.08,6.11
		c-0.64,2.1-1.04,4.21-1.28,6.31c-0.12,1.05-0.21,2.1-0.26,3.16c-0.05,1.08-0.04,2.21,0.05,3.3c0.18,2.19,0.61,4.35,1.36,6.46
		c0.41,1.12,0.91,2.25,1.55,3.33l1.35-0.06C117.84,55.36,117.26,52.6,117.47,50.11"/>
	<path class="st1" d="M132.22,38.54c0.19-1.15,0.45-2.28,0.82-3.35c0.57-1.66,1.44-3.31,2.44-4.25c0.49-0.49,0.95-0.6,0.91-0.56
		c0,0.01,0.04,0.01,0.17,0.1c0.13,0.11,0.31,0.32,0.49,0.6c0.18,0.28,0.34,0.62,0.49,1c0.14,0.37,0.24,0.78,0.37,1.17
		c0.15,0.38,0.16,0.84,0.25,1.25c0.03,0.21,0.08,0.42,0.1,0.64l0.04,0.66c0.05,0.51,0.05,1.04,0.03,1.57
		c0.77,0.33,1.47,1.02,2.02,2.14c1.7,3.47,0.54,8.7-2.22,13.23c0.11,0,0.22-0.01,0.34-0.02c0.8-1.45,1.52-2.93,2.09-4.47
		c0.75-2,1.39-4.05,1.76-6.19c0.24-1.05,0.32-2.15,0.45-3.23c0.04-1.1,0.12-2.2,0.01-3.33l-0.05-0.84
		c-0.03-0.28-0.09-0.57-0.13-0.85c-0.12-0.57-0.14-1.13-0.34-1.71c-0.18-0.57-0.33-1.14-0.54-1.7c-0.23-0.56-0.49-1.13-0.85-1.7
		c-0.36-0.57-0.8-1.16-1.45-1.69c-0.65-0.53-1.55-0.99-2.55-1.09c-1-0.12-1.95,0.14-2.66,0.5c-0.73,0.35-1.31,0.8-1.79,1.26
		c-0.9,0.85-1.54,1.77-2.08,2.7c0.61,1.03,1.07,2.12,1.38,3.23C132.14,35.26,132.27,36.92,132.22,38.54"/>
	<path class="st1" d="M138.12,52.73c-0.82,1.34-1.78,2.62-2.85,3.78c0.18,0.07,0.37,0.12,0.56,0.18c0.68-0.86,1.31-1.75,1.89-2.67
		c0.26-0.43,0.51-0.87,0.75-1.31C138.35,52.72,138.23,52.73,138.12,52.73"/>
	<path class="st1" d="M135.82,56.69c0.12,0.04,0.24,0.08,0.37,0.11l4.47-0.2c0.24-0.08,0.48-0.16,0.7-0.26
		c1.18-0.52,2.17-1.21,3.05-1.93c0.87-0.73,1.64-1.49,2.36-2.25c0.23-0.24,0.45-0.49,0.68-0.74c-0.41-0.48-0.71-1.02-0.94-1.58
		c-0.1-0.1-0.21-0.2-0.31-0.31c-0.48-0.55-0.86-1.15-1.18-1.76c-0.43,0.48-0.86,0.96-1.33,1.44c-0.67,0.69-1.33,1.34-2.01,1.89
		c-1.11,0.91-2.22,1.5-3.22,1.61c-0.24,0.44-0.49,0.88-0.75,1.31C137.13,54.93,136.51,55.82,135.82,56.69"/>
	<path class="st1" d="M146.51,49.83c-0.15-0.37-0.28-0.75-0.37-1.14c-0.15-0.63-0.24-1.27-0.29-1.91c-0.08,0.1-0.16,0.21-0.24,0.31
		c-0.19,0.23-0.39,0.45-0.59,0.68c0.32,0.61,0.7,1.2,1.18,1.76C146.3,49.63,146.41,49.73,146.51,49.83"/>
	<path class="st1" d="M127.7,38.52c0-0.03,0-0.06,0-0.09c0,0.03-0.01,0.05-0.01,0.08C127.69,38.52,127.7,38.52,127.7,38.52"/>
	<path class="st1" d="M180.73,50.52c0.04-0.07-0.23,0.28-0.87,0.14c-0.14-0.03-0.29-0.1-0.4-0.19c-0.07-0.05-0.12-0.08-0.16-0.14
		c-0.11-0.15-0.08-0.1-0.1-0.14c-0.01-0.04,0.06,0.17,0.09,0.36c0.04,0.2,0.07,0.42,0.1,0.65c0.05,0.35,0.08,0.71,0.11,1.08
		c0.36-0.52,0.69-1.03,0.99-1.45C180.61,50.66,180.77,50.49,180.73,50.52"/>
	<path class="st1" d="M187.14,51.51c-0.66-0.2-1.36,0.17-1.56,0.83l-0.02,0.05c-0.08,0.27-0.28,0.66-0.51,1.01
		c-0.23,0.35-0.5,0.69-0.79,0.99c-0.09,0.1-0.19,0.18-0.29,0.27l2.94-0.13c-0.65,1.68-5.27,5.54-5.83,0.26l-1.17,0.05
		c0.1,0.39,0.24,0.8,0.45,1.22c0.16,0.31,0.36,0.63,0.65,0.94c0.3,0.31,0.72,0.6,1.21,0.75c0.5,0.14,0.99,0.12,1.4,0.02
		c0.42-0.1,0.74-0.26,1.05-0.43c0.59-0.35,1.04-0.77,1.45-1.2c0.4-0.43,0.75-0.89,1.06-1.39c0.31-0.5,0.58-1.01,0.78-1.7
		C188.16,52.4,187.79,51.71,187.14,51.51"/>
	<path class="st1" d="M172.17,55.18l4.76-0.21c0.72-0.46,1.28-1.04,1.75-1.59c0.3-0.36,0.57-0.73,0.83-1.09
		c-0.03-0.37-0.07-0.73-0.11-1.08c-0.03-0.23-0.06-0.45-0.11-0.65c-0.03-0.18-0.1-0.39-0.09-0.36c0.02,0.04-0.01-0.01,0.1,0.14
		c0.05,0.06,0.09,0.09,0.16,0.14c0.11,0.09,0.26,0.16,0.4,0.19c0.64,0.14,0.91-0.21,0.87-0.14c0.03-0.03-0.12,0.14-0.24,0.31
		c-0.3,0.43-0.63,0.94-0.99,1.45c0.01,0.12,0.02,0.23,0.03,0.36c0,0.01,0,0.01,0,0.02c0.88-0.91,1.33-1,1.5,1.73
		c0.01,0.14,0.02,0.26,0.04,0.39l1.59-0.07c-0.11-0.27-0.2-0.59-0.26-0.94c-0.08-0.42-0.13-0.88-0.16-1.34
		c-0.03-0.48-0.07-1.03-0.13-1.56c-0.03-0.27-0.07-0.55-0.12-0.84c-0.06-0.31-0.1-0.59-0.33-1.08c-0.09-0.15-0.09-0.23-0.3-0.46
		c-0.09-0.1-0.18-0.19-0.29-0.27c-0.17-0.11-0.37-0.21-0.57-0.26c-0.88-0.18-1.41,0.29-1.54,0.4c-0.41,0.36-0.57,0.59-0.75,0.83
		c-0.65,0.9-1.14,1.67-1.72,2.33c-0.57,0.65-1.19,1.13-1.73,1.28c-0.26,0.08-0.56,0.09-0.79,0.04c-0.23-0.05-0.41-0.15-0.61-0.34
		c-0.28-0.25-0.53-0.68-0.73-1.19c-0.49,0.48-1.08,0.87-1.76,1.18C171.06,53.51,171.45,54.51,172.17,55.18"/>
	<path class="st1" d="M121.56,60.35c-0.28,0.25-0.56,0.49-0.85,0.72c0.32,0.25,0.67,0.48,1.03,0.69c0.26-0.27,0.51-0.55,0.76-0.83
		C122.17,60.76,121.86,60.57,121.56,60.35"/>
	<path class="st1" d="M129.35,60.85c-2.72,1.17-5.01,1.02-6.84,0.08c-0.25,0.28-0.5,0.56-0.76,0.83c0.45,0.26,0.91,0.5,1.42,0.68
		c1.33,0.47,2.82,0.53,4.14,0.26c1.32-0.26,2.51-0.79,3.5-1.43c0.49-0.33,1.02-0.63,1.46-0.99l1.31-1.11
		c0.77-0.75,1.48-1.53,2.13-2.35l-0.77,0.03C133.28,58.57,131.38,59.98,129.35,60.85"/>
	<path class="st1" d="M124.55,57.32l0.83-0.04c1.03-1.49,1.97-3.05,2.79-4.66c0.36-0.7,0.69-1.42,1.01-2.14
		c-0.04-0.08-0.08-0.16-0.11-0.25c0,0,0,0,0,0C127.99,52.7,126.46,55.1,124.55,57.32"/>
	<path class="st1" d="M158.49,46.48c0.1-0.35,0.22-0.72,0.38-1.1c-0.66,0.53-1.33,1.01-2.01,1.43c0.39,0.88,0.91,1.69,1.55,2.4
		C158.2,48.42,158.19,47.52,158.49,46.48"/>
	<path class="st1" d="M160.24,50.77c0.05,0.03,0.09,0.07,0.14,0.09c1.03,0.64,2.16,1.08,3.34,1.33c0.59,0.13,1.19,0.2,1.82,0.2
		c0.61,0.01,1.14-0.03,1.72-0.09c0.78-0.09,1.58-0.25,2.36-0.51c-0.05-0.13-0.09-0.27-0.13-0.4c-0.27-0.97-0.42-1.92-0.49-2.87
		c-0.64,0.24-1.36,0.41-2.1,0.48c-0.42,0.04-0.9,0.07-1.29,0.05c-0.38-0.01-0.78-0.06-1.17-0.15c-0.35-0.08-0.69-0.19-1.03-0.32
		c-0.68,0.59-1.46,1.13-2.23,1.62C160.86,50.39,160.56,50.58,160.24,50.77"/>
	<path class="st1" d="M169.49,51.39c0.04,0.13,0.08,0.27,0.13,0.4c0.35-0.12,0.7-0.24,1.04-0.4c0.04-0.02,0.07-0.04,0.11-0.05
		c-0.04-1.14,0.12-2.15,0.33-2.55c0.17-0.32,0.52-0.65,0.92-0.89c-0.03-0.88,0.01-1.85,0.16-2.56c0.04-0.18,0.05-0.16,0.09-0.25
		c0.05-0.08,0.13-0.18,0.22-0.27c0.17-0.19,0.48-0.31,0.4-0.29c-0.07,0.04-0.41,0.01-0.64-0.24c-0.2-0.18-0.16-0.28-0.17-0.2
		c0.03,0.13-0.03,0.57-0.09,0.94c-0.16,0.79-0.48,1.49-0.93,2.05c-0.49,0.65-1.22,1.12-2.06,1.44
		C169.07,49.47,169.21,50.42,169.49,51.39"/>
	<path class="st1" d="M148.43,51.27c0.37,0.19,0.75,0.36,1.14,0.48c1.21,0.37,2.48,0.52,3.74,0.41c1.26-0.11,2.45-0.46,3.51-0.94
		c0.7-0.32,1.34-0.68,1.95-1.07c-0.16-0.29-0.28-0.6-0.37-0.94c-0.63-0.71-1.16-1.52-1.55-2.4c-0.53,0.33-1.06,0.64-1.6,0.87
		c-1.43,0.64-2.84,0.78-4.2,0.42C150.32,49.21,149.43,50.27,148.43,51.27"/>
	<path class="st1" d="M159.68,43.94c-0.06-0.67-0.07-1.36,0.08-2.07c0.13-0.85,0.38-1.77,0.69-2.5c0.3-0.76,0.74-1.33,1.12-1.59
		c0.19-0.12,0.38-0.18,0.6-0.22c0.13-0.02,0.23-0.01,0.3-0.01c-0.03-0.03-0.04-0.04,0.02-0.01c0.07,0.03,0.06,0.02-0.02,0.01
		c0.01,0.01,0.01,0.01,0.03,0.03c0.07,0.08,0.17,0.27,0.25,0.42c0.1,0.15,0.17,0.31,0.23,0.46c0.08,0.15,0.12,0.31,0.15,0.46
		c0.14,0.6,0.11,1.19-0.14,1.84c-0.21,0.54-0.54,1.08-0.96,1.62c0.27-0.06,0.55-0.1,0.86-0.11c0.37-0.01,0.76,0.03,1.07,0.17
		c0.28,0.12,0.48,0.31,0.66,0.51c0.38,0.42,0.61,0.84,0.75,1.25c0.44-0.63,0.84-1.33,1.14-2.12c0.47-1.22,0.59-2.73,0.23-4.07
		c-0.08-0.34-0.19-0.67-0.33-0.97c-0.13-0.31-0.27-0.61-0.45-0.88c-0.17-0.28-0.3-0.54-0.56-0.85c-0.24-0.31-0.59-0.68-1.1-0.97
		c-1.03-0.55-1.9-0.5-2.62-0.41c-0.77,0.11-1.55,0.41-2.19,0.85c-1.27,0.92-1.93,2.12-2.38,3.22c-0.45,1.13-0.71,2.17-0.87,3.31
		c-0.21,1.15-0.18,2.37,0.01,3.59c0.12,0.66,0.32,1.3,0.6,1.92c0.68-0.42,1.35-0.91,2.01-1.43
		C159.08,44.89,159.34,44.39,159.68,43.94"/>
	<path class="st1" d="M130.16,48.09c0-0.39,0.01-0.78,0.04-1.17c-0.27,1.15-0.67,2.28-1.12,3.32c0.04,0.08,0.08,0.17,0.11,0.25
		C129.53,49.7,129.86,48.9,130.16,48.09"/>
	<path class="st1" d="M145.85,46.78c-0.14-2.01,0.27-4.02,1.53-5.89c-0.02-0.4-0.04-0.79-0.03-1.19c0.03-1.78,0.37-3.5,1.08-5.05
		c0.19-0.39,0.37-0.77,0.54-0.99c0.12-0.18,0.22-0.26,0.26-0.29c-0.01,0,0,0,0.02-0.01c0.01,0,0,0-0.02,0.01
		c0.01,0,0.06,0,0.16,0.03c0.15,0.04,0.4,0.19,0.54,0.29c0.28,0.24,0.52,0.66,0.62,1.36c0.11,0.68,0.06,1.51-0.07,2.35
		c-0.1,0.61-0.27,1.24-0.47,1.87c0.32,0,0.63,0.05,0.93,0.14c1.8,0.51,2.32,1.84,2.28,3.22c0.6-1.44,1.07-2.93,1.35-4.57
		c0.17-1.15,0.26-2.34,0.05-3.65c-0.09-0.65-0.3-1.34-0.62-2.02c-0.32-0.68-0.85-1.33-1.46-1.86c-0.32-0.24-0.65-0.49-1-0.64
		c-0.34-0.18-0.7-0.34-1.12-0.44c-0.8-0.21-1.84-0.24-2.81,0.2c-0.95,0.43-1.54,1.11-1.95,1.69c-0.42,0.6-0.66,1.13-0.9,1.65
		c-0.96,2.12-1.37,4.44-1.39,6.67c-0.01,1.12,0.08,2.22,0.24,3.31c0.16,1.06,0.37,2.19,0.78,3.31c0.18,0.5,0.4,1,0.66,1.49
		c0.2-0.22,0.4-0.45,0.59-0.68C145.69,46.99,145.77,46.88,145.85,46.78"/>
	<path class="st1" d="M127.52,40.2c0,0.05,0,0.09,0,0.14c0.02-0.15,0.05-0.29,0.07-0.43c0.06-0.46,0.09-0.93,0.11-1.38
		c0,0-0.01-0.01-0.01-0.01C127.61,39.07,127.56,39.64,127.52,40.2"/>
	<path class="st1" d="M130.16,48.09c0.16-0.45,0.32-0.9,0.47-1.35c0.58-1.76,1.04-3.58,1.32-5.47c0-0.03,0-0.06,0-0.1
		c-0.63,1.1-1.14,2.37-1.45,3.74c-0.04,0.66-0.15,1.33-0.31,2C130.16,47.3,130.15,47.7,130.16,48.09"/>
	<path class="st1" d="M130.5,44.92c-0.15,0.65-0.25,1.31-0.31,2C130.35,46.26,130.46,45.59,130.5,44.92"/>
	<path class="st1" d="M127.52,40.34c-0.12,2.15,0,4.3,0.45,6.46c0.25,1.15,0.6,2.31,1.1,3.43c0.46-1.04,0.86-2.17,1.12-3.32
		c0.05-0.68,0.16-1.35,0.31-2c0.16-2.38-0.5-4.69-2.77-6.38c-0.01-0.01-0.02-0.01-0.03-0.02c-0.02,0.46-0.06,0.92-0.11,1.38
		C127.57,40.05,127.54,40.19,127.52,40.34"/>
	<path class="st1" d="M129.07,50.24C129.07,50.24,129.07,50.24,129.07,50.24c-0.5-1.13-0.85-2.29-1.1-3.43
		c-0.46-2.16-0.58-4.32-0.45-6.46c-0.5,3.47-1.74,7-3.37,10.23c-0.78,1.54-1.69,3.02-2.69,4.43c0.44,0.8,0.94,1.53,1.52,2.09
		c0.11,0.1,0.21,0.2,0.32,0.29l1.26-0.06C126.46,55.1,127.99,52.7,129.07,50.24"/>
	<path class="st1" d="M186.92,54.52l-2.94,0.13c-0.2,0.17-0.4,0.33-0.59,0.44c-0.13,0.07-0.26,0.12-0.34,0.13
		c-0.08,0.01-0.1,0-0.09,0c0.01-0.01,0,0-0.05-0.06c-0.05-0.06-0.12-0.16-0.19-0.3c-0.02-0.05-0.04-0.11-0.06-0.16l-1.59,0.07
		C181.65,60.06,186.27,56.2,186.92,54.52"/>
	<path class="st1" d="M124.55,57.32l-1.25,0.06c0.24,0.2,0.49,0.38,0.74,0.52C124.21,57.71,124.39,57.52,124.55,57.32"/>
	<path class="st1" d="M137.9,41.23c-0.32,1.83-0.88,3.64-1.54,5.39c-0.53,1.41-1.19,2.76-1.92,4.06c0.93,1.1,2.25,1.92,3.34,2.03
		c0.11,0.01,0.23,0.02,0.34,0.02c2.76-4.53,3.92-9.76,2.22-13.23c-0.55-1.13-1.25-1.81-2.02-2.14c-0.01,0.38-0.03,0.75-0.04,1.13
		C138.16,39.4,138.11,40.32,137.9,41.23"/>
	<path class="st1" d="M132.08,54.16c0.65-0.79,1.25-1.63,1.81-2.51c0.19-0.32,0.37-0.65,0.55-0.97c-0.06-0.07-0.13-0.14-0.19-0.22
		c-0.97-1.22-1.61-2.84-1.96-4.57c-0.3-1.48-0.41-3.05-0.35-4.62c-0.29,1.89-0.75,3.71-1.32,5.47c-0.15,0.45-0.31,0.9-0.47,1.35
		c0,0.1,0,0.21,0,0.31C130.22,50.37,130.74,52.48,132.08,54.16"/>
	<path class="st1" d="M134.44,50.68c-0.18,0.33-0.36,0.65-0.55,0.97c-0.56,0.88-1.17,1.72-1.81,2.51c0.55,0.69,1.23,1.3,2.07,1.81
		c0.36,0.19,0.73,0.38,1.12,0.53c1.07-1.15,2.04-2.43,2.86-3.78c-0.11,0-0.23,0-0.34-0.02C136.7,52.6,135.37,51.78,134.44,50.68"/>
	<path class="st1" d="M137.35,57.01c1.14,0.12,2.29-0.07,3.31-0.42l-4.47,0.2C136.57,56.9,136.95,56.98,137.35,57.01"/>
	<path class="st1" d="M121.46,55c-0.63,0.88-1.29,1.74-2,2.55l3.84-0.17c-0.11-0.09-0.22-0.19-0.32-0.29
		C122.4,56.52,121.9,55.8,121.46,55"/>
	<path class="st1" d="M124.55,57.32c-0.17,0.19-0.34,0.38-0.52,0.58c0.2,0.11,0.4,0.22,0.6,0.29c0.03,0.01,0.06,0.01,0.08,0.02
		c0.23-0.3,0.44-0.61,0.66-0.93L124.55,57.32z"/>
	<path class="st1" d="M131.97,41.15c-0.01,0.01-0.01,0.02-0.01,0.02c0,0.03,0,0.06,0,0.09C131.96,41.23,131.96,41.19,131.97,41.15"
		/>
	<path class="st1" d="M163.96,42.44c-0.32-0.14-0.7-0.18-1.07-0.17c-0.31,0.01-0.59,0.05-0.86,0.11c-0.61,0.78-1.39,1.54-2.23,2.24
		c0.31,1.27,1.05,2.38,2.15,3.16c0.1-0.08,0.21-0.17,0.31-0.25c0.81-0.7,1.62-1.46,2.36-2.34c0.26-0.31,0.51-0.65,0.76-1
		c-0.14-0.41-0.38-0.82-0.75-1.25C164.44,42.76,164.23,42.57,163.96,42.44"/>
	<path class="st1" d="M161.95,47.79c-0.88,0.74-1.81,1.46-2.83,2.13c0.35,0.31,0.73,0.6,1.12,0.85c0.31-0.19,0.62-0.38,0.93-0.57
		c0.77-0.49,1.55-1.04,2.23-1.62c-0.42-0.16-0.82-0.36-1.19-0.6C162.12,47.92,162.04,47.85,161.95,47.79"/>
	<path class="st1" d="M150.32,47.85c-0.46,0.66-0.94,1.3-1.44,1.92c-0.33,0.4-0.66,0.79-1,1.17c0.18,0.11,0.37,0.22,0.56,0.32
		c1-0.99,1.89-2.05,2.63-3.15c-0.1-0.03-0.21-0.05-0.31-0.08C150.61,47.98,150.46,47.92,150.32,47.85"/>
	<path class="st1" d="M150.92,39.41c-0.29-0.08-0.61-0.13-0.93-0.14c-0.34,1.08-0.78,2.17-1.3,3.19c-0.27,0.52-0.56,1.03-0.87,1.53
		c0.08,0.33,0.16,0.66,0.27,0.97c0.48,1.38,1.23,2.41,2.23,2.9c0.78-1.11,1.49-2.27,2.11-3.5c0.28-0.57,0.54-1.15,0.78-1.73
		C153.25,41.24,152.73,39.92,150.92,39.41"/>
	<path class="st1" d="M172.02,47.89c0,0.02,0,0.03,0,0.05c0.03,0.83,0.14,1.65,0.33,2.42c0.47-0.37,0.9-0.8,1.27-1.29
		c0.15-0.19,0.27-0.39,0.4-0.59C174.07,47.21,172.92,47.34,172.02,47.89"/>
	<path class="st1" d="M172.35,50.35c-0.5,0.4-1.03,0.72-1.58,0.98c0.01,0.37,0.05,0.76,0.12,1.14c0.68-0.31,1.27-0.7,1.76-1.18
		c-0.09-0.23-0.18-0.47-0.25-0.72C172.37,50.5,172.37,50.42,172.35,50.35"/>
	<path class="st1" d="M119.25,57.79c-0.04-0.07-0.09-0.15-0.13-0.22l-1.35,0.06c0.21,0.35,0.44,0.7,0.68,1.04
		C118.72,58.38,118.99,58.08,119.25,57.79"/>
	<path class="st1" d="M170.88,52.48c-0.27,0.12-0.56,0.24-0.86,0.34c0.31,0.65,0.73,1.3,1.36,1.88c0.2,0.19,0.44,0.35,0.68,0.5
		l0.11-0.01C171.45,54.51,171.06,53.51,170.88,52.48"/>
	<path class="st1" d="M175.6,55.6c0.5-0.16,0.94-0.37,1.33-0.63l-4.76,0.21c0.08,0.08,0.17,0.14,0.26,0.21
		c0.31,0.15,0.64,0.27,0.98,0.33C174.17,55.86,174.9,55.8,175.6,55.6"/>
	<path class="st1" d="M181.05,54.39c-0.17-2.73-0.62-2.63-1.5-1.73c0.05,0.53,0.11,1.07,0.23,1.63c0.04,0.18,0.08,0.36,0.13,0.54
		l1.18-0.05C181.07,54.66,181.06,54.53,181.05,54.39"/>
	<path class="st1" d="M121.46,55c-0.38-0.69-0.72-1.44-0.99-2.21c-0.6-1.68-0.97-3.5-1.11-5.31c-0.07-0.92-0.09-1.8-0.04-2.73
		c0.04-0.8,0.1-1.59,0.19-2.38c-1.3,2.54-1.85,5.46-2.03,7.75c-0.2,2.49,0.38,5.25,1.66,7.45l0.34-0.02
		C120.17,56.74,120.83,55.88,121.46,55"/>
	<path class="st1" d="M109.25,40.33c-0.2,1.15-0.45,2.3-0.75,3.44c-0.23,0.96-0.53,1.91-0.8,2.86l-0.91,2.85l-0.96,2.84l-1.02,2.83
		l0,0.01c-0.1,0.29,0.03,0.62,0.31,0.76c0.3,0.15,0.67,0.02,0.81-0.29c1.74-3.65,3.36-7.36,4.62-11.25
		c0.29-0.86,0.55-1.73,0.79-2.61C110.96,40.84,110.21,40.4,109.25,40.33"/>
	<path class="st1" d="M135.24,56.54c-0.1,0.11-0.2,0.22-0.3,0.32l0.77-0.03c0.02-0.03,0.05-0.06,0.07-0.09
		C135.6,56.67,135.42,56.61,135.24,56.54"/>
	<path class="st1" d="M172.02,47.94c0-0.02,0-0.03,0-0.05c-0.4,0.24-0.75,0.57-0.92,0.89c-0.21,0.41-0.38,1.41-0.33,2.55
		c0.55-0.26,1.09-0.59,1.58-0.98C172.16,49.59,172.05,48.77,172.02,47.94"/>
	<path class="st1" d="M123.3,57.38l-3.84,0.17c-0.07,0.08-0.14,0.16-0.21,0.23c0.62,1.01,1.39,1.89,2.31,2.56
		c0.88-0.78,1.71-1.6,2.48-2.45C123.79,57.76,123.54,57.58,123.3,57.38"/>
	<path class="st1" d="M128.48,57.42c-0.69,0.46-1.39,0.73-2.04,0.87c-0.62,0.12-1.18,0.09-1.72-0.08c-0.69,0.94-1.44,1.85-2.22,2.72
		c1.83,0.94,4.13,1.09,6.84-0.08c2.03-0.87,3.93-2.28,5.59-4l-6,0.27C128.79,57.22,128.63,57.32,128.48,57.42"/>
	<path class="st1" d="M119.25,57.79c-0.26,0.3-0.53,0.59-0.8,0.88c0.4,0.56,0.85,1.1,1.36,1.62c0.28,0.27,0.59,0.53,0.91,0.78
		c0.29-0.24,0.57-0.48,0.84-0.72C120.64,59.68,119.87,58.8,119.25,57.79"/>
	<path class="st1" d="M124.73,58.21c-0.03-0.01-0.06-0.01-0.08-0.02c-0.2-0.07-0.4-0.17-0.6-0.29c-0.77,0.85-1.6,1.67-2.48,2.45
		c0.3,0.22,0.61,0.41,0.94,0.58C123.29,60.06,124.03,59.15,124.73,58.21"/>
	<path class="st1" d="M119.46,57.55l-0.34,0.02c0.04,0.07,0.09,0.15,0.13,0.22C119.32,57.71,119.39,57.63,119.46,57.55"/>
	<path class="st1" d="M119.81,60.29c-0.51-0.52-0.96-1.06-1.36-1.62c-0.31,0.33-0.63,0.65-0.96,0.96c-2.65,2.56-5.83,4.45-9.08,4.38
		c-1.6,0.01-3.11-0.48-4.41-1.4c-1.32-0.9-2.44-2.25-3.31-3.79c-1.75-3.1-2.54-6.9-2.56-10.59c0-0.26,0.02-0.52,0.03-0.78
		c-4.14,6.91-0.3,20.15,11.92,18.66c4.05-0.49,7.59-2.57,10.35-4.8c0.1-0.08,0.19-0.17,0.29-0.24
		C120.39,60.82,120.09,60.56,119.81,60.29"/>
	<path class="st1" d="M147.52,42.4c-0.07-0.51-0.12-1.01-0.14-1.51c-1.26,1.87-1.67,3.88-1.53,5.89c0.72-0.89,1.38-1.82,1.97-2.79
		C147.7,43.49,147.6,42.97,147.52,42.4"/>
	<path class="st1" d="M159.8,44.63c-0.03-0.12-0.06-0.23-0.08-0.35c-0.01-0.11-0.02-0.23-0.03-0.34c-0.34,0.45-0.61,0.95-0.81,1.45
		C159.18,45.14,159.48,44.89,159.8,44.63C159.79,44.63,159.79,44.63,159.8,44.63"/>
	<path class="st1" d="M134.15,55.97c0.33,0.2,0.68,0.39,1.06,0.55c0.01,0,0.02,0.01,0.03,0.01c0.01-0.01,0.02-0.02,0.03-0.03
		C134.88,56.35,134.51,56.17,134.15,55.97"/>
	<path class="st1" d="M161.95,47.79c-1.11-0.79-1.84-1.9-2.15-3.16c0,0-0.01,0.01-0.01,0.01c-0.3,0.26-0.61,0.5-0.92,0.75
		c-0.16,0.38-0.28,0.76-0.38,1.1c-0.3,1.03-0.29,1.94-0.08,2.73c0.22,0.25,0.46,0.49,0.71,0.71
		C160.14,49.26,161.07,48.53,161.95,47.79"/>
	<path class="st1" d="M146.51,49.83c0.23,0.56,0.53,1.1,0.94,1.58c0.14-0.15,0.28-0.3,0.43-0.46
		C147.37,50.63,146.91,50.25,146.51,49.83"/>
	<path class="st1" d="M158.41,49.21c0.09,0.33,0.21,0.64,0.37,0.93c0.12-0.07,0.23-0.15,0.35-0.22
		C158.87,49.7,158.63,49.46,158.41,49.21"/>
	<path class="st1" d="M147.88,50.95c0.34-0.38,0.68-0.77,1-1.17c0.51-0.62,0.98-1.26,1.44-1.92c-1-0.48-1.75-1.51-2.23-2.9
		c-0.11-0.3-0.19-0.63-0.27-0.96c-0.59,0.96-1.25,1.89-1.97,2.78c0.04,0.64,0.14,1.28,0.29,1.91c0.09,0.38,0.22,0.76,0.37,1.14
		C146.92,50.25,147.37,50.63,147.88,50.95"/>
</g>
</svg>
