<?xml version="1.0" encoding="utf-8"?>
<!-- Generator: Adobe Illustrator 23.0.2, SVG Export Plug-In . SVG Version: 6.00 Build 0)  -->
<svg version="1.1" id="Laag_1" xmlns="http://www.w3.org/2000/svg" xmlns:xlink="http://www.w3.org/1999/xlink" x="0px" y="0px"
	 viewBox="0 0 2590 1425" style="enable-background:new 0 0 2590 1425;" xml:space="preserve">
<style type="text/css">
	.st0{fill:#FFFFFF;}
	.st1{fill:#68B8A7;}
	.st2{fill:#E79B24;}
</style>
<g>
	<g>
		<path class="st0" d="M519.5-708.39v192.28h84.93c8.65,0,15.29,2.1,19.91,6.3c4.63,4.21,6.94,9.5,6.94,15.86
			c0,6.49-2.28,11.74-6.85,15.78c-4.57,4.02-11.24,6.03-20,6.03H498.78c-11.65,0-20.03-2.58-25.14-7.75
			c-5.11-5.16-7.66-13.51-7.66-25.04v-203.45c0-10.81,2.43-18.92,7.3-24.32c4.86-5.41,11.26-8.11,19.19-8.11
			c8.05,0,14.57,2.67,19.55,8.02C517.01-727.46,519.5-719.32,519.5-708.39z"/>
		<path class="st0" d="M604.43-467.77H498.78c-12.81,0-22.32-3.05-28.25-9.06c-5.91-5.98-8.92-15.44-8.92-28.11v-203.45
			c0-11.88,2.83-21.04,8.42-27.25c5.71-6.34,13.26-9.56,22.44-9.56c9.27,0,16.92,3.17,22.74,9.41c5.74,6.15,8.65,15.37,8.65,27.4
			v187.91h80.57c9.73,0,17.42,2.5,22.85,7.44c5.56,5.05,8.37,11.47,8.37,19.09c0,7.76-2.8,14.16-8.32,19.04
			C621.95-470.17,614.25-467.77,604.43-467.77z M492.48-736.46c-6.69,0-11.91,2.18-15.94,6.67c-4.1,4.55-6.18,11.75-6.18,21.4
			v203.45c0,10.29,2.15,17.68,6.4,21.97c4.23,4.29,11.65,6.46,22.03,6.46h105.65c7.63,0,13.39-1.67,17.12-4.95
			c3.61-3.19,5.37-7.28,5.37-12.5c0-5.12-1.8-9.26-5.52-12.63c-3.77-3.42-9.48-5.16-16.97-5.16h-89.3v-196.65
			c0-9.74-2.12-16.96-6.31-21.44C504.67-734.29,499.32-736.46,492.48-736.46z"/>
	</g>
	<g>
		<path class="st0" d="M862.31-567.65c0,14.66-2.28,28.17-6.85,40.54c-4.57,12.38-11.17,23.01-19.82,31.9
			c-8.65,8.89-18.99,15.71-30.99,20.45c-12.02,4.74-25.53,7.12-40.55,7.12c-14.9,0-28.29-2.41-40.19-7.21
			c-11.89-4.8-22.19-11.68-30.91-20.62c-8.71-8.95-15.31-19.53-19.82-31.72c-4.5-12.2-6.75-25.68-6.75-40.46
			c0-14.89,2.28-28.53,6.85-40.91c4.56-12.37,11.11-22.94,19.64-31.72c8.53-8.77,18.86-15.52,30.99-20.26
			c12.13-4.76,25.52-7.13,40.19-7.13c14.89,0,28.41,2.41,40.55,7.21c12.13,4.81,22.53,11.66,31.17,20.54
			c8.65,8.89,15.23,19.46,19.73,31.72C860.06-595.95,862.31-582.43,862.31-567.65z M812.93-567.65c0-20.07-4.41-35.68-13.25-46.85
			c-8.82-11.17-20.69-16.76-35.59-16.76c-9.61,0-18.08,2.5-25.41,7.49c-7.33,4.98-12.97,12.34-16.94,22.07
			c-3.96,9.73-5.95,21.09-5.95,34.06c0,12.86,1.95,24.09,5.86,33.69c3.9,9.61,9.49,16.97,16.75,22.08
			c7.27,5.1,15.83,7.66,25.68,7.66c14.89,0,26.76-5.62,35.59-16.85C808.52-532.31,812.93-547.83,812.93-567.65z"/>
		<path class="st0" d="M764.1-463.28c-15.39,0-29.46-2.53-41.82-7.53c-12.37-4.99-23.27-12.26-32.4-21.62
			c-9.09-9.34-16.09-20.53-20.79-33.25c-4.66-12.65-7.03-26.77-7.03-41.97c0-15.35,2.39-29.62,7.11-42.42
			c4.76-12.88,11.69-24.07,20.61-33.25c8.92-9.17,19.87-16.34,32.54-21.29c12.57-4.93,26.63-7.43,41.78-7.43
			c15.37,0,29.55,2.53,42.16,7.52c12.66,5.02,23.65,12.27,32.69,21.55c9.05,9.31,16.02,20.5,20.7,33.26
			c4.66,12.67,7.03,26.83,7.03,42.06c0,15.09-2.39,29.24-7.11,42.05c-4.76,12.9-11.76,24.14-20.79,33.43
			c-9.05,9.3-19.99,16.52-32.52,21.46C793.78-465.77,779.6-463.28,764.1-463.28z M764.1-663.3c-14.06,0-27.04,2.3-38.59,6.82
			c-11.5,4.5-21.41,10.97-29.45,19.25c-8.07,8.29-14.35,18.45-18.68,30.18c-4.36,11.83-6.57,25.09-6.57,39.4
			c0,14.18,2.18,27.28,6.49,38.94c4.28,11.57,10.62,21.72,18.86,30.19c8.27,8.48,18.16,15.08,29.41,19.62
			c11.32,4.57,24.29,6.89,38.55,6.89c14.4,0,27.5-2.29,38.94-6.81c11.38-4.5,21.29-11.03,29.47-19.44
			c8.17-8.4,14.52-18.62,18.86-30.36c4.36-11.84,6.57-24.97,6.57-39.03c0-14.2-2.18-27.34-6.49-39.05
			c-4.26-11.61-10.57-21.75-18.76-30.18c-8.17-8.39-18.14-14.96-29.65-19.52C791.46-660.98,778.36-663.3,764.1-663.3z M764.1-499.86
			c-10.72,0-20.2-2.84-28.19-8.45c-7.94-5.58-14.09-13.66-18.29-24.01c-4.09-10.08-6.18-21.97-6.18-35.33
			c0-13.5,2.11-25.51,6.27-35.71c4.28-10.5,10.51-18.59,18.53-24.03c8.02-5.46,17.4-8.24,27.86-8.24c16.23,0,29.36,6.2,39.02,18.42
			c9.41,11.91,14.19,28.58,14.19,49.56c0,20.73-4.77,37.31-14.18,49.29C793.46-506.08,780.34-499.86,764.1-499.86z M764.1-626.9
			c-8.67,0-16.39,2.26-22.95,6.73c-6.57,4.46-11.74,11.22-15.35,20.11c-3.73,9.15-5.62,20.05-5.62,32.42
			c0,12.24,1.86,23.02,5.53,32.05c3.56,8.77,8.68,15.55,15.22,20.15c6.58,4.62,14.16,6.86,23.17,6.86
			c13.61,0,24.13-4.96,32.15-15.18c8.17-10.39,12.32-25.16,12.32-43.89c0-18.97-4.14-33.82-12.3-44.15
			C788.23-621.96,777.71-626.9,764.1-626.9z"/>
	</g>
	<g>
		<path class="st0" d="M1093.32-567.89c0,14.66-2.28,28.17-6.85,40.54c-4.57,12.38-11.17,23.01-19.82,31.9
			c-8.65,8.89-18.99,15.71-30.99,20.45c-12.02,4.74-25.53,7.12-40.55,7.12c-14.9,0-28.29-2.41-40.19-7.21
			c-11.89-4.8-22.19-11.68-30.91-20.62c-8.71-8.95-15.31-19.53-19.82-31.72c-4.5-12.2-6.75-25.68-6.75-40.46
			c0-14.89,2.28-28.53,6.85-40.91c4.56-12.37,11.11-22.94,19.64-31.72c8.53-8.77,18.86-15.52,30.99-20.26
			c12.13-4.76,25.52-7.13,40.19-7.13c14.89,0,28.41,2.41,40.55,7.21c12.13,4.81,22.53,11.66,31.17,20.54
			c8.65,8.89,15.23,19.46,19.73,31.72C1091.08-596.18,1093.32-582.66,1093.32-567.89z M1043.95-567.89
			c0-20.07-4.41-35.68-13.25-46.85c-8.82-11.17-20.69-16.76-35.59-16.76c-9.61,0-18.08,2.5-25.41,7.49
			c-7.33,4.98-12.97,12.34-16.94,22.07c-3.96,9.73-5.95,21.09-5.95,34.06c0,12.86,1.95,24.09,5.86,33.69
			c3.9,9.61,9.49,16.97,16.75,22.08c7.27,5.1,15.83,7.66,25.68,7.66c14.89,0,26.76-5.62,35.59-16.85
			C1039.54-532.54,1043.95-548.07,1043.95-567.89z"/>
		<path class="st0" d="M995.11-463.52c-15.38,0-29.45-2.53-41.82-7.52c-12.4-5.01-23.3-12.29-32.4-21.63
			c-9.08-9.33-16.07-20.52-20.79-33.24c-4.66-12.64-7.02-26.76-7.02-41.98c0-15.36,2.39-29.63,7.12-42.42
			c4.75-12.89,11.68-24.07,20.61-33.25c8.92-9.17,19.87-16.34,32.53-21.28c12.57-4.93,26.63-7.43,41.78-7.43
			c15.35,0,29.54,2.53,42.15,7.52c12.67,5.03,23.67,12.28,32.7,21.56c9.05,9.3,16.01,20.49,20.7,33.26
			c4.66,12.66,7.03,26.81,7.03,42.05c0,15.11-2.39,29.26-7.11,42.05c-4.76,12.88-11.75,24.14-20.79,33.43
			c-9.03,9.29-19.98,16.52-32.52,21.47C1024.79-466.01,1010.61-463.52,995.11-463.52z M995.11-663.54c-14.05,0-27.04,2.3-38.59,6.83
			c-11.5,4.49-21.4,10.97-29.45,19.25c-8.07,8.28-14.35,18.44-18.67,30.18c-4.37,11.82-6.58,25.08-6.58,39.4
			c0,14.19,2.18,27.29,6.48,38.95c4.29,11.57,10.63,21.73,18.86,30.18c8.25,8.47,18.14,15.07,29.41,19.63
			c11.32,4.57,24.29,6.89,38.55,6.89c14.4,0,27.5-2.29,38.94-6.81c11.39-4.5,21.31-11.04,29.47-19.44
			c8.19-8.42,14.53-18.63,18.86-30.37c4.37-11.82,6.58-24.96,6.58-39.03c0-14.22-2.18-27.34-6.49-39.03
			c-4.26-11.62-10.57-21.77-18.76-30.19c-8.17-8.39-18.14-14.96-29.65-19.53C1022.47-661.21,1009.36-663.54,995.11-663.54z
			 M995.11-500.09c-10.71,0-20.2-2.84-28.19-8.46c-7.93-5.57-14.08-13.65-18.29-24.01c-4.1-10.09-6.18-21.98-6.18-35.34
			c0-13.48,2.11-25.49,6.27-35.71c4.28-10.5,10.51-18.59,18.53-24.03c8.03-5.47,17.41-8.24,27.86-8.24
			c16.23,0,29.36,6.2,39.02,18.42c9.41,11.91,14.19,28.58,14.19,49.56c0,20.73-4.77,37.31-14.18,49.29
			C1024.48-506.32,1011.35-500.09,995.11-500.09z M995.11-627.14c-8.67,0-16.39,2.26-22.95,6.73c-6.57,4.46-11.74,11.22-15.35,20.11
			c-3.73,9.16-5.62,20.07-5.62,32.41c0,12.23,1.86,23.01,5.54,32.05c3.57,8.78,8.68,15.56,15.22,20.14
			c6.49,4.56,14.29,6.87,23.17,6.87c13.61,0,24.13-4.96,32.15-15.18c8.17-10.39,12.32-25.16,12.32-43.89
			c0-18.97-4.14-33.82-12.3-44.15C1019.24-622.2,1008.72-627.14,995.11-627.14z"/>
	</g>
	<g>
		<path class="st0" d="M1174.63-640.09v5.94c9.18-11.41,18.73-19.79,28.63-25.14c9.9-5.35,21.12-8.02,33.64-8.02
			c15.03,0,28.87,3.91,41.51,11.72c12.64,7.81,22.63,19.22,29.98,34.24c7.33,15.02,11,32.8,11,53.34c0,15.14-2.12,29.04-6.35,41.71
			c-4.24,12.67-10.06,23.31-17.45,31.9c-7.4,8.58-16.13,15.2-26.21,19.82c-10.08,4.62-20.91,6.93-32.48,6.93
			c-13.96,0-25.68-2.83-35.16-8.46c-9.49-5.65-18.52-13.94-27.11-24.87v73.88c0,21.62-7.82,32.44-23.44,32.44
			c-9.19,0-15.27-2.79-18.25-8.38c-2.98-5.58-4.47-13.73-4.47-24.41v-212.28c0-9.37,2.03-16.37,6.08-21
			c4.05-4.63,9.6-6.94,16.64-6.94c6.92,0,12.55,2.37,16.91,7.13C1172.45-655.8,1174.63-648.99,1174.63-640.09z M1270.36-568.56
			c0-12.97-1.97-24.11-5.91-33.42c-3.94-9.31-9.39-16.46-16.38-21.44c-6.97-4.99-14.7-7.49-23.17-7.49
			c-13.48,0-24.84,5.35-34.09,16.04c-9.24,10.7-13.87,26.43-13.87,47.21c0,19.58,4.59,34.81,13.78,45.68
			c9.18,10.87,20.58,16.31,34.18,16.31c8.11,0,15.63-2.37,22.55-7.12c6.92-4.76,12.46-11.87,16.64-21.36
			C1268.27-543.62,1270.36-555.09,1270.36-568.56z"/>
		<path class="st0" d="M1151.19-390.29c-10.88,0-18.32-3.6-22.11-10.7c-3.35-6.27-4.98-14.93-4.98-26.47v-212.28
			c0-10.42,2.41-18.46,7.17-23.88c4.89-5.59,11.59-8.43,19.92-8.43c8.16,0,14.94,2.87,20.13,8.54c4.14,4.52,6.62,10.57,7.4,18.04
			c7.26-7.6,14.78-13.52,22.46-17.67c10.51-5.67,22.52-8.55,35.71-8.55c15.78,0,30.52,4.16,43.82,12.37
			c13.3,8.22,23.93,20.34,31.6,36.04c7.6,15.55,11.45,34.14,11.45,55.26c0,15.53-2.21,30.03-6.57,43.09
			c-4.41,13.16-10.55,24.39-18.28,33.37c-7.8,9.04-17.12,16.08-27.7,20.94c-10.63,4.86-22.17,7.33-34.31,7.33
			c-14.69,0-27.26-3.05-37.39-9.08c-7.06-4.2-13.93-9.84-20.51-16.83v62.09C1179-396.68,1163.87-390.29,1151.19-390.29z
			 M1151.19-663.3c-5.78,0-10.14,1.79-13.35,5.45c-3.32,3.78-5,9.88-5,18.12v212.28c0,9.93,1.33,17.45,3.95,22.36
			c0.8,1.51,3.24,6.07,14.4,6.07c8.19,0,19.08-2.91,19.08-28.07v-86.51l7.8,9.93c8.22,10.46,16.93,18.47,25.91,23.81
			c8.76,5.21,19.83,7.85,32.92,7.85c10.88,0,21.19-2.2,30.67-6.53c9.44-4.34,17.76-10.63,24.73-18.71
			c6.98-8.11,12.57-18.35,16.61-30.43c4.06-12.16,6.12-25.74,6.12-40.33c0-19.78-3.55-37.08-10.56-51.42
			c-6.93-14.19-16.47-25.1-28.35-32.44c-11.89-7.34-25.09-11.07-39.22-11.07c-11.73,0-22.35,2.52-31.56,7.5
			c-9.34,5.04-18.53,13.13-27.3,24.04l-7.77,9.65v-18.33c0-7.72-1.81-13.61-5.38-17.5C1161.36-661.44,1156.88-663.3,1151.19-663.3z
			 M1224.91-501.29c-14.88,0-27.5-6.01-37.52-17.86c-9.83-11.62-14.81-27.94-14.81-48.5c0-21.76,5.02-38.6,14.93-50.07
			c10.08-11.65,22.66-17.56,37.4-17.56c9.36,0,18.01,2.79,25.71,8.3c7.61,5.42,13.62,13.26,17.85,23.29
			c4.15,9.81,6.25,21.63,6.25,35.12c0,14.01-2.23,26.18-6.63,36.19c-4.49,10.18-10.6,17.99-18.17,23.2
			C1242.3-503.94,1233.88-501.29,1224.91-501.29z M1224.91-626.54c-12.26,0-22.33,4.75-30.79,14.53
			c-8.49,9.83-12.8,24.76-12.8,44.36c0,18.43,4.29,32.85,12.74,42.86c8.4,9.94,18.49,14.77,30.85,14.77
			c7.28,0,13.85-2.08,20.08-6.35c6.2-4.26,11.29-10.84,15.11-19.51c3.91-8.88,5.89-19.88,5.89-32.67c0-12.32-1.87-22.99-5.56-31.72
			c-3.6-8.52-8.61-15.11-14.89-19.58C1239.35-624.3,1232.41-626.54,1224.91-626.54z"/>
	</g>
	<g>
		<path class="st0" d="M1401.03-712.72v75.15c9.25-9.61,18.68-16.97,28.29-22.08c9.61-5.1,21.5-7.66,35.68-7.66
			c16.33,0,30.66,3.88,42.98,11.63c12.31,7.75,21.86,18.99,28.65,33.7c6.79,14.71,10.18,32.16,10.18,52.34c0,14.9-1.9,28.56-5.67,41
			c-3.79,12.43-9.28,23.22-16.49,32.34c-7.21,9.13-15.94,16.18-26.22,21.17c-10.27,4.99-21.6,7.48-33.97,7.48
			c-7.57,0-14.69-0.9-21.35-2.7c-6.67-1.8-12.35-4.17-17.03-7.12c-4.69-2.95-8.68-5.98-11.99-9.1c-3.3-3.13-7.66-7.81-13.06-14.06
			v4.86c0,9.25-2.23,16.25-6.67,21c-4.45,4.74-10.09,7.12-16.94,7.12c-6.97,0-12.52-2.37-16.67-7.12c-4.14-4.74-6.21-11.74-6.21-21
			v-214.8c0-9.96,2.01-17.51,6.04-22.61c4.02-5.1,9.64-7.66,16.85-7.66c7.57,0,13.39,2.44,17.48,7.3
			C1398.98-728.66,1401.03-721.73,1401.03-712.72z M1403.37-566.57c0,19.58,4.48,34.62,13.43,45.14
			c8.95,10.51,20.69,15.76,35.23,15.76c12.37,0,23.04-5.38,31.98-16.13c8.95-10.75,13.43-26.16,13.43-46.22
			c0-12.97-1.87-24.15-5.59-33.52c-3.73-9.37-9.01-16.61-15.86-21.72c-6.85-5.1-14.84-7.66-23.97-7.66
			c-9.37,0-17.72,2.56-25.05,7.66c-7.33,5.1-13.1,12.5-17.3,22.17C1405.47-591.41,1403.37-579.9,1403.37-566.57z"/>
		<path class="st0" d="M1464.46-463.28c-7.93,0-15.49-0.96-22.49-2.85c-7.03-1.89-13.16-4.46-18.21-7.63
			c-4.95-3.12-9.21-6.36-12.67-9.63c-1.73-1.64-3.75-3.71-6.04-6.17c-0.87,7.42-3.38,13.39-7.5,17.78
			c-5.28,5.64-12.05,8.5-20.13,8.5c-8.25,0-14.97-2.9-19.96-8.61c-4.84-5.54-7.3-13.57-7.3-23.86v-214.8
			c0-10.93,2.35-19.45,6.98-25.31c4.88-6.19,11.7-9.33,20.28-9.33c8.88,0,15.88,2.98,20.82,8.86c4.75,5.67,7.15,13.61,7.15,23.62
			v64.83c7.18-6.47,14.5-11.71,21.87-15.61c10.21-5.42,22.9-8.18,37.73-8.18c17.09,0,32.33,4.14,45.31,12.3
			c12.99,8.18,23.18,20.15,30.28,35.57c7.03,15.22,10.59,33.45,10.59,54.17c0,15.25-1.97,29.48-5.86,42.28
			c-3.94,12.92-9.74,24.29-17.24,33.78c-7.59,9.6-16.92,17.14-27.74,22.39C1489.52-465.94,1477.44-463.28,1464.46-463.28z
			 M1396.66-512.34l7.67,8.86c5.27,6.1,9.56,10.72,12.76,13.74c3.05,2.89,6.85,5.77,11.31,8.58c4.31,2.7,9.64,4.92,15.84,6.59
			c6.25,1.69,13.06,2.55,20.21,2.55c11.66,0,22.44-2.37,32.06-7.04c9.63-4.67,17.93-11.38,24.69-19.95
			c6.83-8.64,12.12-19.04,15.74-30.91c3.64-11.97,5.49-25.34,5.49-39.73c0-19.45-3.29-36.45-9.78-50.51
			c-6.39-13.86-15.48-24.57-27.01-31.84c-11.56-7.27-25.24-10.96-40.66-10.96c-13.38,0-24.69,2.41-33.63,7.15
			c-9.15,4.86-18.3,12-27.19,21.25l-7.52,7.82v-86c0-7.9-1.72-13.96-5.11-18.01c-3.24-3.86-7.87-5.74-14.13-5.74
			c-5.85,0-10.23,1.96-13.42,6c-3.38,4.29-5.1,10.98-5.1,19.9v214.8c0,8.12,1.73,14.22,5.14,18.12c3.3,3.78,7.68,5.62,13.38,5.62
			c5.64,0,10.14-1.88,13.75-5.74c3.64-3.89,5.49-9.95,5.49-18.01V-512.34z M1452.02-501.29c-15.81,0-28.78-5.82-38.55-17.3
			c-9.6-11.28-14.47-27.42-14.47-47.97c0-13.89,2.25-26.09,6.67-36.25c4.51-10.38,10.83-18.46,18.8-24.01
			c15.94-11.1,38.79-11.35,54.12,0.08c7.47,5.57,13.29,13.51,17.31,23.61c3.91,9.85,5.9,21.67,5.9,35.13
			c0,21.02-4.86,37.51-14.44,49.02C1477.58-507.25,1465.69-501.29,1452.02-501.29z M1452.02-626.54c-8.42,0-16,2.31-22.55,6.87
			c-6.62,4.61-11.94,11.45-15.79,20.33c-3.94,9.06-5.94,20.08-5.94,32.76c0,18.42,4.17,32.66,12.38,42.31
			c8.15,9.58,18.59,14.23,31.9,14.23c11.11,0,20.48-4.76,28.63-14.55c8.24-9.9,12.42-24.51,12.42-43.43
			c0-12.36-1.77-23.09-5.28-31.9c-3.41-8.57-8.26-15.25-14.41-19.83C1467.24-624.32,1460.25-626.54,1452.02-626.54z"/>
	</g>
	<g>
		<path class="st0" d="M1631.15-538.64v41.09c0,9.98-2.34,17.45-7.03,22.44c-4.69,4.99-10.63,7.48-17.84,7.48
			c-7.09,0-12.92-2.52-17.48-7.57c-4.57-5.05-6.85-12.49-6.85-22.35v-136.95c0-22.1,7.99-33.16,23.97-33.16
			c8.17,0,14.06,2.59,17.66,7.75c3.6,5.16,5.59,12.79,5.95,22.88c5.88-10.09,11.92-17.72,18.11-22.88
			c6.19-5.16,14.45-7.75,24.78-7.75c10.33,0,20.36,2.59,30.09,7.75c9.73,5.16,14.6,12.01,14.6,20.54c0,6.01-2.08,10.96-6.21,14.87
			c-4.15,3.89-8.63,5.85-13.43,5.85c-1.8,0-6.16-1.1-13.07-3.33c-6.91-2.23-13-3.34-18.29-3.34c-7.21,0-13.1,1.9-17.66,5.67
			c-4.57,3.79-8.11,9.41-10.63,16.85c-2.52,7.45-4.27,16.31-5.23,26.59C1631.62-565.94,1631.15-553.42,1631.15-538.64z"/>
		<path class="st0" d="M1606.28-463.28c-8.34,0-15.31-3.03-20.72-9.01c-5.29-5.85-7.98-14.35-7.98-25.27v-136.96
			c0-31.01,15.41-37.52,28.33-37.52c9.64,0,16.79,3.24,21.24,9.62c2.41,3.45,4.16,7.7,5.28,12.83c4.04-5.59,8.18-10.17,12.39-13.68
			c6.98-5.82,16.26-8.77,27.58-8.77c11,0,21.81,2.78,32.14,8.27c11.22,5.95,16.92,14.16,16.92,24.4c0,7.23-2.55,13.29-7.59,18.05
			c-4.98,4.67-10.5,7.03-16.42,7.03c-1.59,0-4.66-0.4-14.41-3.54c-14.68-4.74-25.09-4.04-31.83,1.55
			c-3.91,3.25-7.03,8.26-9.27,14.88c-2.41,7.11-4.09,15.73-5.01,25.59c-0.95,10.05-1.43,22.55-1.43,37.16v41.09
			c0,11.07-2.76,19.63-8.21,25.43C1621.78-466.26,1614.71-463.28,1606.28-463.28z M1605.92-663.3c-8.42,0-19.6,2.99-19.6,28.79
			v136.96c0,8.69,1.92,15.22,5.72,19.42c3.73,4.12,8.39,6.13,14.24,6.13c6,0,10.8-2,14.65-6.1c3.88-4.13,5.85-10.67,5.85-19.45
			v-41.09c0-14.89,0.49-27.66,1.46-37.97c0.98-10.54,2.81-19.82,5.44-27.58c2.76-8.18,6.79-14.51,11.97-18.81
			c9.11-7.53,22.37-8.84,40.08-3.13c9.22,2.97,11.39,3.12,11.73,3.12c3.68,0,7.09-1.52,10.43-4.66c3.25-3.07,4.84-6.89,4.84-11.68
			c0-6.85-4.01-12.3-12.28-16.69c-17.8-9.44-39.1-9.61-50.03-0.5c-5.78,4.83-11.54,12.13-17.13,21.73l-7.6,13.03l-0.54-15.07
			c-0.34-9.2-2.07-16.11-5.17-20.54C1617.23-661.37,1612.63-663.3,1605.92-663.3z"/>
	</g>
	<g>
		<path class="st0" d="M1881.45-496.02v-6.3c-5.89,7.45-12.07,13.7-18.56,18.74c-6.49,5.05-13.58,8.8-21.26,11.27
			c-7.69,2.45-16.46,3.69-26.31,3.69c-11.89,0-22.55-2.46-31.99-7.38c-9.43-4.93-16.73-11.72-21.89-20.37
			c-6.13-10.45-9.19-25.46-9.19-45.05v-97.48c0-9.85,2.22-17.21,6.67-22.08c4.44-4.86,10.33-7.3,17.66-7.3
			c7.45,0,13.45,2.46,18.02,7.39c4.56,4.93,6.85,12.25,6.85,21.98v78.74c0,11.42,0.96,21,2.88,28.75
			c1.92,7.74,5.38,13.81,10.36,18.19c4.99,4.38,11.74,6.58,20.28,6.58c8.29,0,16.1-2.46,23.43-7.39
			c7.32-4.92,12.67-11.35,16.04-19.28c2.76-6.96,4.14-22.23,4.14-45.77v-59.83c0-9.73,2.28-17.06,6.85-21.98
			c4.56-4.93,10.51-7.39,17.84-7.39c7.32,0,13.21,2.44,17.66,7.3c4.44,4.87,6.67,12.23,6.67,22.08v142.53
			c0,9.37-2.13,16.4-6.39,21.09c-4.27,4.69-9.77,7.02-16.49,7.02c-6.73,0-12.28-2.43-16.67-7.29
			C1883.64-480.43,1881.45-487.25,1881.45-496.02z"/>
		<path class="st0" d="M1904.69-463.91c-7.98,0-14.68-2.94-19.91-8.73c-4.19-4.65-6.69-10.76-7.45-18.25
			c-3.8,4.03-7.74,7.62-11.76,10.75c-6.86,5.33-14.47,9.36-22.61,11.97c-8.11,2.59-17.41,3.89-27.65,3.89
			c-12.54,0-23.98-2.65-34.01-7.88c-10.12-5.29-18.07-12.7-23.63-22.01c-6.51-11.11-9.8-27.01-9.8-47.28v-97.49
			c0-10.93,2.63-19.35,7.81-25.02c5.29-5.79,12.32-8.72,20.89-8.72c8.68,0,15.82,2.96,21.22,8.79c5.32,5.74,8.02,14.14,8.02,24.95
			v78.75c0,11.03,0.93,20.34,2.75,27.7c1.69,6.83,4.72,12.2,9.01,15.97c4.2,3.7,9.89,5.49,17.39,5.49c7.47,0,14.34-2.17,20.99-6.65
			c6.58-4.42,11.45-10.26,14.46-17.36c1.71-4.33,3.8-15.58,3.8-44.07v-59.83c0-10.83,2.7-19.22,8.01-24.95
			c5.4-5.83,12.48-8.79,21.04-8.79s15.59,2.93,20.88,8.72c5.19,5.68,7.81,14.1,7.81,25.02v142.53c0,10.45-2.54,18.54-7.53,24.03
			C1919.31-466.75,1912.68-463.91,1904.69-463.91z M1885.82-514.88v18.86c0,7.62,1.84,13.52,5.45,17.54
			c3.55,3.93,7.94,5.85,13.42,5.85c5.5,0,9.83-1.83,13.26-5.6c3.49-3.83,5.26-9.94,5.26-18.15v-142.53c0-8.67-1.86-15.11-5.53-19.13
			c-3.62-3.96-8.34-5.88-14.43-5.88c-6.12,0-10.91,1.96-14.64,5.99c-3.77,4.07-5.68,10.46-5.68,19.01v59.83
			c0,24.31-1.46,39.81-4.45,47.38c-3.73,8.78-9.66,15.92-17.67,21.29c-8.02,5.4-16.72,8.13-25.86,8.13
			c-9.58,0-17.37-2.58-23.15-7.66c-5.65-4.97-9.59-11.84-11.72-20.43c-2-8.03-3.01-18.06-3.01-29.8v-78.75
			c0-8.54-1.92-14.94-5.69-19.01c-3.74-4.03-8.59-5.99-14.82-5.99c-6.1,0-10.82,1.92-14.44,5.88c-3.66,4.01-5.52,10.45-5.52,19.13
			v97.49c0,18.7,2.89,33.11,8.59,42.84c4.7,7.88,11.48,14.18,20.15,18.71c8.76,4.57,18.84,6.89,29.97,6.89
			c9.33,0,17.74-1.17,24.98-3.48c7.16-2.3,13.87-5.85,19.91-10.55c6.18-4.82,12.17-10.87,17.81-18L1885.82-514.88z"/>
	</g>
	<g>
		<path class="st0" d="M2154.64-631.63v142.91c0,16.33-1.74,30.39-5.23,42.17c-3.49,11.77-9.07,21.5-16.76,29.19
			c-7.69,7.68-17.75,13.39-30.19,17.11c-12.43,3.72-27.9,5.59-46.4,5.59c-16.94,0-32.08-2.37-45.41-7.12
			c-13.33-4.76-23.61-10.88-30.81-18.38c-7.21-7.51-10.81-15.23-10.81-23.16c0-6.01,2.04-10.91,6.13-14.68
			c4.08-3.79,9.01-5.69,14.78-5.69c7.21,0,13.52,3.19,18.92,9.56c2.64,3.24,5.38,6.51,8.2,9.82c2.83,3.3,5.95,6.13,9.37,8.46
			c3.43,2.35,7.54,4.08,12.35,5.23c4.8,1.14,10.33,1.71,16.58,1.71c12.73,0,22.61-1.78,29.65-5.31c7.02-3.55,11.95-8.51,14.78-14.87
			c2.82-6.37,4.47-13.18,4.95-20.45c0.48-7.28,0.84-18.95,1.08-35.05c-7.57,10.57-16.31,18.62-26.22,24.15
			c-9.92,5.52-21.72,8.29-35.41,8.29c-16.46,0-30.84-4.21-43.16-12.61c-12.32-8.41-21.78-20.18-28.38-35.32
			c-6.61-15.14-9.91-32.62-9.91-52.44c0-14.78,2.01-28.11,6.03-40c4.03-11.89,9.76-21.91,17.21-30.09
			c7.45-8.17,16.04-14.32,25.77-18.47c9.73-4.14,20.42-6.22,32.08-6.22c13.93,0,26.01,2.67,36.22,8.02
			c10.21,5.35,19.7,13.73,28.47,25.14v-6.66c0-8.53,2.1-15.14,6.31-19.82c4.2-4.69,9.61-7.03,16.22-7.03
			c9.49,0,15.79,3.09,18.92,9.29C2153.07-652.19,2154.64-643.28,2154.64-631.63z M2012.1-569.28c0,19.95,4.35,35.03,13.07,45.24
			c8.71,10.21,19.97,15.31,33.79,15.31c8.17,0,15.89-2.19,23.16-6.57c7.27-4.39,13.18-11,17.75-19.82
			c4.56-8.84,6.85-19.55,6.85-32.17c0-20.07-4.41-35.68-13.25-46.85c-8.82-11.17-20.45-16.76-34.87-16.76
			c-14.06,0-25.32,5.35-33.79,16.04C2016.33-604.17,2012.1-588.97,2012.1-569.28z"/>
		<path class="st0" d="M2056.06-390.29c-17.36,0-33.13-2.48-46.87-7.36c-13.93-4.98-24.87-11.53-32.51-19.47
			c-7.98-8.32-12.03-17.13-12.03-26.18c0-7.25,2.53-13.27,7.53-17.89c4.88-4.54,10.86-6.85,17.74-6.85c8.52,0,16.01,3.74,22.26,11.1
			c2.67,3.29,5.38,6.53,8.19,9.81c2.56,2.99,5.42,5.58,8.51,7.69c2.95,2.02,6.62,3.57,10.89,4.59c4.46,1.06,9.69,1.59,15.56,1.59
			c11.97,0,21.28-1.63,27.69-4.85c6.15-3.1,10.31-7.27,12.75-12.74c2.6-5.86,4.14-12.24,4.59-18.96c0.34-5.11,0.61-12.56,0.84-22.24
			c-5.93,6.35-12.46,11.51-19.49,15.44c-10.54,5.87-23.17,8.84-37.54,8.84c-17.26,0-32.61-4.5-45.61-13.38
			c-12.95-8.83-23.02-21.34-29.93-37.18c-6.82-15.61-10.27-33.84-10.27-54.19c0-15.2,2.11-29.13,6.27-41.4
			c4.2-12.41,10.29-23.05,18.12-31.63c7.83-8.59,17.01-15.16,27.29-19.55c10.25-4.36,21.61-6.57,33.79-6.57
			c14.57,0,27.44,2.87,38.24,8.52c7.83,4.11,15.31,9.93,22.32,17.39c0.73-7.32,3.14-13.29,7.19-17.8
			c5.04-5.62,11.59-8.48,19.46-8.48c11.22,0,18.9,3.93,22.82,11.69c3.46,6.86,5.15,16.26,5.15,28.71v142.91
			c0,16.69-1.82,31.29-5.41,43.41c-3.67,12.41-9.68,22.86-17.85,31.04c-8.18,8.17-18.95,14.29-32.02,18.21
			C2090.91-392.23,2074.88-390.29,2056.06-390.29z M1989.93-459.31c-4.67,0-8.53,1.48-11.8,4.52c-3.18,2.95-4.73,6.7-4.73,11.48
			c0,6.82,3.14,13.41,9.59,20.13c6.69,6.97,16.5,12.78,29.14,17.3c12.8,4.55,27.58,6.86,43.94,6.86c17.97,0,33.16-1.82,45.15-5.41
			c11.67-3.49,21.21-8.88,28.35-16.02c7.13-7.14,12.4-16.34,15.66-27.34c3.34-11.31,5.04-25.08,5.04-40.93v-142.91
			c0-10.9-1.42-19.24-4.22-24.78c-2.34-4.64-7.25-6.89-15.02-6.89c-5.36,0-9.6,1.83-12.96,5.58c-3.45,3.83-5.2,9.52-5.2,16.9v19.51
			l-7.83-10.18c-8.34-10.84-17.43-18.9-27.04-23.93c-9.54-4.99-21.04-7.52-34.19-7.52c-10.99,0-21.21,1.97-30.36,5.87
			c-9.11,3.88-17.27,9.74-24.25,17.39c-7.01,7.69-12.5,17.3-16.31,28.55c-3.85,11.37-5.8,24.36-5.8,38.6
			c0,19.14,3.21,36.2,9.55,50.7c6.24,14.31,15.27,25.56,26.84,33.46c11.53,7.86,25.22,11.86,40.69,11.86
			c12.87,0,24.06-2.6,33.29-7.74c9.29-5.18,17.63-12.87,24.8-22.88l8.13-11.36l-0.21,13.97c-0.25,16.35-0.6,27.88-1.09,35.27
			c-0.51,7.75-2.3,15.13-5.32,21.93c-3.24,7.29-8.89,13.01-16.8,17c-7.64,3.84-18.27,5.78-31.61,5.78c-6.54,0-12.46-0.61-17.58-1.83
			c-5.33-1.27-9.97-3.25-13.81-5.87c-3.72-2.54-7.16-5.65-10.22-9.23c-2.84-3.34-5.6-6.64-8.26-9.9
			C2000.95-456.69,1995.85-459.31,1989.93-459.31z M2058.95-504.36c-15.09,0-27.57-5.67-37.11-16.84
			c-9.36-10.97-14.11-27.15-14.11-48.07c0-20.62,4.59-36.87,13.65-48.3c9.3-11.75,21.82-17.7,37.21-17.7
			c15.75,0,28.64,6.2,38.3,18.42c9.41,11.91,14.18,28.58,14.18,49.56c0,13.26-2.47,24.76-7.33,34.18
			c-4.92,9.5-11.43,16.75-19.37,21.55C2076.44-506.79,2067.89-504.36,2058.95-504.36z M2058.59-626.54
			c-12.77,0-22.7,4.71-30.36,14.39c-7.81,9.85-11.76,24.27-11.76,42.87c0,18.79,4.04,33.05,12.02,42.4
			c7.92,9.27,17.88,13.78,30.47,13.78c7.34,0,14.37-2,20.91-5.94c6.53-3.95,11.95-10.04,16.12-18.09
			c4.22-8.17,6.36-18.31,6.36-30.16c0-18.96-4.14-33.82-12.3-44.15C2082-621.6,2071.71-626.54,2058.59-626.54z"/>
	</g>
</g>
<g>
	<path class="st0" d="M1551.85-1105.76c-25.76,2.92-50.5,9.71-73.89,19.57c99.26,97.1,127.69,234.57,129.4,243.31
		c5.83,30.72,32.7,52.11,62.85,52.11c3.96,0,7.98-0.38,12.02-1.14c34.75-6.61,57.58-40.12,50.97-74.87
		c-12.06-63.47-43.52-150.74-99.37-231.07C1607.33-1105.34,1579.67-1108.22,1551.85-1105.76z"/>
	<path class="st0" d="M1245.34-1309.7c-1.96-0.02-3.88-0.02-5.81-0.02c-319.3,0-441.09,291.65-460.87,446.79
		c-4.46,35.03,20.27,66.96,55.28,71.52c34.92,4.53,67.11-20.16,71.77-55.16c1.83-13.75,47.84-335.06,333.98-335.06
		c1.41,0,2.83,0,4.24,0.02c40.96,0.45,77.36,7.23,109.93,18.33c45.42-31.55,96.85-53.99,151.95-64.84
		C1437.03-1276.21,1351.13-1308.54,1245.34-1309.7z"/>
	<path class="st0" d="M1866.39-1085.51c-79.79-103.87-201.94-159.11-326.78-147.77l-1.27,0.13c-10.97,1.22-21.81,2.93-32.52,5.04
		c-55.11,10.85-106.53,33.29-151.95,64.84c-95.61,66.42-164.49,173.32-184.19,298.48c-5.49,34.94,18.38,67.72,53.32,73.23
		c3.37,0.52,6.72,0.78,10.03,0.78c30.98,0,58.23-22.54,63.2-54.11c17.5-111.24,88.29-201.93,181.74-241.31
		c23.39-9.86,48.13-16.64,73.89-19.57c27.82-2.46,55.48,0.42,81.99,7.91c50.33,14.23,96.42,45.39,130.98,90.38
		c21.54,28.04,61.74,33.32,89.81,11.77C1882.68-1017.25,1887.94-1057.45,1866.39-1085.51z"/>
</g>
<g>
	<g>
		<path class="st1" d="M462.59,867.67v202.52h89.45c9.11,0,16.1,2.22,20.97,6.64c4.87,4.43,7.31,10,7.31,16.7
			c0,6.83-2.41,12.37-7.21,16.62c-4.81,4.24-11.83,6.36-21.07,6.36H440.76c-12.28,0-21.1-2.72-26.47-8.17
			c-5.38-5.44-8.07-14.23-8.07-26.38V867.67c0-11.39,2.56-19.92,7.69-25.62c5.12-5.69,11.86-8.55,20.21-8.55
			c8.47,0,15.34,2.82,20.59,8.45C459.96,847.59,462.59,856.16,462.59,867.67z"/>
		<path class="st1" d="M552.04,1121.1H440.76c-13.49,0-23.51-3.21-29.75-9.54c-6.23-6.3-9.39-16.26-9.39-29.6V867.67
			c0-12.51,2.98-22.16,8.87-28.7c6.01-6.68,13.97-10.07,23.63-10.07c9.76,0,17.82,3.34,23.96,9.91c6.04,6.48,9.11,16.19,9.11,28.85
			v197.92h84.86c10.25,0,18.34,2.64,24.06,7.83c5.85,5.32,8.82,12.08,8.82,20.1c0,8.17-2.95,14.92-8.76,20.06
			C570.49,1118.57,562.38,1121.1,552.04,1121.1z M434.12,838.1c-7.05,0-12.54,2.3-16.79,7.02c-4.32,4.79-6.51,12.38-6.51,22.54
			v214.29c0,10.83,2.27,18.62,6.74,23.14c4.46,4.52,12.27,6.8,23.21,6.8h111.28c8.04,0,14.1-1.75,18.03-5.21
			c3.8-3.36,5.65-7.67,5.65-13.16c0-5.4-1.9-9.75-5.81-13.3c-3.97-3.61-9.98-5.44-17.87-5.44h-94.06V867.67
			c0-10.26-2.23-17.86-6.64-22.58C446.96,840.39,441.33,838.1,434.12,838.1z"/>
	</g>
	<g>
		<path class="st1" d="M823.64,1015.91c0,15.44-2.41,29.67-7.21,42.7c-4.81,13.04-11.77,24.23-20.88,33.6
			c-9.11,9.37-20,16.54-32.65,21.54c-12.66,5-26.89,7.49-42.7,7.49c-15.69,0-29.8-2.53-42.32-7.59
			c-12.53-5.06-23.38-12.31-32.55-21.72c-9.17-9.43-16.13-20.57-20.88-33.4c-4.74-12.85-7.11-27.05-7.11-42.61
			c0-15.69,2.4-30.05,7.21-43.09c4.81-13.03,11.7-24.16,20.69-33.4c8.98-9.23,19.86-16.35,32.65-21.34
			c12.78-5.01,26.88-7.51,42.32-7.51c15.69,0,29.92,2.53,42.7,7.59c12.78,5.07,23.72,12.28,32.83,21.64
			c9.11,9.37,16.04,20.5,20.78,33.4C821.27,986.1,823.64,1000.34,823.64,1015.91z M771.64,1015.91c0-21.13-4.65-37.58-13.95-49.35
			c-9.29-11.77-21.8-17.66-37.48-17.66c-10.13,0-19.05,2.63-26.76,7.89c-7.72,5.24-13.67,12.99-17.84,23.24
			c-4.18,10.25-6.26,22.21-6.26,35.88c0,13.54,2.06,25.37,6.17,35.49c4.11,10.13,9.99,17.88,17.65,23.25
			c7.66,5.38,16.67,8.07,27.05,8.07c15.69,0,28.19-5.91,37.48-17.74C766.99,1053.13,771.64,1036.78,771.64,1015.91z"/>
		<path class="st1" d="M720.2,1125.84c-16.21,0-31.03-2.67-44.05-7.93c-13.03-5.26-24.51-12.92-34.12-22.78
			c-9.58-9.84-16.94-21.63-21.9-35.02c-4.91-13.32-7.4-28.2-7.4-44.21c0-16.16,2.52-31.2,7.49-44.68
			c5.01-13.57,12.31-25.35,21.71-35.02c9.4-9.66,20.93-17.21,34.27-22.42c13.24-5.19,28.05-7.82,44-7.82
			c16.19,0,31.12,2.67,44.4,7.92c13.33,5.29,24.91,12.92,34.43,22.7c9.53,9.8,16.87,21.59,21.81,35.03
			c4.91,13.35,7.4,28.26,7.4,44.3c0,15.89-2.52,30.8-7.49,44.29c-5.02,13.58-12.38,25.43-21.9,35.21
			c-9.53,9.79-21.05,17.4-34.26,22.61C751.47,1123.21,736.53,1125.84,720.2,1125.84z M720.2,915.16c-14.8,0-28.48,2.42-40.65,7.19
			c-12.11,4.74-22.55,11.56-31.02,20.27c-8.5,8.73-15.12,19.43-19.68,31.79c-4.59,12.46-6.92,26.42-6.92,41.5
			c0,14.93,2.3,28.73,6.83,41.02c4.5,12.18,11.19,22.88,19.86,31.79c8.71,8.93,19.13,15.88,30.97,20.66
			c11.92,4.82,25.58,7.26,40.6,7.26c15.16,0,28.97-2.41,41.02-7.17c11.98-4.74,22.43-11.62,31.04-20.47
			c8.61-8.85,15.29-19.61,19.86-31.98c4.59-12.47,6.92-26.3,6.92-41.11c0-14.96-2.3-28.79-6.84-41.13
			c-4.49-12.22-11.13-22.91-19.76-31.79c-8.61-8.83-19.11-15.76-31.23-20.56C749.03,917.6,735.23,915.16,720.2,915.16z
			 M720.2,1087.31c-11.29,0-21.28-2.99-29.69-8.9c-8.36-5.88-14.84-14.39-19.27-25.29c-4.31-10.61-6.5-23.13-6.5-37.21
			c0-14.22,2.22-26.87,6.61-37.62c4.5-11.06,11.07-19.58,19.52-25.31c8.45-5.76,18.33-8.68,29.34-8.68c17.1,0,30.93,6.53,41.1,19.4
			c9.91,12.54,14.94,30.1,14.94,52.2c0,21.84-5.02,39.3-14.94,51.91C751.13,1080.75,737.31,1087.31,720.2,1087.31z M720.2,953.5
			c-9.13,0-17.27,2.38-24.17,7.08c-6.92,4.7-12.36,11.82-16.17,21.18c-3.93,9.64-5.92,21.12-5.92,34.14
			c0,12.89,1.96,24.24,5.83,33.75c3.75,9.24,9.14,16.38,16.03,21.22c6.93,4.86,14.91,7.23,24.4,7.23c14.34,0,25.42-5.23,33.87-15.98
			c8.61-10.95,12.97-26.5,12.97-46.22c0-19.98-4.36-35.62-12.96-46.5C745.63,958.71,734.55,953.5,720.2,953.5z"/>
	</g>
	<g>
		<path class="st1" d="M1066.96,1015.66c0,15.44-2.41,29.67-7.21,42.7c-4.81,13.04-11.77,24.23-20.88,33.6
			c-9.11,9.37-20,16.54-32.65,21.54c-12.66,5-26.89,7.49-42.7,7.49c-15.69,0-29.8-2.53-42.32-7.59
			c-12.53-5.06-23.38-12.31-32.55-21.72c-9.17-9.43-16.13-20.57-20.88-33.4c-4.74-12.84-7.11-27.05-7.11-42.61
			c0-15.69,2.4-30.05,7.21-43.09c4.81-13.03,11.7-24.16,20.69-33.4c8.98-9.23,19.86-16.35,32.65-21.34
			c12.78-5.01,26.88-7.51,42.32-7.51c15.69,0,29.92,2.53,42.7,7.59c12.78,5.07,23.72,12.28,32.84,21.64
			c9.11,9.37,16.04,20.5,20.78,33.4C1064.59,985.85,1066.96,1000.09,1066.96,1015.66z M1014.96,1015.66
			c0-21.13-4.65-37.58-13.95-49.35c-9.29-11.77-21.8-17.66-37.48-17.66c-10.13,0-19.05,2.63-26.76,7.89
			c-7.72,5.24-13.67,12.99-17.84,23.24c-4.18,10.25-6.26,22.21-6.26,35.88c0,13.54,2.06,25.37,6.17,35.49
			c4.11,10.13,9.99,17.88,17.65,23.25c7.66,5.38,16.67,8.07,27.05,8.07c15.69,0,28.19-5.91,37.48-17.74
			C1010.31,1052.88,1014.96,1036.53,1014.96,1015.66z"/>
		<path class="st1" d="M963.52,1125.59c-16.19,0-31.02-2.67-44.04-7.92c-13.06-5.28-24.54-12.94-34.12-22.78
			c-9.56-9.83-16.93-21.61-21.9-35.01c-4.91-13.31-7.4-28.18-7.4-44.22c0-16.18,2.52-31.21,7.5-44.68
			c5-13.58,12.31-25.36,21.7-35.02s20.93-17.21,34.26-22.42c13.24-5.19,28.05-7.83,44-7.83c16.17,0,31.11,2.67,44.4,7.92
			c13.34,5.29,24.93,12.93,34.44,22.7c9.53,9.8,16.86,21.58,21.8,35.03c4.91,13.33,7.4,28.24,7.4,44.29
			c0,15.91-2.52,30.82-7.49,44.29c-5.01,13.57-12.38,25.42-21.9,35.21c-9.51,9.79-21.04,17.4-34.26,22.61
			C994.78,1122.96,979.85,1125.59,963.52,1125.59z M963.52,914.91c-14.8,0-28.48,2.42-40.65,7.19
			c-12.11,4.73-22.54,11.55-31.02,20.27c-8.5,8.73-15.11,19.42-19.67,31.78c-4.6,12.45-6.93,26.41-6.93,41.5
			c0,14.94,2.29,28.75,6.83,41.02c4.52,12.19,11.2,22.88,19.86,31.78c8.69,8.92,19.11,15.88,30.98,20.67
			c11.92,4.81,25.58,7.25,40.6,7.25c15.16,0,28.96-2.41,41.02-7.17c12-4.74,22.44-11.62,31.03-20.47
			c8.62-8.86,15.3-19.63,19.86-31.99c4.6-12.45,6.93-26.29,6.93-41.11c0-14.97-2.3-28.8-6.84-41.11
			c-4.49-12.24-11.13-22.93-19.76-31.79c-8.6-8.83-19.11-15.76-31.23-20.57C992.33,917.36,978.53,914.91,963.52,914.91z
			 M963.52,1087.07c-11.28,0-21.27-2.99-29.69-8.91c-8.35-5.87-14.83-14.37-19.27-25.28c-4.32-10.62-6.51-23.15-6.51-37.22
			c0-14.2,2.22-26.85,6.61-37.61c4.5-11.06,11.07-19.58,19.52-25.31c8.46-5.76,18.33-8.68,29.34-8.68c17.09,0,30.92,6.53,41.1,19.4
			c9.91,12.54,14.94,30.1,14.94,52.2c0,21.84-5.02,39.3-14.94,51.91C994.45,1080.5,980.62,1087.07,963.52,1087.07z M963.52,953.25
			c-9.13,0-17.26,2.38-24.17,7.09c-6.92,4.7-12.36,11.82-16.17,21.18c-3.93,9.65-5.92,21.13-5.92,34.14
			c0,12.88,1.96,24.24,5.83,33.76c3.76,9.25,9.14,16.39,16.03,21.21c6.84,4.8,15.05,7.24,24.4,7.24c14.34,0,25.42-5.23,33.87-15.99
			c8.61-10.95,12.97-26.5,12.97-46.22c0-19.98-4.36-35.62-12.96-46.5C988.94,958.45,977.86,953.25,963.52,953.25z"/>
	</g>
	<g>
		<path class="st1" d="M1152.59,939.61v6.26c9.67-12.01,19.72-20.84,30.16-26.47c10.43-5.63,22.24-8.45,35.43-8.45
			c15.83,0,30.4,4.11,43.73,12.34c13.31,8.23,23.84,20.24,31.57,36.06c7.72,15.82,11.59,34.54,11.59,56.18
			c0,15.94-2.23,30.59-6.69,43.93c-4.46,13.35-10.59,24.55-18.38,33.6c-7.79,9.04-16.99,16-27.61,20.88
			c-10.62,4.86-22.03,7.3-34.21,7.3c-14.7,0-27.05-2.98-37.03-8.91c-9.99-5.95-19.51-14.68-28.56-26.19v77.82
			c0,22.78-8.23,34.16-24.69,34.16c-9.68,0-16.09-2.94-19.22-8.83c-3.14-5.88-4.71-14.46-4.71-25.71V939.99
			c0-9.87,2.13-17.24,6.41-22.11c4.27-4.87,10.11-7.31,17.53-7.31c7.28,0,13.22,2.5,17.81,7.51
			C1150.3,923.06,1152.59,930.24,1152.59,939.61z M1253.43,1014.95c0-13.67-2.07-25.4-6.22-35.2c-4.15-9.81-9.89-17.34-17.25-22.58
			c-7.34-5.25-15.48-7.89-24.4-7.89c-14.2,0-26.17,5.63-35.91,16.9c-9.73,11.27-14.6,27.83-14.6,49.73
			c0,20.62,4.83,36.66,14.51,48.11c9.67,11.45,21.67,17.18,36,17.18c8.54,0,16.46-2.5,23.75-7.49c7.28-5.01,13.13-12.5,17.53-22.49
			C1251.23,1041.22,1253.43,1029.13,1253.43,1014.95z"/>
		<path class="st1" d="M1127.9,1202.71c-11.46,0-19.3-3.79-23.28-11.27c-3.53-6.6-5.25-15.72-5.25-27.88V939.98
			c0-10.98,2.54-19.44,7.55-25.15c5.15-5.89,12.21-8.88,20.98-8.88c8.59,0,15.73,3.02,21.21,9c4.36,4.76,6.98,11.13,7.8,19
			c7.64-8,15.57-14.24,23.66-18.61c11.07-5.97,23.72-9,37.62-9c16.62,0,32.15,4.38,46.15,13.03c14.01,8.65,25.2,21.43,33.28,37.96
			c8,16.37,12.06,35.96,12.06,58.2c0,16.36-2.33,31.63-6.92,45.39c-4.64,13.86-11.12,25.69-19.25,35.14
			c-8.21,9.52-18.03,16.94-29.17,22.06c-11.2,5.12-23.35,7.72-36.14,7.72c-15.47,0-28.72-3.22-39.38-9.56
			c-7.44-4.43-14.67-10.37-21.6-17.73v65.4C1157.2,1195.98,1141.26,1202.71,1127.9,1202.71z M1127.9,915.16
			c-6.08,0-10.68,1.88-14.06,5.74c-3.5,3.98-5.27,10.4-5.27,19.08v223.58c0,10.46,1.4,18.38,4.16,23.55
			c0.84,1.59,3.41,6.4,15.17,6.4c8.62,0,20.09-3.07,20.09-29.57v-91.11l8.22,10.46c8.65,11.01,17.83,19.45,27.29,25.08
			c9.22,5.49,20.89,8.27,34.68,8.27c11.46,0,22.32-2.32,32.3-6.88c9.94-4.57,18.7-11.2,26.05-19.7c7.35-8.54,13.24-19.33,17.5-32.05
			c4.28-12.81,6.44-27.11,6.44-42.47c0-20.83-3.74-39.05-11.12-54.16c-7.3-14.94-17.35-26.44-29.85-34.17
			c-12.52-7.73-26.42-11.65-41.31-11.65c-12.35,0-23.54,2.66-33.24,7.9c-9.83,5.31-19.51,13.83-28.76,25.31l-8.18,10.16v-19.31
			c0-8.13-1.9-14.33-5.67-18.43C1138.62,917.13,1133.9,915.16,1127.9,915.16z M1205.56,1085.8c-15.67,0-28.97-6.33-39.51-18.81
			c-10.35-12.24-15.59-29.42-15.59-51.08c0-22.92,5.29-40.66,15.72-52.73c10.61-12.27,23.87-18.49,39.39-18.49
			c9.86,0,18.97,2.94,27.08,8.74c8.01,5.71,14.34,13.97,18.81,24.53c4.37,10.34,6.58,22.78,6.58,36.99
			c0,14.76-2.35,27.58-6.98,38.11c-4.73,10.73-11.16,18.95-19.13,24.43C1223.87,1083,1215.01,1085.8,1205.56,1085.8z
			 M1205.56,953.88c-12.91,0-23.52,5.01-32.43,15.31c-8.95,10.35-13.48,26.08-13.48,46.72c0,19.42,4.52,34.6,13.42,45.14
			c8.85,10.47,19.47,15.55,32.49,15.55c7.67,0,14.58-2.19,21.15-6.69c6.53-4.49,11.89-11.41,15.92-20.55
			c4.11-9.35,6.2-20.94,6.2-34.41c0-12.98-1.97-24.22-5.85-33.41c-3.79-8.97-9.07-15.91-15.68-20.63
			C1220.76,956.24,1213.45,953.88,1205.56,953.88z"/>
	</g>
	<g>
		<path class="st1" d="M1391.05,863.11v79.15c9.74-10.13,19.67-17.88,29.8-23.25c10.12-5.38,22.65-8.07,37.58-8.07
			c17.2,0,32.3,4.09,45.27,12.24c12.97,8.17,23.03,20,30.17,35.5c7.15,15.49,10.73,33.87,10.73,55.13c0,15.7-2,30.09-5.98,43.19
			c-3.99,13.09-9.78,24.45-17.37,34.07c-7.59,9.61-16.79,17.05-27.62,22.3c-10.81,5.25-22.75,7.87-35.77,7.87
			c-7.97,0-15.47-0.94-22.49-2.84c-7.03-1.9-13-4.4-17.94-7.49c-4.93-3.11-9.14-6.29-12.62-9.59c-3.48-3.29-8.06-8.23-13.76-14.8
			v5.12c0,9.75-2.34,17.12-7.02,22.11c-4.68,5-10.63,7.49-17.84,7.49c-7.34,0-13.19-2.5-17.56-7.49c-4.36-5-6.54-12.37-6.54-22.11
			V865.39c0-10.49,2.12-18.44,6.36-23.82c4.24-5.38,10.15-8.07,17.74-8.07c7.97,0,14.11,2.57,18.41,7.69
			C1388.89,846.32,1391.05,853.62,1391.05,863.11z M1393.52,1017.04c0,20.62,4.71,36.47,14.14,47.55
			c9.42,11.07,21.79,16.6,37.1,16.6c13.03,0,24.26-5.67,33.69-16.98c9.43-11.33,14.14-27.55,14.14-48.69
			c0-13.67-1.97-25.43-5.88-35.3c-3.92-9.87-9.49-17.5-16.7-22.87s-15.63-8.07-25.24-8.07c-9.87,0-18.67,2.69-26.38,8.07
			c-7.72,5.38-13.79,13.16-18.22,23.35C1395.73,990.88,1393.52,1003,1393.52,1017.04z"/>
		<path class="st1" d="M1457.86,1125.84c-8.35,0-16.32-1.01-23.69-3.01c-7.41-1.99-13.86-4.7-19.18-8.03
			c-5.21-3.28-9.7-6.7-13.34-10.15c-1.83-1.73-3.95-3.9-6.36-6.5c-0.92,7.82-3.56,14.1-7.9,18.73c-5.56,5.94-12.7,8.95-21.2,8.95
			c-8.69,0-15.76-3.05-21.02-9.07c-5.1-5.84-7.68-14.3-7.68-25.14V865.39c0-11.51,2.47-20.48,7.35-26.66
			c5.14-6.52,12.33-9.82,21.36-9.82c9.35,0,16.73,3.14,21.93,9.33c5,5.97,7.53,14.34,7.53,24.88v68.28
			c7.56-6.82,15.27-12.33,23.04-16.45c10.75-5.71,24.12-8.61,39.74-8.61c18,0,34.05,4.36,47.72,12.95
			c13.68,8.62,24.41,21.22,31.9,37.46c7.4,16.03,11.15,35.23,11.15,57.06c0,16.06-2.08,31.05-6.17,44.53
			c-4.15,13.61-10.26,25.58-18.16,35.58c-7.99,10.12-17.82,18.05-29.22,23.58C1484.25,1123.03,1471.53,1125.84,1457.86,1125.84z
			 M1386.45,1074.17l8.08,9.33c5.55,6.42,10.07,11.29,13.44,14.47c3.21,3.04,7.22,6.08,11.91,9.04c4.54,2.84,10.15,5.19,16.68,6.94
			c6.59,1.78,13.75,2.69,21.29,2.69c12.28,0,23.64-2.49,33.77-7.41c10.14-4.92,18.89-11.99,26.01-21.01
			c7.19-9.1,12.77-20.05,16.58-32.56c3.83-12.61,5.78-26.69,5.78-41.85c0-20.49-3.47-38.39-10.3-53.2
			c-6.73-14.6-16.3-25.88-28.45-33.53c-12.18-7.66-26.58-11.54-42.82-11.54c-14.09,0-26.01,2.53-35.42,7.53
			c-9.64,5.11-19.27,12.64-28.63,22.38l-7.92,8.23v-90.58c0-8.32-1.81-14.7-5.38-18.97c-3.41-4.07-8.29-6.04-14.88-6.04
			c-6.16,0-10.78,2.07-14.13,6.32c-3.56,4.52-5.37,11.56-5.37,20.96v226.24c0,8.55,1.82,14.97,5.41,19.09
			c3.48,3.98,8.09,5.92,14.09,5.92c5.94,0,10.68-1.98,14.48-6.04c3.84-4.1,5.79-10.48,5.79-18.97V1074.17z M1444.76,1085.8
			c-16.65,0-30.31-6.13-40.6-18.22c-10.11-11.88-15.24-28.88-15.24-50.53c0-14.63,2.37-27.48,7.02-38.18
			c4.75-10.93,11.41-19.45,19.81-25.29c16.79-11.7,40.86-11.95,57,0.08c7.87,5.86,14,14.23,18.23,24.87
			c4.12,10.37,6.21,22.82,6.21,37.01c0,22.14-5.12,39.51-15.21,51.63C1471.68,1079.53,1459.16,1085.8,1444.76,1085.8z
			 M1444.76,953.88c-8.86,0-16.85,2.44-23.75,7.24c-6.97,4.86-12.57,12.06-16.63,21.42c-4.15,9.54-6.26,21.15-6.26,34.51
			c0,19.4,4.39,34.39,13.04,44.56c8.58,10.09,19.58,14.99,33.6,14.99c11.7,0,21.57-5.01,30.15-15.33
			c8.68-10.43,13.08-25.81,13.08-45.74c0-13.01-1.87-24.32-5.56-33.6c-3.59-9.03-8.7-16.06-15.18-20.89
			C1460.79,956.22,1453.43,953.88,1444.76,953.88z"/>
	</g>
	<g>
		<path class="st1" d="M1633.42,1046.46v43.27c0,10.51-2.47,18.38-7.4,23.63c-4.93,5.25-11.2,7.87-18.79,7.87
			c-7.47,0-13.6-2.66-18.41-7.97c-4.81-5.31-7.21-13.15-7.21-23.53V945.48c0-23.28,8.41-34.92,25.24-34.92
			c8.6,0,14.8,2.73,18.6,8.17c3.8,5.44,5.88,13.47,6.26,24.1c6.2-10.63,12.56-18.66,19.07-24.1c6.52-5.44,15.21-8.17,26.1-8.17
			c10.88,0,21.45,2.73,31.7,8.17c10.25,5.44,15.37,12.65,15.37,21.64c0,6.33-2.19,11.55-6.54,15.66c-4.37,4.1-9.09,6.16-14.14,6.16
			c-1.9,0-6.48-1.16-13.76-3.5c-7.27-2.35-13.7-3.51-19.26-3.51c-7.59,0-13.79,2-18.6,5.98c-4.81,3.99-8.54,9.91-11.2,17.74
			c-2.66,7.85-4.49,17.18-5.5,28C1633.92,1017.71,1633.42,1030.89,1633.42,1046.46z"/>
		<path class="st1" d="M1607.23,1125.84c-8.79,0-16.13-3.19-21.82-9.49c-5.58-6.16-8.4-15.12-8.4-26.62V945.48
			c0-32.66,16.23-39.52,29.84-39.52c10.15,0,17.68,3.41,22.37,10.13c2.53,3.64,4.38,8.11,5.56,13.52
			c4.25-5.89,8.62-10.71,13.05-14.41c7.35-6.13,17.12-9.24,29.05-9.24c11.58,0,22.97,2.93,33.85,8.71
			c11.82,6.27,17.82,14.92,17.82,25.7c0,7.61-2.69,14-7.99,19.01c-5.24,4.92-11.06,7.41-17.3,7.41c-1.67,0-4.91-0.43-15.18-3.73
			c-15.46-4.99-26.42-4.26-33.53,1.63c-4.11,3.42-7.4,8.7-9.77,15.67c-2.53,7.49-4.31,16.57-5.28,26.96
			c-1,10.58-1.5,23.75-1.5,39.14v43.28c0,11.66-2.91,20.67-8.65,26.78C1623.56,1122.7,1616.11,1125.84,1607.23,1125.84z
			 M1606.85,915.16c-8.86,0-20.64,3.14-20.64,30.32v144.25c0,9.15,2.02,16.03,6.02,20.45c3.93,4.34,8.84,6.46,15,6.46
			c6.32,0,11.37-2.1,15.43-6.43c4.08-4.35,6.16-11.24,6.16-20.48v-43.28c0-15.68,0.52-29.14,1.54-39.99
			c1.04-11.1,2.96-20.88,5.73-29.05c2.91-8.62,7.16-15.28,12.61-19.81c9.6-7.93,23.57-9.31,42.22-3.3c9.71,3.13,12,3.28,12.36,3.28
			c3.87,0,7.47-1.6,10.99-4.91c3.43-3.23,5.1-7.26,5.1-12.31c0-7.21-4.23-12.96-12.93-17.58c-18.75-9.95-41.19-10.12-52.7-0.53
			c-6.09,5.08-12.16,12.78-18.04,22.88l-8,13.73l-0.57-15.88c-0.35-9.69-2.18-16.97-5.44-21.63
			C1618.77,917.19,1613.92,915.16,1606.85,915.16z"/>
	</g>
	<g>
		<path class="st1" d="M1897.05,1091.35v-6.64c-6.2,7.85-12.72,14.42-19.55,19.74c-6.83,5.31-14.3,9.27-22.4,11.87
			c-8.1,2.58-17.34,3.88-27.71,3.88c-12.53,0-23.76-2.6-33.69-7.78c-9.93-5.19-17.62-12.34-23.06-21.45
			c-6.45-11.01-9.68-26.82-9.68-47.45V940.84c0-10.37,2.34-18.12,7.02-23.25c4.68-5.12,10.88-7.69,18.6-7.69
			c7.84,0,14.17,2.6,18.98,7.79c4.81,5.19,7.21,12.91,7.21,23.16v82.94c0,12.02,1.01,22.11,3.04,30.28
			c2.02,8.16,5.66,14.55,10.91,19.16c5.25,4.62,12.37,6.93,21.36,6.93c8.73,0,16.95-2.6,24.67-7.79
			c7.71-5.18,13.35-11.95,16.89-20.3c2.91-7.33,4.37-23.41,4.37-48.21v-63.01c0-10.25,2.4-17.96,7.21-23.16
			c4.81-5.19,11.07-7.79,18.79-7.79c7.71,0,13.92,2.57,18.6,7.69c4.68,5.13,7.02,12.88,7.02,23.25v150.12
			c0,9.87-2.25,17.28-6.73,22.21c-4.49,4.93-10.29,7.4-17.37,7.4c-7.09,0-12.94-2.56-17.55-7.68
			C1899.36,1107.77,1897.05,1100.59,1897.05,1091.35z"/>
		<path class="st1" d="M1921.53,1125.17c-8.41,0-15.46-3.1-20.97-9.2c-4.41-4.89-7.04-11.34-7.85-19.22
			c-4.01,4.24-8.15,8.03-12.38,11.32c-7.22,5.61-15.24,9.86-23.82,12.61c-8.55,2.72-18.34,4.1-29.12,4.1
			c-13.21,0-25.26-2.79-35.82-8.29c-10.66-5.58-19.03-13.37-24.88-23.18c-6.86-11.7-10.32-28.45-10.32-49.8V940.84
			c0-11.51,2.77-20.38,8.22-26.35c5.57-6.1,12.97-9.19,22-9.19c9.14,0,16.66,3.11,22.35,9.26c5.61,6.05,8.44,14.89,8.44,26.28v82.94
			c0,11.61,0.98,21.43,2.9,29.17c1.78,7.19,4.97,12.85,9.49,16.82c4.43,3.89,10.42,5.79,18.31,5.79c7.87,0,15.1-2.29,22.1-7
			c6.93-4.65,12.06-10.8,15.23-18.28c1.8-4.56,4-16.41,4-46.41v-63.01c0-11.4,2.84-20.24,8.44-26.28
			c5.69-6.14,13.15-9.26,22.16-9.26c9.02,0,16.42,3.09,21.99,9.19c5.46,5.98,8.23,14.85,8.23,26.35v150.12
			c0,11.01-2.67,19.52-7.94,25.31C1936.93,1122.18,1929.94,1125.17,1921.53,1125.17z M1901.65,1071.48v19.86
			c0,8.03,1.93,14.24,5.74,18.47c3.74,4.14,8.36,6.16,14.14,6.16c5.79,0,10.35-1.93,13.97-5.89c3.68-4.04,5.54-10.47,5.54-19.12
			V940.84c0-9.13-1.96-15.91-5.82-20.15c-3.81-4.17-8.79-6.19-15.2-6.19c-6.44,0-11.49,2.07-15.42,6.31
			c-3.97,4.28-5.98,11.02-5.98,20.03v63.01c0,25.61-1.53,41.93-4.69,49.91c-3.93,9.25-10.18,16.76-18.61,22.43
			c-8.45,5.68-17.61,8.56-27.24,8.56c-10.09,0-18.29-2.72-24.39-8.07c-5.95-5.23-10.1-12.47-12.34-21.52
			c-2.1-8.46-3.17-19.02-3.17-31.38v-82.94c0-9-2.02-15.73-5.99-20.03c-3.93-4.25-9.04-6.31-15.61-6.31
			c-6.43,0-11.4,2.02-15.21,6.19c-3.86,4.22-5.82,11-5.82,20.15v102.68c0,19.69,3.04,34.87,9.05,45.12
			c4.95,8.29,12.09,14.94,21.22,19.7c9.22,4.82,19.85,7.25,31.56,7.25c9.83,0,18.69-1.23,26.32-3.67
			c7.55-2.43,14.61-6.16,20.97-11.11c6.51-5.07,12.82-11.45,18.76-18.96L1901.65,1071.48z"/>
	</g>
	<g>
		<path class="st1" d="M2184.79,948.52v150.52c0,17.2-1.84,32.01-5.5,44.41c-3.67,12.39-9.56,22.64-17.65,30.75
			c-8.1,8.09-18.69,14.11-31.79,18.02c-13.09,3.92-29.39,5.89-48.87,5.89c-17.84,0-33.78-2.5-47.83-7.49
			c-14.05-5.01-24.86-11.46-32.46-19.36c-7.59-7.91-11.39-16.04-11.39-24.39c0-6.33,2.15-11.49,6.45-15.47
			c4.3-3.99,9.49-5.99,15.56-5.99c7.59,0,14.23,3.36,19.93,10.07c2.78,3.42,5.66,6.86,8.63,10.35c2.98,3.48,6.27,6.45,9.87,8.91
			c3.61,2.47,7.94,4.3,13,5.51c5.06,1.2,10.88,1.8,17.46,1.8c13.41,0,23.82-1.87,31.22-5.6c7.4-3.73,12.59-8.96,15.56-15.66
			c2.97-6.71,4.71-13.89,5.22-21.54c0.5-7.67,0.88-19.96,1.14-36.92c-7.97,11.13-17.18,19.62-27.61,25.43
			c-10.45,5.82-22.87,8.73-37.3,8.73c-17.34,0-32.49-4.43-45.45-13.29c-12.97-8.85-22.94-21.26-29.9-37.2
			c-6.96-15.94-10.44-34.36-10.44-55.24c0-15.56,2.12-29.61,6.36-42.14c4.24-12.53,10.28-23.08,18.13-31.69
			c7.84-8.61,16.89-15.09,27.14-19.46c10.25-4.36,21.51-6.55,33.78-6.55c14.68,0,27.39,2.82,38.15,8.45
			c10.75,5.63,20.75,14.46,29.99,26.47v-7.02c0-8.99,2.21-15.94,6.64-20.88c4.43-4.93,10.12-7.41,17.08-7.41
			c9.99,0,16.64,3.26,19.93,9.78C2183.14,926.86,2184.79,936.25,2184.79,948.52z M2034.66,1014.19c0,21.01,4.59,36.89,13.76,47.65
			c9.17,10.75,21.03,16.13,35.58,16.13c8.6,0,16.73-2.3,24.39-6.92c7.65-4.63,13.88-11.58,18.69-20.88
			c4.81-9.31,7.21-20.6,7.21-33.88c0-21.13-4.65-37.58-13.95-49.35c-9.29-11.77-21.54-17.66-36.72-17.66
			c-14.8,0-26.67,5.63-35.58,16.9C2039.11,977.44,2034.66,993.45,2034.66,1014.19z"/>
		<path class="st1" d="M2080.97,1202.71c-18.28,0-34.89-2.61-49.37-7.76c-14.67-5.24-26.19-12.14-34.24-20.51
			c-8.41-8.76-12.67-18.04-12.67-27.58c0-7.64,2.67-13.98,7.93-18.84c5.14-4.78,11.44-7.21,18.69-7.21
			c8.97,0,16.86,3.93,23.44,11.69c2.81,3.46,5.67,6.88,8.62,10.34c2.69,3.15,5.71,5.88,8.97,8.1c3.11,2.13,6.97,3.76,11.47,4.83
			c4.7,1.11,10.21,1.68,16.39,1.68c12.61,0,22.42-1.72,29.16-5.11c6.47-3.26,10.86-7.65,13.43-13.42
			c2.74-6.17,4.36-12.89,4.83-19.97c0.35-5.38,0.65-13.23,0.88-23.42c-6.25,6.68-13.12,12.13-20.53,16.26
			c-11.1,6.18-24.4,9.31-39.54,9.31c-18.18,0-34.35-4.74-48.04-14.09c-13.64-9.3-24.24-22.48-31.52-39.16
			c-7.18-16.44-10.82-35.65-10.82-57.08c0-16.01,2.22-30.68,6.6-43.6c4.42-13.07,10.84-24.28,19.08-33.32
			c8.25-9.05,17.92-15.97,28.74-20.59c10.79-4.59,22.76-6.92,35.59-6.92c15.35,0,28.9,3.02,40.28,8.98
			c8.25,4.32,16.12,10.46,23.51,18.32c0.77-7.71,3.31-14,7.58-18.75c5.31-5.92,12.21-8.93,20.5-8.93c11.82,0,19.91,4.14,24.03,12.31
			c3.65,7.23,5.43,17.12,5.43,30.24v150.52c0,17.58-1.92,32.96-5.7,45.72c-3.87,13.07-10.2,24.08-18.81,32.69
			c-8.61,8.61-19.96,15.06-33.73,19.18C2117.67,1200.66,2100.78,1202.71,2080.97,1202.71z M2011.31,1130.01
			c-4.92,0-8.99,1.56-12.43,4.76c-3.35,3.1-4.98,7.05-4.98,12.09c0,7.18,3.31,14.12,10.1,21.21c7.05,7.34,17.38,13.46,30.69,18.22
			c13.48,4.79,29.05,7.22,46.28,7.22c18.92,0,34.92-1.92,47.55-5.7c12.29-3.68,22.34-9.35,29.86-16.87
			c7.51-7.52,13.06-17.21,16.49-28.8c3.52-11.91,5.31-26.42,5.31-43.11V948.52c0-11.48-1.49-20.27-4.44-26.1
			c-2.46-4.89-7.64-7.26-15.82-7.26c-5.64,0-10.11,1.92-13.65,5.88c-3.64,4.04-5.47,10.03-5.47,17.8v20.55l-8.25-10.73
			c-8.78-11.42-18.36-19.91-28.48-25.21c-10.04-5.26-22.16-7.92-36.01-7.92c-11.58,0-22.34,2.08-31.98,6.19
			c-9.6,4.09-18.19,10.26-25.54,18.32c-7.38,8.1-13.16,18.22-17.18,30.07c-4.05,11.98-6.11,25.66-6.11,40.66
			c0,20.16,3.38,38.13,10.06,53.4c6.57,15.07,16.09,26.92,28.27,35.24c12.14,8.28,26.56,12.49,42.86,12.49
			c13.55,0,25.34-2.74,35.06-8.15c9.79-5.46,18.57-13.56,26.12-24.09l8.56-11.96l-0.22,14.71c-0.26,17.22-0.63,29.37-1.15,37.15
			c-0.54,8.16-2.43,15.94-5.6,23.1c-3.41,7.68-9.37,13.7-17.7,17.91c-8.04,4.04-19.24,6.09-33.3,6.09c-6.89,0-13.12-0.65-18.52-1.93
			c-5.61-1.34-10.5-3.42-14.55-6.19c-3.92-2.68-7.54-5.95-10.77-9.73c-2.99-3.52-5.9-6.99-8.7-10.43
			C2022.92,1132.77,2017.54,1130.01,2011.31,1130.01z M2084,1082.56c-15.89,0-29.03-5.97-39.08-17.74
			c-9.86-11.56-14.86-28.59-14.86-50.63c0-21.72,4.84-38.83,14.38-50.87c9.79-12.37,22.98-18.64,39.19-18.64
			c16.59,0,30.16,6.53,40.33,19.4c9.91,12.54,14.94,30.11,14.94,52.2c0,13.97-2.6,26.08-7.73,36c-5.18,10.01-12.04,17.64-20.4,22.7
			C2102.43,1080.01,2093.42,1082.56,2084,1082.56z M2083.62,953.88c-13.45,0-23.91,4.96-31.98,15.16
			c-8.22,10.37-12.39,25.57-12.39,45.16c0,19.79,4.26,34.81,12.66,44.65c8.34,9.77,18.83,14.52,32.09,14.52
			c7.73,0,15.13-2.1,22.02-6.26c6.88-4.16,12.59-10.57,16.98-19.05c4.44-8.6,6.7-19.29,6.7-31.77c0-19.97-4.36-35.62-12.96-46.5
			C2108.28,959.08,2097.45,953.88,2083.62,953.88z"/>
	</g>
</g>
<g>
	<path class="st2" d="M1525.46,437.53c-27.13,3.08-53.19,10.23-77.82,20.61c104.55,102.27,134.49,247.06,136.3,256.27
		c6.14,32.35,34.44,54.88,66.2,54.88c4.17,0,8.41-0.4,12.66-1.2c36.6-6.96,60.64-42.26,53.68-78.86
		c-12.7-66.85-45.84-158.76-104.67-243.37C1583.9,437.97,1554.76,434.94,1525.46,437.53z"/>
	<path class="st2" d="M1202.64,222.73c-2.06-0.02-4.08-0.02-6.12-0.02c-336.3,0-464.58,307.18-485.41,470.58
		c-4.7,36.89,21.34,70.52,58.22,75.33c36.78,4.77,70.68-21.24,75.59-58.09c1.93-14.48,50.39-352.9,351.76-352.9
		c1.49,0,2.98,0,4.47,0.02c43.14,0.47,81.47,7.62,115.78,19.31c47.84-33.23,102.01-56.86,160.05-68.29
		C1404.53,258,1314.05,223.96,1202.64,222.73z"/>
	<path class="st1" d="M1856.75,458.86c-84.04-109.4-212.69-167.58-344.18-155.64l-1.34,0.13c-11.55,1.28-22.97,3.09-34.25,5.31
		c-58.04,11.43-112.21,35.06-160.05,68.29c-100.7,69.96-173.25,182.55-194,314.38c-5.79,36.8,19.36,71.33,56.16,77.12
		c3.55,0.55,7.08,0.83,10.56,0.83c32.63,0,61.33-23.74,66.56-56.99c18.43-117.17,92.99-212.68,191.42-254.16
		c24.63-10.38,50.69-17.53,77.82-20.61c29.3-2.59,58.44,0.44,86.35,8.33c53.01,14.98,101.55,47.81,137.95,95.19
		c22.69,29.54,65.03,35.09,94.59,12.4C1873.9,530.75,1879.45,488.41,1856.75,458.86z"/>
</g>
</svg>
