<?xml version="1.0" encoding="utf-8"?>
<!-- Generator: Adobe Illustrator 23.0.2, SVG Export Plug-In . SVG Version: 6.00 Build 0)  -->
<svg version="1.1" id="Laag_1" xmlns="http://www.w3.org/2000/svg" xmlns:xlink="http://www.w3.org/1999/xlink" x="0px" y="0px"
	 viewBox="0 0 86 678" style="enable-background:new 0 0 86 678;" xml:space="preserve">
<style type="text/css">
	.st0{clip-path:url(#SVGID_2_);fill:#94D8F5;}
	.st1{clip-path:url(#SVGID_2_);fill:#FC4540;}
	.st2{clip-path:url(#SVGID_2_);fill:#FFA338;}
	.st3{clip-path:url(#SVGID_2_);fill:#39BAAB;}
	.st4{clip-path:url(#SVGID_2_);fill:#FFED00;}
	.st5{clip-path:url(#SVGID_4_);fill:#94D8F5;}
	.st6{clip-path:url(#SVGID_4_);fill:#FC4540;}
	.st7{clip-path:url(#SVGID_4_);fill:#FFA338;}
	.st8{clip-path:url(#SVGID_4_);fill:#39BAAB;}
	.st9{clip-path:url(#SVGID_4_);fill:#FFED00;}
	.st10{fill:#FC4540;}
	.st11{fill:#39BAAB;}
	.st12{fill:#94D8F5;}
	.st13{fill:#FFED00;}
	.st14{fill:#FFA238;}
</style>
<g>
	<defs>
		<rect id="SVGID_1_" x="4.03" y="9.56" width="75.03" height="665.93"/>
	</defs>
	<clipPath id="SVGID_2_">
		<use xlink:href="#SVGID_1_"  style="overflow:visible;"/>
	</clipPath>
	<path class="st0" d="M54.2,394.53c1.1-1.63,0.92-3.85-0.53-5.29c-0.43-0.44-10.78-11.06-3.56-22.03c0.04-0.05,0.07-0.1,0.1-0.15
		c7.09-10.51,20.21-4.18,20.76-3.9c2.06,1.02,4.56,0.19,5.59-1.87c1.03-2.05,0.2-4.55-1.85-5.58c-6.97-3.51-22.45-6.6-31.41,6.68
		c-0.05,0.08-0.11,0.16-0.16,0.25c-8.8,13.36-0.81,27.13,4.65,32.53c1.64,1.62,4.27,1.61,5.9-0.03
		C53.89,394.94,54.05,394.74,54.2,394.53"/>
	<path class="st1" d="M67.46,446.95c-2.21-1.12-4.97-0.56-6.54,1.47c-0.48,0.61-12.19,15.19-27.02,7.84
		c-0.07-0.03-0.14-0.07-0.21-0.1c-14.24-7.25-8.34-24.65-8.08-25.39c0.96-2.73-0.46-5.74-3.2-6.7c-2.73-0.97-5.72,0.45-6.7,3.17
		c-3.33,9.27-4.81,29.12,13.19,38.28c0.11,0.05,0.22,0.11,0.33,0.16c18.07,8.96,34.07-3.16,40-10.82c1.78-2.29,1.36-5.6-0.94-7.37
		C68.03,447.28,67.75,447.1,67.46,446.95"/>
	<path class="st2" d="M24.82,504.31c0.03,1.59,1.18,2.99,2.81,3.27c0.49,0.09,12.31,2.34,12.62,12.98c0,0.05,0,0.1,0,0.15
		c0.18,10.28-11.48,12.18-11.98,12.26c-1.84,0.28-3.12,2-2.84,3.85c0.27,1.84,1.98,3.12,3.83,2.85c6.27-0.91,17.99-6.06,17.77-19.06
		c0-0.08,0-0.16-0.01-0.24c-0.37-12.98-12.09-18.41-18.23-19.46c-1.84-0.32-3.59,0.92-3.91,2.76
		C24.83,503.89,24.82,504.1,24.82,504.31"/>
	<path class="st3" d="M21.94,675.19c2.17-0.79,3.55-3.04,3.17-5.41c-0.11-0.72-2.62-18.03,11.87-23.49c0.07-0.02,0.14-0.05,0.2-0.07
		c14.04-5.11,22.18,10.02,22.52,10.67c1.26,2.4,4.22,3.34,6.63,2.09c2.4-1.25,3.35-4.2,2.11-6.61c-4.22-8.18-16.85-21.86-34.6-15.4
		c-0.11,0.04-0.22,0.08-0.33,0.12c-17.66,6.65-19.57,25.32-18.12,34.27c0.44,2.68,2.96,4.5,5.65,4.06
		C21.36,675.37,21.66,675.29,21.94,675.19"/>
	<path class="st4" d="M76.44,589.4c-2.01-1.02-4.52-0.51-5.95,1.34c-0.44,0.55-11.09,13.82-24.59,7.13
		c-0.06-0.03-0.13-0.06-0.19-0.09c-12.95-6.6-7.59-22.43-7.35-23.1c0.87-2.49-0.43-5.22-2.92-6.1c-2.48-0.88-5.21,0.4-6.1,2.88
		c-3.03,8.43-4.37,26.49,12,34.83c0.1,0.05,0.2,0.1,0.3,0.15c16.44,8.15,31-2.88,36.4-9.85c1.62-2.09,1.24-5.09-0.85-6.71
		C76.96,589.7,76.71,589.54,76.44,589.4"/>
	<path class="st4" d="M42.47,318.32c1.23-0.45,2-1.71,1.78-3.05c-0.06-0.4-1.47-10.15,6.68-13.22c0.04-0.01,0.08-0.03,0.12-0.04
		c7.91-2.88,12.48,5.64,12.68,6.01c0.71,1.35,2.37,1.88,3.73,1.17c1.35-0.7,1.88-2.36,1.19-3.72c-2.37-4.61-9.49-12.3-19.48-8.67
		c-0.06,0.02-0.12,0.05-0.18,0.07c-9.94,3.74-11.02,14.25-10.2,19.29c0.25,1.51,1.67,2.53,3.17,2.29
		C42.14,318.42,42.31,318.38,42.47,318.32"/>
	<path class="st1" d="M8.04,238.74c2.09-0.22,4.11,1.07,4.74,3.16c0.2,0.63,5.05,15.77,19.06,14.45c0.07-0.01,0.13-0.01,0.2-0.02
		c13.51-1.42,14.13-17.03,14.14-17.69c0.07-2.46,2.12-4.41,4.58-4.35c2.46,0.06,4.41,2.1,4.35,4.56
		c-0.19,8.37-5.06,24.57-22.13,26.37c-0.1,0.01-0.21,0.02-0.31,0.03c-17.08,1.6-26.08-12.89-28.46-20.78
		c-0.71-2.36,0.63-4.86,2.99-5.57C7.49,238.83,7.76,238.77,8.04,238.74"/>
	<path class="st3" d="M28.65,208.38c0.02-1.3,0.97-2.45,2.3-2.68c0.4-0.07,10.07-1.91,10.32-10.62c0-0.04,0-0.08,0-0.12
		c0.15-8.41-9.4-9.97-9.81-10.03c-1.51-0.23-2.55-1.64-2.33-3.15c0.23-1.51,1.62-2.55,3.13-2.33c5.13,0.75,14.72,4.96,14.54,15.59
		c0,0.06,0,0.13-0.01,0.19c-0.3,10.62-9.89,15.06-14.92,15.92c-1.51,0.26-2.94-0.75-3.2-2.26
		C28.66,208.72,28.65,208.55,28.65,208.38"/>
	<path class="st0" d="M53.82,155.25c-0.64-0.94-0.53-2.23,0.3-3.06c0.25-0.25,6.24-6.4,2.06-12.74c-0.02-0.03-0.04-0.06-0.06-0.09
		c-4.1-6.08-11.69-2.42-12.02-2.26c-1.19,0.59-2.64,0.11-3.23-1.08c-0.59-1.19-0.12-2.63,1.07-3.23c4.04-2.03,12.99-3.82,18.18,3.86
		c0.03,0.05,0.06,0.09,0.09,0.14c5.09,7.73,0.46,15.7-2.69,18.83c-0.95,0.94-2.47,0.93-3.41-0.02
		C54,155.5,53.91,155.38,53.82,155.25"/>
	<path class="st1" d="M16.72,96.68c0.41-1.54,1.87-2.62,3.52-2.49c0.5,0.03,12.52,0.71,15.39-9.55c0.01-0.05,0.03-0.1,0.04-0.15
		c2.66-9.94-8.2-14.6-8.66-14.8c-1.72-0.72-2.55-2.69-1.83-4.42c0.71-1.72,2.68-2.55,4.4-1.84c5.86,2.4,16,10.24,12.63,22.8
		c-0.02,0.08-0.04,0.15-0.06,0.23c-3.5,12.5-16.19,14.94-22.41,14.47c-1.86-0.14-3.26-1.76-3.13-3.63
		C16.63,97.09,16.66,96.88,16.72,96.68"/>
	<path class="st4" d="M72.31,37.35c-0.88-1.31-2.59-1.85-4.1-1.2c-0.45,0.19-11.48,4.7-17.47-3.98c-0.03-0.04-0.06-0.08-0.08-0.12
		c-5.69-8.44,2.97-16.3,3.34-16.64c1.38-1.23,1.51-3.34,0.29-4.73c-1.22-1.38-3.33-1.52-4.71-0.3c-4.71,4.14-11.66,14.74-4.47,25.4
		c0.05,0.06,0.09,0.13,0.13,0.19c7.3,10.57,19.96,8.76,25.63,6.32c1.7-0.73,2.48-2.7,1.75-4.4C72.53,37.71,72.43,37.52,72.31,37.35"
		/>
</g>
<g>
	<defs>
		
			<rect id="SVGID_3_" x="1344.03" y="17.56" transform="matrix(1 -4.676735e-03 4.676735e-03 1 -1.6242 6.465)" width="75.03" height="665.93"/>
	</defs>
	<clipPath id="SVGID_4_">
		<use xlink:href="#SVGID_3_"  style="overflow:visible;"/>
	</clipPath>
	<path class="st5" d="M1368.65,298.58c-1.09,1.63-0.9,3.86,0.55,5.29c0.43,0.43,10.83,11.01,3.66,22.01
		c-0.04,0.05-0.07,0.1-0.1,0.16c-7.04,10.54-20.19,4.27-20.75,4c-2.07-1.01-4.56-0.17-5.58,1.9c-1.02,2.06-0.18,4.55,1.87,5.58
		c6.99,3.48,22.48,6.49,31.38-6.83c0.05-0.08,0.11-0.16,0.16-0.25c8.74-13.4,0.68-27.13-4.8-32.51c-1.64-1.61-4.28-1.59-5.9,0.05
		C1368.96,298.16,1368.79,298.36,1368.65,298.58"/>
	<path class="st6" d="M1355.14,246.21c2.21,1.11,4.97,0.54,6.53-1.5c0.48-0.61,12.12-15.25,26.98-7.96c0.07,0.03,0.14,0.07,0.21,0.1
		c14.27,7.19,8.45,24.61,8.2,25.35c-0.95,2.74,0.49,5.74,3.23,6.69c2.73,0.95,5.72-0.47,6.68-3.2c3.28-9.28,4.67-29.14-13.37-38.22
		c-0.11-0.05-0.22-0.11-0.33-0.16c-18.12-8.87-34.05,3.32-39.95,11.01c-1.77,2.3-1.33,5.6,0.97,7.37
		C1354.56,245.89,1354.85,246.07,1355.14,246.21"/>
	<path class="st7" d="M1397.51,188.65c-0.04-1.59-1.2-2.98-2.82-3.26c-0.49-0.09-12.32-2.28-12.68-12.92c0-0.05,0-0.1,0-0.15
		c-0.23-10.28,11.43-12.23,11.93-12.31c1.84-0.29,3.11-2.01,2.82-3.86c-0.28-1.84-2-3.11-3.84-2.83
		c-6.26,0.94-17.96,6.15-17.68,19.14c0,0.08,0,0.16,0.01,0.24c0.43,12.98,12.17,18.35,18.32,19.38c1.84,0.31,3.59-0.94,3.9-2.78
		C1397.5,189.08,1397.52,188.86,1397.51,188.65"/>
	<path class="st8" d="M1399.59,17.77c-2.17,0.8-3.54,3.06-3.14,5.42c0.12,0.72,2.7,18.02-11.76,23.54c-0.07,0.02-0.14,0.05-0.2,0.08
		c-14.02,5.18-22.23-9.92-22.57-10.57c-1.27-2.39-4.24-3.32-6.64-2.06c-2.4,1.26-3.33,4.22-2.08,6.62
		c4.25,8.16,16.95,21.78,34.67,15.23c0.11-0.04,0.22-0.08,0.33-0.12c17.63-6.73,19.45-25.41,17.96-34.35
		c-0.45-2.68-2.99-4.49-5.66-4.03C1400.18,17.58,1399.88,17.66,1399.59,17.77"/>
	<path class="st9" d="M1345.49,103.8c2.01,1.01,4.52,0.49,5.94-1.36c0.44-0.56,11.03-13.87,24.55-7.25
		c0.06,0.03,0.13,0.06,0.19,0.09c12.99,6.54,7.69,22.39,7.46,23.06c-0.86,2.49,0.45,5.22,2.94,6.09c2.48,0.87,5.2-0.43,6.08-2.91
		c2.99-8.45,4.25-26.51-12.16-34.77c-0.1-0.05-0.2-0.1-0.3-0.15c-16.48-8.07-30.99,3.02-36.35,10.02c-1.61,2.09-1.21,5.1,0.89,6.71
		C1344.97,103.51,1345.23,103.67,1345.49,103.8"/>
	<path class="st9" d="M1380.73,374.73c-1.22,0.45-1.99,1.72-1.77,3.05c0.07,0.4,1.52,10.14-6.62,13.25
		c-0.04,0.01-0.08,0.03-0.12,0.04c-7.89,2.91-12.51-5.58-12.71-5.95c-0.71-1.35-2.38-1.87-3.73-1.16c-1.35,0.71-1.87,2.37-1.17,3.72
		c2.4,4.6,9.54,12.26,19.52,8.58c0.06-0.02,0.12-0.05,0.18-0.07c9.92-3.79,10.95-14.31,10.11-19.34c-0.25-1.51-1.68-2.52-3.18-2.27
		C1381.06,374.62,1380.89,374.67,1380.73,374.73"/>
	<path class="st6" d="M1415.54,454.14c-2.09,0.23-4.12-1.05-4.76-3.14c-0.2-0.63-5.12-15.75-19.12-14.37
		c-0.07,0.01-0.13,0.01-0.2,0.02c-13.5,1.48-14.05,17.09-14.06,17.76c-0.06,2.46-2.1,4.42-4.56,4.37c-2.46-0.05-4.42-2.08-4.38-4.54
		c0.15-8.37,4.94-24.6,22.01-26.47c0.1-0.01,0.21-0.02,0.31-0.03c17.07-1.68,26.14,12.77,28.55,20.65c0.72,2.36-0.61,4.86-2.97,5.58
		C1416.09,454.05,1415.81,454.11,1415.54,454.14"/>
	<path class="st8" d="M1395.06,484.6c-0.02,1.3-0.96,2.45-2.29,2.69c-0.4,0.07-10.06,1.96-10.27,10.67c0,0.04,0,0.08,0,0.12
		c-0.11,8.41,9.45,9.92,9.85,9.98c1.51,0.23,2.56,1.62,2.34,3.13c-0.22,1.51-1.61,2.56-3.12,2.35c-5.14-0.72-14.75-4.89-14.61-15.52
		c0-0.06,0-0.13,0.01-0.19c0.25-10.62,9.82-15.1,14.84-15.99c1.51-0.27,2.94,0.74,3.21,2.25
		C1395.05,484.26,1395.06,484.43,1395.06,484.6"/>
	<path class="st5" d="M1370.14,537.84c0.64,0.94,0.54,2.23-0.29,3.06c-0.25,0.25-6.21,6.43-2,12.75c0.02,0.03,0.04,0.06,0.06,0.09
		c4.13,6.06,11.7,2.36,12.03,2.2c1.19-0.6,2.64-0.12,3.24,1.07c0.6,1.18,0.13,2.63-1.05,3.23c-4.03,2.05-12.98,3.88-18.19-3.78
		c-0.03-0.05-0.06-0.09-0.09-0.14c-5.13-7.71-0.54-15.69,2.61-18.84c0.94-0.94,2.47-0.94,3.41,0
		C1369.96,537.6,1370.06,537.72,1370.14,537.84"/>
	<path class="st6" d="M1407.52,596.25c-0.41,1.54-1.86,2.62-3.51,2.51c-0.5-0.03-12.52-0.65-15.34,9.62
		c-0.01,0.05-0.03,0.1-0.04,0.15c-2.61,9.95,8.27,14.56,8.73,14.76c1.72,0.71,2.56,2.68,1.85,4.41c-0.7,1.73-2.67,2.56-4.39,1.86
		c-5.88-2.37-16.04-10.17-12.74-22.74c0.02-0.08,0.04-0.15,0.06-0.23c3.44-12.52,16.12-15.01,22.34-14.58
		c1.87,0.13,3.27,1.75,3.14,3.61C1407.61,595.83,1407.58,596.04,1407.52,596.25"/>
	<path class="st9" d="M1352.21,655.83c0.89,1.3,2.6,1.83,4.1,1.18c0.45-0.19,11.46-4.75,17.49,3.9c0.03,0.04,0.06,0.08,0.08,0.12
		c5.73,8.41-2.89,16.32-3.26,16.65c-1.37,1.24-1.5,3.35-0.27,4.73c1.23,1.37,3.33,1.5,4.71,0.28c4.69-4.16,11.6-14.79,4.36-25.42
		c-0.05-0.06-0.09-0.13-0.13-0.19c-7.35-10.54-20-8.66-25.66-6.2c-1.69,0.74-2.47,2.71-1.73,4.4
		C1351.99,655.48,1352.09,655.66,1352.21,655.83"/>
</g>
<g>
	<g>
		<g>
			<path class="st10" d="M-371,803.22c-5.81,3.81-13.69,3.09-18.7-2.09c-2.22-2.27-55.72-55.93-112.86-19.33
				c-23.48,14.94-34.59,37.34-32.92,66.23c1.3,22.49,10,40.88,10.09,41.06c3.57,7.33,0.52,16.17-6.79,19.74
				c-7.33,3.57-16.17,0.53-19.74-6.79c-15.9-32.6-29.3-104.86,33.44-145.09c62.11-39.78,125.28-1.91,150.01,23.67
				c5.67,5.86,5.51,15.21-0.36,20.87C-369.51,802.14-370.24,802.72-371,803.22z"/>
			<path class="st10" d="M-435.39,736.74c31.18,7.02,57.07,25.31,71.11,39.83c7.88,8.15,7.66,21.2-0.49,29.09
				c-0.95,0.91-1.96,1.72-3.02,2.42l0,0c-8.24,5.41-19.21,4.18-26.07-2.92c-2.09-2.14-52.34-52.55-105.54-18.47
				c-21.63,13.76-31.8,34.28-30.26,60.99c1.23,21.22,9.44,38.7,9.53,38.88c4.96,10.17,0.71,22.51-9.48,27.49
				c-10.2,4.98-22.54,0.73-27.52-9.47c-16.68-34.19-30.71-110.06,35.53-152.54C-491.75,732.92-461.69,730.82-435.39,736.74z
				 M-374.19,798.37c0.47-0.31,0.92-0.67,1.34-1.07c3.54-3.42,3.63-9.09,0.2-12.64c-23.58-24.4-83.76-60.57-142.69-22.82
				c-59.35,38.06-46.46,106.68-31.36,137.65c2.16,4.43,7.53,6.28,11.96,4.12c4.43-2.16,6.28-7.53,4.12-11.97
				c-0.07-0.13-9.3-19.54-10.67-43.27c-1.78-30.8,10.53-55.51,35.61-71.47c61.07-39.11,117.76,17.73,120.14,20.17
				C-382.54,800.18-377.78,800.71-374.19,798.37L-374.19,798.37z"/>
		</g>
		<g>
			<path class="st10" d="M-436.07,740.03c30.4,6.85,55.67,24.7,69.36,38.87c3.2,3.3,4.91,7.66,4.84,12.26
				c-0.08,4.6-1.94,8.89-5.25,12.09c-0.8,0.77-1.64,1.44-2.53,2.02l0,0c-6.9,4.53-16.07,3.5-21.81-2.44
				c-2.19-2.23-54.3-54.5-109.77-18.97c-22.72,14.46-33.41,36-31.8,64.02c1.27,22.06,9.76,39.95,9.85,40.13
				c4.16,8.53,0.6,18.86-7.93,23.02c-4.13,2.02-8.81,2.3-13.15,0.81c-4.35-1.5-7.86-4.6-9.87-8.73
				c-16.22-33.26-29.92-107.04,34.33-148.24C-490.82,736.31-461.63,734.28-436.07,740.03z M-381.78,802.88
				c3.16,0.71,6.57,0.17,9.44-1.71l0,0c0.64-0.42,1.25-0.9,1.81-1.45c2.36-2.28,3.69-5.35,3.75-8.64c0.06-3.29-1.17-6.4-3.46-8.76
				c-24.24-25.08-86.15-62.24-146.92-23.31c-61.34,39.33-48.12,110.05-32.56,141.95c1.44,2.95,3.95,5.17,7.06,6.24
				c3.12,1.06,6.45,0.87,9.4-0.58c6.1-2.98,8.64-10.36,5.67-16.45c-0.08-0.16-9.01-18.97-10.34-42
				c-1.73-29.93,9.73-52.96,34.06-68.44c58.79-37.66,113.63,17.32,115.94,19.68C-386.22,801.2-384.06,802.36-381.78,802.88z"/>
			<path class="st10" d="M-434.79,734.36L-434.79,734.36c31.21,7.03,57.8,25.53,72.27,40.51c4.27,4.42,6.57,10.24,6.47,16.39
				c-0.11,6.16-2.6,11.9-7.03,16.17c-1.06,1.03-2.21,1.94-3.4,2.71c-9.21,6.05-21.49,4.68-29.17-3.27
				c-2.03-2.08-50.98-51.08-102.45-18.11c-20.82,13.25-30.61,33.02-29.13,58.78c1.2,20.73,9.21,37.78,9.29,37.95
				c5.55,11.38,0.79,25.19-10.62,30.76c-5.52,2.7-11.78,3.07-17.59,1.08c-5.82-2-10.51-6.15-13.21-11.68
				c-17.01-34.86-31.28-112.27,36.41-155.68C-495.76,732.56-466.1,727.31-434.79,734.36z M-380.5,797.2c1.73,0.39,3.5,0.07,4.97-0.9
				c0.34-0.22,0.67-0.48,0.97-0.78c1.24-1.2,1.94-2.81,1.97-4.55c0.03-1.73-0.62-3.37-1.82-4.62c-23.1-23.9-82-59.35-139.6-22.46
				c-57.89,37.12-45.25,104.21-30.47,134.5c0.76,1.56,2.08,2.73,3.72,3.29c1.67,0.56,3.38,0.46,4.96-0.31
				c3.22-1.57,4.56-5.46,2.99-8.69c-0.08-0.17-9.51-19.88-10.91-44.21c-1.86-32.19,10.5-56.98,36.74-73.68
				c62.79-40.22,120.78,18.03,123.22,20.53C-382.87,796.29-381.75,796.92-380.5,797.2z"/>
		</g>
	</g>
</g>
<g>
	<g>
		<g>
			<path class="st11" d="M-1796.44,538.2c-0.22-9.13,6.06-17.42,15.31-19.41c4.08-0.9,101.06-23.35,99.87-112.5
				c-0.38-36.57-17.66-64.51-51.04-82.69c-26-14.15-52.55-17.21-52.81-17.23c-10.66-1.1-18.4-10.63-17.31-21.28
				c1.1-10.65,10.63-18.4,21.28-17.31c47.4,4.88,137.33,40.07,138.67,137.99c1.28,96.9-84.8,141.1-130.5,150.94
				c-10.47,2.26-20.78-4.41-23.04-14.88C-1796.26,540.61-1796.41,539.4-1796.44,538.2z"/>
			<path class="st11" d="M-1677.58,512.48c-29.47,29.91-67.84,46.11-93.78,51.7c-14.57,3.14-28.97-6.17-32.11-20.74
				c-0.36-1.69-0.56-3.38-0.6-5.05l0-0.01c-0.31-12.95,8.67-24.33,21.34-27.06c3.84-0.85,94.95-21.93,93.84-104.93
				c-0.35-33.68-16.18-59.27-47.06-76.08c-24.53-13.35-49.73-16.32-49.98-16.35c-14.78-1.52-25.61-14.83-24.09-29.65
				c1.53-14.83,14.83-25.65,29.66-24.13c49.71,5.12,144.11,42.11,145.53,145.49C-1634.2,452.26-1652.73,487.25-1677.58,512.48z
				 M-1788.8,538.01c0.02,0.74,0.11,1.48,0.27,2.24c1.36,6.32,7.63,10.36,13.96,9c43.58-9.38,125.69-51.42,124.47-143.37
				c-1.27-92.63-86.78-125.86-131.82-130.5c-6.45-0.66-12.24,4.04-12.9,10.49c-0.66,6.45,4.05,12.23,10.49,12.9
				c0.2,0.02,28.25,3.19,55.68,18.12c35.59,19.39,54.62,50.27,55.03,89.32c1.26,95.28-101.49,119.08-105.87,120.04
				C-1785.03,527.44-1788.93,532.38-1788.8,538.01L-1788.8,538.01z"/>
		</g>
		<g>
			<path class="st11" d="M-1680.78,509.45c-28.73,29.17-66.19,44.97-91.5,50.41c-5.9,1.27-11.95,0.17-17.03-3.11
				c-5.08-3.28-8.57-8.34-9.84-14.25c-0.3-1.42-0.47-2.83-0.5-4.23l0,0c-0.27-10.83,7.25-20.36,17.86-22.64
				c4.01-0.89,98.48-22.77,97.33-109.31c-0.37-35.38-16.98-62.26-49.36-79.89c-25.49-13.88-51.35-16.83-51.61-16.86
				c-12.4-1.28-21.46-12.41-20.18-24.82c0.61-6.01,3.55-11.42,8.23-15.23c4.69-3.81,10.58-5.57,16.59-4.95
				c48.36,4.98,140.19,40.89,141.57,141.16C-1638.63,450.95-1656.63,484.93-1680.78,509.45z M-1788.56,526.41
				c-2.99,3.03-4.75,7.21-4.64,11.71l0,0c0.02,1,0.14,2.02,0.36,3.03c0.91,4.21,3.41,7.83,7.03,10.17
				c3.63,2.34,7.95,3.13,12.17,2.22c44.8-9.64,129.21-52.93,127.96-147.74c-1.32-95.73-89.39-130.05-135.77-134.83
				c-4.3-0.44-8.51,0.82-11.86,3.54c-3.35,2.74-5.44,6.59-5.88,10.89c-0.91,8.87,5.56,16.82,14.43,17.74
				c0.23,0.02,27.42,3.12,54.03,17.61c34.59,18.84,52.33,47.6,52.73,85.49c1.22,91.72-98.17,114.76-102.41,115.69
				C-1783.61,522.63-1786.41,524.22-1788.56,526.41z"/>
			<path class="st11" d="M-1675.34,514.81L-1675.34,514.81c-29.5,29.95-68.59,46.77-95.34,52.52c-7.89,1.7-15.98,0.23-22.78-4.15
				c-6.79-4.39-11.47-11.16-13.17-19.06c-0.41-1.9-0.63-3.8-0.67-5.68c-0.35-14.47,9.69-27.22,23.89-30.27
				c3.73-0.83,92.37-21.43,91.3-101.74c-0.34-32.42-15.6-57.07-45.37-73.29c-23.96-13.05-48.54-15.94-48.79-15.97
				c-16.54-1.7-28.65-16.6-26.95-33.19c0.82-8.03,4.75-15.28,11-20.38c6.27-5.11,14.16-7.46,22.2-6.63
				c50.7,5.22,146.97,43,148.43,148.65C-1631.03,448.04-1645.75,484.77-1675.34,514.81z M-1783.12,531.77
				c-1.64,1.66-2.5,3.85-2.45,6.17c0.01,0.53,0.08,1.08,0.19,1.62c0.48,2.21,1.79,4.12,3.71,5.35c1.91,1.24,4.19,1.65,6.41,1.17
				c42.69-9.19,123.12-50.31,121.93-140.17c-1.24-90.35-84.87-122.8-128.92-127.33c-2.26-0.23-4.49,0.43-6.26,1.87
				c-1.79,1.47-2.86,3.45-3.1,5.74c-0.48,4.68,2.94,8.87,7.62,9.36c0.24,0.02,28.77,3.19,56.89,18.5
				c37.21,20.26,56.29,51.26,56.71,92.12c1.31,97.96-103.92,122.24-108.4,123.23C-1780.46,529.76-1781.95,530.58-1783.12,531.77z"/>
		</g>
	</g>
</g>
<g>
	<g>
		<g>
			<path class="st12" d="M-693.93,354.51c-3.96,4.37-10.58,5.46-15.8,2.27c-2.31-1.39-57.67-34.03-96.78,8.21
				c-16.09,17.28-20.43,38.04-12.9,61.39c5.87,18.19,16.93,31.43,17.04,31.56c4.5,5.25,3.88,13.16-1.37,17.66
				c-5.25,4.5-13.16,3.88-17.66-1.37c-20.01-23.37-46.43-79.84-3.49-126.25c42.51-45.91,102.45-28.29,128.2-12.57
				c5.9,3.6,7.76,11.31,4.16,17.21C-692.94,353.3-693.41,353.93-693.93,354.51z"/>
			<path class="st12" d="M-760.98,313.67c27.1-0.89,52.25,8.6,66.87,17.53c8.21,5.01,10.81,15.77,5.8,23.99
				c-0.58,0.95-1.24,1.83-1.97,2.63l0,0c-5.61,6.2-14.88,7.53-22.02,3.17c-2.17-1.31-54.18-31.98-90.59,7.35
				c-14.82,15.91-18.79,34.93-11.83,56.53c5.54,17.16,16.01,29.76,16.11,29.88c6.24,7.29,5.38,18.33-1.92,24.59
				c-7.31,6.26-18.35,5.41-24.61-1.9c-20.98-24.51-48.69-83.81-3.37-132.81C-808.07,322.55-783.84,314.42-760.98,313.67z
				 M-697.59,351.2c0.32-0.35,0.61-0.74,0.87-1.17c2.17-3.56,1.04-8.24-2.53-10.42c-24.57-15-81.68-31.85-122.02,11.71
				c-40.61,43.9-15.39,97.49,3.62,119.7c2.72,3.18,7.52,3.55,10.7,0.83c3.18-2.72,3.55-7.52,0.83-10.7
				c-0.08-0.1-11.8-14.06-17.99-33.25c-8.03-24.9-3.19-47.82,13.99-66.27c41.8-45.14,100.46-10.57,102.93-9.07
				C-704.06,354.47-700.04,353.89-697.59,351.2L-697.59,351.2z"/>
		</g>
		<g>
			<path class="st12" d="M-760.83,316.51c26.42-0.86,50.97,8.41,65.24,17.12c3.33,2.03,5.67,5.24,6.59,9.03
				c0.92,3.79,0.3,7.71-1.73,11.04c-0.49,0.8-1.04,1.53-1.65,2.2l0,0c-4.7,5.19-12.45,6.3-18.43,2.65
				c-2.27-1.37-56.21-33.16-94.16,7.85c-15.57,16.72-19.75,36.68-12.45,59.34c5.75,17.84,16.54,30.72,16.65,30.84
				c5.23,6.12,4.52,15.35-1.6,20.59c-2.96,2.54-6.74,3.76-10.63,3.47c-3.89-0.3-7.43-2.1-9.97-5.06
				c-20.41-23.84-47.4-81.49-3.44-129.03C-806.58,325.13-783.05,317.24-760.83,316.51z M-702.86,356.52
				c2.75-0.09,5.43-1.26,7.38-3.41l0,0c0.43-0.48,0.83-1.01,1.18-1.58c1.45-2.38,1.89-5.18,1.23-7.89c-0.65-2.71-2.33-5-4.71-6.45
				c-25.25-15.42-84-32.72-125.59,12.2c-41.97,45.37-16.03,100.61,3.55,123.48c1.81,2.12,4.34,3.4,7.12,3.62
				c2.79,0.21,5.48-0.66,7.59-2.48c4.37-3.74,4.88-10.35,1.14-14.72c-0.1-0.11-11.44-13.66-17.44-32.27
				c-7.8-24.2-3.31-45.55,13.36-63.45c40.23-43.46,96.98-10.02,99.38-8.57C-706.86,356.09-704.84,356.59-702.86,356.52z"/>
			<path class="st12" d="M-761,311.58L-761,311.58c27.12-0.89,52.9,8.63,67.97,17.84c4.45,2.71,7.58,7.01,8.81,12.08
				c1.22,5.08,0.4,10.32-2.32,14.78c-0.65,1.07-1.4,2.06-2.21,2.95c-6.27,6.93-16.64,8.42-24.64,3.54
				c-2.11-1.27-52.75-31.06-87.98,6.99c-14.27,15.32-18.09,33.64-11.37,54.47c5.41,16.76,15.62,29.05,15.72,29.18
				c6.98,8.16,6.02,20.51-2.16,27.52c-3.95,3.39-9.02,5.03-14.21,4.64c-5.21-0.4-9.94-2.81-13.34-6.77
				c-21.4-24.99-49.63-85.5-3.32-135.58C-811.43,323.11-788.21,312.47-761,311.58z M-703.02,351.59c1.5-0.05,2.88-0.69,3.89-1.8
				c0.23-0.25,0.44-0.54,0.63-0.84c0.76-1.25,0.99-2.72,0.65-4.16c-0.35-1.43-1.23-2.64-2.48-3.4
				c-24.06-14.69-79.98-31.23-119.4,11.34c-39.61,42.83-14.92,95.21,3.67,116.93c0.96,1.12,2.29,1.79,3.76,1.91
				c1.49,0.11,2.88-0.34,4-1.31c2.31-1.97,2.57-5.46,0.6-7.77c-0.1-0.12-12.04-14.29-18.39-33.96
				c-8.39-26.03-3.53-49.02,14.45-68.33c42.97-46.42,103-10.97,105.54-9.43C-705.16,351.35-704.1,351.63-703.02,351.59z"/>
		</g>
	</g>
</g>
<g>
	<g>
		<g>
			<path class="st13" d="M-1706.71,838.04c-5.44-2.28-8.66-8.16-7.4-14.14c0.54-2.64,12.9-65.71-39.94-88.53
				c-21.65-9.42-42.67-6.62-62.19,8.26c-15.2,11.58-24.01,26.42-24.09,26.57c-3.46,5.99-11.12,8.04-17.1,4.58
				c-5.99-3.46-8.04-11.12-4.58-17.1c15.38-26.64,59.84-70.34,117.9-45.3c57.43,24.81,60.76,87.2,54.5,116.72
				c-1.43,6.77-8.08,11.08-14.85,9.65C-1705.24,838.57-1706,838.33-1706.71,838.04z"/>
			<path class="st13" d="M-1690.5,761.22c9.85,25.26,9.27,52.14,5.72,68.9c-2,9.41-11.28,15.44-20.69,13.45
				c-1.09-0.23-2.14-0.56-3.14-0.98l0,0c-7.71-3.23-12.05-11.53-10.31-19.71c0.51-2.49,12.13-61.73-37.07-82.98
				c-19.94-8.68-39.19-6.1-57.24,7.65c-14.34,10.93-22.74,25-22.82,25.14c-4.8,8.31-15.49,11.18-23.83,6.37
				c-8.34-4.81-11.2-15.51-6.39-23.84c16.13-27.94,62.84-73.8,124.13-47.36C-1714.54,719.77-1698.81,739.92-1690.5,761.22z
				 M-1704.81,833.48c0.44,0.18,0.9,0.33,1.39,0.43c4.08,0.87,8.12-1.76,8.99-5.85c5.97-28.16,2.87-87.63-51.63-111.17
				c-54.91-23.69-97.06,17.92-111.67,43.24c-2.09,3.62-0.85,8.28,2.78,10.37c3.62,2.09,8.28,0.84,10.37-2.78
				c0.06-0.11,9.33-15.8,25.37-28.03c20.81-15.86,44.03-18.92,67.15-8.86c56.47,24.4,43.38,91.22,42.8,94.05
				C-1710.04,828.48-1708.16,832.08-1704.81,833.48L-1704.81,833.48z"/>
		</g>
		<g>
			<path class="st13" d="M-1693.13,762.3c9.6,24.63,9.03,50.87,5.56,67.22c-0.81,3.81-3.06,7.09-6.33,9.22
				c-3.27,2.13-7.17,2.85-10.99,2.04c-0.92-0.2-1.79-0.47-2.63-0.82l0,0c-6.45-2.7-10.08-9.64-8.63-16.5
				c0.53-2.6,12.57-64.03-38.73-86.19c-20.94-9.12-41.16-6.42-60.1,8c-14.91,11.36-23.47,25.82-23.55,25.96
				c-4.03,6.97-12.98,9.37-19.95,5.34c-3.38-1.95-5.79-5.11-6.81-8.87c-1.01-3.77-0.49-7.71,1.46-11.08
				c15.69-27.18,61.08-71.81,120.53-46.17C-1716.48,722.03-1701.21,741.6-1693.13,762.3z M-1711.58,830.29c1,2.56,3,4.7,5.68,5.83
				l0,0c0.6,0.25,1.23,0.45,1.88,0.59c2.72,0.58,5.51,0.06,7.85-1.46c2.34-1.52,3.94-3.86,4.52-6.58
				c6.14-28.94,2.91-90.1-53.29-114.38c-56.75-24.48-100.22,18.35-115.27,44.43c-1.39,2.42-1.76,5.23-1.04,7.92
				c0.73,2.7,2.45,4.94,4.86,6.34c4.98,2.88,11.38,1.16,14.26-3.82c0.08-0.13,9.07-15.33,24.63-27.19
				c20.23-15.41,41.86-18.28,64.28-8.51c54.36,23.48,41.71,88.12,41.15,90.87C-1712.5,826.37-1712.3,828.44-1711.58,830.29z"/>
			<path class="st13" d="M-1688.54,760.51L-1688.54,760.51c9.86,25.28,9.46,52.75,5.79,70.03c-1.08,5.1-4.08,9.48-8.46,12.33
				c-4.38,2.84-9.6,3.81-14.71,2.73c-1.23-0.26-2.41-0.63-3.52-1.1c-8.62-3.61-13.48-12.89-11.53-22.06
				c0.5-2.42,11.74-60.08-35.86-80.64c-19.19-8.36-37.74-5.87-55.15,7.4c-14.01,10.67-22.2,24.39-22.29,24.53
				c-5.37,9.3-17.34,12.5-26.67,7.12c-4.51-2.6-7.75-6.83-9.1-11.86c-1.35-5.04-0.66-10.31,1.95-14.83
				c16.45-28.5,64.12-75.25,126.75-48.23C-1716.19,716.78-1698.43,735.15-1688.54,760.51z M-1706.99,828.49
				c0.55,1.4,1.61,2.49,2.99,3.07c0.32,0.13,0.66,0.24,1.01,0.31c1.43,0.3,2.9,0.03,4.13-0.77c1.23-0.8,2.08-2.03,2.38-3.47
				c5.85-27.58,2.84-85.82-50.42-108.83c-53.56-23.11-94.75,17.61-109.04,42.36c-0.73,1.27-0.93,2.76-0.55,4.18
				c0.4,1.44,1.28,2.6,2.57,3.34c2.63,1.52,6,0.61,7.52-2.02c0.08-0.14,9.47-16.11,25.91-28.64c21.76-16.58,45.05-19.64,69.24-9.11
				c58.07,25.08,44.61,93.49,44.01,96.39C-1707.47,826.4-1707.38,827.49-1706.99,828.49z"/>
		</g>
	</g>
</g>
<g>
	<g>
		<g>
			<path class="st14" d="M-1336.29,725.92c6.94-3.85,15.85-2.36,21.11,3.96c2.34,2.77,58.72,68.36,126.85,31.5
				c27.99-15.03,42.52-39.6,43.06-72.62c0.41-25.71-7.94-47.38-8.03-47.59c-3.45-8.64,0.76-18.45,9.4-21.9
				c8.64-3.45,18.45,0.76,21.9,9.4c15.36,38.44,24.53,121.84-50.29,162.36c-74.05,40.06-142.78-8.38-168.77-39.58
				c-5.96-7.15-4.99-17.77,2.16-23.73C-1338.08,727.02-1337.2,726.42-1336.29,725.92z"/>
			<path class="st14" d="M-1268.58,807.02c-34.9-10.62-62.84-33.62-77.59-51.33c-8.29-9.95-6.94-24.78,3.01-33.08
				c1.15-0.96,2.37-1.79,3.65-2.5l0.01,0c9.84-5.46,22.22-3.14,29.43,5.51c2.2,2.61,55.16,64.23,118.59,29.91
				c25.78-13.85,39.09-36.35,39.58-66.89c0.39-24.26-7.49-44.85-7.57-45.06c-4.79-11.99,1.09-25.68,13.11-30.49
				c12.03-4.81,25.72,1.07,30.53,13.1c16.11,40.32,25.7,127.88-53.29,170.66C-1204.75,816.12-1239.14,815.97-1268.58,807.02z
				 M-1333.06,731.71c-0.56,0.31-1.1,0.68-1.61,1.11c-4.31,3.59-4.9,10.05-1.3,14.37c24.79,29.76,90.25,76,160.52,37.99
				c70.77-38.32,61.88-117.53,47.28-154.06c-2.09-5.23-8.04-7.79-13.27-5.7c-5.23,2.09-7.78,8.05-5.7,13.28
				c0.06,0.16,8.94,23.02,8.5,50.16c-0.57,35.21-16.66,62.3-46.55,78.36c-72.82,39.38-132.56-30.1-135.07-33.08
				C-1323.41,730.35-1328.78,729.34-1333.06,731.71L-1333.06,731.71z"/>
		</g>
		<g>
			<path class="st14" d="M-1267.54,803.33c-34.03-10.35-61.29-32.81-75.69-50.09c-3.36-4.03-4.95-9.13-4.47-14.36
				c0.48-5.23,2.96-9.96,7-13.32c0.97-0.81,1.99-1.5,3.06-2.09l0,0c8.23-4.57,18.59-2.63,24.62,4.61
				c2.3,2.73,57.23,66.61,123.36,30.83c27.08-14.55,41.07-38.16,41.58-70.2c0.41-25.22-7.75-46.3-7.83-46.51
				c-4.02-10.06,0.9-21.52,10.96-25.54c4.87-1.95,10.22-1.87,15.04,0.19c4.82,2.07,8.56,5.9,10.5,10.77
				c15.67,39.23,25.05,124.37-51.56,165.86C-1205.52,812.18-1238.92,812.03-1267.54,803.33z M-1324.04,727.22
				c-3.54-1.08-7.47-0.75-10.88,1.15l0,0c-0.76,0.42-1.49,0.92-2.19,1.5c-2.88,2.4-4.65,5.78-4.99,9.51
				c-0.34,3.74,0.79,7.38,3.2,10.26c25.48,30.59,92.83,78.1,165.28,38.91c73.14-39.61,64.05-121.23,49.02-158.85
				c-1.39-3.48-4.06-6.22-7.51-7.7c-3.46-1.47-7.26-1.53-10.75-0.14c-7.19,2.87-10.7,11.06-7.84,18.25
				c0.08,0.19,8.65,22.36,8.23,48.68c-0.55,34.22-15.53,59.47-44.53,75.04c-70.09,37.92-127.89-29.28-130.32-32.17
				C-1319.14,729.51-1321.49,728-1324.04,727.22z"/>
			<path class="st14" d="M-1269.47,809.68L-1269.47,809.68c-34.94-10.63-63.64-33.93-78.86-52.2c-4.49-5.39-6.62-12.21-5.99-19.21
				c0.64-7,3.96-13.32,9.36-17.82c1.3-1.08,2.67-2.02,4.1-2.8c11-6.11,24.85-3.52,32.93,6.18c2.14,2.54,53.74,62.45,115.11,29.24
				c24.82-13.33,37.63-35.02,38.11-64.47c0.38-23.7-7.3-43.78-7.38-43.99c-5.36-13.42,1.22-28.74,14.68-34.12
				c6.51-2.6,13.67-2.5,20.12,0.25c6.46,2.77,11.45,7.89,14.05,14.41c16.43,41.12,26.16,130.44-54.56,174.16
				C-1200.21,816.86-1234.42,820.34-1269.47,809.68z M-1325.97,733.57c-1.94-0.59-3.97-0.38-5.73,0.6c-0.4,0.22-0.8,0.49-1.17,0.8
				c-1.51,1.26-2.44,3.04-2.62,5.01c-0.18,1.97,0.42,3.89,1.68,5.41c24.29,29.15,88.35,74.47,157.03,37.32
				c69.03-37.38,60.28-114.82,46.02-150.55c-0.73-1.84-2.14-3.28-3.96-4.06c-1.86-0.78-3.81-0.81-5.67-0.07
				c-3.79,1.51-5.65,5.84-4.13,9.64c0.08,0.2,9.15,23.43,8.7,51.24c-0.59,36.8-16.75,63.98-48.03,80.78
				c-74.86,40.5-135.97-30.69-138.54-33.74C-1323.35,734.81-1324.58,733.99-1325.97,733.57z"/>
		</g>
	</g>
</g>
</svg>
