<?xml version="1.0" encoding="utf-8"?>
<!-- Generator: Adobe Illustrator 23.0.2, SVG Export Plug-In . SVG Version: 6.00 Build 0)  -->
<svg version="1.1" id="Laag_1" xmlns="http://www.w3.org/2000/svg" xmlns:xlink="http://www.w3.org/1999/xlink" x="0px" y="0px"
	 viewBox="0 0 292 306" style="enable-background:new 0 0 292 306;" xml:space="preserve">
<style type="text/css">
	.st0{clip-path:url(#SVGID_2_);fill:#FFBF36;}
	.st1{clip-path:url(#SVGID_2_);fill:#212121;}
	.st2{clip-path:url(#SVGID_2_);fill:#FF594A;}
	.st3{clip-path:url(#SVGID_2_);fill:#EBC79E;}
	.st4{clip-path:url(#SVGID_2_);fill:#A3BF38;}
	.st5{clip-path:url(#SVGID_2_);fill:none;stroke:#212121;stroke-width:1.802;stroke-linejoin:round;stroke-miterlimit:10;}
	.st6{clip-path:url(#SVGID_2_);fill:#FFEB3D;}
	.st7{clip-path:url(#SVGID_2_);fill:none;stroke:#212121;stroke-width:1.902;stroke-linejoin:round;stroke-miterlimit:10;}
	.st8{clip-path:url(#SVGID_2_);fill:#FFBFBC;}
	.st9{clip-path:url(#SVGID_2_);fill:none;stroke:#212121;stroke-width:3.003;stroke-linecap:round;stroke-miterlimit:10;}
</style>
<g>
	<defs>
		
			<rect id="SVGID_1_" x="52.82" y="30.47" transform="matrix(0.9861 -0.1662 0.1662 0.9861 -23.8736 28.7944)" width="214.48" height="253.07"/>
	</defs>
	<clipPath id="SVGID_2_">
		<use xlink:href="#SVGID_1_"  style="overflow:visible;"/>
	</clipPath>
	<path class="st0" d="M144.11,39.77c0,0,18.12-22.65,67.18,0.72c49.06,23.37,48.53,48.16,28.89,36.1
		c35.77,51.26,15.77,66.07,7.06,48.94c3,16.54,0.16,25.61-23.58-24.74c-23.74-50.35-66.1-52.84-68.44-48.03L144.11,39.77z"/>
	<path class="st1" d="M142.56,37.77c0.28-0.32,0.47-0.51,0.7-0.74c0.22-0.23,0.45-0.42,0.68-0.63c0.46-0.4,0.92-0.79,1.39-1.15
		c0.94-0.74,1.94-1.38,2.94-2.01c2.03-1.22,4.17-2.19,6.37-2.98c4.39-1.6,9.02-2.33,13.6-2.53c4.6-0.19,9.17,0.23,13.64,1.04
		c4.47,0.83,8.87,1.96,13.12,3.48l1.6,0.54l1.58,0.61l3.15,1.22l3.09,1.36c1.03,0.45,2.07,0.89,3.07,1.4c2.01,1,4.06,1.94,6.01,3.04
		c1.97,1.07,3.96,2.11,5.88,3.28c7.75,4.52,15.14,9.58,22.3,14.93c0.38,0.28,0.46,0.82,0.17,1.2c-0.28,0.37-0.81,0.45-1.18,0.18
		l-0.01,0c-7.22-5.18-14.65-10.05-22.39-14.36c-1.91-1.12-3.89-2.11-5.86-3.12c-1.95-1.05-3.98-1.92-5.97-2.87
		c-0.99-0.48-2.02-0.89-3.04-1.31l-3.05-1.27l-3.1-1.13l-1.55-0.57l-1.57-0.5c-4.17-1.4-8.45-2.4-12.75-3.11
		c-4.31-0.69-8.67-1-12.97-0.74c-4.3,0.28-8.57,1.04-12.53,2.58c-1.98,0.75-3.9,1.67-5.67,2.79c-0.88,0.57-1.74,1.15-2.54,1.81
		c-0.41,0.32-0.79,0.66-1.16,1c-0.18,0.17-0.37,0.34-0.53,0.52c-0.16,0.16-0.36,0.37-0.44,0.48l-0.04,0.05
		c-0.68,0.82-1.89,0.93-2.7,0.25c-0.82-0.68-0.93-1.89-0.25-2.7C142.54,37.79,142.55,37.77,142.56,37.77"/>
	<path class="st1" d="M148.71,42.26c7.35-1.93,15.04-2.63,22.61-1.97c7.57,0.65,15.04,2.54,21.99,5.62
		c6.95,3.04,13.4,7.36,18.91,12.47c5.55,5.02,10.68,10.47,15.45,16.19c4.76,5.73,9.19,11.72,13.33,17.88
		c2.08,3.07,4.08,6.21,6.04,9.34c1.96,3.13,3.91,6.28,5.79,9.48c3.76,6.39,7.3,12.98,9.98,19.97c2.69,6.96,4.56,14.34,4.87,21.86
		c0.02,0.53-0.39,0.97-0.91,0.99c-0.52,0.02-0.96-0.38-0.99-0.89c-0.46-7.25-2.43-14.34-5.21-21.06
		c-2.8-6.73-6.32-13.16-10.14-19.42c-1.91-3.13-3.89-6.23-5.89-9.33c-2-3.1-4.01-6.16-6.12-9.16c-4.18-6.03-8.64-11.85-13.4-17.4
		c-4.77-5.54-9.87-10.79-15.34-15.59c-2.73-2.45-5.5-4.63-8.52-6.59c-3-1.95-6.17-3.65-9.45-5.08c-6.57-2.84-13.59-4.65-20.73-5.26
		c-7.13-0.59-14.36-0.08-21.31,1.69l-0.01,0c-1.03,0.26-2.07-0.36-2.34-1.39C147.08,43.57,147.69,42.53,148.71,42.26"/>
	<path class="st1" d="M151.47,48.6c5.21-0.11,10.36,0.65,15.34,1.87c4.98,1.25,9.8,3.02,14.45,5.13c4.64,2.15,9.09,4.66,13.31,7.53
		c4.22,2.86,8.24,6.05,11.88,9.67c1.82,1.81,3.55,3.71,5.16,5.72l1.18,1.53l1.12,1.53c0.75,1.01,1.46,2.06,2.19,3.08
		c2.88,4.14,5.57,8.4,8.08,12.78c5.03,8.72,9.34,17.87,12.65,27.37c0.16,0.46-0.09,0.97-0.55,1.13c-0.45,0.16-0.94-0.07-1.12-0.5
		l0-0.01c-3.76-9.19-8.33-18.03-13.55-26.46c-2.62-4.21-5.37-8.34-8.28-12.34c-0.74-0.99-1.46-2-2.22-2.97l-1.13-1.47l-1.14-1.41
		c-1.55-1.86-3.23-3.62-4.99-5.29c-7.07-6.69-15.41-12.1-24.29-16.15c-4.44-2.02-9.04-3.72-13.75-4.91
		c-4.7-1.21-9.51-1.94-14.3-1.97l-0.01,0c-1.06-0.01-1.92-0.87-1.91-1.93C149.59,49.47,150.43,48.62,151.47,48.6"/>
	<path class="st0" d="M144.11,39.77c0,0,18.12-22.65,67.18,0.72c49.06,23.37,48.53,48.16,28.89,36.1
		c35.77,51.26,15.77,66.07,7.06,48.94c3,16.54,0.16,25.61-23.58-24.74c-23.74-50.35-66.1-52.84-68.44-48.03L144.11,39.77z"/>
	<path class="st1" d="M142.56,37.77c0.28-0.32,0.47-0.51,0.7-0.74c0.22-0.23,0.45-0.42,0.68-0.63c0.46-0.4,0.92-0.79,1.39-1.15
		c0.94-0.74,1.94-1.38,2.94-2.01c2.03-1.22,4.17-2.19,6.37-2.98c4.39-1.6,9.02-2.33,13.6-2.53c4.6-0.19,9.17,0.23,13.64,1.04
		c4.47,0.83,8.87,1.96,13.12,3.48l1.6,0.54l1.58,0.61l3.15,1.22l3.09,1.36c1.03,0.45,2.07,0.89,3.07,1.4c2.01,1,4.06,1.94,6.01,3.04
		c1.97,1.07,3.96,2.11,5.88,3.28c7.75,4.52,15.14,9.58,22.3,14.93c0.38,0.28,0.46,0.82,0.17,1.2c-0.28,0.37-0.81,0.45-1.18,0.18
		l-0.01,0c-7.22-5.18-14.65-10.05-22.39-14.36c-1.91-1.12-3.89-2.11-5.86-3.12c-1.95-1.05-3.98-1.92-5.97-2.87
		c-0.99-0.48-2.02-0.89-3.04-1.31l-3.05-1.27l-3.1-1.13l-1.55-0.57l-1.57-0.5c-4.17-1.4-8.45-2.4-12.75-3.11
		c-4.31-0.69-8.67-1-12.97-0.74c-4.3,0.28-8.57,1.04-12.53,2.58c-1.98,0.75-3.9,1.67-5.67,2.79c-0.88,0.57-1.74,1.15-2.54,1.81
		c-0.41,0.32-0.79,0.66-1.16,1c-0.18,0.17-0.37,0.34-0.53,0.52c-0.16,0.16-0.36,0.37-0.44,0.48l-0.04,0.05
		c-0.68,0.82-1.89,0.93-2.7,0.25c-0.82-0.68-0.93-1.89-0.25-2.7C142.54,37.79,142.55,37.77,142.56,37.77"/>
	<path class="st1" d="M148.71,42.26c7.35-1.93,15.04-2.63,22.61-1.97c7.57,0.65,15.04,2.54,21.99,5.62
		c6.95,3.04,13.4,7.36,18.91,12.47c5.55,5.02,10.68,10.47,15.45,16.19c4.76,5.73,9.19,11.72,13.33,17.88
		c2.08,3.07,4.08,6.21,6.04,9.34c1.96,3.13,3.91,6.28,5.79,9.48c3.76,6.39,7.3,12.98,9.98,19.97c2.69,6.96,4.56,14.34,4.87,21.86
		c0.02,0.53-0.39,0.97-0.91,0.99c-0.52,0.02-0.96-0.38-0.99-0.89c-0.46-7.25-2.43-14.34-5.21-21.06
		c-2.8-6.73-6.32-13.16-10.14-19.42c-1.91-3.13-3.89-6.23-5.89-9.33c-2-3.1-4.01-6.16-6.12-9.16c-4.18-6.03-8.64-11.85-13.4-17.4
		c-4.77-5.54-9.87-10.79-15.34-15.59c-2.73-2.45-5.5-4.63-8.52-6.59c-3-1.95-6.17-3.65-9.45-5.08c-6.57-2.84-13.59-4.65-20.73-5.26
		c-7.13-0.59-14.36-0.08-21.31,1.69l-0.01,0c-1.03,0.26-2.07-0.36-2.34-1.39C147.08,43.57,147.69,42.53,148.71,42.26"/>
	<path class="st1" d="M151.47,48.6c5.21-0.11,10.36,0.65,15.34,1.87c4.98,1.25,9.8,3.02,14.45,5.13c4.64,2.15,9.09,4.66,13.31,7.53
		c4.22,2.86,8.24,6.05,11.88,9.67c1.82,1.81,3.55,3.71,5.16,5.72l1.18,1.53l1.12,1.53c0.75,1.01,1.46,2.06,2.19,3.08
		c2.88,4.14,5.57,8.4,8.08,12.78c5.03,8.72,9.34,17.87,12.65,27.37c0.16,0.46-0.09,0.97-0.55,1.13c-0.45,0.16-0.94-0.07-1.12-0.5
		l0-0.01c-3.76-9.19-8.33-18.03-13.55-26.46c-2.62-4.21-5.37-8.34-8.28-12.34c-0.74-0.99-1.46-2-2.22-2.97l-1.13-1.47l-1.14-1.41
		c-1.55-1.86-3.23-3.62-4.99-5.29c-7.07-6.69-15.41-12.1-24.29-16.15c-4.44-2.02-9.04-3.72-13.75-4.91
		c-4.7-1.21-9.51-1.94-14.3-1.97l-0.01,0c-1.06-0.01-1.92-0.87-1.91-1.93C149.59,49.47,150.43,48.62,151.47,48.6"/>
	<path class="st2" d="M153.33,52.21c-4.38-11.92-15.43-16.68-29.27-1.87"/>
	<path class="st1" d="M152.52,51.52c-1.11-2.8-2.72-5.41-4.88-7.31c-2.15-1.91-4.91-2.92-7.67-2.67c-2.77,0.2-5.46,1.45-7.86,3.11
		c-2.42,1.66-4.58,3.77-6.59,6.01l-0.02,0.02c-0.71,0.79-1.92,0.85-2.71,0.15c-0.79-0.71-0.86-1.92-0.15-2.71
		c0.02-0.02,0.05-0.05,0.07-0.08c2.29-2.29,4.75-4.46,7.58-6.19c2.81-1.72,6.05-3.07,9.56-3.14c3.5-0.13,7,1.41,9.37,3.79
		c2.42,2.37,3.99,5.35,5.02,8.4c0.16,0.48-0.09,1-0.57,1.17C153.21,52.22,152.7,51.97,152.52,51.52"/>
	<path class="st3" d="M66.56,106.72c-7.27-3.05-9.92,2.08-8.63,6.38c1.3,4.29,6.04,5.71,8.32,2.56"/>
	<path class="st1" d="M66.15,107.69c-0.47-0.13-0.93-0.29-1.4-0.4c-0.46-0.08-0.93-0.21-1.37-0.21c-0.46-0.06-0.88-0.01-1.3,0
		l-0.59,0.13c-0.19,0.05-0.36,0.14-0.54,0.2c-0.68,0.32-1.18,0.85-1.52,1.54c-0.33,0.69-0.46,1.54-0.4,2.38
		c0.14,1.7,0.96,3.35,2.31,4.18c0.65,0.41,1.41,0.64,2.13,0.56c0.71-0.08,1.37-0.42,1.92-1.04L65.4,115
		c0.4-0.44,1.08-0.48,1.53-0.08c0.4,0.36,0.47,0.94,0.2,1.37c-0.68,1.1-1.89,1.98-3.26,2.26c-1.37,0.27-2.77-0.06-3.92-0.69
		c-1.16-0.65-2.07-1.64-2.68-2.76c-0.62-1.12-0.95-2.35-1.02-3.6c-0.07-1.25,0.13-2.56,0.74-3.75c0.58-1.2,1.68-2.23,2.94-2.72
		c1.26-0.51,2.58-0.55,3.75-0.34c1.19,0.18,2.26,0.6,3.29,1.07c0.53,0.24,0.76,0.86,0.52,1.39c-0.22,0.47-0.74,0.71-1.23,0.58
		L66.15,107.69z"/>
	<path class="st3" d="M202.88,110.33c7.3-2.85,9.9,2.35,8.56,6.61c-1.34,4.26-6.1,5.55-8.35,2.34"/>
	<path class="st1" d="M202.49,109.36c1.04-0.44,2.12-0.83,3.32-0.98c1.18-0.18,2.5-0.11,3.74,0.44c1.25,0.52,2.31,1.56,2.88,2.76
		c0.59,1.2,0.78,2.51,0.71,3.76c-0.08,1.25-0.42,2.48-1.05,3.6c-0.63,1.11-1.56,2.1-2.74,2.72c-1.17,0.61-2.59,0.89-3.95,0.58
		c-1.36-0.32-2.54-1.23-3.2-2.33c-0.31-0.51-0.14-1.18,0.38-1.48c0.46-0.27,1.03-0.17,1.37,0.22l0.02,0.03
		c0.55,0.63,1.21,0.99,1.92,1.09c0.71,0.11,1.47-0.1,2.13-0.49c1.36-0.78,2.19-2.43,2.34-4.12c0.07-0.84-0.05-1.69-0.38-2.38
		c-0.33-0.7-0.83-1.24-1.51-1.58c-0.18-0.07-0.35-0.16-0.54-0.22l-0.59-0.14c-0.42-0.03-0.84-0.09-1.3-0.04
		c-0.9,0.01-1.84,0.28-2.78,0.54l-0.08,0.02c-0.56,0.15-1.14-0.18-1.29-0.74C201.75,110.08,202.02,109.56,202.49,109.36"/>
	<path class="st4" d="M152.29,175.28c-0.4-0.04-0.76-0.09-1.11-0.14c-3.48,0.72-7.02,1.18-10.58,1.34c-2.06,0.1-4.13,0.1-6.21,0
		c-5.47-0.26-10.76-0.9-15.86-1.86l-23.27,7.53c2.6,5.76,7.76,11.7,8.72,12.78c1.06-0.22,5.73-1.24,10.83-3.45
		c0.73-0.31,1.2-0.1,1.47,0.14c1.11,0.98,1.87,6.39-5.25,31.38c2.63-0.14,13.94-0.72,25.14-1.25c17.79-0.83,23.46-1.01,25.31-0.88
		c-2.05-8.09-6.25-24.76-6.69-27.3c-0.11-0.65,0.16-1.05,0.42-1.27c1.81-1.58,9.57,0.67,11.44,1.24c0.36-0.62,2.32-4.12,2.32-4.12
		l2.62-5.03c0,0,1.6-3.41,2.05-4.72C172.55,178.58,160.24,176.05,152.29,175.28"/>
	<path class="st5" d="M152.29,175.28c-0.4-0.04-0.76-0.09-1.11-0.14c-3.48,0.72-7.02,1.18-10.58,1.34c-2.06,0.1-4.13,0.1-6.21,0
		c-5.47-0.26-10.76-0.9-15.86-1.86l-23.27,7.53c2.6,5.76,7.76,11.7,8.72,12.78c1.06-0.22,5.73-1.24,10.83-3.45
		c0.73-0.31,1.2-0.1,1.47,0.14c1.11,0.98,1.87,6.39-5.25,31.38c2.63-0.14,13.94-0.72,25.14-1.25c17.79-0.83,23.46-1.01,25.31-0.88
		c-2.05-8.09-6.25-24.76-6.69-27.3c-0.11-0.65,0.16-1.05,0.42-1.27c1.81-1.58,9.57,0.67,11.44,1.24c0.36-0.62,2.32-4.12,2.32-4.12
		l2.62-5.03c0,0,1.6-3.41,2.05-4.72C172.55,178.58,160.24,176.05,152.29,175.28z"/>
	<path class="st3" d="M74.97,192.91c-2.06-10.4-5.66-10.53-6.17,0.36c-8.25-7.24-13.09-0.11-3.94,3.49c-9.1,5.38-3.93,6.8,3.53,3.22
		c-9.36,9.13-2.61,11.91,3.73,1.41c0.12,12,3.57,10.26,4.42-2.29l23.33-7.92c-1.05-1.4-2.19-3.02-3.24-4.74
		C90.14,187.75,74.97,192.91,74.97,192.91"/>
	<path class="st5" d="M74.97,192.91c-2.06-10.4-5.66-10.53-6.17,0.36c-8.25-7.24-13.09-0.11-3.94,3.49c-9.1,5.38-3.93,6.8,3.53,3.22
		c-9.36,9.13-2.61,11.91,3.73,1.41c0.12,12,3.57,10.26,4.42-2.29l23.33-7.92c-1.05-1.4-2.19-3.02-3.24-4.74
		C90.14,187.75,74.97,192.91,74.97,192.91z"/>
	<path class="st3" d="M204.64,193.17c8.21-7.5,4.18-9.18-3.76-3.57c0.85-11.19-6.16-10.36-6.39,0.29c0,0-17.11-5.98-21.86-5.77
		c-0.98,2.04-2.12,4.19-3.11,5.99l24.32,6.14c-0.48,14.55,5.6,12.25,4.32,3.18c7.94,9.99,12.71,4.23,3.89-2.98
		C213.03,200.33,212.36,196.77,204.64,193.17"/>
	<path class="st5" d="M204.64,193.17c8.21-7.5,4.18-9.18-3.76-3.57c0.85-11.19-6.16-10.36-6.39,0.29c0,0-17.11-5.98-21.86-5.77
		c-0.98,2.04-2.12,4.19-3.11,5.99l24.32,6.14c-0.48,14.55,5.6,12.25,4.32,3.18c7.94,9.99,12.71,4.23,3.89-2.98
		C213.03,200.33,212.36,196.77,204.64,193.17z"/>
	<path class="st1" d="M109.74,247.09c0,0-0.07,0.37-0.2,1c2.83,0.17,6.13,0.33,8.79,0.46c0.22,0.01,0.44,0.02,0.65,0.03
		c0.1-0.79,0.16-1.24,0.16-1.24L109.74,247.09z"/>
	<path class="st3" d="M109.38,248.91c-1.25,6.21-5.33,26.33-5.85,27.66c-0.62,1.58-12.42-2.44-12.38,2.29
		c0.05,4.73,19.25,4.99,20.75,3.78c2.72-2.2,6.03-26.02,6.97-33.23c-0.2-0.01-0.39-0.02-0.59-0.03
		C114.44,249.19,111.56,249.04,109.38,248.91"/>
	<path class="st5" d="M109.38,248.91c-1.25,6.21-5.33,26.33-5.85,27.66c-0.62,1.58-12.42-2.44-12.38,2.29
		c0.05,4.73,19.25,4.99,20.75,3.78c2.72-2.2,6.03-26.02,6.97-33.23c-0.2-0.01-0.39-0.02-0.59-0.03
		C114.44,249.19,111.56,249.04,109.38,248.91z"/>
	<path class="st1" d="M118.33,248.55c-2.66-0.13-5.95-0.29-8.79-0.46c-0.05,0.24-0.1,0.5-0.16,0.81c2.17,0.13,5.06,0.28,8.91,0.47
		c0.2,0.01,0.39,0.02,0.59,0.03c0.04-0.3,0.08-0.58,0.11-0.82C118.77,248.57,118.55,248.56,118.33,248.55"/>
	<path class="st1" d="M157.8,247.03c0,0,0.16,0.73,0.44,1.97c3.1-0.37,6.64-0.81,9.46-1.18c-0.36-1.19-0.57-1.91-0.57-1.91
		L157.8,247.03z"/>
	<path class="st3" d="M168.26,281.5c1.61,1.07,20.7-0.96,20.31-5.67c-0.39-4.72-11.78,0.37-12.54-1.14
		c-0.61-1.22-6.02-19.15-8.09-26.07c-2.82,0.37-6.39,0.82-9.52,1.19C160.21,257.66,165.44,279.62,168.26,281.5"/>
	<path class="st5" d="M168.26,281.5c1.61,1.07,20.7-0.96,20.31-5.67c-0.39-4.72-11.78,0.37-12.54-1.14
		c-0.61-1.22-6.02-19.15-8.09-26.07c-2.82,0.37-6.39,0.82-9.52,1.19C160.21,257.66,165.44,279.62,168.26,281.5z"/>
	<path class="st1" d="M158.24,249c0.06,0.25,0.12,0.52,0.18,0.81c3.13-0.37,6.69-0.82,9.52-1.19c-0.09-0.28-0.17-0.55-0.24-0.8
		C164.88,248.19,161.33,248.63,158.24,249"/>
	<path class="st2" d="M94.71,181l26.58-8.59l28.31-2.66c0,0-4.67,3.51,2.74,4.23c7.41,0.72,22.18,3.51,21.75,4.81
		c-1.57,4.74-7.22,14.34-7.22,14.34s-12.21-3.86-11.65-0.53c0.57,3.33,7.79,31.63,7.79,31.63l-53.74,2.48c0,0,0.38-1.24,0.96-3.26
		c2.65-9.2,9.6-34.59,4.76-32.49c-5.9,2.56-11.15,3.53-11.15,3.53S97.55,187.59,94.71,181"/>
	<path class="st5" d="M94.71,181l26.58-8.59l28.31-2.66c0,0-4.67,3.51,2.74,4.23c7.41,0.72,22.18,3.51,21.75,4.81
		c-1.57,4.74-7.22,14.34-7.22,14.34s-12.21-3.86-11.65-0.53c0.57,3.33,7.79,31.63,7.79,31.63l-53.74,2.48c0,0,0.38-1.24,0.96-3.26
		c2.65-9.2,9.6-34.59,4.76-32.49c-5.9,2.56-11.15,3.53-11.15,3.53S97.55,187.59,94.71,181z"/>
	<path class="st1" d="M140.6,176.48c3.56-0.16,7.09-0.63,10.58-1.34c-1.72-0.28-2.79-0.77-3.23-1.49
		c-4.37,0.71-8.87,0.99-13.46,0.78c-3.55-0.17-7.03-0.5-10.42-0.97l-2.71,0.25l-2.83,0.91c5.1,0.97,10.39,1.61,15.86,1.86
		C136.47,176.58,138.54,176.58,140.6,176.48"/>
	<path class="st1" d="M121.36,173.7l2.71-0.25c-1.04-0.15-2.08-0.31-3.1-0.49l-4.12,1.33c0.56,0.12,1.12,0.22,1.68,0.32
		L121.36,173.7z"/>
	<path class="st1" d="M148.9,173.48c-0.31,0.06-0.63,0.11-0.94,0.16c0.44,0.73,1.51,1.22,3.23,1.49c0.82-0.17,1.64-0.34,2.45-0.54
		c-0.46-0.05-0.88-0.1-1.26-0.14C150.29,174.26,149.33,173.85,148.9,173.48"/>
	<path class="st1" d="M147.95,173.64c-0.08-0.13-0.13-0.26-0.17-0.4c-0.17-0.62,0.06-1.22,0.4-1.73c-4.22,0.72-8.51,1.01-12.81,0.87
		l-11.3,1.06c3.39,0.48,6.86,0.81,10.42,0.97C139.08,174.64,143.59,174.35,147.95,173.64"/>
	<path class="st1" d="M134.59,172.36c-1.51-0.07-2.99-0.18-4.47-0.31l-8.87,0.83c-0.03,0-0.06,0.01-0.09,0.02l-0.18,0.06
		c1.03,0.17,2.06,0.34,3.1,0.49l11.3-1.06C135.11,172.38,134.85,172.37,134.59,172.36"/>
	<path class="st1" d="M148.57,173.02c-0.16-0.57,0.43-1.3,0.9-1.74c-0.43,0.08-0.86,0.16-1.29,0.24c-0.34,0.5-0.57,1.11-0.4,1.72
		c0.04,0.14,0.1,0.27,0.17,0.4c0.32-0.05,0.63-0.11,0.94-0.16C148.7,173.31,148.61,173.15,148.57,173.02"/>
	<path class="st6" d="M109.69,225.94l-7.51,24.35c0,0,32.35,9.23,72.88-0.76c0,0-9.13-23.05-13.39-25.75
		C161.67,223.77,122.83,223.32,109.69,225.94"/>
	<path class="st5" d="M109.69,225.94l-7.51,24.35c0,0,32.35,9.23,72.88-0.76c0,0-9.13-23.05-13.39-25.75
		C161.67,223.77,122.83,223.32,109.69,225.94z"/>
	<path class="st4" d="M152.29,175.28c-0.4-0.04-0.76-0.09-1.11-0.14c-3.48,0.72-7.02,1.18-10.58,1.34c-2.06,0.1-4.13,0.1-6.21,0
		c-5.47-0.26-10.76-0.9-15.86-1.86l-23.27,7.53c2.6,5.76,7.76,11.7,8.72,12.78c1.06-0.22,5.73-1.24,10.83-3.45
		c0.73-0.31,1.2-0.1,1.47,0.14c1.11,0.98,1.87,6.39-5.25,31.38c2.63-0.14,13.94-0.72,25.14-1.25c17.79-0.83,23.46-1.01,25.31-0.88
		c-2.05-8.09-6.25-24.76-6.69-27.3c-0.11-0.65,0.16-1.05,0.42-1.27c1.81-1.58,9.57,0.67,11.44,1.24c0.36-0.62,2.32-4.12,2.32-4.12
		l2.62-5.03c0,0,1.6-3.41,2.05-4.72C172.55,178.58,160.24,176.05,152.29,175.28"/>
	<path class="st5" d="M152.29,175.28c-0.4-0.04-0.76-0.09-1.11-0.14c-3.48,0.72-7.02,1.18-10.58,1.34c-2.06,0.1-4.13,0.1-6.21,0
		c-5.47-0.26-10.76-0.9-15.86-1.86l-23.27,7.53c2.6,5.76,7.76,11.7,8.72,12.78c1.06-0.22,5.73-1.24,10.83-3.45
		c0.73-0.31,1.2-0.1,1.47,0.14c1.11,0.98,1.87,6.39-5.25,31.38c2.63-0.14,13.94-0.72,25.14-1.25c17.79-0.83,23.46-1.01,25.31-0.88
		c-2.05-8.09-6.25-24.76-6.69-27.3c-0.11-0.65,0.16-1.05,0.42-1.27c1.81-1.58,9.57,0.67,11.44,1.24c0.36-0.62,2.32-4.12,2.32-4.12
		l2.62-5.03c0,0,1.6-3.41,2.05-4.72C172.55,178.58,160.24,176.05,152.29,175.28z"/>
	<path class="st3" d="M74.97,192.91c-2.06-10.4-5.66-10.53-6.17,0.36c-8.25-7.24-13.09-0.11-3.94,3.49c-9.1,5.38-3.93,6.8,3.53,3.22
		c-9.36,9.13-2.61,11.91,3.73,1.41c0.12,12,3.57,10.26,4.42-2.29l23.33-7.92c-1.05-1.4-2.19-3.02-3.24-4.74
		C90.14,187.75,74.97,192.91,74.97,192.91"/>
	<path class="st5" d="M74.97,192.91c-2.06-10.4-5.66-10.53-6.17,0.36c-8.25-7.24-13.09-0.11-3.94,3.49c-9.1,5.38-3.93,6.8,3.53,3.22
		c-9.36,9.13-2.61,11.91,3.73,1.41c0.12,12,3.57,10.26,4.42-2.29l23.33-7.92c-1.05-1.4-2.19-3.02-3.24-4.74
		C90.14,187.75,74.97,192.91,74.97,192.91z"/>
	<path class="st3" d="M204.64,193.17c8.21-7.5,4.18-9.18-3.76-3.57c0.85-11.19-6.16-10.36-6.39,0.29c0,0-17.11-5.98-21.86-5.77
		c-0.98,2.04-2.12,4.19-3.11,5.99l24.32,6.14c-0.48,14.55,5.6,12.25,4.32,3.18c7.94,9.99,12.71,4.23,3.89-2.98
		C213.03,200.33,212.36,196.77,204.64,193.17"/>
	<path class="st5" d="M204.64,193.17c8.21-7.5,4.18-9.18-3.76-3.57c0.85-11.19-6.16-10.36-6.39,0.29c0,0-17.11-5.98-21.86-5.77
		c-0.98,2.04-2.12,4.19-3.11,5.99l24.32,6.14c-0.48,14.55,5.6,12.25,4.32,3.18c7.94,9.99,12.71,4.23,3.89-2.98
		C213.03,200.33,212.36,196.77,204.64,193.17z"/>
	<path class="st1" d="M109.74,247.09c0,0-0.07,0.37-0.2,1c2.83,0.17,6.13,0.33,8.79,0.46c0.22,0.01,0.44,0.02,0.65,0.03
		c0.1-0.79,0.16-1.24,0.16-1.24L109.74,247.09z"/>
	<path class="st3" d="M109.38,248.91c-1.25,6.21-5.33,26.33-5.85,27.66c-0.62,1.58-12.42-2.44-12.38,2.29
		c0.05,4.73,19.25,4.99,20.75,3.78c2.72-2.2,6.03-26.02,6.97-33.23c-0.2-0.01-0.39-0.02-0.59-0.03
		C114.44,249.19,111.56,249.04,109.38,248.91"/>
	<path class="st5" d="M109.38,248.91c-1.25,6.21-5.33,26.33-5.85,27.66c-0.62,1.58-12.42-2.44-12.38,2.29
		c0.05,4.73,19.25,4.99,20.75,3.78c2.72-2.2,6.03-26.02,6.97-33.23c-0.2-0.01-0.39-0.02-0.59-0.03
		C114.44,249.19,111.56,249.04,109.38,248.91z"/>
	<path class="st1" d="M118.33,248.55c-2.66-0.13-5.95-0.29-8.79-0.46c-0.05,0.24-0.1,0.5-0.16,0.81c2.17,0.13,5.06,0.28,8.91,0.47
		c0.2,0.01,0.39,0.02,0.59,0.03c0.04-0.3,0.08-0.58,0.11-0.82C118.77,248.57,118.55,248.56,118.33,248.55"/>
	<path class="st1" d="M157.8,247.03c0,0,0.16,0.73,0.44,1.97c3.1-0.37,6.64-0.81,9.46-1.18c-0.36-1.19-0.57-1.91-0.57-1.91
		L157.8,247.03z"/>
	<path class="st3" d="M168.26,281.5c1.61,1.07,20.7-0.96,20.31-5.67c-0.39-4.72-11.78,0.37-12.54-1.14
		c-0.61-1.22-6.02-19.15-8.09-26.07c-2.82,0.37-6.39,0.82-9.52,1.19C160.21,257.66,165.44,279.62,168.26,281.5"/>
	<path class="st5" d="M168.26,281.5c1.61,1.07,20.7-0.96,20.31-5.67c-0.39-4.72-11.78,0.37-12.54-1.14
		c-0.61-1.22-6.02-19.15-8.09-26.07c-2.82,0.37-6.39,0.82-9.52,1.19C160.21,257.66,165.44,279.62,168.26,281.5z"/>
	<path class="st1" d="M158.24,249c0.06,0.25,0.12,0.52,0.18,0.81c3.13-0.37,6.69-0.82,9.52-1.19c-0.09-0.28-0.17-0.55-0.24-0.8
		C164.88,248.19,161.33,248.63,158.24,249"/>
	<path class="st2" d="M94.71,181l26.58-8.59l28.31-2.66c0,0-4.67,3.51,2.74,4.23c7.41,0.72,22.18,3.51,21.75,4.81
		c-1.57,4.74-7.22,14.34-7.22,14.34s-12.21-3.86-11.65-0.53c0.57,3.33,7.79,31.63,7.79,31.63l-53.74,2.48c0,0,0.38-1.24,0.96-3.26
		c2.65-9.2,9.6-34.59,4.76-32.49c-5.9,2.56-11.15,3.53-11.15,3.53S97.55,187.59,94.71,181"/>
	<path class="st7" d="M94.71,181l26.58-8.59l28.31-2.66c0,0-4.67,3.51,2.74,4.23c7.41,0.72,22.18,3.51,21.75,4.81
		c-1.57,4.74-7.22,14.34-7.22,14.34s-12.21-3.86-11.65-0.53c0.57,3.33,7.79,31.63,7.79,31.63l-53.74,2.48c0,0,0.38-1.24,0.96-3.26
		c2.65-9.2,9.6-34.59,4.76-32.49c-5.9,2.56-11.15,3.53-11.15,3.53S97.55,187.59,94.71,181z"/>
	<path class="st8" d="M109.69,225.94l-7.51,24.35c0,0,32.35,9.23,72.88-0.76c0,0-9.13-23.05-13.39-25.75
		C161.67,223.77,122.83,223.32,109.69,225.94"/>
	<path class="st7" d="M109.69,225.94l-7.51,24.35c0,0,32.35,9.23,72.88-0.76c0,0-9.13-23.05-13.39-25.75
		C161.67,223.77,122.83,223.32,109.69,225.94z"/>
	<path class="st3" d="M68.28,128.51c8.1,27.67,37.92,45.6,74.2,44.62c17.02-0.45,33.55-8.56,45.33-22.22
		c10.44-12.11,15.52-26.59,13.93-39.74c-1.17-9.67-4.9-21.46-11.91-31.98c-0.71,2.92-3.62,5.43-9.42,7.16
		c-19.98,5.98-46.97-23.52-46.97-23.52c-29.61,39.38-58.75,29.22-52.81,12.02c-5.64,6.85-9.84,14.95-12.02,23.76
		C66.31,107.87,66.16,121.28,68.28,128.51"/>
	<path class="st1" d="M204.19,110.86c-1.37-11.28-6.1-25.35-15.3-37.19c0.62,1.2,0.99,2.37,1.08,3.51
		c7.68,10.96,11.73,23.47,12.99,33.84c3.47,28.64-24.43,62.37-60.45,63.35c-37.34,1.01-67.33-17.87-75.42-45.5
		c-2.16-7.38-2.06-20.98,0.32-30.55c2.54-10.23,7.88-19.84,15.29-27.63c0,0,0.01-0.01,0.01-0.01
		c12.61-19.46,49.74-20.27,49.74-20.27s9-2.85,26.63,3.39c1.95,0.65,3.82,1.38,5.62,2.19c0.04,0.02,0.08,0.03,0.12,0.05
		c6.27,2.67,11.91,5.85,16.26,9.18c-2.03-1.84-4.21-3.56-6.54-5.15c-16.9-11.52-38.42-14-63.96-7.37
		c-21.5,5.58-38.91,23.37-44.36,45.32c-2.43,9.78-2.56,23.48-0.31,31.19c8.42,28.77,39.22,47.41,76.64,46.39
		c1.05-0.03,2.09-0.08,3.13-0.17c16.6-1.33,32.49-9.56,44.01-22.91C200.58,139.88,205.87,124.7,204.19,110.86"/>
	<path class="st1" d="M201.74,111.16c1.59,13.14-3.49,27.63-13.93,39.74c-11.78,13.66-28.31,21.77-45.33,22.22
		c-36.28,0.99-66.1-16.94-74.2-44.61c-2.12-7.23-1.97-20.64,0.33-29.9c2.19-8.81,6.38-16.91,12.02-23.76
		c0.47-1.35,1.15-2.75,2.06-4.16c-7.4,7.79-12.75,17.4-15.29,27.63c-2.38,9.57-2.48,23.16-0.32,30.55
		c8.09,27.63,38.08,46.52,75.42,45.5c36.03-0.98,63.92-34.71,60.45-63.34c-1.25-10.36-5.31-22.87-12.99-33.84
		c0.06,0.68,0.01,1.35-0.15,2C196.84,89.7,200.56,101.49,201.74,111.16"/>
	<path class="st1" d="M159.07,53.79c1.79,0.63,3.66,1.36,5.62,2.19C162.89,55.17,161.02,54.44,159.07,53.79"/>
	<path class="st1" d="M181.08,65.21c2.9,2.62,5.5,5.47,7.82,8.46C187.47,70.91,184.73,68.01,181.08,65.21"/>
	<path class="st0" d="M133.44,62.82c0,0,26.99,29.5,46.97,23.52c5.79-1.73,8.71-4.25,9.42-7.16c-4.28-6.42-9.79-12.37-16.69-17.07
		c-12-8.18-26.48-11.61-43.2-10.28c-5.97,0.48-12.22,1.56-18.75,3.26C99.18,58.2,88.5,65.3,80.63,74.84
		C74.69,92.04,103.83,102.2,133.44,62.82"/>
	<path class="st1" d="M159.07,53.79c-17.63-6.24-26.63-3.39-26.63-3.39S95.32,51.21,82.7,70.67c0,0,0,0.01-0.01,0.01
		c7.53-7.91,17.18-13.94,28.19-16.8C130.44,48.81,146.33,49.53,159.07,53.79"/>
	<path class="st1" d="M164.7,55.98c10.94,4.91,19.24,12.57,25.28,21.2c-0.09-1.13-0.46-2.31-1.08-3.51
		c-2.32-2.99-4.92-5.83-7.82-8.46c-4.35-3.33-9.99-6.52-16.26-9.18C164.78,56.01,164.74,56,164.7,55.98"/>
	<path class="st1" d="M164.7,55.98c-1.96-0.83-3.84-1.56-5.62-2.19c-12.74-4.26-28.63-4.98-48.19,0.09
		c-11.01,2.86-20.66,8.88-28.19,16.8c-0.92,1.42-1.6,2.81-2.06,4.16c7.86-9.55,18.55-16.65,30.56-19.76
		c6.53-1.69,12.78-2.78,18.75-3.26c16.72-1.34,31.2,2.1,43.2,10.28c6.9,4.7,12.4,10.65,16.69,17.07c0.16-0.65,0.21-1.32,0.15-2
		C183.93,68.55,175.64,60.89,164.7,55.98"/>
	<path class="st1" d="M114.28,108.36c-0.51,2.24-2.88,3.62-5.29,3.09c-2.41-0.53-3.94-2.78-3.42-5.02c0.52-2.24,2.88-3.62,5.29-3.09
		C113.27,103.87,114.8,106.12,114.28,108.36"/>
	<path class="st1" d="M160.16,108.44c-0.52,2.27-2.78,3.69-5.05,3.18c-2.27-0.52-3.69-2.78-3.18-5.05c0.52-2.27,2.78-3.69,5.05-3.18
		C159.25,103.91,160.67,106.17,160.16,108.44"/>
	<path class="st1" d="M131.13,127.12c0.15,1.22-0.68,2.33-1.85,2.48c-1.17,0.15-2.24-0.73-2.39-1.95c-0.15-1.22,0.68-2.33,1.85-2.48
		C129.91,125.02,130.98,125.9,131.13,127.12"/>
	<path class="st1" d="M140.73,127.22c0.15,1.22-0.68,2.33-1.85,2.48c-1.17,0.15-2.24-0.73-2.39-1.95c-0.15-1.22,0.68-2.33,1.85-2.48
		C139.51,125.12,140.58,125.99,140.73,127.22"/>
	<path class="st9" d="M98.73,142.45c9.98,12.83,22.76,17.06,36.3,16.93c13.17-0.13,25.71-4.89,36.83-15.25"/>
	<path class="st1" d="M122.79,62.21c-0.65,1.68-1.47,3.04-2.4,4.43c-0.5,0.66-0.96,1.35-1.52,1.95l-0.81,0.94
		c-0.28,0.3-0.58,0.58-0.87,0.87c-2.35,2.32-5.12,4.18-8.09,5.62l-2.28,0.95l-0.57,0.24l-0.59,0.18l-1.18,0.36
		c-1.56,0.54-3.17,0.8-4.78,1.13c-0.8,0.19-1.62,0.22-2.42,0.32l-2.43,0.24c-1.62,0.05-3.24,0.04-4.87,0.06
		c-1.06,0.01-1.93-0.84-1.94-1.9s0.84-1.93,1.9-1.94c0.02,0,0.04,0,0.05,0l0.19,0c1.5,0.03,3.01,0.1,4.52,0.11l2.24-0.14
		c0.75-0.06,1.51-0.05,2.24-0.21c1.47-0.25,2.97-0.42,4.39-0.87l1.08-0.29l0.54-0.14l0.52-0.2l2.08-0.78
		c2.71-1.2,5.26-2.77,7.44-4.78c0.27-0.25,0.55-0.49,0.82-0.75l0.76-0.82c0.53-0.53,0.96-1.13,1.43-1.7c0.43-0.6,0.87-1.2,1.24-1.83
		c0.39-0.61,0.73-1.31,0.99-1.88l0.05-0.11c0.28-0.62,1-0.91,1.63-0.63C122.74,60.9,123.03,61.6,122.79,62.21"/>
	<path class="st1" d="M132.66,64.04c-1.59,3.86-3.62,7.36-6,10.71c-2.38,3.33-5.15,6.42-8.35,9.06c-1.59,1.33-3.31,2.53-5.12,3.57
		c-1.8,1.06-3.72,1.96-5.71,2.64c-3.96,1.45-8.24,1.98-12.45,1.86c-1.06-0.03-1.9-0.91-1.87-1.97c0.03-1.06,0.91-1.9,1.97-1.87
		c0.01,0,0.03,0,0.04,0l0.05,0c3.75,0.21,7.55-0.15,11.12-1.34c1.8-0.56,3.54-1.32,5.2-2.23c1.67-0.9,3.27-1.95,4.77-3.13
		c3.03-2.35,5.72-5.17,8.06-8.27c2.33-3.08,4.42-6.48,5.96-9.96l0.03-0.06c0.28-0.62,1.01-0.9,1.63-0.63
		C132.64,62.71,132.92,63.42,132.66,64.04"/>
	<path class="st1" d="M150.83,60.1c0.24,0.45,0.62,1.04,0.99,1.53c0.18,0.26,0.4,0.51,0.6,0.76c0.2,0.25,0.41,0.5,0.64,0.73
		l0.67,0.71l0.72,0.66c0.46,0.46,1,0.84,1.5,1.26c2.07,1.6,4.4,2.85,6.84,3.83l1.85,0.69c0.63,0.2,1.27,0.36,1.91,0.55
		c1.25,0.41,2.58,0.58,3.87,0.87c1.31,0.23,2.64,0.34,3.95,0.51l4,0.19l0.14,0.01c1.06,0.05,1.88,0.95,1.83,2.01
		c-0.05,1.06-0.95,1.88-2.01,1.83c-0.03,0-0.06,0-0.08,0l-4.26-0.38c-1.41-0.24-2.83-0.43-4.23-0.73c-1.39-0.36-2.8-0.61-4.16-1.11
		c-0.68-0.23-1.37-0.44-2.05-0.69l-2-0.84c-2.63-1.19-5.14-2.67-7.37-4.55c-0.55-0.48-1.11-0.93-1.62-1.47l-0.77-0.78l-0.72-0.83
		c-0.24-0.27-0.47-0.56-0.69-0.86c-0.22-0.3-0.45-0.58-0.65-0.9c-0.42-0.63-0.79-1.21-1.16-2c-0.29-0.62-0.03-1.35,0.59-1.64
		c0.6-0.28,1.31-0.04,1.61,0.53L150.83,60.1z"/>
	<path class="st1" d="M140.01,62.39c2.04,3.39,4.57,6.65,7.31,9.58c2.76,2.94,5.83,5.56,9.17,7.7c3.36,2.1,7.01,3.71,10.82,4.46
		c3.81,0.79,7.74,0.65,11.52-0.18l0.03-0.01c1.04-0.23,2.06,0.43,2.29,1.46c0.23,1.04-0.43,2.06-1.46,2.29
		c-0.01,0-0.03,0.01-0.05,0.01c-4.3,0.83-8.8,0.86-13.06-0.16c-4.28-0.96-8.25-2.86-11.81-5.24c-3.55-2.41-6.72-5.28-9.52-8.44
		c-2.81-3.18-5.29-6.54-7.4-10.29c-0.34-0.6-0.12-1.35,0.47-1.68c0.58-0.33,1.32-0.13,1.67,0.44L140.01,62.39z"/>
</g>
</svg>
