<?xml version="1.0" encoding="utf-8"?>
<!-- Generator: Adobe Illustrator 23.0.2, SVG Export Plug-In . SVG Version: 6.00 Build 0)  -->
<svg version="1.1" id="Laag_1" xmlns="http://www.w3.org/2000/svg" xmlns:xlink="http://www.w3.org/1999/xlink" x="0px" y="0px"
	 viewBox="0 0 417 333" style="enable-background:new 0 0 417 333;" xml:space="preserve">
<style type="text/css">
	.st0{clip-path:url(#SVGID_2_);fill:#33C6BC;}
	.st1{clip-path:url(#SVGID_2_);fill:none;stroke:#33C6BC;stroke-width:11.0994;stroke-miterlimit:10;}
	.st2{clip-path:url(#SVGID_2_);fill:none;stroke:#33C6BC;stroke-width:22.1989;stroke-linecap:round;stroke-miterlimit:10;}
	
		.st3{clip-path:url(#SVGID_2_);fill:none;stroke:#33C6BC;stroke-width:19.9802;stroke-linecap:round;stroke-linejoin:round;stroke-miterlimit:10;}
	.st4{clip-path:url(#SVGID_2_);fill:none;stroke:#33C6BC;stroke-width:22.1989;stroke-linecap:round;stroke-linejoin:round;}
</style>
<g>
	<defs>
		<rect id="SVGID_1_" x="34" y="-366.44" width="1241.66" height="699.44"/>
	</defs>
	<clipPath id="SVGID_2_">
		<use xlink:href="#SVGID_1_"  style="overflow:visible;"/>
	</clipPath>
	<path class="st0" d="M695.65-171.34c4.59,4.55,9.05,8.94,13.47,13.35c3.84,3.83,3.98,10.31,0.34,13.95
		c-3.7,3.7-9.57,3.47-13.56-0.53c-4.29-4.28-8.59-8.55-12.85-12.86c-0.96-0.99-1.61-1.36-3.22-0.73
		c-15.03,5.8-30.19,1.83-40.38-10.23c-4.82-5.72-7.27-12.52-7.51-20.2c-0.24-7.96,1.34-15.26,6.1-21.65
		c3.89-5.23,8.43-9.86,14.89-11.94c3.03-0.97,4.14-2.57,4.06-6.01c-0.29-12.51-0.14-25.03-0.1-37.55c0.01-5.18,2.49-8.6,7.26-9.97
		c6.33-1.82,11.67,3.37,11.59,8.52c-0.22,13.43-0.04,26.86-0.1,40.28c-0.01,2.11,0.4,2.97,2.75,3.92
		c11.86,4.8,19.71,13.26,22.16,26.22C702.24-187.74,700.52-179.41,695.65-171.34 M650.8-190.31c-0.28,9.72,7.51,15.91,15.77,15.93
		c8.81,0.01,15.65-7.07,15.73-16.06c0.08-8.72-7.29-15.7-15.69-15.81C657.86-206.35,650.31-198.81,650.8-190.31"/>
	<path class="st1" d="M695.65-171.34c4.59,4.55,9.05,8.94,13.47,13.35c3.84,3.83,3.98,10.31,0.34,13.95
		c-3.7,3.7-9.57,3.47-13.56-0.53c-4.29-4.28-8.59-8.55-12.85-12.86c-0.96-0.99-1.61-1.36-3.22-0.73
		c-15.03,5.8-30.19,1.83-40.38-10.23c-4.82-5.72-7.27-12.52-7.51-20.2c-0.24-7.96,1.34-15.26,6.1-21.65
		c3.89-5.23,8.43-9.86,14.89-11.94c3.03-0.97,4.14-2.57,4.06-6.01c-0.29-12.51-0.14-25.03-0.1-37.55c0.01-5.18,2.49-8.6,7.26-9.97
		c6.33-1.82,11.67,3.37,11.59,8.52c-0.22,13.43-0.04,26.86-0.1,40.28c-0.01,2.11,0.4,2.97,2.75,3.92
		c11.86,4.8,19.71,13.26,22.16,26.22C702.24-187.74,700.52-179.41,695.65-171.34 M650.8-190.31c-0.28,9.72,7.51,15.91,15.77,15.93
		c8.81,0.01,15.65-7.07,15.73-16.06c0.08-8.72-7.29-15.7-15.69-15.81C657.86-206.35,650.31-198.81,650.8-190.31"/>
	<path class="st2" d="M599.48-332.39c18.82-10.37,40.23-16.73,63.13-17.88c80.59-4.03,149.2,58.03,153.23,138.62
		c4.04,80.59-58.02,149.19-138.61,153.23c-80.59,4.03-149.2-58.02-153.23-138.62c-1.75-35.04,8.98-67.82,28.32-94.01"/>
	<path class="st3" d="M1094.96-54.41v-107.14h69.59v107.14 M1050.43-268.93l-59.14,61.95h274.38l-137.19-143.71l-42.59,44.62
		 M1034.2-199.3v154.2h188.88v-154.2"/>
	<path class="st4" d="M1166.41,141.8c0,20.9-16.94,37.85-37.85,37.85c-20.9,0-37.85-16.95-37.85-37.85
		c0-20.9,16.95-37.85,37.85-37.85C1149.46,103.95,1166.41,120.9,1166.41,141.8z M1042.75,114.8c-2.71,15.27-1.83,31.55,1.5,47.29
		c12.49,58.99,49.1,112.2,84.31,159.81c-0.56-0.76,14.33-19.94,15.25-21.29c11.84-17.36,22.91-35.27,32.95-53.72
		c21.86-40.17,45.99-90.77,37.74-137.84c-3.02-17.22-11.55-32.67-25.3-43.63c-32.06-25.52-75.22-26.89-108.74-6.12
		c-3.2,1.98-6.31,4.17-9.32,6.55 M531,135.97c-2.96-14.84,3.45-33.32,8.85-46.89c6.22-15.65,18.43-29.22,32.87-37.74
		c19.13-11.3,39.69-11.45,61.15-10.15 M573.58,146.95c-9.07-37.72,28.19-88.57,70.08-72.4 M712.99,107.72
		c-3.18,3.79-9.22,11.27-10.67,14.53c-5.79,13.08,1.61,26.04,11.53,34.91c-9.46,9.02-18.04,19-27.27,28.26
		c-6.68,6.7-12.63,14.12-20,20.14c-3.15,2.57-7.7,6.78-11.97,7.19c-0.83,0.08-1.61,0.04-2.36-0.08c-5.32-0.9-9.03-6.42-14.16-8.95
		c-17.17-8.5-44.67,22.85-44.67,22.85s-31.64,32.96-15.01,49.59c22.83,22.83,41.68,49.65,77.9,33.66
		c17.13-7.56,29.55-21.83,43.24-33.85c15.71-13.79,30.36-28.95,45.02-43.85c19.65-19.99,43.41-40.41,58.86-63.84
		c6.52-9.88,11.03-21.43,10.75-33.26c-0.5-21.15-20.21-43.17-35.82-55.92c-9.17-7.5-20.62-5.06-30.11-0.44 M45.1,103.17V85.73
		c0-21.98,17.98-39.95,39.95-39.95h226.79c21.98,0,39.96,17.98,39.96,39.95v138.09c0,21.97-17.98,39.95-39.96,39.95H85.05
		c-21.97,0-39.95-17.98-39.95-39.95v-57.19 M57.7,244.27l105.56-89.49 M349.35,72.13l-150.9,107.85l-35.19-25.2L57.7,79.19
		 M339.2,237.31l-101.5-82.54 M243.37-350.85c6.44-1.65,13.35-2.77,20.74-3.35l11.34-0.86c11.63-0.89,19.85,0.35,24.64,3.7
		c4.81,3.34,7.21,8.52,7.21,15.48c0,12.54-7.14,19.49-21.37,20.95l-11.34,0.89c-13.39,0.85-23.13,4.93-29.24,12.21
		c-6.11,7.28-9.16,17.75-9.16,31.42v10.01h37.08c16.28,0,24.43,6.85,24.43,20.52c0,13.67-8.15,20.49-24.43,20.49h-37.08v148.76
		c0,8.45-2.56,14.84-7.63,19.21c-5.1,4.36-11.56,6.53-19.42,6.53c-7.85,0-14.39-2.17-19.63-6.53c-5.24-4.37-7.85-10.76-7.85-19.21
		v-148.76h-21.82c-16.29,0-24.42-6.82-24.42-20.49c0-13.67,8.13-20.52,24.42-20.52h21.82v-3.06c0-25,6.03-45.07,18.07-60.21"/>
</g>
</svg>
