<?xml version="1.0" encoding="utf-8"?>
<!-- Generator: Adobe Illustrator 23.0.2, SVG Export Plug-In . SVG Version: 6.00 Build 0)  -->
<svg version="1.1" id="Laag_1" xmlns="http://www.w3.org/2000/svg" xmlns:xlink="http://www.w3.org/1999/xlink" x="0px" y="0px"
	 viewBox="0 0 1608.16 1720.68" style="enable-background:new 0 0 1608.16 1720.68;" xml:space="preserve">
<style type="text/css">
	.st0{fill:#FFFFFF;}
	.st1{fill:#E27600;}
	.st2{fill:#FC4540;}
	.st3{fill:#FFEC01;}
	.st4{fill:#39BAAB;}
	.st5{fill:#94D8F5;}
	.st6{fill:#F4F6F2;}
</style>
<path class="st2" d="M1338.03,1311.91c-9.2,10.11-24.56,12.58-36.64,5.17c-3.66-2.21-92.59-54.69-154.86,12.24
	c-0.29,0.31-0.59,0.64-0.87,0.95c-59.39,65.25,5.04,143.58,7.83,146.9c10.28,12.24,8.79,30.53-3.46,40.87
	c-12.21,10.33-30.44,8.87-40.81-3.3c-35.25-41.37-81.63-141-6.58-223.47c0.46-0.5,0.92-1,1.38-1.5
	c75.87-81.55,182.15-50.16,227.75-22.17c13.66,8.39,17.94,26.26,9.55,39.93C1340.35,1309.12,1339.24,1310.58,1338.03,1311.91"/>
<path class="st3" d="M295.85,1379.31c-12-6.53-18.06-20.87-13.72-34.37c1.27-4.08,31.13-102.93-48.66-147.52
	c-0.37-0.21-0.76-0.42-1.13-0.62c-77.49-42.19-138.27,39-140.84,42.49c-9.45,12.89-27.57,15.79-40.52,6.35
	c-12.93-9.41-15.85-27.46-6.49-40.42c31.82-44.07,117.58-112.78,215.51-59.47c0.6,0.33,1.19,0.65,1.79,0.98
	c97.23,54.34,91.98,165.03,75.62,215.97c-4.9,15.26-21.25,23.66-36.52,18.76C299.11,1380.9,297.43,1380.17,295.85,1379.31"/>
<path class="st4" d="M16.27,656.31c6.17-19.96,25.84-33.37,47.37-30.94c6.5,0.68,163.69,15.6,206.44-117.46
	c0.2-0.63,0.4-1.27,0.59-1.88c39.85-128.89-100.18-195.5-106.19-198.29c-22.18-10.28-31.99-36.56-21.75-58.82
	c10.2-22.22,36.38-32.04,58.63-21.92c75.66,34.4,204.54,142.21,154.18,305.09c-0.31,0.99-0.62,1.98-0.94,2.97
	C302.5,697.2,135,722.73,53.7,713.58c-24.36-2.74-41.88-24.71-39.14-49.07C14.88,661.67,15.46,658.93,16.27,656.31"/>
<path class="st5" d="M983.63,641.14c-7,9.3-19.84,12.62-30.67,7.29c-3.28-1.58-82.87-39.04-130.37,22.65
	c-0.22,0.29-0.45,0.59-0.66,0.87C776.75,732,837.6,793.32,840.22,795.92c9.69,9.57,9.87,25.2,0.31,34.94
	c-9.54,9.73-25.11,9.94-34.87,0.44c-33.17-32.3-80.41-113.12-23.3-189c0.35-0.46,0.7-0.92,1.05-1.38
	c57.88-75.17,150.51-56.98,191.4-36.85c12.25,6.03,17.3,20.85,11.26,33.1C985.38,638.58,984.55,639.91,983.63,641.14"/>
<g>
	<path class="st0" d="M733.78,1258.12c-4,0.45-8,1.54-11.89,3.21c15.24,15.74,19.68,37.13,19.95,38.52c1.05,5.54,5.9,9.4,11.34,9.4
		c0.72,0,1.44-0.07,2.17-0.2c6.27-1.19,10.38-7.24,9.19-13.51c-1.83-9.64-6.37-22.57-14.19-34.93l-0.58-0.22
		C744.56,1258.4,739.18,1257.63,733.78,1258.12z"/>
	<path class="st0" d="M725.1,1234.2c-11.26-7.5-25.18-12.49-42.16-12.68c-0.33,0-0.65-0.01-0.97-0.01
		c-53.46,0-73.84,48.77-77.15,74.71c-0.81,6.33,3.67,12.11,10,12.92c6.33,0.81,12.11-3.67,12.92-10c0.02-0.14,2.01-14.4,9.99-28.24
		c10.18-17.66,25.25-26.46,44.96-26.29c5.44,0.06,10.37,0.82,14.89,2.08l0.31-0.23C706.14,1240.33,715.3,1236.21,725.1,1234.2z"/>
	<path class="st0" d="M671.85,1296.27c-0.38,2.41,0.2,4.83,1.64,6.8c1.44,1.98,3.56,3.27,5.97,3.65c5.07,0.79,9.68-2.67,10.46-7.61
		c2.87-18.27,14.25-33.28,29.38-40.31c-4.87-4.46-10.72-8.29-17.73-10.84C686.15,1258.72,675.03,1276.02,671.85,1296.27z"/>
	<path class="st0" d="M784.46,1260.43c-11.78-15.33-29.27-24.11-47.57-24.11c-1.72,0-3.45,0.08-5.19,0.23l-0.19,0.02
		c-0.86,0.1-1.72,0.21-2.58,0.34c7.32,5.54,13.4,12.15,18.36,19.12c8.72,2.4,16.69,7.77,22.66,15.53c3.07,4,8.82,4.75,12.82,1.68
		c1.94-1.49,3.18-3.64,3.5-6.06S785.95,1262.37,784.46,1260.43z"/>
	<path class="st0" d="M728.94,1236.92c-9.97,1.52-19.26,5.38-27.37,11.04c7.01,2.55,12.86,6.38,17.73,10.84
		c4.43-2.06,9.18-3.47,14.14-4.03c4.71-0.42,9.38,0.04,13.86,1.27C742.34,1249.07,736.26,1242.46,728.94,1236.92z"/>
</g>
<g>
	<path class="st0" d="M579.88,1379.52c0.49,0,0.92,0.16,1.31,0.49s0.58,0.72,0.58,1.18c0,0.17-0.06,0.4-0.18,0.69l-10.28,22.52
		c-0.17,0.39-0.44,0.69-0.8,0.91c-0.36,0.22-0.75,0.33-1.17,0.33s-0.81-0.11-1.18-0.33c-0.38-0.22-0.65-0.52-0.82-0.91l-10.24-22.52
		c-0.12-0.29-0.18-0.52-0.18-0.69c0-0.49,0.2-0.89,0.6-1.2c0.4-0.31,0.84-0.47,1.33-0.47c0.75,0,1.29,0.34,1.6,1.02l8.93,20l8.93-20
		C578.63,1379.86,579.15,1379.52,579.88,1379.52z"/>
	<path class="st0" d="M593.65,1388.78c0,0.53-0.13,0.94-0.4,1.2c-0.27,0.27-0.73,0.43-1.38,0.47l-1.09,0.11
		c-1.53,0.14-2.67,0.68-3.41,1.6c-0.74,0.92-1.11,2.04-1.11,3.35v8.34c0,0.58-0.17,1.02-0.51,1.31c-0.34,0.29-0.78,0.44-1.31,0.44
		c-0.53,0-0.98-0.15-1.33-0.44c-0.35-0.29-0.53-0.73-0.53-1.31v-14.83c0-0.56,0.18-0.99,0.53-1.29c0.35-0.3,0.8-0.45,1.33-0.45
		c0.49,0,0.89,0.15,1.22,0.45c0.33,0.3,0.49,0.72,0.49,1.26v1.75c0.49-1.07,1.19-1.88,2.11-2.44s1.97-0.89,3.13-0.98l0.51-0.04
		C593.07,1387.21,593.65,1387.71,593.65,1388.78z"/>
	<path class="st0" d="M596.1,1383.13c-0.41-0.39-0.62-0.9-0.62-1.53c0-0.63,0.21-1.13,0.62-1.51c0.41-0.38,0.97-0.57,1.68-0.57
		c0.68,0,1.23,0.19,1.66,0.57c0.42,0.38,0.64,0.88,0.64,1.51c0,0.63-0.21,1.14-0.62,1.53c-0.41,0.39-0.97,0.58-1.68,0.58
		C597.07,1383.71,596.51,1383.52,596.1,1383.13z M596.44,1405.17c-0.35-0.29-0.53-0.73-0.53-1.31v-14.79c0-0.58,0.18-1.03,0.53-1.33
		c0.35-0.3,0.8-0.45,1.33-0.45c0.53,0,0.97,0.15,1.31,0.45c0.34,0.3,0.51,0.75,0.51,1.33v14.79c0,0.58-0.17,1.02-0.51,1.31
		c-0.34,0.29-0.78,0.44-1.31,0.44C597.24,1405.61,596.79,1405.46,596.44,1405.17z M599.92,1411.77c-0.39-0.24-0.58-0.62-0.58-1.13
		c0-0.39,0.12-0.7,0.36-0.93c0.24-0.23,0.63-0.37,1.17-0.42l1.02-0.07c0.95-0.05,1.66-0.34,2.13-0.87c0.47-0.54,0.71-1.39,0.71-2.55
		v-16.72c0-0.58,0.18-1.03,0.53-1.33c0.35-0.3,0.8-0.45,1.33-0.45c0.53,0,0.97,0.15,1.31,0.45c0.34,0.3,0.51,0.75,0.51,1.33v16.51
		c0,2.04-0.47,3.58-1.42,4.63c-0.95,1.04-2.42,1.64-4.41,1.79l-0.98,0.07C600.87,1412.11,600.31,1412.01,599.92,1411.77z
		 M604.91,1383.13c-0.41-0.39-0.62-0.9-0.62-1.53c0-0.63,0.21-1.13,0.62-1.51c0.41-0.38,0.97-0.57,1.68-0.57
		c0.68,0,1.23,0.19,1.66,0.57c0.42,0.38,0.64,0.88,0.64,1.51c0,0.63-0.21,1.14-0.62,1.53c-0.41,0.39-0.97,0.58-1.68,0.58
		C605.88,1383.71,605.33,1383.52,604.91,1383.13z"/>
	<path class="st0" d="M628.3,1401.35c0.22,0.27,0.33,0.61,0.33,1.02c0,0.7-0.44,1.3-1.31,1.79c-0.85,0.49-1.78,0.86-2.79,1.13
		c-1.01,0.27-1.97,0.4-2.9,0.4c-2.82,0-5.04-0.82-6.67-2.46c-1.63-1.64-2.44-3.88-2.44-6.72c0-1.82,0.36-3.44,1.08-4.85
		c0.72-1.41,1.72-2.5,3.02-3.28s2.78-1.17,4.43-1.17c2.38,0,4.26,0.77,5.65,2.3c1.38,1.53,2.08,3.6,2.08,6.2
		c0,0.97-0.44,1.46-1.31,1.46h-11.26c0.24,3.77,2.05,5.65,5.43,5.65c0.9,0,1.68-0.12,2.33-0.36c0.66-0.24,1.35-0.56,2.08-0.95
		c0.07-0.05,0.27-0.15,0.6-0.31c0.33-0.16,0.6-0.24,0.82-0.24C627.81,1400.95,628.09,1401.08,628.3,1401.35z M617.74,1391.25
		c-0.85,0.9-1.36,2.16-1.53,3.79h9.4c-0.07-1.65-0.49-2.92-1.26-3.81c-0.77-0.89-1.84-1.33-3.23-1.33
		C619.72,1389.91,618.59,1390.36,617.74,1391.25z"/>
	<path class="st0" d="M661.44,1394.43c0.81,1.07,1.22,2.4,1.22,4.01c0,2.21-0.76,3.93-2.28,5.16c-1.52,1.23-3.64,1.84-6.36,1.84
		h-9.29c-0.58,0-1.04-0.16-1.37-0.49c-0.33-0.33-0.49-0.77-0.49-1.33v-22.04c0-0.56,0.16-1,0.49-1.33c0.33-0.33,0.78-0.49,1.37-0.49
		h8.89c2.65,0,4.72,0.59,6.21,1.77c1.49,1.18,2.24,2.82,2.24,4.94c0,1.36-0.36,2.54-1.07,3.53c-0.72,1-1.72,1.74-3.01,2.22
		C659.48,1392.61,660.63,1393.36,661.44,1394.43z M646.56,1390.85h6.49c3.59,0,5.39-1.36,5.39-4.08c0-1.36-0.44-2.37-1.33-3.02
		c-0.89-0.66-2.24-0.98-4.06-0.98h-6.49V1390.85z M657.74,1401.38c0.87-0.68,1.31-1.74,1.31-3.17c0-1.46-0.44-2.54-1.33-3.26
		c-0.89-0.72-2.25-1.08-4.1-1.08h-7.07v8.53h7.07C655.5,1402.4,656.87,1402.06,657.74,1401.38z"/>
	<path class="st0" d="M679.88,1389c1.15,1.19,1.73,3,1.73,5.43v9.44c0,0.56-0.16,0.99-0.47,1.29c-0.32,0.3-0.75,0.45-1.31,0.45
		c-0.53,0-0.96-0.16-1.28-0.47c-0.32-0.32-0.47-0.74-0.47-1.28v-1.35c-0.46,1.02-1.15,1.8-2.06,2.35c-0.91,0.55-1.97,0.82-3.19,0.82
		c-1.17,0-2.23-0.24-3.21-0.71c-0.97-0.47-1.73-1.14-2.28-1.99c-0.55-0.85-0.82-1.8-0.82-2.84c0-1.29,0.33-2.3,1-3.04
		c0.67-0.74,1.77-1.27,3.32-1.59c1.54-0.31,3.66-0.47,6.36-0.47h0.84v-1.06c0-1.36-0.28-2.34-0.84-2.95
		c-0.56-0.61-1.46-0.91-2.7-0.91c-0.85,0-1.65,0.11-2.4,0.33c-0.75,0.22-1.58,0.54-2.48,0.95c-0.66,0.36-1.12,0.55-1.38,0.55
		c-0.36,0-0.66-0.13-0.89-0.4c-0.23-0.27-0.35-0.61-0.35-1.02c0-0.36,0.1-0.69,0.31-0.96c0.21-0.28,0.54-0.55,1-0.82
		c0.85-0.46,1.85-0.83,2.99-1.11c1.14-0.28,2.25-0.42,3.32-0.42C676.97,1387.21,678.73,1387.81,679.88,1389z M676.77,1401.58
		c0.85-0.91,1.28-2.08,1.28-3.51v-0.95h-0.66c-1.89,0-3.35,0.08-4.37,0.26c-1.02,0.17-1.75,0.45-2.19,0.86
		c-0.44,0.4-0.66,0.98-0.66,1.73c0,0.88,0.32,1.59,0.95,2.15c0.63,0.56,1.42,0.84,2.37,0.84
		C674.82,1402.95,675.91,1402.49,676.77,1401.58z"/>
	<path class="st0" d="M686.75,1404.15c-0.44-0.27-0.75-0.55-0.93-0.84c-0.18-0.29-0.27-0.62-0.27-0.98c0-0.39,0.11-0.72,0.33-0.98
		c0.22-0.27,0.5-0.4,0.84-0.4c0.32,0,0.81,0.19,1.49,0.58c0.73,0.39,1.44,0.7,2.13,0.95c0.69,0.24,1.56,0.36,2.61,0.36
		c1.17,0,2.08-0.21,2.73-0.62c0.66-0.41,0.98-1,0.98-1.75c0-0.48-0.13-0.87-0.38-1.17c-0.26-0.29-0.7-0.55-1.33-0.78
		c-0.63-0.23-1.57-0.48-2.81-0.75c-2.14-0.46-3.67-1.09-4.61-1.88c-0.94-0.79-1.4-1.86-1.4-3.22c0-1.04,0.3-1.99,0.91-2.82
		c0.61-0.84,1.45-1.49,2.51-1.95c1.07-0.46,2.28-0.69,3.64-0.69c0.97,0,1.92,0.13,2.84,0.38s1.74,0.62,2.44,1.11
		c0.8,0.53,1.2,1.15,1.2,1.86c0,0.39-0.12,0.72-0.35,0.98c-0.23,0.27-0.51,0.4-0.82,0.4c-0.22,0-0.44-0.05-0.66-0.15
		c-0.22-0.1-0.51-0.26-0.87-0.47c-0.66-0.39-1.27-0.69-1.84-0.91c-0.57-0.22-1.28-0.33-2.13-0.33c-1.02,0-1.84,0.22-2.46,0.66
		c-0.62,0.44-0.93,1.03-0.93,1.79c0,0.68,0.29,1.21,0.86,1.59c0.57,0.38,1.64,0.74,3.22,1.08c1.63,0.34,2.9,0.73,3.83,1.16
		c0.92,0.44,1.58,0.98,1.99,1.62c0.4,0.64,0.6,1.46,0.6,2.46c0,1.58-0.66,2.85-1.99,3.81c-1.32,0.96-3.09,1.44-5.3,1.44
		C690.36,1405.68,688.33,1405.17,686.75,1404.15z"/>
	<path class="st0" d="M704.38,1383.13c-0.41-0.39-0.62-0.9-0.62-1.53c0-0.63,0.21-1.13,0.62-1.51c0.41-0.38,0.97-0.57,1.68-0.57
		c0.68,0,1.23,0.19,1.66,0.57c0.43,0.38,0.64,0.88,0.64,1.51c0,0.63-0.21,1.14-0.62,1.53c-0.41,0.39-0.97,0.58-1.68,0.58
		C705.35,1383.71,704.8,1383.52,704.38,1383.13z M704.73,1405.17c-0.35-0.29-0.53-0.73-0.53-1.31v-14.79c0-0.58,0.18-1.03,0.53-1.33
		c0.35-0.3,0.8-0.45,1.33-0.45c0.53,0,0.97,0.15,1.31,0.45c0.34,0.3,0.51,0.75,0.51,1.33v14.79c0,0.58-0.17,1.02-0.51,1.31
		c-0.34,0.29-0.78,0.44-1.31,0.44C705.52,1405.61,705.08,1405.46,704.73,1405.17z"/>
	<path class="st0" d="M713.13,1404.15c-0.44-0.27-0.75-0.55-0.93-0.84c-0.18-0.29-0.27-0.62-0.27-0.98c0-0.39,0.11-0.72,0.33-0.98
		c0.22-0.27,0.5-0.4,0.84-0.4c0.32,0,0.81,0.19,1.49,0.58c0.73,0.39,1.44,0.7,2.13,0.95c0.69,0.24,1.56,0.36,2.61,0.36
		c1.17,0,2.08-0.21,2.73-0.62c0.66-0.41,0.98-1,0.98-1.75c0-0.48-0.13-0.87-0.38-1.17c-0.26-0.29-0.7-0.55-1.33-0.78
		s-1.57-0.48-2.81-0.75c-2.14-0.46-3.67-1.09-4.61-1.88c-0.94-0.79-1.4-1.86-1.4-3.22c0-1.04,0.3-1.99,0.91-2.82
		c0.61-0.84,1.45-1.49,2.51-1.95c1.07-0.46,2.28-0.69,3.64-0.69c0.97,0,1.92,0.13,2.84,0.38c0.92,0.26,1.74,0.62,2.44,1.11
		c0.8,0.53,1.2,1.15,1.2,1.86c0,0.39-0.12,0.72-0.35,0.98c-0.23,0.27-0.51,0.4-0.82,0.4c-0.22,0-0.44-0.05-0.66-0.15
		c-0.22-0.1-0.51-0.26-0.87-0.47c-0.66-0.39-1.27-0.69-1.84-0.91c-0.57-0.22-1.28-0.33-2.13-0.33c-1.02,0-1.84,0.22-2.46,0.66
		c-0.62,0.44-0.93,1.03-0.93,1.79c0,0.68,0.29,1.21,0.86,1.59c0.57,0.38,1.64,0.74,3.22,1.08c1.63,0.34,2.9,0.73,3.83,1.16
		c0.92,0.44,1.58,0.98,1.99,1.62c0.4,0.64,0.6,1.46,0.6,2.46c0,1.58-0.66,2.85-1.99,3.81c-1.32,0.96-3.09,1.44-5.3,1.44
		C716.74,1405.68,714.71,1405.17,713.13,1404.15z"/>
	<path class="st0" d="M730.69,1404.15c-0.44-0.27-0.75-0.55-0.93-0.84c-0.18-0.29-0.27-0.62-0.27-0.98c0-0.39,0.11-0.72,0.33-0.98
		c0.22-0.27,0.5-0.4,0.84-0.4c0.32,0,0.81,0.19,1.49,0.58c0.73,0.39,1.44,0.7,2.13,0.95c0.69,0.24,1.56,0.36,2.61,0.36
		c1.17,0,2.08-0.21,2.73-0.62c0.66-0.41,0.98-1,0.98-1.75c0-0.48-0.13-0.87-0.38-1.17c-0.26-0.29-0.7-0.55-1.33-0.78
		s-1.57-0.48-2.81-0.75c-2.14-0.46-3.67-1.09-4.61-1.88c-0.94-0.79-1.4-1.86-1.4-3.22c0-1.04,0.3-1.99,0.91-2.82
		c0.61-0.84,1.45-1.49,2.51-1.95c1.07-0.46,2.28-0.69,3.64-0.69c0.97,0,1.92,0.13,2.84,0.38s1.74,0.62,2.44,1.11
		c0.8,0.53,1.2,1.15,1.2,1.86c0,0.39-0.12,0.72-0.35,0.98c-0.23,0.27-0.51,0.4-0.82,0.4c-0.22,0-0.44-0.05-0.66-0.15
		c-0.22-0.1-0.51-0.26-0.87-0.47c-0.66-0.39-1.27-0.69-1.84-0.91c-0.57-0.22-1.28-0.33-2.13-0.33c-1.02,0-1.84,0.22-2.46,0.66
		c-0.62,0.44-0.93,1.03-0.93,1.79c0,0.68,0.29,1.21,0.86,1.59c0.57,0.38,1.64,0.74,3.22,1.08c1.63,0.34,2.9,0.73,3.83,1.16
		c0.92,0.44,1.58,0.98,1.99,1.62c0.4,0.64,0.6,1.46,0.6,2.46c0,1.58-0.66,2.85-1.99,3.81c-1.32,0.96-3.09,1.44-5.3,1.44
		C734.3,1405.68,732.27,1405.17,730.69,1404.15z"/>
	<path class="st0" d="M751.22,1404.55c-1.3-0.75-2.31-1.82-3.02-3.21c-0.72-1.39-1.08-2.99-1.08-4.81c0-1.85,0.37-3.47,1.11-4.88
		c0.74-1.41,1.78-2.5,3.12-3.28c1.34-0.78,2.87-1.17,4.59-1.17c0.92,0,1.85,0.13,2.79,0.4c0.94,0.27,1.77,0.63,2.5,1.09
		c0.78,0.53,1.17,1.15,1.17,1.86c0,0.41-0.11,0.76-0.33,1.04c-0.22,0.28-0.5,0.42-0.84,0.42c-0.22,0-0.44-0.06-0.66-0.16
		c-0.22-0.11-0.5-0.27-0.84-0.49c-0.61-0.39-1.17-0.69-1.69-0.89c-0.52-0.21-1.15-0.31-1.88-0.31c-1.65,0-2.93,0.56-3.84,1.68
		c-0.91,1.12-1.37,2.67-1.37,4.66c0,1.99,0.45,3.53,1.35,4.61c0.9,1.08,2.17,1.62,3.83,1.62c0.73,0,1.37-0.11,1.93-0.33
		c0.56-0.22,1.13-0.51,1.71-0.87c0.27-0.17,0.53-0.32,0.8-0.44c0.27-0.12,0.51-0.18,0.73-0.18c0.34,0,0.62,0.14,0.84,0.42
		c0.22,0.28,0.33,0.63,0.33,1.04c0,0.34-0.09,0.65-0.27,0.93c-0.18,0.28-0.49,0.56-0.93,0.86c-0.73,0.49-1.58,0.86-2.55,1.13
		c-0.97,0.27-1.96,0.4-2.95,0.4C754.03,1405.68,752.52,1405.31,751.22,1404.55z"/>
	<path class="st0" d="M781.7,1394.39v9.47c0,0.54-0.17,0.96-0.51,1.28c-0.34,0.31-0.79,0.47-1.35,0.47c-0.56,0-1-0.16-1.33-0.47
		c-0.33-0.32-0.49-0.74-0.49-1.28v-9.44c0-1.46-0.3-2.53-0.89-3.21c-0.6-0.68-1.52-1.02-2.79-1.02c-1.48,0-2.67,0.46-3.57,1.39
		c-0.9,0.92-1.35,2.16-1.35,3.72v8.56c0,0.54-0.16,0.96-0.49,1.28c-0.33,0.31-0.77,0.47-1.33,0.47c-0.56,0-1.01-0.16-1.35-0.47
		c-0.34-0.32-0.51-0.74-0.51-1.28v-22.55c0-0.53,0.18-0.96,0.53-1.28c0.35-0.32,0.81-0.47,1.37-0.47c0.53,0,0.97,0.15,1.29,0.46
		c0.33,0.3,0.49,0.71,0.49,1.22v9.11c0.61-1.02,1.42-1.8,2.44-2.33c1.02-0.54,2.19-0.8,3.5-0.8
		C779.59,1387.21,781.7,1389.6,781.7,1394.39z"/>
	<path class="st0" d="M789.84,1404.55c-1.32-0.75-2.34-1.83-3.06-3.23c-0.72-1.4-1.08-3.02-1.08-4.86c0-1.87,0.36-3.5,1.08-4.9
		c0.72-1.4,1.74-2.47,3.06-3.23c1.32-0.75,2.86-1.13,4.61-1.13c1.75,0,3.28,0.38,4.61,1.13c1.32,0.75,2.34,1.83,3.06,3.23
		c0.72,1.4,1.07,3.03,1.07,4.9c0,1.85-0.36,3.47-1.07,4.86c-0.72,1.4-1.74,2.47-3.06,3.23c-1.32,0.75-2.86,1.13-4.61,1.13
		C792.7,1405.68,791.17,1405.31,789.84,1404.55z M798.19,1401.16c0.86-1.07,1.29-2.64,1.29-4.7c0-2.04-0.44-3.6-1.31-4.68
		c-0.87-1.08-2.11-1.62-3.72-1.62c-1.6,0-2.84,0.54-3.72,1.62c-0.87,1.08-1.31,2.64-1.31,4.68c0,2.06,0.43,3.63,1.29,4.7
		c0.86,1.07,2.11,1.6,3.74,1.6C796.08,1402.77,797.32,1402.23,798.19,1401.16z"/>
	<path class="st0" d="M810.39,1404.55c-1.32-0.75-2.34-1.83-3.06-3.23c-0.72-1.4-1.08-3.02-1.08-4.86c0-1.87,0.36-3.5,1.08-4.9
		c0.72-1.4,1.74-2.47,3.06-3.23c1.32-0.75,2.86-1.13,4.61-1.13c1.75,0,3.28,0.38,4.61,1.13c1.32,0.75,2.34,1.83,3.06,3.23
		c0.72,1.4,1.07,3.03,1.07,4.9c0,1.85-0.36,3.47-1.07,4.86c-0.72,1.4-1.74,2.47-3.06,3.23c-1.32,0.75-2.86,1.13-4.61,1.13
		C813.25,1405.68,811.72,1405.31,810.39,1404.55z M818.74,1401.16c0.86-1.07,1.29-2.64,1.29-4.7c0-2.04-0.44-3.6-1.31-4.68
		c-0.87-1.08-2.11-1.62-3.72-1.62s-2.84,0.54-3.72,1.62c-0.87,1.08-1.31,2.64-1.31,4.68c0,2.06,0.43,3.63,1.29,4.7
		c0.86,1.07,2.11,1.6,3.74,1.6C816.63,1402.77,817.87,1402.23,818.74,1401.16z"/>
	<path class="st0" d="M828.36,1405.17c-0.35-0.29-0.53-0.73-0.53-1.31v-22.52c0-0.58,0.18-1.03,0.53-1.33
		c0.35-0.3,0.79-0.46,1.33-0.46s0.97,0.15,1.31,0.46c0.34,0.3,0.51,0.75,0.51,1.33v22.52c0,0.58-0.17,1.02-0.51,1.31
		c-0.34,0.29-0.78,0.44-1.31,0.44S828.71,1405.46,828.36,1405.17z"/>
</g>
<g>
	<g>
		<path class="st0" d="M566.32,1322.33v31.79h14.04c1.43,0,2.53,0.35,3.29,1.04c0.76,0.7,1.15,1.57,1.15,2.62
			c0,1.07-0.38,1.94-1.13,2.61c-0.76,0.67-1.86,1-3.31,1h-17.47c-1.93,0-3.31-0.43-4.16-1.28c-0.84-0.85-1.27-2.23-1.27-4.14v-33.64
			c0-1.79,0.4-3.13,1.21-4.02c0.8-0.89,1.86-1.34,3.17-1.34c1.33,0,2.41,0.44,3.23,1.33
			C565.9,1319.18,566.32,1320.53,566.32,1322.33z"/>
		<path class="st0" d="M580.36,1362.12h-17.47c-2.12,0-3.69-0.5-4.67-1.5c-0.98-0.99-1.47-2.55-1.47-4.65v-33.64
			c0-1.96,0.47-3.48,1.39-4.5c0.94-1.05,2.19-1.58,3.71-1.58c1.53,0,2.8,0.52,3.76,1.56c0.95,1.02,1.43,2.54,1.43,4.53v31.07h13.32
			c1.61,0,2.88,0.41,3.78,1.23c0.92,0.83,1.38,1.9,1.38,3.16c0,1.28-0.46,2.34-1.38,3.15
			C583.26,1361.72,581.98,1362.12,580.36,1362.12z M561.85,1317.69c-1.11,0-1.97,0.36-2.64,1.1c-0.68,0.75-1.02,1.94-1.02,3.54
			v33.64c0,1.7,0.36,2.92,1.06,3.63c0.7,0.71,1.93,1.07,3.64,1.07h17.47c1.26,0,2.21-0.28,2.83-0.82c0.6-0.53,0.89-1.2,0.89-2.07
			c0-0.85-0.3-1.53-0.91-2.09c-0.62-0.57-1.57-0.85-2.81-0.85h-14.76v-32.51c0-1.61-0.35-2.8-1.04-3.54
			C563.86,1318.05,562.98,1317.69,561.85,1317.69z"/>
	</g>
	<g>
		<path class="st0" d="M622.99,1345.6c0,2.42-0.38,4.66-1.13,6.7c-0.76,2.05-1.85,3.8-3.28,5.27c-1.43,1.47-3.14,2.6-5.12,3.38
			c-1.99,0.78-4.22,1.18-6.7,1.18c-2.46,0-4.68-0.4-6.64-1.19c-1.97-0.79-3.67-1.93-5.11-3.41c-1.44-1.48-2.53-3.23-3.28-5.24
			c-0.74-2.02-1.12-4.25-1.12-6.69c0-2.46,0.38-4.72,1.13-6.76c0.75-2.05,1.84-3.79,3.25-5.24c1.41-1.45,3.12-2.57,5.12-3.35
			c2.01-0.79,4.22-1.18,6.64-1.18c2.46,0,4.7,0.4,6.7,1.19c2.01,0.8,3.72,1.93,5.15,3.4c1.43,1.47,2.52,3.22,3.26,5.24
			C622.62,1340.93,622.99,1343.16,622.99,1345.6z M614.83,1345.6c0-3.32-0.73-5.9-2.19-7.75c-1.46-1.85-3.42-2.77-5.88-2.77
			c-1.59,0-2.99,0.41-4.2,1.24c-1.21,0.82-2.15,2.04-2.8,3.65c-0.66,1.61-0.98,3.49-0.98,5.63c0,2.13,0.32,3.98,0.97,5.57
			c0.64,1.59,1.57,2.81,2.77,3.65c1.2,0.84,2.62,1.27,4.25,1.27c2.46,0,4.42-0.93,5.88-2.79
			C614.1,1351.45,614.83,1348.88,614.83,1345.6z"/>
		<path class="st0" d="M606.76,1362.86c-2.54,0-4.87-0.42-6.91-1.24c-2.05-0.83-3.85-2.03-5.36-3.58c-1.5-1.54-2.66-3.39-3.44-5.5
			c-0.77-2.09-1.16-4.43-1.16-6.94c0-2.54,0.4-4.9,1.18-7.01c0.79-2.13,1.93-3.98,3.41-5.5c1.47-1.52,3.29-2.7,5.38-3.52
			c2.08-0.82,4.4-1.23,6.91-1.23c2.54,0,4.89,0.42,6.97,1.24c2.09,0.83,3.91,2.03,5.4,3.56c1.5,1.54,2.65,3.39,3.42,5.5
			c0.77,2.1,1.16,4.44,1.16,6.95c0,2.49-0.4,4.83-1.18,6.95c-0.79,2.13-1.94,3.99-3.44,5.53c-1.5,1.54-3.3,2.73-5.38,3.55
			C611.66,1362.45,609.32,1362.86,606.76,1362.86z M606.76,1329.79c-2.32,0-4.47,0.38-6.38,1.13c-1.9,0.74-3.54,1.81-4.87,3.18
			c-1.33,1.37-2.37,3.05-3.09,4.99c-0.72,1.96-1.09,4.15-1.09,6.51c0,2.34,0.36,4.51,1.07,6.44c0.71,1.91,1.76,3.59,3.12,4.99
			c1.37,1.4,3,2.49,4.86,3.24c1.87,0.76,4.02,1.14,6.37,1.14c2.38,0,4.55-0.38,6.44-1.13c1.88-0.74,3.52-1.82,4.87-3.21
			c1.35-1.39,2.4-3.08,3.12-5.02c0.72-1.96,1.09-4.13,1.09-6.45c0-2.35-0.36-4.52-1.07-6.46c-0.7-1.92-1.75-3.6-3.1-4.99
			c-1.35-1.39-3-2.47-4.9-3.23C611.28,1330.17,609.11,1329.79,606.76,1329.79z M606.76,1356.81c-1.77,0-3.34-0.47-4.66-1.4
			c-1.31-0.92-2.33-2.26-3.02-3.97c-0.68-1.67-1.02-3.63-1.02-5.84c0-2.23,0.35-4.22,1.04-5.9c0.71-1.74,1.74-3.07,3.06-3.97
			c1.33-0.9,2.88-1.36,4.61-1.36c2.68,0,4.85,1.02,6.45,3.05c1.56,1.97,2.35,4.72,2.35,8.19c0,3.43-0.79,6.17-2.34,8.15
			C611.61,1355.78,609.44,1356.81,606.76,1356.81z M606.76,1335.81c-1.43,0-2.71,0.37-3.79,1.11c-1.09,0.74-1.94,1.86-2.54,3.32
			c-0.62,1.51-0.93,3.32-0.93,5.36c0,2.02,0.31,3.81,0.91,5.3c0.59,1.45,1.44,2.57,2.52,3.33c1.09,0.76,2.34,1.13,3.83,1.13
			c2.25,0,3.99-0.82,5.32-2.51c1.35-1.72,2.04-4.16,2.04-7.26c0-3.14-0.68-5.59-2.03-7.3
			C610.75,1336.62,609.01,1335.81,606.76,1335.81z"/>
	</g>
	<g>
		<path class="st0" d="M661.19,1345.56c0,2.42-0.38,4.66-1.13,6.7c-0.76,2.05-1.85,3.8-3.28,5.27c-1.43,1.47-3.14,2.6-5.12,3.38
			c-1.99,0.78-4.22,1.18-6.7,1.18c-2.46,0-4.68-0.4-6.64-1.19c-1.97-0.79-3.67-1.93-5.11-3.41c-1.44-1.48-2.53-3.23-3.28-5.24
			c-0.74-2.02-1.12-4.25-1.12-6.69c0-2.46,0.38-4.72,1.13-6.76c0.75-2.05,1.84-3.79,3.25-5.24c1.41-1.45,3.12-2.57,5.12-3.35
			c2.01-0.79,4.22-1.18,6.64-1.18c2.46,0,4.7,0.4,6.7,1.19c2.01,0.8,3.72,1.93,5.15,3.4c1.43,1.47,2.52,3.22,3.26,5.24
			C660.81,1340.89,661.19,1343.12,661.19,1345.56z M653.02,1345.56c0-3.32-0.73-5.9-2.19-7.75c-1.46-1.85-3.42-2.77-5.88-2.77
			c-1.59,0-2.99,0.41-4.2,1.24c-1.21,0.82-2.15,2.04-2.8,3.65c-0.66,1.61-0.98,3.49-0.98,5.63c0,2.13,0.32,3.98,0.97,5.57
			c0.64,1.59,1.57,2.81,2.77,3.65c1.2,0.84,2.62,1.27,4.25,1.27c2.46,0,4.42-0.93,5.88-2.79
			C652.29,1351.41,653.02,1348.84,653.02,1345.56z"/>
		<path class="st0" d="M644.95,1362.82c-2.54,0-4.87-0.42-6.91-1.24c-2.05-0.83-3.85-2.03-5.36-3.58c-1.5-1.54-2.66-3.39-3.44-5.5
			c-0.77-2.09-1.16-4.42-1.16-6.94c0-2.54,0.4-4.9,1.18-7.01c0.78-2.13,1.93-3.98,3.41-5.5c1.48-1.52,3.29-2.7,5.38-3.52
			c2.08-0.81,4.4-1.23,6.91-1.23c2.54,0,4.88,0.42,6.97,1.24c2.09,0.83,3.91,2.03,5.41,3.56c1.5,1.54,2.65,3.39,3.42,5.5
			c0.77,2.09,1.16,4.43,1.16,6.95c0,2.5-0.4,4.84-1.18,6.95c-0.79,2.13-1.94,3.99-3.44,5.53c-1.49,1.54-3.3,2.73-5.38,3.55
			C649.86,1362.41,647.51,1362.82,644.95,1362.82z M644.95,1329.75c-2.32,0-4.47,0.38-6.38,1.13c-1.9,0.74-3.54,1.81-4.87,3.18
			c-1.33,1.37-2.37,3.05-3.09,4.99c-0.72,1.95-1.09,4.15-1.09,6.51c0,2.35,0.36,4.51,1.07,6.44c0.71,1.91,1.76,3.59,3.12,4.99
			c1.36,1.4,3,2.49,4.86,3.25c1.87,0.75,4.02,1.14,6.37,1.14c2.38,0,4.55-0.38,6.44-1.13c1.88-0.74,3.52-1.82,4.87-3.21
			c1.35-1.39,2.4-3.08,3.12-5.02c0.72-1.95,1.09-4.13,1.09-6.45c0-2.35-0.36-4.52-1.07-6.45c-0.7-1.92-1.75-3.6-3.1-4.99
			c-1.35-1.39-3-2.47-4.9-3.23C649.47,1330.13,647.31,1329.75,644.95,1329.75z M644.95,1356.77c-1.77,0-3.34-0.47-4.66-1.4
			c-1.31-0.92-2.33-2.26-3.02-3.97c-0.68-1.67-1.02-3.63-1.02-5.84c0-2.23,0.35-4.21,1.04-5.9c0.71-1.74,1.74-3.07,3.06-3.97
			c1.33-0.9,2.88-1.36,4.61-1.36c2.68,0,4.85,1.02,6.45,3.05c1.56,1.97,2.35,4.72,2.35,8.19c0,3.43-0.79,6.17-2.34,8.15
			C649.8,1355.74,647.63,1356.77,644.95,1356.77z M644.95,1335.77c-1.43,0-2.71,0.37-3.79,1.11c-1.09,0.74-1.94,1.86-2.54,3.32
			c-0.62,1.51-0.93,3.32-0.93,5.36c0,2.02,0.31,3.8,0.92,5.3c0.59,1.45,1.44,2.57,2.52,3.33c1.07,0.75,2.36,1.14,3.83,1.14
			c2.25,0,3.99-0.82,5.32-2.51c1.35-1.72,2.04-4.16,2.04-7.26c0-3.14-0.68-5.59-2.03-7.3
			C648.94,1336.59,647.2,1335.77,644.95,1335.77z"/>
	</g>
	<g>
		<path class="st0" d="M674.63,1333.63v0.98c1.52-1.89,3.1-3.27,4.73-4.16c1.64-0.88,3.49-1.33,5.56-1.33
			c2.49,0,4.77,0.65,6.86,1.94c2.09,1.29,3.74,3.18,4.96,5.66c1.21,2.48,1.82,5.42,1.82,8.82c0,2.5-0.35,4.8-1.05,6.9
			c-0.7,2.1-1.66,3.85-2.88,5.27c-1.22,1.42-2.67,2.51-4.33,3.28c-1.67,0.76-3.46,1.15-5.37,1.15c-2.31,0-4.25-0.47-5.81-1.4
			c-1.57-0.93-3.06-2.3-4.48-4.11v12.21c0,3.58-1.29,5.36-3.88,5.36c-1.52,0-2.53-0.46-3.02-1.39c-0.49-0.92-0.74-2.27-0.74-4.04
			v-35.1c0-1.55,0.34-2.71,1.01-3.47c0.67-0.77,1.59-1.15,2.75-1.15c1.14,0,2.08,0.39,2.8,1.18
			C674.27,1331.03,674.63,1332.16,674.63,1333.63z M690.46,1345.45c0-2.15-0.33-3.99-0.98-5.53c-0.65-1.54-1.55-2.72-2.71-3.54
			c-1.15-0.82-2.43-1.24-3.83-1.24c-2.23,0-4.11,0.88-5.64,2.65c-1.53,1.77-2.29,4.37-2.29,7.81c0,3.24,0.76,5.75,2.28,7.55
			c1.52,1.8,3.4,2.7,5.65,2.7c1.34,0,2.58-0.39,3.73-1.18c1.14-0.79,2.06-1.96,2.75-3.53
			C690.11,1349.58,690.46,1347.68,690.46,1345.45z"/>
		<path class="st0" d="M670.75,1374.93c-1.8,0-3.03-0.59-3.66-1.77c-0.55-1.04-0.82-2.47-0.82-4.38v-35.1c0-1.72,0.4-3.05,1.19-3.95
			c0.81-0.92,1.92-1.39,3.29-1.39c1.35,0,2.47,0.47,3.33,1.41c0.68,0.75,1.1,1.75,1.22,2.98c1.2-1.26,2.44-2.24,3.71-2.92
			c1.74-0.94,3.72-1.41,5.9-1.41c2.61,0,5.05,0.69,7.24,2.05c2.2,1.36,3.96,3.36,5.22,5.96c1.26,2.57,1.89,5.64,1.89,9.14
			c0,2.57-0.37,4.97-1.09,7.12c-0.73,2.18-1.74,4.03-3.02,5.52c-1.29,1.49-2.83,2.66-4.58,3.46c-1.76,0.8-3.67,1.21-5.67,1.21
			c-2.43,0-4.51-0.5-6.18-1.5c-1.17-0.69-2.3-1.63-3.39-2.78v10.27C675.35,1373.87,672.85,1374.93,670.75,1374.93z M670.75,1329.79
			c-0.96,0-1.68,0.3-2.21,0.9c-0.55,0.63-0.83,1.63-0.83,3v35.1c0,1.64,0.22,2.89,0.65,3.7c0.13,0.25,0.54,1,2.38,1
			c1.35,0,3.15-0.48,3.15-4.64v-14.3l1.29,1.64c1.36,1.73,2.8,3.05,4.28,3.94c1.45,0.86,3.28,1.3,5.44,1.3c1.8,0,3.5-0.36,5.07-1.08
			c1.56-0.72,2.94-1.76,4.09-3.09c1.15-1.34,2.08-3.03,2.75-5.03c0.67-2.01,1.01-4.25,1.01-6.67c0-3.27-0.59-6.13-1.75-8.5
			c-1.15-2.35-2.72-4.15-4.69-5.36c-1.97-1.21-4.15-1.83-6.48-1.83c-1.94,0-3.69,0.42-5.22,1.24c-1.54,0.83-3.06,2.17-4.51,3.97
			l-1.28,1.6v-3.03c0-1.28-0.3-2.25-0.89-2.89C672.43,1330.1,671.69,1329.79,670.75,1329.79z M682.94,1356.57
			c-2.46,0-4.55-0.99-6.2-2.95c-1.62-1.92-2.45-4.62-2.45-8.02c0-3.6,0.83-6.38,2.47-8.28c1.67-1.93,3.75-2.9,6.18-2.9
			c1.55,0,2.98,0.46,4.25,1.37c1.26,0.9,2.25,2.19,2.95,3.85c0.69,1.62,1.03,3.58,1.03,5.81c0,2.32-0.37,4.33-1.1,5.98
			c-0.74,1.68-1.75,2.97-3,3.84C685.82,1356.14,684.43,1356.57,682.94,1356.57z M682.94,1335.87c-2.03,0-3.69,0.79-5.09,2.4
			c-1.4,1.63-2.12,4.09-2.12,7.33c0,3.05,0.71,5.43,2.11,7.09c1.39,1.64,3.06,2.44,5.1,2.44c1.2,0,2.29-0.34,3.32-1.05
			c1.03-0.7,1.87-1.79,2.5-3.23c0.65-1.47,0.97-3.29,0.97-5.4c0-2.04-0.31-3.8-0.92-5.24c-0.6-1.41-1.42-2.5-2.46-3.24
			C685.33,1336.24,684.18,1335.87,682.94,1335.87z"/>
	</g>
	<g>
		<path class="st0" d="M712.06,1321.62v12.42c1.53-1.59,3.09-2.81,4.68-3.65c1.59-0.84,3.55-1.27,5.9-1.27
			c2.7,0,5.07,0.64,7.11,1.92c2.04,1.28,3.61,3.14,4.74,5.57c1.12,2.43,1.68,5.32,1.68,8.65c0,2.46-0.31,4.72-0.94,6.78
			c-0.63,2.05-1.53,3.84-2.73,5.35c-1.19,1.51-2.64,2.68-4.34,3.5c-1.7,0.82-3.57,1.24-5.62,1.24c-1.25,0-2.43-0.15-3.53-0.45
			c-1.1-0.3-2.04-0.69-2.82-1.18c-0.77-0.49-1.43-0.99-1.98-1.51c-0.55-0.52-1.27-1.29-2.16-2.32v0.8c0,1.53-0.37,2.69-1.1,3.47
			c-0.74,0.78-1.67,1.18-2.8,1.18c-1.15,0-2.07-0.39-2.76-1.18c-0.68-0.78-1.03-1.94-1.03-3.47v-35.51c0-1.65,0.33-2.89,1-3.74
			c0.67-0.84,1.59-1.27,2.79-1.27c1.25,0,2.21,0.4,2.89,1.21C711.72,1318.98,712.06,1320.13,712.06,1321.62z M712.45,1345.78
			c0,3.24,0.74,5.72,2.22,7.46c1.48,1.74,3.42,2.61,5.82,2.61c2.05,0,3.81-0.89,5.29-2.67c1.48-1.78,2.22-4.32,2.22-7.64
			c0-2.15-0.31-3.99-0.92-5.54c-0.62-1.55-1.49-2.75-2.62-3.59c-1.13-0.84-2.45-1.27-3.96-1.27c-1.55,0-2.93,0.42-4.14,1.27
			c-1.21,0.84-2.17,2.07-2.86,3.67C712.79,1341.67,712.45,1343.58,712.45,1345.78z"/>
		<path class="st0" d="M722.55,1362.86c-1.31,0-2.56-0.16-3.72-0.47c-1.16-0.31-2.18-0.74-3.01-1.26c-0.82-0.52-1.52-1.05-2.09-1.59
			c-0.29-0.27-0.62-0.61-1-1.02c-0.14,1.23-0.56,2.21-1.24,2.94c-0.87,0.93-1.99,1.41-3.33,1.41c-1.36,0-2.47-0.48-3.3-1.42
			c-0.8-0.92-1.21-2.24-1.21-3.95v-35.51c0-1.81,0.39-3.22,1.15-4.19c0.81-1.02,1.93-1.54,3.35-1.54c1.47,0,2.63,0.49,3.44,1.46
			c0.78,0.94,1.18,2.25,1.18,3.91v10.72c1.19-1.07,2.4-1.94,3.62-2.58c1.69-0.9,3.79-1.35,6.24-1.35c2.82,0,5.34,0.68,7.49,2.03
			c2.15,1.35,3.83,3.33,5.01,5.88c1.16,2.52,1.75,5.53,1.75,8.96c0,2.52-0.33,4.87-0.97,6.99c-0.65,2.14-1.61,4.02-2.85,5.58
			c-1.25,1.59-2.8,2.83-4.59,3.7C726.69,1362.42,724.69,1362.86,722.55,1362.86z M711.34,1354.75l1.27,1.46
			c0.87,1.01,1.58,1.77,2.11,2.27c0.5,0.48,1.13,0.95,1.87,1.42c0.71,0.45,1.59,0.81,2.62,1.09c1.03,0.28,2.16,0.42,3.34,0.42
			c1.93,0,3.71-0.39,5.3-1.16c1.59-0.77,2.97-1.88,4.08-3.3c1.13-1.43,2-3.15,2.6-5.11c0.6-1.98,0.91-4.19,0.91-6.57
			c0-3.22-0.54-6.03-1.62-8.35c-1.06-2.29-2.56-4.06-4.47-5.26c-1.91-1.2-4.17-1.81-6.72-1.81c-2.21,0-4.08,0.4-5.56,1.18
			c-1.51,0.8-3.03,1.98-4.49,3.51l-1.24,1.29v-14.22c0-1.31-0.28-2.31-0.85-2.98c-0.54-0.64-1.3-0.95-2.34-0.95
			c-0.97,0-1.69,0.32-2.22,0.99c-0.56,0.71-0.84,1.82-0.84,3.29v35.51c0,1.34,0.29,2.35,0.85,3c0.55,0.63,1.27,0.93,2.21,0.93
			c0.93,0,1.68-0.31,2.27-0.95c0.6-0.64,0.91-1.65,0.91-2.98V1354.75z M720.49,1356.57c-2.61,0-4.76-0.96-6.37-2.86
			c-1.59-1.87-2.39-4.53-2.39-7.93c0-2.3,0.37-4.31,1.1-5.99c0.75-1.72,1.79-3.05,3.11-3.97c2.64-1.84,6.41-1.88,8.95,0.01
			c1.24,0.92,2.2,2.23,2.86,3.9c0.65,1.63,0.97,3.58,0.97,5.81c0,3.48-0.8,6.2-2.39,8.1
			C724.72,1355.59,722.75,1356.57,720.49,1356.57z M720.49,1335.87c-1.39,0-2.65,0.38-3.73,1.14c-1.09,0.76-1.97,1.89-2.61,3.36
			c-0.65,1.5-0.98,3.32-0.98,5.42c0,3.04,0.69,5.4,2.05,7c1.35,1.58,3.07,2.35,5.27,2.35c1.84,0,3.39-0.79,4.73-2.41
			c1.36-1.64,2.05-4.05,2.05-7.18c0-2.04-0.29-3.82-0.87-5.27c-0.56-1.42-1.37-2.52-2.38-3.28
			C723.01,1336.23,721.85,1335.87,720.49,1335.87z"/>
	</g>
	<g>
		<path class="st0" d="M750.1,1350.4v6.79c0,1.65-0.39,2.89-1.16,3.71c-0.77,0.82-1.76,1.24-2.95,1.24c-1.17,0-2.14-0.42-2.89-1.25
			c-0.76-0.83-1.13-2.06-1.13-3.69v-22.64c0-3.65,1.32-5.48,3.96-5.48c1.35,0,2.32,0.43,2.92,1.28c0.6,0.85,0.92,2.11,0.98,3.78
			c0.97-1.67,1.97-2.93,2.99-3.78c1.02-0.85,2.39-1.28,4.1-1.28c1.71,0,3.37,0.43,4.98,1.28s2.41,1.99,2.41,3.4
			c0,0.99-0.34,1.81-1.03,2.46c-0.69,0.64-1.43,0.97-2.22,0.97c-0.3,0-1.02-0.18-2.16-0.55c-1.14-0.37-2.15-0.55-3.02-0.55
			c-1.19,0-2.17,0.31-2.92,0.94c-0.76,0.63-1.34,1.56-1.76,2.79c-0.42,1.23-0.71,2.7-0.86,4.4
			C750.18,1345.89,750.1,1347.96,750.1,1350.4z"/>
		<path class="st0" d="M745.99,1362.86c-1.38,0-2.53-0.5-3.43-1.49c-0.88-0.97-1.32-2.37-1.32-4.18v-22.64c0-5.13,2.55-6.2,4.68-6.2
			c1.59,0,2.78,0.53,3.51,1.59c0.4,0.57,0.69,1.27,0.87,2.12c0.67-0.92,1.35-1.68,2.05-2.26c1.15-0.96,2.69-1.45,4.56-1.45
			c1.82,0,3.61,0.46,5.31,1.37c1.86,0.98,2.8,2.34,2.8,4.03c0,1.19-0.42,2.2-1.25,2.98c-0.82,0.77-1.74,1.16-2.71,1.16
			c-0.26,0-0.77-0.07-2.38-0.58c-2.43-0.78-4.15-0.67-5.26,0.26c-0.65,0.54-1.16,1.36-1.53,2.46c-0.4,1.18-0.68,2.6-0.83,4.23
			c-0.16,1.66-0.24,3.73-0.24,6.14v6.79c0,1.83-0.46,3.25-1.36,4.2C748.56,1362.37,747.39,1362.86,745.99,1362.86z M745.93,1329.79
			c-1.39,0-3.24,0.49-3.24,4.76v22.64c0,1.44,0.32,2.52,0.95,3.21c0.62,0.68,1.39,1.01,2.35,1.01c0.99,0,1.79-0.33,2.42-1.01
			c0.64-0.68,0.97-1.76,0.97-3.22v-6.79c0-2.46,0.08-4.57,0.24-6.28c0.16-1.74,0.46-3.28,0.9-4.56c0.46-1.35,1.12-2.4,1.98-3.11
			c1.51-1.24,3.7-1.46,6.63-0.52c1.52,0.49,1.88,0.52,1.94,0.52c0.61,0,1.17-0.25,1.73-0.77c0.54-0.51,0.8-1.14,0.8-1.93
			c0-1.13-0.66-2.03-2.03-2.76c-2.94-1.56-6.46-1.59-8.27-0.08c-0.96,0.8-1.91,2.01-2.83,3.59l-1.26,2.15l-0.09-2.49
			c-0.06-1.52-0.34-2.66-0.85-3.4C747.8,1330.11,747.04,1329.79,745.93,1329.79z"/>
	</g>
	<g>
		<path class="st0" d="M791.49,1357.45v-1.04c-0.97,1.23-2,2.26-3.07,3.1c-1.07,0.83-2.24,1.45-3.52,1.86
			c-1.27,0.41-2.72,0.61-4.35,0.61c-1.97,0-3.73-0.41-5.29-1.22c-1.56-0.81-2.77-1.94-3.62-3.37c-1.01-1.73-1.52-4.21-1.52-7.45
			v-16.12c0-1.63,0.37-2.84,1.1-3.65c0.73-0.8,1.71-1.21,2.92-1.21c1.23,0,2.22,0.41,2.98,1.22c0.75,0.81,1.13,2.03,1.13,3.63v13.02
			c0,1.89,0.16,3.47,0.48,4.75c0.32,1.28,0.89,2.28,1.71,3.01c0.82,0.72,1.94,1.09,3.35,1.09c1.37,0,2.66-0.41,3.87-1.22
			c1.21-0.81,2.1-1.88,2.65-3.19c0.46-1.15,0.69-3.68,0.69-7.57v-9.89c0-1.61,0.38-2.82,1.13-3.63c0.75-0.81,1.74-1.22,2.95-1.22
			c1.21,0,2.18,0.4,2.92,1.21c0.73,0.81,1.1,2.02,1.1,3.65v23.57c0,1.55-0.35,2.71-1.06,3.49c-0.71,0.77-1.61,1.16-2.73,1.16
			c-1.11,0-2.03-0.4-2.76-1.21C791.85,1360.02,791.49,1358.9,791.49,1357.45z"/>
		<path class="st0" d="M795.33,1362.76c-1.32,0-2.43-0.49-3.29-1.44c-0.69-0.77-1.11-1.78-1.23-3.02c-0.63,0.67-1.28,1.26-1.94,1.78
			c-1.13,0.88-2.39,1.55-3.74,1.98c-1.34,0.43-2.88,0.64-4.57,0.64c-2.07,0-3.97-0.44-5.62-1.3c-1.67-0.88-2.99-2.1-3.91-3.64
			c-1.08-1.84-1.62-4.47-1.62-7.82v-16.12c0-1.81,0.43-3.2,1.29-4.14c0.87-0.96,2.04-1.44,3.45-1.44c1.43,0,2.62,0.49,3.51,1.45
			c0.88,0.95,1.33,2.34,1.33,4.13v13.02c0,1.82,0.15,3.36,0.46,4.58c0.28,1.13,0.78,2.02,1.49,2.64c0.69,0.61,1.64,0.91,2.87,0.91
			c1.24,0,2.37-0.36,3.47-1.1c1.09-0.73,1.89-1.7,2.39-2.87c0.28-0.72,0.63-2.58,0.63-7.29v-9.89c0-1.79,0.45-3.18,1.32-4.13
			c0.89-0.96,2.06-1.45,3.48-1.45s2.58,0.49,3.45,1.44c0.86,0.94,1.29,2.33,1.29,4.14v23.57c0,1.73-0.42,3.06-1.25,3.97
			C797.75,1362.29,796.65,1362.76,795.33,1362.76z M792.21,1354.33v3.12c0,1.26,0.3,2.24,0.9,2.9c0.59,0.65,1.31,0.97,2.22,0.97
			c0.91,0,1.63-0.3,2.19-0.93c0.58-0.63,0.87-1.64,0.87-3v-23.57c0-1.43-0.31-2.5-0.91-3.16c-0.6-0.65-1.38-0.97-2.39-0.97
			c-1.01,0-1.8,0.32-2.42,0.99c-0.62,0.67-0.94,1.73-0.94,3.14v9.89c0,4.02-0.24,6.58-0.74,7.83c-0.62,1.45-1.6,2.63-2.92,3.52
			c-1.33,0.89-2.76,1.34-4.28,1.34c-1.58,0-2.87-0.43-3.83-1.27c-0.93-0.82-1.59-1.96-1.94-3.38c-0.33-1.33-0.5-2.99-0.5-4.93
			v-13.02c0-1.41-0.32-2.47-0.94-3.14c-0.62-0.67-1.42-0.99-2.45-0.99c-1.01,0-1.79,0.32-2.39,0.97c-0.61,0.66-0.91,1.73-0.91,3.16
			v16.12c0,3.09,0.48,5.47,1.42,7.08c0.78,1.3,1.9,2.34,3.33,3.09c1.45,0.76,3.12,1.14,4.95,1.14c1.54,0,2.93-0.19,4.13-0.58
			c1.18-0.38,2.29-0.97,3.29-1.74c1.02-0.8,2.01-1.8,2.95-2.98L792.21,1354.33z"/>
	</g>
	<g>
		<path class="st0" d="M836.65,1335.03v23.63c0,2.7-0.29,5.02-0.86,6.97c-0.58,1.95-1.5,3.55-2.77,4.83
			c-1.27,1.27-2.93,2.21-4.99,2.83c-2.05,0.62-4.61,0.92-7.67,0.92c-2.8,0-5.3-0.39-7.51-1.18c-2.2-0.79-3.9-1.8-5.09-3.04
			c-1.19-1.24-1.79-2.52-1.79-3.83c0-0.99,0.34-1.8,1.01-2.43c0.67-0.63,1.49-0.94,2.44-0.94c1.19,0,2.23,0.53,3.13,1.58
			c0.44,0.54,0.89,1.08,1.36,1.62c0.47,0.55,0.98,1.01,1.55,1.4c0.57,0.39,1.25,0.67,2.04,0.86c0.79,0.19,1.71,0.28,2.74,0.28
			c2.1,0,3.74-0.29,4.9-0.88c1.16-0.59,1.98-1.41,2.44-2.46c0.47-1.05,0.74-2.18,0.82-3.38c0.08-1.2,0.14-3.13,0.18-5.8
			c-1.25,1.75-2.7,3.08-4.33,3.99c-1.64,0.91-3.59,1.37-5.85,1.37c-2.72,0-5.1-0.7-7.13-2.09c-2.04-1.39-3.6-3.34-4.69-5.84
			c-1.09-2.5-1.64-5.39-1.64-8.67c0-2.44,0.33-4.65,1-6.61c0.67-1.97,1.61-3.62,2.85-4.97c1.23-1.35,2.65-2.37,4.26-3.05
			c1.61-0.68,3.38-1.03,5.3-1.03c2.3,0,4.3,0.44,5.99,1.33c1.69,0.88,3.26,2.27,4.71,4.16v-1.1c0-1.41,0.35-2.5,1.04-3.28
			c0.69-0.77,1.59-1.16,2.68-1.16c1.57,0,2.61,0.51,3.13,1.54C836.39,1331.63,836.65,1333.1,836.65,1335.03z M813.09,1345.33
			c0,3.3,0.72,5.79,2.16,7.48c1.44,1.69,3.3,2.53,5.59,2.53c1.35,0,2.63-0.36,3.83-1.09c1.2-0.73,2.18-1.82,2.93-3.28
			c0.75-1.46,1.13-3.23,1.13-5.32c0-3.32-0.73-5.9-2.19-7.75c-1.46-1.85-3.38-2.77-5.76-2.77c-2.32,0-4.19,0.88-5.59,2.65
			C813.79,1339.57,813.09,1342.08,813.09,1345.33z"/>
		<path class="st0" d="M820.36,1374.93c-2.87,0-5.48-0.41-7.75-1.22c-2.3-0.82-4.11-1.91-5.37-3.22c-1.32-1.38-1.99-2.83-1.99-4.33
			c0-1.2,0.42-2.19,1.24-2.96c0.81-0.75,1.8-1.13,2.93-1.13c1.41,0,2.65,0.62,3.68,1.84c0.44,0.54,0.89,1.08,1.35,1.62
			c0.42,0.49,0.9,0.92,1.41,1.27c0.49,0.33,1.09,0.59,1.8,0.76c0.74,0.17,1.6,0.26,2.57,0.26c1.98,0,3.52-0.27,4.58-0.8
			c1.02-0.51,1.71-1.2,2.11-2.11c0.43-0.97,0.68-2.02,0.76-3.14c0.06-0.84,0.1-2.08,0.14-3.68c-0.98,1.05-2.06,1.9-3.22,2.55
			c-1.74,0.97-3.83,1.46-6.21,1.46c-2.85,0-5.39-0.74-7.54-2.21c-2.14-1.46-3.81-3.53-4.95-6.15c-1.13-2.58-1.7-5.6-1.7-8.96
			c0-2.51,0.35-4.82,1.04-6.84c0.69-2.05,1.7-3.81,3-5.23c1.29-1.42,2.81-2.51,4.51-3.23c1.69-0.72,3.57-1.09,5.59-1.09
			c2.41,0,4.54,0.47,6.32,1.41c1.29,0.68,2.53,1.64,3.69,2.88c0.12-1.21,0.52-2.2,1.19-2.94c0.83-0.93,1.92-1.4,3.22-1.4
			c1.86,0,3.12,0.65,3.77,1.93c0.57,1.13,0.85,2.69,0.85,4.75v23.63c0,2.76-0.3,5.17-0.89,7.18c-0.61,2.05-1.6,3.78-2.95,5.13
			c-1.35,1.35-3.13,2.36-5.29,3.01C826.12,1374.61,823.47,1374.93,820.36,1374.93z M809.42,1363.52c-0.77,0-1.41,0.24-1.95,0.75
			c-0.53,0.49-0.78,1.11-0.78,1.9c0,1.13,0.52,2.22,1.59,3.33c1.11,1.15,2.73,2.11,4.82,2.86c2.12,0.75,4.56,1.13,7.26,1.13
			c2.97,0,5.48-0.3,7.46-0.89c1.93-0.58,3.51-1.47,4.69-2.65c1.18-1.18,2.05-2.7,2.59-4.52c0.55-1.87,0.83-4.15,0.83-6.77v-23.63
			c0-1.8-0.23-3.18-0.7-4.1c-0.39-0.77-1.2-1.14-2.48-1.14c-0.89,0-1.59,0.3-2.14,0.92c-0.57,0.63-0.86,1.57-0.86,2.79v3.23
			l-1.29-1.68c-1.38-1.79-2.88-3.12-4.47-3.96c-1.58-0.83-3.48-1.24-5.65-1.24c-1.82,0-3.51,0.33-5.02,0.97
			c-1.51,0.64-2.86,1.61-4.01,2.88c-1.16,1.27-2.07,2.86-2.7,4.72c-0.64,1.88-0.96,4.03-0.96,6.38c0,3.16,0.53,5.98,1.58,8.38
			c1.03,2.37,2.53,4.23,4.44,5.53c1.91,1.3,4.17,1.96,6.73,1.96c2.13,0,3.98-0.43,5.5-1.28c1.54-0.86,2.92-2.13,4.1-3.78l1.34-1.88
			l-0.03,2.31c-0.04,2.7-0.1,4.61-0.18,5.83c-0.08,1.28-0.38,2.5-0.88,3.63c-0.54,1.21-1.47,2.15-2.78,2.81
			c-1.26,0.63-3.02,0.96-5.23,0.96c-1.08,0-2.06-0.1-2.91-0.3c-0.88-0.21-1.65-0.54-2.28-0.97c-0.61-0.42-1.18-0.93-1.69-1.53
			c-0.47-0.55-0.93-1.1-1.37-1.64C811.24,1363.95,810.4,1363.52,809.42,1363.52z M820.83,1356.07c-2.49,0-4.56-0.94-6.14-2.78
			c-1.55-1.81-2.33-4.49-2.33-7.95c0-3.41,0.76-6.1,2.26-7.99c1.54-1.94,3.61-2.93,6.15-2.93c2.6,0,4.73,1.02,6.33,3.05
			c1.56,1.97,2.34,4.73,2.34,8.19c0,2.19-0.41,4.09-1.21,5.65c-0.81,1.57-1.89,2.77-3.2,3.56
			C823.73,1355.67,822.31,1356.07,820.83,1356.07z M820.77,1335.87c-2.11,0-3.75,0.78-5.02,2.38c-1.29,1.63-1.95,4.01-1.95,7.09
			c0,3.11,0.67,5.46,1.99,7.01c1.31,1.53,2.96,2.28,5.04,2.28c1.21,0,2.38-0.33,3.46-0.98c1.08-0.65,1.98-1.66,2.67-2.99
			c0.7-1.35,1.05-3.03,1.05-4.99c0-3.14-0.68-5.59-2.03-7.3C824.64,1336.68,822.94,1335.87,820.77,1335.87z"/>
	</g>
</g>
<path class="st6" d="M1561.36,468.26c-19.5,7.51-42.2,0.37-53.63-18.04c-3.5-5.53-89.1-138.19-220.06-89.38
	c-0.62,0.23-1.24,0.47-1.84,0.7c-125.89,48.51-91.48,199.72-89.95,206.16c5.66,23.78-8.91,47.76-32.73,53.5
	c-23.77,5.75-47.69-8.72-53.52-32.47c-19.83-80.71-14.97-248.67,144.11-309.97c0.97-0.37,1.94-0.74,2.91-1.11
	c159.59-59.48,283.35,56.24,326.5,125.74c12.93,20.82,6.53,48.19-14.3,61.12C1566.43,466.03,1563.92,467.27,1561.36,468.26"/>
</svg>
