<?xml version="1.0" encoding="utf-8"?>
<!-- Generator: Adobe Illustrator 23.0.2, SVG Export Plug-In . SVG Version: 6.00 Build 0)  -->
<svg version="1.1" id="Laag_1" xmlns="http://www.w3.org/2000/svg" xmlns:xlink="http://www.w3.org/1999/xlink" x="0px" y="0px"
	 viewBox="0 0 1220.9 1493.7" style="enable-background:new 0 0 1220.9 1493.7;" xml:space="preserve">
<style type="text/css">
	.st0{fill:#FFFFFF;}
	.st1{fill:#E27600;}
	.st2{fill:#FC4540;}
	.st3{fill:#FFEC01;}
	.st4{fill:#39BAAB;}
	.st5{fill:#94D8F5;}
	.st6{fill:#F4F6F2;}
</style>
<g>
	<path class="st0" d="M990.39,1233.13c-0.46,0.5-0.92,1-1.38,1.5c-65.51,71.98-38.5,157.04-7.13,205.02h64.78
		c0.09-6.75-2.14-13.56-6.81-19.12c-2.78-3.32-67.21-81.65-7.83-146.9c0.28-0.31,0.58-0.64,0.87-0.95
		c29.7-31.92,65.45-36.67,95.14-32.67v-58.29C1083.06,1177.59,1032.13,1188.27,990.39,1233.13z"/>
	<path class="st0" d="M119.83,1140.79c79.79,44.59,49.94,143.44,48.66,147.52c-4.33,13.49,1.72,27.83,13.72,34.37
		c1.58,0.86,3.26,1.58,5.04,2.15c15.27,4.91,31.61-3.5,36.52-18.76c16.36-50.94,21.61-161.63-75.62-215.97
		c-0.6-0.33-1.19-0.66-1.79-0.98c-23.26-12.66-45.82-18.43-67.15-19.29v58.43c12.48,0.83,25.71,4.42,39.48,11.92
		C119.07,1140.37,119.46,1140.58,119.83,1140.79z"/>
	<path class="st0" d="M240.97,478.42c0.31-0.99,0.63-1.98,0.94-2.97c50.36-162.88-78.52-270.7-154.18-305.09
		c-2.79-1.27-5.64-2.22-8.51-2.88v100.07c40.55,27.24,106.82,88.05,77.81,181.85c-0.19,0.61-0.39,1.25-0.59,1.88
		c-15.22,47.38-44.96,75.98-77.23,93.16v96.13C145.73,617.68,211.64,569.7,240.97,478.42z"/>
	<path class="st0" d="M804.86,550.01c-40.89-20.13-133.51-38.32-191.4,36.85c-0.35,0.46-0.7,0.92-1.05,1.38
		c-57.11,75.89-9.88,156.71,23.3,189c9.76,9.5,25.33,9.29,34.87-0.44c9.56-9.74,9.38-25.37-0.31-34.94
		c-2.62-2.6-63.47-63.92-18.28-123.97c0.21-0.29,0.44-0.58,0.66-0.87c47.5-61.69,127.08-24.23,130.37-22.65
		c10.83,5.33,23.67,2.01,30.67-7.29c0.92-1.22,1.74-2.55,2.44-3.98C822.16,570.86,817.11,556.04,804.86,550.01z"/>
	<path class="st0" d="M636.13,1203.74c-5.2-1.98-10.59-2.75-15.99-2.26c-4,0.45-8,1.54-11.89,3.21
		c15.24,15.74,19.68,37.13,19.95,38.52c1.05,5.54,5.9,9.4,11.34,9.4c0.72,0,1.44-0.07,2.17-0.21c6.27-1.19,10.38-7.24,9.19-13.51
		c-1.83-9.64-6.37-22.57-14.19-34.93L636.13,1203.74z"/>
	<path class="st0" d="M501.19,1252.51c6.33,0.81,12.11-3.67,12.92-10c0.02-0.14,2.01-14.4,9.99-28.24
		c10.18-17.66,25.25-26.46,44.96-26.29c5.44,0.06,10.37,0.82,14.89,2.08l0.31-0.23c8.25-6.14,17.4-10.25,27.21-12.26
		c-11.26-7.5-25.18-12.49-42.16-12.68c-0.33,0-0.65-0.01-0.97-0.01c-53.46,0-73.84,48.77-77.15,74.71
		C490.38,1245.92,494.86,1251.7,501.19,1252.51z"/>
	<path class="st0" d="M558.22,1239.63c-0.38,2.41,0.2,4.83,1.64,6.8c1.44,1.98,3.56,3.27,5.97,3.65c5.07,0.79,9.68-2.67,10.46-7.61
		c2.87-18.27,14.25-33.28,29.38-40.31c-4.87-4.46-10.72-8.29-17.73-10.84C572.52,1202.09,561.4,1219.38,558.22,1239.63z"/>
	<path class="st0" d="M656.33,1214.93c3.07,4,8.82,4.75,12.82,1.68c1.94-1.49,3.18-3.64,3.5-6.06s-0.33-4.82-1.82-6.76
		c-11.78-15.33-29.27-24.11-47.57-24.11c-1.72,0-3.45,0.08-5.19,0.24l-0.19,0.02c-0.86,0.1-1.72,0.21-2.58,0.34
		c7.32,5.54,13.4,12.15,18.36,19.12C642.39,1201.8,650.36,1207.17,656.33,1214.93z"/>
	<path class="st0" d="M615.31,1180.28c-9.97,1.52-19.26,5.38-27.37,11.04c7.01,2.55,12.86,6.38,17.73,10.84
		c4.43-2.06,9.18-3.47,14.14-4.03c4.71-0.42,9.38,0.04,13.86,1.27C628.71,1192.44,622.63,1185.83,615.31,1180.28z"/>
	<path class="st0" d="M466.25,1322.89c-0.73,0-1.25,0.34-1.57,1.02l-8.93,20l-8.93-20c-0.32-0.68-0.85-1.02-1.6-1.02
		c-0.49,0-0.93,0.16-1.33,0.47c-0.4,0.32-0.6,0.72-0.6,1.2c0,0.17,0.06,0.4,0.18,0.69l10.24,22.52c0.17,0.39,0.44,0.69,0.82,0.91
		c0.38,0.22,0.77,0.33,1.18,0.33s0.8-0.11,1.17-0.33c0.36-0.22,0.63-0.52,0.8-0.91l10.28-22.52c0.12-0.29,0.18-0.52,0.18-0.69
		c0-0.46-0.19-0.86-0.58-1.18S466.73,1322.89,466.25,1322.89z"/>
	<path class="st0" d="M478.27,1330.65l-0.51,0.04c-1.17,0.1-2.21,0.42-3.13,0.98s-1.63,1.37-2.11,2.44v-1.75
		c0-0.53-0.16-0.95-0.49-1.26c-0.33-0.3-0.73-0.45-1.22-0.45c-0.53,0-0.98,0.15-1.33,0.45c-0.35,0.3-0.53,0.74-0.53,1.29v14.83
		c0,0.58,0.18,1.02,0.53,1.31c0.35,0.29,0.8,0.44,1.33,0.44c0.53,0,0.97-0.15,1.31-0.44c0.34-0.29,0.51-0.73,0.51-1.31v-8.34
		c0-1.31,0.37-2.43,1.11-3.35c0.74-0.92,1.88-1.46,3.41-1.6l1.09-0.11c0.66-0.05,1.12-0.21,1.38-0.47c0.27-0.27,0.4-0.67,0.4-1.2
		C480.02,1331.07,479.44,1330.57,478.27,1330.65z"/>
	<path class="st0" d="M492.96,1322.89c-0.7,0-1.26,0.19-1.68,0.57c-0.41,0.38-0.62,0.88-0.62,1.51c0,0.63,0.21,1.14,0.62,1.53
		c0.41,0.39,0.97,0.58,1.68,0.58c0.7,0,1.26-0.2,1.68-0.58c0.41-0.39,0.62-0.9,0.62-1.53c0-0.63-0.21-1.13-0.64-1.51
		C494.19,1323.07,493.64,1322.89,492.96,1322.89z"/>
	<path class="st0" d="M484.14,1327.08c0.7,0,1.26-0.2,1.68-0.58c0.41-0.39,0.62-0.9,0.62-1.53c0-0.63-0.21-1.13-0.64-1.51
		c-0.43-0.38-0.98-0.57-1.66-0.57c-0.71,0-1.26,0.19-1.68,0.57c-0.41,0.38-0.62,0.88-0.62,1.51c0,0.63,0.21,1.14,0.62,1.53
		C482.88,1326.88,483.43,1327.08,484.14,1327.08z"/>
	<path class="st0" d="M492.96,1330.65c-0.53,0-0.98,0.15-1.33,0.45c-0.35,0.3-0.53,0.75-0.53,1.33v16.72c0,1.17-0.24,2.02-0.71,2.55
		c-0.47,0.53-1.18,0.82-2.13,0.87l-1.02,0.07c-0.53,0.05-0.92,0.19-1.17,0.42c-0.24,0.23-0.36,0.54-0.36,0.93
		c0,0.51,0.19,0.89,0.58,1.13c0.39,0.24,0.95,0.34,1.68,0.29l0.98-0.07c1.99-0.15,3.46-0.74,4.41-1.78
		c0.95-1.05,1.42-2.59,1.42-4.63v-16.51c0-0.58-0.17-1.03-0.51-1.33C493.93,1330.8,493.49,1330.65,492.96,1330.65z"/>
	<path class="st0" d="M485.96,1332.43c0-0.58-0.17-1.03-0.51-1.33c-0.34-0.3-0.78-0.45-1.31-0.45c-0.53,0-0.98,0.15-1.33,0.45
		c-0.35,0.3-0.53,0.75-0.53,1.33v14.79c0,0.58,0.18,1.02,0.53,1.31c0.35,0.29,0.8,0.44,1.33,0.44c0.53,0,0.97-0.15,1.31-0.44
		c0.34-0.29,0.51-0.73,0.51-1.31V1332.43z"/>
	<path class="st0" d="M515.15,1339.07c0-2.6-0.69-4.67-2.08-6.2c-1.38-1.53-3.27-2.3-5.65-2.3c-1.65,0-3.13,0.39-4.43,1.17
		s-2.31,1.87-3.02,3.28c-0.72,1.41-1.08,3.02-1.08,4.85c0,2.84,0.81,5.08,2.44,6.72c1.63,1.64,3.85,2.46,6.67,2.46
		c0.92,0,1.89-0.13,2.9-0.4c1.01-0.27,1.94-0.64,2.79-1.13c0.87-0.49,1.31-1.08,1.31-1.78c0-0.41-0.11-0.75-0.33-1.02
		c-0.22-0.27-0.5-0.4-0.84-0.4c-0.22,0-0.49,0.08-0.82,0.24c-0.33,0.16-0.53,0.26-0.6,0.31c-0.73,0.39-1.42,0.71-2.08,0.95
		c-0.66,0.24-1.43,0.36-2.33,0.36c-3.38,0-5.19-1.88-5.43-5.65h11.26C514.71,1340.52,515.15,1340.04,515.15,1339.07z
		 M502.58,1338.41c0.17-1.63,0.68-2.89,1.53-3.79c0.85-0.9,1.98-1.35,3.39-1.35c1.38,0,2.46,0.44,3.23,1.33
		c0.77,0.89,1.18,2.15,1.26,3.81H502.58z"/>
	<path class="st0" d="M544.37,1335.57c1.29-0.48,2.29-1.23,3.01-2.22c0.72-1,1.07-2.17,1.07-3.53c0-2.11-0.75-3.76-2.24-4.94
		c-1.49-1.18-3.57-1.77-6.21-1.77h-8.89c-0.58,0-1.04,0.16-1.37,0.49c-0.33,0.33-0.49,0.77-0.49,1.33v22.04c0,0.56,0.16,1,0.49,1.33
		c0.33,0.33,0.78,0.49,1.37,0.49h9.29c2.72,0,4.84-0.61,6.36-1.84c1.52-1.23,2.28-2.95,2.28-5.16c0-1.6-0.41-2.94-1.22-4.01
		C547,1336.72,545.85,1335.98,544.37,1335.57z M532.93,1326.13h6.49c1.82,0,3.18,0.33,4.06,0.98c0.89,0.66,1.33,1.66,1.33,3.02
		c0,2.72-1.8,4.08-5.39,4.08h-6.49V1326.13z M544.11,1344.75c-0.87,0.68-2.25,1.02-4.12,1.02h-7.07v-8.53H540
		c1.85,0,3.21,0.36,4.1,1.08c0.89,0.72,1.33,1.8,1.33,3.26C545.42,1343.01,544.99,1344.07,544.11,1344.75z"/>
	<path class="st0" d="M560.98,1330.57c-1.07,0-2.17,0.14-3.32,0.42c-1.14,0.28-2.14,0.65-2.99,1.11c-0.46,0.27-0.8,0.54-1,0.82
		c-0.21,0.28-0.31,0.6-0.31,0.96c0,0.41,0.11,0.75,0.35,1.02c0.23,0.27,0.53,0.4,0.89,0.4c0.27,0,0.73-0.18,1.38-0.55
		c0.9-0.41,1.72-0.73,2.48-0.95c0.75-0.22,1.55-0.33,2.4-0.33c1.24,0,2.14,0.3,2.7,0.91c0.56,0.61,0.84,1.59,0.84,2.95v1.06h-0.84
		c-2.7,0-4.82,0.16-6.36,0.47c-1.54,0.32-2.65,0.85-3.32,1.59c-0.67,0.74-1,1.76-1,3.04c0,1.05,0.27,1.99,0.82,2.84
		c0.55,0.85,1.31,1.51,2.28,1.99c0.97,0.47,2.04,0.71,3.21,0.71c1.21,0,2.28-0.27,3.19-0.82c0.91-0.55,1.6-1.33,2.06-2.35v1.35
		c0,0.54,0.16,0.96,0.47,1.28c0.32,0.31,0.74,0.47,1.28,0.47c0.56,0,1-0.15,1.31-0.45c0.32-0.3,0.47-0.74,0.47-1.29v-9.44
		c0-2.43-0.58-4.24-1.73-5.43S563.34,1330.57,560.98,1330.57z M564.41,1341.43c0,1.43-0.42,2.61-1.28,3.51
		c-0.85,0.91-1.94,1.37-3.28,1.37c-0.95,0-1.74-0.28-2.37-0.84c-0.63-0.56-0.95-1.28-0.95-2.15c0-0.75,0.22-1.33,0.66-1.73
		c0.44-0.4,1.17-0.69,2.19-0.86c1.02-0.17,2.48-0.26,4.37-0.26h0.66V1341.43z"/>
	<path class="st0" d="M583.9,1339.72c-0.92-0.44-2.2-0.82-3.83-1.16c-1.58-0.34-2.65-0.7-3.22-1.08c-0.57-0.38-0.86-0.91-0.86-1.59
		c0-0.75,0.31-1.35,0.93-1.78c0.62-0.44,1.44-0.66,2.46-0.66c0.85,0,1.56,0.11,2.13,0.33c0.57,0.22,1.18,0.52,1.84,0.91
		c0.36,0.22,0.66,0.38,0.87,0.47c0.22,0.1,0.44,0.15,0.66,0.15c0.32,0,0.59-0.13,0.82-0.4c0.23-0.27,0.35-0.59,0.35-0.98
		c0-0.71-0.4-1.32-1.2-1.86c-0.7-0.49-1.52-0.86-2.44-1.11c-0.92-0.25-1.87-0.38-2.84-0.38c-1.36,0-2.57,0.23-3.64,0.69
		c-1.07,0.46-1.91,1.11-2.51,1.95c-0.61,0.84-0.91,1.78-0.91,2.82c0,1.36,0.47,2.44,1.4,3.22c0.93,0.79,2.47,1.42,4.61,1.88
		c1.24,0.27,2.17,0.52,2.81,0.75c0.63,0.23,1.08,0.49,1.33,0.78c0.26,0.29,0.38,0.68,0.38,1.17c0,0.75-0.33,1.34-0.98,1.75
		c-0.66,0.41-1.57,0.62-2.73,0.62c-1.04,0-1.91-0.12-2.61-0.36c-0.69-0.24-1.4-0.56-2.13-0.95c-0.68-0.39-1.18-0.58-1.49-0.58
		c-0.34,0-0.62,0.13-0.84,0.4c-0.22,0.27-0.33,0.59-0.33,0.98c0,0.37,0.09,0.69,0.27,0.98c0.18,0.29,0.49,0.57,0.93,0.84
		c1.58,1.02,3.61,1.53,6.08,1.53c2.21,0,3.98-0.48,5.3-1.44c1.32-0.96,1.99-2.23,1.99-3.81c0-1-0.2-1.82-0.6-2.46
		C585.49,1340.7,584.82,1340.16,583.9,1339.72z"/>
	<path class="st0" d="M592.43,1330.65c-0.53,0-0.98,0.15-1.33,0.45c-0.35,0.3-0.53,0.75-0.53,1.33v14.79c0,0.58,0.18,1.02,0.53,1.31
		c0.35,0.29,0.8,0.44,1.33,0.44c0.53,0,0.97-0.15,1.31-0.44c0.34-0.29,0.51-0.73,0.51-1.31v-14.79c0-0.58-0.17-1.03-0.51-1.33
		C593.4,1330.8,592.96,1330.65,592.43,1330.65z"/>
	<path class="st0" d="M592.43,1322.89c-0.71,0-1.26,0.19-1.68,0.57c-0.41,0.38-0.62,0.88-0.62,1.51c0,0.63,0.21,1.14,0.62,1.53
		c0.41,0.39,0.97,0.58,1.68,0.58c0.7,0,1.26-0.2,1.68-0.58c0.41-0.39,0.62-0.9,0.62-1.53c0-0.63-0.21-1.13-0.64-1.51
		C593.66,1323.07,593.11,1322.89,592.43,1322.89z"/>
	<path class="st0" d="M610.28,1339.72c-0.92-0.44-2.2-0.82-3.83-1.16c-1.58-0.34-2.65-0.7-3.22-1.08c-0.57-0.38-0.86-0.91-0.86-1.59
		c0-0.75,0.31-1.35,0.93-1.78c0.62-0.44,1.44-0.66,2.46-0.66c0.85,0,1.56,0.11,2.13,0.33c0.57,0.22,1.18,0.52,1.84,0.91
		c0.36,0.22,0.66,0.38,0.87,0.47c0.22,0.1,0.44,0.15,0.66,0.15c0.32,0,0.59-0.13,0.82-0.4c0.23-0.27,0.35-0.59,0.35-0.98
		c0-0.71-0.4-1.32-1.2-1.86c-0.7-0.49-1.52-0.86-2.44-1.11c-0.92-0.25-1.87-0.38-2.84-0.38c-1.36,0-2.57,0.23-3.64,0.69
		c-1.07,0.46-1.91,1.11-2.51,1.95c-0.61,0.84-0.91,1.78-0.91,2.82c0,1.36,0.47,2.44,1.4,3.22c0.93,0.79,2.47,1.42,4.61,1.88
		c1.24,0.27,2.17,0.52,2.81,0.75s1.08,0.49,1.33,0.78c0.26,0.29,0.38,0.68,0.38,1.17c0,0.75-0.33,1.34-0.98,1.75
		c-0.66,0.41-1.57,0.62-2.73,0.62c-1.04,0-1.91-0.12-2.61-0.36c-0.69-0.24-1.4-0.56-2.13-0.95c-0.68-0.39-1.18-0.58-1.49-0.58
		c-0.34,0-0.62,0.13-0.84,0.4c-0.22,0.27-0.33,0.59-0.33,0.98c0,0.37,0.09,0.69,0.27,0.98c0.18,0.29,0.49,0.57,0.93,0.84
		c1.58,1.02,3.61,1.53,6.08,1.53c2.21,0,3.98-0.48,5.3-1.44c1.32-0.96,1.99-2.23,1.99-3.81c0-1-0.2-1.82-0.6-2.46
		C611.86,1340.7,611.2,1340.16,610.28,1339.72z"/>
	<path class="st0" d="M627.84,1339.72c-0.92-0.44-2.2-0.82-3.83-1.16c-1.58-0.34-2.65-0.7-3.22-1.08c-0.57-0.38-0.86-0.91-0.86-1.59
		c0-0.75,0.31-1.35,0.93-1.78c0.62-0.44,1.44-0.66,2.46-0.66c0.85,0,1.56,0.11,2.13,0.33c0.57,0.22,1.18,0.52,1.84,0.91
		c0.36,0.22,0.66,0.38,0.87,0.47c0.22,0.1,0.44,0.15,0.66,0.15c0.32,0,0.59-0.13,0.82-0.4c0.23-0.27,0.35-0.59,0.35-0.98
		c0-0.71-0.4-1.32-1.2-1.86c-0.7-0.49-1.52-0.86-2.44-1.11c-0.92-0.25-1.87-0.38-2.84-0.38c-1.36,0-2.57,0.23-3.64,0.69
		c-1.07,0.46-1.91,1.11-2.51,1.95c-0.61,0.84-0.91,1.78-0.91,2.82c0,1.36,0.47,2.44,1.4,3.22c0.93,0.79,2.47,1.42,4.61,1.88
		c1.24,0.27,2.17,0.52,2.81,0.75s1.08,0.49,1.33,0.78c0.26,0.29,0.38,0.68,0.38,1.17c0,0.75-0.33,1.34-0.98,1.75
		c-0.66,0.41-1.57,0.62-2.73,0.62c-1.04,0-1.91-0.12-2.61-0.36c-0.69-0.24-1.4-0.56-2.13-0.95c-0.68-0.39-1.18-0.58-1.49-0.58
		c-0.34,0-0.62,0.13-0.84,0.4c-0.22,0.27-0.33,0.59-0.33,0.98c0,0.37,0.09,0.69,0.27,0.98c0.18,0.29,0.49,0.57,0.93,0.84
		c1.58,1.02,3.61,1.53,6.08,1.53c2.21,0,3.98-0.48,5.3-1.44c1.32-0.96,1.99-2.23,1.99-3.81c0-1-0.2-1.82-0.6-2.46
		C629.43,1340.7,628.77,1340.16,627.84,1339.72z"/>
	<path class="st0" d="M647.66,1344.27c-0.22,0-0.46,0.06-0.73,0.18c-0.27,0.12-0.53,0.27-0.8,0.44c-0.58,0.36-1.15,0.66-1.71,0.87
		c-0.56,0.22-1.2,0.33-1.93,0.33c-1.65,0-2.93-0.54-3.83-1.62c-0.9-1.08-1.35-2.62-1.35-4.61c0-1.99,0.46-3.55,1.37-4.66
		c0.91-1.12,2.19-1.68,3.84-1.68c0.73,0,1.35,0.1,1.88,0.31c0.52,0.21,1.09,0.5,1.69,0.89c0.34,0.22,0.62,0.38,0.84,0.49
		c0.22,0.11,0.44,0.16,0.66,0.16c0.34,0,0.62-0.14,0.84-0.42c0.22-0.28,0.33-0.62,0.33-1.04c0-0.71-0.39-1.32-1.17-1.86
		c-0.73-0.46-1.56-0.83-2.5-1.09c-0.93-0.27-1.86-0.4-2.79-0.4c-1.72,0-3.25,0.39-4.59,1.17c-1.34,0.78-2.38,1.87-3.12,3.28
		c-0.74,1.41-1.11,3.04-1.11,4.88c0,1.82,0.36,3.42,1.08,4.81c0.72,1.38,1.72,2.45,3.02,3.21s2.81,1.13,4.54,1.13
		c1,0,1.98-0.13,2.95-0.4c0.97-0.27,1.82-0.64,2.55-1.13c0.44-0.29,0.75-0.58,0.93-0.86c0.18-0.28,0.27-0.59,0.27-0.93
		c0-0.41-0.11-0.76-0.33-1.04C648.28,1344.41,648,1344.27,647.66,1344.27z"/>
	<path class="st0" d="M661.73,1330.57c-1.31,0-2.48,0.27-3.5,0.8c-1.02,0.53-1.83,1.31-2.44,2.33v-9.11c0-0.51-0.16-0.92-0.49-1.22
		c-0.33-0.3-0.76-0.46-1.29-0.46c-0.56,0-1.01,0.16-1.37,0.47c-0.35,0.32-0.53,0.74-0.53,1.28v22.55c0,0.54,0.17,0.96,0.51,1.28
		c0.34,0.31,0.79,0.47,1.35,0.47c0.56,0,1-0.16,1.33-0.47c0.33-0.32,0.49-0.74,0.49-1.28v-8.56c0-1.55,0.45-2.79,1.35-3.72
		c0.9-0.92,2.09-1.39,3.57-1.39c1.26,0,2.19,0.34,2.79,1.02s0.89,1.75,0.89,3.21v9.44c0,0.54,0.16,0.96,0.49,1.28
		c0.33,0.31,0.77,0.47,1.33,0.47c0.56,0,1.01-0.16,1.35-0.47c0.34-0.32,0.51-0.74,0.51-1.28v-9.47
		C668.07,1332.97,665.95,1330.57,661.73,1330.57z"/>
	<path class="st0" d="M685.43,1331.7c-1.32-0.75-2.86-1.13-4.61-1.13c-1.75,0-3.29,0.38-4.61,1.13c-1.32,0.75-2.34,1.83-3.06,3.23
		c-0.72,1.4-1.08,3.03-1.08,4.9c0,1.85,0.36,3.47,1.08,4.86c0.72,1.4,1.74,2.47,3.06,3.23c1.32,0.75,2.86,1.13,4.61,1.13
		c1.75,0,3.28-0.38,4.61-1.13c1.32-0.75,2.34-1.83,3.06-3.23c0.72-1.4,1.07-3.02,1.07-4.86c0-1.87-0.36-3.5-1.07-4.9
		C687.77,1333.53,686.75,1332.46,685.43,1331.7z M684.55,1344.53c-0.86,1.07-2.11,1.6-3.73,1.6c-1.63,0-2.87-0.53-3.74-1.6
		c-0.86-1.07-1.29-2.64-1.29-4.7c0-2.04,0.44-3.6,1.31-4.68c0.87-1.08,2.11-1.62,3.72-1.62c1.6,0,2.84,0.54,3.72,1.62
		c0.87,1.08,1.31,2.64,1.31,4.68C685.85,1341.89,685.42,1343.46,684.55,1344.53z"/>
	<path class="st0" d="M705.98,1331.7c-1.32-0.75-2.86-1.13-4.61-1.13c-1.75,0-3.29,0.38-4.61,1.13c-1.32,0.75-2.34,1.83-3.06,3.23
		c-0.72,1.4-1.08,3.03-1.08,4.9c0,1.85,0.36,3.47,1.08,4.86c0.72,1.4,1.74,2.47,3.06,3.23c1.32,0.75,2.86,1.13,4.61,1.13
		c1.75,0,3.28-0.38,4.61-1.13c1.32-0.75,2.34-1.83,3.06-3.23c0.72-1.4,1.07-3.02,1.07-4.86c0-1.87-0.36-3.5-1.07-4.9
		C708.32,1333.53,707.3,1332.46,705.98,1331.7z M705.1,1344.53c-0.86,1.07-2.11,1.6-3.73,1.6c-1.63,0-2.87-0.53-3.74-1.6
		c-0.86-1.07-1.29-2.64-1.29-4.7c0-2.04,0.44-3.6,1.31-4.68c0.87-1.08,2.11-1.62,3.72-1.62s2.84,0.54,3.72,1.62
		c0.87,1.08,1.31,2.64,1.31,4.68C706.4,1341.89,705.96,1343.46,705.1,1344.53z"/>
	<path class="st0" d="M716.05,1322.92c-0.53,0-0.98,0.15-1.33,0.46c-0.35,0.3-0.53,0.75-0.53,1.33v22.52c0,0.58,0.18,1.02,0.53,1.31
		c0.35,0.29,0.79,0.44,1.33,0.44s0.97-0.15,1.31-0.44c0.34-0.29,0.51-0.73,0.51-1.31v-22.52c0-0.58-0.17-1.03-0.51-1.33
		C717.03,1323.07,716.59,1322.92,716.05,1322.92z"/>
	<path class="st0" d="M449.26,1304.04h17.47c1.26,0,2.21-0.28,2.83-0.82c0.6-0.53,0.89-1.2,0.89-2.07c0-0.85-0.3-1.53-0.91-2.09
		c-0.62-0.57-1.57-0.85-2.81-0.85h-14.76v-32.51c0-1.61-0.35-2.8-1.04-3.54c-0.69-0.74-1.57-1.1-2.7-1.1c-1.11,0-1.97,0.36-2.64,1.1
		c-0.68,0.75-1.02,1.94-1.02,3.54v33.64c0,1.7,0.36,2.92,1.06,3.63C446.32,1303.68,447.54,1304.04,449.26,1304.04z"/>
	<path class="st0" d="M449.26,1305.48h17.47c1.62,0,2.9-0.4,3.79-1.18c0.91-0.81,1.38-1.87,1.38-3.15c0-1.26-0.47-2.32-1.38-3.16
		c-0.9-0.82-2.17-1.23-3.78-1.23h-13.32v-31.07c0-1.99-0.48-3.51-1.43-4.53c-0.96-1.03-2.23-1.56-3.76-1.56
		c-1.52,0-2.77,0.53-3.71,1.58c-0.92,1.03-1.39,2.54-1.39,4.5v33.64c0,2.09,0.5,3.66,1.47,4.65
		C445.57,1304.98,447.14,1305.48,449.26,1305.48z M443.84,1265.7c0-1.79,0.4-3.13,1.21-4.02c0.8-0.89,1.86-1.34,3.17-1.34
		c1.33,0,2.41,0.44,3.23,1.33c0.82,0.88,1.24,2.23,1.24,4.04v31.79h14.04c1.43,0,2.53,0.35,3.29,1.04c0.76,0.7,1.15,1.57,1.15,2.62
		c0,1.07-0.38,1.94-1.13,2.61c-0.76,0.67-1.86,1-3.31,1h-17.47c-1.93,0-3.31-0.43-4.16-1.28c-0.84-0.85-1.27-2.23-1.27-4.14V1265.7z
		"/>
	<path class="st0" d="M449.26,1304.76h17.47c1.45,0,2.55-0.33,3.31-1c0.75-0.67,1.13-1.54,1.13-2.61c0-1.05-0.38-1.93-1.15-2.62
		c-0.76-0.69-1.86-1.04-3.29-1.04h-14.04v-31.79c0-1.81-0.41-3.15-1.24-4.04c-0.82-0.88-1.9-1.33-3.23-1.33
		c-1.31,0-2.37,0.45-3.17,1.34c-0.81,0.89-1.21,2.23-1.21,4.02v33.64c0,1.91,0.42,3.29,1.27,4.14
		C445.95,1304.33,447.33,1304.76,449.26,1304.76z M444.56,1265.7c0-1.6,0.34-2.79,1.02-3.54c0.67-0.74,1.53-1.1,2.64-1.1
		c1.13,0,2.02,0.36,2.7,1.1c0.69,0.74,1.04,1.93,1.04,3.54v32.51h14.76c1.24,0,2.18,0.29,2.81,0.85c0.61,0.56,0.91,1.24,0.91,2.09
		c0,0.86-0.29,1.54-0.89,2.07c-0.62,0.54-1.57,0.82-2.83,0.82h-17.47c-1.72,0-2.94-0.36-3.64-1.07c-0.7-0.71-1.06-1.93-1.06-3.63
		V1265.7z"/>
	<path class="st0" d="M493.12,1304.78c2.38,0,4.55-0.38,6.44-1.13c1.88-0.74,3.52-1.82,4.87-3.21c1.35-1.39,2.4-3.08,3.12-5.02
		c0.72-1.96,1.09-4.13,1.09-6.45c0-2.35-0.36-4.52-1.07-6.46c-0.7-1.92-1.75-3.6-3.1-4.99c-1.35-1.39-3-2.47-4.9-3.23
		c-1.91-0.76-4.08-1.14-6.44-1.14c-2.32,0-4.47,0.38-6.38,1.13c-1.9,0.74-3.54,1.81-4.87,3.18c-1.33,1.37-2.37,3.05-3.09,4.99
		c-0.72,1.96-1.09,4.15-1.09,6.51c0,2.34,0.36,4.51,1.07,6.44c0.71,1.91,1.76,3.59,3.12,4.99c1.37,1.4,3,2.49,4.86,3.24
		C488.62,1304.4,490.77,1304.78,493.12,1304.78z M484.42,1288.97c0-2.23,0.35-4.22,1.04-5.9c0.71-1.74,1.74-3.07,3.06-3.97
		c1.33-0.9,2.88-1.36,4.61-1.36c2.68,0,4.85,1.02,6.45,3.05c1.56,1.97,2.35,4.72,2.35,8.19c0,3.43-0.79,6.17-2.34,8.15
		c-1.6,2.03-3.77,3.06-6.45,3.06c-1.77,0-3.34-0.47-4.66-1.4c-1.31-0.92-2.33-2.26-3.02-3.97
		C484.76,1293.14,484.42,1291.18,484.42,1288.97z"/>
	<path class="st0" d="M493.12,1306.22c2.56,0,4.91-0.41,6.97-1.23c2.07-0.82,3.88-2.01,5.38-3.55c1.49-1.54,2.65-3.39,3.44-5.53
		c0.78-2.12,1.18-4.46,1.18-6.95c0-2.52-0.39-4.86-1.16-6.95c-0.77-2.11-1.93-3.96-3.42-5.5c-1.49-1.53-3.31-2.73-5.4-3.56
		c-2.08-0.82-4.43-1.24-6.97-1.24c-2.5,0-4.83,0.41-6.91,1.23c-2.09,0.82-3.9,2-5.38,3.52c-1.47,1.52-2.62,3.37-3.41,5.5
		c-0.78,2.12-1.18,4.48-1.18,7.01c0,2.51,0.39,4.85,1.16,6.94c0.78,2.1,1.93,3.95,3.44,5.5c1.51,1.55,3.31,2.75,5.36,3.58
		C488.25,1305.81,490.58,1306.22,493.12,1306.22z M478.09,1295.66c-0.74-2.02-1.12-4.25-1.12-6.69c0-2.46,0.38-4.72,1.13-6.76
		c0.75-2.05,1.84-3.79,3.25-5.24c1.41-1.45,3.12-2.57,5.12-3.35c2.01-0.79,4.22-1.18,6.64-1.18c2.46,0,4.7,0.4,6.7,1.19
		c2.01,0.8,3.72,1.93,5.15,3.4c1.43,1.47,2.52,3.22,3.26,5.24c0.75,2.03,1.12,4.26,1.12,6.7c0,2.42-0.38,4.66-1.13,6.7
		c-0.76,2.05-1.85,3.8-3.28,5.27c-1.43,1.47-3.14,2.6-5.12,3.38c-1.99,0.78-4.22,1.18-6.7,1.18c-2.46,0-4.68-0.4-6.64-1.19
		c-1.97-0.79-3.67-1.93-5.11-3.41C479.93,1299.42,478.84,1297.67,478.09,1295.66z"/>
	<path class="st0" d="M488.88,1298.19c1.2,0.84,2.62,1.27,4.25,1.27c2.46,0,4.42-0.93,5.88-2.79c1.46-1.86,2.19-4.42,2.19-7.7
		c0-3.32-0.73-5.9-2.19-7.75c-1.46-1.85-3.42-2.77-5.88-2.77c-1.59,0-2.99,0.41-4.2,1.24c-1.21,0.82-2.15,2.04-2.8,3.65
		c-0.66,1.61-0.98,3.49-0.98,5.63c0,2.13,0.32,3.98,0.97,5.57C486.75,1296.13,487.68,1297.34,488.88,1298.19z M485.86,1288.97
		c0-2.04,0.31-3.85,0.93-5.36c0.6-1.47,1.45-2.59,2.54-3.32c1.08-0.74,2.36-1.11,3.79-1.11c2.25,0,3.99,0.82,5.32,2.5
		c1.35,1.71,2.03,4.16,2.03,7.3c0,3.1-0.69,5.54-2.04,7.26c-1.33,1.69-3.07,2.51-5.32,2.51c-1.49,0-2.74-0.37-3.83-1.13
		c-1.08-0.76-1.93-1.88-2.52-3.33C486.17,1292.77,485.86,1290.99,485.86,1288.97z"/>
	<path class="st0" d="M493.12,1305.5c2.48,0,4.72-0.39,6.7-1.18c1.99-0.78,3.69-1.91,5.12-3.38c1.43-1.47,2.52-3.23,3.28-5.27
		c0.75-2.05,1.13-4.28,1.13-6.7c0-2.44-0.37-4.68-1.12-6.7c-0.74-2.03-1.83-3.77-3.26-5.24c-1.43-1.47-3.15-2.6-5.15-3.4
		c-2.01-0.79-4.24-1.19-6.7-1.19c-2.42,0-4.64,0.39-6.64,1.18c-2.01,0.78-3.71,1.9-5.12,3.35c-1.41,1.45-2.49,3.2-3.25,5.24
		c-0.76,2.05-1.13,4.3-1.13,6.76c0,2.44,0.37,4.67,1.12,6.69c0.75,2.01,1.84,3.76,3.28,5.24c1.44,1.48,3.14,2.62,5.11,3.41
		C488.45,1305.1,490.66,1305.5,493.12,1305.5z M478.77,1295.41c-0.71-1.93-1.07-4.1-1.07-6.44c0-2.37,0.37-4.56,1.09-6.51
		c0.72-1.94,1.76-3.62,3.09-4.99c1.33-1.37,2.97-2.44,4.87-3.18c1.91-0.75,4.06-1.13,6.38-1.13c2.36,0,4.52,0.38,6.44,1.14
		c1.9,0.75,3.55,1.84,4.9,3.23c1.35,1.39,2.4,3.07,3.1,4.99c0.71,1.94,1.07,4.11,1.07,6.46c0,2.32-0.37,4.5-1.09,6.45
		c-0.72,1.94-1.77,3.63-3.12,5.02c-1.35,1.39-2.99,2.47-4.87,3.21c-1.89,0.75-4.06,1.13-6.44,1.13c-2.36,0-4.5-0.38-6.37-1.14
		c-1.86-0.75-3.5-1.84-4.86-3.24C480.53,1299,479.48,1297.32,478.77,1295.41z"/>
	<path class="st0" d="M488.46,1298.78c1.32,0.93,2.89,1.4,4.66,1.4c2.68,0,4.86-1.03,6.45-3.06c1.56-1.98,2.34-4.72,2.34-8.15
		c0-3.47-0.79-6.23-2.35-8.19c-1.6-2.02-3.77-3.05-6.45-3.05c-1.73,0-3.28,0.46-4.61,1.36c-1.33,0.9-2.36,2.24-3.06,3.97
		c-0.69,1.69-1.04,3.67-1.04,5.9c0,2.21,0.34,4.18,1.02,5.84C486.13,1296.52,487.15,1297.86,488.46,1298.78z M485.14,1288.97
		c0-2.15,0.33-4.02,0.98-5.63c0.66-1.61,1.59-2.83,2.8-3.65c1.21-0.82,2.61-1.24,4.2-1.24c2.46,0,4.42,0.92,5.88,2.77
		c1.46,1.85,2.19,4.43,2.19,7.75c0,3.28-0.73,5.84-2.19,7.7c-1.46,1.86-3.42,2.79-5.88,2.79c-1.63,0-3.04-0.42-4.25-1.27
		c-1.2-0.84-2.12-2.06-2.77-3.65C485.46,1292.95,485.14,1291.09,485.14,1288.97z"/>
	<path class="st0" d="M542.63,1300.4c1.35-1.39,2.4-3.08,3.12-5.02c0.72-1.95,1.09-4.13,1.09-6.45c0-2.35-0.36-4.52-1.07-6.45
		c-0.7-1.92-1.75-3.6-3.1-4.99c-1.35-1.39-3-2.47-4.9-3.23c-1.91-0.76-4.08-1.14-6.44-1.14c-2.32,0-4.47,0.38-6.38,1.13
		c-1.9,0.74-3.54,1.81-4.87,3.18c-1.33,1.37-2.37,3.05-3.09,4.99c-0.72,1.95-1.09,4.15-1.09,6.51c0,2.35,0.36,4.51,1.07,6.44
		c0.71,1.91,1.76,3.59,3.12,4.99c1.36,1.4,3,2.49,4.86,3.25c1.87,0.75,4.02,1.14,6.37,1.14c2.38,0,4.55-0.38,6.44-1.13
		C539.64,1302.87,541.28,1301.79,542.63,1300.4z M531.32,1300.14c-1.77,0-3.34-0.47-4.66-1.4c-1.31-0.92-2.33-2.26-3.02-3.97
		c-0.68-1.67-1.02-3.63-1.02-5.84c0-2.23,0.35-4.21,1.04-5.9c0.71-1.74,1.74-3.07,3.06-3.97c1.33-0.9,2.88-1.36,4.61-1.36
		c2.68,0,4.85,1.02,6.45,3.05c1.56,1.97,2.35,4.72,2.35,8.19c0,3.43-0.79,6.17-2.34,8.15C536.17,1299.11,534,1300.14,531.32,1300.14
		z"/>
	<path class="st0" d="M537.2,1281.18c-1.46-1.85-3.42-2.77-5.88-2.77c-1.59,0-2.99,0.41-4.2,1.24c-1.21,0.82-2.15,2.04-2.8,3.65
		c-0.66,1.61-0.98,3.49-0.98,5.63c0,2.13,0.32,3.98,0.97,5.57c0.64,1.59,1.57,2.81,2.77,3.65c1.2,0.84,2.62,1.27,4.25,1.27
		c2.46,0,4.42-0.93,5.88-2.79c1.46-1.86,2.19-4.42,2.19-7.7C539.39,1285.61,538.66,1283.03,537.2,1281.18z M536.63,1296.18
		c-1.33,1.69-3.07,2.51-5.32,2.51c-1.47,0-2.76-0.38-3.83-1.14c-1.08-0.76-1.93-1.88-2.52-3.33c-0.61-1.49-0.92-3.28-0.92-5.3
		c0-2.04,0.31-3.84,0.93-5.36c0.6-1.47,1.45-2.59,2.54-3.32c1.08-0.74,2.36-1.11,3.79-1.11c2.25,0,3.99,0.82,5.32,2.5
		c1.35,1.71,2.03,4.16,2.03,7.3C538.67,1292.02,537.98,1294.47,536.63,1296.18z"/>
	<path class="st0" d="M538.29,1304.96c2.07-0.82,3.88-2.01,5.38-3.55c1.49-1.54,2.65-3.4,3.44-5.53c0.78-2.12,1.18-4.46,1.18-6.95
		c0-2.52-0.39-4.86-1.16-6.95c-0.77-2.11-1.93-3.96-3.42-5.5c-1.49-1.53-3.31-2.73-5.41-3.56c-2.09-0.82-4.43-1.24-6.97-1.24
		c-2.5,0-4.83,0.41-6.91,1.23c-2.09,0.82-3.9,2-5.38,3.52c-1.47,1.52-2.62,3.37-3.41,5.5c-0.78,2.12-1.18,4.47-1.18,7.01
		c0,2.52,0.39,4.85,1.16,6.94c0.78,2.1,1.94,3.95,3.44,5.5c1.5,1.54,3.31,2.75,5.36,3.58c2.04,0.83,4.37,1.24,6.91,1.24
		C533.88,1306.18,536.22,1305.77,538.29,1304.96z M519.56,1300.86c-1.44-1.48-2.53-3.23-3.28-5.24c-0.74-2.02-1.12-4.25-1.12-6.69
		c0-2.46,0.38-4.72,1.13-6.76c0.75-2.05,1.84-3.79,3.25-5.24c1.41-1.45,3.12-2.57,5.12-3.35c2.01-0.79,4.22-1.18,6.64-1.18
		c2.46,0,4.7,0.4,6.7,1.19c2.01,0.8,3.72,1.93,5.15,3.4c1.43,1.47,2.52,3.22,3.26,5.24c0.75,2.03,1.12,4.26,1.12,6.7
		c0,2.42-0.38,4.66-1.13,6.7c-0.76,2.05-1.85,3.8-3.28,5.27s-3.14,2.6-5.12,3.38c-1.99,0.78-4.22,1.18-6.7,1.18
		c-2.46,0-4.68-0.4-6.64-1.19C522.71,1303.48,521,1302.34,519.56,1300.86z"/>
	<path class="st0" d="M540.11,1288.93c0-3.47-0.79-6.23-2.35-8.19c-1.6-2.02-3.77-3.05-6.45-3.05c-1.73,0-3.28,0.46-4.61,1.36
		c-1.33,0.9-2.36,2.24-3.06,3.97c-0.69,1.69-1.04,3.67-1.04,5.9c0,2.21,0.34,4.17,1.02,5.84c0.7,1.71,1.71,3.05,3.02,3.97
		c1.32,0.93,2.89,1.4,4.66,1.4c2.68,0,4.86-1.03,6.45-3.06C539.32,1295.1,540.11,1292.36,540.11,1288.93z M531.32,1299.42
		c-1.63,0-3.04-0.42-4.25-1.27c-1.2-0.84-2.12-2.06-2.77-3.65c-0.65-1.59-0.97-3.44-0.97-5.57c0-2.15,0.33-4.02,0.98-5.63
		c0.66-1.61,1.59-2.83,2.8-3.65c1.21-0.82,2.61-1.24,4.2-1.24c2.46,0,4.42,0.92,5.88,2.77c1.46,1.85,2.19,4.43,2.19,7.75
		c0,3.28-0.73,5.84-2.19,7.7C535.74,1298.49,533.78,1299.42,531.32,1299.42z"/>
	<path class="st0" d="M538.02,1304.29c1.99-0.78,3.69-1.91,5.12-3.38s2.52-3.23,3.28-5.27c0.75-2.05,1.13-4.28,1.13-6.7
		c0-2.44-0.37-4.68-1.12-6.7c-0.74-2.03-1.83-3.77-3.26-5.24c-1.43-1.47-3.15-2.6-5.15-3.4c-2.01-0.79-4.24-1.19-6.7-1.19
		c-2.42,0-4.64,0.39-6.64,1.18c-2.01,0.78-3.71,1.9-5.12,3.35c-1.41,1.45-2.49,3.2-3.25,5.24c-0.76,2.05-1.13,4.3-1.13,6.76
		c0,2.44,0.37,4.67,1.12,6.69c0.75,2.01,1.84,3.76,3.28,5.24c1.44,1.48,3.14,2.62,5.11,3.41c1.97,0.79,4.18,1.19,6.64,1.19
		C533.8,1305.46,536.03,1305.07,538.02,1304.29z M524.94,1303.6c-1.86-0.75-3.5-1.84-4.86-3.25c-1.36-1.4-2.41-3.08-3.12-4.99
		c-0.71-1.93-1.07-4.09-1.07-6.44c0-2.37,0.37-4.56,1.09-6.51c0.72-1.94,1.75-3.62,3.09-4.99c1.33-1.37,2.97-2.44,4.87-3.18
		c1.91-0.75,4.06-1.13,6.38-1.13c2.36,0,4.52,0.38,6.44,1.14c1.9,0.75,3.55,1.84,4.9,3.23c1.35,1.39,2.4,3.07,3.1,4.99
		c0.71,1.93,1.07,4.1,1.07,6.45c0,2.33-0.37,4.5-1.09,6.45c-0.72,1.94-1.76,3.63-3.12,5.02c-1.35,1.39-2.99,2.47-4.87,3.21
		c-1.89,0.75-4.06,1.13-6.44,1.13C528.96,1304.74,526.82,1304.36,524.94,1303.6z"/>
	<path class="st0" d="M583.2,1295.58c0.67-2.01,1.01-4.25,1.01-6.67c0-3.27-0.59-6.13-1.75-8.5c-1.15-2.35-2.72-4.15-4.69-5.36
		c-1.97-1.21-4.15-1.83-6.48-1.83c-1.94,0-3.69,0.42-5.22,1.24c-1.54,0.83-3.06,2.17-4.51,3.97l-1.28,1.6v-3.03
		c0-1.28-0.3-2.25-0.89-2.89c-0.58-0.64-1.32-0.94-2.26-0.94c-0.96,0-1.68,0.3-2.21,0.9c-0.55,0.62-0.83,1.63-0.83,3v35.1
		c0,1.64,0.22,2.89,0.65,3.7c0.13,0.25,0.54,1,2.38,1c1.35,0,3.15-0.48,3.15-4.64v-14.3l1.29,1.64c1.36,1.73,2.8,3.05,4.28,3.94
		c1.45,0.86,3.28,1.3,5.44,1.3c1.8,0,3.5-0.36,5.07-1.08c1.56-0.72,2.94-1.76,4.09-3.09C581.6,1299.27,582.53,1297.57,583.2,1295.58
		z M576.45,1294.8c-0.74,1.68-1.75,2.97-3,3.84c-1.26,0.86-2.65,1.3-4.14,1.3c-2.46,0-4.55-0.99-6.2-2.95
		c-1.62-1.92-2.45-4.62-2.45-8.02c0-3.6,0.83-6.38,2.47-8.28c1.67-1.93,3.75-2.9,6.18-2.9c1.55,0,2.98,0.46,4.25,1.37
		c1.26,0.9,2.25,2.19,2.95,3.85c0.69,1.62,1.03,3.58,1.03,5.81C577.55,1291.13,577.18,1293.15,576.45,1294.8z"/>
	<path class="st0" d="M573.14,1279.75c-1.15-0.82-2.43-1.24-3.83-1.24c-2.23,0-4.11,0.88-5.64,2.65c-1.53,1.77-2.29,4.37-2.29,7.81
		c0,3.24,0.76,5.75,2.28,7.55c1.52,1.8,3.4,2.7,5.65,2.7c1.34,0,2.58-0.39,3.73-1.18c1.14-0.79,2.06-1.96,2.75-3.53
		c0.69-1.57,1.04-3.47,1.04-5.69c0-2.15-0.33-3.99-0.98-5.53S574.3,1280.57,573.14,1279.75z M575.13,1294.22
		c-0.63,1.43-1.47,2.52-2.5,3.23c-1.03,0.71-2.12,1.05-3.32,1.05c-2.04,0-3.71-0.8-5.1-2.44c-1.4-1.65-2.11-4.04-2.11-7.09
		c0-3.24,0.71-5.71,2.12-7.33c1.4-1.62,3.06-2.4,5.09-2.4c1.24,0,2.39,0.37,3.41,1.1c1.04,0.74,1.87,1.83,2.46,3.24
		c0.61,1.44,0.92,3.21,0.92,5.24C576.1,1290.93,575.77,1292.75,575.13,1294.22z"/>
	<path class="st0" d="M581.54,1301.55c1.28-1.48,2.29-3.34,3.02-5.52c0.72-2.16,1.09-4.56,1.09-7.12c0-3.49-0.64-6.57-1.89-9.14
		c-1.27-2.59-3.03-4.6-5.22-5.96c-2.2-1.36-4.64-2.05-7.24-2.05c-2.18,0-4.17,0.48-5.9,1.41c-1.27,0.69-2.51,1.67-3.71,2.92
		c-0.13-1.23-0.54-2.23-1.22-2.98c-0.86-0.94-1.98-1.41-3.33-1.41c-1.38,0-2.48,0.47-3.29,1.39c-0.79,0.9-1.19,2.22-1.19,3.95v35.1
		c0,1.91,0.27,3.34,0.82,4.38c0.63,1.17,1.86,1.77,3.66,1.77c2.1,0,4.6-1.06,4.6-6.08v-10.27c1.09,1.16,2.22,2.09,3.39,2.78
		c1.67,1,3.75,1.5,6.18,1.5c2.01,0,3.91-0.41,5.67-1.21C578.71,1304.21,580.25,1303.04,581.54,1301.55z M571.29,1305.5
		c-2.31,0-4.25-0.47-5.81-1.4c-1.57-0.93-3.06-2.3-4.48-4.11v12.22c0,3.58-1.29,5.36-3.88,5.36c-1.52,0-2.53-0.46-3.02-1.39
		c-0.49-0.92-0.74-2.27-0.74-4.04v-35.1c0-1.55,0.34-2.71,1.01-3.47c0.67-0.77,1.59-1.15,2.75-1.15c1.14,0,2.08,0.39,2.8,1.18
		c0.72,0.78,1.08,1.91,1.08,3.38v0.98c1.52-1.89,3.1-3.27,4.73-4.16c1.64-0.88,3.49-1.33,5.56-1.33c2.49,0,4.77,0.65,6.86,1.94
		c2.09,1.29,3.74,3.18,4.96,5.66c1.21,2.48,1.82,5.42,1.82,8.82c0,2.5-0.35,4.8-1.05,6.9c-0.7,2.09-1.66,3.85-2.88,5.27
		c-1.22,1.42-2.67,2.51-4.33,3.28C574.99,1305.12,573.2,1305.5,571.29,1305.5z"/>
	<path class="st0" d="M581,1301.08c1.22-1.42,2.18-3.18,2.88-5.27c0.7-2.09,1.05-4.39,1.05-6.9c0-3.4-0.61-6.34-1.82-8.82
		c-1.21-2.48-2.87-4.37-4.96-5.66c-2.09-1.29-4.38-1.94-6.86-1.94c-2.07,0-3.93,0.44-5.56,1.33c-1.64,0.88-3.22,2.27-4.73,4.16
		v-0.98c0-1.47-0.36-2.6-1.08-3.38c-0.72-0.79-1.65-1.18-2.8-1.18c-1.16,0-2.08,0.38-2.75,1.15c-0.67,0.76-1.01,1.92-1.01,3.47v35.1
		c0,1.77,0.25,3.11,0.74,4.04c0.49,0.92,1.5,1.39,3.02,1.39c2.58,0,3.88-1.79,3.88-5.36v-12.22c1.42,1.81,2.91,3.18,4.48,4.11
		c1.57,0.93,3.51,1.4,5.81,1.4c1.91,0,3.7-0.38,5.37-1.15C578.33,1303.59,579.77,1302.5,581,1301.08z M576.36,1303.7
		c-1.57,0.72-3.27,1.08-5.07,1.08c-2.16,0-4-0.44-5.44-1.3c-1.48-0.88-2.93-2.21-4.28-3.94l-1.29-1.64v14.3
		c0,4.16-1.8,4.64-3.15,4.64c-1.85,0-2.25-0.75-2.38-1c-0.43-0.81-0.65-2.05-0.65-3.7v-35.1c0-1.36,0.28-2.37,0.83-3
		c0.53-0.61,1.25-0.9,2.21-0.9c0.94,0,1.68,0.31,2.26,0.94c0.59,0.64,0.89,1.62,0.89,2.89v3.03l1.28-1.6
		c1.45-1.8,2.97-3.14,4.51-3.97c1.52-0.82,3.28-1.24,5.22-1.24c2.34,0,4.52,0.62,6.48,1.83c1.96,1.21,3.54,3.02,4.69,5.36
		c1.16,2.37,1.75,5.23,1.75,8.5c0,2.41-0.34,4.66-1.01,6.67c-0.67,2-1.59,3.69-2.75,5.03
		C579.3,1301.94,577.92,1302.98,576.36,1303.7z"/>
	<path class="st0" d="M573.56,1279.16c-1.27-0.91-2.7-1.37-4.25-1.37c-2.44,0-4.52,0.98-6.18,2.9c-1.64,1.9-2.47,4.68-2.47,8.28
		c0,3.4,0.82,6.1,2.45,8.02c1.66,1.96,3.74,2.95,6.2,2.95c1.48,0,2.87-0.44,4.14-1.3c1.25-0.86,2.26-2.15,3-3.84
		c0.73-1.65,1.1-3.67,1.1-5.98c0-2.23-0.35-4.18-1.03-5.81C575.81,1281.35,574.82,1280.06,573.56,1279.16z M575.79,1294.51
		c-0.69,1.57-1.61,2.74-2.75,3.53c-1.14,0.78-2.39,1.18-3.73,1.18c-2.25,0-4.13-0.9-5.65-2.7c-1.52-1.8-2.28-4.32-2.28-7.55
		c0-3.44,0.76-6.04,2.29-7.81c1.53-1.77,3.41-2.65,5.64-2.65c1.4,0,2.68,0.41,3.83,1.24c1.15,0.82,2.06,2,2.71,3.54
		s0.98,3.38,0.98,5.53C576.82,1291.04,576.48,1292.94,575.79,1294.51z"/>
	<path class="st0" d="M621.81,1288.64c0-3.22-0.54-6.03-1.62-8.35c-1.06-2.29-2.56-4.06-4.47-5.26c-1.91-1.2-4.17-1.81-6.72-1.81
		c-2.21,0-4.08,0.4-5.56,1.18c-1.51,0.8-3.03,1.98-4.49,3.51l-1.24,1.29v-14.22c0-1.31-0.28-2.31-0.85-2.98
		c-0.54-0.64-1.3-0.95-2.34-0.95c-0.97,0-1.69,0.32-2.22,0.99c-0.56,0.71-0.84,1.82-0.84,3.29v35.51c0,1.34,0.29,2.35,0.85,3
		c0.55,0.62,1.27,0.93,2.21,0.93c0.93,0,1.68-0.31,2.27-0.95c0.6-0.64,0.91-1.65,0.91-2.98v-2.74l1.27,1.46
		c0.87,1.01,1.58,1.77,2.11,2.27c0.5,0.48,1.13,0.95,1.87,1.42c0.71,0.45,1.59,0.81,2.62,1.09c1.03,0.28,2.16,0.42,3.34,0.42
		c1.93,0,3.71-0.39,5.3-1.16c1.59-0.77,2.97-1.88,4.08-3.3c1.13-1.43,2-3.15,2.6-5.11C621.5,1293.23,621.81,1291.02,621.81,1288.64z
		 M612.7,1297.01c-1.62,1.94-3.58,2.93-5.84,2.93c-2.61,0-4.76-0.96-6.37-2.86c-1.59-1.87-2.39-4.53-2.39-7.93
		c0-2.3,0.37-4.31,1.1-5.99c0.75-1.72,1.79-3.05,3.11-3.97c2.64-1.84,6.41-1.88,8.95,0.01c1.24,0.92,2.2,2.23,2.86,3.9
		c0.65,1.63,0.97,3.58,0.97,5.81C615.09,1292.38,614.28,1295.11,612.7,1297.01z"/>
	<path class="st0" d="M619.43,1301.21c1.24-1.57,2.2-3.45,2.85-5.59c0.64-2.12,0.97-4.47,0.97-6.99c0-3.43-0.59-6.44-1.75-8.96
		c-1.18-2.55-2.86-4.53-5.01-5.88c-2.15-1.35-4.67-2.03-7.49-2.03c-2.45,0-4.55,0.45-6.24,1.35c-1.22,0.65-2.43,1.51-3.62,2.58
		v-10.72c0-1.65-0.4-2.97-1.18-3.91c-0.82-0.97-1.98-1.46-3.44-1.46c-1.42,0-2.55,0.52-3.35,1.54c-0.77,0.97-1.15,2.38-1.15,4.19
		v35.51c0,1.7,0.41,3.03,1.21,3.95c0.83,0.94,1.94,1.42,3.3,1.42c1.33,0,2.45-0.47,3.33-1.41c0.68-0.73,1.1-1.71,1.24-2.94
		c0.38,0.41,0.71,0.75,1,1.02c0.57,0.54,1.28,1.08,2.09,1.59c0.83,0.52,1.85,0.95,3.01,1.26c1.16,0.31,2.41,0.47,3.72,0.47
		c2.15,0,4.14-0.44,5.93-1.31C616.63,1304.05,618.18,1302.8,619.43,1301.21z M614.53,1304.27c-1.7,0.82-3.57,1.24-5.62,1.24
		c-1.25,0-2.43-0.15-3.53-0.45c-1.1-0.3-2.04-0.69-2.82-1.18c-0.77-0.49-1.43-0.99-1.98-1.51c-0.55-0.52-1.27-1.29-2.16-2.32v0.8
		c0,1.53-0.37,2.69-1.1,3.47c-0.74,0.78-1.67,1.18-2.8,1.18c-1.15,0-2.07-0.39-2.76-1.18c-0.68-0.78-1.03-1.94-1.03-3.47v-35.51
		c0-1.65,0.33-2.89,1-3.74c0.67-0.84,1.59-1.27,2.79-1.27c1.25,0,2.21,0.4,2.89,1.21c0.67,0.81,1.01,1.95,1.01,3.44v12.42
		c1.53-1.59,3.09-2.81,4.68-3.65c1.59-0.84,3.55-1.27,5.9-1.27c2.7,0,5.07,0.64,7.11,1.92c2.04,1.28,3.61,3.14,4.74,5.57
		c1.12,2.43,1.68,5.32,1.68,8.65c0,2.46-0.31,4.72-0.94,6.78c-0.63,2.05-1.53,3.84-2.73,5.35
		C617.67,1302.27,616.23,1303.44,614.53,1304.27z"/>
	<path class="st0" d="M610.82,1279.78c-1.13-0.84-2.45-1.27-3.96-1.27c-1.55,0-2.93,0.42-4.14,1.27c-1.21,0.84-2.17,2.07-2.86,3.67
		c-0.7,1.6-1.04,3.5-1.04,5.7c0,3.24,0.74,5.72,2.22,7.46c1.48,1.74,3.42,2.61,5.82,2.61c2.05,0,3.81-0.89,5.29-2.67
		c1.48-1.78,2.22-4.32,2.22-7.64c0-2.15-0.31-3.99-0.92-5.54C612.83,1281.82,611.95,1280.62,610.82,1279.78z M611.59,1296.09
		c-1.35,1.62-2.9,2.41-4.73,2.41c-2.2,0-3.93-0.77-5.27-2.35c-1.36-1.6-2.05-3.95-2.05-7c0-2.1,0.33-3.92,0.98-5.42
		c0.64-1.47,1.52-2.6,2.61-3.36c1.08-0.75,2.34-1.14,3.73-1.14c1.36,0,2.52,0.37,3.53,1.12c1.02,0.76,1.82,1.86,2.38,3.28
		c0.58,1.46,0.87,3.23,0.87,5.27C613.64,1292.04,612.95,1294.45,611.59,1296.09z"/>
	<path class="st0" d="M621.59,1295.42c0.62-2.06,0.94-4.31,0.94-6.78c0-3.34-0.56-6.22-1.68-8.65c-1.12-2.43-2.7-4.29-4.74-5.57
		c-2.04-1.28-4.41-1.92-7.11-1.92c-2.34,0-4.31,0.42-5.9,1.27c-1.59,0.84-3.15,2.06-4.68,3.65v-12.42c0-1.49-0.34-2.64-1.01-3.44
		c-0.68-0.8-1.64-1.21-2.89-1.21c-1.19,0-2.12,0.42-2.79,1.27c-0.67,0.84-1,2.09-1,3.74v35.51c0,1.53,0.34,2.69,1.03,3.47
		c0.69,0.78,1.6,1.18,2.76,1.18c1.13,0,2.07-0.39,2.8-1.18c0.73-0.78,1.1-1.94,1.1-3.47v-0.8c0.89,1.03,1.61,1.81,2.16,2.32
		c0.55,0.52,1.21,1.02,1.98,1.51c0.77,0.49,1.71,0.88,2.82,1.18c1.1,0.3,2.28,0.45,3.53,0.45c2.05,0,3.92-0.41,5.62-1.24
		c1.7-0.82,3.14-1.99,4.34-3.5C620.06,1299.26,620.96,1297.47,621.59,1295.42z M614.21,1303.62c-1.59,0.77-3.37,1.16-5.3,1.16
		c-1.18,0-2.31-0.14-3.34-0.42c-1.03-0.28-1.91-0.64-2.62-1.09c-0.74-0.46-1.37-0.94-1.87-1.42c-0.53-0.5-1.24-1.26-2.11-2.27
		l-1.27-1.46v2.74c0,1.33-0.31,2.33-0.91,2.98c-0.6,0.64-1.34,0.95-2.27,0.95c-0.94,0-1.67-0.3-2.21-0.93
		c-0.56-0.65-0.85-1.65-0.85-3v-35.51c0-1.48,0.28-2.58,0.84-3.29c0.53-0.67,1.25-0.99,2.22-0.99c1.04,0,1.8,0.31,2.34,0.95
		c0.56,0.67,0.85,1.67,0.85,2.98v14.22l1.24-1.29c1.47-1.53,2.98-2.71,4.49-3.51c1.48-0.79,3.35-1.18,5.56-1.18
		c2.55,0,4.81,0.61,6.72,1.81c1.91,1.2,3.41,2.97,4.47,5.26c1.07,2.32,1.62,5.13,1.62,8.35c0,2.38-0.31,4.59-0.91,6.57
		c-0.6,1.96-1.47,3.68-2.6,5.11C617.18,1301.73,615.81,1302.84,614.21,1303.62z"/>
	<path class="st0" d="M611.25,1279.2c-2.53-1.89-6.31-1.85-8.95-0.01c-1.32,0.92-2.36,2.25-3.11,3.97c-0.73,1.68-1.1,3.7-1.1,5.99
		c0,3.4,0.8,6.07,2.39,7.93c1.62,1.9,3.76,2.86,6.37,2.86c2.26,0,4.23-0.98,5.84-2.93c1.58-1.9,2.39-4.63,2.39-8.1
		c0-2.23-0.33-4.18-0.97-5.81C613.45,1281.43,612.49,1280.12,611.25,1279.2z M612.15,1296.55c-1.48,1.78-3.24,2.67-5.29,2.67
		c-2.4,0-4.34-0.87-5.82-2.61c-1.48-1.74-2.22-4.23-2.22-7.46c0-2.2,0.35-4.11,1.04-5.7c0.69-1.6,1.65-2.82,2.86-3.67
		c1.21-0.84,2.59-1.27,4.14-1.27c1.51,0,2.83,0.42,3.96,1.27s2.01,2.04,2.62,3.59c0.62,1.55,0.92,3.4,0.92,5.54
		C614.37,1292.23,613.63,1294.77,612.15,1296.55z"/>
	<path class="st0" d="M647.93,1274.35c-2.94-1.56-6.46-1.59-8.27-0.08c-0.96,0.8-1.91,2.01-2.83,3.59l-1.26,2.15l-0.09-2.49
		c-0.06-1.52-0.34-2.66-0.85-3.4c-0.46-0.66-1.22-0.97-2.33-0.97c-1.39,0-3.24,0.49-3.24,4.76v22.64c0,1.44,0.32,2.52,0.95,3.21
		c0.62,0.68,1.39,1.01,2.35,1.01c0.99,0,1.79-0.33,2.42-1.01c0.64-0.68,0.97-1.76,0.97-3.22v-6.79c0-2.46,0.08-4.57,0.24-6.28
		c0.16-1.74,0.46-3.28,0.9-4.56c0.46-1.35,1.12-2.4,1.98-3.11c1.51-1.24,3.7-1.46,6.63-0.52c1.52,0.49,1.88,0.52,1.94,0.52
		c0.61,0,1.17-0.25,1.73-0.77c0.54-0.51,0.8-1.14,0.8-1.93C649.96,1275.98,649.3,1275.08,647.93,1274.35z"/>
	<path class="st0" d="M648.61,1273.08c-1.71-0.91-3.5-1.37-5.31-1.37c-1.87,0-3.41,0.49-4.56,1.45c-0.7,0.58-1.38,1.34-2.05,2.26
		c-0.19-0.85-0.48-1.55-0.87-2.12c-0.74-1.06-1.92-1.59-3.51-1.59c-2.14,0-4.68,1.08-4.68,6.2v22.64c0,1.81,0.44,3.21,1.32,4.18
		c0.89,0.99,2.05,1.49,3.43,1.49c1.39,0,2.56-0.49,3.48-1.46c0.9-0.96,1.36-2.37,1.36-4.2v-6.79c0-2.42,0.08-4.48,0.24-6.14
		c0.15-1.63,0.43-3.06,0.83-4.23c0.37-1.1,0.89-1.92,1.53-2.46c1.11-0.92,2.84-1.04,5.26-0.26c1.61,0.52,2.12,0.58,2.38,0.58
		c0.98,0,1.89-0.39,2.71-1.16c0.83-0.79,1.25-1.79,1.25-2.98C651.41,1275.42,650.46,1274.06,648.61,1273.08z M649.66,1279.57
		c-0.69,0.64-1.43,0.97-2.22,0.97c-0.3,0-1.02-0.18-2.16-0.55c-1.14-0.37-2.15-0.55-3.02-0.55c-1.19,0-2.17,0.31-2.92,0.94
		c-0.76,0.63-1.34,1.55-1.76,2.79c-0.42,1.23-0.71,2.7-0.86,4.4c-0.16,1.7-0.24,3.77-0.24,6.21v6.79c0,1.65-0.39,2.89-1.16,3.71
		c-0.77,0.82-1.76,1.24-2.95,1.24c-1.17,0-2.14-0.42-2.89-1.25c-0.76-0.83-1.13-2.06-1.13-3.69v-22.64c0-3.65,1.32-5.48,3.96-5.48
		c1.35,0,2.32,0.43,2.92,1.28c0.6,0.85,0.92,2.11,0.98,3.78c0.97-1.67,1.97-2.93,2.99-3.78c1.02-0.85,2.39-1.28,4.1-1.28
		c1.71,0,3.37,0.43,4.98,1.28c1.61,0.85,2.41,1.99,2.41,3.4C650.68,1278.1,650.34,1278.92,649.66,1279.57z"/>
	<path class="st0" d="M648.27,1273.71c-1.61-0.85-3.27-1.28-4.98-1.28c-1.71,0-3.07,0.43-4.1,1.28c-1.02,0.85-2.02,2.11-2.99,3.78
		c-0.06-1.67-0.39-2.93-0.98-3.78c-0.6-0.85-1.57-1.28-2.92-1.28c-2.64,0-3.96,1.83-3.96,5.48v22.64c0,1.63,0.38,2.86,1.13,3.69
		c0.75,0.83,1.72,1.25,2.89,1.25c1.19,0,2.17-0.41,2.95-1.24c0.77-0.82,1.16-2.06,1.16-3.71v-6.79c0-2.44,0.08-4.51,0.24-6.21
		c0.16-1.7,0.45-3.16,0.86-4.4c0.42-1.23,1-2.16,1.76-2.79c0.75-0.62,1.73-0.94,2.92-0.94c0.87,0,1.88,0.18,3.02,0.55
		c1.14,0.37,1.86,0.55,2.16,0.55c0.79,0,1.53-0.32,2.22-0.97c0.68-0.65,1.03-1.46,1.03-2.46
		C650.68,1275.7,649.88,1274.57,648.27,1273.71z M649.16,1279.04c-0.55,0.52-1.12,0.77-1.73,0.77c-0.06,0-0.41-0.02-1.94-0.52
		c-2.93-0.94-5.12-0.73-6.63,0.52c-0.86,0.71-1.52,1.76-1.98,3.11c-0.44,1.28-0.74,2.82-0.9,4.56c-0.16,1.7-0.24,3.82-0.24,6.28
		v6.79c0,1.45-0.33,2.53-0.97,3.22c-0.64,0.68-1.43,1.01-2.42,1.01c-0.97,0-1.74-0.33-2.35-1.01c-0.63-0.69-0.95-1.77-0.95-3.21
		v-22.64c0-4.27,1.85-4.76,3.24-4.76c1.11,0,1.87,0.32,2.33,0.97c0.51,0.73,0.8,1.87,0.85,3.4l0.09,2.49l1.26-2.15
		c0.92-1.59,1.88-2.79,2.83-3.59c1.81-1.51,5.33-1.48,8.27,0.08c1.37,0.72,2.03,1.63,2.03,2.76
		C649.96,1277.9,649.7,1278.54,649.16,1279.04z"/>
	<path class="st0" d="M678.58,1297.69v3.12c0,1.26,0.3,2.24,0.9,2.9c0.59,0.65,1.31,0.97,2.22,0.97c0.91,0,1.63-0.3,2.19-0.92
		c0.58-0.63,0.87-1.64,0.87-3v-23.56c0-1.43-0.31-2.5-0.91-3.16c-0.6-0.65-1.38-0.97-2.39-0.97c-1.01,0-1.8,0.32-2.42,0.99
		c-0.62,0.67-0.94,1.73-0.94,3.14v9.89c0,4.02-0.24,6.58-0.74,7.83c-0.62,1.45-1.6,2.63-2.92,3.52c-1.33,0.89-2.76,1.34-4.28,1.34
		c-1.58,0-2.87-0.43-3.83-1.27c-0.93-0.82-1.59-1.96-1.94-3.38c-0.33-1.33-0.5-2.99-0.5-4.93v-13.02c0-1.41-0.32-2.47-0.94-3.14
		c-0.62-0.67-1.42-0.99-2.45-0.99c-1.01,0-1.79,0.32-2.39,0.97c-0.61,0.66-0.91,1.73-0.91,3.16v16.12c0,3.09,0.48,5.47,1.42,7.08
		c0.78,1.3,1.9,2.34,3.33,3.09c1.45,0.76,3.12,1.14,4.95,1.14c1.54,0,2.93-0.19,4.13-0.58c1.18-0.38,2.29-0.97,3.29-1.74
		c1.02-0.8,2.01-1.8,2.95-2.98L678.58,1297.69z"/>
	<path class="st0" d="M677.17,1301.66c0.13,1.24,0.54,2.25,1.23,3.02c0.86,0.96,1.97,1.44,3.29,1.44s2.42-0.47,3.26-1.4
		c0.83-0.91,1.25-2.24,1.25-3.97v-23.56c0-1.8-0.43-3.2-1.29-4.14c-0.88-0.96-2.04-1.44-3.45-1.44s-2.59,0.49-3.48,1.45
		c-0.88,0.95-1.32,2.33-1.32,4.12v9.89c0,4.71-0.34,6.57-0.63,7.29c-0.5,1.17-1.3,2.14-2.39,2.87c-1.1,0.74-2.23,1.1-3.47,1.1
		c-1.24,0-2.18-0.3-2.87-0.91c-0.71-0.62-1.21-1.51-1.49-2.64c-0.3-1.22-0.46-2.76-0.46-4.58v-13.02c0-1.79-0.45-3.18-1.33-4.12
		c-0.89-0.96-2.07-1.45-3.51-1.45c-1.42,0-2.58,0.49-3.45,1.44c-0.86,0.94-1.29,2.33-1.29,4.14v16.12c0,3.35,0.54,5.98,1.62,7.82
		c0.92,1.54,2.23,2.76,3.91,3.64c1.66,0.86,3.55,1.3,5.62,1.3c1.69,0,3.23-0.22,4.57-0.64c1.35-0.43,2.6-1.1,3.74-1.98
		C675.89,1302.92,676.55,1302.32,677.17,1301.66z M671.27,1304.73c-1.27,0.41-2.72,0.61-4.35,0.61c-1.97,0-3.73-0.41-5.29-1.22
		c-1.56-0.81-2.77-1.94-3.62-3.37c-1.01-1.73-1.52-4.21-1.52-7.45v-16.12c0-1.63,0.37-2.84,1.1-3.65c0.73-0.8,1.71-1.21,2.92-1.21
		c1.23,0,2.22,0.41,2.98,1.22c0.75,0.81,1.13,2.03,1.13,3.63v13.02c0,1.89,0.16,3.47,0.48,4.75c0.32,1.28,0.89,2.28,1.71,3.01
		c0.82,0.72,1.94,1.09,3.35,1.09c1.37,0,2.66-0.41,3.87-1.22c1.21-0.81,2.1-1.88,2.65-3.19c0.46-1.15,0.69-3.68,0.69-7.57v-9.89
		c0-1.61,0.38-2.82,1.13-3.63c0.75-0.82,1.74-1.22,2.95-1.22c1.21,0,2.18,0.4,2.92,1.21c0.73,0.81,1.1,2.02,1.1,3.65v23.57
		c0,1.55-0.35,2.71-1.06,3.49c-0.71,0.77-1.61,1.16-2.73,1.16c-1.11,0-2.03-0.4-2.76-1.21c-0.73-0.81-1.09-1.93-1.09-3.38v-1.04
		c-0.97,1.23-2,2.26-3.07,3.1C673.71,1303.7,672.54,1304.32,671.27,1304.73z"/>
	<path class="st0" d="M677.85,1299.77v1.04c0,1.45,0.36,2.58,1.09,3.38c0.72,0.8,1.64,1.21,2.76,1.21c1.11,0,2.02-0.39,2.73-1.16
		c0.7-0.77,1.06-1.94,1.06-3.49v-23.57c0-1.63-0.37-2.84-1.1-3.65c-0.74-0.8-1.71-1.21-2.92-1.21c-1.21,0-2.2,0.41-2.95,1.22
		c-0.76,0.81-1.13,2.03-1.13,3.63v9.89c0,3.89-0.23,6.42-0.69,7.57c-0.56,1.31-1.44,2.37-2.65,3.19c-1.21,0.81-2.5,1.22-3.87,1.22
		c-1.41,0-2.53-0.36-3.35-1.09c-0.82-0.72-1.4-1.73-1.71-3.01c-0.32-1.28-0.48-2.87-0.48-4.75v-13.02c0-1.61-0.38-2.82-1.13-3.63
		c-0.76-0.82-1.75-1.22-2.98-1.22c-1.21,0-2.19,0.4-2.92,1.21c-0.74,0.81-1.1,2.02-1.1,3.65v16.12c0,3.24,0.51,5.72,1.52,7.45
		c0.85,1.43,2.06,2.55,3.62,3.37c1.56,0.81,3.32,1.22,5.29,1.22c1.63,0,3.08-0.2,4.35-0.61c1.27-0.41,2.44-1.03,3.52-1.86
		C675.86,1302.03,676.88,1301,677.85,1299.77z M674.34,1302.3c-1,0.78-2.11,1.36-3.29,1.74c-1.2,0.38-2.59,0.58-4.13,0.58
		c-1.84,0-3.51-0.38-4.95-1.14c-1.43-0.75-2.55-1.79-3.33-3.09c-0.94-1.61-1.42-3.99-1.42-7.08v-16.12c0-1.44,0.31-2.5,0.91-3.16
		c0.6-0.65,1.38-0.97,2.39-0.97c1.03,0,1.83,0.32,2.45,0.99c0.62,0.67,0.94,1.73,0.94,3.14v13.02c0,1.94,0.17,3.6,0.5,4.93
		c0.35,1.42,1,2.56,1.94,3.38c0.96,0.84,2.24,1.27,3.83,1.27c1.51,0,2.95-0.45,4.28-1.34c1.32-0.89,2.3-2.07,2.92-3.52
		c0.5-1.25,0.74-3.81,0.74-7.83v-9.89c0-1.41,0.32-2.47,0.94-3.14c0.62-0.67,1.41-0.99,2.42-0.99c1.01,0,1.79,0.32,2.39,0.97
		c0.61,0.66,0.91,1.73,0.91,3.16v23.56c0,1.36-0.29,2.37-0.87,3c-0.57,0.62-1.28,0.92-2.19,0.92c-0.91,0-1.63-0.32-2.22-0.97
		c-0.6-0.66-0.9-1.64-0.9-2.9v-3.12l-1.29,1.63C676.36,1300.5,675.37,1301.5,674.34,1302.3z"/>
	<path class="st0" d="M719.12,1273.15c-0.89,0-1.59,0.3-2.14,0.92c-0.57,0.63-0.86,1.57-0.86,2.79v3.23l-1.29-1.68
		c-1.38-1.79-2.88-3.12-4.47-3.96c-1.58-0.83-3.48-1.24-5.65-1.24c-1.82,0-3.51,0.33-5.02,0.97c-1.51,0.64-2.86,1.61-4.01,2.88
		c-1.16,1.27-2.07,2.86-2.7,4.72c-0.64,1.88-0.96,4.03-0.96,6.38c0,3.16,0.53,5.98,1.58,8.38c1.03,2.37,2.53,4.23,4.44,5.53
		c1.91,1.3,4.17,1.96,6.73,1.96c2.13,0,3.98-0.43,5.5-1.28c1.54-0.86,2.92-2.13,4.1-3.78l1.34-1.88l-0.03,2.31
		c-0.04,2.7-0.1,4.61-0.18,5.83c-0.08,1.28-0.38,2.5-0.88,3.63c-0.54,1.21-1.47,2.15-2.78,2.81c-1.26,0.63-3.02,0.96-5.23,0.96
		c-1.08,0-2.06-0.1-2.91-0.3c-0.88-0.21-1.65-0.54-2.28-0.97c-0.61-0.42-1.18-0.93-1.69-1.53c-0.47-0.55-0.93-1.1-1.37-1.64
		c-0.75-0.88-1.59-1.31-2.57-1.31c-0.77,0-1.41,0.24-1.95,0.75c-0.53,0.49-0.78,1.11-0.78,1.9c0,1.13,0.52,2.22,1.59,3.33
		c1.11,1.15,2.73,2.11,4.82,2.86c2.12,0.75,4.56,1.13,7.26,1.13c2.97,0,5.48-0.3,7.46-0.89c1.93-0.58,3.51-1.47,4.69-2.65
		c1.18-1.18,2.05-2.7,2.59-4.52c0.55-1.87,0.83-4.15,0.83-6.77v-23.63c0-1.8-0.23-3.18-0.7-4.1
		C721.21,1273.53,720.4,1273.15,719.12,1273.15z M714.6,1294.68c-0.81,1.57-1.89,2.77-3.2,3.56c-1.31,0.79-2.72,1.19-4.2,1.19
		c-2.49,0-4.56-0.94-6.14-2.78c-1.55-1.81-2.33-4.49-2.33-7.95c0-3.41,0.76-6.1,2.26-7.99c1.54-1.94,3.61-2.93,6.15-2.93
		c2.6,0,4.73,1.02,6.33,3.05c1.56,1.97,2.34,4.73,2.34,8.19C715.82,1291.22,715.41,1293.12,714.6,1294.68z"/>
	<path class="st0" d="M719.12,1271.71c-1.3,0-2.38,0.47-3.22,1.4c-0.67,0.75-1.07,1.73-1.19,2.94c-1.16-1.23-2.4-2.2-3.69-2.88
		c-1.79-0.94-3.91-1.41-6.32-1.41c-2.01,0-3.89,0.37-5.59,1.09c-1.7,0.72-3.22,1.81-4.51,3.23c-1.29,1.42-2.3,3.18-3,5.23
		c-0.69,2.03-1.04,4.33-1.04,6.84c0,3.36,0.57,6.38,1.7,8.96c1.14,2.62,2.81,4.69,4.95,6.15c2.15,1.47,4.69,2.21,7.54,2.21
		c2.38,0,4.46-0.49,6.21-1.46c1.16-0.65,2.24-1.5,3.22-2.55c-0.04,1.6-0.08,2.83-0.14,3.68c-0.07,1.11-0.33,2.17-0.76,3.14
		c-0.4,0.91-1.09,1.59-2.11,2.11c-1.06,0.53-2.6,0.8-4.58,0.8c-0.97,0-1.84-0.09-2.57-0.26c-0.71-0.17-1.31-0.42-1.8-0.76
		c-0.51-0.35-0.98-0.78-1.41-1.27c-0.46-0.54-0.91-1.08-1.35-1.62c-1.03-1.22-2.27-1.83-3.68-1.83c-1.14,0-2.13,0.38-2.93,1.13
		c-0.83,0.76-1.24,1.76-1.24,2.96c0,1.5,0.67,2.95,1.99,4.33c1.26,1.31,3.07,2.4,5.37,3.22c2.27,0.81,4.88,1.22,7.75,1.22
		c3.11,0,5.76-0.32,7.88-0.95c2.16-0.65,3.94-1.66,5.29-3.01c1.35-1.35,2.34-3.08,2.95-5.13c0.59-2,0.89-4.42,0.89-7.18v-23.63
		c0-2.06-0.28-3.61-0.85-4.75C722.24,1272.36,720.97,1271.71,719.12,1271.71z M723.02,1302.02c0,2.7-0.29,5.02-0.86,6.97
		c-0.58,1.95-1.5,3.55-2.77,4.83c-1.27,1.27-2.93,2.21-4.99,2.83c-2.05,0.62-4.61,0.92-7.67,0.92c-2.8,0-5.3-0.39-7.51-1.18
		c-2.2-0.79-3.9-1.8-5.09-3.04c-1.19-1.24-1.79-2.52-1.79-3.83c0-0.99,0.34-1.8,1.01-2.43c0.67-0.63,1.49-0.94,2.44-0.94
		c1.19,0,2.23,0.53,3.13,1.58c0.44,0.54,0.89,1.08,1.36,1.62c0.47,0.55,0.98,1.01,1.55,1.4c0.57,0.39,1.25,0.67,2.04,0.86
		c0.79,0.19,1.71,0.28,2.74,0.28c2.1,0,3.74-0.29,4.9-0.88c1.16-0.59,1.98-1.41,2.44-2.46c0.47-1.05,0.74-2.18,0.82-3.38
		c0.08-1.2,0.14-3.13,0.18-5.8c-1.25,1.75-2.7,3.08-4.33,3.99c-1.64,0.91-3.59,1.37-5.85,1.37c-2.72,0-5.1-0.7-7.13-2.09
		c-2.04-1.39-3.6-3.34-4.69-5.84c-1.09-2.5-1.64-5.39-1.64-8.67c0-2.44,0.33-4.65,1-6.61c0.67-1.97,1.61-3.62,2.85-4.97
		c1.23-1.35,2.65-2.37,4.26-3.05c1.61-0.68,3.38-1.03,5.3-1.03c2.3,0,4.3,0.44,5.99,1.33c1.69,0.88,3.26,2.27,4.71,4.16v-1.1
		c0-1.41,0.35-2.5,1.04-3.28c0.69-0.77,1.59-1.16,2.68-1.16c1.57,0,2.61,0.51,3.13,1.54c0.52,1.02,0.77,2.5,0.77,4.42V1302.02z"/>
	<path class="st0" d="M707.14,1278.51c-2.32,0-4.19,0.88-5.59,2.65c-1.4,1.77-2.1,4.28-2.1,7.54c0,3.3,0.72,5.79,2.16,7.48
		c1.44,1.69,3.3,2.53,5.59,2.53c1.35,0,2.63-0.36,3.83-1.09c1.2-0.73,2.18-1.82,2.93-3.28c0.75-1.46,1.13-3.23,1.13-5.32
		c0-3.32-0.73-5.9-2.19-7.75C711.45,1279.43,709.52,1278.51,707.14,1278.51z M713.32,1294.01c-0.69,1.33-1.59,2.34-2.67,2.99
		c-1.08,0.65-2.24,0.98-3.46,0.98c-2.08,0-3.73-0.75-5.04-2.28c-1.32-1.54-1.99-3.9-1.99-7.01c0-3.07,0.65-5.46,1.95-7.09
		c1.27-1.6,2.91-2.38,5.02-2.38c2.17,0,3.87,0.82,5.2,2.5c1.35,1.71,2.03,4.16,2.03,7.3
		C714.37,1290.99,714.02,1292.66,713.32,1294.01z"/>
	<path class="st0" d="M707.14,1277.79c-2.54,0-4.61,0.98-6.15,2.93c-1.5,1.89-2.26,4.58-2.26,7.99c0,3.46,0.78,6.13,2.33,7.95
		c1.58,1.85,3.64,2.78,6.14,2.78c1.48,0,2.89-0.4,4.2-1.19c1.31-0.79,2.39-1.99,3.2-3.56c0.8-1.56,1.21-3.46,1.21-5.65
		c0-3.47-0.79-6.23-2.34-8.19C711.88,1278.81,709.75,1277.79,707.14,1277.79z M713.96,1294.35c-0.76,1.46-1.73,2.55-2.93,3.28
		c-1.2,0.72-2.48,1.09-3.83,1.09c-2.28,0-4.15-0.84-5.59-2.53c-1.44-1.69-2.16-4.18-2.16-7.48c0-3.26,0.7-5.77,2.1-7.54
		c1.4-1.77,3.26-2.65,5.59-2.65c2.38,0,4.31,0.92,5.76,2.77c1.46,1.85,2.19,4.43,2.19,7.75
		C715.1,1291.11,714.72,1292.89,713.96,1294.35z"/>
	<path class="st0" d="M719.12,1272.43c-1.09,0-1.99,0.39-2.68,1.16c-0.7,0.77-1.04,1.87-1.04,3.28v1.1
		c-1.45-1.89-3.02-3.27-4.71-4.16c-1.69-0.88-3.68-1.33-5.99-1.33c-1.93,0-3.69,0.34-5.3,1.03c-1.61,0.69-3.03,1.7-4.26,3.05
		c-1.23,1.35-2.18,3.01-2.85,4.97c-0.67,1.97-1,4.17-1,6.61c0,3.28,0.55,6.17,1.64,8.67c1.09,2.5,2.66,4.45,4.69,5.84
		c2.04,1.39,4.41,2.09,7.13,2.09c2.26,0,4.22-0.46,5.85-1.37c1.64-0.91,3.08-2.25,4.33-3.99c-0.04,2.66-0.1,4.59-0.18,5.8
		c-0.08,1.2-0.35,2.33-0.82,3.38c-0.47,1.05-1.28,1.87-2.44,2.46c-1.16,0.58-2.8,0.88-4.9,0.88c-1.03,0-1.95-0.09-2.74-0.28
		c-0.79-0.19-1.47-0.48-2.04-0.86c-0.57-0.39-1.08-0.85-1.55-1.4c-0.47-0.55-0.92-1.09-1.36-1.62c-0.89-1.05-1.94-1.58-3.13-1.58
		c-0.95,0-1.77,0.31-2.44,0.94c-0.68,0.62-1.01,1.43-1.01,2.43c0,1.31,0.6,2.59,1.79,3.83c1.19,1.24,2.89,2.25,5.09,3.04
		c2.2,0.78,4.71,1.18,7.51,1.18c3.06,0,5.62-0.31,7.67-0.92c2.06-0.61,3.72-1.56,4.99-2.83c1.27-1.27,2.19-2.88,2.77-4.83
		c0.58-1.95,0.86-4.27,0.86-6.97v-23.63c0-1.93-0.26-3.4-0.77-4.42C721.73,1272.94,720.69,1272.43,719.12,1272.43z M722.3,1302.02
		c0,2.62-0.28,4.9-0.83,6.77c-0.54,1.82-1.41,3.34-2.59,4.52c-1.18,1.18-2.76,2.07-4.69,2.65c-1.98,0.59-4.49,0.89-7.46,0.89
		c-2.7,0-5.15-0.38-7.26-1.13c-2.09-0.75-3.71-1.71-4.82-2.86c-1.07-1.11-1.59-2.2-1.59-3.33c0-0.79,0.26-1.41,0.78-1.9
		c0.54-0.5,1.18-0.75,1.95-0.75c0.98,0,1.82,0.43,2.57,1.31c0.44,0.54,0.9,1.08,1.37,1.64c0.51,0.59,1.08,1.11,1.69,1.53
		c0.63,0.43,1.4,0.76,2.28,0.97c0.85,0.2,1.82,0.3,2.91,0.3c2.21,0,3.96-0.32,5.23-0.96c1.31-0.66,2.24-1.61,2.78-2.81
		c0.5-1.12,0.79-2.34,0.88-3.63c0.08-1.22,0.14-3.13,0.18-5.83l0.03-2.31l-1.34,1.88c-1.18,1.65-2.56,2.93-4.1,3.78
		c-1.52,0.85-3.38,1.28-5.5,1.28c-2.56,0-4.82-0.66-6.73-1.96c-1.91-1.31-3.41-3.17-4.44-5.53c-1.05-2.4-1.58-5.22-1.58-8.38
		c0-2.35,0.32-4.5,0.96-6.38c0.63-1.86,1.54-3.45,2.7-4.72c1.15-1.27,2.5-2.23,4.01-2.88c1.51-0.64,3.2-0.97,5.02-0.97
		c2.17,0,4.08,0.42,5.65,1.24c1.59,0.83,3.09,2.16,4.47,3.96l1.29,1.68v-3.23c0-1.22,0.29-2.16,0.86-2.79
		c0.56-0.62,1.26-0.92,2.14-0.92c1.28,0,2.1,0.37,2.48,1.14c0.46,0.92,0.7,2.29,0.7,4.1V1302.02z"/>
	<path class="st0" d="M995.99,532.1c5.83,23.74,29.75,38.21,53.52,32.47c23.82-5.74,38.39-29.72,32.73-53.5
		c-1.31-5.54-26.9-117.97,45.8-180.28V227.14C980.81,292.12,976.67,453.49,995.99,532.1z"/>
</g>
</svg>
