<?xml version="1.0" encoding="utf-8"?>
<!-- Generator: Adobe Illustrator 23.0.2, SVG Export Plug-In . SVG Version: 6.00 Build 0)  -->
<svg version="1.1" id="Laag_1" xmlns="http://www.w3.org/2000/svg" xmlns:xlink="http://www.w3.org/1999/xlink" x="0px" y="0px"
	 viewBox="0 0 228 121" style="enable-background:new 0 0 228 121;" xml:space="preserve">
<style type="text/css">
	.st0{fill:#E79B24;}
	.st1{fill:#68B8A7;}
	.st2{fill:#FFFFFF;}
</style>
<g>
	<path class="st0" d="M-111.41,40.26c-2.08,0.24-4.15,0.8-6.17,1.67c7.91,8.18,10.22,19.28,10.36,20.01
		c0.55,2.88,3.06,4.88,5.89,4.88c0.37,0,0.75-0.03,1.13-0.11c3.25-0.62,5.39-3.76,4.77-7.01c-0.95-5.01-3.31-11.72-7.37-18.14
		l-0.3-0.11C-105.8,40.4-108.6,40.01-111.41,40.26z"/>
	<path class="st0" d="M-115.91,27.83c-5.85-3.9-13.08-6.49-21.9-6.59c-0.17,0-0.34,0-0.5,0c-27.77,0-38.35,25.33-40.07,38.81
		c-0.42,3.29,1.91,6.29,5.19,6.71c3.29,0.42,6.29-1.91,6.71-5.19c0.01-0.07,1.04-7.48,5.19-14.67c5.29-9.17,13.12-13.74,23.35-13.65
		c2.82,0.03,5.39,0.43,7.74,1.08l0.16-0.12C-125.76,31.02-121.01,28.88-115.91,27.83z"/>
	<path class="st1" d="M-85.08,41.46c-6.12-7.96-15.2-12.52-24.71-12.52c-0.9,0-1.79,0.04-2.69,0.12l-0.1,0.01
		c-0.45,0.05-0.89,0.11-1.34,0.18c-5.18,0.79-10.01,2.79-14.22,5.73c-8.01,5.59-13.78,14.58-15.44,25.09
		c-0.2,1.25,0.11,2.51,0.85,3.53c0.75,1.03,1.85,1.7,3.1,1.9c2.64,0.41,5.03-1.39,5.43-3.95c1.49-9.49,7.4-17.28,15.26-20.94
		c2.3-1.07,4.77-1.8,7.34-2.09c2.45-0.22,4.87,0.02,7.2,0.66c4.53,1.25,8.67,4.03,11.77,8.07c1.59,2.08,4.58,2.47,6.66,0.87
		c1.01-0.77,1.65-1.89,1.82-3.15S-84.31,42.46-85.08,41.46z"/>
</g>
<g>
	<path class="st2" d="M134.86,43.53c-2.08,0.24-4.15,0.8-6.17,1.67c7.91,8.18,10.22,19.28,10.36,20.01
		c0.55,2.88,3.06,4.88,5.89,4.88c0.37,0,0.75-0.03,1.13-0.11c3.25-0.62,5.39-3.76,4.77-7.01c-0.95-5.01-3.31-11.72-7.37-18.14
		l-0.3-0.11C140.46,43.67,137.66,43.27,134.86,43.53z"/>
	<path class="st2" d="M130.35,31.1c-5.85-3.9-13.08-6.49-21.9-6.59c-0.17,0-0.34,0-0.5,0c-27.77,0-38.35,25.33-40.07,38.81
		c-0.42,3.29,1.91,6.29,5.19,6.71c3.29,0.42,6.29-1.91,6.71-5.19c0.01-0.07,1.04-7.48,5.19-14.67c5.29-9.17,13.12-13.74,23.35-13.65
		c2.82,0.03,5.39,0.43,7.74,1.08l0.16-0.12C120.51,34.29,125.26,32.15,130.35,31.1z"/>
	<path class="st2" d="M161.19,44.73c-6.12-7.96-15.2-12.52-24.71-12.52c-0.9,0-1.79,0.04-2.69,0.12l-0.1,0.01
		c-0.45,0.05-0.89,0.11-1.34,0.18c-5.18,0.79-10.01,2.79-14.22,5.73c-8.01,5.59-13.78,14.58-15.44,25.09
		c-0.2,1.25,0.11,2.51,0.85,3.53c0.75,1.03,1.85,1.7,3.1,1.9c2.64,0.41,5.03-1.39,5.43-3.95c1.49-9.49,7.4-17.28,15.26-20.94
		c2.3-1.07,4.77-1.8,7.34-2.09c2.45-0.22,4.87,0.02,7.2,0.66c4.53,1.25,8.67,4.03,11.77,8.07c1.59,2.08,4.58,2.47,6.66,0.87
		c1.01-0.77,1.65-1.89,1.82-3.15S161.96,45.73,161.19,44.73z"/>
</g>
<g>
	<g>
		<path d="M624.05,43.89c-2.08,0.24-4.15,0.8-6.17,1.67c7.91,8.18,10.22,19.28,10.36,20.01c0.55,2.88,3.06,4.88,5.89,4.88
			c0.37,0,0.75-0.03,1.13-0.11c3.25-0.62,5.39-3.76,4.77-7.01c-0.95-5.01-3.31-11.72-7.37-18.14l-0.3-0.11
			C629.66,44.04,626.86,43.64,624.05,43.89z"/>
		<path d="M619.55,31.47c-5.85-3.9-13.08-6.49-21.9-6.59c-0.17,0-0.34,0-0.5,0c-27.77,0-38.35,25.33-40.07,38.81
			c-0.42,3.29,1.91,6.29,5.19,6.71c3.29,0.42,6.29-1.91,6.71-5.19c0.01-0.07,1.04-7.48,5.19-14.67
			c5.29-9.17,13.12-13.74,23.35-13.65c2.82,0.03,5.39,0.43,7.74,1.08l0.16-0.12C609.7,34.65,614.46,32.52,619.55,31.47z"/>
		<path d="M650.38,45.09c-6.12-7.96-15.2-12.52-24.71-12.52c-0.9,0-1.79,0.04-2.69,0.12l-0.1,0.01c-0.45,0.05-0.89,0.11-1.34,0.18
			c-5.18,0.79-10.01,2.79-14.22,5.73c-8.01,5.59-13.78,14.58-15.44,25.09c-0.2,1.25,0.11,2.51,0.85,3.53c0.75,1.03,1.85,1.7,3.1,1.9
			c2.64,0.41,5.03-1.39,5.43-3.95c1.49-9.49,7.4-17.28,15.26-20.94c2.3-1.07,4.77-1.8,7.34-2.09c2.45-0.22,4.87,0.02,7.2,0.66
			c4.53,1.25,8.67,4.03,11.77,8.07c1.59,2.08,4.58,2.47,6.66,0.87c1.01-0.77,1.65-1.89,1.82-3.15S651.16,46.1,650.38,45.09z"/>
	</g>
	<g>
		<g>
			<path d="M535.09,76.95v16.51h7.29c0.74,0,1.31,0.18,1.71,0.54c0.4,0.36,0.6,0.82,0.6,1.36c0,0.56-0.2,1.01-0.59,1.35
				c-0.39,0.35-0.96,0.52-1.72,0.52h-9.07c-1,0-1.72-0.22-2.16-0.67c-0.44-0.44-0.66-1.16-0.66-2.15V76.95
				c0-0.93,0.21-1.62,0.63-2.09c0.42-0.46,0.97-0.7,1.65-0.7c0.69,0,1.25,0.23,1.68,0.69C534.88,75.31,535.09,76.01,535.09,76.95z"
				/>
			<path d="M542.38,97.61h-9.07c-1.1,0-1.92-0.26-2.43-0.78c-0.51-0.51-0.77-1.33-0.77-2.41V76.95c0-1.02,0.24-1.81,0.72-2.34
				c0.49-0.54,1.14-0.82,1.93-0.82c0.8,0,1.45,0.27,1.95,0.81c0.49,0.53,0.74,1.32,0.74,2.35v16.14h6.92c0.84,0,1.5,0.21,1.96,0.64
				c0.48,0.43,0.72,0.98,0.72,1.64c0,0.67-0.24,1.22-0.71,1.64C543.89,97.4,543.23,97.61,542.38,97.61z M532.77,74.54
				c-0.57,0-1.02,0.19-1.37,0.57c-0.35,0.39-0.53,1.01-0.53,1.84v17.47c0,0.88,0.19,1.52,0.55,1.89c0.36,0.37,1,0.55,1.89,0.55h9.07
				c0.66,0,1.15-0.14,1.47-0.42c0.31-0.27,0.46-0.63,0.46-1.07c0-0.44-0.15-0.79-0.47-1.08c-0.32-0.29-0.81-0.44-1.46-0.44h-7.67
				V76.95c0-0.84-0.18-1.46-0.54-1.84C533.82,74.72,533.36,74.54,532.77,74.54z"/>
		</g>
		<g>
			<path d="M564.53,89.03c0,1.26-0.2,2.42-0.59,3.48c-0.39,1.06-0.96,1.98-1.7,2.74c-0.74,0.76-1.63,1.35-2.66,1.76
				c-1.03,0.41-2.19,0.61-3.48,0.61c-1.28,0-2.43-0.21-3.45-0.62c-1.02-0.41-1.91-1-2.65-1.77c-0.75-0.77-1.31-1.68-1.7-2.72
				c-0.39-1.05-0.58-2.21-0.58-3.47c0-1.28,0.2-2.45,0.59-3.51c0.39-1.06,0.95-1.97,1.69-2.72c0.73-0.75,1.62-1.33,2.66-1.74
				c1.04-0.41,2.19-0.61,3.45-0.61c1.28,0,2.44,0.21,3.48,0.62c1.04,0.41,1.93,1,2.68,1.76c0.74,0.76,1.31,1.67,1.69,2.72
				C564.34,86.6,564.53,87.77,564.53,89.03z M560.29,89.03c0-1.72-0.38-3.06-1.14-4.02c-0.76-0.96-1.78-1.44-3.06-1.44
				c-0.83,0-1.55,0.21-2.18,0.64c-0.63,0.43-1.11,1.06-1.45,1.89c-0.34,0.84-0.51,1.81-0.51,2.93c0,1.1,0.17,2.07,0.5,2.89
				c0.33,0.83,0.81,1.46,1.44,1.9c0.62,0.44,1.36,0.66,2.21,0.66c1.28,0,2.3-0.48,3.06-1.45C559.91,92.07,560.29,90.74,560.29,89.03
				z"/>
			<path d="M556.1,98c-1.32,0-2.53-0.22-3.59-0.65c-1.06-0.43-2-1.05-2.78-1.86c-0.78-0.8-1.38-1.76-1.79-2.85
				c-0.4-1.09-0.6-2.3-0.6-3.6c0-1.32,0.21-2.54,0.61-3.64c0.41-1.11,1-2.07,1.77-2.85c0.77-0.79,1.71-1.4,2.79-1.83
				c1.08-0.42,2.29-0.64,3.59-0.64c1.32,0,2.54,0.22,3.62,0.65c1.09,0.43,2.03,1.05,2.81,1.85c0.78,0.8,1.38,1.76,1.78,2.86
				c0.4,1.09,0.6,2.3,0.6,3.61c0,1.3-0.21,2.51-0.61,3.61c-0.41,1.11-1.01,2.07-1.79,2.87c-0.78,0.8-1.72,1.42-2.79,1.84
				C558.64,97.78,557.43,98,556.1,98z M556.1,80.82c-1.21,0-2.32,0.2-3.31,0.59c-0.99,0.39-1.84,0.94-2.53,1.65
				c-0.69,0.71-1.23,1.58-1.6,2.59c-0.37,1.02-0.56,2.15-0.56,3.38c0,1.22,0.19,2.34,0.56,3.34c0.37,0.99,0.91,1.87,1.62,2.59
				c0.71,0.73,1.56,1.29,2.53,1.68c0.97,0.39,2.09,0.59,3.31,0.59c1.24,0,2.36-0.2,3.34-0.58c0.98-0.39,1.83-0.95,2.53-1.67
				c0.7-0.72,1.25-1.6,1.62-2.61c0.37-1.02,0.56-2.14,0.56-3.35c0-1.22-0.19-2.35-0.56-3.35c-0.37-1-0.91-1.87-1.61-2.59
				c-0.7-0.72-1.56-1.28-2.55-1.68C558.45,81.02,557.32,80.82,556.1,80.82z M556.1,94.86c-0.92,0-1.73-0.24-2.42-0.73
				c-0.68-0.48-1.21-1.17-1.57-2.06c-0.35-0.87-0.53-1.89-0.53-3.03c0-1.16,0.18-2.19,0.54-3.07c0.37-0.9,0.9-1.6,1.59-2.06
				c0.69-0.47,1.49-0.71,2.39-0.71c1.39,0,2.52,0.53,3.35,1.58c0.81,1.02,1.22,2.45,1.22,4.26c0,1.78-0.41,3.2-1.22,4.23
				C558.62,94.32,557.49,94.86,556.1,94.86z M556.1,83.95c-0.74,0-1.41,0.19-1.97,0.58c-0.56,0.38-1.01,0.96-1.32,1.73
				c-0.32,0.79-0.48,1.72-0.48,2.78c0,1.05,0.16,1.98,0.48,2.75c0.31,0.75,0.75,1.34,1.31,1.73c0.56,0.4,1.22,0.59,1.99,0.59
				c1.17,0,2.07-0.43,2.76-1.3c0.7-0.89,1.06-2.16,1.06-3.77c0-1.63-0.36-2.9-1.06-3.79C558.17,84.37,557.26,83.95,556.1,83.95z"/>
		</g>
		<g>
			<path d="M584.37,89.01c0,1.26-0.2,2.42-0.59,3.48c-0.39,1.06-0.96,1.98-1.7,2.74c-0.74,0.76-1.63,1.35-2.66,1.76
				c-1.03,0.41-2.19,0.61-3.48,0.61c-1.28,0-2.43-0.21-3.45-0.62c-1.02-0.41-1.91-1-2.65-1.77c-0.75-0.77-1.31-1.68-1.7-2.72
				c-0.39-1.05-0.58-2.21-0.58-3.47c0-1.28,0.2-2.45,0.59-3.51c0.39-1.06,0.95-1.97,1.69-2.72c0.73-0.75,1.62-1.33,2.66-1.74
				c1.04-0.41,2.19-0.61,3.45-0.61c1.28,0,2.44,0.21,3.48,0.62c1.04,0.41,1.93,1,2.68,1.76c0.74,0.76,1.31,1.67,1.69,2.72
				C584.17,86.58,584.37,87.74,584.37,89.01z M580.13,89.01c0-1.72-0.38-3.06-1.14-4.02c-0.76-0.96-1.78-1.44-3.06-1.44
				c-0.83,0-1.55,0.21-2.18,0.64c-0.63,0.43-1.11,1.06-1.45,1.89c-0.34,0.84-0.51,1.81-0.51,2.93c0,1.1,0.17,2.07,0.5,2.89
				c0.33,0.83,0.81,1.46,1.44,1.9c0.62,0.44,1.36,0.66,2.21,0.66c1.28,0,2.3-0.48,3.06-1.45C579.75,92.05,580.13,90.72,580.13,89.01
				z"/>
			<path d="M575.93,97.98c-1.32,0-2.53-0.22-3.59-0.65c-1.06-0.43-2-1.06-2.78-1.86c-0.78-0.8-1.38-1.76-1.79-2.85
				c-0.4-1.09-0.6-2.3-0.6-3.6c0-1.32,0.21-2.54,0.61-3.64c0.41-1.11,1-2.07,1.77-2.85s1.71-1.4,2.79-1.83
				c1.08-0.42,2.29-0.64,3.59-0.64c1.32,0,2.54,0.22,3.62,0.65c1.09,0.43,2.03,1.05,2.81,1.85c0.78,0.8,1.38,1.76,1.78,2.86
				c0.4,1.09,0.6,2.3,0.6,3.61c0,1.3-0.21,2.51-0.61,3.61c-0.41,1.11-1.01,2.07-1.79,2.87c-0.78,0.8-1.72,1.42-2.79,1.84
				C578.48,97.76,577.26,97.98,575.93,97.98z M575.93,80.8c-1.21,0-2.32,0.2-3.31,0.59c-0.99,0.39-1.84,0.94-2.53,1.65
				c-0.69,0.71-1.23,1.58-1.6,2.59c-0.38,1.02-0.56,2.15-0.56,3.38c0,1.22,0.19,2.34,0.56,3.34c0.37,0.99,0.91,1.87,1.62,2.59
				c0.71,0.73,1.56,1.29,2.53,1.69c0.97,0.39,2.09,0.59,3.31,0.59c1.24,0,2.36-0.2,3.34-0.58c0.98-0.39,1.83-0.95,2.53-1.67
				c0.7-0.72,1.25-1.6,1.62-2.61c0.38-1.02,0.56-2.14,0.56-3.35c0-1.22-0.19-2.35-0.56-3.35c-0.37-1-0.91-1.87-1.61-2.59
				c-0.7-0.72-1.56-1.28-2.55-1.68C578.28,81,577.16,80.8,575.93,80.8z M575.93,94.84c-0.92,0-1.73-0.24-2.42-0.73
				c-0.68-0.48-1.21-1.17-1.57-2.06c-0.35-0.87-0.53-1.89-0.53-3.03c0-1.16,0.18-2.19,0.54-3.07c0.37-0.9,0.9-1.6,1.59-2.06
				c0.69-0.47,1.49-0.71,2.39-0.71c1.39,0,2.52,0.53,3.35,1.58c0.81,1.02,1.22,2.45,1.22,4.26c0,1.78-0.41,3.2-1.22,4.23
				C578.46,94.3,577.33,94.84,575.93,94.84z M575.93,83.93c-0.74,0-1.41,0.19-1.97,0.58c-0.56,0.38-1.01,0.96-1.32,1.73
				c-0.32,0.79-0.48,1.72-0.48,2.78c0,1.05,0.16,1.98,0.48,2.75c0.31,0.75,0.75,1.34,1.31,1.73c0.56,0.39,1.23,0.59,1.99,0.59
				c1.17,0,2.07-0.43,2.76-1.3c0.7-0.89,1.06-2.16,1.06-3.77c0-1.63-0.36-2.9-1.06-3.79C578.01,84.35,577.1,83.93,575.93,83.93z"/>
		</g>
		<g>
			<path d="M591.35,82.81v0.51c0.79-0.98,1.61-1.7,2.46-2.16c0.85-0.46,1.81-0.69,2.89-0.69c1.29,0,2.48,0.34,3.56,1.01
				c1.09,0.67,1.94,1.65,2.57,2.94c0.63,1.29,0.94,2.82,0.94,4.58c0,1.3-0.18,2.49-0.55,3.58c-0.36,1.09-0.86,2-1.5,2.74
				c-0.64,0.74-1.39,1.3-2.25,1.7c-0.87,0.4-1.8,0.6-2.79,0.6c-1.2,0-2.21-0.24-3.02-0.73c-0.81-0.49-1.59-1.2-2.33-2.14v6.34
				c0,1.86-0.67,2.79-2.01,2.79c-0.79,0-1.31-0.24-1.57-0.72c-0.26-0.48-0.38-1.18-0.38-2.1V82.84c0-0.8,0.17-1.41,0.52-1.8
				c0.35-0.4,0.82-0.6,1.43-0.6c0.59,0,1.08,0.2,1.45,0.61C591.16,81.46,591.35,82.05,591.35,82.81z M599.57,88.96
				c0-1.11-0.17-2.07-0.51-2.87c-0.34-0.8-0.81-1.41-1.41-1.84c-0.6-0.43-1.26-0.64-1.99-0.64c-1.16,0-2.13,0.46-2.93,1.38
				c-0.79,0.92-1.19,2.27-1.19,4.05c0,1.68,0.39,2.99,1.18,3.92c0.79,0.93,1.77,1.4,2.93,1.4c0.7,0,1.34-0.2,1.94-0.61
				c0.59-0.41,1.07-1.02,1.43-1.83C599.39,91.1,599.57,90.11,599.57,88.96z"/>
			<path d="M589.34,104.26c-0.93,0-1.57-0.31-1.9-0.92c-0.29-0.54-0.43-1.28-0.43-2.27V82.84c0-0.9,0.21-1.58,0.62-2.05
				c0.42-0.48,1-0.72,1.71-0.72c0.7,0,1.28,0.25,1.73,0.73c0.36,0.39,0.57,0.91,0.64,1.55c0.62-0.65,1.27-1.16,1.93-1.52
				c0.9-0.49,1.93-0.73,3.07-0.73c1.35,0,2.62,0.36,3.76,1.06c1.14,0.71,2.05,1.75,2.71,3.09c0.65,1.33,0.98,2.93,0.98,4.75
				c0,1.33-0.19,2.58-0.56,3.7c-0.38,1.13-0.91,2.09-1.57,2.87c-0.67,0.78-1.47,1.38-2.38,1.8c-0.91,0.42-1.9,0.63-2.95,0.63
				c-1.26,0-2.34-0.26-3.21-0.78c-0.61-0.36-1.2-0.85-1.76-1.45v5.33C591.72,103.72,590.42,104.26,589.34,104.26z M589.34,80.82
				c-0.5,0-0.87,0.15-1.15,0.47c-0.29,0.32-0.43,0.85-0.43,1.56v18.23c0,0.85,0.11,1.5,0.34,1.92c0.07,0.13,0.28,0.52,1.24,0.52
				c0.7,0,1.64-0.25,1.64-2.41v-7.43l0.67,0.85c0.71,0.9,1.45,1.59,2.23,2.04c0.75,0.45,1.7,0.67,2.83,0.67
				c0.93,0,1.82-0.19,2.63-0.56c0.81-0.37,1.52-0.91,2.12-1.61c0.6-0.7,1.08-1.58,1.43-2.61c0.35-1.04,0.53-2.21,0.53-3.46
				c0-1.7-0.31-3.18-0.91-4.42c-0.6-1.22-1.41-2.16-2.43-2.79c-1.02-0.63-2.15-0.95-3.37-0.95c-1.01,0-1.92,0.22-2.71,0.64
				c-0.8,0.43-1.59,1.13-2.34,2.06l-0.67,0.83v-1.57c0-0.66-0.16-1.17-0.46-1.5C590.21,80.98,589.82,80.82,589.34,80.82z
				 M595.67,94.73c-1.28,0-2.36-0.52-3.22-1.53c-0.84-1-1.27-2.4-1.27-4.16c0-1.87,0.43-3.31,1.28-4.3c0.87-1,1.95-1.51,3.21-1.51
				c0.8,0,1.55,0.24,2.21,0.71c0.65,0.47,1.17,1.14,1.53,2c0.36,0.84,0.54,1.86,0.54,3.02c0,1.2-0.19,2.25-0.57,3.11
				c-0.39,0.87-0.91,1.54-1.56,1.99C597.16,94.5,596.44,94.73,595.67,94.73z M595.67,83.98c-1.05,0-1.92,0.41-2.64,1.25
				c-0.73,0.84-1.1,2.13-1.1,3.81c0,1.58,0.37,2.82,1.09,3.68c0.72,0.85,1.59,1.27,2.65,1.27c0.62,0,1.19-0.18,1.72-0.55
				c0.53-0.37,0.97-0.93,1.3-1.68c0.34-0.76,0.51-1.71,0.51-2.81c0-1.06-0.16-1.97-0.48-2.72c-0.31-0.73-0.74-1.3-1.28-1.68
				C596.91,84.17,596.31,83.98,595.67,83.98z"/>
		</g>
		<g>
			<path d="M610.79,76.58v6.45c0.79-0.83,1.6-1.46,2.43-1.9c0.83-0.44,1.85-0.66,3.06-0.66c1.4,0,2.63,0.33,3.69,1
				c1.06,0.67,1.88,1.63,2.46,2.89c0.58,1.26,0.87,2.76,0.87,4.49c0,1.28-0.16,2.45-0.49,3.52c-0.33,1.07-0.8,1.99-1.42,2.78
				c-0.62,0.78-1.37,1.39-2.25,1.82c-0.88,0.43-1.85,0.64-2.92,0.64c-0.65,0-1.26-0.08-1.83-0.23c-0.57-0.15-1.06-0.36-1.46-0.61
				c-0.4-0.25-0.75-0.51-1.03-0.78c-0.28-0.27-0.66-0.67-1.12-1.21v0.42c0,0.79-0.19,1.4-0.57,1.8c-0.38,0.41-0.87,0.61-1.45,0.61
				c-0.6,0-1.08-0.2-1.43-0.61c-0.36-0.41-0.53-1.01-0.53-1.8V76.76c0-0.86,0.17-1.5,0.52-1.94c0.35-0.44,0.83-0.66,1.45-0.66
				c0.65,0,1.15,0.21,1.5,0.63C610.61,75.21,610.79,75.8,610.79,76.58z M610.99,89.13c0,1.68,0.38,2.97,1.15,3.88
				c0.77,0.9,1.78,1.35,3.02,1.35c1.06,0,1.98-0.46,2.75-1.38c0.77-0.92,1.15-2.25,1.15-3.97c0-1.11-0.16-2.07-0.48-2.88
				c-0.32-0.8-0.77-1.43-1.36-1.86c-0.59-0.44-1.27-0.66-2.06-0.66c-0.8,0-1.52,0.22-2.15,0.66c-0.63,0.44-1.12,1.07-1.49,1.9
				C611.17,86.99,610.99,87.98,610.99,89.13z"/>
			<path d="M616.24,98c-0.68,0-1.33-0.08-1.93-0.25c-0.6-0.16-1.13-0.38-1.56-0.65c-0.42-0.27-0.79-0.55-1.09-0.83
				c-0.15-0.14-0.32-0.32-0.52-0.53c-0.07,0.64-0.29,1.15-0.64,1.53c-0.45,0.48-1.04,0.73-1.73,0.73c-0.71,0-1.29-0.25-1.71-0.74
				c-0.42-0.48-0.63-1.17-0.63-2.05V76.76c0-0.94,0.2-1.67,0.6-2.17c0.42-0.53,1-0.8,1.74-0.8c0.76,0,1.36,0.26,1.79,0.76
				c0.41,0.49,0.61,1.17,0.61,2.03v5.57c0.62-0.56,1.25-1.01,1.88-1.34c0.88-0.47,1.97-0.7,3.24-0.7c1.47,0,2.78,0.36,3.89,1.06
				c1.12,0.7,1.99,1.73,2.6,3.05c0.6,1.31,0.91,2.87,0.91,4.65c0,1.31-0.17,2.53-0.5,3.63c-0.34,1.11-0.84,2.09-1.48,2.9
				c-0.65,0.82-1.45,1.47-2.38,1.92C618.39,97.77,617.35,98,616.24,98z M610.42,93.78l0.66,0.76c0.45,0.52,0.82,0.92,1.1,1.18
				c0.26,0.25,0.59,0.5,0.97,0.74c0.37,0.23,0.83,0.42,1.36,0.57c0.54,0.15,1.12,0.22,1.74,0.22c1,0,1.93-0.2,2.75-0.6
				c0.83-0.4,1.54-0.98,2.12-1.71c0.59-0.74,1.04-1.63,1.35-2.65c0.31-1.03,0.47-2.18,0.47-3.41c0-1.67-0.28-3.13-0.84-4.34
				c-0.55-1.19-1.33-2.11-2.32-2.73c-0.99-0.62-2.17-0.94-3.49-0.94c-1.15,0-2.12,0.21-2.89,0.61c-0.79,0.42-1.57,1.03-2.33,1.82
				l-0.65,0.67v-7.38c0-0.68-0.15-1.2-0.44-1.55c-0.28-0.33-0.68-0.49-1.21-0.49c-0.5,0-0.88,0.17-1.15,0.52
				c-0.29,0.37-0.44,0.94-0.44,1.71v18.45c0,0.7,0.15,1.22,0.44,1.56c0.28,0.32,0.66,0.48,1.15,0.48c0.48,0,0.87-0.16,1.18-0.49
				c0.31-0.33,0.47-0.85,0.47-1.55V93.78z M615.17,94.73c-1.36,0-2.47-0.5-3.31-1.49c-0.82-0.97-1.24-2.35-1.24-4.12
				c0-1.19,0.19-2.24,0.57-3.11c0.39-0.89,0.93-1.59,1.61-2.06c1.37-0.95,3.33-0.97,4.65,0.01c0.64,0.48,1.14,1.16,1.49,2.03
				c0.34,0.85,0.51,1.86,0.51,3.02c0,1.81-0.42,3.22-1.24,4.21C617.36,94.22,616.34,94.73,615.17,94.73z M615.17,83.98
				c-0.72,0-1.37,0.2-1.94,0.59c-0.57,0.4-1.02,0.98-1.36,1.75c-0.34,0.78-0.51,1.72-0.51,2.81c0,1.58,0.36,2.8,1.06,3.63
				c0.7,0.82,1.6,1.22,2.74,1.22c0.95,0,1.76-0.41,2.46-1.25c0.71-0.85,1.07-2.1,1.07-3.73c0-1.06-0.15-1.98-0.45-2.74
				c-0.29-0.74-0.71-1.31-1.24-1.7C616.48,84.17,615.88,83.98,615.17,83.98z"/>
		</g>
		<g>
			<path d="M630.55,91.52v3.53c0,0.86-0.2,1.5-0.6,1.93c-0.4,0.43-0.91,0.64-1.53,0.64c-0.61,0-1.11-0.22-1.5-0.65
				c-0.39-0.43-0.59-1.07-0.59-1.92V83.29c0-1.9,0.69-2.85,2.06-2.85c0.7,0,1.21,0.22,1.52,0.67c0.31,0.44,0.48,1.1,0.51,1.96
				c0.51-0.87,1.02-1.52,1.55-1.96c0.53-0.44,1.24-0.67,2.13-0.67c0.89,0,1.75,0.22,2.58,0.67c0.84,0.44,1.25,1.03,1.25,1.76
				c0,0.52-0.18,0.94-0.53,1.28c-0.36,0.33-0.74,0.5-1.15,0.5c-0.15,0-0.53-0.09-1.12-0.29c-0.59-0.19-1.12-0.29-1.57-0.29
				c-0.62,0-1.12,0.16-1.52,0.49c-0.39,0.33-0.7,0.81-0.91,1.45c-0.22,0.64-0.37,1.4-0.45,2.28
				C630.59,89.18,630.55,90.26,630.55,91.52z"/>
			<path d="M628.42,98c-0.72,0-1.31-0.26-1.78-0.77c-0.45-0.5-0.69-1.23-0.69-2.17V83.29c0-2.66,1.32-3.22,2.43-3.22
				c0.83,0,1.44,0.28,1.82,0.83c0.21,0.3,0.36,0.66,0.45,1.1c0.35-0.48,0.7-0.87,1.06-1.17c0.6-0.5,1.4-0.75,2.37-0.75
				c0.94,0,1.87,0.24,2.76,0.71c0.96,0.51,1.45,1.22,1.45,2.1c0,0.62-0.22,1.14-0.65,1.55c-0.43,0.4-0.9,0.6-1.41,0.6
				c-0.14,0-0.4-0.03-1.24-0.3c-1.26-0.41-2.15-0.35-2.73,0.13c-0.34,0.28-0.6,0.71-0.8,1.28c-0.21,0.61-0.35,1.35-0.43,2.2
				c-0.08,0.86-0.12,1.94-0.12,3.19v3.53c0,0.95-0.24,1.69-0.71,2.18C629.75,97.74,629.14,98,628.42,98z M628.38,80.82
				c-0.72,0-1.68,0.26-1.68,2.47v11.76c0,0.75,0.17,1.31,0.49,1.67c0.32,0.35,0.72,0.53,1.22,0.53c0.52,0,0.93-0.17,1.26-0.52
				c0.33-0.35,0.5-0.92,0.5-1.67v-3.53c0-1.28,0.04-2.38,0.13-3.26c0.08-0.91,0.24-1.7,0.47-2.37c0.24-0.7,0.58-1.25,1.03-1.62
				c0.78-0.65,1.92-0.76,3.44-0.27c0.79,0.25,0.98,0.27,1.01,0.27c0.32,0,0.61-0.13,0.9-0.4c0.28-0.26,0.42-0.59,0.42-1
				c0-0.59-0.34-1.06-1.05-1.43c-1.53-0.81-3.36-0.83-4.3-0.04c-0.5,0.41-0.99,1.04-1.47,1.87l-0.65,1.12l-0.05-1.29
				c-0.03-0.79-0.18-1.38-0.44-1.76C629.36,80.99,628.96,80.82,628.38,80.82z"/>
		</g>
		<g>
			<path d="M652.05,95.18v-0.54c-0.51,0.64-1.04,1.18-1.59,1.61c-0.56,0.43-1.17,0.76-1.83,0.97c-0.66,0.21-1.41,0.32-2.26,0.32
				c-1.02,0-1.94-0.21-2.75-0.63c-0.81-0.42-1.44-1.01-1.88-1.75c-0.53-0.9-0.79-2.19-0.79-3.87v-8.37c0-0.85,0.19-1.48,0.57-1.9
				c0.38-0.42,0.89-0.63,1.52-0.63c0.64,0,1.16,0.21,1.55,0.63c0.39,0.42,0.59,1.05,0.59,1.89v6.76c0,0.98,0.08,1.8,0.25,2.47
				c0.16,0.66,0.46,1.19,0.89,1.56c0.43,0.38,1.01,0.57,1.74,0.57c0.71,0,1.38-0.21,2.01-0.63c0.63-0.42,1.09-0.97,1.38-1.66
				c0.24-0.6,0.36-1.91,0.36-3.93v-5.14c0-0.84,0.2-1.46,0.59-1.89c0.39-0.42,0.9-0.63,1.53-0.63c0.63,0,1.13,0.21,1.52,0.63
				c0.38,0.42,0.57,1.05,0.57,1.9v12.24c0,0.8-0.18,1.41-0.55,1.81c-0.37,0.4-0.84,0.6-1.42,0.6c-0.58,0-1.05-0.21-1.43-0.63
				C652.23,96.52,652.05,95.94,652.05,95.18z"/>
			<path d="M654.04,97.94c-0.69,0-1.26-0.25-1.71-0.75c-0.36-0.4-0.57-0.92-0.64-1.57c-0.33,0.35-0.66,0.65-1.01,0.92
				c-0.59,0.46-1.24,0.8-1.94,1.03c-0.7,0.22-1.5,0.33-2.37,0.33c-1.08,0-2.06-0.23-2.92-0.68c-0.87-0.45-1.55-1.09-2.03-1.89
				c-0.56-0.95-0.84-2.32-0.84-4.06v-8.37c0-0.94,0.23-1.66,0.67-2.15c0.45-0.5,1.06-0.75,1.79-0.75c0.75,0,1.36,0.25,1.82,0.75
				c0.46,0.49,0.69,1.21,0.69,2.14v6.76c0,0.95,0.08,1.75,0.24,2.38c0.15,0.59,0.41,1.05,0.77,1.37c0.36,0.32,0.85,0.47,1.49,0.47
				c0.64,0,1.23-0.19,1.8-0.57c0.56-0.38,0.98-0.88,1.24-1.49c0.15-0.37,0.33-1.34,0.33-3.78v-5.14c0-0.93,0.23-1.65,0.69-2.14
				c0.46-0.5,1.07-0.75,1.81-0.75s1.34,0.25,1.79,0.75c0.45,0.49,0.67,1.21,0.67,2.15v12.24c0,0.9-0.22,1.59-0.65,2.06
				C655.3,97.7,654.73,97.94,654.04,97.94z M652.42,93.57v1.62c0,0.65,0.16,1.16,0.47,1.51c0.3,0.34,0.68,0.5,1.15,0.5
				c0.47,0,0.84-0.16,1.14-0.48c0.3-0.33,0.45-0.85,0.45-1.56V82.91c0-0.74-0.16-1.3-0.47-1.64c-0.31-0.34-0.72-0.5-1.24-0.5
				c-0.53,0-0.94,0.17-1.26,0.51c-0.32,0.35-0.49,0.9-0.49,1.63v5.14c0,2.09-0.12,3.42-0.38,4.07c-0.32,0.75-0.83,1.37-1.52,1.83
				c-0.69,0.46-1.44,0.7-2.22,0.7c-0.82,0-1.49-0.22-1.99-0.66c-0.49-0.43-0.82-1.02-1.01-1.75c-0.17-0.69-0.26-1.55-0.26-2.56
				v-6.76c0-0.73-0.16-1.28-0.49-1.63c-0.32-0.35-0.74-0.51-1.27-0.51c-0.52,0-0.93,0.17-1.24,0.5c-0.31,0.34-0.47,0.9-0.47,1.64
				v8.37c0,1.61,0.25,2.84,0.74,3.68c0.4,0.68,0.99,1.22,1.73,1.61c0.75,0.39,1.62,0.59,2.57,0.59c0.8,0,1.52-0.1,2.15-0.3
				c0.62-0.2,1.19-0.5,1.71-0.91c0.53-0.41,1.05-0.93,1.53-1.55L652.42,93.57z"/>
		</g>
		<g>
			<path d="M675.5,83.54v12.27c0,1.4-0.15,2.61-0.45,3.62c-0.3,1.01-0.78,1.85-1.44,2.51c-0.66,0.66-1.52,1.15-2.59,1.47
				c-1.07,0.32-2.4,0.48-3.98,0.48c-1.45,0-2.75-0.2-3.9-0.61c-1.15-0.41-2.03-0.93-2.65-1.58c-0.62-0.64-0.93-1.31-0.93-1.99
				c0-0.52,0.18-0.94,0.53-1.26c0.35-0.33,0.77-0.49,1.27-0.49c0.62,0,1.16,0.27,1.62,0.82c0.23,0.28,0.46,0.56,0.7,0.84
				c0.24,0.28,0.51,0.53,0.8,0.73c0.29,0.2,0.65,0.35,1.06,0.45c0.41,0.1,0.89,0.15,1.42,0.15c1.09,0,1.94-0.15,2.55-0.46
				c0.6-0.3,1.03-0.73,1.27-1.28c0.24-0.55,0.38-1.13,0.43-1.76c0.04-0.62,0.07-1.63,0.09-3.01c-0.65,0.91-1.4,1.6-2.25,2.07
				c-0.85,0.47-1.86,0.71-3.04,0.71c-1.41,0-2.65-0.36-3.71-1.08c-1.06-0.72-1.87-1.73-2.44-3.03c-0.57-1.3-0.85-2.8-0.85-4.5
				c0-1.27,0.17-2.41,0.52-3.44c0.35-1.02,0.84-1.88,1.48-2.58c0.64-0.7,1.38-1.23,2.21-1.59c0.84-0.36,1.75-0.53,2.75-0.53
				c1.2,0,2.23,0.23,3.11,0.69c0.88,0.46,1.69,1.18,2.45,2.16v-0.57c0-0.73,0.18-1.3,0.54-1.7c0.36-0.4,0.83-0.6,1.39-0.6
				c0.81,0,1.36,0.27,1.62,0.8C675.37,81.77,675.5,82.54,675.5,83.54z M663.26,88.89c0,1.71,0.37,3.01,1.12,3.88
				c0.75,0.88,1.71,1.31,2.9,1.31c0.7,0,1.36-0.19,1.99-0.56c0.62-0.38,1.13-0.94,1.52-1.7c0.39-0.76,0.59-1.68,0.59-2.76
				c0-1.72-0.38-3.06-1.14-4.02c-0.76-0.96-1.76-1.44-2.99-1.44c-1.21,0-2.17,0.46-2.9,1.38C663.63,85.9,663.26,87.2,663.26,88.89z"
				/>
			<path d="M667.04,104.26c-1.49,0-2.84-0.21-4.02-0.63c-1.2-0.43-2.14-0.99-2.79-1.67c-0.69-0.71-1.03-1.47-1.03-2.25
				c0-0.62,0.22-1.14,0.65-1.54c0.42-0.39,0.93-0.59,1.52-0.59c0.73,0,1.37,0.32,1.91,0.95c0.23,0.28,0.46,0.56,0.7,0.84
				c0.22,0.26,0.47,0.48,0.73,0.66c0.25,0.17,0.57,0.31,0.94,0.39c0.38,0.09,0.83,0.14,1.34,0.14c1.03,0,1.83-0.14,2.38-0.42
				c0.53-0.27,0.89-0.62,1.09-1.09c0.22-0.5,0.36-1.05,0.39-1.63c0.03-0.44,0.05-1.08,0.07-1.91c-0.51,0.54-1.07,0.99-1.67,1.33
				c-0.91,0.5-1.99,0.76-3.22,0.76c-1.48,0-2.8-0.39-3.92-1.15c-1.11-0.76-1.98-1.83-2.57-3.19c-0.59-1.34-0.88-2.91-0.88-4.65
				c0-1.31,0.18-2.5,0.54-3.56c0.36-1.07,0.88-1.98,1.56-2.72c0.67-0.74,1.46-1.3,2.34-1.68c0.88-0.37,1.86-0.56,2.9-0.56
				c1.25,0,2.36,0.25,3.28,0.73c0.67,0.35,1.31,0.85,1.92,1.49c0.06-0.63,0.27-1.14,0.62-1.53c0.43-0.48,1-0.73,1.67-0.73
				c0.96,0,1.62,0.34,1.96,1c0.3,0.59,0.44,1.4,0.44,2.47v12.27c0,1.43-0.16,2.69-0.46,3.73c-0.32,1.07-0.83,1.96-1.53,2.67
				c-0.7,0.7-1.63,1.23-2.75,1.56C670.03,104.1,668.66,104.26,667.04,104.26z M661.36,98.34c-0.4,0-0.73,0.13-1.01,0.39
				c-0.27,0.25-0.41,0.58-0.41,0.99c0,0.59,0.27,1.15,0.82,1.73c0.57,0.6,1.42,1.1,2.5,1.49c1.1,0.39,2.37,0.59,3.77,0.59
				c1.54,0,2.85-0.16,3.88-0.46c1-0.3,1.82-0.76,2.43-1.38c0.61-0.61,1.06-1.4,1.34-2.35c0.29-0.97,0.43-2.15,0.43-3.51V83.54
				c0-0.94-0.12-1.65-0.36-2.13c-0.2-0.4-0.62-0.59-1.29-0.59c-0.46,0-0.82,0.16-1.11,0.48c-0.3,0.33-0.45,0.82-0.45,1.45v1.68
				l-0.67-0.87c-0.72-0.93-1.5-1.62-2.32-2.06c-0.82-0.43-1.81-0.65-2.94-0.65c-0.94,0-1.82,0.17-2.61,0.5
				c-0.78,0.33-1.48,0.84-2.08,1.49c-0.6,0.66-1.07,1.49-1.4,2.45c-0.33,0.98-0.5,2.09-0.5,3.31c0,1.64,0.28,3.11,0.82,4.35
				c0.54,1.23,1.31,2.19,2.31,2.87c0.99,0.68,2.17,1.02,3.49,1.02c1.1,0,2.07-0.22,2.86-0.66c0.8-0.44,1.51-1.11,2.13-1.96l0.7-0.98
				l-0.02,1.2c-0.02,1.4-0.05,2.39-0.09,3.03c-0.04,0.67-0.2,1.3-0.46,1.88c-0.28,0.63-0.76,1.12-1.44,1.46
				c-0.66,0.33-1.57,0.5-2.71,0.5c-0.56,0-1.07-0.05-1.51-0.16c-0.46-0.11-0.86-0.28-1.19-0.5c-0.32-0.22-0.61-0.49-0.88-0.79
				c-0.24-0.29-0.48-0.57-0.71-0.85C662.31,98.56,661.87,98.34,661.36,98.34z M667.29,94.47c-1.3,0-2.37-0.49-3.19-1.45
				c-0.8-0.94-1.21-2.33-1.21-4.13c0-1.77,0.39-3.17,1.17-4.15c0.8-1.01,1.87-1.52,3.2-1.52c1.35,0,2.46,0.53,3.29,1.58
				c0.81,1.02,1.22,2.45,1.22,4.26c0,1.14-0.21,2.13-0.63,2.94c-0.42,0.82-0.98,1.44-1.66,1.85
				C668.79,94.26,668.06,94.47,667.29,94.47z M667.26,83.98c-1.1,0-1.95,0.4-2.61,1.24c-0.67,0.85-1.01,2.08-1.01,3.68
				c0,1.61,0.35,2.84,1.03,3.64c0.68,0.8,1.54,1.18,2.62,1.18c0.63,0,1.23-0.17,1.8-0.51c0.56-0.34,1.03-0.86,1.38-1.55
				c0.36-0.7,0.55-1.57,0.55-2.59c0-1.63-0.36-2.9-1.06-3.79C669.27,84.4,668.38,83.98,667.26,83.98z"/>
		</g>
	</g>
</g>
<g>
	<g>
		<path class="st2" d="M47.09,76.75v16.51h7.29c0.74,0,1.31,0.18,1.71,0.54c0.4,0.36,0.6,0.82,0.6,1.36c0,0.56-0.2,1.01-0.59,1.35
			c-0.39,0.35-0.96,0.52-1.72,0.52h-9.07c-1,0-1.72-0.22-2.16-0.67c-0.44-0.44-0.66-1.16-0.66-2.15V76.75
			c0-0.93,0.21-1.62,0.63-2.09c0.42-0.46,0.97-0.7,1.65-0.7c0.69,0,1.25,0.23,1.68,0.69C46.88,75.12,47.09,75.81,47.09,76.75z"/>
		<path class="st2" d="M54.38,97.42h-9.07c-1.1,0-1.92-0.26-2.43-0.78c-0.51-0.51-0.77-1.33-0.77-2.41V76.75
			c0-1.02,0.24-1.81,0.72-2.34c0.49-0.54,1.14-0.82,1.93-0.82c0.8,0,1.45,0.27,1.95,0.81c0.49,0.53,0.74,1.32,0.74,2.35v16.14h6.92
			c0.84,0,1.5,0.21,1.96,0.64c0.48,0.43,0.72,0.98,0.72,1.64c0,0.67-0.24,1.22-0.71,1.64C55.89,97.21,55.23,97.42,54.38,97.42z
			 M44.77,74.34c-0.57,0-1.02,0.19-1.37,0.57c-0.35,0.39-0.53,1.01-0.53,1.84v17.47c0,0.88,0.19,1.52,0.55,1.89
			c0.36,0.37,1,0.55,1.89,0.55h9.07c0.66,0,1.15-0.14,1.47-0.42c0.31-0.27,0.46-0.63,0.46-1.07c0-0.44-0.15-0.79-0.47-1.08
			c-0.32-0.29-0.81-0.44-1.46-0.44h-7.67V76.75c0-0.84-0.18-1.46-0.54-1.84C45.82,74.53,45.36,74.34,44.77,74.34z"/>
	</g>
	<g>
		<path class="st2" d="M76.53,88.84c0,1.26-0.2,2.42-0.59,3.48c-0.39,1.06-0.96,1.98-1.7,2.74s-1.63,1.35-2.66,1.76
			c-1.03,0.41-2.19,0.61-3.48,0.61c-1.28,0-2.43-0.21-3.45-0.62c-1.02-0.41-1.91-1-2.65-1.77c-0.75-0.77-1.31-1.68-1.7-2.72
			c-0.39-1.05-0.58-2.21-0.58-3.47c0-1.28,0.2-2.45,0.59-3.51c0.39-1.06,0.95-1.97,1.69-2.72c0.73-0.75,1.62-1.33,2.66-1.74
			c1.04-0.41,2.19-0.61,3.45-0.61c1.28,0,2.44,0.21,3.48,0.62c1.04,0.41,1.93,1,2.68,1.76c0.74,0.76,1.31,1.67,1.69,2.72
			C76.34,86.41,76.53,87.57,76.53,88.84z M72.29,88.84c0-1.72-0.38-3.06-1.14-4.02c-0.76-0.96-1.78-1.44-3.06-1.44
			c-0.83,0-1.55,0.21-2.18,0.64c-0.63,0.43-1.11,1.06-1.45,1.89s-0.51,1.81-0.51,2.93c0,1.1,0.17,2.07,0.5,2.89
			c0.33,0.83,0.81,1.46,1.44,1.9c0.62,0.44,1.36,0.66,2.21,0.66c1.28,0,2.3-0.48,3.06-1.45C71.91,91.87,72.29,90.54,72.29,88.84z"/>
		<path class="st2" d="M68.1,97.8c-1.32,0-2.53-0.22-3.59-0.65c-1.06-0.43-2-1.05-2.78-1.86c-0.78-0.8-1.38-1.76-1.79-2.85
			c-0.4-1.09-0.6-2.3-0.6-3.6c0-1.32,0.21-2.54,0.61-3.64c0.41-1.11,1-2.07,1.77-2.85c0.77-0.79,1.71-1.4,2.79-1.83
			c1.08-0.42,2.29-0.64,3.59-0.64c1.32,0,2.54,0.22,3.62,0.65c1.09,0.43,2.03,1.05,2.81,1.85c0.78,0.8,1.38,1.76,1.78,2.86
			c0.4,1.09,0.6,2.3,0.6,3.61c0,1.3-0.21,2.51-0.61,3.61c-0.41,1.11-1.01,2.07-1.79,2.87c-0.78,0.8-1.72,1.42-2.79,1.84
			C70.64,97.59,69.43,97.8,68.1,97.8z M68.1,80.63c-1.21,0-2.32,0.2-3.31,0.59c-0.99,0.39-1.84,0.94-2.53,1.65
			c-0.69,0.71-1.23,1.58-1.6,2.59c-0.37,1.02-0.56,2.15-0.56,3.38c0,1.22,0.19,2.34,0.56,3.34c0.37,0.99,0.91,1.87,1.62,2.59
			c0.71,0.73,1.56,1.29,2.53,1.68c0.97,0.39,2.09,0.59,3.31,0.59c1.24,0,2.36-0.2,3.34-0.58c0.98-0.39,1.83-0.95,2.53-1.67
			c0.7-0.72,1.25-1.6,1.62-2.61c0.37-1.02,0.56-2.14,0.56-3.35c0-1.22-0.19-2.35-0.56-3.35c-0.37-1-0.91-1.87-1.61-2.59
			c-0.7-0.72-1.56-1.28-2.55-1.68C70.45,80.82,69.32,80.63,68.1,80.63z M68.1,94.66c-0.92,0-1.73-0.24-2.42-0.73
			c-0.68-0.48-1.21-1.17-1.57-2.06c-0.35-0.87-0.53-1.89-0.53-3.03c0-1.16,0.18-2.19,0.54-3.07c0.37-0.9,0.9-1.6,1.59-2.06
			C66.39,83.24,67.2,83,68.1,83c1.39,0,2.52,0.53,3.35,1.58c0.81,1.02,1.22,2.45,1.22,4.26c0,1.78-0.41,3.2-1.22,4.23
			C70.62,94.13,69.49,94.66,68.1,94.66z M68.1,83.75c-0.74,0-1.41,0.19-1.97,0.58c-0.56,0.38-1.01,0.96-1.32,1.73
			c-0.32,0.79-0.48,1.72-0.48,2.78c0,1.05,0.16,1.98,0.48,2.75c0.31,0.75,0.75,1.34,1.31,1.73c0.56,0.4,1.22,0.59,1.99,0.59
			c1.17,0,2.07-0.43,2.76-1.3c0.7-0.89,1.06-2.16,1.06-3.77c0-1.63-0.36-2.9-1.06-3.79C70.17,84.18,69.26,83.75,68.1,83.75z"/>
	</g>
	<g>
		<path class="st2" d="M96.37,88.82c0,1.26-0.2,2.42-0.59,3.48c-0.39,1.06-0.96,1.98-1.7,2.74s-1.63,1.35-2.66,1.76
			c-1.03,0.41-2.19,0.61-3.48,0.61c-1.28,0-2.43-0.21-3.45-0.62c-1.02-0.41-1.91-1-2.65-1.77c-0.75-0.77-1.31-1.68-1.7-2.72
			c-0.39-1.05-0.58-2.21-0.58-3.47c0-1.28,0.2-2.45,0.59-3.51c0.39-1.06,0.95-1.97,1.69-2.72c0.73-0.75,1.62-1.33,2.66-1.74
			c1.04-0.41,2.19-0.61,3.45-0.61c1.28,0,2.44,0.21,3.48,0.62c1.04,0.41,1.93,1,2.68,1.76c0.74,0.76,1.31,1.67,1.69,2.72
			C96.17,86.39,96.37,87.55,96.37,88.82z M92.13,88.82c0-1.72-0.38-3.06-1.14-4.02c-0.76-0.96-1.78-1.44-3.06-1.44
			c-0.83,0-1.55,0.21-2.18,0.64c-0.63,0.43-1.11,1.06-1.45,1.89s-0.51,1.81-0.51,2.93c0,1.1,0.17,2.07,0.5,2.89
			c0.33,0.83,0.81,1.46,1.44,1.9c0.62,0.44,1.36,0.66,2.21,0.66c1.28,0,2.3-0.48,3.06-1.45C91.75,91.85,92.13,90.52,92.13,88.82z"/>
		<path class="st2" d="M87.93,97.78c-1.32,0-2.53-0.22-3.59-0.65c-1.06-0.43-2-1.06-2.78-1.86c-0.78-0.8-1.38-1.76-1.79-2.85
			c-0.4-1.09-0.6-2.3-0.6-3.6c0-1.32,0.21-2.54,0.61-3.64c0.41-1.11,1-2.07,1.77-2.85s1.71-1.4,2.79-1.83
			c1.08-0.42,2.29-0.64,3.59-0.64c1.32,0,2.54,0.22,3.62,0.65c1.09,0.43,2.03,1.05,2.81,1.85c0.78,0.8,1.38,1.76,1.78,2.86
			c0.4,1.09,0.6,2.3,0.6,3.61c0,1.3-0.21,2.51-0.61,3.61c-0.41,1.11-1.01,2.07-1.79,2.87c-0.78,0.8-1.72,1.42-2.79,1.84
			C90.48,97.57,89.26,97.78,87.93,97.78z M87.93,80.61c-1.21,0-2.32,0.2-3.31,0.59c-0.99,0.39-1.84,0.94-2.53,1.65
			c-0.69,0.71-1.23,1.58-1.6,2.59c-0.38,1.02-0.56,2.15-0.56,3.38c0,1.22,0.19,2.34,0.56,3.34c0.37,0.99,0.91,1.87,1.62,2.59
			c0.71,0.73,1.56,1.29,2.53,1.69c0.97,0.39,2.09,0.59,3.31,0.59c1.24,0,2.36-0.2,3.34-0.58c0.98-0.39,1.83-0.95,2.53-1.67
			c0.7-0.72,1.25-1.6,1.62-2.61c0.38-1.02,0.56-2.14,0.56-3.35c0-1.22-0.19-2.35-0.56-3.35c-0.37-1-0.91-1.87-1.61-2.59
			c-0.7-0.72-1.56-1.28-2.55-1.68C90.28,80.8,89.16,80.61,87.93,80.61z M87.93,94.64c-0.92,0-1.73-0.24-2.42-0.73
			c-0.68-0.48-1.21-1.17-1.57-2.06c-0.35-0.87-0.53-1.89-0.53-3.03c0-1.16,0.18-2.19,0.54-3.07c0.37-0.9,0.9-1.6,1.59-2.06
			c0.69-0.47,1.49-0.71,2.39-0.71c1.39,0,2.52,0.53,3.35,1.58c0.81,1.02,1.22,2.45,1.22,4.26c0,1.78-0.41,3.2-1.22,4.23
			C90.46,94.11,89.33,94.64,87.93,94.64z M87.93,83.73c-0.74,0-1.41,0.19-1.97,0.58c-0.56,0.38-1.01,0.96-1.32,1.73
			c-0.32,0.79-0.48,1.72-0.48,2.78c0,1.05,0.16,1.98,0.48,2.75c0.31,0.75,0.75,1.34,1.31,1.73c0.56,0.39,1.23,0.59,1.99,0.59
			c1.17,0,2.07-0.43,2.76-1.3c0.7-0.89,1.06-2.16,1.06-3.77c0-1.63-0.36-2.9-1.06-3.79C90.01,84.16,89.1,83.73,87.93,83.73z"/>
	</g>
	<g>
		<path class="st2" d="M103.35,82.62v0.51c0.79-0.98,1.61-1.7,2.46-2.16c0.85-0.46,1.81-0.69,2.89-0.69c1.29,0,2.48,0.34,3.56,1.01
			c1.09,0.67,1.94,1.65,2.57,2.94c0.63,1.29,0.94,2.82,0.94,4.58c0,1.3-0.18,2.49-0.55,3.58c-0.36,1.09-0.86,2-1.5,2.74
			c-0.64,0.74-1.39,1.3-2.25,1.7c-0.87,0.4-1.8,0.6-2.79,0.6c-1.2,0-2.21-0.24-3.02-0.73c-0.81-0.49-1.59-1.2-2.33-2.14v6.34
			c0,1.86-0.67,2.79-2.01,2.79c-0.79,0-1.31-0.24-1.57-0.72c-0.26-0.48-0.38-1.18-0.38-2.1V82.65c0-0.8,0.17-1.41,0.52-1.8
			c0.35-0.4,0.82-0.6,1.43-0.6c0.59,0,1.08,0.2,1.45,0.61C103.16,81.27,103.35,81.85,103.35,82.62z M111.57,88.76
			c0-1.11-0.17-2.07-0.51-2.87s-0.81-1.41-1.41-1.84c-0.6-0.43-1.26-0.64-1.99-0.64c-1.16,0-2.13,0.46-2.93,1.38
			c-0.79,0.92-1.19,2.27-1.19,4.05c0,1.68,0.39,2.99,1.18,3.92c0.79,0.93,1.77,1.4,2.93,1.4c0.7,0,1.34-0.2,1.94-0.61
			c0.59-0.41,1.07-1.02,1.43-1.83C111.39,90.9,111.57,89.92,111.57,88.76z"/>
		<path class="st2" d="M101.34,104.07c-0.93,0-1.57-0.31-1.9-0.92c-0.29-0.54-0.43-1.28-0.43-2.27V82.65c0-0.9,0.21-1.58,0.62-2.05
			c0.42-0.48,1-0.72,1.71-0.72c0.7,0,1.28,0.25,1.73,0.73c0.36,0.39,0.57,0.91,0.64,1.55c0.62-0.65,1.27-1.16,1.93-1.52
			c0.9-0.49,1.93-0.73,3.07-0.73c1.35,0,2.62,0.36,3.76,1.06c1.14,0.71,2.05,1.75,2.71,3.09c0.65,1.33,0.98,2.93,0.98,4.75
			c0,1.33-0.19,2.58-0.56,3.7c-0.38,1.13-0.91,2.09-1.57,2.87c-0.67,0.78-1.47,1.38-2.38,1.8c-0.91,0.42-1.9,0.63-2.95,0.63
			c-1.26,0-2.34-0.26-3.21-0.78c-0.61-0.36-1.2-0.85-1.76-1.45v5.33C103.72,103.52,102.42,104.07,101.34,104.07z M101.34,80.63
			c-0.5,0-0.87,0.15-1.15,0.47c-0.29,0.32-0.43,0.85-0.43,1.56v18.23c0,0.85,0.11,1.5,0.34,1.92c0.07,0.13,0.28,0.52,1.24,0.52
			c0.7,0,1.64-0.25,1.64-2.41v-7.43l0.67,0.85c0.71,0.9,1.45,1.59,2.23,2.04c0.75,0.45,1.7,0.67,2.83,0.67
			c0.93,0,1.82-0.19,2.63-0.56c0.81-0.37,1.52-0.91,2.12-1.61c0.6-0.7,1.08-1.58,1.43-2.61c0.35-1.04,0.53-2.21,0.53-3.46
			c0-1.7-0.31-3.18-0.91-4.42c-0.6-1.22-1.41-2.16-2.43-2.79c-1.02-0.63-2.15-0.95-3.37-0.95c-1.01,0-1.92,0.22-2.71,0.64
			c-0.8,0.43-1.59,1.13-2.34,2.06l-0.67,0.83v-1.57c0-0.66-0.16-1.17-0.46-1.5C102.21,80.79,101.82,80.63,101.34,80.63z
			 M107.67,94.54c-1.28,0-2.36-0.52-3.22-1.53c-0.84-1-1.27-2.4-1.27-4.16c0-1.87,0.43-3.31,1.28-4.3c0.87-1,1.95-1.51,3.21-1.51
			c0.8,0,1.55,0.24,2.21,0.71c0.65,0.47,1.17,1.14,1.53,2c0.36,0.84,0.54,1.86,0.54,3.02c0,1.2-0.19,2.25-0.57,3.11
			c-0.39,0.87-0.91,1.54-1.56,1.99C109.16,94.31,108.44,94.54,107.67,94.54z M107.67,83.78c-1.05,0-1.92,0.41-2.64,1.25
			c-0.73,0.84-1.1,2.13-1.1,3.81c0,1.58,0.37,2.82,1.09,3.68c0.72,0.85,1.59,1.27,2.65,1.27c0.62,0,1.19-0.18,1.72-0.55
			c0.53-0.37,0.97-0.93,1.3-1.68c0.34-0.76,0.51-1.71,0.51-2.81c0-1.06-0.16-1.97-0.48-2.72c-0.31-0.73-0.74-1.3-1.28-1.68
			C108.91,83.98,108.31,83.78,107.67,83.78z"/>
	</g>
	<g>
		<path class="st2" d="M122.79,76.38v6.45c0.79-0.83,1.6-1.46,2.43-1.9c0.83-0.44,1.85-0.66,3.06-0.66c1.4,0,2.63,0.33,3.69,1
			c1.06,0.67,1.88,1.63,2.46,2.89c0.58,1.26,0.87,2.76,0.87,4.49c0,1.28-0.16,2.45-0.49,3.52c-0.33,1.07-0.8,1.99-1.42,2.78
			c-0.62,0.78-1.37,1.39-2.25,1.82c-0.88,0.43-1.85,0.64-2.92,0.64c-0.65,0-1.26-0.08-1.83-0.23c-0.57-0.15-1.06-0.36-1.46-0.61
			c-0.4-0.25-0.75-0.51-1.03-0.78c-0.28-0.27-0.66-0.67-1.12-1.21v0.42c0,0.79-0.19,1.4-0.57,1.8c-0.38,0.41-0.87,0.61-1.45,0.61
			c-0.6,0-1.08-0.2-1.43-0.61c-0.36-0.41-0.53-1.01-0.53-1.8V76.57c0-0.86,0.17-1.5,0.52-1.94c0.35-0.44,0.83-0.66,1.45-0.66
			c0.65,0,1.15,0.21,1.5,0.63C122.61,75.01,122.79,75.61,122.79,76.38z M122.99,88.93c0,1.68,0.38,2.97,1.15,3.88
			c0.77,0.9,1.78,1.35,3.03,1.35c1.06,0,1.98-0.46,2.75-1.38c0.77-0.92,1.15-2.25,1.15-3.97c0-1.11-0.16-2.07-0.48-2.88
			c-0.32-0.8-0.77-1.43-1.36-1.86c-0.59-0.44-1.27-0.66-2.06-0.66c-0.8,0-1.52,0.22-2.15,0.66c-0.63,0.44-1.12,1.07-1.49,1.9
			C123.17,86.8,122.99,87.79,122.99,88.93z"/>
		<path class="st2" d="M128.24,97.8c-0.68,0-1.33-0.08-1.93-0.25c-0.6-0.16-1.13-0.38-1.56-0.65c-0.42-0.27-0.79-0.55-1.09-0.83
			c-0.15-0.14-0.32-0.32-0.52-0.53c-0.07,0.64-0.29,1.15-0.64,1.53c-0.45,0.48-1.04,0.73-1.73,0.73c-0.71,0-1.29-0.25-1.71-0.74
			c-0.42-0.48-0.63-1.17-0.63-2.05V76.57c0-0.94,0.2-1.67,0.6-2.17c0.42-0.53,1-0.8,1.74-0.8c0.76,0,1.36,0.26,1.79,0.76
			c0.41,0.49,0.61,1.17,0.61,2.03v5.57c0.62-0.56,1.25-1.01,1.88-1.34c0.88-0.47,1.97-0.7,3.24-0.7c1.47,0,2.78,0.36,3.89,1.06
			c1.12,0.7,1.99,1.73,2.6,3.05c0.6,1.31,0.91,2.87,0.91,4.65c0,1.31-0.17,2.53-0.5,3.63c-0.34,1.11-0.84,2.09-1.48,2.9
			c-0.65,0.82-1.45,1.47-2.38,1.92C130.39,97.57,129.35,97.8,128.24,97.8z M122.42,93.59l0.66,0.76c0.45,0.52,0.82,0.92,1.1,1.18
			c0.26,0.25,0.59,0.5,0.97,0.74c0.37,0.23,0.83,0.42,1.36,0.57c0.54,0.15,1.12,0.22,1.74,0.22c1,0,1.93-0.2,2.75-0.6
			c0.83-0.4,1.54-0.98,2.12-1.71c0.59-0.74,1.04-1.63,1.35-2.65c0.31-1.03,0.47-2.18,0.47-3.41c0-1.67-0.28-3.13-0.84-4.34
			c-0.55-1.19-1.33-2.11-2.32-2.73c-0.99-0.62-2.17-0.94-3.49-0.94c-1.15,0-2.12,0.21-2.89,0.61c-0.79,0.42-1.57,1.03-2.33,1.82
			l-0.65,0.67v-7.38c0-0.68-0.15-1.2-0.44-1.55c-0.28-0.33-0.68-0.49-1.21-0.49c-0.5,0-0.88,0.17-1.15,0.52
			c-0.29,0.37-0.44,0.94-0.44,1.71v18.45c0,0.7,0.15,1.22,0.44,1.56c0.28,0.32,0.66,0.48,1.15,0.48c0.48,0,0.87-0.16,1.18-0.49
			c0.31-0.33,0.47-0.85,0.47-1.55V93.59z M127.17,94.54c-1.36,0-2.47-0.5-3.31-1.49c-0.82-0.97-1.24-2.35-1.24-4.12
			c0-1.19,0.19-2.24,0.57-3.11c0.39-0.89,0.93-1.59,1.61-2.06c1.37-0.95,3.33-0.97,4.65,0.01c0.64,0.48,1.14,1.16,1.49,2.03
			c0.34,0.85,0.51,1.86,0.51,3.02c0,1.81-0.42,3.22-1.24,4.21C129.36,94.03,128.34,94.54,127.17,94.54z M127.17,83.78
			c-0.72,0-1.37,0.2-1.94,0.59c-0.57,0.4-1.02,0.98-1.36,1.75c-0.34,0.78-0.51,1.72-0.51,2.81c0,1.58,0.36,2.8,1.06,3.63
			c0.7,0.82,1.6,1.22,2.74,1.22c0.95,0,1.76-0.41,2.46-1.25c0.71-0.85,1.07-2.1,1.07-3.73c0-1.06-0.15-1.98-0.45-2.74
			c-0.29-0.74-0.71-1.31-1.24-1.7C128.48,83.97,127.88,83.78,127.17,83.78z"/>
	</g>
	<g>
		<path class="st2" d="M142.55,91.33v3.53c0,0.86-0.2,1.5-0.6,1.93c-0.4,0.43-0.91,0.64-1.53,0.64c-0.61,0-1.11-0.22-1.5-0.65
			c-0.39-0.43-0.59-1.07-0.59-1.92V83.1c0-1.9,0.69-2.85,2.06-2.85c0.7,0,1.21,0.22,1.52,0.67s0.48,1.1,0.51,1.96
			c0.51-0.87,1.02-1.52,1.55-1.96c0.53-0.44,1.24-0.67,2.13-0.67c0.89,0,1.75,0.22,2.58,0.67c0.84,0.44,1.25,1.03,1.25,1.76
			c0,0.52-0.18,0.94-0.53,1.28c-0.36,0.33-0.74,0.5-1.15,0.5c-0.15,0-0.53-0.09-1.12-0.29c-0.59-0.19-1.12-0.29-1.57-0.29
			c-0.62,0-1.12,0.16-1.52,0.49c-0.39,0.33-0.7,0.81-0.91,1.45c-0.22,0.64-0.37,1.4-0.45,2.28
			C142.59,88.99,142.55,90.06,142.55,91.33z"/>
		<path class="st2" d="M140.42,97.8c-0.72,0-1.31-0.26-1.78-0.77c-0.45-0.5-0.69-1.23-0.69-2.17V83.1c0-2.66,1.32-3.22,2.43-3.22
			c0.83,0,1.44,0.28,1.82,0.83c0.21,0.3,0.36,0.66,0.45,1.1c0.35-0.48,0.7-0.87,1.06-1.17c0.6-0.5,1.4-0.75,2.37-0.75
			c0.94,0,1.87,0.24,2.76,0.71c0.96,0.51,1.45,1.22,1.45,2.1c0,0.62-0.22,1.14-0.65,1.55c-0.43,0.4-0.9,0.6-1.41,0.6
			c-0.14,0-0.4-0.03-1.24-0.3c-1.26-0.41-2.15-0.35-2.73,0.13c-0.34,0.28-0.6,0.71-0.8,1.28c-0.21,0.61-0.35,1.35-0.43,2.2
			c-0.08,0.86-0.12,1.94-0.12,3.19v3.53c0,0.95-0.24,1.69-0.71,2.18C141.75,97.55,141.14,97.8,140.42,97.8z M140.38,80.63
			c-0.72,0-1.68,0.26-1.68,2.47v11.76c0,0.75,0.17,1.31,0.49,1.67c0.32,0.35,0.72,0.53,1.22,0.53c0.52,0,0.93-0.17,1.26-0.52
			c0.33-0.35,0.5-0.92,0.5-1.67v-3.53c0-1.28,0.04-2.38,0.13-3.26c0.08-0.91,0.24-1.7,0.47-2.37c0.24-0.7,0.58-1.25,1.03-1.62
			c0.78-0.65,1.92-0.76,3.44-0.27c0.79,0.25,0.98,0.27,1.01,0.27c0.32,0,0.61-0.13,0.9-0.4c0.28-0.26,0.42-0.59,0.42-1
			c0-0.59-0.34-1.06-1.05-1.43c-1.53-0.81-3.36-0.83-4.3-0.04c-0.5,0.41-0.99,1.04-1.47,1.87l-0.65,1.12l-0.05-1.29
			c-0.03-0.79-0.18-1.38-0.44-1.76C141.36,80.79,140.96,80.63,140.38,80.63z"/>
	</g>
	<g>
		<path class="st2" d="M164.05,94.99v-0.54c-0.51,0.64-1.04,1.18-1.59,1.61s-1.17,0.76-1.83,0.97c-0.66,0.21-1.41,0.32-2.26,0.32
			c-1.02,0-1.94-0.21-2.75-0.63c-0.81-0.42-1.44-1.01-1.88-1.75c-0.53-0.9-0.79-2.19-0.79-3.87v-8.37c0-0.85,0.19-1.48,0.57-1.9
			c0.38-0.42,0.89-0.63,1.52-0.63c0.64,0,1.16,0.21,1.55,0.63c0.39,0.42,0.59,1.05,0.59,1.89v6.76c0,0.98,0.08,1.8,0.25,2.47
			c0.16,0.66,0.46,1.19,0.89,1.56c0.43,0.38,1.01,0.57,1.74,0.57c0.71,0,1.38-0.21,2.01-0.63c0.63-0.42,1.09-0.97,1.38-1.66
			c0.24-0.6,0.36-1.91,0.36-3.93v-5.14c0-0.84,0.2-1.46,0.59-1.89c0.39-0.42,0.9-0.63,1.53-0.63c0.63,0,1.13,0.21,1.52,0.63
			c0.38,0.42,0.57,1.05,0.57,1.9v12.24c0,0.8-0.18,1.41-0.55,1.81c-0.37,0.4-0.84,0.6-1.42,0.6c-0.58,0-1.05-0.21-1.43-0.63
			C164.23,96.33,164.05,95.74,164.05,94.99z"/>
		<path class="st2" d="M166.04,97.75c-0.69,0-1.26-0.25-1.71-0.75c-0.36-0.4-0.57-0.92-0.64-1.57c-0.33,0.35-0.66,0.65-1.01,0.92
			c-0.59,0.46-1.24,0.8-1.94,1.03c-0.7,0.22-1.5,0.33-2.37,0.33c-1.08,0-2.06-0.23-2.92-0.68c-0.87-0.45-1.55-1.09-2.03-1.89
			c-0.56-0.95-0.84-2.32-0.84-4.06v-8.37c0-0.94,0.23-1.66,0.67-2.15c0.45-0.5,1.06-0.75,1.79-0.75c0.75,0,1.36,0.25,1.82,0.75
			c0.46,0.49,0.69,1.21,0.69,2.14v6.76c0,0.95,0.08,1.75,0.24,2.38c0.15,0.59,0.41,1.05,0.77,1.37c0.36,0.32,0.85,0.47,1.49,0.47
			c0.64,0,1.23-0.19,1.8-0.57c0.56-0.38,0.98-0.88,1.24-1.49c0.15-0.37,0.33-1.34,0.33-3.78v-5.14c0-0.93,0.23-1.65,0.69-2.14
			c0.46-0.5,1.07-0.75,1.81-0.75s1.34,0.25,1.79,0.75c0.45,0.49,0.67,1.21,0.67,2.15v12.24c0,0.9-0.22,1.59-0.65,2.06
			C167.3,97.5,166.73,97.75,166.04,97.75z M164.42,93.37v1.62c0,0.65,0.16,1.16,0.47,1.51c0.3,0.34,0.68,0.5,1.15,0.5
			c0.47,0,0.84-0.16,1.14-0.48c0.3-0.33,0.45-0.85,0.45-1.56V82.72c0-0.74-0.16-1.3-0.47-1.64c-0.31-0.34-0.72-0.5-1.24-0.5
			c-0.53,0-0.94,0.17-1.26,0.51c-0.32,0.35-0.49,0.9-0.49,1.63v5.14c0,2.09-0.12,3.42-0.38,4.07c-0.32,0.75-0.83,1.37-1.52,1.83
			c-0.69,0.46-1.44,0.7-2.22,0.7c-0.82,0-1.49-0.22-1.99-0.66c-0.49-0.43-0.82-1.02-1.01-1.75c-0.17-0.69-0.26-1.55-0.26-2.56v-6.76
			c0-0.73-0.16-1.28-0.49-1.63c-0.32-0.35-0.74-0.51-1.27-0.51c-0.52,0-0.93,0.17-1.24,0.5c-0.31,0.34-0.47,0.9-0.47,1.64v8.37
			c0,1.61,0.25,2.84,0.74,3.68c0.4,0.68,0.99,1.22,1.73,1.61c0.75,0.39,1.62,0.59,2.57,0.59c0.8,0,1.52-0.1,2.15-0.3
			c0.62-0.2,1.19-0.5,1.71-0.91c0.53-0.41,1.05-0.93,1.53-1.55L164.42,93.37z"/>
	</g>
	<g>
		<path class="st2" d="M187.5,83.35v12.27c0,1.4-0.15,2.61-0.45,3.62c-0.3,1.01-0.78,1.85-1.44,2.51c-0.66,0.66-1.52,1.15-2.59,1.47
			c-1.07,0.32-2.4,0.48-3.98,0.48c-1.45,0-2.75-0.2-3.9-0.61c-1.15-0.41-2.03-0.93-2.65-1.58c-0.62-0.64-0.93-1.31-0.93-1.99
			c0-0.52,0.18-0.94,0.53-1.26c0.35-0.33,0.77-0.49,1.27-0.49c0.62,0,1.16,0.27,1.62,0.82c0.23,0.28,0.46,0.56,0.7,0.84
			c0.24,0.28,0.51,0.53,0.8,0.73c0.29,0.2,0.65,0.35,1.06,0.45c0.41,0.1,0.89,0.15,1.42,0.15c1.09,0,1.94-0.15,2.55-0.46
			c0.6-0.3,1.03-0.73,1.27-1.28c0.24-0.55,0.38-1.13,0.43-1.76c0.04-0.62,0.07-1.63,0.09-3.01c-0.65,0.91-1.4,1.6-2.25,2.07
			c-0.85,0.47-1.86,0.71-3.04,0.71c-1.41,0-2.65-0.36-3.71-1.08c-1.06-0.72-1.87-1.73-2.44-3.03c-0.57-1.3-0.85-2.8-0.85-4.5
			c0-1.27,0.17-2.41,0.52-3.44c0.35-1.02,0.84-1.88,1.48-2.58c0.64-0.7,1.38-1.23,2.21-1.59c0.84-0.36,1.75-0.53,2.75-0.53
			c1.2,0,2.23,0.23,3.11,0.69c0.88,0.46,1.69,1.18,2.44,2.16v-0.57c0-0.73,0.18-1.3,0.54-1.7c0.36-0.4,0.83-0.6,1.39-0.6
			c0.81,0,1.36,0.27,1.62,0.8C187.37,81.58,187.5,82.35,187.5,83.35z M175.26,88.7c0,1.71,0.37,3.01,1.12,3.88
			c0.75,0.88,1.71,1.31,2.9,1.31c0.7,0,1.36-0.19,1.99-0.56c0.62-0.38,1.13-0.94,1.52-1.7c0.39-0.76,0.59-1.68,0.59-2.76
			c0-1.72-0.38-3.06-1.14-4.02c-0.76-0.96-1.76-1.44-2.99-1.44c-1.21,0-2.17,0.46-2.9,1.38C175.63,85.7,175.26,87.01,175.26,88.7z"
			/>
		<path class="st2" d="M179.04,104.07c-1.49,0-2.84-0.21-4.02-0.63c-1.2-0.43-2.14-0.99-2.79-1.67c-0.69-0.71-1.03-1.47-1.03-2.25
			c0-0.62,0.22-1.14,0.65-1.54c0.42-0.39,0.93-0.59,1.52-0.59c0.73,0,1.37,0.32,1.91,0.95c0.23,0.28,0.46,0.56,0.7,0.84
			c0.22,0.26,0.47,0.48,0.73,0.66c0.25,0.17,0.57,0.31,0.94,0.39c0.38,0.09,0.83,0.14,1.34,0.14c1.03,0,1.83-0.14,2.38-0.42
			c0.53-0.27,0.89-0.62,1.09-1.09c0.22-0.5,0.36-1.05,0.39-1.63c0.03-0.44,0.05-1.08,0.07-1.91c-0.51,0.54-1.07,0.99-1.67,1.33
			c-0.91,0.5-1.99,0.76-3.22,0.76c-1.48,0-2.8-0.39-3.92-1.15c-1.11-0.76-1.98-1.83-2.57-3.19c-0.59-1.34-0.88-2.91-0.88-4.65
			c0-1.31,0.18-2.5,0.54-3.56c0.36-1.07,0.88-1.98,1.56-2.72c0.67-0.74,1.46-1.3,2.34-1.68c0.88-0.37,1.86-0.56,2.9-0.56
			c1.25,0,2.36,0.25,3.28,0.73c0.67,0.35,1.31,0.85,1.92,1.49c0.06-0.63,0.27-1.14,0.62-1.53c0.43-0.48,1-0.73,1.67-0.73
			c0.96,0,1.62,0.34,1.96,1c0.3,0.59,0.44,1.4,0.44,2.47v12.27c0,1.43-0.16,2.69-0.46,3.73c-0.32,1.07-0.83,1.96-1.53,2.67
			c-0.7,0.7-1.63,1.23-2.75,1.56C182.03,103.9,180.66,104.07,179.04,104.07z M173.36,98.14c-0.4,0-0.73,0.13-1.01,0.39
			c-0.27,0.25-0.41,0.58-0.41,0.99c0,0.59,0.27,1.15,0.82,1.73c0.57,0.6,1.42,1.1,2.5,1.49c1.1,0.39,2.37,0.59,3.77,0.59
			c1.54,0,2.85-0.16,3.88-0.46c1-0.3,1.82-0.76,2.43-1.38c0.61-0.61,1.06-1.4,1.34-2.35c0.29-0.97,0.43-2.15,0.43-3.51V83.35
			c0-0.94-0.12-1.65-0.36-2.13c-0.2-0.4-0.62-0.59-1.29-0.59c-0.46,0-0.82,0.16-1.11,0.48c-0.3,0.33-0.45,0.82-0.45,1.45v1.68
			l-0.67-0.87c-0.72-0.93-1.5-1.62-2.32-2.06c-0.82-0.43-1.81-0.65-2.94-0.65c-0.94,0-1.82,0.17-2.61,0.5
			c-0.78,0.33-1.48,0.84-2.08,1.49c-0.6,0.66-1.07,1.49-1.4,2.45c-0.33,0.98-0.5,2.09-0.5,3.31c0,1.64,0.28,3.11,0.82,4.35
			c0.54,1.23,1.31,2.19,2.31,2.87c0.99,0.68,2.17,1.02,3.49,1.02c1.1,0,2.07-0.22,2.86-0.66c0.8-0.44,1.51-1.11,2.13-1.96l0.7-0.98
			l-0.02,1.2c-0.02,1.4-0.05,2.39-0.09,3.03c-0.04,0.67-0.2,1.3-0.46,1.88c-0.28,0.63-0.76,1.12-1.44,1.46
			c-0.66,0.33-1.57,0.5-2.71,0.5c-0.56,0-1.07-0.05-1.51-0.16c-0.46-0.11-0.86-0.28-1.19-0.5c-0.32-0.22-0.61-0.49-0.88-0.79
			c-0.24-0.29-0.48-0.57-0.71-0.85C174.31,98.37,173.87,98.14,173.36,98.14z M179.29,94.27c-1.3,0-2.37-0.49-3.19-1.45
			c-0.8-0.94-1.21-2.33-1.21-4.13c0-1.77,0.39-3.17,1.17-4.15c0.8-1.01,1.87-1.52,3.2-1.52c1.35,0,2.46,0.53,3.29,1.58
			c0.81,1.02,1.22,2.45,1.22,4.26c0,1.14-0.21,2.13-0.63,2.94c-0.42,0.82-0.98,1.44-1.66,1.85
			C180.79,94.07,180.06,94.27,179.29,94.27z M179.26,83.78c-1.1,0-1.95,0.4-2.61,1.24c-0.67,0.85-1.01,2.08-1.01,3.68
			c0,1.61,0.35,2.84,1.03,3.64c0.68,0.8,1.54,1.18,2.62,1.18c0.63,0,1.23-0.17,1.8-0.51c0.56-0.34,1.03-0.86,1.38-1.55
			c0.36-0.7,0.55-1.57,0.55-2.59c0-1.63-0.36-2.9-1.06-3.79C181.27,84.21,180.38,83.78,179.26,83.78z"/>
	</g>
</g>
<g>
	<g>
		<path class="st1" d="M-199.48,73.63v16.51h7.29c0.74,0,1.31,0.18,1.71,0.54c0.4,0.36,0.6,0.82,0.6,1.36c0,0.56-0.2,1.01-0.59,1.35
			c-0.39,0.35-0.96,0.52-1.72,0.52h-9.07c-1,0-1.72-0.22-2.16-0.67c-0.44-0.44-0.66-1.16-0.66-2.15V73.63
			c0-0.93,0.21-1.62,0.63-2.09c0.42-0.46,0.97-0.7,1.65-0.7c0.69,0,1.25,0.23,1.68,0.69C-199.69,71.99-199.48,72.69-199.48,73.63z"
			/>
		<path class="st1" d="M-192.19,94.29h-9.07c-1.1,0-1.92-0.26-2.43-0.78c-0.51-0.51-0.77-1.33-0.77-2.41V73.63
			c0-1.02,0.24-1.81,0.72-2.34c0.49-0.54,1.14-0.82,1.93-0.82c0.8,0,1.45,0.27,1.95,0.81c0.49,0.53,0.74,1.32,0.74,2.35v16.14h6.92
			c0.84,0,1.5,0.21,1.96,0.64c0.48,0.43,0.72,0.98,0.72,1.64c0,0.67-0.24,1.22-0.71,1.64C-190.68,94.09-191.34,94.29-192.19,94.29z
			 M-201.8,71.22c-0.57,0-1.02,0.19-1.37,0.57c-0.35,0.39-0.53,1.01-0.53,1.84V91.1c0,0.88,0.19,1.52,0.55,1.89
			c0.36,0.37,1,0.55,1.89,0.55h9.07c0.66,0,1.15-0.14,1.47-0.42c0.31-0.27,0.46-0.63,0.46-1.07c0-0.44-0.15-0.79-0.47-1.08
			c-0.32-0.29-0.81-0.44-1.46-0.44h-7.67V73.63c0-0.84-0.18-1.46-0.54-1.84C-200.75,71.41-201.21,71.22-201.8,71.22z"/>
	</g>
	<g>
		<path class="st1" d="M-170.04,85.72c0,1.26-0.2,2.42-0.59,3.48c-0.39,1.06-0.96,1.98-1.7,2.74c-0.74,0.76-1.63,1.35-2.66,1.76
			c-1.03,0.41-2.19,0.61-3.48,0.61c-1.28,0-2.43-0.21-3.45-0.62c-1.02-0.41-1.91-1-2.65-1.77c-0.75-0.77-1.31-1.68-1.7-2.72
			c-0.39-1.05-0.58-2.21-0.58-3.47c0-1.28,0.2-2.45,0.59-3.51c0.39-1.06,0.95-1.97,1.69-2.72c0.73-0.75,1.62-1.33,2.66-1.74
			c1.04-0.41,2.19-0.61,3.45-0.61c1.28,0,2.44,0.21,3.48,0.62c1.04,0.41,1.93,1,2.68,1.76c0.74,0.76,1.31,1.67,1.69,2.72
			C-170.23,83.29-170.04,84.45-170.04,85.72z M-174.28,85.72c0-1.72-0.38-3.06-1.14-4.02c-0.76-0.96-1.78-1.44-3.06-1.44
			c-0.83,0-1.55,0.21-2.18,0.64c-0.63,0.43-1.11,1.06-1.45,1.89c-0.34,0.84-0.51,1.81-0.51,2.93c0,1.1,0.17,2.07,0.5,2.89
			c0.33,0.83,0.81,1.46,1.44,1.9c0.62,0.44,1.36,0.66,2.21,0.66c1.28,0,2.3-0.48,3.06-1.45C-174.66,88.75-174.28,87.42-174.28,85.72
			z"/>
		<path class="st1" d="M-178.48,94.68c-1.32,0-2.53-0.22-3.59-0.65c-1.06-0.43-2-1.05-2.78-1.86c-0.78-0.8-1.38-1.76-1.79-2.85
			c-0.4-1.09-0.6-2.3-0.6-3.6c0-1.32,0.21-2.54,0.61-3.64c0.41-1.11,1-2.07,1.77-2.85c0.77-0.79,1.71-1.4,2.79-1.83
			c1.08-0.42,2.29-0.64,3.59-0.64c1.32,0,2.54,0.22,3.62,0.65c1.09,0.43,2.03,1.05,2.81,1.85c0.78,0.8,1.38,1.76,1.78,2.86
			c0.4,1.09,0.6,2.3,0.6,3.61c0,1.3-0.21,2.51-0.61,3.61c-0.41,1.11-1.01,2.07-1.79,2.87c-0.78,0.8-1.72,1.42-2.79,1.84
			C-175.93,94.46-177.14,94.68-178.48,94.68z M-178.48,77.5c-1.21,0-2.32,0.2-3.31,0.59c-0.99,0.39-1.84,0.94-2.53,1.65
			c-0.69,0.71-1.23,1.58-1.6,2.59c-0.37,1.02-0.56,2.15-0.56,3.38c0,1.22,0.19,2.34,0.56,3.34c0.37,0.99,0.91,1.87,1.62,2.59
			c0.71,0.73,1.56,1.29,2.53,1.68c0.97,0.39,2.09,0.59,3.31,0.59c1.24,0,2.36-0.2,3.34-0.58c0.98-0.39,1.83-0.95,2.53-1.67
			c0.7-0.72,1.25-1.6,1.62-2.61c0.37-1.02,0.56-2.14,0.56-3.35c0-1.22-0.19-2.35-0.56-3.35c-0.37-1-0.91-1.87-1.61-2.59
			c-0.7-0.72-1.56-1.28-2.55-1.68C-176.13,77.7-177.25,77.5-178.48,77.5z M-178.48,91.54c-0.92,0-1.73-0.24-2.42-0.73
			c-0.68-0.48-1.21-1.17-1.57-2.06c-0.35-0.87-0.53-1.89-0.53-3.03c0-1.16,0.18-2.19,0.54-3.07c0.37-0.9,0.9-1.6,1.59-2.06
			c0.69-0.47,1.49-0.71,2.39-0.71c1.39,0,2.52,0.53,3.35,1.58c0.81,1.02,1.22,2.45,1.22,4.26c0,1.78-0.41,3.2-1.22,4.23
			C-175.95,91-177.08,91.54-178.48,91.54z M-178.48,80.63c-0.74,0-1.41,0.19-1.97,0.58c-0.56,0.38-1.01,0.96-1.32,1.73
			c-0.32,0.79-0.48,1.72-0.48,2.78c0,1.05,0.16,1.98,0.48,2.75c0.31,0.75,0.75,1.34,1.31,1.73c0.56,0.4,1.22,0.59,1.99,0.59
			c1.17,0,2.07-0.43,2.76-1.3c0.7-0.89,1.06-2.16,1.06-3.77c0-1.63-0.36-2.9-1.06-3.79C-176.4,81.05-177.31,80.63-178.48,80.63z"/>
	</g>
	<g>
		<path class="st1" d="M-150.2,85.7c0,1.26-0.2,2.42-0.59,3.48c-0.39,1.06-0.96,1.98-1.7,2.74c-0.74,0.76-1.63,1.35-2.66,1.76
			c-1.03,0.41-2.19,0.61-3.48,0.61c-1.28,0-2.43-0.21-3.45-0.62c-1.02-0.41-1.91-1-2.65-1.77c-0.75-0.77-1.31-1.68-1.7-2.72
			c-0.39-1.05-0.58-2.21-0.58-3.47c0-1.28,0.2-2.45,0.59-3.51c0.39-1.06,0.95-1.97,1.69-2.72c0.73-0.75,1.62-1.33,2.66-1.74
			c1.04-0.41,2.19-0.61,3.45-0.61c1.28,0,2.44,0.21,3.48,0.62c1.04,0.41,1.93,1,2.68,1.76c0.74,0.76,1.31,1.67,1.69,2.72
			C-150.4,83.27-150.2,84.43-150.2,85.7z M-154.44,85.7c0-1.72-0.38-3.06-1.14-4.02c-0.76-0.96-1.78-1.44-3.06-1.44
			c-0.83,0-1.55,0.21-2.18,0.64c-0.63,0.43-1.11,1.06-1.45,1.89c-0.34,0.84-0.51,1.81-0.51,2.93c0,1.1,0.17,2.07,0.5,2.89
			c0.33,0.83,0.81,1.46,1.44,1.9c0.62,0.44,1.36,0.66,2.21,0.66c1.28,0,2.3-0.48,3.06-1.45C-154.82,88.73-154.44,87.4-154.44,85.7z"
			/>
		<path class="st1" d="M-158.64,94.66c-1.32,0-2.53-0.22-3.59-0.65c-1.06-0.43-2-1.06-2.78-1.86c-0.78-0.8-1.38-1.76-1.79-2.85
			c-0.4-1.09-0.6-2.3-0.6-3.6c0-1.32,0.21-2.54,0.61-3.64c0.41-1.11,1-2.07,1.77-2.85s1.71-1.4,2.79-1.83
			c1.08-0.42,2.29-0.64,3.59-0.64c1.32,0,2.54,0.22,3.62,0.65c1.09,0.43,2.03,1.05,2.81,1.85c0.78,0.8,1.38,1.76,1.78,2.86
			c0.4,1.09,0.6,2.3,0.6,3.61c0,1.3-0.21,2.51-0.61,3.61c-0.41,1.11-1.01,2.07-1.79,2.87c-0.78,0.8-1.72,1.42-2.79,1.84
			C-156.09,94.44-157.31,94.66-158.64,94.66z M-158.64,77.48c-1.21,0-2.32,0.2-3.31,0.59c-0.99,0.39-1.84,0.94-2.53,1.65
			c-0.69,0.71-1.23,1.58-1.6,2.59c-0.38,1.02-0.56,2.15-0.56,3.38c0,1.22,0.19,2.34,0.56,3.34c0.37,0.99,0.91,1.87,1.62,2.59
			c0.71,0.73,1.56,1.29,2.53,1.69c0.97,0.39,2.09,0.59,3.31,0.59c1.24,0,2.36-0.2,3.34-0.58c0.98-0.39,1.83-0.95,2.53-1.67
			c0.7-0.72,1.25-1.6,1.62-2.61c0.38-1.02,0.56-2.14,0.56-3.35c0-1.22-0.19-2.35-0.56-3.35c-0.37-1-0.91-1.87-1.61-2.59
			c-0.7-0.72-1.56-1.28-2.55-1.68C-156.29,77.68-157.41,77.48-158.64,77.48z M-158.64,91.52c-0.92,0-1.73-0.24-2.42-0.73
			c-0.68-0.48-1.21-1.17-1.57-2.06c-0.35-0.87-0.53-1.89-0.53-3.03c0-1.16,0.18-2.19,0.54-3.07c0.37-0.9,0.9-1.6,1.59-2.06
			c0.69-0.47,1.49-0.71,2.39-0.71c1.39,0,2.52,0.53,3.35,1.58c0.81,1.02,1.22,2.45,1.22,4.26c0,1.78-0.41,3.2-1.22,4.23
			C-156.12,90.98-157.24,91.52-158.64,91.52z M-158.64,80.61c-0.74,0-1.41,0.19-1.97,0.58c-0.56,0.38-1.01,0.96-1.32,1.73
			c-0.32,0.79-0.48,1.72-0.48,2.78c0,1.05,0.16,1.98,0.48,2.75c0.31,0.75,0.75,1.34,1.31,1.73c0.56,0.39,1.23,0.59,1.99,0.59
			c1.17,0,2.07-0.43,2.76-1.3c0.7-0.89,1.06-2.16,1.06-3.77c0-1.63-0.36-2.9-1.06-3.79C-156.56,81.03-157.47,80.61-158.64,80.61z"/>
	</g>
	<g>
		<path class="st1" d="M-143.22,79.49v0.51c0.79-0.98,1.61-1.7,2.46-2.16c0.85-0.46,1.81-0.69,2.89-0.69c1.29,0,2.48,0.34,3.56,1.01
			c1.09,0.67,1.94,1.65,2.57,2.94c0.63,1.29,0.94,2.82,0.94,4.58c0,1.3-0.18,2.49-0.55,3.58c-0.36,1.09-0.86,2-1.5,2.74
			c-0.64,0.74-1.39,1.3-2.25,1.7c-0.87,0.4-1.8,0.6-2.79,0.6c-1.2,0-2.21-0.24-3.02-0.73c-0.81-0.49-1.59-1.2-2.33-2.14v6.34
			c0,1.86-0.67,2.79-2.01,2.79c-0.79,0-1.31-0.24-1.57-0.72c-0.26-0.48-0.38-1.18-0.38-2.1V79.53c0-0.8,0.17-1.41,0.52-1.8
			c0.35-0.4,0.82-0.6,1.43-0.6c0.59,0,1.08,0.2,1.45,0.61C-143.41,78.15-143.22,78.73-143.22,79.49z M-135,85.64
			c0-1.11-0.17-2.07-0.51-2.87s-0.81-1.41-1.41-1.84c-0.6-0.43-1.26-0.64-1.99-0.64c-1.16,0-2.13,0.46-2.93,1.38
			c-0.79,0.92-1.19,2.27-1.19,4.05c0,1.68,0.39,2.99,1.18,3.92c0.79,0.93,1.77,1.4,2.93,1.4c0.7,0,1.34-0.2,1.94-0.61
			c0.59-0.41,1.07-1.02,1.43-1.83C-135.18,87.78-135,86.79-135,85.64z"/>
		<path class="st1" d="M-145.23,100.95c-0.93,0-1.57-0.31-1.9-0.92c-0.29-0.54-0.43-1.28-0.43-2.27V79.53c0-0.9,0.21-1.58,0.62-2.05
			c0.42-0.48,1-0.72,1.71-0.72c0.7,0,1.28,0.25,1.73,0.73c0.36,0.39,0.57,0.91,0.64,1.55c0.62-0.65,1.27-1.16,1.93-1.52
			c0.9-0.49,1.93-0.73,3.07-0.73c1.35,0,2.62,0.36,3.76,1.06c1.14,0.71,2.05,1.75,2.71,3.09c0.65,1.33,0.98,2.93,0.98,4.75
			c0,1.33-0.19,2.58-0.56,3.7c-0.38,1.13-0.91,2.09-1.57,2.87c-0.67,0.78-1.47,1.38-2.38,1.8c-0.91,0.42-1.9,0.63-2.95,0.63
			c-1.26,0-2.34-0.26-3.21-0.78c-0.61-0.36-1.2-0.85-1.76-1.45v5.33C-142.85,100.4-144.15,100.95-145.23,100.95z M-145.23,77.5
			c-0.5,0-0.87,0.15-1.15,0.47c-0.29,0.32-0.43,0.85-0.43,1.56v18.23c0,0.85,0.11,1.5,0.34,1.92c0.07,0.13,0.28,0.52,1.24,0.52
			c0.7,0,1.64-0.25,1.64-2.41v-7.43l0.67,0.85c0.71,0.9,1.45,1.59,2.23,2.04c0.75,0.45,1.7,0.67,2.83,0.67
			c0.93,0,1.82-0.19,2.63-0.56c0.81-0.37,1.52-0.91,2.12-1.61c0.6-0.7,1.08-1.58,1.43-2.61c0.35-1.04,0.53-2.21,0.53-3.46
			c0-1.7-0.31-3.18-0.91-4.42c-0.6-1.22-1.41-2.16-2.43-2.79c-1.02-0.63-2.15-0.95-3.37-0.95c-1.01,0-1.92,0.22-2.71,0.64
			c-0.8,0.43-1.59,1.13-2.34,2.06l-0.67,0.83V79.5c0-0.66-0.16-1.17-0.46-1.5C-144.36,77.66-144.75,77.5-145.23,77.5z M-138.9,91.41
			c-1.28,0-2.36-0.52-3.22-1.53c-0.84-1-1.27-2.4-1.27-4.16c0-1.87,0.43-3.31,1.28-4.3c0.87-1,1.95-1.51,3.21-1.51
			c0.8,0,1.55,0.24,2.21,0.71c0.65,0.47,1.17,1.14,1.53,2c0.36,0.84,0.54,1.86,0.54,3.02c0,1.2-0.19,2.25-0.57,3.11
			c-0.39,0.87-0.91,1.54-1.56,1.99C-137.41,91.19-138.13,91.41-138.9,91.41z M-138.9,80.66c-1.05,0-1.92,0.41-2.64,1.25
			c-0.73,0.84-1.1,2.13-1.1,3.81c0,1.58,0.37,2.82,1.09,3.68c0.72,0.85,1.59,1.27,2.65,1.27c0.62,0,1.19-0.18,1.72-0.55
			c0.53-0.37,0.97-0.93,1.3-1.68c0.34-0.76,0.51-1.71,0.51-2.81c0-1.06-0.16-1.97-0.48-2.72c-0.31-0.73-0.74-1.3-1.28-1.68
			C-137.66,80.85-138.26,80.66-138.9,80.66z"/>
	</g>
	<g>
		<path class="st1" d="M-123.78,73.26v6.45c0.79-0.83,1.6-1.46,2.43-1.9c0.83-0.44,1.85-0.66,3.06-0.66c1.4,0,2.63,0.33,3.69,1
			c1.06,0.67,1.88,1.63,2.46,2.89c0.58,1.26,0.87,2.76,0.87,4.49c0,1.28-0.16,2.45-0.49,3.52c-0.33,1.07-0.8,1.99-1.42,2.78
			s-1.37,1.39-2.25,1.82c-0.88,0.43-1.85,0.64-2.92,0.64c-0.65,0-1.26-0.08-1.83-0.23c-0.57-0.15-1.06-0.36-1.46-0.61
			c-0.4-0.25-0.75-0.51-1.03-0.78c-0.28-0.27-0.66-0.67-1.12-1.21v0.42c0,0.79-0.19,1.4-0.57,1.8c-0.38,0.41-0.87,0.61-1.45,0.61
			c-0.6,0-1.08-0.2-1.43-0.61c-0.36-0.41-0.53-1.01-0.53-1.8V73.44c0-0.86,0.17-1.5,0.52-1.94c0.35-0.44,0.83-0.66,1.45-0.66
			c0.65,0,1.15,0.21,1.5,0.63C-123.96,71.89-123.78,72.48-123.78,73.26z M-123.58,85.81c0,1.68,0.38,2.97,1.15,3.88
			c0.77,0.9,1.78,1.35,3.03,1.35c1.06,0,1.98-0.46,2.75-1.38c0.77-0.92,1.15-2.25,1.15-3.97c0-1.11-0.16-2.07-0.48-2.88
			c-0.32-0.8-0.77-1.43-1.36-1.86c-0.59-0.44-1.27-0.66-2.06-0.66c-0.8,0-1.52,0.22-2.15,0.66c-0.63,0.44-1.12,1.07-1.49,1.9
			C-123.4,83.68-123.58,84.66-123.58,85.81z"/>
		<path class="st1" d="M-118.33,94.68c-0.68,0-1.33-0.08-1.93-0.25c-0.6-0.16-1.13-0.38-1.56-0.65c-0.42-0.27-0.79-0.55-1.09-0.83
			c-0.15-0.14-0.32-0.32-0.52-0.53c-0.07,0.64-0.29,1.15-0.64,1.53c-0.45,0.48-1.04,0.73-1.73,0.73c-0.71,0-1.29-0.25-1.71-0.74
			c-0.42-0.48-0.63-1.17-0.63-2.05V73.44c0-0.94,0.2-1.67,0.6-2.17c0.42-0.53,1-0.8,1.74-0.8c0.76,0,1.36,0.26,1.79,0.76
			c0.41,0.49,0.61,1.17,0.61,2.03v5.57c0.62-0.56,1.25-1.01,1.88-1.34c0.88-0.47,1.97-0.7,3.24-0.7c1.47,0,2.78,0.36,3.89,1.06
			c1.12,0.7,1.99,1.73,2.6,3.05c0.6,1.31,0.91,2.87,0.91,4.65c0,1.31-0.17,2.53-0.5,3.63c-0.34,1.11-0.84,2.09-1.48,2.9
			c-0.65,0.82-1.45,1.47-2.38,1.92C-116.18,94.45-117.22,94.68-118.33,94.68z M-124.16,90.47l0.66,0.76
			c0.45,0.52,0.82,0.92,1.1,1.18c0.26,0.25,0.59,0.5,0.97,0.74c0.37,0.23,0.83,0.42,1.36,0.57c0.54,0.15,1.12,0.22,1.74,0.22
			c1,0,1.93-0.2,2.75-0.6c0.83-0.4,1.54-0.98,2.12-1.71c0.59-0.74,1.04-1.63,1.35-2.65c0.31-1.03,0.47-2.18,0.47-3.41
			c0-1.67-0.28-3.13-0.84-4.34c-0.55-1.19-1.33-2.11-2.32-2.73c-0.99-0.62-2.17-0.94-3.49-0.94c-1.15,0-2.12,0.21-2.89,0.61
			c-0.79,0.42-1.57,1.03-2.33,1.82l-0.65,0.67v-7.38c0-0.68-0.15-1.2-0.44-1.55c-0.28-0.33-0.68-0.49-1.21-0.49
			c-0.5,0-0.88,0.17-1.15,0.52c-0.29,0.37-0.44,0.94-0.44,1.71v18.45c0,0.7,0.15,1.22,0.44,1.56c0.28,0.32,0.66,0.48,1.15,0.48
			c0.48,0,0.87-0.16,1.18-0.49c0.31-0.33,0.47-0.85,0.47-1.55V90.47z M-119.4,91.41c-1.36,0-2.47-0.5-3.31-1.49
			c-0.82-0.97-1.24-2.35-1.24-4.12c0-1.19,0.19-2.24,0.57-3.11c0.39-0.89,0.93-1.59,1.61-2.06c1.37-0.95,3.33-0.97,4.65,0.01
			c0.64,0.48,1.14,1.16,1.49,2.03c0.34,0.85,0.51,1.86,0.51,3.02c0,1.81-0.42,3.22-1.24,4.21C-117.21,90.9-118.23,91.41-119.4,91.41
			z M-119.4,80.66c-0.72,0-1.37,0.2-1.94,0.59c-0.57,0.4-1.02,0.98-1.36,1.75c-0.34,0.78-0.51,1.72-0.51,2.81
			c0,1.58,0.36,2.8,1.06,3.63c0.7,0.82,1.6,1.22,2.74,1.22c0.95,0,1.76-0.41,2.46-1.25c0.71-0.85,1.07-2.1,1.07-3.73
			c0-1.06-0.15-1.98-0.45-2.74c-0.29-0.74-0.71-1.31-1.24-1.7C-118.09,80.85-118.69,80.66-119.4,80.66z"/>
	</g>
	<g>
		<path class="st1" d="M-104.02,88.21v3.53c0,0.86-0.2,1.5-0.6,1.93s-0.91,0.64-1.53,0.64c-0.61,0-1.11-0.22-1.5-0.65
			c-0.39-0.43-0.59-1.07-0.59-1.92V79.97c0-1.9,0.69-2.85,2.06-2.85c0.7,0,1.21,0.22,1.52,0.67c0.31,0.44,0.48,1.1,0.51,1.96
			c0.51-0.87,1.02-1.52,1.55-1.96c0.53-0.44,1.24-0.67,2.13-0.67c0.89,0,1.75,0.22,2.58,0.67s1.25,1.03,1.25,1.76
			c0,0.52-0.18,0.94-0.53,1.28c-0.36,0.33-0.74,0.5-1.15,0.5c-0.15,0-0.53-0.09-1.12-0.29c-0.59-0.19-1.12-0.29-1.57-0.29
			c-0.62,0-1.12,0.16-1.52,0.49c-0.39,0.33-0.7,0.81-0.91,1.45c-0.22,0.64-0.37,1.4-0.45,2.28
			C-103.98,85.86-104.02,86.94-104.02,88.21z"/>
		<path class="st1" d="M-106.15,94.68c-0.72,0-1.31-0.26-1.78-0.77c-0.45-0.5-0.69-1.23-0.69-2.17V79.97c0-2.66,1.32-3.22,2.43-3.22
			c0.83,0,1.44,0.28,1.82,0.83c0.21,0.3,0.36,0.66,0.45,1.1c0.35-0.48,0.7-0.87,1.06-1.17c0.6-0.5,1.4-0.75,2.37-0.75
			c0.94,0,1.87,0.24,2.76,0.71c0.96,0.51,1.45,1.22,1.45,2.1c0,0.62-0.22,1.14-0.65,1.55c-0.43,0.4-0.9,0.6-1.41,0.6
			c-0.14,0-0.4-0.03-1.24-0.3c-1.26-0.41-2.15-0.35-2.73,0.13c-0.34,0.28-0.6,0.71-0.8,1.28c-0.21,0.61-0.35,1.35-0.43,2.2
			c-0.08,0.86-0.12,1.94-0.12,3.19v3.53c0,0.95-0.24,1.69-0.71,2.18C-104.82,94.42-105.43,94.68-106.15,94.68z M-106.19,77.5
			c-0.72,0-1.68,0.26-1.68,2.47v11.76c0,0.75,0.17,1.31,0.49,1.67c0.32,0.35,0.72,0.53,1.22,0.53c0.52,0,0.93-0.17,1.26-0.52
			c0.33-0.35,0.5-0.92,0.5-1.67v-3.53c0-1.28,0.04-2.38,0.13-3.26c0.08-0.91,0.24-1.7,0.47-2.37c0.24-0.7,0.58-1.25,1.03-1.62
			c0.78-0.65,1.92-0.76,3.44-0.27c0.79,0.25,0.98,0.27,1.01,0.27c0.32,0,0.61-0.13,0.9-0.4c0.28-0.26,0.42-0.59,0.42-1
			c0-0.59-0.34-1.06-1.05-1.43c-1.53-0.81-3.36-0.83-4.3-0.04c-0.5,0.41-0.99,1.04-1.47,1.87l-0.65,1.12l-0.05-1.29
			c-0.03-0.79-0.18-1.38-0.44-1.76C-105.21,77.67-105.61,77.5-106.19,77.5z"/>
	</g>
	<g>
		<path class="st1" d="M-82.52,91.87v-0.54c-0.51,0.64-1.04,1.18-1.59,1.61c-0.56,0.43-1.17,0.76-1.83,0.97
			c-0.66,0.21-1.41,0.32-2.26,0.32c-1.02,0-1.94-0.21-2.75-0.63c-0.81-0.42-1.44-1.01-1.88-1.75c-0.53-0.9-0.79-2.19-0.79-3.87V79.6
			c0-0.85,0.19-1.48,0.57-1.9c0.38-0.42,0.89-0.63,1.52-0.63c0.64,0,1.16,0.21,1.55,0.63c0.39,0.42,0.59,1.05,0.59,1.89v6.76
			c0,0.98,0.08,1.8,0.25,2.47c0.16,0.66,0.46,1.19,0.89,1.56c0.43,0.38,1.01,0.57,1.74,0.57c0.71,0,1.38-0.21,2.01-0.63
			c0.63-0.42,1.09-0.97,1.38-1.66c0.24-0.6,0.36-1.91,0.36-3.93V79.6c0-0.84,0.2-1.46,0.59-1.89c0.39-0.42,0.9-0.63,1.53-0.63
			c0.63,0,1.13,0.21,1.52,0.63c0.38,0.42,0.57,1.05,0.57,1.9v12.24c0,0.8-0.18,1.41-0.55,1.81c-0.37,0.4-0.84,0.6-1.42,0.6
			c-0.58,0-1.05-0.21-1.43-0.63C-82.34,93.21-82.52,92.62-82.52,91.87z"/>
		<path class="st1" d="M-80.53,94.62c-0.69,0-1.26-0.25-1.71-0.75c-0.36-0.4-0.57-0.92-0.64-1.57c-0.33,0.35-0.66,0.65-1.01,0.92
			c-0.59,0.46-1.24,0.8-1.94,1.03c-0.7,0.22-1.5,0.33-2.37,0.33c-1.08,0-2.06-0.23-2.92-0.68c-0.87-0.45-1.55-1.09-2.03-1.89
			c-0.56-0.95-0.84-2.32-0.84-4.06V79.6c0-0.94,0.23-1.66,0.67-2.15c0.45-0.5,1.06-0.75,1.79-0.75c0.75,0,1.36,0.25,1.82,0.75
			c0.46,0.49,0.69,1.21,0.69,2.14v6.76c0,0.95,0.08,1.75,0.24,2.38c0.15,0.59,0.41,1.05,0.77,1.37c0.36,0.32,0.85,0.47,1.49,0.47
			c0.64,0,1.23-0.19,1.8-0.57c0.56-0.38,0.98-0.88,1.24-1.49c0.15-0.37,0.33-1.34,0.33-3.78V79.6c0-0.93,0.23-1.65,0.69-2.14
			c0.46-0.5,1.07-0.75,1.81-0.75s1.34,0.25,1.79,0.75c0.45,0.49,0.67,1.21,0.67,2.15v12.24c0,0.9-0.22,1.59-0.65,2.06
			C-79.27,94.38-79.84,94.62-80.53,94.62z M-82.15,90.25v1.62c0,0.65,0.16,1.16,0.47,1.51c0.3,0.34,0.68,0.5,1.15,0.5
			c0.47,0,0.84-0.16,1.14-0.48c0.3-0.33,0.45-0.85,0.45-1.56V79.6c0-0.74-0.16-1.3-0.47-1.64c-0.31-0.34-0.72-0.5-1.24-0.5
			c-0.53,0-0.94,0.17-1.26,0.51c-0.32,0.35-0.49,0.9-0.49,1.63v5.14c0,2.09-0.12,3.42-0.38,4.07c-0.32,0.75-0.83,1.37-1.52,1.83
			c-0.69,0.46-1.44,0.7-2.22,0.7c-0.82,0-1.49-0.22-1.99-0.66c-0.49-0.43-0.82-1.02-1.01-1.75c-0.17-0.69-0.26-1.55-0.26-2.56V79.6
			c0-0.73-0.16-1.28-0.49-1.63c-0.32-0.35-0.74-0.51-1.27-0.51c-0.52,0-0.93,0.17-1.24,0.5c-0.31,0.34-0.47,0.9-0.47,1.64v8.37
			c0,1.61,0.25,2.84,0.74,3.68c0.4,0.68,0.99,1.22,1.73,1.61c0.75,0.39,1.62,0.59,2.57,0.59c0.8,0,1.52-0.1,2.15-0.3
			c0.62-0.2,1.19-0.5,1.71-0.91c0.53-0.41,1.05-0.93,1.53-1.55L-82.15,90.25z"/>
	</g>
	<g>
		<path class="st1" d="M-59.07,80.22v12.27c0,1.4-0.15,2.61-0.45,3.62c-0.3,1.01-0.78,1.85-1.44,2.51
			c-0.66,0.66-1.52,1.15-2.59,1.47c-1.07,0.32-2.4,0.48-3.98,0.48c-1.45,0-2.75-0.2-3.9-0.61c-1.15-0.41-2.03-0.93-2.65-1.58
			c-0.62-0.64-0.93-1.31-0.93-1.99c0-0.52,0.18-0.94,0.53-1.26c0.35-0.33,0.77-0.49,1.27-0.49c0.62,0,1.16,0.27,1.62,0.82
			c0.23,0.28,0.46,0.56,0.7,0.84c0.24,0.28,0.51,0.53,0.8,0.73c0.29,0.2,0.65,0.35,1.06,0.45c0.41,0.1,0.89,0.15,1.42,0.15
			c1.09,0,1.94-0.15,2.55-0.46c0.6-0.3,1.03-0.73,1.27-1.28c0.24-0.55,0.38-1.13,0.43-1.76c0.04-0.62,0.07-1.63,0.09-3.01
			c-0.65,0.91-1.4,1.6-2.25,2.07c-0.85,0.47-1.86,0.71-3.04,0.71c-1.41,0-2.65-0.36-3.71-1.08c-1.06-0.72-1.87-1.73-2.44-3.03
			c-0.57-1.3-0.85-2.8-0.85-4.5c0-1.27,0.17-2.41,0.52-3.44c0.35-1.02,0.84-1.88,1.48-2.58c0.64-0.7,1.38-1.23,2.21-1.59
			c0.84-0.36,1.75-0.53,2.75-0.53c1.2,0,2.23,0.23,3.11,0.69c0.88,0.46,1.69,1.18,2.44,2.16v-0.57c0-0.73,0.18-1.3,0.54-1.7
			c0.36-0.4,0.83-0.6,1.39-0.6c0.81,0,1.36,0.27,1.62,0.8C-59.2,78.46-59.07,79.22-59.07,80.22z M-71.31,85.58
			c0,1.71,0.37,3.01,1.12,3.88c0.75,0.88,1.71,1.31,2.9,1.31c0.7,0,1.36-0.19,1.99-0.56c0.62-0.38,1.13-0.94,1.52-1.7
			c0.39-0.76,0.59-1.68,0.59-2.76c0-1.72-0.38-3.06-1.14-4.02c-0.76-0.96-1.76-1.44-2.99-1.44c-1.21,0-2.17,0.46-2.9,1.38
			C-70.94,82.58-71.31,83.88-71.31,85.58z"/>
		<path class="st1" d="M-67.53,100.95c-1.49,0-2.84-0.21-4.02-0.63c-1.2-0.43-2.14-0.99-2.79-1.67c-0.69-0.71-1.03-1.47-1.03-2.25
			c0-0.62,0.22-1.14,0.65-1.54c0.42-0.39,0.93-0.59,1.52-0.59c0.73,0,1.37,0.32,1.91,0.95c0.23,0.28,0.46,0.56,0.7,0.84
			c0.22,0.26,0.47,0.48,0.73,0.66c0.25,0.17,0.57,0.31,0.94,0.39c0.38,0.09,0.83,0.14,1.34,0.14c1.03,0,1.83-0.14,2.38-0.42
			c0.53-0.27,0.89-0.62,1.09-1.09c0.22-0.5,0.36-1.05,0.39-1.63c0.03-0.44,0.05-1.08,0.07-1.91c-0.51,0.54-1.07,0.99-1.67,1.33
			c-0.91,0.5-1.99,0.76-3.22,0.76c-1.48,0-2.8-0.39-3.92-1.15c-1.11-0.76-1.98-1.83-2.57-3.19c-0.59-1.34-0.88-2.91-0.88-4.65
			c0-1.31,0.18-2.5,0.54-3.56c0.36-1.07,0.88-1.98,1.56-2.72c0.67-0.74,1.46-1.3,2.34-1.68c0.88-0.37,1.86-0.56,2.9-0.56
			c1.25,0,2.36,0.25,3.28,0.73c0.67,0.35,1.31,0.85,1.92,1.49c0.06-0.63,0.27-1.14,0.62-1.53c0.43-0.48,1-0.73,1.67-0.73
			c0.96,0,1.62,0.34,1.96,1c0.3,0.59,0.44,1.4,0.44,2.47v12.27c0,1.43-0.16,2.69-0.46,3.73c-0.32,1.07-0.83,1.96-1.53,2.67
			c-0.7,0.7-1.63,1.23-2.75,1.56C-64.54,100.78-65.91,100.95-67.53,100.95z M-73.21,95.02c-0.4,0-0.73,0.13-1.01,0.39
			c-0.27,0.25-0.41,0.58-0.41,0.99c0,0.59,0.27,1.15,0.82,1.73c0.57,0.6,1.42,1.1,2.5,1.49c1.1,0.39,2.37,0.59,3.77,0.59
			c1.54,0,2.85-0.16,3.88-0.46c1-0.3,1.82-0.76,2.43-1.38c0.61-0.61,1.06-1.4,1.34-2.35c0.29-0.97,0.43-2.15,0.43-3.51V80.22
			c0-0.94-0.12-1.65-0.36-2.13c-0.2-0.4-0.62-0.59-1.29-0.59c-0.46,0-0.82,0.16-1.11,0.48c-0.3,0.33-0.45,0.82-0.45,1.45v1.68
			l-0.67-0.87c-0.72-0.93-1.5-1.62-2.32-2.06c-0.82-0.43-1.81-0.65-2.94-0.65c-0.94,0-1.82,0.17-2.61,0.5
			c-0.78,0.33-1.48,0.84-2.08,1.49c-0.6,0.66-1.07,1.49-1.4,2.45c-0.33,0.98-0.5,2.09-0.5,3.31c0,1.64,0.28,3.11,0.82,4.35
			c0.54,1.23,1.31,2.19,2.31,2.87c0.99,0.68,2.17,1.02,3.49,1.02c1.1,0,2.07-0.22,2.86-0.66c0.8-0.44,1.51-1.11,2.13-1.96l0.7-0.98
			l-0.02,1.2c-0.02,1.4-0.05,2.39-0.09,3.03c-0.04,0.67-0.2,1.3-0.46,1.88c-0.28,0.63-0.76,1.12-1.44,1.46
			c-0.66,0.33-1.57,0.5-2.71,0.5c-0.56,0-1.07-0.05-1.51-0.16c-0.46-0.11-0.86-0.28-1.19-0.5c-0.32-0.22-0.61-0.49-0.88-0.79
			c-0.24-0.29-0.48-0.57-0.71-0.85C-72.26,95.24-72.7,95.02-73.21,95.02z M-67.28,91.15c-1.3,0-2.37-0.49-3.19-1.45
			c-0.8-0.94-1.21-2.33-1.21-4.13c0-1.77,0.39-3.17,1.17-4.15c0.8-1.01,1.87-1.52,3.2-1.52c1.35,0,2.46,0.53,3.29,1.58
			c0.81,1.02,1.22,2.45,1.22,4.26c0,1.14-0.21,2.13-0.63,2.94c-0.42,0.82-0.98,1.44-1.66,1.85C-65.78,90.94-66.51,91.15-67.28,91.15
			z M-67.31,80.66c-1.1,0-1.95,0.4-2.61,1.24c-0.67,0.85-1.01,2.08-1.01,3.68c0,1.61,0.35,2.84,1.03,3.64
			c0.68,0.8,1.54,1.18,2.62,1.18c0.63,0,1.23-0.17,1.8-0.51c0.56-0.34,1.03-0.86,1.38-1.55c0.36-0.7,0.55-1.57,0.55-2.59
			c0-1.63-0.36-2.9-1.06-3.79C-65.3,81.08-66.19,80.66-67.31,80.66z"/>
	</g>
</g>
</svg>
