<?xml version="1.0" encoding="utf-8"?>
<!-- Generator: Adobe Illustrator 23.0.2, SVG Export Plug-In . SVG Version: 6.00 Build 0)  -->
<svg version="1.1" id="Laag_1" xmlns="http://www.w3.org/2000/svg" xmlns:xlink="http://www.w3.org/1999/xlink" x="0px" y="0px"
	 viewBox="0 0 292 306" style="enable-background:new 0 0 292 306;" xml:space="preserve">
<style type="text/css">
	.st0{fill:#4BBBAA;}
	.st1{fill:#F04742;stroke:#272726;stroke-width:2.5;stroke-linejoin:round;stroke-miterlimit:10;}
	.st2{fill:#93D7F4;stroke:#272726;stroke-width:2.5;stroke-linejoin:round;stroke-miterlimit:10;}
	.st3{fill:#D7D7D7;stroke:#272726;stroke-width:2.5;stroke-linejoin:round;stroke-miterlimit:10;}
	.st4{fill:#272726;}
	.st5{fill:#C3C3C3;}
</style>
<ellipse class="st0" cx="145.5" cy="293.5" rx="175.5" ry="46.5"/>
<g>
	<path class="st1" d="M227,158.33V139.8c0-6.6,5.4-12,12-12h8.36c-3.37-11.38-13.93-19.74-26.36-19.74H93
		c-26.54,0-48.26,21.72-48.26,48.26v44.39c0,15.12,12.37,27.49,27.49,27.49H221c15.12,0,27.49-12.37,27.49-27.49v-30.37H239
		C232.4,170.33,227,164.93,227,158.33z"/>
	<path class="st2" d="M247.37,127.8H239c-6.6,0-12,5.4-12,12v18.53c0,6.6,5.4,12,12,12h9.49v-34.79
		C248.49,132.86,248.1,130.26,247.37,127.8z"/>
</g>
<path class="st3" d="M47.84,228.19h28.24c5.75,0,10.45-4.7,10.45-10.45v0c0-5.75-4.7-10.45-10.45-10.45H47.84
	c-5.75,0-10.45,4.7-10.45,10.45v0C37.39,223.49,42.09,228.19,47.84,228.19z"/>
<path class="st3" d="M213.5,228.19h30.18c5.32,0,9.67-4.35,9.67-9.67v0c0-5.32-4.35-9.67-9.67-9.67H213.5
	c-5.32,0-9.67,4.35-9.67,9.67v0C203.83,223.84,208.18,228.19,213.5,228.19z"/>
<path class="st4" d="M234.14,197.63L234.14,197.63c-1.6,0-2.9-1.31-2.9-2.9v-5.42c0-1.6,1.31-2.9,2.9-2.9l0,0
	c1.6,0,2.9,1.31,2.9,2.9v5.42C237.04,196.32,235.74,197.63,234.14,197.63z"/>
<circle class="st4" cx="91.18" cy="227.03" r="22.05"/>
<circle class="st5" cx="91.86" cy="226.82" r="7.16"/>
<circle class="st4" cx="201.41" cy="227.03" r="22.05"/>
<circle class="st5" cx="202.08" cy="226.82" r="7.16"/>
<g>
	<path class="st2" d="M73.96,170.54h123.38c6.6,0,12-5.4,12-12v-18.95c0-6.6-5.4-12-12-12H88.88c-14.8,0-26.92,12.11-26.92,26.92
		v4.03C61.96,165.14,67.36,170.54,73.96,170.54z"/>
	<line class="st2" x1="93.49" y1="127.59" x2="93.49" y2="170.54"/>
	<line class="st2" x1="135.65" y1="127.59" x2="135.65" y2="170.54"/>
	<line class="st2" x1="175.52" y1="127.59" x2="175.52" y2="170.33"/>
</g>
</svg>
