<?xml version="1.0" encoding="utf-8"?>
<!-- Generator: Adobe Illustrator 23.0.2, SVG Export Plug-In . SVG Version: 6.00 Build 0)  -->
<svg version="1.1" id="Laag_1" xmlns="http://www.w3.org/2000/svg" xmlns:xlink="http://www.w3.org/1999/xlink" x="0px" y="0px"
	 viewBox="0 0 292 306" style="enable-background:new 0 0 292 306;" xml:space="preserve">
<style type="text/css">
	.st0{fill:#F04742;stroke:#272726;stroke-width:2.5;stroke-linejoin:round;stroke-miterlimit:10;}
	.st1{fill:#93D7F4;stroke:#272726;stroke-width:2.5;stroke-linejoin:round;stroke-miterlimit:10;}
	.st2{fill:#D7D7D7;stroke:#272726;stroke-width:2.5;stroke-linejoin:round;stroke-miterlimit:10;}
	.st3{fill:#272726;}
	.st4{fill:#C3C3C3;}
</style>
<g>
	<path class="st0" d="M234,180.33V161.8c0-6.6,5.4-12,12-12h8.36c-3.37-11.38-13.93-19.74-26.36-19.74H100
		c-26.54,0-48.26,21.72-48.26,48.26v44.39c0,15.12,12.37,27.49,27.49,27.49H228c15.12,0,27.49-12.37,27.49-27.49v-30.37H246
		C239.4,192.33,234,186.93,234,180.33z"/>
	<path class="st1" d="M254.37,149.8H246c-6.6,0-12,5.4-12,12v18.53c0,6.6,5.4,12,12,12h9.49v-34.79
		C255.49,154.86,255.1,152.26,254.37,149.8z"/>
</g>
<path class="st2" d="M54.84,250.19h28.24c5.75,0,10.45-4.7,10.45-10.45v0c0-5.75-4.7-10.45-10.45-10.45H54.84
	c-5.75,0-10.45,4.7-10.45,10.45v0C44.39,245.49,49.09,250.19,54.84,250.19z"/>
<path class="st2" d="M220.5,250.19h30.18c5.32,0,9.67-4.35,9.67-9.67v0c0-5.32-4.35-9.67-9.67-9.67H220.5
	c-5.32,0-9.67,4.35-9.67,9.67v0C210.83,245.84,215.18,250.19,220.5,250.19z"/>
<path class="st3" d="M241.14,219.63L241.14,219.63c-1.6,0-2.9-1.31-2.9-2.9v-5.42c0-1.6,1.31-2.9,2.9-2.9l0,0
	c1.6,0,2.9,1.31,2.9,2.9v5.42C244.04,218.32,242.74,219.63,241.14,219.63z"/>
<circle class="st3" cx="98.18" cy="249.03" r="22.05"/>
<circle class="st4" cx="98.86" cy="248.82" r="7.16"/>
<circle class="st3" cx="208.41" cy="249.03" r="22.05"/>
<circle class="st4" cx="209.08" cy="248.82" r="7.16"/>
<g>
	<path class="st1" d="M80.96,192.54h123.38c6.6,0,12-5.4,12-12v-18.95c0-6.6-5.4-12-12-12H95.88c-14.8,0-26.92,12.11-26.92,26.92
		v4.03C68.96,187.14,74.36,192.54,80.96,192.54z"/>
	<line class="st1" x1="100.49" y1="149.59" x2="100.49" y2="192.54"/>
	<line class="st1" x1="142.65" y1="149.59" x2="142.65" y2="192.54"/>
	<line class="st1" x1="182.52" y1="149.59" x2="182.52" y2="192.33"/>
</g>
</svg>
