<?xml version="1.0" encoding="utf-8"?>
<!-- Generator: Adobe Illustrator 23.0.2, SVG Export Plug-In . SVG Version: 6.00 Build 0)  -->
<svg version="1.1" id="Laag_1" xmlns="http://www.w3.org/2000/svg" xmlns:xlink="http://www.w3.org/1999/xlink" x="0px" y="0px"
	 viewBox="0 0 228 121" style="enable-background:new 0 0 228 121;" xml:space="preserve">
<style type="text/css">
	.st0{fill:#E79B24;}
	.st1{fill:#68B8A7;}
	.st2{fill:#CCCCCC;}
	.st3{fill:#FFFFFF;}
</style>
<g>
	<path class="st0" d="M134.59,43.26c-2.08,0.24-4.15,0.8-6.17,1.67c7.91,8.18,10.22,19.28,10.36,20.01
		c0.55,2.88,3.06,4.88,5.89,4.88c0.37,0,0.75-0.03,1.13-0.11c3.25-0.62,5.39-3.76,4.77-7.01c-0.95-5.01-3.31-11.72-7.37-18.14
		l-0.3-0.11C140.2,43.4,137.4,43.01,134.59,43.26z"/>
	<path class="st0" d="M130.09,30.83c-5.85-3.9-13.08-6.49-21.9-6.59c-0.17,0-0.34,0-0.5,0c-27.77,0-38.35,25.33-40.07,38.81
		c-0.42,3.29,1.91,6.29,5.19,6.71c3.29,0.42,6.29-1.91,6.71-5.19c0.01-0.07,1.04-7.48,5.19-14.67c5.29-9.17,13.12-13.74,23.35-13.65
		c2.82,0.03,5.39,0.43,7.74,1.08l0.16-0.12C120.24,34.02,124.99,31.88,130.09,30.83z"/>
	<path class="st1" d="M160.92,44.46c-6.12-7.96-15.2-12.52-24.71-12.52c-0.9,0-1.79,0.04-2.69,0.12l-0.1,0.01
		c-0.45,0.05-0.89,0.11-1.34,0.18c-5.18,0.79-10.01,2.79-14.22,5.73c-8.01,5.59-13.78,14.58-15.44,25.09
		c-0.2,1.25,0.11,2.51,0.85,3.53c0.75,1.03,1.85,1.7,3.1,1.9c2.64,0.41,5.03-1.39,5.43-3.95c1.49-9.49,7.4-17.28,15.26-20.94
		c2.3-1.07,4.77-1.8,7.34-2.09c2.45-0.22,4.87,0.02,7.2,0.66c4.53,1.25,8.67,4.03,11.77,8.07c1.59,2.08,4.58,2.47,6.66,0.87
		c1.01-0.77,1.65-1.89,1.82-3.15S161.69,45.46,160.92,44.46z"/>
</g>
<rect x="247.49" y="4" class="st2" width="236.51" height="121"/>
<g>
	<path class="st3" d="M380.86,46.53c-2.08,0.24-4.15,0.8-6.17,1.67c7.91,8.18,10.22,19.28,10.36,20.01
		c0.55,2.88,3.06,4.88,5.89,4.88c0.37,0,0.75-0.03,1.13-0.11c3.25-0.62,5.39-3.76,4.77-7.01c-0.95-5.01-3.31-11.72-7.37-18.14
		l-0.3-0.11C386.46,46.67,383.66,46.27,380.86,46.53z"/>
	<path class="st3" d="M376.35,34.1c-5.85-3.9-13.08-6.49-21.9-6.59c-0.17,0-0.34,0-0.5,0c-27.77,0-38.35,25.33-40.07,38.81
		c-0.42,3.29,1.91,6.29,5.19,6.71c3.29,0.42,6.29-1.91,6.71-5.19c0.01-0.07,1.04-7.48,5.19-14.67c5.29-9.17,13.12-13.74,23.35-13.65
		c2.82,0.03,5.39,0.43,7.74,1.08l0.16-0.12C366.51,37.29,371.26,35.15,376.35,34.1z"/>
	<path class="st3" d="M407.19,47.73c-6.12-7.96-15.2-12.52-24.71-12.52c-0.9,0-1.79,0.04-2.69,0.12l-0.1,0.01
		c-0.45,0.05-0.89,0.11-1.34,0.18c-5.18,0.79-10.01,2.79-14.22,5.73c-8.01,5.59-13.78,14.58-15.44,25.09
		c-0.2,1.25,0.11,2.51,0.85,3.53c0.75,1.03,1.85,1.7,3.1,1.9c2.64,0.41,5.03-1.39,5.43-3.95c1.49-9.49,7.4-17.28,15.26-20.94
		c2.3-1.07,4.77-1.8,7.34-2.09c2.45-0.22,4.87,0.02,7.2,0.66c4.53,1.25,8.67,4.03,11.77,8.07c1.59,2.08,4.58,2.47,6.66,0.87
		c1.01-0.77,1.65-1.89,1.82-3.15S407.96,48.73,407.19,47.73z"/>
</g>
<g>
	<g>
		<path d="M870.05,46.89c-2.08,0.24-4.15,0.8-6.17,1.67c7.91,8.18,10.22,19.28,10.36,20.01c0.55,2.88,3.06,4.88,5.89,4.88
			c0.37,0,0.75-0.03,1.13-0.11c3.25-0.62,5.39-3.76,4.77-7.01c-0.95-5.01-3.31-11.72-7.37-18.14l-0.3-0.11
			C875.66,47.04,872.86,46.64,870.05,46.89z"/>
		<path d="M865.55,34.47c-5.85-3.9-13.08-6.49-21.9-6.59c-0.17,0-0.34,0-0.5,0c-27.77,0-38.35,25.33-40.07,38.81
			c-0.42,3.29,1.91,6.29,5.19,6.71c3.29,0.42,6.29-1.91,6.71-5.19c0.01-0.07,1.04-7.48,5.19-14.67
			c5.29-9.17,13.12-13.74,23.35-13.65c2.82,0.03,5.39,0.43,7.74,1.08l0.16-0.12C855.7,37.65,860.46,35.52,865.55,34.47z"/>
		<path d="M896.38,48.09c-6.12-7.96-15.2-12.52-24.71-12.52c-0.9,0-1.79,0.04-2.69,0.12l-0.1,0.01c-0.45,0.05-0.89,0.11-1.34,0.18
			c-5.18,0.79-10.01,2.79-14.22,5.73c-8.01,5.59-13.78,14.58-15.44,25.09c-0.2,1.25,0.11,2.51,0.85,3.53c0.75,1.03,1.85,1.7,3.1,1.9
			c2.64,0.41,5.03-1.39,5.43-3.95c1.49-9.49,7.4-17.28,15.26-20.94c2.3-1.07,4.77-1.8,7.34-2.09c2.45-0.22,4.87,0.02,7.2,0.66
			c4.53,1.25,8.67,4.03,11.77,8.07c1.59,2.08,4.58,2.47,6.66,0.87c1.01-0.77,1.65-1.89,1.82-3.15S897.16,49.1,896.38,48.09z"/>
	</g>
	<g>
		<g>
			<path d="M781.09,79.95v16.51h7.29c0.74,0,1.31,0.18,1.71,0.54c0.4,0.36,0.6,0.82,0.6,1.36c0,0.56-0.2,1.01-0.59,1.35
				c-0.39,0.35-0.96,0.52-1.72,0.52h-9.07c-1,0-1.72-0.22-2.16-0.67c-0.44-0.44-0.66-1.16-0.66-2.15V79.95
				c0-0.93,0.21-1.62,0.63-2.09c0.42-0.46,0.97-0.7,1.65-0.7c0.69,0,1.25,0.23,1.68,0.69C780.88,78.31,781.09,79.01,781.09,79.95z"
				/>
			<path d="M788.38,100.61h-9.07c-1.1,0-1.92-0.26-2.43-0.78c-0.51-0.51-0.77-1.33-0.77-2.41V79.95c0-1.02,0.24-1.81,0.72-2.34
				c0.49-0.54,1.14-0.82,1.93-0.82c0.8,0,1.45,0.27,1.95,0.81c0.49,0.53,0.74,1.32,0.74,2.35v16.14h6.92c0.84,0,1.5,0.21,1.96,0.64
				c0.48,0.43,0.72,0.98,0.72,1.64c0,0.67-0.24,1.22-0.71,1.64C789.89,100.4,789.23,100.61,788.38,100.61z M778.77,77.54
				c-0.57,0-1.02,0.19-1.37,0.57c-0.35,0.39-0.53,1.01-0.53,1.84v17.47c0,0.88,0.19,1.52,0.55,1.89c0.36,0.37,1,0.55,1.89,0.55h9.07
				c0.66,0,1.15-0.14,1.47-0.42c0.31-0.27,0.46-0.63,0.46-1.07c0-0.44-0.15-0.79-0.47-1.08c-0.32-0.29-0.81-0.44-1.46-0.44h-7.67
				V79.95c0-0.84-0.18-1.46-0.54-1.84C779.82,77.72,779.36,77.54,778.77,77.54z"/>
		</g>
		<g>
			<path d="M810.53,92.03c0,1.26-0.2,2.42-0.59,3.48c-0.39,1.06-0.96,1.98-1.7,2.74c-0.74,0.76-1.63,1.35-2.66,1.76
				c-1.03,0.41-2.19,0.61-3.48,0.61c-1.28,0-2.43-0.21-3.45-0.62c-1.02-0.41-1.91-1-2.65-1.77c-0.75-0.77-1.31-1.68-1.7-2.72
				c-0.39-1.05-0.58-2.21-0.58-3.47c0-1.28,0.2-2.45,0.59-3.51c0.39-1.06,0.95-1.97,1.69-2.72c0.73-0.75,1.62-1.33,2.66-1.74
				c1.04-0.41,2.19-0.61,3.45-0.61c1.28,0,2.44,0.21,3.48,0.62c1.04,0.41,1.93,1,2.68,1.76c0.74,0.76,1.31,1.67,1.69,2.72
				C810.34,89.6,810.53,90.77,810.53,92.03z M806.29,92.03c0-1.72-0.38-3.06-1.14-4.02c-0.76-0.96-1.78-1.44-3.06-1.44
				c-0.83,0-1.55,0.21-2.18,0.64c-0.63,0.43-1.11,1.06-1.45,1.89c-0.34,0.84-0.51,1.81-0.51,2.93c0,1.1,0.17,2.07,0.5,2.89
				c0.33,0.83,0.81,1.46,1.44,1.9c0.62,0.44,1.36,0.66,2.21,0.66c1.28,0,2.3-0.48,3.06-1.45C805.91,95.07,806.29,93.74,806.29,92.03
				z"/>
			<path d="M802.1,101c-1.32,0-2.53-0.22-3.59-0.65c-1.06-0.43-2-1.05-2.78-1.86c-0.78-0.8-1.38-1.76-1.79-2.85
				c-0.4-1.09-0.6-2.3-0.6-3.6c0-1.32,0.21-2.54,0.61-3.64c0.41-1.11,1-2.07,1.77-2.85c0.77-0.79,1.71-1.4,2.79-1.83
				c1.08-0.42,2.29-0.64,3.59-0.64c1.32,0,2.54,0.22,3.62,0.65c1.09,0.43,2.03,1.05,2.81,1.85c0.78,0.8,1.38,1.76,1.78,2.86
				c0.4,1.09,0.6,2.3,0.6,3.61c0,1.3-0.21,2.51-0.61,3.61c-0.41,1.11-1.01,2.07-1.79,2.87c-0.78,0.8-1.72,1.42-2.79,1.84
				C804.64,100.78,803.43,101,802.1,101z M802.1,83.82c-1.21,0-2.32,0.2-3.31,0.59c-0.99,0.39-1.84,0.94-2.53,1.65
				c-0.69,0.71-1.23,1.58-1.6,2.59c-0.37,1.02-0.56,2.15-0.56,3.38c0,1.22,0.19,2.34,0.56,3.34c0.37,0.99,0.91,1.87,1.62,2.59
				c0.71,0.73,1.56,1.29,2.53,1.68c0.97,0.39,2.09,0.59,3.31,0.59c1.24,0,2.36-0.2,3.34-0.58c0.98-0.39,1.83-0.95,2.53-1.67
				c0.7-0.72,1.25-1.6,1.62-2.61c0.37-1.02,0.56-2.14,0.56-3.35c0-1.22-0.19-2.35-0.56-3.35c-0.37-1-0.91-1.87-1.61-2.59
				c-0.7-0.72-1.56-1.28-2.55-1.68C804.45,84.02,803.32,83.82,802.1,83.82z M802.1,97.86c-0.92,0-1.73-0.24-2.42-0.73
				c-0.68-0.48-1.21-1.17-1.57-2.06c-0.35-0.87-0.53-1.89-0.53-3.03c0-1.16,0.18-2.19,0.54-3.07c0.37-0.9,0.9-1.6,1.59-2.06
				c0.69-0.47,1.49-0.71,2.39-0.71c1.39,0,2.52,0.53,3.35,1.58c0.81,1.02,1.22,2.45,1.22,4.26c0,1.78-0.41,3.2-1.22,4.23
				C804.62,97.32,803.49,97.86,802.1,97.86z M802.1,86.95c-0.74,0-1.41,0.19-1.97,0.58c-0.56,0.38-1.01,0.96-1.32,1.73
				c-0.32,0.79-0.48,1.72-0.48,2.78c0,1.05,0.16,1.98,0.48,2.75c0.31,0.75,0.75,1.34,1.31,1.73c0.56,0.4,1.22,0.59,1.99,0.59
				c1.17,0,2.07-0.43,2.76-1.3c0.7-0.89,1.06-2.16,1.06-3.77c0-1.63-0.36-2.9-1.06-3.79C804.17,87.37,803.26,86.95,802.1,86.95z"/>
		</g>
		<g>
			<path d="M830.37,92.01c0,1.26-0.2,2.42-0.59,3.48c-0.39,1.06-0.96,1.98-1.7,2.74c-0.74,0.76-1.63,1.35-2.66,1.76
				c-1.03,0.41-2.19,0.61-3.48,0.61c-1.28,0-2.43-0.21-3.45-0.62c-1.02-0.41-1.91-1-2.65-1.77c-0.75-0.77-1.31-1.68-1.7-2.72
				c-0.39-1.05-0.58-2.21-0.58-3.47c0-1.28,0.2-2.45,0.59-3.51c0.39-1.06,0.95-1.97,1.69-2.72c0.73-0.75,1.62-1.33,2.66-1.74
				c1.04-0.41,2.19-0.61,3.45-0.61c1.28,0,2.44,0.21,3.48,0.62c1.04,0.41,1.93,1,2.68,1.76c0.74,0.76,1.31,1.67,1.69,2.72
				C830.17,89.58,830.37,90.74,830.37,92.01z M826.13,92.01c0-1.72-0.38-3.06-1.14-4.02c-0.76-0.96-1.78-1.44-3.06-1.44
				c-0.83,0-1.55,0.21-2.18,0.64c-0.63,0.43-1.11,1.06-1.45,1.89c-0.34,0.84-0.51,1.81-0.51,2.93c0,1.1,0.17,2.07,0.5,2.89
				c0.33,0.83,0.81,1.46,1.44,1.9c0.62,0.44,1.36,0.66,2.21,0.66c1.28,0,2.3-0.48,3.06-1.45C825.75,95.05,826.13,93.72,826.13,92.01
				z"/>
			<path d="M821.93,100.98c-1.32,0-2.53-0.22-3.59-0.65c-1.06-0.43-2-1.06-2.78-1.86c-0.78-0.8-1.38-1.76-1.79-2.85
				c-0.4-1.09-0.6-2.3-0.6-3.6c0-1.32,0.21-2.54,0.61-3.64c0.41-1.11,1-2.07,1.77-2.85s1.71-1.4,2.79-1.83
				c1.08-0.42,2.29-0.64,3.59-0.64c1.32,0,2.54,0.22,3.62,0.65c1.09,0.43,2.03,1.05,2.81,1.85c0.78,0.8,1.38,1.76,1.78,2.86
				c0.4,1.09,0.6,2.3,0.6,3.61c0,1.3-0.21,2.51-0.61,3.61c-0.41,1.11-1.01,2.07-1.79,2.87c-0.78,0.8-1.72,1.42-2.79,1.84
				C824.48,100.76,823.26,100.98,821.93,100.98z M821.93,83.8c-1.21,0-2.32,0.2-3.31,0.59c-0.99,0.39-1.84,0.94-2.53,1.65
				c-0.69,0.71-1.23,1.58-1.6,2.59c-0.38,1.02-0.56,2.15-0.56,3.38c0,1.22,0.19,2.34,0.56,3.34c0.37,0.99,0.91,1.87,1.62,2.59
				c0.71,0.73,1.56,1.29,2.53,1.69c0.97,0.39,2.09,0.59,3.31,0.59c1.24,0,2.36-0.2,3.34-0.58c0.98-0.39,1.83-0.95,2.53-1.67
				c0.7-0.72,1.25-1.6,1.62-2.61c0.38-1.02,0.56-2.14,0.56-3.35c0-1.22-0.19-2.35-0.56-3.35c-0.37-1-0.91-1.87-1.61-2.59
				c-0.7-0.72-1.56-1.28-2.55-1.68C824.28,84,823.16,83.8,821.93,83.8z M821.93,97.84c-0.92,0-1.73-0.24-2.42-0.73
				c-0.68-0.48-1.21-1.17-1.57-2.06c-0.35-0.87-0.53-1.89-0.53-3.03c0-1.16,0.18-2.19,0.54-3.07c0.37-0.9,0.9-1.6,1.59-2.06
				c0.69-0.47,1.49-0.71,2.39-0.71c1.39,0,2.52,0.53,3.35,1.58c0.81,1.02,1.22,2.45,1.22,4.26c0,1.78-0.41,3.2-1.22,4.23
				C824.46,97.3,823.33,97.84,821.93,97.84z M821.93,86.93c-0.74,0-1.41,0.19-1.97,0.58c-0.56,0.38-1.01,0.96-1.32,1.73
				c-0.32,0.79-0.48,1.72-0.48,2.78c0,1.05,0.16,1.98,0.48,2.75c0.31,0.75,0.75,1.34,1.31,1.73c0.56,0.39,1.23,0.59,1.99,0.59
				c1.17,0,2.07-0.43,2.76-1.3c0.7-0.89,1.06-2.16,1.06-3.77c0-1.63-0.36-2.9-1.06-3.79C824.01,87.35,823.1,86.93,821.93,86.93z"/>
		</g>
		<g>
			<path d="M837.35,85.81v0.51c0.79-0.98,1.61-1.7,2.46-2.16c0.85-0.46,1.81-0.69,2.89-0.69c1.29,0,2.48,0.34,3.56,1.01
				c1.09,0.67,1.94,1.65,2.57,2.94c0.63,1.29,0.94,2.82,0.94,4.58c0,1.3-0.18,2.49-0.55,3.58c-0.36,1.09-0.86,2-1.5,2.74
				c-0.64,0.74-1.39,1.3-2.25,1.7c-0.87,0.4-1.8,0.6-2.79,0.6c-1.2,0-2.21-0.24-3.02-0.73c-0.81-0.49-1.59-1.2-2.33-2.14v6.34
				c0,1.86-0.67,2.79-2.01,2.79c-0.79,0-1.31-0.24-1.57-0.72c-0.26-0.48-0.38-1.18-0.38-2.1V85.84c0-0.8,0.17-1.41,0.52-1.8
				c0.35-0.4,0.82-0.6,1.43-0.6c0.59,0,1.08,0.2,1.45,0.61C837.16,84.46,837.35,85.05,837.35,85.81z M845.57,91.96
				c0-1.11-0.17-2.07-0.51-2.87c-0.34-0.8-0.81-1.41-1.41-1.84c-0.6-0.43-1.26-0.64-1.99-0.64c-1.16,0-2.13,0.46-2.93,1.38
				c-0.79,0.92-1.19,2.27-1.19,4.05c0,1.68,0.39,2.99,1.18,3.92c0.79,0.93,1.77,1.4,2.93,1.4c0.7,0,1.34-0.2,1.94-0.61
				c0.59-0.41,1.07-1.02,1.43-1.83C845.39,94.1,845.57,93.11,845.57,91.96z"/>
			<path d="M835.34,107.26c-0.93,0-1.57-0.31-1.9-0.92c-0.29-0.54-0.43-1.28-0.43-2.27V85.84c0-0.9,0.21-1.58,0.62-2.05
				c0.42-0.48,1-0.72,1.71-0.72c0.7,0,1.28,0.25,1.73,0.73c0.36,0.39,0.57,0.91,0.64,1.55c0.62-0.65,1.27-1.16,1.93-1.52
				c0.9-0.49,1.93-0.73,3.07-0.73c1.35,0,2.62,0.36,3.76,1.06c1.14,0.71,2.05,1.75,2.71,3.09c0.65,1.33,0.98,2.93,0.98,4.75
				c0,1.33-0.19,2.58-0.56,3.7c-0.38,1.13-0.91,2.09-1.57,2.87c-0.67,0.78-1.47,1.38-2.38,1.8c-0.91,0.42-1.9,0.63-2.95,0.63
				c-1.26,0-2.34-0.26-3.21-0.78c-0.61-0.36-1.2-0.85-1.76-1.45v5.33C837.72,106.72,836.42,107.26,835.34,107.26z M835.34,83.82
				c-0.5,0-0.87,0.15-1.15,0.47c-0.29,0.32-0.43,0.85-0.43,1.56v18.23c0,0.85,0.11,1.5,0.34,1.92c0.07,0.13,0.28,0.52,1.24,0.52
				c0.7,0,1.64-0.25,1.64-2.41v-7.43l0.67,0.85c0.71,0.9,1.45,1.59,2.23,2.04c0.75,0.45,1.7,0.67,2.83,0.67
				c0.93,0,1.82-0.19,2.63-0.56c0.81-0.37,1.52-0.91,2.12-1.61c0.6-0.7,1.08-1.58,1.43-2.61c0.35-1.04,0.53-2.21,0.53-3.46
				c0-1.7-0.31-3.18-0.91-4.42c-0.6-1.22-1.41-2.16-2.43-2.79c-1.02-0.63-2.15-0.95-3.37-0.95c-1.01,0-1.92,0.22-2.71,0.64
				c-0.8,0.43-1.59,1.13-2.34,2.06l-0.67,0.83v-1.57c0-0.66-0.16-1.17-0.46-1.5C836.21,83.98,835.82,83.82,835.34,83.82z
				 M841.67,97.73c-1.28,0-2.36-0.52-3.22-1.53c-0.84-1-1.27-2.4-1.27-4.16c0-1.87,0.43-3.31,1.28-4.3c0.87-1,1.95-1.51,3.21-1.51
				c0.8,0,1.55,0.24,2.21,0.71c0.65,0.47,1.17,1.14,1.53,2c0.36,0.84,0.54,1.86,0.54,3.02c0,1.2-0.19,2.25-0.57,3.11
				c-0.39,0.87-0.91,1.54-1.56,1.99C843.16,97.5,842.44,97.73,841.67,97.73z M841.67,86.98c-1.05,0-1.92,0.41-2.64,1.25
				c-0.73,0.84-1.1,2.13-1.1,3.81c0,1.58,0.37,2.82,1.09,3.68c0.72,0.85,1.59,1.27,2.65,1.27c0.62,0,1.19-0.18,1.72-0.55
				c0.53-0.37,0.97-0.93,1.3-1.68c0.34-0.76,0.51-1.71,0.51-2.81c0-1.06-0.16-1.97-0.48-2.72c-0.31-0.73-0.74-1.3-1.28-1.68
				C842.91,87.17,842.31,86.98,841.67,86.98z"/>
		</g>
		<g>
			<path d="M856.79,79.58v6.45c0.79-0.83,1.6-1.46,2.43-1.9c0.83-0.44,1.85-0.66,3.06-0.66c1.4,0,2.63,0.33,3.69,1
				c1.06,0.67,1.88,1.63,2.46,2.89c0.58,1.26,0.87,2.76,0.87,4.49c0,1.28-0.16,2.45-0.49,3.52c-0.33,1.07-0.8,1.99-1.42,2.78
				c-0.62,0.78-1.37,1.39-2.25,1.82c-0.88,0.43-1.85,0.64-2.92,0.64c-0.65,0-1.26-0.08-1.83-0.23c-0.57-0.15-1.06-0.36-1.46-0.61
				c-0.4-0.25-0.75-0.51-1.03-0.78c-0.28-0.27-0.66-0.67-1.12-1.21v0.42c0,0.79-0.19,1.4-0.57,1.8c-0.38,0.41-0.87,0.61-1.45,0.61
				c-0.6,0-1.08-0.2-1.43-0.61c-0.36-0.41-0.53-1.01-0.53-1.8V79.76c0-0.86,0.17-1.5,0.52-1.94c0.35-0.44,0.83-0.66,1.45-0.66
				c0.65,0,1.15,0.21,1.5,0.63C856.61,78.21,856.79,78.8,856.79,79.58z M856.99,92.13c0,1.68,0.38,2.97,1.15,3.88
				c0.77,0.9,1.78,1.35,3.02,1.35c1.06,0,1.98-0.46,2.75-1.38c0.77-0.92,1.15-2.25,1.15-3.97c0-1.11-0.16-2.07-0.48-2.88
				c-0.32-0.8-0.77-1.43-1.36-1.86c-0.59-0.44-1.27-0.66-2.06-0.66c-0.8,0-1.52,0.22-2.15,0.66c-0.63,0.44-1.12,1.07-1.49,1.9
				C857.17,89.99,856.99,90.98,856.99,92.13z"/>
			<path d="M862.24,101c-0.68,0-1.33-0.08-1.93-0.25c-0.6-0.16-1.13-0.38-1.56-0.65c-0.42-0.27-0.79-0.55-1.09-0.83
				c-0.15-0.14-0.32-0.32-0.52-0.53c-0.07,0.64-0.29,1.15-0.64,1.53c-0.45,0.48-1.04,0.73-1.73,0.73c-0.71,0-1.29-0.25-1.71-0.74
				c-0.42-0.48-0.63-1.17-0.63-2.05V79.76c0-0.94,0.2-1.67,0.6-2.17c0.42-0.53,1-0.8,1.74-0.8c0.76,0,1.36,0.26,1.79,0.76
				c0.41,0.49,0.61,1.17,0.61,2.03v5.57c0.62-0.56,1.25-1.01,1.88-1.34c0.88-0.47,1.97-0.7,3.24-0.7c1.47,0,2.78,0.36,3.89,1.06
				c1.12,0.7,1.99,1.73,2.6,3.05c0.6,1.31,0.91,2.87,0.91,4.65c0,1.31-0.17,2.53-0.5,3.63c-0.34,1.11-0.84,2.09-1.48,2.9
				c-0.65,0.82-1.45,1.47-2.38,1.92C864.39,100.77,863.35,101,862.24,101z M856.42,96.78l0.66,0.76c0.45,0.52,0.82,0.92,1.1,1.18
				c0.26,0.25,0.59,0.5,0.97,0.74c0.37,0.23,0.83,0.42,1.36,0.57c0.54,0.15,1.12,0.22,1.74,0.22c1,0,1.93-0.2,2.75-0.6
				c0.83-0.4,1.54-0.98,2.12-1.71c0.59-0.74,1.04-1.63,1.35-2.65c0.31-1.03,0.47-2.18,0.47-3.41c0-1.67-0.28-3.13-0.84-4.34
				c-0.55-1.19-1.33-2.11-2.32-2.73c-0.99-0.62-2.17-0.94-3.49-0.94c-1.15,0-2.12,0.21-2.89,0.61c-0.79,0.42-1.57,1.03-2.33,1.82
				l-0.65,0.67v-7.38c0-0.68-0.15-1.2-0.44-1.55c-0.28-0.33-0.68-0.49-1.21-0.49c-0.5,0-0.88,0.17-1.15,0.52
				c-0.29,0.37-0.44,0.94-0.44,1.71v18.45c0,0.7,0.15,1.22,0.44,1.56c0.28,0.32,0.66,0.48,1.15,0.48c0.48,0,0.87-0.16,1.18-0.49
				c0.31-0.33,0.47-0.85,0.47-1.55V96.78z M861.17,97.73c-1.36,0-2.47-0.5-3.31-1.49c-0.82-0.97-1.24-2.35-1.24-4.12
				c0-1.19,0.19-2.24,0.57-3.11c0.39-0.89,0.93-1.59,1.61-2.06c1.37-0.95,3.33-0.97,4.65,0.01c0.64,0.48,1.14,1.16,1.49,2.03
				c0.34,0.85,0.51,1.86,0.51,3.02c0,1.81-0.42,3.22-1.24,4.21C863.36,97.22,862.34,97.73,861.17,97.73z M861.17,86.98
				c-0.72,0-1.37,0.2-1.94,0.59c-0.57,0.4-1.02,0.98-1.36,1.75c-0.34,0.78-0.51,1.72-0.51,2.81c0,1.58,0.36,2.8,1.06,3.63
				c0.7,0.82,1.6,1.22,2.74,1.22c0.95,0,1.76-0.41,2.46-1.25c0.71-0.85,1.07-2.1,1.07-3.73c0-1.06-0.15-1.98-0.45-2.74
				c-0.29-0.74-0.71-1.31-1.24-1.7C862.48,87.17,861.88,86.98,861.17,86.98z"/>
		</g>
		<g>
			<path d="M876.55,94.52v3.53c0,0.86-0.2,1.5-0.6,1.93c-0.4,0.43-0.91,0.64-1.53,0.64c-0.61,0-1.11-0.22-1.5-0.65
				c-0.39-0.43-0.59-1.07-0.59-1.92V86.29c0-1.9,0.69-2.85,2.06-2.85c0.7,0,1.21,0.22,1.52,0.67c0.31,0.44,0.48,1.1,0.51,1.96
				c0.51-0.87,1.02-1.52,1.55-1.96c0.53-0.44,1.24-0.67,2.13-0.67c0.89,0,1.75,0.22,2.58,0.67c0.84,0.44,1.25,1.03,1.25,1.76
				c0,0.52-0.18,0.94-0.53,1.28c-0.36,0.33-0.74,0.5-1.15,0.5c-0.15,0-0.53-0.09-1.12-0.29c-0.59-0.19-1.12-0.29-1.57-0.29
				c-0.62,0-1.12,0.16-1.52,0.49c-0.39,0.33-0.7,0.81-0.91,1.45c-0.22,0.64-0.37,1.4-0.45,2.28
				C876.59,92.18,876.55,93.26,876.55,94.52z"/>
			<path d="M874.42,101c-0.72,0-1.31-0.26-1.78-0.77c-0.45-0.5-0.69-1.23-0.69-2.17V86.29c0-2.66,1.32-3.22,2.43-3.22
				c0.83,0,1.44,0.28,1.82,0.83c0.21,0.3,0.36,0.66,0.45,1.1c0.35-0.48,0.7-0.87,1.06-1.17c0.6-0.5,1.4-0.75,2.37-0.75
				c0.94,0,1.87,0.24,2.76,0.71c0.96,0.51,1.45,1.22,1.45,2.1c0,0.62-0.22,1.14-0.65,1.55c-0.43,0.4-0.9,0.6-1.41,0.6
				c-0.14,0-0.4-0.03-1.24-0.3c-1.26-0.41-2.15-0.35-2.73,0.13c-0.34,0.28-0.6,0.71-0.8,1.28c-0.21,0.61-0.35,1.35-0.43,2.2
				c-0.08,0.86-0.12,1.94-0.12,3.19v3.53c0,0.95-0.24,1.69-0.71,2.18C875.75,100.74,875.14,101,874.42,101z M874.38,83.82
				c-0.72,0-1.68,0.26-1.68,2.47v11.76c0,0.75,0.17,1.31,0.49,1.67c0.32,0.35,0.72,0.53,1.22,0.53c0.52,0,0.93-0.17,1.26-0.52
				c0.33-0.35,0.5-0.92,0.5-1.67v-3.53c0-1.28,0.04-2.38,0.13-3.26c0.08-0.91,0.24-1.7,0.47-2.37c0.24-0.7,0.58-1.25,1.03-1.62
				c0.78-0.65,1.92-0.76,3.44-0.27c0.79,0.25,0.98,0.27,1.01,0.27c0.32,0,0.61-0.13,0.9-0.4c0.28-0.26,0.42-0.59,0.42-1
				c0-0.59-0.34-1.06-1.05-1.43c-1.53-0.81-3.36-0.83-4.3-0.04c-0.5,0.41-0.99,1.04-1.47,1.87l-0.65,1.12l-0.05-1.29
				c-0.03-0.79-0.18-1.38-0.44-1.76C875.36,83.99,874.96,83.82,874.38,83.82z"/>
		</g>
		<g>
			<path d="M898.05,98.18v-0.54c-0.51,0.64-1.04,1.18-1.59,1.61c-0.56,0.43-1.17,0.76-1.83,0.97c-0.66,0.21-1.41,0.32-2.26,0.32
				c-1.02,0-1.94-0.21-2.75-0.63c-0.81-0.42-1.44-1.01-1.88-1.75c-0.53-0.9-0.79-2.19-0.79-3.87v-8.37c0-0.85,0.19-1.48,0.57-1.9
				c0.38-0.42,0.89-0.63,1.52-0.63c0.64,0,1.16,0.21,1.55,0.63c0.39,0.42,0.59,1.05,0.59,1.89v6.76c0,0.98,0.08,1.8,0.25,2.47
				c0.16,0.66,0.46,1.19,0.89,1.56c0.43,0.38,1.01,0.57,1.74,0.57c0.71,0,1.38-0.21,2.01-0.63c0.63-0.42,1.09-0.97,1.38-1.66
				c0.24-0.6,0.36-1.91,0.36-3.93v-5.14c0-0.84,0.2-1.46,0.59-1.89c0.39-0.42,0.9-0.63,1.53-0.63c0.63,0,1.13,0.21,1.52,0.63
				c0.38,0.42,0.57,1.05,0.57,1.9v12.24c0,0.8-0.18,1.41-0.55,1.81c-0.37,0.4-0.84,0.6-1.42,0.6c-0.58,0-1.05-0.21-1.43-0.63
				C898.23,99.52,898.05,98.94,898.05,98.18z"/>
			<path d="M900.04,100.94c-0.69,0-1.26-0.25-1.71-0.75c-0.36-0.4-0.57-0.92-0.64-1.57c-0.33,0.35-0.66,0.65-1.01,0.92
				c-0.59,0.46-1.24,0.8-1.94,1.03c-0.7,0.22-1.5,0.33-2.37,0.33c-1.08,0-2.06-0.23-2.92-0.68c-0.87-0.45-1.55-1.09-2.03-1.89
				c-0.56-0.95-0.84-2.32-0.84-4.06v-8.37c0-0.94,0.23-1.66,0.67-2.15c0.45-0.5,1.06-0.75,1.79-0.75c0.75,0,1.36,0.25,1.82,0.75
				c0.46,0.49,0.69,1.21,0.69,2.14v6.76c0,0.95,0.08,1.75,0.24,2.38c0.15,0.59,0.41,1.05,0.77,1.37c0.36,0.32,0.85,0.47,1.49,0.47
				c0.64,0,1.23-0.19,1.8-0.57c0.56-0.38,0.98-0.88,1.24-1.49c0.15-0.37,0.33-1.34,0.33-3.78v-5.14c0-0.93,0.23-1.65,0.69-2.14
				c0.46-0.5,1.07-0.75,1.81-0.75s1.34,0.25,1.79,0.75c0.45,0.49,0.67,1.21,0.67,2.15v12.24c0,0.9-0.22,1.59-0.65,2.06
				C901.3,100.7,900.73,100.94,900.04,100.94z M898.42,96.57v1.62c0,0.65,0.16,1.16,0.47,1.51c0.3,0.34,0.68,0.5,1.15,0.5
				c0.47,0,0.84-0.16,1.14-0.48c0.3-0.33,0.45-0.85,0.45-1.56V85.91c0-0.74-0.16-1.3-0.47-1.64c-0.31-0.34-0.72-0.5-1.24-0.5
				c-0.53,0-0.94,0.17-1.26,0.51c-0.32,0.35-0.49,0.9-0.49,1.63v5.14c0,2.09-0.12,3.42-0.38,4.07c-0.32,0.75-0.83,1.37-1.52,1.83
				c-0.69,0.46-1.44,0.7-2.22,0.7c-0.82,0-1.49-0.22-1.99-0.66c-0.49-0.43-0.82-1.02-1.01-1.75c-0.17-0.69-0.26-1.55-0.26-2.56
				v-6.76c0-0.73-0.16-1.28-0.49-1.63c-0.32-0.35-0.74-0.51-1.27-0.51c-0.52,0-0.93,0.17-1.24,0.5c-0.31,0.34-0.47,0.9-0.47,1.64
				v8.37c0,1.61,0.25,2.84,0.74,3.68c0.4,0.68,0.99,1.22,1.73,1.61c0.75,0.39,1.62,0.59,2.57,0.59c0.8,0,1.52-0.1,2.15-0.3
				c0.62-0.2,1.19-0.5,1.71-0.91c0.53-0.41,1.05-0.93,1.53-1.55L898.42,96.57z"/>
		</g>
		<g>
			<path d="M921.5,86.54v12.27c0,1.4-0.15,2.61-0.45,3.62c-0.3,1.01-0.78,1.85-1.44,2.51c-0.66,0.66-1.52,1.15-2.59,1.47
				c-1.07,0.32-2.4,0.48-3.98,0.48c-1.45,0-2.75-0.2-3.9-0.61c-1.15-0.41-2.03-0.93-2.65-1.58c-0.62-0.64-0.93-1.31-0.93-1.99
				c0-0.52,0.18-0.94,0.53-1.26c0.35-0.33,0.77-0.49,1.27-0.49c0.62,0,1.16,0.27,1.62,0.82c0.23,0.28,0.46,0.56,0.7,0.84
				c0.24,0.28,0.51,0.53,0.8,0.73c0.29,0.2,0.65,0.35,1.06,0.45c0.41,0.1,0.89,0.15,1.42,0.15c1.09,0,1.94-0.15,2.55-0.46
				c0.6-0.3,1.03-0.73,1.27-1.28c0.24-0.55,0.38-1.13,0.43-1.76c0.04-0.62,0.07-1.63,0.09-3.01c-0.65,0.91-1.4,1.6-2.25,2.07
				c-0.85,0.47-1.86,0.71-3.04,0.71c-1.41,0-2.65-0.36-3.71-1.08c-1.06-0.72-1.87-1.73-2.44-3.03c-0.57-1.3-0.85-2.8-0.85-4.5
				c0-1.27,0.17-2.41,0.52-3.44c0.35-1.02,0.84-1.88,1.48-2.58c0.64-0.7,1.38-1.23,2.21-1.59c0.84-0.36,1.75-0.53,2.75-0.53
				c1.2,0,2.23,0.23,3.11,0.69c0.88,0.46,1.69,1.18,2.45,2.16v-0.57c0-0.73,0.18-1.3,0.54-1.7c0.36-0.4,0.83-0.6,1.39-0.6
				c0.81,0,1.36,0.27,1.62,0.8C921.37,84.77,921.5,85.54,921.5,86.54z M909.26,91.89c0,1.71,0.37,3.01,1.12,3.88
				c0.75,0.88,1.71,1.31,2.9,1.31c0.7,0,1.36-0.19,1.99-0.56c0.62-0.38,1.13-0.94,1.52-1.7c0.39-0.76,0.59-1.68,0.59-2.76
				c0-1.72-0.38-3.06-1.14-4.02c-0.76-0.96-1.76-1.44-2.99-1.44c-1.21,0-2.17,0.46-2.9,1.38C909.63,88.9,909.26,90.2,909.26,91.89z"
				/>
			<path d="M913.04,107.26c-1.49,0-2.84-0.21-4.02-0.63c-1.2-0.43-2.14-0.99-2.79-1.67c-0.69-0.71-1.03-1.47-1.03-2.25
				c0-0.62,0.22-1.14,0.65-1.54c0.42-0.39,0.93-0.59,1.52-0.59c0.73,0,1.37,0.32,1.91,0.95c0.23,0.28,0.46,0.56,0.7,0.84
				c0.22,0.26,0.47,0.48,0.73,0.66c0.25,0.17,0.57,0.31,0.94,0.39c0.38,0.09,0.83,0.14,1.34,0.14c1.03,0,1.83-0.14,2.38-0.42
				c0.53-0.27,0.89-0.62,1.09-1.09c0.22-0.5,0.36-1.05,0.39-1.63c0.03-0.44,0.05-1.08,0.07-1.91c-0.51,0.54-1.07,0.99-1.67,1.33
				c-0.91,0.5-1.99,0.76-3.22,0.76c-1.48,0-2.8-0.39-3.92-1.15c-1.11-0.76-1.98-1.83-2.57-3.19c-0.59-1.34-0.88-2.91-0.88-4.65
				c0-1.31,0.18-2.5,0.54-3.56c0.36-1.07,0.88-1.98,1.56-2.72c0.67-0.74,1.46-1.3,2.34-1.68c0.88-0.37,1.86-0.56,2.9-0.56
				c1.25,0,2.36,0.25,3.28,0.73c0.67,0.35,1.31,0.85,1.92,1.49c0.06-0.63,0.27-1.14,0.62-1.53c0.43-0.48,1-0.73,1.67-0.73
				c0.96,0,1.62,0.34,1.96,1c0.3,0.59,0.44,1.4,0.44,2.47v12.27c0,1.43-0.16,2.69-0.46,3.73c-0.32,1.07-0.83,1.96-1.53,2.67
				c-0.7,0.7-1.63,1.23-2.75,1.56C916.03,107.1,914.66,107.26,913.04,107.26z M907.36,101.34c-0.4,0-0.73,0.13-1.01,0.39
				c-0.27,0.25-0.41,0.58-0.41,0.99c0,0.59,0.27,1.15,0.82,1.73c0.57,0.6,1.42,1.1,2.5,1.49c1.1,0.39,2.37,0.59,3.77,0.59
				c1.54,0,2.85-0.16,3.88-0.46c1-0.3,1.82-0.76,2.43-1.38c0.61-0.61,1.06-1.4,1.34-2.35c0.29-0.97,0.43-2.15,0.43-3.51V86.54
				c0-0.94-0.12-1.65-0.36-2.13c-0.2-0.4-0.62-0.59-1.29-0.59c-0.46,0-0.82,0.16-1.11,0.48c-0.3,0.33-0.45,0.82-0.45,1.45v1.68
				l-0.67-0.87c-0.72-0.93-1.5-1.62-2.32-2.06c-0.82-0.43-1.81-0.65-2.94-0.65c-0.94,0-1.82,0.17-2.61,0.5
				c-0.78,0.33-1.48,0.84-2.08,1.49c-0.6,0.66-1.07,1.49-1.4,2.45c-0.33,0.98-0.5,2.09-0.5,3.31c0,1.64,0.28,3.11,0.82,4.35
				c0.54,1.23,1.31,2.19,2.31,2.87c0.99,0.68,2.17,1.02,3.49,1.02c1.1,0,2.07-0.22,2.86-0.66c0.8-0.44,1.51-1.11,2.13-1.96l0.7-0.98
				l-0.02,1.2c-0.02,1.4-0.05,2.39-0.09,3.03c-0.04,0.67-0.2,1.3-0.46,1.88c-0.28,0.63-0.76,1.12-1.44,1.46
				c-0.66,0.33-1.57,0.5-2.71,0.5c-0.56,0-1.07-0.05-1.51-0.16c-0.46-0.11-0.86-0.28-1.19-0.5c-0.32-0.22-0.61-0.49-0.88-0.79
				c-0.24-0.29-0.48-0.57-0.71-0.85C908.31,101.56,907.87,101.34,907.36,101.34z M913.29,97.47c-1.3,0-2.37-0.49-3.19-1.45
				c-0.8-0.94-1.21-2.33-1.21-4.13c0-1.77,0.39-3.17,1.17-4.15c0.8-1.01,1.87-1.52,3.2-1.52c1.35,0,2.46,0.53,3.29,1.58
				c0.81,1.02,1.22,2.45,1.22,4.26c0,1.14-0.21,2.13-0.63,2.94c-0.42,0.82-0.98,1.44-1.66,1.85
				C914.79,97.26,914.06,97.47,913.29,97.47z M913.26,86.98c-1.1,0-1.95,0.4-2.61,1.24c-0.67,0.85-1.01,2.08-1.01,3.68
				c0,1.61,0.35,2.84,1.03,3.64c0.68,0.8,1.54,1.18,2.62,1.18c0.63,0,1.23-0.17,1.8-0.51c0.56-0.34,1.03-0.86,1.38-1.55
				c0.36-0.7,0.55-1.57,0.55-2.59c0-1.63-0.36-2.9-1.06-3.79C915.27,87.4,914.38,86.98,913.26,86.98z"/>
		</g>
	</g>
</g>
<g>
	<g>
		<path class="st3" d="M293.09,79.75v16.51h7.29c0.74,0,1.31,0.18,1.71,0.54c0.4,0.36,0.6,0.82,0.6,1.36c0,0.56-0.2,1.01-0.59,1.35
			c-0.39,0.35-0.96,0.52-1.72,0.52h-9.07c-1,0-1.72-0.22-2.16-0.67c-0.44-0.44-0.66-1.16-0.66-2.15V79.75
			c0-0.93,0.21-1.62,0.63-2.09c0.42-0.46,0.97-0.7,1.65-0.7c0.69,0,1.25,0.23,1.68,0.69C292.88,78.12,293.09,78.81,293.09,79.75z"/>
		<path class="st3" d="M300.38,100.42h-9.07c-1.1,0-1.92-0.26-2.43-0.78c-0.51-0.51-0.77-1.33-0.77-2.41V79.75
			c0-1.02,0.24-1.81,0.72-2.34c0.49-0.54,1.14-0.82,1.93-0.82c0.8,0,1.45,0.27,1.95,0.81c0.49,0.53,0.74,1.32,0.74,2.35v16.14h6.92
			c0.84,0,1.5,0.21,1.96,0.64c0.48,0.43,0.72,0.98,0.72,1.64c0,0.67-0.24,1.22-0.71,1.64C301.89,100.21,301.23,100.42,300.38,100.42
			z M290.77,77.34c-0.57,0-1.02,0.19-1.37,0.57c-0.35,0.39-0.53,1.01-0.53,1.84v17.47c0,0.88,0.19,1.52,0.55,1.89
			c0.36,0.37,1,0.55,1.89,0.55h9.07c0.66,0,1.15-0.14,1.47-0.42c0.31-0.27,0.46-0.63,0.46-1.07c0-0.44-0.15-0.79-0.47-1.08
			c-0.32-0.29-0.81-0.44-1.46-0.44h-7.67V79.75c0-0.84-0.18-1.46-0.54-1.84C291.82,77.53,291.36,77.34,290.77,77.34z"/>
	</g>
	<g>
		<path class="st3" d="M322.53,91.84c0,1.26-0.2,2.42-0.59,3.48c-0.39,1.06-0.96,1.98-1.7,2.74c-0.74,0.76-1.63,1.35-2.66,1.76
			c-1.03,0.41-2.19,0.61-3.48,0.61c-1.28,0-2.43-0.21-3.45-0.62c-1.02-0.41-1.91-1-2.65-1.77c-0.75-0.77-1.31-1.68-1.7-2.72
			c-0.39-1.05-0.58-2.21-0.58-3.47c0-1.28,0.2-2.45,0.59-3.51c0.39-1.06,0.95-1.97,1.69-2.72c0.73-0.75,1.62-1.33,2.66-1.74
			c1.04-0.41,2.19-0.61,3.45-0.61c1.28,0,2.44,0.21,3.48,0.62c1.04,0.41,1.93,1,2.68,1.76c0.74,0.76,1.31,1.67,1.69,2.72
			C322.34,89.41,322.53,90.57,322.53,91.84z M318.29,91.84c0-1.72-0.38-3.06-1.14-4.02c-0.76-0.96-1.78-1.44-3.06-1.44
			c-0.83,0-1.55,0.21-2.18,0.64c-0.63,0.43-1.11,1.06-1.45,1.89c-0.34,0.84-0.51,1.81-0.51,2.93c0,1.1,0.17,2.07,0.5,2.89
			c0.33,0.83,0.81,1.46,1.44,1.9c0.62,0.44,1.36,0.66,2.21,0.66c1.28,0,2.3-0.48,3.06-1.45C317.91,94.87,318.29,93.54,318.29,91.84z
			"/>
		<path class="st3" d="M314.1,100.8c-1.32,0-2.53-0.22-3.59-0.65c-1.06-0.43-2-1.05-2.78-1.86c-0.78-0.8-1.38-1.76-1.79-2.85
			c-0.4-1.09-0.6-2.3-0.6-3.6c0-1.32,0.21-2.54,0.61-3.64c0.41-1.11,1-2.07,1.77-2.85c0.77-0.79,1.71-1.4,2.79-1.83
			c1.08-0.42,2.29-0.64,3.59-0.64c1.32,0,2.54,0.22,3.62,0.65c1.09,0.43,2.03,1.05,2.81,1.85c0.78,0.8,1.38,1.76,1.78,2.86
			c0.4,1.09,0.6,2.3,0.6,3.61c0,1.3-0.21,2.51-0.61,3.61c-0.41,1.11-1.01,2.07-1.79,2.87c-0.78,0.8-1.72,1.42-2.79,1.84
			C316.64,100.59,315.43,100.8,314.1,100.8z M314.1,83.63c-1.21,0-2.32,0.2-3.31,0.59c-0.99,0.39-1.84,0.94-2.53,1.65
			c-0.69,0.71-1.23,1.58-1.6,2.59c-0.37,1.02-0.56,2.15-0.56,3.38c0,1.22,0.19,2.34,0.56,3.34c0.37,0.99,0.91,1.87,1.62,2.59
			c0.71,0.73,1.56,1.29,2.53,1.68c0.97,0.39,2.09,0.59,3.31,0.59c1.24,0,2.36-0.2,3.34-0.58c0.98-0.39,1.83-0.95,2.53-1.67
			c0.7-0.72,1.25-1.6,1.62-2.61c0.37-1.02,0.56-2.14,0.56-3.35c0-1.22-0.19-2.35-0.56-3.35c-0.37-1-0.91-1.87-1.61-2.59
			c-0.7-0.72-1.56-1.28-2.55-1.68C316.45,83.82,315.32,83.63,314.1,83.63z M314.1,97.66c-0.92,0-1.73-0.24-2.42-0.73
			c-0.68-0.48-1.21-1.17-1.57-2.06c-0.35-0.87-0.53-1.89-0.53-3.03c0-1.16,0.18-2.19,0.54-3.07c0.37-0.9,0.9-1.6,1.59-2.06
			c0.69-0.47,1.49-0.71,2.39-0.71c1.39,0,2.52,0.53,3.35,1.58c0.81,1.02,1.22,2.45,1.22,4.26c0,1.78-0.41,3.2-1.22,4.23
			C316.62,97.13,315.49,97.66,314.1,97.66z M314.1,86.75c-0.74,0-1.41,0.19-1.97,0.58c-0.56,0.38-1.01,0.96-1.32,1.73
			c-0.32,0.79-0.48,1.72-0.48,2.78c0,1.05,0.16,1.98,0.48,2.75c0.31,0.75,0.75,1.34,1.31,1.73c0.56,0.4,1.22,0.59,1.99,0.59
			c1.17,0,2.07-0.43,2.76-1.3c0.7-0.89,1.06-2.16,1.06-3.77c0-1.63-0.36-2.9-1.06-3.79C316.17,87.18,315.26,86.75,314.1,86.75z"/>
	</g>
	<g>
		<path class="st3" d="M342.37,91.82c0,1.26-0.2,2.42-0.59,3.48c-0.39,1.06-0.96,1.98-1.7,2.74c-0.74,0.76-1.63,1.35-2.66,1.76
			c-1.03,0.41-2.19,0.61-3.48,0.61c-1.28,0-2.43-0.21-3.45-0.62c-1.02-0.41-1.91-1-2.65-1.77c-0.75-0.77-1.31-1.68-1.7-2.72
			c-0.39-1.05-0.58-2.21-0.58-3.47c0-1.28,0.2-2.45,0.59-3.51c0.39-1.06,0.95-1.97,1.69-2.72c0.73-0.75,1.62-1.33,2.66-1.74
			c1.04-0.41,2.19-0.61,3.45-0.61c1.28,0,2.44,0.21,3.48,0.62c1.04,0.41,1.93,1,2.68,1.76c0.74,0.76,1.31,1.67,1.69,2.72
			C342.17,89.39,342.37,90.55,342.37,91.82z M338.13,91.82c0-1.72-0.38-3.06-1.14-4.02c-0.76-0.96-1.78-1.44-3.06-1.44
			c-0.83,0-1.55,0.21-2.18,0.64c-0.63,0.43-1.11,1.06-1.45,1.89c-0.34,0.84-0.51,1.81-0.51,2.93c0,1.1,0.17,2.07,0.5,2.89
			c0.33,0.83,0.81,1.46,1.44,1.9c0.62,0.44,1.36,0.66,2.21,0.66c1.28,0,2.3-0.48,3.06-1.45C337.75,94.85,338.13,93.52,338.13,91.82z
			"/>
		<path class="st3" d="M333.93,100.78c-1.32,0-2.53-0.22-3.59-0.65c-1.06-0.43-2-1.06-2.78-1.86c-0.78-0.8-1.38-1.76-1.79-2.85
			c-0.4-1.09-0.6-2.3-0.6-3.6c0-1.32,0.21-2.54,0.61-3.64c0.41-1.11,1-2.07,1.77-2.85s1.71-1.4,2.79-1.83
			c1.08-0.42,2.29-0.64,3.59-0.64c1.32,0,2.54,0.22,3.62,0.65c1.09,0.43,2.03,1.05,2.81,1.85c0.78,0.8,1.38,1.76,1.78,2.86
			c0.4,1.09,0.6,2.3,0.6,3.61c0,1.3-0.21,2.51-0.61,3.61c-0.41,1.11-1.01,2.07-1.79,2.87c-0.78,0.8-1.72,1.42-2.79,1.84
			C336.48,100.57,335.26,100.78,333.93,100.78z M333.93,83.61c-1.21,0-2.32,0.2-3.31,0.59c-0.99,0.39-1.84,0.94-2.53,1.65
			c-0.69,0.71-1.23,1.58-1.6,2.59c-0.38,1.02-0.56,2.15-0.56,3.38c0,1.22,0.19,2.34,0.56,3.34c0.37,0.99,0.91,1.87,1.62,2.59
			c0.71,0.73,1.56,1.29,2.53,1.69c0.97,0.39,2.09,0.59,3.31,0.59c1.24,0,2.36-0.2,3.34-0.58c0.98-0.39,1.83-0.95,2.53-1.67
			c0.7-0.72,1.25-1.6,1.62-2.61c0.38-1.02,0.56-2.14,0.56-3.35c0-1.22-0.19-2.35-0.56-3.35c-0.37-1-0.91-1.87-1.61-2.59
			c-0.7-0.72-1.56-1.28-2.55-1.68C336.28,83.8,335.16,83.61,333.93,83.61z M333.93,97.64c-0.92,0-1.73-0.24-2.42-0.73
			c-0.68-0.48-1.21-1.17-1.57-2.06c-0.35-0.87-0.53-1.89-0.53-3.03c0-1.16,0.18-2.19,0.54-3.07c0.37-0.9,0.9-1.6,1.59-2.06
			c0.69-0.47,1.49-0.71,2.39-0.71c1.39,0,2.52,0.53,3.35,1.58c0.81,1.02,1.22,2.45,1.22,4.26c0,1.78-0.41,3.2-1.22,4.23
			C336.46,97.11,335.33,97.64,333.93,97.64z M333.93,86.73c-0.74,0-1.41,0.19-1.97,0.58c-0.56,0.38-1.01,0.96-1.32,1.73
			c-0.32,0.79-0.48,1.72-0.48,2.78c0,1.05,0.16,1.98,0.48,2.75c0.31,0.75,0.75,1.34,1.31,1.73c0.56,0.39,1.23,0.59,1.99,0.59
			c1.17,0,2.07-0.43,2.76-1.3c0.7-0.89,1.06-2.16,1.06-3.77c0-1.63-0.36-2.9-1.06-3.79C336.01,87.16,335.1,86.73,333.93,86.73z"/>
	</g>
	<g>
		<path class="st3" d="M349.35,85.62v0.51c0.79-0.98,1.61-1.7,2.46-2.16c0.85-0.46,1.81-0.69,2.89-0.69c1.29,0,2.48,0.34,3.57,1.01
			c1.09,0.67,1.94,1.65,2.57,2.94c0.63,1.29,0.94,2.82,0.94,4.58c0,1.3-0.18,2.49-0.55,3.58c-0.36,1.09-0.86,2-1.5,2.74
			c-0.64,0.74-1.39,1.3-2.25,1.7c-0.87,0.4-1.8,0.6-2.79,0.6c-1.2,0-2.21-0.24-3.02-0.73c-0.81-0.49-1.59-1.2-2.33-2.14v6.34
			c0,1.86-0.67,2.79-2.01,2.79c-0.79,0-1.31-0.24-1.57-0.72c-0.26-0.48-0.38-1.18-0.38-2.1V85.65c0-0.8,0.17-1.41,0.52-1.8
			c0.35-0.4,0.82-0.6,1.43-0.6c0.59,0,1.08,0.2,1.45,0.61C349.16,84.27,349.35,84.85,349.35,85.62z M357.57,91.76
			c0-1.11-0.17-2.07-0.51-2.87c-0.34-0.8-0.81-1.41-1.41-1.84c-0.6-0.43-1.26-0.64-1.99-0.64c-1.16,0-2.13,0.46-2.93,1.38
			c-0.79,0.92-1.19,2.27-1.19,4.05c0,1.68,0.39,2.99,1.18,3.92c0.79,0.93,1.77,1.4,2.93,1.4c0.7,0,1.34-0.2,1.94-0.61
			c0.59-0.41,1.07-1.02,1.43-1.83C357.39,93.9,357.57,92.92,357.57,91.76z"/>
		<path class="st3" d="M347.34,107.07c-0.93,0-1.57-0.31-1.9-0.92c-0.29-0.54-0.43-1.28-0.43-2.27V85.65c0-0.9,0.21-1.58,0.62-2.05
			c0.42-0.48,1-0.72,1.71-0.72c0.7,0,1.28,0.25,1.73,0.73c0.36,0.39,0.57,0.91,0.64,1.55c0.62-0.65,1.27-1.16,1.93-1.52
			c0.9-0.49,1.93-0.73,3.07-0.73c1.35,0,2.62,0.36,3.76,1.06c1.14,0.71,2.05,1.75,2.71,3.09c0.65,1.33,0.98,2.93,0.98,4.75
			c0,1.33-0.19,2.58-0.56,3.7c-0.38,1.13-0.91,2.09-1.57,2.87c-0.67,0.78-1.47,1.38-2.38,1.8c-0.91,0.42-1.9,0.63-2.95,0.63
			c-1.26,0-2.34-0.26-3.21-0.78c-0.61-0.36-1.2-0.85-1.76-1.45v5.33C349.72,106.52,348.42,107.07,347.34,107.07z M347.34,83.63
			c-0.5,0-0.87,0.15-1.15,0.47c-0.29,0.32-0.43,0.85-0.43,1.56v18.23c0,0.85,0.11,1.5,0.34,1.92c0.07,0.13,0.28,0.52,1.24,0.52
			c0.7,0,1.64-0.25,1.64-2.41v-7.43l0.67,0.85c0.71,0.9,1.45,1.59,2.23,2.04c0.75,0.45,1.7,0.67,2.83,0.67
			c0.93,0,1.82-0.19,2.63-0.56c0.81-0.37,1.52-0.91,2.12-1.61c0.6-0.7,1.08-1.58,1.43-2.61c0.35-1.04,0.53-2.21,0.53-3.46
			c0-1.7-0.31-3.18-0.91-4.42c-0.6-1.22-1.41-2.16-2.43-2.79c-1.02-0.63-2.15-0.95-3.37-0.95c-1.01,0-1.92,0.22-2.71,0.64
			c-0.8,0.43-1.59,1.13-2.34,2.06l-0.67,0.83v-1.57c0-0.66-0.16-1.17-0.46-1.5C348.21,83.79,347.82,83.63,347.34,83.63z
			 M353.67,97.54c-1.28,0-2.36-0.52-3.22-1.53c-0.84-1-1.27-2.4-1.27-4.16c0-1.87,0.43-3.31,1.28-4.3c0.87-1,1.95-1.51,3.21-1.51
			c0.8,0,1.55,0.24,2.21,0.71c0.65,0.47,1.17,1.14,1.53,2c0.36,0.84,0.54,1.86,0.54,3.02c0,1.2-0.19,2.25-0.57,3.11
			c-0.39,0.87-0.91,1.54-1.56,1.99C355.16,97.31,354.44,97.54,353.67,97.54z M353.67,86.78c-1.05,0-1.92,0.41-2.64,1.25
			c-0.73,0.84-1.1,2.13-1.1,3.81c0,1.58,0.37,2.82,1.09,3.68c0.72,0.85,1.59,1.27,2.65,1.27c0.62,0,1.19-0.18,1.72-0.55
			c0.53-0.37,0.97-0.93,1.3-1.68c0.34-0.76,0.51-1.71,0.51-2.81c0-1.06-0.16-1.97-0.48-2.72c-0.31-0.73-0.74-1.3-1.28-1.68
			C354.91,86.98,354.31,86.78,353.67,86.78z"/>
	</g>
	<g>
		<path class="st3" d="M368.79,79.38v6.45c0.79-0.83,1.6-1.46,2.43-1.9c0.83-0.44,1.85-0.66,3.06-0.66c1.4,0,2.63,0.33,3.69,1
			c1.06,0.67,1.88,1.63,2.46,2.89c0.58,1.26,0.87,2.76,0.87,4.49c0,1.28-0.16,2.45-0.49,3.52c-0.33,1.07-0.8,1.99-1.42,2.78
			s-1.37,1.39-2.25,1.82c-0.88,0.43-1.85,0.64-2.92,0.64c-0.65,0-1.26-0.08-1.83-0.23c-0.57-0.15-1.06-0.36-1.46-0.61
			c-0.4-0.25-0.75-0.51-1.03-0.78c-0.28-0.27-0.66-0.67-1.12-1.21v0.42c0,0.79-0.19,1.4-0.57,1.8c-0.38,0.41-0.87,0.61-1.45,0.61
			c-0.6,0-1.08-0.2-1.43-0.61c-0.36-0.41-0.53-1.01-0.53-1.8V79.57c0-0.86,0.17-1.5,0.52-1.94c0.35-0.44,0.83-0.66,1.45-0.66
			c0.65,0,1.15,0.21,1.5,0.63C368.61,78.01,368.79,78.61,368.79,79.38z M368.99,91.93c0,1.68,0.38,2.97,1.15,3.88
			c0.77,0.9,1.78,1.35,3.03,1.35c1.06,0,1.98-0.46,2.75-1.38c0.77-0.92,1.15-2.25,1.15-3.97c0-1.11-0.16-2.07-0.48-2.88
			c-0.32-0.8-0.77-1.43-1.36-1.86c-0.59-0.44-1.27-0.66-2.06-0.66c-0.8,0-1.52,0.22-2.15,0.66c-0.63,0.44-1.12,1.07-1.49,1.9
			C369.17,89.8,368.99,90.79,368.99,91.93z"/>
		<path class="st3" d="M374.24,100.8c-0.68,0-1.33-0.08-1.93-0.25c-0.6-0.16-1.13-0.38-1.56-0.65c-0.42-0.27-0.79-0.55-1.09-0.83
			c-0.15-0.14-0.32-0.32-0.52-0.53c-0.07,0.64-0.29,1.15-0.64,1.53c-0.45,0.48-1.04,0.73-1.73,0.73c-0.71,0-1.29-0.25-1.71-0.74
			c-0.42-0.48-0.63-1.17-0.63-2.05V79.57c0-0.94,0.2-1.67,0.6-2.17c0.42-0.53,1-0.8,1.74-0.8c0.76,0,1.36,0.26,1.79,0.76
			c0.41,0.49,0.61,1.17,0.61,2.03v5.57c0.62-0.56,1.25-1.01,1.88-1.34c0.88-0.47,1.97-0.7,3.24-0.7c1.47,0,2.78,0.36,3.89,1.06
			c1.12,0.7,1.99,1.73,2.6,3.05c0.6,1.31,0.91,2.87,0.91,4.65c0,1.31-0.17,2.53-0.5,3.63c-0.34,1.11-0.84,2.09-1.48,2.9
			c-0.65,0.82-1.45,1.47-2.38,1.92C376.39,100.57,375.35,100.8,374.24,100.8z M368.42,96.59l0.66,0.76c0.45,0.52,0.82,0.92,1.1,1.18
			c0.26,0.25,0.59,0.5,0.97,0.74c0.37,0.23,0.83,0.42,1.36,0.57c0.54,0.15,1.12,0.22,1.74,0.22c1,0,1.93-0.2,2.75-0.6
			c0.83-0.4,1.54-0.98,2.12-1.71c0.59-0.74,1.04-1.63,1.35-2.65c0.31-1.03,0.47-2.18,0.47-3.41c0-1.67-0.28-3.13-0.84-4.34
			c-0.55-1.19-1.33-2.11-2.32-2.73c-0.99-0.62-2.17-0.94-3.49-0.94c-1.15,0-2.12,0.21-2.89,0.61c-0.79,0.42-1.57,1.03-2.33,1.82
			l-0.65,0.67v-7.38c0-0.68-0.15-1.2-0.44-1.55c-0.28-0.33-0.68-0.49-1.21-0.49c-0.5,0-0.88,0.17-1.15,0.52
			c-0.29,0.37-0.44,0.94-0.44,1.71v18.45c0,0.7,0.15,1.22,0.44,1.56c0.28,0.32,0.66,0.48,1.15,0.48c0.48,0,0.87-0.16,1.18-0.49
			c0.31-0.33,0.47-0.85,0.47-1.55V96.59z M373.17,97.54c-1.36,0-2.47-0.5-3.31-1.49c-0.82-0.97-1.24-2.35-1.24-4.12
			c0-1.19,0.19-2.24,0.57-3.11c0.39-0.89,0.93-1.59,1.61-2.06c1.37-0.95,3.33-0.97,4.65,0.01c0.64,0.48,1.14,1.16,1.49,2.03
			c0.34,0.85,0.51,1.86,0.51,3.02c0,1.81-0.42,3.22-1.24,4.21C375.36,97.03,374.34,97.54,373.17,97.54z M373.17,86.78
			c-0.72,0-1.37,0.2-1.94,0.59c-0.57,0.4-1.02,0.98-1.36,1.75c-0.34,0.78-0.51,1.72-0.51,2.81c0,1.58,0.36,2.8,1.06,3.63
			c0.7,0.82,1.6,1.22,2.74,1.22c0.95,0,1.76-0.41,2.46-1.25c0.71-0.85,1.07-2.1,1.07-3.73c0-1.06-0.15-1.98-0.45-2.74
			c-0.29-0.74-0.71-1.31-1.24-1.7C374.48,86.97,373.88,86.78,373.17,86.78z"/>
	</g>
	<g>
		<path class="st3" d="M388.55,94.33v3.53c0,0.86-0.2,1.5-0.6,1.93c-0.4,0.43-0.91,0.64-1.53,0.64c-0.61,0-1.11-0.22-1.5-0.65
			c-0.39-0.43-0.59-1.07-0.59-1.92V86.1c0-1.9,0.69-2.85,2.06-2.85c0.7,0,1.21,0.22,1.52,0.67c0.31,0.44,0.48,1.1,0.51,1.96
			c0.51-0.87,1.02-1.52,1.55-1.96c0.53-0.44,1.24-0.67,2.13-0.67c0.89,0,1.75,0.22,2.58,0.67s1.25,1.03,1.25,1.76
			c0,0.52-0.18,0.94-0.53,1.28c-0.36,0.33-0.74,0.5-1.15,0.5c-0.15,0-0.53-0.09-1.12-0.29c-0.59-0.19-1.12-0.29-1.57-0.29
			c-0.62,0-1.12,0.16-1.52,0.49c-0.39,0.33-0.7,0.81-0.91,1.45c-0.22,0.64-0.37,1.4-0.45,2.28
			C388.59,91.99,388.55,93.06,388.55,94.33z"/>
		<path class="st3" d="M386.42,100.8c-0.72,0-1.31-0.26-1.78-0.77c-0.45-0.5-0.69-1.23-0.69-2.17V86.1c0-2.66,1.32-3.22,2.43-3.22
			c0.83,0,1.44,0.28,1.82,0.83c0.21,0.3,0.36,0.66,0.45,1.1c0.35-0.48,0.7-0.87,1.06-1.17c0.6-0.5,1.4-0.75,2.37-0.75
			c0.94,0,1.87,0.24,2.76,0.71c0.96,0.51,1.45,1.22,1.45,2.1c0,0.62-0.22,1.14-0.65,1.55c-0.43,0.4-0.9,0.6-1.41,0.6
			c-0.14,0-0.4-0.03-1.24-0.3c-1.26-0.41-2.15-0.35-2.73,0.13c-0.34,0.28-0.6,0.71-0.8,1.28c-0.21,0.61-0.35,1.35-0.43,2.2
			c-0.08,0.86-0.12,1.94-0.12,3.19v3.53c0,0.95-0.24,1.69-0.71,2.18C387.75,100.55,387.14,100.8,386.42,100.8z M386.38,83.63
			c-0.72,0-1.68,0.26-1.68,2.47v11.76c0,0.75,0.17,1.31,0.49,1.67c0.32,0.35,0.72,0.53,1.22,0.53c0.52,0,0.93-0.17,1.26-0.52
			c0.33-0.35,0.5-0.92,0.5-1.67v-3.53c0-1.28,0.04-2.38,0.13-3.26c0.08-0.91,0.24-1.7,0.47-2.37c0.24-0.7,0.58-1.25,1.03-1.62
			c0.78-0.65,1.92-0.76,3.44-0.27c0.79,0.25,0.98,0.27,1.01,0.27c0.32,0,0.61-0.13,0.9-0.4c0.28-0.26,0.42-0.59,0.42-1
			c0-0.59-0.34-1.06-1.05-1.43c-1.53-0.81-3.36-0.83-4.3-0.04c-0.5,0.41-0.99,1.04-1.47,1.87l-0.65,1.12l-0.05-1.29
			c-0.03-0.79-0.18-1.38-0.44-1.76C387.36,83.79,386.96,83.63,386.38,83.63z"/>
	</g>
	<g>
		<path class="st3" d="M410.05,97.99v-0.54c-0.51,0.64-1.04,1.18-1.59,1.61c-0.56,0.43-1.17,0.76-1.83,0.97
			c-0.66,0.21-1.41,0.32-2.26,0.32c-1.02,0-1.94-0.21-2.75-0.63c-0.81-0.42-1.44-1.01-1.88-1.75c-0.53-0.9-0.79-2.19-0.79-3.87
			v-8.37c0-0.85,0.19-1.48,0.57-1.9c0.38-0.42,0.89-0.63,1.52-0.63c0.64,0,1.16,0.21,1.55,0.63c0.39,0.42,0.59,1.05,0.59,1.89v6.76
			c0,0.98,0.08,1.8,0.25,2.47c0.16,0.66,0.46,1.19,0.89,1.56c0.43,0.38,1.01,0.57,1.74,0.57c0.71,0,1.38-0.21,2.01-0.63
			c0.63-0.42,1.09-0.97,1.38-1.66c0.24-0.6,0.36-1.91,0.36-3.93v-5.14c0-0.84,0.2-1.46,0.59-1.89c0.39-0.42,0.9-0.63,1.53-0.63
			c0.63,0,1.13,0.21,1.52,0.63c0.38,0.42,0.57,1.05,0.57,1.9v12.24c0,0.8-0.18,1.41-0.55,1.81c-0.37,0.4-0.84,0.6-1.42,0.6
			c-0.58,0-1.05-0.21-1.43-0.63C410.23,99.33,410.05,98.74,410.05,97.99z"/>
		<path class="st3" d="M412.04,100.75c-0.69,0-1.26-0.25-1.71-0.75c-0.36-0.4-0.57-0.92-0.64-1.57c-0.33,0.35-0.66,0.65-1.01,0.92
			c-0.59,0.46-1.24,0.8-1.94,1.03c-0.7,0.22-1.5,0.33-2.37,0.33c-1.08,0-2.06-0.23-2.92-0.68c-0.87-0.45-1.55-1.09-2.03-1.89
			c-0.56-0.95-0.84-2.32-0.84-4.06v-8.37c0-0.94,0.23-1.66,0.67-2.15c0.45-0.5,1.06-0.75,1.79-0.75c0.75,0,1.36,0.25,1.82,0.75
			c0.46,0.49,0.69,1.21,0.69,2.14v6.76c0,0.95,0.08,1.75,0.24,2.38c0.15,0.59,0.41,1.05,0.77,1.37c0.36,0.32,0.85,0.47,1.49,0.47
			c0.64,0,1.23-0.19,1.8-0.57c0.56-0.38,0.98-0.88,1.24-1.49c0.15-0.37,0.33-1.34,0.33-3.78v-5.14c0-0.93,0.23-1.65,0.69-2.14
			c0.46-0.5,1.07-0.75,1.81-0.75s1.34,0.25,1.79,0.75c0.45,0.49,0.67,1.21,0.67,2.15v12.24c0,0.9-0.22,1.59-0.65,2.06
			C413.3,100.5,412.73,100.75,412.04,100.75z M410.42,96.37v1.62c0,0.65,0.16,1.16,0.47,1.51c0.3,0.34,0.68,0.5,1.15,0.5
			c0.47,0,0.84-0.16,1.14-0.48c0.3-0.33,0.45-0.85,0.45-1.56V85.72c0-0.74-0.16-1.3-0.47-1.64c-0.31-0.34-0.72-0.5-1.24-0.5
			c-0.53,0-0.94,0.17-1.26,0.51c-0.32,0.35-0.49,0.9-0.49,1.63v5.14c0,2.09-0.12,3.42-0.38,4.07c-0.32,0.75-0.83,1.37-1.52,1.83
			c-0.69,0.46-1.44,0.7-2.22,0.7c-0.82,0-1.49-0.22-1.99-0.66c-0.49-0.43-0.82-1.02-1.01-1.75c-0.17-0.69-0.26-1.55-0.26-2.56v-6.76
			c0-0.73-0.16-1.28-0.49-1.63c-0.32-0.35-0.74-0.51-1.27-0.51c-0.52,0-0.93,0.17-1.24,0.5c-0.31,0.34-0.47,0.9-0.47,1.64v8.37
			c0,1.61,0.25,2.84,0.74,3.68c0.4,0.68,0.99,1.22,1.73,1.61c0.75,0.39,1.62,0.59,2.57,0.59c0.8,0,1.52-0.1,2.15-0.3
			c0.62-0.2,1.19-0.5,1.71-0.91c0.53-0.41,1.05-0.93,1.53-1.55L410.42,96.37z"/>
	</g>
	<g>
		<path class="st3" d="M433.5,86.35v12.27c0,1.4-0.15,2.61-0.45,3.62c-0.3,1.01-0.78,1.85-1.44,2.51c-0.66,0.66-1.52,1.15-2.59,1.47
			c-1.07,0.32-2.4,0.48-3.98,0.48c-1.45,0-2.75-0.2-3.9-0.61c-1.15-0.41-2.03-0.93-2.65-1.58c-0.62-0.64-0.93-1.31-0.93-1.99
			c0-0.52,0.18-0.94,0.53-1.26c0.35-0.33,0.77-0.49,1.27-0.49c0.62,0,1.16,0.27,1.62,0.82c0.23,0.28,0.46,0.56,0.7,0.84
			c0.24,0.28,0.51,0.53,0.8,0.73c0.29,0.2,0.65,0.35,1.06,0.45c0.41,0.1,0.89,0.15,1.42,0.15c1.09,0,1.94-0.15,2.55-0.46
			c0.6-0.3,1.03-0.73,1.27-1.28c0.24-0.55,0.38-1.13,0.43-1.76c0.04-0.62,0.07-1.63,0.09-3.01c-0.65,0.91-1.4,1.6-2.25,2.07
			c-0.85,0.47-1.86,0.71-3.04,0.71c-1.41,0-2.65-0.36-3.71-1.08c-1.06-0.72-1.87-1.73-2.44-3.03c-0.57-1.3-0.85-2.8-0.85-4.5
			c0-1.27,0.17-2.41,0.52-3.44c0.35-1.02,0.84-1.88,1.48-2.58c0.64-0.7,1.38-1.23,2.21-1.59c0.84-0.36,1.75-0.53,2.75-0.53
			c1.2,0,2.23,0.23,3.11,0.69c0.88,0.46,1.69,1.18,2.44,2.16v-0.57c0-0.73,0.18-1.3,0.54-1.7c0.36-0.4,0.83-0.6,1.39-0.6
			c0.81,0,1.36,0.27,1.62,0.8C433.37,84.58,433.5,85.35,433.5,86.35z M421.26,91.7c0,1.71,0.37,3.01,1.12,3.88
			c0.75,0.88,1.71,1.31,2.9,1.31c0.7,0,1.36-0.19,1.99-0.56c0.62-0.38,1.13-0.94,1.52-1.7c0.39-0.76,0.59-1.68,0.59-2.76
			c0-1.72-0.38-3.06-1.14-4.02c-0.76-0.96-1.76-1.44-2.99-1.44c-1.21,0-2.17,0.46-2.9,1.38C421.63,88.7,421.26,90.01,421.26,91.7z"
			/>
		<path class="st3" d="M425.04,107.07c-1.49,0-2.84-0.21-4.02-0.63c-1.2-0.43-2.14-0.99-2.79-1.67c-0.69-0.71-1.03-1.47-1.03-2.25
			c0-0.62,0.22-1.14,0.65-1.54c0.42-0.39,0.93-0.59,1.52-0.59c0.73,0,1.37,0.32,1.91,0.95c0.23,0.28,0.46,0.56,0.7,0.84
			c0.22,0.26,0.47,0.48,0.73,0.66c0.25,0.17,0.57,0.31,0.94,0.39c0.38,0.09,0.83,0.14,1.34,0.14c1.03,0,1.83-0.14,2.38-0.42
			c0.53-0.27,0.89-0.62,1.09-1.09c0.22-0.5,0.36-1.05,0.39-1.63c0.03-0.44,0.05-1.08,0.07-1.91c-0.51,0.54-1.07,0.99-1.67,1.33
			c-0.91,0.5-1.99,0.76-3.22,0.76c-1.48,0-2.8-0.39-3.92-1.15c-1.11-0.76-1.98-1.83-2.57-3.19c-0.59-1.34-0.88-2.91-0.88-4.65
			c0-1.31,0.18-2.5,0.54-3.56c0.36-1.07,0.88-1.98,1.56-2.72c0.67-0.74,1.46-1.3,2.34-1.68c0.88-0.37,1.86-0.56,2.9-0.56
			c1.25,0,2.36,0.25,3.28,0.73c0.67,0.35,1.31,0.85,1.92,1.49c0.06-0.63,0.27-1.14,0.62-1.53c0.43-0.48,1-0.73,1.67-0.73
			c0.96,0,1.62,0.34,1.96,1c0.3,0.59,0.44,1.4,0.44,2.47v12.27c0,1.43-0.16,2.69-0.46,3.73c-0.32,1.07-0.83,1.96-1.53,2.67
			c-0.7,0.7-1.63,1.23-2.75,1.56C428.03,106.9,426.66,107.07,425.04,107.07z M419.36,101.14c-0.4,0-0.73,0.13-1.01,0.39
			c-0.27,0.25-0.41,0.58-0.41,0.99c0,0.59,0.27,1.15,0.82,1.73c0.57,0.6,1.42,1.1,2.5,1.49c1.1,0.39,2.37,0.59,3.77,0.59
			c1.54,0,2.85-0.16,3.88-0.46c1-0.3,1.82-0.76,2.43-1.38c0.61-0.61,1.06-1.4,1.34-2.35c0.29-0.97,0.43-2.15,0.43-3.51V86.35
			c0-0.94-0.12-1.65-0.36-2.13c-0.2-0.4-0.62-0.59-1.29-0.59c-0.46,0-0.82,0.16-1.11,0.48c-0.3,0.33-0.45,0.82-0.45,1.45v1.68
			l-0.67-0.87c-0.72-0.93-1.5-1.62-2.32-2.06c-0.82-0.43-1.81-0.65-2.94-0.65c-0.94,0-1.82,0.17-2.61,0.5
			c-0.78,0.33-1.48,0.84-2.08,1.49c-0.6,0.66-1.07,1.49-1.4,2.45c-0.33,0.98-0.5,2.09-0.5,3.31c0,1.64,0.28,3.11,0.82,4.35
			c0.54,1.23,1.31,2.19,2.31,2.87c0.99,0.68,2.17,1.02,3.49,1.02c1.1,0,2.07-0.22,2.86-0.66c0.8-0.44,1.51-1.11,2.13-1.96l0.7-0.98
			l-0.02,1.2c-0.02,1.4-0.05,2.39-0.09,3.03c-0.04,0.67-0.2,1.3-0.46,1.88c-0.28,0.63-0.76,1.12-1.44,1.46
			c-0.66,0.33-1.57,0.5-2.71,0.5c-0.56,0-1.07-0.05-1.51-0.16c-0.46-0.11-0.86-0.28-1.19-0.5c-0.32-0.22-0.61-0.49-0.88-0.79
			c-0.24-0.29-0.48-0.57-0.71-0.85C420.31,101.37,419.87,101.14,419.36,101.14z M425.29,97.27c-1.3,0-2.37-0.49-3.19-1.45
			c-0.8-0.94-1.21-2.33-1.21-4.13c0-1.77,0.39-3.17,1.17-4.15c0.8-1.01,1.87-1.52,3.2-1.52c1.35,0,2.46,0.53,3.29,1.58
			c0.81,1.02,1.22,2.45,1.22,4.26c0,1.14-0.21,2.13-0.63,2.94c-0.42,0.82-0.98,1.44-1.66,1.85
			C426.79,97.07,426.06,97.27,425.29,97.27z M425.26,86.78c-1.1,0-1.95,0.4-2.61,1.24c-0.67,0.85-1.01,2.08-1.01,3.68
			c0,1.61,0.35,2.84,1.03,3.64c0.68,0.8,1.54,1.18,2.62,1.18c0.63,0,1.23-0.17,1.8-0.51c0.56-0.34,1.03-0.86,1.38-1.55
			c0.36-0.7,0.55-1.57,0.55-2.59c0-1.63-0.36-2.9-1.06-3.79C427.27,87.21,426.38,86.78,425.26,86.78z"/>
	</g>
</g>
<g>
	<g>
		<path class="st1" d="M46.52,76.63v16.51h7.29c0.74,0,1.31,0.18,1.71,0.54c0.4,0.36,0.6,0.82,0.6,1.36c0,0.56-0.2,1.01-0.59,1.35
			c-0.39,0.35-0.96,0.52-1.72,0.52h-9.07c-1,0-1.72-0.22-2.16-0.67c-0.44-0.44-0.66-1.16-0.66-2.15V76.63
			c0-0.93,0.21-1.62,0.63-2.09c0.42-0.46,0.97-0.7,1.65-0.7c0.69,0,1.25,0.23,1.68,0.69C46.31,74.99,46.52,75.69,46.52,76.63z"/>
		<path class="st1" d="M53.81,97.29h-9.07c-1.1,0-1.92-0.26-2.43-0.78c-0.51-0.51-0.77-1.33-0.77-2.41V76.63
			c0-1.02,0.24-1.81,0.72-2.34c0.49-0.54,1.14-0.82,1.93-0.82c0.8,0,1.45,0.27,1.95,0.81c0.49,0.53,0.74,1.32,0.74,2.35v16.14h6.92
			c0.84,0,1.5,0.21,1.96,0.64c0.48,0.43,0.72,0.98,0.72,1.64c0,0.67-0.24,1.22-0.71,1.64C55.32,97.09,54.66,97.29,53.81,97.29z
			 M44.2,74.22c-0.57,0-1.02,0.19-1.37,0.57c-0.35,0.39-0.53,1.01-0.53,1.84V94.1c0,0.88,0.19,1.52,0.55,1.89
			c0.36,0.37,1,0.55,1.89,0.55h9.07c0.66,0,1.15-0.14,1.47-0.42c0.31-0.27,0.46-0.63,0.46-1.07c0-0.44-0.15-0.79-0.47-1.08
			c-0.32-0.29-0.81-0.44-1.46-0.44h-7.67V76.63c0-0.84-0.18-1.46-0.54-1.84C45.25,74.41,44.79,74.22,44.2,74.22z"/>
	</g>
	<g>
		<path class="st1" d="M75.96,88.72c0,1.26-0.2,2.42-0.59,3.48c-0.39,1.06-0.96,1.98-1.7,2.74s-1.63,1.35-2.66,1.76
			c-1.03,0.41-2.19,0.61-3.48,0.61c-1.28,0-2.43-0.21-3.45-0.62c-1.02-0.41-1.91-1-2.65-1.77c-0.75-0.77-1.31-1.68-1.7-2.72
			c-0.39-1.05-0.58-2.21-0.58-3.47c0-1.28,0.2-2.45,0.59-3.51c0.39-1.06,0.95-1.97,1.69-2.72c0.73-0.75,1.62-1.33,2.66-1.74
			c1.04-0.41,2.19-0.61,3.45-0.61c1.28,0,2.44,0.21,3.48,0.62c1.04,0.41,1.93,1,2.68,1.76c0.74,0.76,1.31,1.67,1.69,2.72
			C75.77,86.29,75.96,87.45,75.96,88.72z M71.72,88.72c0-1.72-0.38-3.06-1.14-4.02c-0.76-0.96-1.78-1.44-3.06-1.44
			c-0.83,0-1.55,0.21-2.18,0.64c-0.63,0.43-1.11,1.06-1.45,1.89c-0.34,0.84-0.51,1.81-0.51,2.93c0,1.1,0.17,2.07,0.5,2.89
			c0.33,0.83,0.81,1.46,1.44,1.9c0.62,0.44,1.36,0.66,2.21,0.66c1.28,0,2.3-0.48,3.06-1.45C71.34,91.75,71.72,90.42,71.72,88.72z"/>
		<path class="st1" d="M67.52,97.68c-1.32,0-2.53-0.22-3.59-0.65c-1.06-0.43-2-1.05-2.78-1.86c-0.78-0.8-1.38-1.76-1.79-2.85
			c-0.4-1.09-0.6-2.3-0.6-3.6c0-1.32,0.21-2.54,0.61-3.64c0.41-1.11,1-2.07,1.77-2.85c0.77-0.79,1.71-1.4,2.79-1.83
			c1.08-0.42,2.29-0.64,3.59-0.64c1.32,0,2.54,0.22,3.62,0.65c1.09,0.43,2.03,1.05,2.81,1.85c0.78,0.8,1.38,1.76,1.78,2.86
			c0.4,1.09,0.6,2.3,0.6,3.61c0,1.3-0.21,2.51-0.61,3.61c-0.41,1.11-1.01,2.07-1.79,2.87c-0.78,0.8-1.72,1.42-2.79,1.84
			C70.07,97.46,68.86,97.68,67.52,97.68z M67.52,80.5c-1.21,0-2.32,0.2-3.31,0.59c-0.99,0.39-1.84,0.94-2.53,1.65
			c-0.69,0.71-1.23,1.58-1.6,2.59c-0.37,1.02-0.56,2.15-0.56,3.38c0,1.22,0.19,2.34,0.56,3.34c0.37,0.99,0.91,1.87,1.62,2.59
			c0.71,0.73,1.56,1.29,2.53,1.68c0.97,0.39,2.09,0.59,3.31,0.59c1.24,0,2.36-0.2,3.34-0.58c0.98-0.39,1.83-0.95,2.53-1.67
			c0.7-0.72,1.25-1.6,1.62-2.61c0.37-1.02,0.56-2.14,0.56-3.35c0-1.22-0.19-2.35-0.56-3.35c-0.37-1-0.91-1.87-1.61-2.59
			c-0.7-0.72-1.56-1.28-2.55-1.68C69.87,80.7,68.75,80.5,67.52,80.5z M67.52,94.54c-0.92,0-1.73-0.24-2.42-0.73
			c-0.68-0.48-1.21-1.17-1.57-2.06C63.18,90.88,63,89.86,63,88.72c0-1.16,0.18-2.19,0.54-3.07c0.37-0.9,0.9-1.6,1.59-2.06
			c0.69-0.47,1.49-0.71,2.39-0.71c1.39,0,2.52,0.53,3.35,1.58c0.81,1.02,1.22,2.45,1.22,4.26c0,1.78-0.41,3.2-1.22,4.23
			C70.05,94,68.92,94.54,67.52,94.54z M67.52,83.63c-0.74,0-1.41,0.19-1.97,0.58c-0.56,0.38-1.01,0.96-1.32,1.73
			c-0.32,0.79-0.48,1.72-0.48,2.78c0,1.05,0.16,1.98,0.48,2.75c0.31,0.75,0.75,1.34,1.31,1.73c0.56,0.4,1.22,0.59,1.99,0.59
			c1.17,0,2.07-0.43,2.76-1.3c0.7-0.89,1.06-2.16,1.06-3.77c0-1.63-0.36-2.9-1.06-3.79C69.6,84.05,68.69,83.63,67.52,83.63z"/>
	</g>
	<g>
		<path class="st1" d="M95.8,88.7c0,1.26-0.2,2.42-0.59,3.48c-0.39,1.06-0.96,1.98-1.7,2.74s-1.63,1.35-2.66,1.76
			c-1.03,0.41-2.19,0.61-3.48,0.61c-1.28,0-2.43-0.21-3.45-0.62c-1.02-0.41-1.91-1-2.65-1.77c-0.75-0.77-1.31-1.68-1.7-2.72
			c-0.39-1.05-0.58-2.21-0.58-3.47c0-1.28,0.2-2.45,0.59-3.51c0.39-1.06,0.95-1.97,1.69-2.72c0.73-0.75,1.62-1.33,2.66-1.74
			c1.04-0.41,2.19-0.61,3.45-0.61c1.28,0,2.44,0.21,3.48,0.62c1.04,0.41,1.93,1,2.68,1.76c0.74,0.76,1.31,1.67,1.69,2.72
			C95.6,86.27,95.8,87.43,95.8,88.7z M91.56,88.7c0-1.72-0.38-3.06-1.14-4.02c-0.76-0.96-1.78-1.44-3.06-1.44
			c-0.83,0-1.55,0.21-2.18,0.64c-0.63,0.43-1.11,1.06-1.45,1.89c-0.34,0.84-0.51,1.81-0.51,2.93c0,1.1,0.17,2.07,0.5,2.89
			c0.33,0.83,0.81,1.46,1.44,1.9c0.62,0.44,1.36,0.66,2.21,0.66c1.28,0,2.3-0.48,3.06-1.45C91.18,91.73,91.56,90.4,91.56,88.7z"/>
		<path class="st1" d="M87.36,97.66c-1.32,0-2.53-0.22-3.59-0.65c-1.06-0.43-2-1.06-2.78-1.86c-0.78-0.8-1.38-1.76-1.79-2.85
			c-0.4-1.09-0.6-2.3-0.6-3.6c0-1.32,0.21-2.54,0.61-3.64c0.41-1.11,1-2.07,1.77-2.85s1.71-1.4,2.79-1.83
			c1.08-0.42,2.29-0.64,3.59-0.64c1.32,0,2.54,0.22,3.62,0.65c1.09,0.43,2.03,1.05,2.81,1.85c0.78,0.8,1.38,1.76,1.78,2.86
			c0.4,1.09,0.6,2.3,0.6,3.61c0,1.3-0.21,2.51-0.61,3.61c-0.41,1.11-1.01,2.07-1.79,2.87c-0.78,0.8-1.72,1.42-2.79,1.84
			C89.91,97.44,88.69,97.66,87.36,97.66z M87.36,80.48c-1.21,0-2.32,0.2-3.31,0.59c-0.99,0.39-1.84,0.94-2.53,1.65
			c-0.69,0.71-1.23,1.58-1.6,2.59c-0.38,1.02-0.56,2.15-0.56,3.38c0,1.22,0.19,2.34,0.56,3.34c0.37,0.99,0.91,1.87,1.62,2.59
			c0.71,0.73,1.56,1.29,2.53,1.69c0.97,0.39,2.09,0.59,3.31,0.59c1.24,0,2.36-0.2,3.34-0.58c0.98-0.39,1.83-0.95,2.53-1.67
			c0.7-0.72,1.25-1.6,1.62-2.61c0.38-1.02,0.56-2.14,0.56-3.35c0-1.22-0.19-2.35-0.56-3.35c-0.37-1-0.91-1.87-1.61-2.59
			c-0.7-0.72-1.56-1.28-2.55-1.68C89.71,80.68,88.59,80.48,87.36,80.48z M87.36,94.52c-0.92,0-1.73-0.24-2.42-0.73
			c-0.68-0.48-1.21-1.17-1.57-2.06c-0.35-0.87-0.53-1.89-0.53-3.03c0-1.16,0.18-2.19,0.54-3.07c0.37-0.9,0.9-1.6,1.59-2.06
			c0.69-0.47,1.49-0.71,2.39-0.71c1.39,0,2.52,0.53,3.35,1.58c0.81,1.02,1.22,2.45,1.22,4.26c0,1.78-0.41,3.2-1.22,4.23
			C89.88,93.98,88.76,94.52,87.36,94.52z M87.36,83.61c-0.74,0-1.41,0.19-1.97,0.58c-0.56,0.38-1.01,0.96-1.32,1.73
			c-0.32,0.79-0.48,1.72-0.48,2.78c0,1.05,0.16,1.98,0.48,2.75c0.31,0.75,0.75,1.34,1.31,1.73c0.56,0.39,1.23,0.59,1.99,0.59
			c1.17,0,2.07-0.43,2.76-1.3c0.7-0.89,1.06-2.16,1.06-3.77c0-1.63-0.36-2.9-1.06-3.79C89.44,84.03,88.53,83.61,87.36,83.61z"/>
	</g>
	<g>
		<path class="st1" d="M102.78,82.49v0.51c0.79-0.98,1.61-1.7,2.46-2.16c0.85-0.46,1.81-0.69,2.89-0.69c1.29,0,2.48,0.34,3.56,1.01
			c1.09,0.67,1.94,1.65,2.57,2.94c0.63,1.29,0.94,2.82,0.94,4.58c0,1.3-0.18,2.49-0.55,3.58c-0.36,1.09-0.86,2-1.5,2.74
			c-0.64,0.74-1.39,1.3-2.25,1.7c-0.87,0.4-1.8,0.6-2.79,0.6c-1.2,0-2.21-0.24-3.02-0.73c-0.81-0.49-1.59-1.2-2.33-2.14v6.34
			c0,1.86-0.67,2.79-2.01,2.79c-0.79,0-1.31-0.24-1.57-0.72c-0.26-0.48-0.38-1.18-0.38-2.1V82.53c0-0.8,0.17-1.41,0.52-1.8
			c0.35-0.4,0.82-0.6,1.43-0.6c0.59,0,1.08,0.2,1.45,0.61C102.59,81.15,102.78,81.73,102.78,82.49z M111,88.64
			c0-1.11-0.17-2.07-0.51-2.87s-0.81-1.41-1.41-1.84c-0.6-0.43-1.26-0.64-1.99-0.64c-1.16,0-2.13,0.46-2.93,1.38
			c-0.79,0.92-1.19,2.27-1.19,4.05c0,1.68,0.39,2.99,1.18,3.92c0.79,0.93,1.77,1.4,2.93,1.4c0.7,0,1.34-0.2,1.94-0.61
			c0.59-0.41,1.07-1.02,1.43-1.83C110.82,90.78,111,89.79,111,88.64z"/>
		<path class="st1" d="M100.77,103.95c-0.93,0-1.57-0.31-1.9-0.92c-0.29-0.54-0.43-1.28-0.43-2.27V82.53c0-0.9,0.21-1.58,0.62-2.05
			c0.42-0.48,1-0.72,1.71-0.72c0.7,0,1.28,0.25,1.73,0.73c0.36,0.39,0.57,0.91,0.64,1.55c0.62-0.65,1.27-1.16,1.93-1.52
			c0.9-0.49,1.93-0.73,3.07-0.73c1.35,0,2.62,0.36,3.76,1.06c1.14,0.71,2.05,1.75,2.71,3.09c0.65,1.33,0.98,2.93,0.98,4.75
			c0,1.33-0.19,2.58-0.56,3.7c-0.38,1.13-0.91,2.09-1.57,2.87c-0.67,0.78-1.47,1.38-2.38,1.8c-0.91,0.42-1.9,0.63-2.95,0.63
			c-1.26,0-2.34-0.26-3.21-0.78c-0.61-0.36-1.2-0.85-1.76-1.45v5.33C103.15,103.4,101.85,103.95,100.77,103.95z M100.77,80.5
			c-0.5,0-0.87,0.15-1.15,0.47c-0.29,0.32-0.43,0.85-0.43,1.56v18.23c0,0.85,0.11,1.5,0.34,1.92c0.07,0.13,0.28,0.52,1.24,0.52
			c0.7,0,1.64-0.25,1.64-2.41v-7.43l0.67,0.85c0.71,0.9,1.45,1.59,2.23,2.04c0.75,0.45,1.7,0.67,2.83,0.67
			c0.93,0,1.82-0.19,2.63-0.56c0.81-0.37,1.52-0.91,2.12-1.61c0.6-0.7,1.08-1.58,1.43-2.61c0.35-1.04,0.53-2.21,0.53-3.46
			c0-1.7-0.31-3.18-0.91-4.42c-0.6-1.22-1.41-2.16-2.43-2.79c-1.02-0.63-2.15-0.95-3.37-0.95c-1.01,0-1.92,0.22-2.71,0.64
			c-0.8,0.43-1.59,1.13-2.34,2.06l-0.67,0.83V82.5c0-0.66-0.16-1.17-0.46-1.5C101.64,80.66,101.25,80.5,100.77,80.5z M107.1,94.41
			c-1.28,0-2.36-0.52-3.22-1.53c-0.84-1-1.27-2.4-1.27-4.16c0-1.87,0.43-3.31,1.28-4.3c0.87-1,1.95-1.51,3.21-1.51
			c0.8,0,1.55,0.24,2.21,0.71c0.65,0.47,1.17,1.14,1.53,2c0.36,0.84,0.54,1.86,0.54,3.02c0,1.2-0.19,2.25-0.57,3.11
			c-0.39,0.87-0.91,1.54-1.56,1.99C108.59,94.19,107.87,94.41,107.1,94.41z M107.1,83.66c-1.05,0-1.92,0.41-2.64,1.25
			c-0.73,0.84-1.1,2.13-1.1,3.81c0,1.58,0.37,2.82,1.09,3.68c0.72,0.85,1.59,1.27,2.65,1.27c0.62,0,1.19-0.18,1.72-0.55
			c0.53-0.37,0.97-0.93,1.3-1.68c0.34-0.76,0.51-1.71,0.51-2.81c0-1.06-0.16-1.97-0.48-2.72c-0.31-0.73-0.74-1.3-1.28-1.68
			C108.34,83.85,107.74,83.66,107.1,83.66z"/>
	</g>
	<g>
		<path class="st1" d="M122.22,76.26v6.45c0.79-0.83,1.6-1.46,2.43-1.9c0.83-0.44,1.85-0.66,3.06-0.66c1.4,0,2.63,0.33,3.69,1
			c1.06,0.67,1.88,1.63,2.46,2.89c0.58,1.26,0.87,2.76,0.87,4.49c0,1.28-0.16,2.45-0.49,3.52c-0.33,1.07-0.8,1.99-1.42,2.78
			c-0.62,0.78-1.37,1.39-2.25,1.82c-0.88,0.43-1.85,0.64-2.92,0.64c-0.65,0-1.26-0.08-1.83-0.23c-0.57-0.15-1.06-0.36-1.46-0.61
			c-0.4-0.25-0.75-0.51-1.03-0.78c-0.28-0.27-0.66-0.67-1.12-1.21v0.42c0,0.79-0.19,1.4-0.57,1.8c-0.38,0.41-0.87,0.61-1.45,0.61
			c-0.6,0-1.08-0.2-1.43-0.61c-0.36-0.41-0.53-1.01-0.53-1.8V76.44c0-0.86,0.17-1.5,0.52-1.94c0.35-0.44,0.83-0.66,1.45-0.66
			c0.65,0,1.15,0.21,1.5,0.63C122.04,74.89,122.22,75.48,122.22,76.26z M122.42,88.81c0,1.68,0.38,2.97,1.15,3.88
			c0.77,0.9,1.78,1.35,3.03,1.35c1.06,0,1.98-0.46,2.75-1.38c0.77-0.92,1.15-2.25,1.15-3.97c0-1.11-0.16-2.07-0.48-2.88
			c-0.32-0.8-0.77-1.43-1.36-1.86s-1.27-0.66-2.06-0.66c-0.8,0-1.52,0.22-2.15,0.66c-0.63,0.44-1.12,1.07-1.49,1.9
			C122.6,86.68,122.42,87.66,122.42,88.81z"/>
		<path class="st1" d="M127.67,97.68c-0.68,0-1.33-0.08-1.93-0.25c-0.6-0.16-1.13-0.38-1.56-0.65c-0.42-0.27-0.79-0.55-1.09-0.83
			c-0.15-0.14-0.32-0.32-0.52-0.53c-0.07,0.64-0.29,1.15-0.64,1.53c-0.45,0.48-1.04,0.73-1.73,0.73c-0.71,0-1.29-0.25-1.71-0.74
			c-0.42-0.48-0.63-1.17-0.63-2.05V76.44c0-0.94,0.2-1.67,0.6-2.17c0.42-0.53,1-0.8,1.74-0.8c0.76,0,1.36,0.26,1.79,0.76
			c0.41,0.49,0.61,1.17,0.61,2.03v5.57c0.62-0.56,1.25-1.01,1.88-1.34c0.88-0.47,1.97-0.7,3.24-0.7c1.47,0,2.78,0.36,3.89,1.06
			c1.12,0.7,1.99,1.73,2.6,3.05c0.6,1.31,0.91,2.87,0.91,4.65c0,1.31-0.17,2.53-0.5,3.63c-0.34,1.11-0.84,2.09-1.48,2.9
			c-0.65,0.82-1.45,1.47-2.38,1.92C129.82,97.45,128.78,97.68,127.67,97.68z M121.84,93.47l0.66,0.76c0.45,0.52,0.82,0.92,1.1,1.18
			c0.26,0.25,0.59,0.5,0.97,0.74c0.37,0.23,0.83,0.42,1.36,0.57c0.54,0.15,1.12,0.22,1.74,0.22c1,0,1.93-0.2,2.75-0.6
			c0.83-0.4,1.54-0.98,2.12-1.71c0.59-0.74,1.04-1.63,1.35-2.65c0.31-1.03,0.47-2.18,0.47-3.41c0-1.67-0.28-3.13-0.84-4.34
			c-0.55-1.19-1.33-2.11-2.32-2.73c-0.99-0.62-2.17-0.94-3.49-0.94c-1.15,0-2.12,0.21-2.89,0.61c-0.79,0.42-1.57,1.03-2.33,1.82
			l-0.65,0.67v-7.38c0-0.68-0.15-1.2-0.44-1.55c-0.28-0.33-0.68-0.49-1.21-0.49c-0.5,0-0.88,0.17-1.15,0.52
			c-0.29,0.37-0.44,0.94-0.44,1.71v18.45c0,0.7,0.15,1.22,0.44,1.56c0.28,0.32,0.66,0.48,1.15,0.48c0.48,0,0.87-0.16,1.18-0.49
			c0.31-0.33,0.47-0.85,0.47-1.55V93.47z M126.6,94.41c-1.36,0-2.47-0.5-3.31-1.49c-0.82-0.97-1.24-2.35-1.24-4.12
			c0-1.19,0.19-2.24,0.57-3.11c0.39-0.89,0.93-1.59,1.61-2.06c1.37-0.95,3.33-0.97,4.65,0.01c0.64,0.48,1.14,1.16,1.49,2.03
			c0.34,0.85,0.51,1.86,0.51,3.02c0,1.81-0.42,3.22-1.24,4.21C128.79,93.9,127.77,94.41,126.6,94.41z M126.6,83.66
			c-0.72,0-1.37,0.2-1.94,0.59c-0.57,0.4-1.02,0.98-1.36,1.75c-0.34,0.78-0.51,1.72-0.51,2.81c0,1.58,0.36,2.8,1.06,3.63
			c0.7,0.82,1.6,1.22,2.74,1.22c0.95,0,1.76-0.41,2.46-1.25c0.71-0.85,1.07-2.1,1.07-3.73c0-1.06-0.15-1.98-0.45-2.74
			c-0.29-0.74-0.71-1.31-1.24-1.7C127.91,83.85,127.31,83.66,126.6,83.66z"/>
	</g>
	<g>
		<path class="st1" d="M141.98,91.21v3.53c0,0.86-0.2,1.5-0.6,1.93c-0.4,0.43-0.91,0.64-1.53,0.64c-0.61,0-1.11-0.22-1.5-0.65
			c-0.39-0.43-0.59-1.07-0.59-1.92V82.97c0-1.9,0.69-2.85,2.06-2.85c0.7,0,1.21,0.22,1.52,0.67s0.48,1.1,0.51,1.96
			c0.51-0.87,1.02-1.52,1.55-1.96c0.53-0.44,1.24-0.67,2.13-0.67c0.89,0,1.75,0.22,2.58,0.67c0.84,0.44,1.25,1.03,1.25,1.76
			c0,0.52-0.18,0.94-0.53,1.28c-0.36,0.33-0.74,0.5-1.15,0.5c-0.15,0-0.53-0.09-1.12-0.29c-0.59-0.19-1.12-0.29-1.57-0.29
			c-0.62,0-1.12,0.16-1.52,0.49c-0.39,0.33-0.7,0.81-0.91,1.45c-0.22,0.64-0.37,1.4-0.45,2.28
			C142.02,88.86,141.98,89.94,141.98,91.21z"/>
		<path class="st1" d="M139.85,97.68c-0.72,0-1.31-0.26-1.78-0.77c-0.45-0.5-0.69-1.23-0.69-2.17V82.97c0-2.66,1.32-3.22,2.43-3.22
			c0.83,0,1.44,0.28,1.82,0.83c0.21,0.3,0.36,0.66,0.45,1.1c0.35-0.48,0.7-0.87,1.06-1.17c0.6-0.5,1.4-0.75,2.37-0.75
			c0.94,0,1.87,0.24,2.76,0.71c0.96,0.51,1.45,1.22,1.45,2.1c0,0.62-0.22,1.14-0.65,1.55c-0.43,0.4-0.9,0.6-1.41,0.6
			c-0.14,0-0.4-0.03-1.24-0.3c-1.26-0.41-2.15-0.35-2.73,0.13c-0.34,0.28-0.6,0.71-0.8,1.28c-0.21,0.61-0.35,1.35-0.43,2.2
			c-0.08,0.86-0.12,1.94-0.12,3.19v3.53c0,0.95-0.24,1.69-0.71,2.18C141.18,97.42,140.57,97.68,139.85,97.68z M139.81,80.5
			c-0.72,0-1.68,0.26-1.68,2.47v11.76c0,0.75,0.17,1.31,0.49,1.67c0.32,0.35,0.72,0.53,1.22,0.53c0.52,0,0.93-0.17,1.26-0.52
			c0.33-0.35,0.5-0.92,0.5-1.67v-3.53c0-1.28,0.04-2.38,0.13-3.26c0.08-0.91,0.24-1.7,0.47-2.37c0.24-0.7,0.58-1.25,1.03-1.62
			c0.78-0.65,1.92-0.76,3.44-0.27c0.79,0.25,0.98,0.27,1.01,0.27c0.32,0,0.61-0.13,0.9-0.4c0.28-0.26,0.42-0.59,0.42-1
			c0-0.59-0.34-1.06-1.05-1.43c-1.53-0.81-3.36-0.83-4.3-0.04c-0.5,0.41-0.99,1.04-1.47,1.87l-0.65,1.12l-0.05-1.29
			c-0.03-0.79-0.18-1.38-0.44-1.76C140.79,80.67,140.39,80.5,139.81,80.5z"/>
	</g>
	<g>
		<path class="st1" d="M163.48,94.87v-0.54c-0.51,0.64-1.04,1.18-1.59,1.61c-0.56,0.43-1.17,0.76-1.83,0.97
			c-0.66,0.21-1.41,0.32-2.26,0.32c-1.02,0-1.94-0.21-2.75-0.63c-0.81-0.42-1.44-1.01-1.88-1.75c-0.53-0.9-0.79-2.19-0.79-3.87V82.6
			c0-0.85,0.19-1.48,0.57-1.9c0.38-0.42,0.89-0.63,1.52-0.63c0.64,0,1.16,0.21,1.55,0.63c0.39,0.42,0.59,1.05,0.59,1.89v6.76
			c0,0.98,0.08,1.8,0.25,2.47c0.16,0.66,0.46,1.19,0.89,1.56c0.43,0.38,1.01,0.57,1.74,0.57c0.71,0,1.38-0.21,2.01-0.63
			c0.63-0.42,1.09-0.97,1.38-1.66c0.24-0.6,0.36-1.91,0.36-3.93V82.6c0-0.84,0.2-1.46,0.59-1.89c0.39-0.42,0.9-0.63,1.53-0.63
			c0.63,0,1.13,0.21,1.52,0.63c0.38,0.42,0.57,1.05,0.57,1.9v12.24c0,0.8-0.18,1.41-0.55,1.81c-0.37,0.4-0.84,0.6-1.42,0.6
			c-0.58,0-1.05-0.21-1.43-0.63C163.66,96.21,163.48,95.62,163.48,94.87z"/>
		<path class="st1" d="M165.47,97.62c-0.69,0-1.26-0.25-1.71-0.75c-0.36-0.4-0.57-0.92-0.64-1.57c-0.33,0.35-0.66,0.65-1.01,0.92
			c-0.59,0.46-1.24,0.8-1.94,1.03c-0.7,0.22-1.5,0.33-2.37,0.33c-1.08,0-2.06-0.23-2.92-0.68c-0.87-0.45-1.55-1.09-2.03-1.89
			c-0.56-0.95-0.84-2.32-0.84-4.06V82.6c0-0.94,0.23-1.66,0.67-2.15c0.45-0.5,1.06-0.75,1.79-0.75c0.75,0,1.36,0.25,1.82,0.75
			c0.46,0.49,0.69,1.21,0.69,2.14v6.76c0,0.95,0.08,1.75,0.24,2.38c0.15,0.59,0.41,1.05,0.77,1.37c0.36,0.32,0.85,0.47,1.49,0.47
			c0.64,0,1.23-0.19,1.8-0.57c0.56-0.38,0.98-0.88,1.24-1.49c0.15-0.37,0.33-1.34,0.33-3.78V82.6c0-0.93,0.23-1.65,0.69-2.14
			c0.46-0.5,1.07-0.75,1.81-0.75s1.34,0.25,1.79,0.75c0.45,0.49,0.67,1.21,0.67,2.15v12.24c0,0.9-0.22,1.59-0.65,2.06
			C166.73,97.38,166.16,97.62,165.47,97.62z M163.85,93.25v1.62c0,0.65,0.16,1.16,0.47,1.51c0.3,0.34,0.68,0.5,1.15,0.5
			c0.47,0,0.84-0.16,1.14-0.48c0.3-0.33,0.45-0.85,0.45-1.56V82.6c0-0.74-0.16-1.3-0.47-1.64c-0.31-0.34-0.72-0.5-1.24-0.5
			c-0.53,0-0.94,0.17-1.26,0.51c-0.32,0.35-0.49,0.9-0.49,1.63v5.14c0,2.09-0.12,3.42-0.38,4.07c-0.32,0.75-0.83,1.37-1.52,1.83
			c-0.69,0.46-1.44,0.7-2.22,0.7c-0.82,0-1.49-0.22-1.99-0.66c-0.49-0.43-0.82-1.02-1.01-1.75c-0.17-0.69-0.26-1.55-0.26-2.56V82.6
			c0-0.73-0.16-1.28-0.49-1.63c-0.32-0.35-0.74-0.51-1.27-0.51c-0.52,0-0.93,0.17-1.24,0.5c-0.31,0.34-0.47,0.9-0.47,1.64v8.37
			c0,1.61,0.25,2.84,0.74,3.68c0.4,0.68,0.99,1.22,1.73,1.61c0.75,0.39,1.62,0.59,2.57,0.59c0.8,0,1.52-0.1,2.15-0.3
			c0.62-0.2,1.19-0.5,1.71-0.91c0.53-0.41,1.05-0.93,1.53-1.55L163.85,93.25z"/>
	</g>
	<g>
		<path class="st1" d="M186.93,83.22v12.27c0,1.4-0.15,2.61-0.45,3.62c-0.3,1.01-0.78,1.85-1.44,2.51
			c-0.66,0.66-1.52,1.15-2.59,1.47c-1.07,0.32-2.4,0.48-3.98,0.48c-1.45,0-2.75-0.2-3.9-0.61c-1.15-0.41-2.03-0.93-2.65-1.58
			c-0.62-0.64-0.93-1.31-0.93-1.99c0-0.52,0.18-0.94,0.53-1.26c0.35-0.33,0.77-0.49,1.27-0.49c0.62,0,1.16,0.27,1.62,0.82
			c0.23,0.28,0.46,0.56,0.7,0.84c0.24,0.28,0.51,0.53,0.8,0.73c0.29,0.2,0.65,0.35,1.06,0.45c0.41,0.1,0.89,0.15,1.42,0.15
			c1.09,0,1.94-0.15,2.55-0.46c0.6-0.3,1.03-0.73,1.27-1.28c0.24-0.55,0.38-1.13,0.43-1.76c0.04-0.62,0.07-1.63,0.09-3.01
			c-0.65,0.91-1.4,1.6-2.25,2.07c-0.85,0.47-1.86,0.71-3.04,0.71c-1.41,0-2.65-0.36-3.71-1.08c-1.06-0.72-1.87-1.73-2.44-3.03
			c-0.57-1.3-0.85-2.8-0.85-4.5c0-1.27,0.17-2.41,0.52-3.44c0.35-1.02,0.84-1.88,1.48-2.58c0.64-0.7,1.38-1.23,2.21-1.59
			c0.84-0.36,1.75-0.53,2.75-0.53c1.2,0,2.23,0.23,3.11,0.69c0.88,0.46,1.69,1.18,2.44,2.16v-0.57c0-0.73,0.18-1.3,0.54-1.7
			c0.36-0.4,0.83-0.6,1.39-0.6c0.81,0,1.36,0.27,1.62,0.8C186.8,81.46,186.93,82.22,186.93,83.22z M174.69,88.58
			c0,1.71,0.37,3.01,1.12,3.88c0.75,0.88,1.71,1.31,2.9,1.31c0.7,0,1.36-0.19,1.99-0.56c0.62-0.38,1.13-0.94,1.52-1.7
			c0.39-0.76,0.59-1.68,0.59-2.76c0-1.72-0.38-3.06-1.14-4.02c-0.76-0.96-1.76-1.44-2.99-1.44c-1.21,0-2.17,0.46-2.9,1.38
			C175.06,85.58,174.69,86.88,174.69,88.58z"/>
		<path class="st1" d="M178.47,103.95c-1.49,0-2.84-0.21-4.02-0.63c-1.2-0.43-2.14-0.99-2.79-1.67c-0.69-0.71-1.03-1.47-1.03-2.25
			c0-0.62,0.22-1.14,0.65-1.54c0.42-0.39,0.93-0.59,1.52-0.59c0.73,0,1.37,0.32,1.91,0.95c0.23,0.28,0.46,0.56,0.7,0.84
			c0.22,0.26,0.47,0.48,0.73,0.66c0.25,0.17,0.57,0.31,0.94,0.39c0.38,0.09,0.83,0.14,1.34,0.14c1.03,0,1.83-0.14,2.38-0.42
			c0.53-0.27,0.89-0.62,1.09-1.09c0.22-0.5,0.36-1.05,0.39-1.63c0.03-0.44,0.05-1.08,0.07-1.91c-0.51,0.54-1.07,0.99-1.67,1.33
			c-0.91,0.5-1.99,0.76-3.22,0.76c-1.48,0-2.8-0.39-3.92-1.15c-1.11-0.76-1.98-1.83-2.57-3.19c-0.59-1.34-0.88-2.91-0.88-4.65
			c0-1.31,0.18-2.5,0.54-3.56c0.36-1.07,0.88-1.98,1.56-2.72c0.67-0.74,1.46-1.3,2.34-1.68c0.88-0.37,1.86-0.56,2.9-0.56
			c1.25,0,2.36,0.25,3.28,0.73c0.67,0.35,1.31,0.85,1.92,1.49c0.06-0.63,0.27-1.14,0.62-1.53c0.43-0.48,1-0.73,1.67-0.73
			c0.96,0,1.62,0.34,1.96,1c0.3,0.59,0.44,1.4,0.44,2.47v12.27c0,1.43-0.16,2.69-0.46,3.73c-0.32,1.07-0.83,1.96-1.53,2.67
			c-0.7,0.7-1.63,1.23-2.75,1.56C181.46,103.78,180.09,103.95,178.47,103.95z M172.79,98.02c-0.4,0-0.73,0.13-1.01,0.39
			c-0.27,0.25-0.41,0.58-0.41,0.99c0,0.59,0.27,1.15,0.82,1.73c0.57,0.6,1.42,1.1,2.5,1.49c1.1,0.39,2.37,0.59,3.77,0.59
			c1.54,0,2.85-0.16,3.88-0.46c1-0.3,1.82-0.76,2.43-1.38c0.61-0.61,1.06-1.4,1.34-2.35c0.29-0.97,0.43-2.15,0.43-3.51V83.22
			c0-0.94-0.12-1.65-0.36-2.13c-0.2-0.4-0.62-0.59-1.29-0.59c-0.46,0-0.82,0.16-1.11,0.48c-0.3,0.33-0.45,0.82-0.45,1.45v1.68
			l-0.67-0.87c-0.72-0.93-1.5-1.62-2.32-2.06c-0.82-0.43-1.81-0.65-2.94-0.65c-0.94,0-1.82,0.17-2.61,0.5
			c-0.78,0.33-1.48,0.84-2.08,1.49c-0.6,0.66-1.07,1.49-1.4,2.45c-0.33,0.98-0.5,2.09-0.5,3.31c0,1.64,0.28,3.11,0.82,4.35
			c0.54,1.23,1.31,2.19,2.31,2.87c0.99,0.68,2.17,1.02,3.49,1.02c1.1,0,2.07-0.22,2.86-0.66c0.8-0.44,1.51-1.11,2.13-1.96l0.7-0.98
			l-0.02,1.2c-0.02,1.4-0.05,2.39-0.09,3.03c-0.04,0.67-0.2,1.3-0.46,1.88c-0.28,0.63-0.76,1.12-1.44,1.46
			c-0.66,0.33-1.57,0.5-2.71,0.5c-0.56,0-1.07-0.05-1.51-0.16c-0.46-0.11-0.86-0.28-1.19-0.5c-0.32-0.22-0.61-0.49-0.88-0.79
			c-0.24-0.29-0.48-0.57-0.71-0.85C173.74,98.24,173.3,98.02,172.79,98.02z M178.72,94.15c-1.3,0-2.37-0.49-3.19-1.45
			c-0.8-0.94-1.21-2.33-1.21-4.13c0-1.77,0.39-3.17,1.17-4.15c0.8-1.01,1.87-1.52,3.2-1.52c1.35,0,2.46,0.53,3.29,1.58
			c0.81,1.02,1.22,2.45,1.22,4.26c0,1.14-0.21,2.13-0.63,2.94c-0.42,0.82-0.98,1.44-1.66,1.85
			C180.22,93.94,179.49,94.15,178.72,94.15z M178.69,83.66c-1.1,0-1.95,0.4-2.61,1.24c-0.67,0.85-1.01,2.08-1.01,3.68
			c0,1.61,0.35,2.84,1.03,3.64c0.68,0.8,1.54,1.18,2.62,1.18c0.63,0,1.23-0.17,1.8-0.51c0.56-0.34,1.03-0.86,1.38-1.55
			c0.36-0.7,0.55-1.57,0.55-2.59c0-1.63-0.36-2.9-1.06-3.79C180.7,84.08,179.81,83.66,178.69,83.66z"/>
	</g>
</g>
</svg>
